<?xml version="1.0" encoding="us-ascii" standalone="no"?><svg xmlns="http://www.w3.org/2000/svg" xmlns:xlink="http://www.w3.org/1999/xlink" contentStyleType="text/css" height="535px" preserveAspectRatio="none" style="width:591px;height:535px;background:#FFFFFF;" version="1.1" viewBox="0 0 591 535" width="591px" zoomAndPan="magnify"><defs/><g><ellipse cx="189" cy="16" fill="#222222" rx="10" ry="10" style="stroke:#222222;stroke-width:1.0;"/><rect fill="#F1F1F1" height="40" rx="12.5" ry="12.5" style="stroke:#181818;stroke-width:0.5;" width="67" x="155.5" y="56"/><text fill="#000000" font-family="sans-serif" font-size="14" lengthAdjust="spacing" textLength="57" x="160.5" y="80.8467">pending</text><rect fill="#F1F1F1" height="40" rx="12.5" ry="12.5" style="stroke:#181818;stroke-width:0.5;" width="117" x="78.5" y="126"/><text fill="#000000" font-family="sans-serif" font-size="14" lengthAdjust="spacing" textLength="107" x="83.5" y="150.8467">waiting_to_start</text><rect fill="#F1F1F1" height="40" rx="12.5" ry="12.5" style="stroke:#181818;stroke-width:0.5;" width="62" x="158" y="196"/><text fill="#000000" font-family="sans-serif" font-size="14" lengthAdjust="spacing" textLength="52" x="163" y="220.8467">starting</text><rect fill="#F1F1F1" height="40" rx="12.5" ry="12.5" style="stroke:#181818;stroke-width:0.5;" width="63" x="157.5" y="281.5"/><text fill="#000000" font-family="sans-serif" font-size="14" lengthAdjust="spacing" textLength="53" x="162.5" y="306.3467">running</text><rect fill="#F1F1F1" height="40" rx="12.5" ry="12.5" style="stroke:#181818;stroke-width:0.5;" width="50" x="374" y="367"/><text fill="#000000" font-family="sans-serif" font-size="14" lengthAdjust="spacing" textLength="36" x="381" y="391.8467">failed</text><rect fill="#F1F1F1" height="40" rx="12.5" ry="12.5" style="stroke:#181818;stroke-width:0.5;" width="88" x="7" y="367"/><text fill="#000000" font-family="sans-serif" font-size="14" lengthAdjust="spacing" textLength="78" x="12" y="391.8467">succeeded</text><rect fill="#F1F1F1" height="40" rx="12.5" ry="12.5" style="stroke:#181818;stroke-width:0.5;" width="71" x="125.5" y="367"/><text fill="#000000" font-family="sans-serif" font-size="14" lengthAdjust="spacing" textLength="61" x="130.5" y="391.8467">stopping</text><rect fill="#F1F1F1" height="40" rx="12.5" ry="12.5" style="stroke:#181818;stroke-width:0.5;" width="71" x="244.5" y="437"/><text fill="#000000" font-family="sans-serif" font-size="14" lengthAdjust="spacing" textLength="61" x="249.5" y="461.8467">removed</text><rect fill="#F1F1F1" height="40" rx="12.5" ry="12.5" style="stroke:#181818;stroke-width:0.5;" width="117" x="226.5" y="367"/><text fill="#000000" font-family="sans-serif" font-size="14" lengthAdjust="spacing" textLength="107" x="231.5" y="391.8467">waiting_to_stop</text><rect fill="#F1F1F1" height="40" rx="12.5" ry="12.5" style="stroke:#181818;stroke-width:0.5;" width="74" x="454" y="367"/><text fill="#000000" font-family="sans-serif" font-size="14" lengthAdjust="spacing" textLength="64" x="459" y="391.8467">unknown</text><g id="elem_GMN29"><path d="M397.5,266 L397.5,336.5313 L584.5,336.5313 L584.5,276 L574.5,266 L397.5,266 " fill="#FFFFFF" style="stroke:#181818;stroke-width:0.5;"/><path d="M574.5,266 L574.5,276 L584.5,276 L574.5,266 " fill="#FFFFFF" style="stroke:#181818;stroke-width:1.0;"/><text fill="#000000" font-family="sans-serif" font-size="13" lengthAdjust="spacing" textLength="150" x="403.5" y="283.0669">A transition to unknown</text><text fill="#000000" font-family="sans-serif" font-size="13" lengthAdjust="spacing" textLength="166" x="403.5" y="298.1997">is possible from all states,</text><text fill="#000000" font-family="sans-serif" font-size="13" lengthAdjust="spacing" textLength="162" x="403.5" y="313.3325">but is now shown here for</text><text fill="#000000" font-family="sans-serif" font-size="13" lengthAdjust="spacing" textLength="113" x="403.5" y="328.4653">better readability.</text></g><ellipse cx="280" cy="518" fill="none" rx="11" ry="11" style="stroke:#222222;stroke-width:1.0;"/><ellipse cx="280" cy="518" fill="#222222" rx="6" ry="6" style="stroke:#222222;stroke-width:1.0;"/><!--link *start* to pending--><g id="link_*start*_pending"><path d="M189,26.06 C189,33.96 189,39.69 189,49.69 " fill="none" id="*start*-to-pending" style="stroke:#181818;stroke-width:1.0;"/><polygon fill="#181818" points="189,55.69,193,46.69,189,50.69,185,46.69,189,55.69" style="stroke:#181818;stroke-width:1.0;"/></g><!--link pending to waiting_to_start--><g id="link_pending_waiting_to_start"><path d="M174.24,96.3 C167.15,105.57 162.336,111.8749 155.266,121.1149 " fill="none" id="pending-to-waiting_to_start" style="stroke:#181818;stroke-width:1.0;"/><polygon fill="#181818" points="151.62,125.88,160.2658,121.163,154.6584,121.9091,153.9123,116.3016,151.62,125.88" style="stroke:#181818;stroke-width:1.0;"/></g><!--link waiting_to_start to starting--><g id="link_waiting_to_start_starting"><path d="M151.76,166.3 C158.85,175.57 163.664,181.8749 170.734,191.1149 " fill="none" id="waiting_to_start-to-starting" style="stroke:#181818;stroke-width:1.0;"/><polygon fill="#181818" points="174.38,195.88,172.0877,186.3016,171.3416,191.9091,165.7342,191.163,174.38,195.88" style="stroke:#181818;stroke-width:1.0;"/></g><!--link pending to starting--><g id="link_pending_starting"><path d="M199.98,96.38 C204.33,105.13 208.81,115.79 211,126 C214.72,143.38 214.72,148.62 211,166 C208.81,176.21 207.001,181.4973 202.651,190.2473 " fill="none" id="pending-to-starting" style="stroke:#181818;stroke-width:1.0;"/><polygon fill="#181818" points="199.98,195.62,207.5683,189.3416,202.2058,191.1428,200.4047,185.7803,199.98,195.62" style="stroke:#181818;stroke-width:1.0;"/></g><!--link starting to running--><g id="link_starting_running"><path d="M189,236.37 C189,249.86 189,261.77 189,275.24 " fill="none" id="starting-to-running" style="stroke:#181818;stroke-width:1.0;"/><polygon fill="#181818" points="189,281.24,193,272.24,189,276.24,185,272.24,189,281.24" style="stroke:#181818;stroke-width:1.0;"/></g><!--link starting to failed--><g id="link_starting_failed"><path d="M212.68,236.06 C253.01,268.52 329.9154,330.4086 370.4054,362.9886 " fill="none" id="starting-to-failed" style="stroke:#181818;stroke-width:1.0;"/><polygon fill="#181818" points="375.08,366.75,370.5757,357.9915,371.1845,363.6155,365.5605,364.2243,375.08,366.75" style="stroke:#181818;stroke-width:1.0;"/></g><!--link starting to succeeded--><g id="link_starting_succeeded"><path d="M169.71,236.07 C161,244.95 150.73,255.78 142,266 C112.8,300.2 85.2438,337.725 68.0138,361.885 " fill="none" id="starting-to-succeeded" style="stroke:#181818;stroke-width:1.0;"/><polygon fill="#181818" points="64.53,366.77,73.0124,361.765,67.4332,362.6992,66.499,357.12,64.53,366.77" style="stroke:#181818;stroke-width:1.0;"/></g><!--link running to succeeded--><g id="link_running_succeeded"><path d="M157.34,321.66 C134.9,335.23 110.0534,350.2638 87.6434,363.8238 " fill="none" id="running-to-succeeded" style="stroke:#181818;stroke-width:1.0;"/><polygon fill="#181818" points="82.51,366.93,92.2809,365.693,86.7878,364.3415,88.1393,358.8485,82.51,366.93" style="stroke:#181818;stroke-width:1.0;"/></g><!--link running to failed--><g id="link_running_failed"><path d="M220.74,316.23 C236.13,322.75 254.93,330.52 272,337 C310.24,351.52 321.14,351.53 359,367 C363.84,368.98 363.4918,368.7051 368.3618,370.9751 " fill="none" id="running-to-failed" style="stroke:#181818;stroke-width:1.0;"/><polygon fill="#181818" points="373.8,373.51,367.3326,366.0822,369.2681,371.3976,363.9527,373.3332,373.8,373.51" style="stroke:#181818;stroke-width:1.0;"/></g><!--link running to stopping--><g id="link_running_stopping"><path d="M182.51,321.87 C177.98,335.36 173.875,347.5804 169.365,361.0504 " fill="none" id="running-to-stopping" style="stroke:#181818;stroke-width:1.0;"/><polygon fill="#181818" points="167.46,366.74,174.1105,359.4756,169.0475,361.9987,166.5244,356.9357,167.46,366.74" style="stroke:#181818;stroke-width:1.0;"/></g><!--link stopping to removed--><g id="link_stopping_removed"><path d="M194.46,407.12 C210.69,416.39 224.9219,424.5207 241.1619,433.8107 " fill="none" id="stopping-to-removed" style="stroke:#181818;stroke-width:1.0;"/><polygon fill="#181818" points="246.37,436.79,240.5441,428.8491,242.0299,434.3073,236.5717,435.7932,246.37,436.79" style="stroke:#181818;stroke-width:1.0;"/></g><!--link failed to removed--><g id="link_failed_removed"><path d="M373.76,402.42 C356.16,412.48 337.6998,423.0338 318.5498,433.9738 " fill="none" id="failed-to-removed" style="stroke:#181818;stroke-width:1.0;"/><polygon fill="#181818" points="313.34,436.95,323.1389,435.9588,317.6815,434.4698,319.1705,429.0124,313.34,436.95" style="stroke:#181818;stroke-width:1.0;"/></g><!--link succeeded to removed--><g id="link_succeeded_removed"><path d="M95.09,402.36 C100.11,403.95 105.16,405.52 110,407 C156.27,421.12 204.1735,434.7878 238.6435,444.4678 " fill="none" id="succeeded-to-removed" style="stroke:#181818;stroke-width:1.0;"/><polygon fill="#181818" points="244.42,446.09,236.8366,439.8057,239.6062,444.7382,234.6737,447.5077,244.42,446.09" style="stroke:#181818;stroke-width:1.0;"/></g><!--link running to waiting_to_stop--><g id="link_running_waiting_to_stop"><path d="M211.27,321.87 C226.77,335.36 242.8424,349.3329 258.3324,362.8029 " fill="none" id="running-to-waiting_to_stop" style="stroke:#181818;stroke-width:1.0;"/><polygon fill="#181818" points="262.86,366.74,258.6934,357.8159,259.087,363.459,253.4439,363.8527,262.86,366.74" style="stroke:#181818;stroke-width:1.0;"/></g><!--link waiting_to_stop to stopping--><g id="link_waiting_to_stop_stopping"><path d="M226.46,387 C216.59,387 212.72,387 202.84,387 " fill="none" id="waiting_to_stop-to-stopping" style="stroke:#181818;stroke-width:1.0;"/><polygon fill="#181818" points="196.84,387,205.84,391,201.84,387,205.84,383,196.84,387" style="stroke:#181818;stroke-width:1.0;"/></g><!--link unknown to removed--><g id="link_unknown_removed"><path d="M453.87,401.83 C448.89,403.61 443.83,405.38 439,407 C396.84,421.19 353.6229,434.3358 321.2829,443.9158 " fill="none" id="unknown-to-removed" style="stroke:#181818;stroke-width:1.0;"/><polygon fill="#181818" points="315.53,445.62,325.2955,446.899,320.3241,444.1999,323.0232,439.2285,315.53,445.62" style="stroke:#181818;stroke-width:1.0;"/></g><!--link GMN29 to unknown--><g id="link_GMN29_unknown"><path d="M491,337.43 C491,347.44 491,357.99 491,366.69 " fill="none" id="GMN29-unknown" style="stroke:#181818;stroke-width:1.0;stroke-dasharray:7.0,7.0;"/></g><!--link removed to *end*--><g id="link_removed_*end*"><path d="M280,477.32 C280,487.13 280,492.66 280,500.75 " fill="none" id="removed-to-*end*" style="stroke:#181818;stroke-width:1.0;"/><polygon fill="#181818" points="280,506.75,284,497.75,280,501.75,276,497.75,280,506.75" style="stroke:#181818;stroke-width:1.0;"/></g><!--SRC=[VPBRQiCm38Rl_HJQxLYIDnZiESOeZgqqeevaR7cbRp_di59ti128ykd_9VamaqV09UeDF6QNA2e9cnTY5qfDzVrmVnDcASbX7hou8GRBMfOmk82M-tmXDiPyldv1rxr3HFR4PtDyDtQrf3K-gPoosgJc6MogBNgstk5liD5KcF_0oL90tx9Sd4Fq5H-MV-ZXRuGgCUwDzc3lZejyL-LkQD2zSaCVIpPBbsYU_g5BT9xriNVX2ykLcueiYh3APO8ZRw0-7w39SgRrB6k-oL66A3dJ612c90lO4DRzLSnlcs0ikegg0VAyTfmnLQcaFOkgcEe4rjkH0kcjD_MWO1t577DjCzQRy0C0]--></g></svg>