<?xml version="1.0" encoding="UTF-8" standalone="no"?><svg xmlns="http://www.w3.org/2000/svg" xmlns:xlink="http://www.w3.org/1999/xlink" contentStyleType="text/css" height="533px" preserveAspectRatio="none" style="width:591px;height:533px;background:#FFFFFF;" version="1.1" viewBox="0 0 591 533" width="591px" zoomAndPan="magnify"><defs/><g><ellipse cx="189" cy="16" fill="#222222" rx="10" ry="10" style="stroke:none;stroke-width:1.0;"/><rect fill="#F1F1F1" height="40" rx="12.5" ry="12.5" style="stroke:#181818;stroke-width:0.5;" width="67" x="155.5" y="56"/><text fill="#000000" font-family="sans-serif" font-size="14" lengthAdjust="spacing" textLength="57" x="160.5" y="80.8467">pending</text><rect fill="#F1F1F1" height="40" rx="12.5" ry="12.5" style="stroke:#181818;stroke-width:0.5;" width="117" x="78.5" y="126"/><text fill="#000000" font-family="sans-serif" font-size="14" lengthAdjust="spacing" textLength="107" x="83.5" y="150.8467">waiting_to_start</text><rect fill="#F1F1F1" height="40" rx="12.5" ry="12.5" style="stroke:#181818;stroke-width:0.5;" width="62" x="158" y="196"/><text fill="#000000" font-family="sans-serif" font-size="14" lengthAdjust="spacing" textLength="52" x="163" y="220.8467">starting</text><rect fill="#F1F1F1" height="40" rx="12.5" ry="12.5" style="stroke:#181818;stroke-width:0.5;" width="63" x="157.5" y="281.5"/><text fill="#000000" font-family="sans-serif" font-size="14" lengthAdjust="spacing" textLength="53" x="162.5" y="306.3467">running</text><rect fill="#F1F1F1" height="40" rx="12.5" ry="12.5" style="stroke:#181818;stroke-width:0.5;" width="50" x="374" y="367"/><text fill="#000000" font-family="sans-serif" font-size="14" lengthAdjust="spacing" textLength="36" x="381" y="391.8467">failed</text><rect fill="#F1F1F1" height="40" rx="12.5" ry="12.5" style="stroke:#181818;stroke-width:0.5;" width="88" x="7" y="367"/><text fill="#000000" font-family="sans-serif" font-size="14" lengthAdjust="spacing" textLength="78" x="12" y="391.8467">succeeded</text><rect fill="#F1F1F1" height="40" rx="12.5" ry="12.5" style="stroke:#181818;stroke-width:0.5;" width="71" x="125.5" y="367"/><text fill="#000000" font-family="sans-serif" font-size="14" lengthAdjust="spacing" textLength="61" x="130.5" y="391.8467">stopping</text><rect fill="#F1F1F1" height="40" rx="12.5" ry="12.5" style="stroke:#181818;stroke-width:0.5;" width="71" x="244.5" y="437"/><text fill="#000000" font-family="sans-serif" font-size="14" lengthAdjust="spacing" textLength="61" x="249.5" y="461.8467">removed</text><rect fill="#F1F1F1" height="40" rx="12.5" ry="12.5" style="stroke:#181818;stroke-width:0.5;" width="117" x="226.5" y="367"/><text fill="#000000" font-family="sans-serif" font-size="14" lengthAdjust="spacing" textLength="107" x="231.5" y="391.8467">waiting_to_stop</text><rect fill="#F1F1F1" height="40" rx="12.5" ry="12.5" style="stroke:#181818;stroke-width:0.5;" width="74" x="454" y="367"/><text fill="#000000" font-family="sans-serif" font-size="14" lengthAdjust="spacing" textLength="64" x="459" y="391.8467">unknown</text><g id="elem_GMN28"><path d="M397.5,266 L397.5,336.5313 L584.5,336.5313 L584.5,276 L574.5,266 L397.5,266 " fill="#FFFFFF" style="stroke:#181818;stroke-width:0.5;"/><path d="M574.5,266 L574.5,276 L584.5,276 L574.5,266 " fill="#FFFFFF" style="stroke:#181818;stroke-width:1.0;"/><text fill="#000000" font-family="sans-serif" font-size="13" lengthAdjust="spacing" textLength="150" x="403.5" y="283.0669">A transition to unknown</text><text fill="#000000" font-family="sans-serif" font-size="13" lengthAdjust="spacing" textLength="166" x="403.5" y="298.1997">is possible from all states,</text><text fill="#000000" font-family="sans-serif" font-size="13" lengthAdjust="spacing" textLength="162" x="403.5" y="313.3325">but is now shown here for</text><text fill="#000000" font-family="sans-serif" font-size="13" lengthAdjust="spacing" textLength="113" x="403.5" y="328.4653">better readability.</text></g><ellipse cx="280" cy="517" fill="none" rx="10" ry="10" style="stroke:#222222;stroke-width:1.0;"/><ellipse cx="280.5" cy="517.5" fill="#222222" rx="6" ry="6" style="stroke:none;stroke-width:1.0;"/><!--MD5=[1938bc6a853a11b9ef2efe3ae926af70]
link *start to pending--><g id="link_*start_pending"><path d="M189,26.06 C189,32.61 189,41.77 189,50.41 " fill="none" id="*start-to-pending" style="stroke:#181818;stroke-width:1.0;"/><polygon fill="#181818" points="189,55.69,193,46.69,189,50.69,185,46.69,189,55.69" style="stroke:#181818;stroke-width:1.0;"/></g><!--MD5=[2520fe540b3d58c905ec4f9aad7f8d98]
link pending to waiting_to_start--><g id="link_pending_waiting_to_start"><path d="M174.24,96.3 C168.15,104.27 161.04,113.56 154.68,121.89 " fill="none" id="pending-to-waiting_to_start" style="stroke:#181818;stroke-width:1.0;"/><polygon fill="#181818" points="151.62,125.88,160.2582,121.149,154.6519,121.9042,153.8968,116.2979,151.62,125.88" style="stroke:#181818;stroke-width:1.0;"/></g><!--MD5=[f35ea31b1b3c71896ca977e14d13f8a1]
link waiting_to_start to starting--><g id="link_waiting_to_start_starting"><path d="M151.76,166.3 C157.85,174.27 164.96,183.56 171.32,191.89 " fill="none" id="waiting_to_start-to-starting" style="stroke:#181818;stroke-width:1.0;"/><polygon fill="#181818" points="174.38,195.88,172.1032,186.2979,171.3481,191.9042,165.7418,191.149,174.38,195.88" style="stroke:#181818;stroke-width:1.0;"/></g><!--MD5=[aa7281d46161640b77e7699d8a43f1a0]
link pending to starting--><g id="link_pending_starting"><path d="M199.98,96.38 C204.33,105.13 208.81,115.79 211,126 C214.72,143.38 214.72,148.62 211,166 C209.19,174.46 205.8,183.22 202.22,190.95 " fill="none" id="pending-to-starting" style="stroke:#181818;stroke-width:1.0;"/><polygon fill="#181818" points="199.98,195.62,207.4695,189.2241,202.1358,191.1086,200.2513,185.7749,199.98,195.62" style="stroke:#181818;stroke-width:1.0;"/></g><!--MD5=[c0e80c145686b152f916702537eab2a6]
link starting to running--><g id="link_starting_running"><path d="M189,236.37 C189,248.17 189,263.36 189,276 " fill="none" id="starting-to-running" style="stroke:#181818;stroke-width:1.0;"/><polygon fill="#181818" points="189,281.24,193,272.24,189,276.24,185,272.24,189,281.24" style="stroke:#181818;stroke-width:1.0;"/></g><!--MD5=[b6127094ee174eacca2d16d56020ad56]
link starting to failed--><g id="link_starting_failed"><path d="M212.68,236.06 C251.75,267.5 329.53,330.1 371.17,363.6 " fill="none" id="starting-to-failed" style="stroke:#181818;stroke-width:1.0;"/><polygon fill="#181818" points="375.08,366.75,370.5627,357.9982,371.1798,363.6213,365.5568,364.2385,375.08,366.75" style="stroke:#181818;stroke-width:1.0;"/></g><!--MD5=[e6dd672857b50ab085eb8b487ed8deca]
link starting to succeeded--><g id="link_starting_succeeded"><path d="M169.71,236.07 C161,244.95 150.73,255.78 142,266 C114.4,298.33 85.15,338 67.48,362.64 " fill="none" id="starting-to-succeeded" style="stroke:#181818;stroke-width:1.0;"/><polygon fill="#181818" points="64.53,366.77,73.0293,361.7939,67.447,362.7091,66.5319,357.1267,64.53,366.77" style="stroke:#181818;stroke-width:1.0;"/></g><!--MD5=[d4c977e903007ef2f4bf581d69e4bacc]
link running to succeeded--><g id="link_running_succeeded"><path d="M157.34,321.66 C136.3,334.39 108.64,351.12 86.8,364.34 " fill="none" id="running-to-succeeded" style="stroke:#181818;stroke-width:1.0;"/><polygon fill="#181818" points="82.51,366.93,92.2776,365.6673,86.781,364.3303,88.118,358.8337,82.51,366.93" style="stroke:#181818;stroke-width:1.0;"/></g><!--MD5=[399034fc0de3ab88d13663a66631867a]
link running to failed--><g id="link_running_failed"><path d="M220.74,316.23 C236.13,322.75 254.93,330.52 272,337 C310.24,351.52 321.14,351.53 359,367 C362.33,368.36 365.77,369.86 369.18,371.39 " fill="none" id="running-to-failed" style="stroke:#181818;stroke-width:1.0;"/><polygon fill="#181818" points="373.8,373.51,367.281,366.1274,369.2536,371.4292,363.9517,373.4017,373.8,373.51" style="stroke:#181818;stroke-width:1.0;"/></g><!--MD5=[c5c1c61010a6029e8ea9779d03909dca]
link running to stopping--><g id="link_running_stopping"><path d="M182.51,321.87 C178.51,333.78 173.36,349.13 169.1,361.84 " fill="none" id="running-to-stopping" style="stroke:#181818;stroke-width:1.0;"/><polygon fill="#181818" points="167.46,366.74,174.1074,359.4728,169.0454,361.998,166.5202,356.9361,167.46,366.74" style="stroke:#181818;stroke-width:1.0;"/></g><!--MD5=[5c211e3dae8c2fd97daa1bd31701303a]
link stopping to removed--><g id="link_stopping_removed"><path d="M194.46,407.12 C209.17,415.52 226.51,425.44 241.73,434.13 " fill="none" id="stopping-to-removed" style="stroke:#181818;stroke-width:1.0;"/><polygon fill="#181818" points="246.37,436.79,240.5573,428.8394,242.0341,434.3001,236.5734,435.7769,246.37,436.79" style="stroke:#181818;stroke-width:1.0;"/></g><!--MD5=[659cf592d10b3a62b9a0c5364197d816]
link failed to removed--><g id="link_failed_removed"><path d="M373.76,402.42 C357.54,411.69 336.15,423.91 317.9,434.34 " fill="none" id="failed-to-removed" style="stroke:#181818;stroke-width:1.0;"/><polygon fill="#181818" points="313.34,436.95,323.138,435.9508,317.6795,434.4662,319.164,429.0077,313.34,436.95" style="stroke:#181818;stroke-width:1.0;"/></g><!--MD5=[b06fcf8457b9f8435ea750ded4455153]
link succeeded to removed--><g id="link_succeeded_removed"><path d="M95.09,402.36 C100.11,403.95 105.16,405.52 110,407 C154.1,420.45 204.94,434.98 239.45,444.69 " fill="none" id="succeeded-to-removed" style="stroke:#181818;stroke-width:1.0;"/><polygon fill="#181818" points="244.42,446.09,236.8429,439.7981,239.6076,444.7334,234.6723,447.498,244.42,446.09" style="stroke:#181818;stroke-width:1.0;"/></g><!--MD5=[a132e328d050ad0d4f7efd21c8efd5db]
link running to waiting_to_stop--><g id="link_running_waiting_to_stop"><path d="M211.27,321.87 C225.44,334.2 243.87,350.23 258.76,363.17 " fill="none" id="running-to-waiting_to_stop" style="stroke:#181818;stroke-width:1.0;"/><polygon fill="#181818" points="262.86,366.74,258.7016,357.8121,259.09,363.4556,253.4465,363.844,262.86,366.74" style="stroke:#181818;stroke-width:1.0;"/></g><!--MD5=[13a78eded7fa5951c1d81944b7fabac3]
link waiting_to_stop to stopping--><g id="link_waiting_to_stop_stopping"><path d="M226.46,387 C218.28,387 210.11,387 201.93,387 " fill="none" id="waiting_to_stop-to-stopping" style="stroke:#181818;stroke-width:1.0;"/><polygon fill="#181818" points="196.84,387,205.84,391,201.84,387,205.84,383,196.84,387" style="stroke:#181818;stroke-width:1.0;"/></g><!--MD5=[3f87c6907eeaa828c237f0596e26254b]
link GMN28 to unknown--><g id="link_GMN28_unknown"><path d="M491,337.43 C491,347.44 491,357.99 491,366.69 " fill="none" id="GMN28-unknown" style="stroke:#181818;stroke-width:1.0;stroke-dasharray:7.0,7.0;"/></g><!--MD5=[4bd0af4f8ae53d549acc22cdfc25ebf2]
link unknown to removed--><g id="link_unknown_removed"><path d="M453.87,401.83 C448.89,403.61 443.83,405.38 439,407 C398.98,420.47 352.82,434.53 320.58,444.12 " fill="none" id="unknown-to-removed" style="stroke:#181818;stroke-width:1.0;"/><polygon fill="#181818" points="315.53,445.62,325.2946,446.9053,320.325,444.203,323.0274,439.2333,315.53,445.62" style="stroke:#181818;stroke-width:1.0;"/></g><!--MD5=[e657e84c945bc36680c99b9b57e774ed]
link removed to *end--><g id="link_removed_*end"><path d="M280,477.31 C280,485.3 280,494.39 280,501.75 " fill="none" id="removed-to-*end" style="stroke:#181818;stroke-width:1.0;"/><polygon fill="#181818" points="280,506.99,284,497.99,280,501.99,276,497.99,280,506.99" style="stroke:#181818;stroke-width:1.0;"/></g><!--MD5=[1ec7922097ad80b11f20af663b431325]
@startuml
hide empty description
!include ../../../../resources/doc/plantuml/clean.skin


[*] - -> pending
pending - -> waiting_to_start
waiting_to_start - -> starting
pending - -> starting
starting - -> running
starting - -> failed
starting - -> succeeded
running - -> succeeded
running - -> failed
running - -> stopping
stopping - -> removed
failed - -> removed
succeeded - -> removed
running - -> waiting_to_stop
waiting_to_stop -right-> stopping
note top of unknown
    A transition to unknown
    is possible from all states,
    but is now shown here for
    better readability.
end note
unknown - -> removed
removed - -> [*]
@enduml

@startuml
hide empty description
skinparam monochrome true
skinparam guillemet true
skinparam style strictuml
hide empty members
hide empty methods

skinparam class {
    BorderColor<<logical entity>> grey
    FontColor<<logical entity>> grey
    StereotypeFontColor<<logical entity>> grey
}

skinparam sequenceBox {
    BorderColor #LightGrey
    BackgroundColor #EEEEEE
    FontColor #777777
}

skinparam BoxPadding 10

skinparam note {
    BackgroundColor #FFFFFF
}

skinparam nodesep 30
skinparam ranksep 30


[*] - -> pending
pending - -> waiting_to_start
waiting_to_start - -> starting
pending - -> starting
starting - -> running
starting - -> failed
starting - -> succeeded
running - -> succeeded
running - -> failed
running - -> stopping
stopping - -> removed
failed - -> removed
succeeded - -> removed
running - -> waiting_to_stop
waiting_to_stop -right-> stopping
note top of unknown
    A transition to unknown
    is possible from all states,
    but is now shown here for
    better readability.
end note
unknown - -> removed
removed - -> [*]
@enduml

PlantUML version 1.2022.7(Mon Aug 22 17:01:30 UTC 2022)
(GPL source distribution)
Java Runtime: OpenJDK Runtime Environment
JVM: OpenJDK 64-Bit Server VM
Default Encoding: ANSI_X3.4-1968
Language: en
Country: US
--></g></svg>