<?xml version="1.0" encoding="us-ascii" standalone="no"?><svg xmlns="http://www.w3.org/2000/svg" xmlns:xlink="http://www.w3.org/1999/xlink" contentStyleType="text/css" height="535px" preserveAspectRatio="none" style="width:589px;height:535px;background:#FFFFFF;" version="1.1" viewBox="0 0 589 535" width="589px" zoomAndPan="magnify"><defs/><g><ellipse cx="410.5" cy="16" fill="#222222" rx="10" ry="10" style="stroke:#222222;stroke-width:1.0;"/><rect fill="#F1F1F1" height="40" rx="12.5" ry="12.5" style="stroke:#181818;stroke-width:0.5;" width="67" x="377" y="56"/><text fill="#000000" font-family="sans-serif" font-size="14" lengthAdjust="spacing" textLength="57" x="382" y="80.8467">pending</text><rect fill="#F1F1F1" height="40" rx="12.5" ry="12.5" style="stroke:#181818;stroke-width:0.5;" width="117" x="300" y="126"/><text fill="#000000" font-family="sans-serif" font-size="14" lengthAdjust="spacing" textLength="107" x="305" y="150.8467">waiting_to_start</text><rect fill="#F1F1F1" height="40" rx="12.5" ry="12.5" style="stroke:#181818;stroke-width:0.5;" width="62" x="365.5" y="196"/><text fill="#000000" font-family="sans-serif" font-size="14" lengthAdjust="spacing" textLength="52" x="370.5" y="220.8467">starting</text><rect fill="#F1F1F1" height="40" rx="12.5" ry="12.5" style="stroke:#181818;stroke-width:0.5;" width="63" x="365" y="281.5"/><text fill="#000000" font-family="sans-serif" font-size="14" lengthAdjust="spacing" textLength="53" x="370" y="306.3467">running</text><rect fill="#F1F1F1" height="40" rx="12.5" ry="12.5" style="stroke:#181818;stroke-width:0.5;" width="50" x="166.5" y="367"/><text fill="#000000" font-family="sans-serif" font-size="14" lengthAdjust="spacing" textLength="36" x="173.5" y="391.8467">failed</text><rect fill="#F1F1F1" height="40" rx="12.5" ry="12.5" style="stroke:#181818;stroke-width:0.5;" width="88" x="495.5" y="367"/><text fill="#000000" font-family="sans-serif" font-size="14" lengthAdjust="spacing" textLength="78" x="500.5" y="391.8467">succeeded</text><rect fill="#F1F1F1" height="40" rx="12.5" ry="12.5" style="stroke:#181818;stroke-width:0.5;" width="71" x="394" y="367"/><text fill="#000000" font-family="sans-serif" font-size="14" lengthAdjust="spacing" textLength="61" x="399" y="391.8467">stopping</text><rect fill="#F1F1F1" height="40" rx="12.5" ry="12.5" style="stroke:#181818;stroke-width:0.5;" width="71" x="275" y="437"/><text fill="#000000" font-family="sans-serif" font-size="14" lengthAdjust="spacing" textLength="61" x="280" y="461.8467">removed</text><rect fill="#F1F1F1" height="40" rx="12.5" ry="12.5" style="stroke:#181818;stroke-width:0.5;" width="117" x="247" y="367"/><text fill="#000000" font-family="sans-serif" font-size="14" lengthAdjust="spacing" textLength="107" x="252" y="391.8467">waiting_to_stop</text><rect fill="#F1F1F1" height="40" rx="12.5" ry="12.5" style="stroke:#181818;stroke-width:0.5;" width="74" x="62.5" y="367"/><text fill="#000000" font-family="sans-serif" font-size="14" lengthAdjust="spacing" textLength="64" x="67.5" y="391.8467">unknown</text><g id="elem_GMN32"><path d="M6,266 L6,336.5313 L193,336.5313 L193,276 L183,266 L6,266 " fill="#FFFFFF" style="stroke:#181818;stroke-width:0.5;"/><path d="M183,266 L183,276 L193,276 L183,266 " fill="#FFFFFF" style="stroke:#181818;stroke-width:1.0;"/><text fill="#000000" font-family="sans-serif" font-size="13" lengthAdjust="spacing" textLength="150" x="12" y="283.0669">A transition to unknown</text><text fill="#000000" font-family="sans-serif" font-size="13" lengthAdjust="spacing" textLength="166" x="12" y="298.1997">is possible from all states,</text><text fill="#000000" font-family="sans-serif" font-size="13" lengthAdjust="spacing" textLength="162" x="12" y="313.3325">but is now shown here for</text><text fill="#000000" font-family="sans-serif" font-size="13" lengthAdjust="spacing" textLength="113" x="12" y="328.4653">better readability.</text></g><ellipse cx="310.5" cy="518" fill="none" rx="11" ry="11" style="stroke:#222222;stroke-width:1.0;"/><ellipse cx="310.5" cy="518" fill="#222222" rx="6" ry="6" style="stroke:#222222;stroke-width:1.0;"/><!--link *start* to pending--><g id="link_*start*_pending"><path d="M410.5,26.06 C410.5,33.96 410.5,39.69 410.5,49.69 " fill="none" id="*start*-to-pending" style="stroke:#181818;stroke-width:1.0;"/><polygon fill="#181818" points="410.5,55.69,414.5,46.69,410.5,50.69,406.5,46.69,410.5,55.69" style="stroke:#181818;stroke-width:1.0;"/></g><!--link pending to waiting_to_start--><g id="link_pending_waiting_to_start"><path d="M395.74,96.3 C388.65,105.57 383.836,111.8749 376.766,121.1149 " fill="none" id="pending-to-waiting_to_start" style="stroke:#181818;stroke-width:1.0;"/><polygon fill="#181818" points="373.12,125.88,381.7658,121.163,376.1584,121.9091,375.4123,116.3016,373.12,125.88" style="stroke:#181818;stroke-width:1.0;"/></g><!--link waiting_to_start to starting--><g id="link_waiting_to_start_starting"><path d="M369.29,166.3 C374.47,175.57 377.7203,181.4039 382.8903,190.6439 " fill="none" id="waiting_to_start-to-starting" style="stroke:#181818;stroke-width:1.0;"/><polygon fill="#181818" points="385.82,195.88,384.9161,186.0727,383.3786,191.5166,377.9347,189.979,385.82,195.88" style="stroke:#181818;stroke-width:1.0;"/></g><!--link pending to starting--><g id="link_pending_starting"><path d="M421.49,96.33 C430.37,114.52 440.24,142.41 432.5,166 C428.95,176.83 425.7831,182.6011 418.9131,191.0211 " fill="none" id="pending-to-starting" style="stroke:#181818;stroke-width:1.0;"/><polygon fill="#181818" points="415.12,195.67,423.9089,191.2254,418.2809,191.7959,417.7104,186.1679,415.12,195.67" style="stroke:#181818;stroke-width:1.0;"/></g><!--link starting to running--><g id="link_starting_running"><path d="M396.5,236.37 C396.5,249.86 396.5,261.77 396.5,275.24 " fill="none" id="starting-to-running" style="stroke:#181818;stroke-width:1.0;"/><polygon fill="#181818" points="396.5,281.24,400.5,272.24,396.5,276.24,392.5,272.24,396.5,281.24" style="stroke:#181818;stroke-width:1.0;"/></g><!--link starting to failed--><g id="link_starting_failed"><path d="M377.77,236.15 C348.84,265.55 294.33,320.18 272.5,337 C254.79,350.64 238.2845,360.7053 221.7845,369.8753 " fill="none" id="starting-to-failed" style="stroke:#181818;stroke-width:1.0;"/><polygon fill="#181818" points="216.54,372.79,226.3499,371.9143,220.9104,370.3611,222.4636,364.9217,216.54,372.79" style="stroke:#181818;stroke-width:1.0;"/></g><!--link starting to succeeded--><g id="link_starting_succeeded"><path d="M415.66,236.18 C424.35,245.07 434.64,255.89 443.5,266 C473.75,300.51 503.0505,338.0499 521.4005,362.0999 " fill="none" id="starting-to-succeeded" style="stroke:#181818;stroke-width:1.0;"/><polygon fill="#181818" points="525.04,366.87,522.7607,357.2885,522.007,362.8949,516.4006,362.1412,525.04,366.87" style="stroke:#181818;stroke-width:1.0;"/></g><!--link running to succeeded--><g id="link_running_succeeded"><path d="M426.89,321.52 C435.16,326.61 444.14,332.07 452.5,337 C469.67,347.12 483.7397,355.1178 499.7897,364.0678 " fill="none" id="running-to-succeeded" style="stroke:#181818;stroke-width:1.0;"/><polygon fill="#181818" points="505.03,366.99,499.1176,359.1132,500.6631,364.5549,495.2214,366.1003,505.03,366.99" style="stroke:#181818;stroke-width:1.0;"/></g><!--link running to failed--><g id="link_running_failed"><path d="M368.32,321.64 C359.38,327.14 349.27,332.78 339.5,337 C293.76,356.75 278.17,349.58 231.5,367 C226.6,368.83 226.931,368.5228 222.061,370.7628 " fill="none" id="running-to-failed" style="stroke:#181818;stroke-width:1.0;"/><polygon fill="#181818" points="216.61,373.27,226.458,373.1431,221.1525,371.1806,223.115,365.8751,216.61,373.27" style="stroke:#181818;stroke-width:1.0;"/></g><!--link running to stopping--><g id="link_running_stopping"><path d="M404.15,321.87 C409.49,335.36 414.366,347.6895 419.686,361.1595 " fill="none" id="running-to-stopping" style="stroke:#181818;stroke-width:1.0;"/><polygon fill="#181818" points="421.89,366.74,422.3043,356.8999,420.0533,362.0896,414.8636,359.8386,421.89,366.74" style="stroke:#181818;stroke-width:1.0;"/></g><!--link stopping to removed--><g id="link_stopping_removed"><path d="M396.04,407.12 C379.81,416.39 365.5781,424.5207 349.3381,433.8107 " fill="none" id="stopping-to-removed" style="stroke:#181818;stroke-width:1.0;"/><polygon fill="#181818" points="344.13,436.79,353.9283,435.7932,348.4701,434.3073,349.9559,428.8491,344.13,436.79" style="stroke:#181818;stroke-width:1.0;"/></g><!--link failed to removed--><g id="link_failed_removed"><path d="M216.74,402.42 C234.34,412.48 252.8002,423.0338 271.9502,433.9738 " fill="none" id="failed-to-removed" style="stroke:#181818;stroke-width:1.0;"/><polygon fill="#181818" points="277.16,436.95,271.3295,429.0124,272.8185,434.4698,267.3611,435.9588,277.16,436.95" style="stroke:#181818;stroke-width:1.0;"/></g><!--reverse link pending to failed--><g id="link_pending_failed"><path d="M370.9162,83.5711 C343.0062,89.6211 309.97,100.87 285.5,126 C276.61,135.13 217.71,308.25 197.95,366.82 " fill="none" id="pending-backto-failed" style="stroke:#181818;stroke-width:1.0;"/><polygon fill="#181818" points="376.78,82.3,367.1369,80.2974,371.8935,83.3592,368.8317,88.1158,376.78,82.3" style="stroke:#181818;stroke-width:1.0;"/></g><!--link succeeded to removed--><g id="link_succeeded_removed"><path d="M495.41,402.36 C490.39,403.95 485.34,405.52 480.5,407 C434.23,421.12 386.3265,434.7878 351.8565,444.4678 " fill="none" id="succeeded-to-removed" style="stroke:#181818;stroke-width:1.0;"/><polygon fill="#181818" points="346.08,446.09,355.8263,447.5077,350.8938,444.7382,353.6634,439.8057,346.08,446.09" style="stroke:#181818;stroke-width:1.0;"/></g><!--link succeeded to pending--><g id="link_succeeded_pending"><path d="M536.39,366.86 C528.52,322.13 504.88,208.31 456.5,126 C450.11,115.14 445.1902,108.945 436.7002,100.525 " fill="none" id="succeeded-to-pending" style="stroke:#181818;stroke-width:1.0;"/><polygon fill="#181818" points="432.44,96.3,436.0136,105.4777,435.9901,99.8209,441.6469,99.7975,432.44,96.3" style="stroke:#181818;stroke-width:1.0;"/></g><!--link running to waiting_to_stop--><g id="link_running_waiting_to_stop"><path d="M375.39,321.87 C360.69,335.36 345.5909,349.2135 330.9109,362.6835 " fill="none" id="running-to-waiting_to_stop" style="stroke:#181818;stroke-width:1.0;"/><polygon fill="#181818" points="326.49,366.74,335.8257,363.6025,330.1741,363.3596,330.417,357.7079,326.49,366.74" style="stroke:#181818;stroke-width:1.0;"/></g><!--link waiting_to_stop to stopping--><g id="link_waiting_to_stop_stopping"><path d="M364.11,387 C374.07,387 378.03,387 387.99,387 " fill="none" id="waiting_to_stop-to-stopping" style="stroke:#181818;stroke-width:1.0;"/><polygon fill="#181818" points="393.99,387,384.99,383,388.99,387,384.99,391,393.99,387" style="stroke:#181818;stroke-width:1.0;"/></g><!--link unknown to removed--><g id="link_unknown_removed"><path d="M136.63,401.83 C141.61,403.61 146.67,405.38 151.5,407 C193.66,421.19 236.8771,434.3358 269.2171,443.9158 " fill="none" id="unknown-to-removed" style="stroke:#181818;stroke-width:1.0;"/><polygon fill="#181818" points="274.97,445.62,267.4768,439.2285,270.1759,444.1999,265.2045,446.899,274.97,445.62" style="stroke:#181818;stroke-width:1.0;"/></g><!--link GMN32 to unknown--><g id="link_GMN32_unknown"><path d="M99.5,337.43 C99.5,347.44 99.5,357.99 99.5,366.69 " fill="none" id="GMN32-unknown" style="stroke:#181818;stroke-width:1.0;stroke-dasharray:7.0,7.0;"/></g><!--link removed to *end*--><g id="link_removed_*end*"><path d="M310.5,477.32 C310.5,487.13 310.5,492.66 310.5,500.75 " fill="none" id="removed-to-*end*" style="stroke:#181818;stroke-width:1.0;"/><polygon fill="#181818" points="310.5,506.75,314.5,497.75,310.5,501.75,306.5,497.75,310.5,506.75" style="stroke:#181818;stroke-width:1.0;"/></g><!--SRC=[VL9PQiCm4FtNAQQ_fR5lKEWvIWcAD8w7o3D26ZNazfMNXCWjDGQFty9xMaRo23X5lO77x1959M7pGkn2gLJNzOytOPQI7ERUY-jZiAnb2hqBQBdB5s9ZpEVh5nmExn2HFV7PRDy5krhIEXzLZbbjKhC75jKoxQqFy3uiQ2hCly31Ka3VOhauX-Whl5d-GJT_8rI9SGrQXpKT9_ckojNm9nHmqAVDU0GsuXQzQv_pctsIQ7R_S4Xq7lMvQE4BovMR71P5cEKomCORgCy7QBASQJxuoZSSPOYICvq2mf1a0Xl2V1YA-MqHd8hEecg0FCw98wOgbRIog8gfDh3UdYYGtZfJrmTp5RFrMZhMQ_C3]--></g></svg>