<?xml version="1.0" encoding="us-ascii" standalone="no"?><svg xmlns="http://www.w3.org/2000/svg" xmlns:xlink="http://www.w3.org/1999/xlink" contentStyleType="text/css" height="800px" preserveAspectRatio="none" style="width:942px;height:800px;background:#FFFFFF;" version="1.1" viewBox="0 0 942 800" width="942px" zoomAndPan="magnify"><defs/><g><rect fill="#EEEEEE" height="781.4844" style="stroke:#D3D3D3;stroke-width:0.5;" width="427" x="152" y="6"/><text fill="#777777" font-family="sans-serif" font-size="13" font-weight="bold" lengthAdjust="spacing" textLength="92" x="319.5" y="18.0669">gRPC Server</text><rect fill="#EEEEEE" height="781.4844" style="stroke:#D3D3D3;stroke-width:0.5;" width="103" x="671" y="6"/><text fill="#777777" font-family="sans-serif" font-size="13" font-weight="bold" lengthAdjust="spacing" textLength="87" x="679" y="18.0669">gRPC Client</text><rect fill="#FFFFFF" height="718.0547" style="stroke:#181818;stroke-width:1.0;" width="10" x="73" y="66.4297"/><rect fill="#FFFFFF" height="147.5313" style="stroke:#181818;stroke-width:1.0;" width="10" x="78" y="636.9531"/><rect fill="#FFFFFF" height="696.9219" style="stroke:#181818;stroke-width:1.0;" width="10" x="201" y="87.5625"/><rect fill="#FFFFFF" height="593.2578" style="stroke:#181818;stroke-width:1.0;" width="10" x="479.5" y="191.2266"/><rect fill="#FFFFFF" height="320.0625" style="stroke:#181818;stroke-width:1.0;" width="10" x="484.5" y="448.4219"/><rect fill="#FFFFFF" height="28" style="stroke:#181818;stroke-width:1.0;" width="10" x="489.5" y="500.6875"/><rect fill="#FFFFFF" height="28" style="stroke:#181818;stroke-width:1.0;" width="10" x="489.5" y="572.8203"/><rect fill="#FFFFFF" height="28" style="stroke:#181818;stroke-width:1.0;" width="10" x="489.5" y="689.2188"/><rect fill="#FFFFFF" height="564.125" style="stroke:#181818;stroke-width:1.0;" width="10" x="717.5" y="220.3594"/><rect fill="#FFFFFF" height="502.8594" style="stroke:#181818;stroke-width:1.0;" width="10" x="722.5" y="281.625"/><rect fill="#FFFFFF" height="28" style="stroke:#181818;stroke-width:1.0;" width="10" x="727.5" y="354.0234"/><rect fill="#FFFFFF" height="593.2578" style="stroke:#181818;stroke-width:1.0;" width="10" x="874.5" y="191.2266"/><rect fill="none" height="541.125" style="stroke:#000000;stroke-width:1.5;" width="874.5" x="10" y="235.3594"/><line style="stroke:#181818;stroke-width:0.5;stroke-dasharray:5.0,5.0;" x1="78" x2="78" y1="56.4297" y2="793.4844"/><line style="stroke:#181818;stroke-width:0.5;stroke-dasharray:5.0,5.0;" x1="206" x2="206" y1="56.4297" y2="793.4844"/><line style="stroke:#181818;stroke-width:0.5;stroke-dasharray:5.0,5.0;" x1="484" x2="484" y1="135.2617" y2="793.4844"/><line style="stroke:#181818;stroke-width:0.5;stroke-dasharray:5.0,5.0;" x1="722" x2="722" y1="56.4297" y2="793.4844"/><line style="stroke:#181818;stroke-width:0.5;stroke-dasharray:5.0,5.0;" x1="879" x2="879" y1="56.4297" y2="793.4844"/><rect fill="#E3E3E3" height="30.2969" rx="2.5" ry="2.5" style="stroke:#181818;stroke-width:0.5;" width="116" x="20" y="25.1328"/><text fill="#000000" font-family="sans-serif" font-size="14" lengthAdjust="spacing" textLength="102" x="27" y="45.1279">Ankaios Server</text><rect fill="#E3E3E3" height="30.2969" rx="2.5" ry="2.5" style="stroke:#181818;stroke-width:0.5;" width="100" x="156" y="25.1328"/><text fill="#000000" font-family="sans-serif" font-size="14" lengthAdjust="spacing" textLength="86" x="163" y="45.1279">gRPC Server</text><rect fill="#E3E3E3" height="30.2969" rx="2.5" ry="2.5" style="stroke:#181818;stroke-width:0.5;" width="95" x="675" y="25.1328"/><text fill="#000000" font-family="sans-serif" font-size="14" lengthAdjust="spacing" textLength="81" x="682" y="45.1279">gRPC Client</text><rect fill="#E3E3E3" height="30.2969" rx="2.5" ry="2.5" style="stroke:#181818;stroke-width:0.5;" width="113" x="823" y="25.1328"/><text fill="#000000" font-family="sans-serif" font-size="14" lengthAdjust="spacing" textLength="99" x="830" y="45.1279">Ankaios Agent</text><rect fill="#FFFFFF" height="718.0547" style="stroke:#181818;stroke-width:1.0;" width="10" x="73" y="66.4297"/><rect fill="#FFFFFF" height="147.5313" style="stroke:#181818;stroke-width:1.0;" width="10" x="78" y="636.9531"/><rect fill="#FFFFFF" height="696.9219" style="stroke:#181818;stroke-width:1.0;" width="10" x="201" y="87.5625"/><rect fill="#FFFFFF" height="593.2578" style="stroke:#181818;stroke-width:1.0;" width="10" x="479.5" y="191.2266"/><rect fill="#FFFFFF" height="320.0625" style="stroke:#181818;stroke-width:1.0;" width="10" x="484.5" y="448.4219"/><rect fill="#FFFFFF" height="28" style="stroke:#181818;stroke-width:1.0;" width="10" x="489.5" y="500.6875"/><rect fill="#FFFFFF" height="28" style="stroke:#181818;stroke-width:1.0;" width="10" x="489.5" y="572.8203"/><rect fill="#FFFFFF" height="28" style="stroke:#181818;stroke-width:1.0;" width="10" x="489.5" y="689.2188"/><rect fill="#FFFFFF" height="564.125" style="stroke:#181818;stroke-width:1.0;" width="10" x="717.5" y="220.3594"/><rect fill="#FFFFFF" height="502.8594" style="stroke:#181818;stroke-width:1.0;" width="10" x="722.5" y="281.625"/><rect fill="#FFFFFF" height="28" style="stroke:#181818;stroke-width:1.0;" width="10" x="727.5" y="354.0234"/><rect fill="#FFFFFF" height="593.2578" style="stroke:#181818;stroke-width:1.0;" width="10" x="874.5" y="191.2266"/><polygon fill="#181818" points="189,83.5625,199,87.5625,189,91.5625" style="stroke:#181818;stroke-width:1.0;"/><line style="stroke:#181818;stroke-width:1.0;" x1="83" x2="195" y1="87.5625" y2="87.5625"/><text fill="#000000" font-family="sans-serif" font-size="13" lengthAdjust="spacing" textLength="30" x="90" y="82.4966">start</text><polygon fill="#181818" points="382,142.9609,392,146.9609,382,150.9609" style="stroke:#181818;stroke-width:1.0;"/><line style="stroke:#181818;stroke-width:1.0;" x1="211" x2="388" y1="146.9609" y2="146.9609"/><text fill="#000000" font-family="sans-serif" font-size="13" lengthAdjust="spacing" textLength="135" x="218" y="111.6294">create with reference</text><text fill="#000000" font-family="sans-serif" font-size="13" lengthAdjust="spacing" textLength="135" x="222" y="126.7622">to AgentSendersMap</text><text fill="#000000" font-family="sans-serif" font-size="13" lengthAdjust="spacing" textLength="155" x="222" y="141.895">and rx channel to server</text><rect fill="#E3E3E3" height="30.2969" rx="2.5" ry="2.5" style="stroke:#181818;stroke-width:0.5;" width="181" x="394" y="113.6641"/><text fill="#000000" font-family="sans-serif" font-size="14" lengthAdjust="spacing" textLength="167" x="401" y="133.6592">gRPC Agent Connection</text><line style="stroke:#181818;stroke-width:1.0;" x1="477.5" x2="467.5" y1="191.2266" y2="187.2266"/><line style="stroke:#181818;stroke-width:1.0;" x1="477.5" x2="467.5" y1="191.2266" y2="195.2266"/><line style="stroke:#181818;stroke-width:1.0;" x1="211" x2="478.5" y1="191.2266" y2="191.2266"/><text fill="#000000" font-family="sans-serif" font-size="13" lengthAdjust="spacing" textLength="161" x="218" y="171.0278">spawn tonic gRPC service</text><text fill="#000000" font-family="sans-serif" font-size="13" lengthAdjust="spacing" textLength="98" x="218" y="186.1606">in green thread</text><polygon fill="#181818" points="738.5,216.3594,728.5,220.3594,738.5,224.3594" style="stroke:#181818;stroke-width:1.0;"/><line style="stroke:#181818;stroke-width:1.0;" x1="732.5" x2="873.5" y1="220.3594" y2="220.3594"/><text fill="#000000" font-family="sans-serif" font-size="13" lengthAdjust="spacing" textLength="30" x="744.5" y="215.2935">start</text><path d="M10,235.3594 L87,235.3594 L87,242.4922 L77,252.4922 L10,252.4922 L10,235.3594 " fill="#EEEEEE" style="stroke:#000000;stroke-width:1.5;"/><rect fill="none" height="541.125" style="stroke:#000000;stroke-width:1.5;" width="874.5" x="10" y="235.3594"/><text fill="#000000" font-family="sans-serif" font-size="13" font-weight="bold" lengthAdjust="spacing" textLength="32" x="25" y="248.4263">loop</text><text fill="#000000" font-family="sans-serif" font-size="11" font-weight="bold" lengthAdjust="spacing" textLength="294" x="102" y="247.5698">[reconnect with timeout if connection breaks]</text><line style="stroke:#181818;stroke-width:1.0;" x1="727.5" x2="774.5" y1="268.625" y2="268.625"/><line style="stroke:#181818;stroke-width:1.0;" x1="774.5" x2="774.5" y1="268.625" y2="281.625"/><line style="stroke:#181818;stroke-width:1.0;" x1="733.5" x2="774.5" y1="281.625" y2="281.625"/><polygon fill="#181818" points="743.5,277.625,733.5,281.625,743.5,285.625" style="stroke:#181818;stroke-width:1.0;"/><text fill="#000000" font-family="sans-serif" font-size="13" lengthAdjust="spacing" textLength="82" x="739.5" y="263.5591">start internal</text><line style="stroke:#181818;stroke-width:1.0;" x1="737.5" x2="779.5" y1="346.0234" y2="346.0234"/><line style="stroke:#181818;stroke-width:1.0;" x1="779.5" x2="779.5" y1="346.0234" y2="359.0234"/><line style="stroke:#181818;stroke-width:1.0;" x1="738.5" x2="779.5" y1="359.0234" y2="359.0234"/><polygon fill="#181818" points="748.5,355.0234,738.5,359.0234,748.5,363.0234" style="stroke:#181818;stroke-width:1.0;"/><text fill="#000000" font-family="sans-serif" font-size="13" lengthAdjust="spacing" textLength="123" x="744.5" y="310.6919">create channel pair</text><text fill="#000000" font-family="sans-serif" font-size="13" lengthAdjust="spacing" textLength="120" x="748.5" y="325.8247">for communication</text><text fill="#000000" font-family="sans-serif" font-size="13" lengthAdjust="spacing" textLength="67" x="748.5" y="340.9575">with Agent</text><polygon fill="#181818" points="505.5,444.4219,495.5,448.4219,505.5,452.4219" style="stroke:#181818;stroke-width:1.0;"/><line style="stroke:#181818;stroke-width:1.0;" x1="499.5" x2="721.5" y1="448.4219" y2="448.4219"/><text fill="#000000" font-family="sans-serif" font-size="13" lengthAdjust="spacing" textLength="143" x="511.5" y="413.0903">connect to Server with</text><text fill="#000000" font-family="sans-serif" font-size="13" lengthAdjust="spacing" textLength="196" x="515.5" y="428.2231">AgentHello and rx channel end</text><text fill="#000000" font-family="sans-serif" font-size="13" lengthAdjust="spacing" textLength="191" x="511.5" y="443.356">for communication with Agent</text><line style="stroke:#181818;stroke-width:1.0;" x1="499.5" x2="541.5" y1="492.6875" y2="492.6875"/><line style="stroke:#181818;stroke-width:1.0;" x1="541.5" x2="541.5" y1="492.6875" y2="505.6875"/><line style="stroke:#181818;stroke-width:1.0;" x1="500.5" x2="541.5" y1="505.6875" y2="505.6875"/><polygon fill="#181818" points="510.5,501.6875,500.5,505.6875,510.5,509.6875" style="stroke:#181818;stroke-width:1.0;"/><text fill="#000000" font-family="sans-serif" font-size="13" lengthAdjust="spacing" textLength="131" x="506.5" y="472.4888">add Agent to shared</text><text fill="#000000" font-family="sans-serif" font-size="13" lengthAdjust="spacing" textLength="118" x="510.5" y="487.6216">AgentSendersMap</text><line style="stroke:#181818;stroke-width:1.0;" x1="499.5" x2="541.5" y1="564.8203" y2="564.8203"/><line style="stroke:#181818;stroke-width:1.0;" x1="541.5" x2="541.5" y1="564.8203" y2="577.8203"/><line style="stroke:#181818;stroke-width:1.0;" x1="500.5" x2="541.5" y1="577.8203" y2="577.8203"/><polygon fill="#181818" points="510.5,573.8203,500.5,577.8203,510.5,581.8203" style="stroke:#181818;stroke-width:1.0;"/><text fill="#000000" font-family="sans-serif" font-size="13" lengthAdjust="spacing" textLength="184" x="506.5" y="559.7544">create channel for this agent</text><line style="stroke:#181818;stroke-width:1.0;" x1="89" x2="99" y1="636.9531" y2="632.9531"/><line style="stroke:#181818;stroke-width:1.0;" x1="89" x2="99" y1="636.9531" y2="640.9531"/><line style="stroke:#181818;stroke-width:1.0;" x1="88" x2="483.5" y1="636.9531" y2="636.9531"/><text fill="#000000" font-family="sans-serif" font-size="13" lengthAdjust="spacing" textLength="70" x="105" y="631.8872">AgentHello</text><line style="stroke:#181818;stroke-width:1.0;" x1="499.5" x2="541.5" y1="681.2188" y2="681.2188"/><line style="stroke:#181818;stroke-width:1.0;" x1="541.5" x2="541.5" y1="681.2188" y2="694.2188"/><line style="stroke:#181818;stroke-width:1.0;" x1="500.5" x2="541.5" y1="694.2188" y2="694.2188"/><line style="stroke:#181818;stroke-width:1.0;" x1="500.5" x2="510.5" y1="694.2188" y2="690.2188"/><line style="stroke:#181818;stroke-width:1.0;" x1="500.5" x2="510.5" y1="694.2188" y2="698.2188"/><text fill="#000000" font-family="sans-serif" font-size="13" lengthAdjust="spacing" textLength="108" x="506.5" y="661.02">start listening for</text><text fill="#000000" font-family="sans-serif" font-size="13" lengthAdjust="spacing" textLength="142" x="510.5" y="676.1528">messages from Agent</text><line style="stroke:#181818;stroke-width:1.0;" x1="720.5" x2="710.5" y1="768.4844" y2="764.4844"/><line style="stroke:#181818;stroke-width:1.0;" x1="720.5" x2="710.5" y1="768.4844" y2="772.4844"/><line style="stroke:#181818;stroke-width:1.0;stroke-dasharray:2.0,2.0;" x1="489.5" x2="721.5" y1="768.4844" y2="768.4844"/><text fill="#000000" font-family="sans-serif" font-size="13" lengthAdjust="spacing" textLength="129" x="496.5" y="748.2856">send rx channel end</text><text fill="#000000" font-family="sans-serif" font-size="13" lengthAdjust="spacing" textLength="195" x="500.5" y="763.4185">for communication with Server</text><!--SRC=[bLInRkCm3Dtr5MoxjKYoToWGfC3TKk1mNGiKhCJ4GcJ9aEIcz_T7IRPZEqw16XvicdplyL7qZRRIj8fWlTuCjwVWMYyfR9IJcyQWZMrjDj8GsdKuQYk4QD17BNN3t-1sQu-eNO1Nyf_aRm43O0czXnmIuiDzmU7ldntiN5stLakCsbbuqKePEg4dk7j6V_pbyPy0leRyWfbZwPhmZX8owS4ticUyNh0z43_ldBKaauYYDmNVvH3CzMHL4YAcYdP6S-ut12NXh4YU2th40NdHnwnmOcEM9mIoja-CT67lz1rMJsCluE7X4K9a9Y76OSwQjmttzuyWFIMEauuLUDgJ9oi9tYn4LwIzidpouGMR54NknN-1h91HJ4hgL4sv5iYohWPF2PcFHB4t5UZCfortGSHVArQa5jeljapUXjwBw-FUZNCDDzG9AFr5NPDh8-WzZ8HzCDynY37EDLZGDfAtQCJtwQlLO6plL8FQ9mFtpZFvU2qucDLjozXdm8i-zbsn_MKZ2W8ZPP3VP8oRZogTmZTxIJ_Ylk1Qva_TeLBTRgKZKF5Egu7-V6B4Jo1dXYMbiTBTjYuYFSrM8tjpTk1QpJ9z6R3H8H8VnaFcvuvg2e4h0kozg_iPNU8cuCda4Y8jJG2kZA3xzwM_nNy0]--></g></svg>