<?xml version="1.0" encoding="us-ascii" standalone="no"?><svg xmlns="http://www.w3.org/2000/svg" xmlns:xlink="http://www.w3.org/1999/xlink" contentStyleType="text/css" height="618px" preserveAspectRatio="none" style="width:971px;height:618px;background:#FFFFFF;" version="1.1" viewBox="0 0 971 618" width="971px" zoomAndPan="magnify"><defs/><g><rect fill="#EEEEEE" height="599.9609" style="stroke:#D3D3D3;stroke-width:0.5;" width="393.5" x="211" y="6"/><text fill="#777777" font-family="sans-serif" font-size="13" font-weight="bold" lengthAdjust="spacing" textLength="92" x="361.75" y="18.0669">gRPC Server</text><rect fill="#EEEEEE" height="599.9609" style="stroke:#D3D3D3;stroke-width:0.5;" width="103" x="626.5" y="6"/><text fill="#777777" font-family="sans-serif" font-size="13" font-weight="bold" lengthAdjust="spacing" textLength="87" x="634.5" y="18.0669">gRPC Client</text><rect fill="#FFFFFF" height="314.0625" style="stroke:#FFFFFF;stroke-width:1.0;" width="10" x="58" y="107.2344"/><line style="stroke:#181818;stroke-width:1.0;" x1="58" x2="58" y1="107.2344" y2="421.2969"/><line style="stroke:#181818;stroke-width:1.0;" x1="68" x2="68" y1="107.2344" y2="421.2969"/><line style="stroke:#181818;stroke-width:1.0;" x1="58" x2="68" y1="107.2344" y2="107.2344"/><rect fill="#FFFFFF" height="153.6641" style="stroke:#FFFFFF;stroke-width:1.0;" width="10" x="58" y="449.2969"/><line style="stroke:#181818;stroke-width:1.0;" x1="58" x2="58" y1="449.2969" y2="602.9609"/><line style="stroke:#181818;stroke-width:1.0;" x1="68" x2="68" y1="449.2969" y2="602.9609"/><rect fill="#FFFFFF" height="9" style="stroke:#181818;stroke-width:1.0;" width="10" x="63" y="593.9609"/><rect fill="#FFFFFF" height="212.6641" style="stroke:#181818;stroke-width:1.0;" width="10" x="260" y="171.5"/><rect fill="#FFFFFF" height="28" style="stroke:#181818;stroke-width:1.0;" width="10" x="265" y="223.7656"/><rect fill="#FFFFFF" height="28" style="stroke:#181818;stroke-width:1.0;" width="10" x="265" y="320.0313"/><rect fill="#FFFFFF" height="29.1328" style="stroke:#181818;stroke-width:1.0;" width="10" x="505" y="564.8281"/><rect fill="#FFFFFF" height="29.1328" style="stroke:#181818;stroke-width:1.0;" width="10" x="673" y="384.1641"/><rect fill="#FFFFFF" height="44.2656" style="stroke:#181818;stroke-width:1.0;" width="10" x="673" y="520.5625"/><rect fill="#FFFFFF" height="314.0625" style="stroke:#FFFFFF;stroke-width:1.0;" width="10" x="883" y="107.2344"/><line style="stroke:#181818;stroke-width:1.0;" x1="883" x2="883" y1="107.2344" y2="421.2969"/><line style="stroke:#181818;stroke-width:1.0;" x1="893" x2="893" y1="107.2344" y2="421.2969"/><line style="stroke:#181818;stroke-width:1.0;" x1="883" x2="893" y1="107.2344" y2="107.2344"/><rect fill="#FFFFFF" height="153.6641" style="stroke:#FFFFFF;stroke-width:1.0;" width="10" x="883" y="449.2969"/><line style="stroke:#181818;stroke-width:1.0;" x1="883" x2="883" y1="449.2969" y2="602.9609"/><line style="stroke:#181818;stroke-width:1.0;" x1="893" x2="893" y1="449.2969" y2="602.9609"/><rect fill="#FFFFFF" height="8" style="stroke:#FFFFFF;stroke-width:1.0;" width="10" x="888" y="413.2969"/><line style="stroke:#181818;stroke-width:1.0;" x1="888" x2="888" y1="413.2969" y2="421.2969"/><line style="stroke:#181818;stroke-width:1.0;" x1="898" x2="898" y1="413.2969" y2="421.2969"/><line style="stroke:#181818;stroke-width:1.0;" x1="888" x2="898" y1="413.2969" y2="413.2969"/><rect fill="#FFFFFF" height="71.2656" style="stroke:#FFFFFF;stroke-width:1.0;" width="10" x="888" y="449.2969"/><line style="stroke:#181818;stroke-width:1.0;" x1="888" x2="888" y1="449.2969" y2="520.5625"/><line style="stroke:#181818;stroke-width:1.0;" x1="898" x2="898" y1="449.2969" y2="520.5625"/><line style="stroke:#181818;stroke-width:1.0;" x1="888" x2="898" y1="520.5625" y2="520.5625"/><rect fill="none" height="175.5313" style="stroke:#000000;stroke-width:1.5;" width="749.5" x="205" y="273.7656"/><line style="stroke:#181818;stroke-width:0.5;stroke-dasharray:5.0,5.0;" x1="63" x2="63" y1="56.4297" y2="66.4297"/><line style="stroke:#383838;stroke-width:1.0;stroke-dasharray:1.0,4.0;" x1="63" x2="63" y1="66.4297" y2="107.2344"/><line style="stroke:#181818;stroke-width:0.5;stroke-dasharray:5.0,5.0;" x1="63" x2="63" y1="107.2344" y2="421.2969"/><line style="stroke:#383838;stroke-width:1.0;stroke-dasharray:1.0,4.0;" x1="63" x2="63" y1="421.2969" y2="449.2969"/><line style="stroke:#181818;stroke-width:0.5;stroke-dasharray:5.0,5.0;" x1="63" x2="63" y1="449.2969" y2="611.9609"/><line style="stroke:#181818;stroke-width:0.5;stroke-dasharray:5.0,5.0;" x1="265" x2="265" y1="56.4297" y2="66.4297"/><line style="stroke:#383838;stroke-width:1.0;stroke-dasharray:1.0,4.0;" x1="265" x2="265" y1="66.4297" y2="107.2344"/><line style="stroke:#181818;stroke-width:0.5;stroke-dasharray:5.0,5.0;" x1="265" x2="265" y1="107.2344" y2="421.2969"/><line style="stroke:#383838;stroke-width:1.0;stroke-dasharray:1.0,4.0;" x1="265" x2="265" y1="421.2969" y2="449.2969"/><line style="stroke:#181818;stroke-width:0.5;stroke-dasharray:5.0,5.0;" x1="265" x2="265" y1="449.2969" y2="611.9609"/><line style="stroke:#181818;stroke-width:0.5;stroke-dasharray:5.0,5.0;" x1="509.5" x2="509.5" y1="56.4297" y2="66.4297"/><line style="stroke:#383838;stroke-width:1.0;stroke-dasharray:1.0,4.0;" x1="509.5" x2="509.5" y1="66.4297" y2="107.2344"/><line style="stroke:#181818;stroke-width:0.5;stroke-dasharray:5.0,5.0;" x1="509.5" x2="509.5" y1="107.2344" y2="421.2969"/><line style="stroke:#383838;stroke-width:1.0;stroke-dasharray:1.0,4.0;" x1="509.5" x2="509.5" y1="421.2969" y2="449.2969"/><line style="stroke:#181818;stroke-width:0.5;stroke-dasharray:5.0,5.0;" x1="509.5" x2="509.5" y1="449.2969" y2="611.9609"/><line style="stroke:#181818;stroke-width:0.5;stroke-dasharray:5.0,5.0;" x1="677.5" x2="677.5" y1="56.4297" y2="66.4297"/><line style="stroke:#383838;stroke-width:1.0;stroke-dasharray:1.0,4.0;" x1="677.5" x2="677.5" y1="66.4297" y2="107.2344"/><line style="stroke:#181818;stroke-width:0.5;stroke-dasharray:5.0,5.0;" x1="677.5" x2="677.5" y1="107.2344" y2="421.2969"/><line style="stroke:#383838;stroke-width:1.0;stroke-dasharray:1.0,4.0;" x1="677.5" x2="677.5" y1="421.2969" y2="449.2969"/><line style="stroke:#181818;stroke-width:0.5;stroke-dasharray:5.0,5.0;" x1="677.5" x2="677.5" y1="449.2969" y2="611.9609"/><line style="stroke:#181818;stroke-width:0.5;stroke-dasharray:5.0,5.0;" x1="887.5" x2="887.5" y1="56.4297" y2="66.4297"/><line style="stroke:#383838;stroke-width:1.0;stroke-dasharray:1.0,4.0;" x1="887.5" x2="887.5" y1="66.4297" y2="107.2344"/><line style="stroke:#181818;stroke-width:0.5;stroke-dasharray:5.0,5.0;" x1="887.5" x2="887.5" y1="107.2344" y2="421.2969"/><line style="stroke:#383838;stroke-width:1.0;stroke-dasharray:1.0,4.0;" x1="887.5" x2="887.5" y1="421.2969" y2="449.2969"/><line style="stroke:#181818;stroke-width:0.5;stroke-dasharray:5.0,5.0;" x1="887.5" x2="887.5" y1="449.2969" y2="611.9609"/><rect fill="#E3E3E3" height="30.2969" rx="2.5" ry="2.5" style="stroke:#181818;stroke-width:0.5;" width="116" x="5" y="25.1328"/><text fill="#000000" font-family="sans-serif" font-size="14" lengthAdjust="spacing" textLength="102" x="12" y="45.1279">Ankaios Server</text><rect fill="#E3E3E3" height="30.2969" rx="2.5" ry="2.5" style="stroke:#181818;stroke-width:0.5;" width="100" x="215" y="25.1328"/><text fill="#000000" font-family="sans-serif" font-size="14" lengthAdjust="spacing" textLength="86" x="222" y="45.1279">gRPC Server</text><rect fill="#E3E3E3" height="30.2969" rx="2.5" ry="2.5" style="stroke:#181818;stroke-width:0.5;" width="181" x="419.5" y="25.1328"/><text fill="#000000" font-family="sans-serif" font-size="14" lengthAdjust="spacing" textLength="167" x="426.5" y="45.1279">gRPC Agent Connection</text><rect fill="#E3E3E3" height="30.2969" rx="2.5" ry="2.5" style="stroke:#181818;stroke-width:0.5;" width="95" x="630.5" y="25.1328"/><text fill="#000000" font-family="sans-serif" font-size="14" lengthAdjust="spacing" textLength="81" x="637.5" y="45.1279">gRPC Client</text><rect fill="#E3E3E3" height="30.2969" rx="2.5" ry="2.5" style="stroke:#181818;stroke-width:0.5;" width="113" x="831.5" y="25.1328"/><text fill="#000000" font-family="sans-serif" font-size="14" lengthAdjust="spacing" textLength="99" x="838.5" y="45.1279">Ankaios Agent</text><rect fill="#FFFFFF" height="314.0625" style="stroke:#FFFFFF;stroke-width:1.0;" width="10" x="58" y="107.2344"/><line style="stroke:#181818;stroke-width:1.0;" x1="58" x2="58" y1="107.2344" y2="421.2969"/><line style="stroke:#181818;stroke-width:1.0;" x1="68" x2="68" y1="107.2344" y2="421.2969"/><line style="stroke:#181818;stroke-width:1.0;" x1="58" x2="68" y1="107.2344" y2="107.2344"/><rect fill="#FFFFFF" height="153.6641" style="stroke:#FFFFFF;stroke-width:1.0;" width="10" x="58" y="449.2969"/><line style="stroke:#181818;stroke-width:1.0;" x1="58" x2="58" y1="449.2969" y2="602.9609"/><line style="stroke:#181818;stroke-width:1.0;" x1="68" x2="68" y1="449.2969" y2="602.9609"/><rect fill="#FFFFFF" height="9" style="stroke:#181818;stroke-width:1.0;" width="10" x="63" y="593.9609"/><rect fill="#FFFFFF" height="212.6641" style="stroke:#181818;stroke-width:1.0;" width="10" x="260" y="171.5"/><rect fill="#FFFFFF" height="28" style="stroke:#181818;stroke-width:1.0;" width="10" x="265" y="223.7656"/><rect fill="#FFFFFF" height="28" style="stroke:#181818;stroke-width:1.0;" width="10" x="265" y="320.0313"/><rect fill="#FFFFFF" height="29.1328" style="stroke:#181818;stroke-width:1.0;" width="10" x="505" y="564.8281"/><rect fill="#FFFFFF" height="29.1328" style="stroke:#181818;stroke-width:1.0;" width="10" x="673" y="384.1641"/><rect fill="#FFFFFF" height="44.2656" style="stroke:#181818;stroke-width:1.0;" width="10" x="673" y="520.5625"/><rect fill="#FFFFFF" height="314.0625" style="stroke:#FFFFFF;stroke-width:1.0;" width="10" x="883" y="107.2344"/><line style="stroke:#181818;stroke-width:1.0;" x1="883" x2="883" y1="107.2344" y2="421.2969"/><line style="stroke:#181818;stroke-width:1.0;" x1="893" x2="893" y1="107.2344" y2="421.2969"/><line style="stroke:#181818;stroke-width:1.0;" x1="883" x2="893" y1="107.2344" y2="107.2344"/><rect fill="#FFFFFF" height="153.6641" style="stroke:#FFFFFF;stroke-width:1.0;" width="10" x="883" y="449.2969"/><line style="stroke:#181818;stroke-width:1.0;" x1="883" x2="883" y1="449.2969" y2="602.9609"/><line style="stroke:#181818;stroke-width:1.0;" x1="893" x2="893" y1="449.2969" y2="602.9609"/><rect fill="#FFFFFF" height="8" style="stroke:#FFFFFF;stroke-width:1.0;" width="10" x="888" y="413.2969"/><line style="stroke:#181818;stroke-width:1.0;" x1="888" x2="888" y1="413.2969" y2="421.2969"/><line style="stroke:#181818;stroke-width:1.0;" x1="898" x2="898" y1="413.2969" y2="421.2969"/><line style="stroke:#181818;stroke-width:1.0;" x1="888" x2="898" y1="413.2969" y2="413.2969"/><rect fill="#FFFFFF" height="71.2656" style="stroke:#FFFFFF;stroke-width:1.0;" width="10" x="888" y="449.2969"/><line style="stroke:#181818;stroke-width:1.0;" x1="888" x2="888" y1="449.2969" y2="520.5625"/><line style="stroke:#181818;stroke-width:1.0;" x1="898" x2="898" y1="449.2969" y2="520.5625"/><line style="stroke:#181818;stroke-width:1.0;" x1="888" x2="898" y1="520.5625" y2="520.5625"/><text fill="#000000" font-family="sans-serif" font-size="11" lengthAdjust="spacing" textLength="42" x="454.5" y="90.6401">Startup</text><rect fill="#EEEEEE" height="3" style="stroke:#EEEEEE;stroke-width:1.0;" width="964.5" x="0" y="127.8008"/><line style="stroke:#000000;stroke-width:1.0;" x1="0" x2="964.5" y1="127.8008" y2="127.8008"/><line style="stroke:#000000;stroke-width:1.0;" x1="0" x2="964.5" y1="130.8008" y2="130.8008"/><rect fill="#EEEEEE" height="23.1328" style="stroke:#000000;stroke-width:2.0;" width="250" x="357.25" y="117.2344"/><text fill="#000000" font-family="sans-serif" font-size="13" font-weight="bold" lengthAdjust="spacing" textLength="231" x="363.25" y="133.3013">Forward FromServer messages</text><line style="stroke:#181818;stroke-width:1.0;" x1="258" x2="248" y1="171.5" y2="167.5"/><line style="stroke:#181818;stroke-width:1.0;" x1="258" x2="248" y1="171.5" y2="175.5"/><line style="stroke:#181818;stroke-width:1.0;" x1="68" x2="259" y1="171.5" y2="171.5"/><text fill="#000000" font-family="sans-serif" font-size="13" lengthAdjust="spacing" textLength="173" x="75" y="166.4341">send FromServer message</text><line style="stroke:#181818;stroke-width:1.0;" x1="275" x2="317" y1="215.7656" y2="215.7656"/><line style="stroke:#181818;stroke-width:1.0;" x1="317" x2="317" y1="215.7656" y2="228.7656"/><line style="stroke:#181818;stroke-width:1.0;" x1="276" x2="317" y1="228.7656" y2="228.7656"/><polygon fill="#181818" points="286,224.7656,276,228.7656,286,232.7656" style="stroke:#181818;stroke-width:1.0;"/><text fill="#000000" font-family="sans-serif" font-size="13" lengthAdjust="spacing" textLength="148" x="282" y="195.5669">use Common lib to find</text><text fill="#000000" font-family="sans-serif" font-size="13" lengthAdjust="spacing" textLength="139" x="282" y="210.6997">commands per Agent</text><path d="M205,273.7656 L282,273.7656 L282,280.8984 L272,290.8984 L205,290.8984 L205,273.7656 " fill="#EEEEEE" style="stroke:#000000;stroke-width:1.5;"/><rect fill="none" height="175.5313" style="stroke:#000000;stroke-width:1.5;" width="749.5" x="205" y="273.7656"/><text fill="#000000" font-family="sans-serif" font-size="13" font-weight="bold" lengthAdjust="spacing" textLength="32" x="220" y="286.8325">loop</text><text fill="#000000" font-family="sans-serif" font-size="11" font-weight="bold" lengthAdjust="spacing" textLength="108" x="297" y="285.9761">[for every Agent]</text><line style="stroke:#181818;stroke-width:1.0;" x1="275" x2="317" y1="312.0313" y2="312.0313"/><line style="stroke:#181818;stroke-width:1.0;" x1="317" x2="317" y1="312.0313" y2="325.0313"/><line style="stroke:#181818;stroke-width:1.0;" x1="276" x2="317" y1="325.0313" y2="325.0313"/><polygon fill="#181818" points="286,321.0313,276,325.0313,286,329.0313" style="stroke:#181818;stroke-width:1.0;"/><text fill="#000000" font-family="sans-serif" font-size="13" lengthAdjust="spacing" textLength="221" x="282" y="306.9653">Find Agent tx in AgentSendersMap</text><line style="stroke:#181818;stroke-width:1.0;" x1="671" x2="661" y1="384.1641" y2="380.1641"/><line style="stroke:#181818;stroke-width:1.0;" x1="671" x2="661" y1="384.1641" y2="388.1641"/><line style="stroke:#181818;stroke-width:1.0;" x1="265" x2="672" y1="384.1641" y2="384.1641"/><text fill="#000000" font-family="sans-serif" font-size="13" lengthAdjust="spacing" textLength="245" x="272" y="379.0981">forward Exection Command over gRPC</text><line style="stroke:#181818;stroke-width:1.0;" x1="886" x2="876" y1="413.2969" y2="409.2969"/><line style="stroke:#181818;stroke-width:1.0;" x1="886" x2="876" y1="413.2969" y2="417.2969"/><line style="stroke:#181818;stroke-width:1.0;" x1="678" x2="887" y1="413.2969" y2="413.2969"/><text fill="#000000" font-family="sans-serif" font-size="13" lengthAdjust="spacing" textLength="176" x="685" y="408.231">forward Exection Command</text><rect fill="#EEEEEE" height="3" style="stroke:#EEEEEE;stroke-width:1.0;" width="964.5" x="0" y="476.8633"/><line style="stroke:#000000;stroke-width:1.0;" x1="0" x2="964.5" y1="476.8633" y2="476.8633"/><line style="stroke:#000000;stroke-width:1.0;" x1="0" x2="964.5" y1="479.8633" y2="479.8633"/><rect fill="#EEEEEE" height="23.1328" style="stroke:#000000;stroke-width:2.0;" width="229" x="367.75" y="466.2969"/><text fill="#000000" font-family="sans-serif" font-size="13" font-weight="bold" lengthAdjust="spacing" textLength="210" x="373.75" y="482.3638">Forward ToServer messages</text><line style="stroke:#181818;stroke-width:1.0;" x1="684" x2="694" y1="520.5625" y2="516.5625"/><line style="stroke:#181818;stroke-width:1.0;" x1="684" x2="694" y1="520.5625" y2="524.5625"/><line style="stroke:#181818;stroke-width:1.0;" x1="683" x2="882" y1="520.5625" y2="520.5625"/><text fill="#000000" font-family="sans-serif" font-size="13" lengthAdjust="spacing" textLength="155" x="700" y="515.4966">send ToServer message</text><line style="stroke:#181818;stroke-width:1.0;" x1="516" x2="526" y1="564.8281" y2="560.8281"/><line style="stroke:#181818;stroke-width:1.0;" x1="516" x2="526" y1="564.8281" y2="568.8281"/><line style="stroke:#181818;stroke-width:1.0;" x1="515" x2="677" y1="564.8281" y2="564.8281"/><text fill="#000000" font-family="sans-serif" font-size="13" lengthAdjust="spacing" textLength="108" x="532" y="544.6294">forward ToServer</text><text fill="#000000" font-family="sans-serif" font-size="13" lengthAdjust="spacing" textLength="128" x="532" y="559.7622">message over gRPC</text><line style="stroke:#181818;stroke-width:1.0;" x1="74" x2="84" y1="593.9609" y2="589.9609"/><line style="stroke:#181818;stroke-width:1.0;" x1="74" x2="84" y1="593.9609" y2="597.9609"/><line style="stroke:#181818;stroke-width:1.0;stroke-dasharray:2.0,2.0;" x1="73" x2="509" y1="593.9609" y2="593.9609"/><text fill="#000000" font-family="sans-serif" font-size="13" lengthAdjust="spacing" textLength="171" x="90" y="588.895">forward ToServer message</text><!--SRC=[XLD1Ri8m4Bpx5TlsY1BkbK12jFHKgIez8Y5ZByWYiICxQUdlkxOJS4AWLWxMUcTsFECyA2sAHYBa-VJyMNIciGBTL1enhGgkwwOifg90hdDtL9gnYjjQ2LNH4Jmkz94hus2DzXlj8t07F9QsBfGOsvaJ73u_bh0qPTbe9NYjZ8Pt9MM1FzmYFBrmUtop_9S1hND_v0mrltfpauOmz60hqKsy3LWSaFPBepKABoBgzSMjE1S37hNqGbXVqR9Gr7jdG6ouA18NGCTuPXxrCIZisHZaCSOuYVlcDGxzlQgtW3pFOLtJZAQYX7F6PZDO6Kk6IrXPKqRpe4Jd2E5WDgCPFMh8vlFKM9XCdi5v_TTunjB6R8ZBicTe78OdGDaNQWUrWRtISgC5rRYM3YfgNKJnXJ4Lx8q59FnlL_Ks_ZjcHQHjqFK9b8xxDSb6wzvvDKOpJzE2BFCNtRTUlPxYimZQIISOZ_5f9qmTafXwCVp35HaatihGduRiqFSc0NwPU_6reqUl5V8RmjlqqbiCVeh1HJg2ZMuPKbT6i8aldUcZV9sWFm00]--></g></svg>