<?xml version="1.0" encoding="UTF-8"?>
<svg xmlns="http://www.w3.org/2000/svg" xmlns:xlink="http://www.w3.org/1999/xlink" viewBox="0 0 228.26 218.3">
  <defs>
    <style>
      .cls-1 {
        fill: #fff;
      }

      .cls-2 {
        fill: url(#Unbenannter_Verlauf_37);
      }
    </style>
    <linearGradient id="Unbenannter_Verlauf_37" data-name="Unbenannter Verlauf 37" x1="17.57" y1="139.71" x2="228.49" y2="62.94" gradientUnits="userSpaceOnUse">
      <stop offset="0" stop-color="#af0a81"/>
      <stop offset="1" stop-color="#006d81"/>
    </linearGradient>
  </defs>
  <g id="svg5797">
    <path class="cls-2" d="m96.5,27.33h0c-34.3,0-65.03,21.2-77.2,53.27l-.95,2.51c-20.51,54.03,19.41,111.87,77.2,111.87h0c34.3,0,65.03-21.2,77.2-53.27l.95-2.51c10.35-27.27,42.26-111.01,41.79-112,0,0-90.37.13-118.99.13Z"/>
  </g>
  <g id="Ebene_2" data-name="Ebene 2">
    <g>
      <path class="cls-1" d="m154.65,126.05l-10.03-2.21c-.23.62-.16.44-.39,1.05l9.23,5.01c.31.17.71.01.81-.33.29-.93.56-1.87.81-2.82.08-.31-.12-.63-.43-.7Z"/>
      <path class="cls-1" d="m148.27,141.69l-9.49-5.15c-.27-.14-.59-.05-.75.21-.19.31-.38.61-.57.91-.14.22-.11.52.08.71l7.76,7.76c.25.25.67.22.87-.07.81-1.16,1.59-2.35,2.32-3.56.17-.28.07-.64-.22-.8Z"/>
      <path class="cls-1" d="m130.25,147.31c-.21-.21-.56-.22-.78-.01-.72.67-1.47,1.31-2.23,1.93-.21.17-.27.46-.14.7l5.01,9.5c.16.31.57.4.85.19,1.67-1.24,3.28-2.56,4.8-3.97.24-.22.24-.6.01-.83l-7.52-7.52Z"/>
      <path class="cls-1" d="m118.85,155.32c-.14-.27-.47-.38-.75-.24-1.4.68-2.83,1.29-4.3,1.84-.25.09-.41.35-.36.62l1.77,10.44c.06.34.41.56.74.45,2.6-.85,5.12-1.86,7.55-3.04.29-.14.4-.5.25-.78l-4.9-9.28Z"/>
      <path class="cls-1" d="m104.88,159.26c-2.13.34-4.31.54-6.53.58-.29,0-.53.23-.55.52l-.8,10.41c.23.25.34.37.57.62,3.14,0,6.21-.27,9.22-.74.31-.05.52-.35.47-.66l-1.74-10.26c-.05-.31-.34-.51-.64-.46Z"/>
      <path class="cls-1" d="m90.36,159.31c-2.51-.38-4.96-.96-7.33-1.72-.28-.09-.57.04-.69.31l-4.12,9.61c-.13.31.03.66.34.77,3.48,1.17,7.1,2.03,10.83,2.54.32.04.62-.2.65-.53l.8-10.39c.02-.29-.19-.55-.48-.6Z"/>
      <path class="cls-1" d="m77.14,155.23c-2.86-1.37-5.56-3.03-8.07-4.92-.24-.18-.58-.15-.77.09l-6.78,8.1c-.21.25-.17.63.09.82,3.38,2.55,7.03,4.76,10.91,6.56.29.13.64,0,.77-.3l4.13-9.62c.12-.28,0-.6-.28-.73Z"/>
      <path class="cls-1" d="m65.87,88.06h9.46c5.62-5.62,13.39-9.09,21.97-9.09s16.33,3.48,21.95,9.09h9.47c-6.94-9.89-18.42-16.37-31.42-16.37s-24.48,6.47-31.42,16.37Z"/>
      <path class="cls-1" d="m78.72,140.98c-.38-1.9-.77-3.83-1.39-5.64-.55-.48-1.09-.97-1.62-1.5-2.09-2.09-3.81-4.4-5.17-6.86-2.87-2.01-6.3-3.71-9.74-4.69,1.72,6.11,4.96,11.88,9.77,16.69,2.76,2.76,5.84,5,9.11,6.74-.3-1.64-.66-3.25-.96-4.75Z"/>
      <path class="cls-1" d="m151.64,89.7c.85,3.15-5.36,7.57-12.94,8.09-8.67.58-42.89-2.72-54.21-3.49-11.22-.76-18.19-.43-31.16,1.57,5.85-15.53,19.76-27.14,36.54-29.76,19.62-3.07,37.42,5.98,47.11,20.81,1.81,2.46,6.26,1.67,8.9-.73,2.11-1.91,3.13-4.66.36-8.36-12.67-18.11-35.16-28.85-59.76-24.44-24.3,4.35-43.43,23.69-47.59,48.02-3.71,21.73,4.38,41.74,18.89,54.75.15.14.39.12.53-.04l6.81-8.14c.27-.32.23-.78-.07-1.07-8.93-8.45-14.55-20.34-14.74-33.55,2.3-.12,6.31-.1,10.6,1.02,11.74,3.06,22.04,9.02,24.94,21.19,4.39,18.45,2.24,15.49,3.49,18.04s13.51,4.36,15.66-.6,1.45-25.11,12.51-31.83c11.06-6.72,19.23-6.64,28.17-9.11,6.72-1.86,8.26-5.28,8.85-9.19.47-3.06.34-6.3-2.89-13.19Zm-54.21,31.02c-4.96,0-8.98-4.02-8.98-8.98s4.02-8.98,8.98-8.98,8.98,4.02,8.98,8.98-4.02,8.98-8.98,8.98Z"/>
    </g>
  </g>
</svg>