<?xml version="1.0" encoding="UTF-8"?>
<svg xmlns="http://www.w3.org/2000/svg" xmlns:xlink="http://www.w3.org/1999/xlink" viewBox="0 0 1096.85 221.62">
  <defs>
    <style>
      .cls-1, .cls-2 {
        fill: #fff;
      }

      .cls-2 {
        stroke: #000;
        stroke-miterlimit: 10;
        stroke-width: 6px;
      }

      .cls-3 {
        fill: url(#Unbenannter_Verlauf_37);
      }
    </style>
    <linearGradient id="Unbenannter_Verlauf_37" data-name="Unbenannter Verlauf 37" x1="50.74" y1="143.22" x2="261.66" y2="66.45" gradientUnits="userSpaceOnUse">
      <stop offset="0" stop-color="#af0a81"/>
      <stop offset="1" stop-color="#006d81"/>
    </linearGradient>
  </defs>
  <g id="svg5797">
    <path class="cls-2" d="m1042.31,124.87c-2.3-6.74-6.82-12.58-13.57-17.52-6.58-4.93-16.36-9.21-29.36-12.83-9.7-2.63-16.61-4.69-20.72-6.17-4.11-1.64-6.17-4.03-6.17-7.15,0-3.78,2.3-6.09,6.91-6.91,4.77-.99,10.03-1.48,15.79-1.48s12.09.74,19,2.22c7.07,1.32,14.8,3.62,23.19,6.91v-41.69c-4.11-1.32-9.13-2.47-15.05-3.45-5.76-1.15-11.84-2.06-18.26-2.71-6.25-.82-12.17-1.23-17.76-1.23-35.85,0-57.47,10.24-64.91,30.7-6.3-10.16-14.98-17.69-26.04-22.56-12.33-5.43-27.38-8.14-45.14-8.14s-32.81,2.71-45.15,8.14c-12.33,5.43-21.79,14.14-28.37,26.15-.66,1.24-1.28,2.53-1.88,3.86v-35.68h-53.04v90l-34.66-90h-55.51l-39.81,103.79-24.33-38.17,55.01-65.62h-59.95l-41.44,50.33v-50.33h-60.93v73.27l-52.3-73.27h-44.65v97.86l-37.68-97.86h-55.51l-60.93,158.87h55.26l12.09-31.58h42.68l12.33,31.58h84.8v-73.02l51.8,73.02h53.04v-43.66l13.82-16.04,35.77,59.7h0s55.26,0,55.26,0l.37-.97,11.72-30.61h42.68l12.33,31.58h81.78v-35.68c.59,1.32,1.21,2.61,1.88,3.85,6.58,12.01,16.03,20.72,28.37,26.15,12.33,5.43,27.38,8.14,45.15,8.14s32.81-2.71,45.14-8.14c10.38-4.57,18.65-11.47,24.84-20.69v18.47c6.91,3.29,15.3,5.84,25.16,7.65,10.03,1.81,20.56,2.71,31.58,2.71h0c23.02,0,40.29-4.44,51.81-13.32,11.51-9.05,17.27-20.97,17.27-35.77,0-8.55-1.23-16.12-3.7-22.7Zm-759.45.74l14.8-38.48,15.05,38.48h-29.85Zm361.59,0l14.8-38.48,15.05,38.48h-29.85Zm227.72,17.52c-4.44,5.76-11.76,8.63-21.96,8.63s-17.84-2.88-22.45-8.63c-4.44-5.76-6.66-15.13-6.66-28.12,0-13.65,2.22-23.19,6.66-28.62,4.61-5.59,12.09-8.39,22.45-8.39s17.52,2.8,21.96,8.39c4.61,5.43,6.91,14.97,6.91,28.62s-2.3,22.37-6.91,28.12Zm114.14,12.09c-3.45,1.32-8.47,1.97-15.05,1.97-7.73,0-16.28-1.15-25.66-3.45-5.8-1.45-11.28-3.19-16.49-5.17,2.62-8.88,4.02-19.16,4.21-30.84.62.5,1.26.99,1.92,1.47,6.09,4.11,14.39,7.98,24.92,11.59,10.2,3.45,18.01,6.17,23.44,8.14,5.43,1.81,8.14,4.77,8.14,8.88,0,3.62-1.81,6.09-5.43,7.4Z"/>
    <path class="cls-3" d="m129.67,30.84h0c-34.3,0-65.03,21.2-77.2,53.27l-.95,2.51c-20.51,54.03,19.41,111.87,77.2,111.87h0c34.3,0,65.03-21.2,77.2-53.27l.95-2.51c10.35-27.27,42.26-111.01,41.79-112,0,0-90.37.13-118.99.13Z"/>
  </g>
  <g id="Ebene_2" data-name="Ebene 2">
    <g>
      <path class="cls-1" d="m187.82,129.56l-10.03-2.21c-.23.62-.16.44-.39,1.05l9.23,5.01c.31.17.71.01.81-.33.29-.93.56-1.87.81-2.82.08-.31-.12-.63-.43-.7Z"/>
      <path class="cls-1" d="m181.44,145.2l-9.49-5.15c-.27-.14-.59-.05-.75.21-.19.31-.38.61-.57.91-.14.22-.11.52.08.71l7.76,7.76c.25.25.67.22.87-.07.81-1.16,1.59-2.35,2.32-3.56.17-.28.07-.64-.22-.8Z"/>
      <path class="cls-1" d="m163.43,150.82c-.21-.21-.56-.22-.78-.01-.72.67-1.47,1.31-2.23,1.93-.21.17-.27.46-.14.7l5.01,9.5c.16.31.57.4.85.19,1.67-1.24,3.28-2.56,4.8-3.97.24-.22.24-.6.01-.83l-7.52-7.52Z"/>
      <path class="cls-1" d="m152.02,158.83c-.14-.27-.47-.38-.75-.24-1.4.68-2.83,1.29-4.3,1.84-.25.09-.41.35-.36.62l1.77,10.44c.06.34.41.56.74.45,2.6-.85,5.12-1.86,7.55-3.04.29-.14.4-.5.25-.78l-4.9-9.28Z"/>
      <path class="cls-1" d="m138.05,162.77c-2.13.34-4.31.54-6.53.58-.29,0-.53.23-.55.52l-.8,10.41c.23.25.34.37.57.62,3.14,0,6.21-.27,9.22-.74.31-.05.52-.35.47-.66l-1.74-10.26c-.05-.31-.34-.51-.64-.46Z"/>
      <path class="cls-1" d="m123.53,162.82c-2.51-.38-4.96-.96-7.33-1.72-.28-.09-.57.04-.69.31l-4.12,9.61c-.13.31.03.66.34.77,3.48,1.17,7.1,2.03,10.83,2.54.32.04.62-.2.65-.53l.8-10.39c.02-.29-.19-.55-.48-.6Z"/>
      <path class="cls-1" d="m110.31,158.74c-2.86-1.37-5.56-3.03-8.07-4.92-.24-.18-.58-.15-.77.09l-6.78,8.1c-.21.25-.17.63.09.82,3.38,2.55,7.03,4.76,10.91,6.56.29.13.64,0,.77-.3l4.13-9.62c.12-.28,0-.6-.28-.73Z"/>
      <path class="cls-1" d="m99.04,91.57h9.46c5.62-5.62,13.39-9.09,21.97-9.09s16.33,3.48,21.95,9.09h9.47c-6.94-9.89-18.42-16.37-31.42-16.37s-24.48,6.47-31.42,16.37Z"/>
      <path class="cls-1" d="m111.89,144.49c-.38-1.9-.77-3.83-1.39-5.64-.55-.48-1.09-.97-1.62-1.5-2.09-2.09-3.81-4.4-5.17-6.86-2.87-2.01-6.3-3.71-9.74-4.69,1.72,6.11,4.96,11.88,9.77,16.69,2.76,2.76,5.84,5,9.11,6.74-.3-1.64-.66-3.25-.96-4.75Z"/>
      <path class="cls-1" d="m184.81,93.21c.85,3.15-5.36,7.57-12.94,8.09-8.67.58-42.89-2.72-54.21-3.49-11.22-.76-18.19-.43-31.16,1.57,5.85-15.53,19.76-27.14,36.54-29.76,19.62-3.07,37.42,5.98,47.11,20.81,1.81,2.46,6.26,1.67,8.9-.73,2.11-1.91,3.13-4.66.36-8.36-12.67-18.11-35.16-28.85-59.76-24.44-24.3,4.35-43.43,23.69-47.59,48.02-3.71,21.73,4.38,41.74,18.89,54.75.15.14.39.12.53-.04l6.81-8.14c.27-.32.23-.78-.07-1.07-8.93-8.45-14.55-20.34-14.74-33.55,2.3-.12,6.31-.1,10.6,1.02,11.74,3.06,22.04,9.02,24.94,21.19,4.39,18.45,2.24,15.49,3.49,18.04s13.51,4.36,15.66-.6,1.45-25.11,12.51-31.83c11.06-6.72,19.23-6.64,28.17-9.11,6.72-1.86,8.26-5.28,8.85-9.19.47-3.06.34-6.3-2.89-13.19Zm-54.21,31.02c-4.96,0-8.98-4.02-8.98-8.98s4.02-8.98,8.98-8.98,8.98,4.02,8.98,8.98-4.02,8.98-8.98,8.98Z"/>
    </g>
  </g>
</svg>