<?xml version="1.0" encoding="us-ascii" standalone="no"?><svg xmlns="http://www.w3.org/2000/svg" xmlns:xlink="http://www.w3.org/1999/xlink" contentStyleType="text/css" height="535px" preserveAspectRatio="none" style="width:1197px;height:535px;background:#FFFFFF;" version="1.1" viewBox="0 0 1197 535" width="1197px" zoomAndPan="magnify"><defs/><g><rect fill="#EEEEEE" height="516.6563" style="stroke:#D3D3D3;stroke-width:0.5;" width="491" x="256" y="6"/><text fill="#777777" font-family="sans-serif" font-size="13" font-weight="bold" lengthAdjust="spacing" textLength="110" x="446.5" y="18.0669">Ankaios Server</text><rect fill="#EEEEEE" height="516.6563" style="stroke:#D3D3D3;stroke-width:0.5;" width="146" x="769" y="6"/><text fill="#777777" font-family="sans-serif" font-size="13" font-weight="bold" lengthAdjust="spacing" textLength="115" x="784.5" y="18.0669">Ankaios Agents</text><rect fill="#FFFFFF" height="227.1953" style="stroke:#181818;stroke-width:1.0;" width="10" x="311" y="173.7969"/><rect fill="#FFFFFF" height="28" style="stroke:#181818;stroke-width:1.0;" width="10" x="316" y="256.3281"/><rect fill="#FFFFFF" height="29.1328" style="stroke:#181818;stroke-width:1.0;" width="10" x="484" y="400.9922"/><rect fill="#FFFFFF" height="29.1328" style="stroke:#181818;stroke-width:1.0;" width="10" x="669.5" y="144.6641"/><rect fill="#FFFFFF" height="21.1328" style="stroke:#181818;stroke-width:1.0;" width="10" x="800" y="123.5313"/><rect fill="#FFFFFF" height="89.5313" style="stroke:#181818;stroke-width:1.0;" width="10" x="874" y="430.125"/><line style="stroke:#181818;stroke-width:0.5;stroke-dasharray:5.0,5.0;" x1="316" x2="316" y1="72.7266" y2="82.7266"/><line style="stroke:#383838;stroke-width:1.0;stroke-dasharray:1.0,4.0;" x1="316" x2="316" y1="82.7266" y2="123.5313"/><line style="stroke:#181818;stroke-width:0.5;stroke-dasharray:5.0,5.0;" x1="316" x2="316" y1="123.5313" y2="528.6563"/><line style="stroke:#181818;stroke-width:0.5;stroke-dasharray:5.0,5.0;" x1="489" x2="489" y1="72.7266" y2="82.7266"/><line style="stroke:#383838;stroke-width:1.0;stroke-dasharray:1.0,4.0;" x1="489" x2="489" y1="82.7266" y2="123.5313"/><line style="stroke:#181818;stroke-width:0.5;stroke-dasharray:5.0,5.0;" x1="489" x2="489" y1="123.5313" y2="528.6563"/><line style="stroke:#181818;stroke-width:0.5;stroke-dasharray:5.0,5.0;" x1="674" x2="674" y1="72.7266" y2="82.7266"/><line style="stroke:#383838;stroke-width:1.0;stroke-dasharray:1.0,4.0;" x1="674" x2="674" y1="82.7266" y2="123.5313"/><line style="stroke:#181818;stroke-width:0.5;stroke-dasharray:5.0,5.0;" x1="674" x2="674" y1="123.5313" y2="528.6563"/><line style="stroke:#181818;stroke-width:0.5;stroke-dasharray:5.0,5.0;" x1="805" x2="805" y1="72.7266" y2="82.7266"/><line style="stroke:#383838;stroke-width:1.0;stroke-dasharray:1.0,4.0;" x1="805" x2="805" y1="82.7266" y2="123.5313"/><line style="stroke:#181818;stroke-width:0.5;stroke-dasharray:5.0,5.0;" x1="805" x2="805" y1="123.5313" y2="528.6563"/><line style="stroke:#181818;stroke-width:0.5;stroke-dasharray:5.0,5.0;" x1="879" x2="879" y1="72.7266" y2="82.7266"/><line style="stroke:#383838;stroke-width:1.0;stroke-dasharray:1.0,4.0;" x1="879" x2="879" y1="82.7266" y2="123.5313"/><line style="stroke:#181818;stroke-width:0.5;stroke-dasharray:5.0,5.0;" x1="879" x2="879" y1="123.5313" y2="528.6563"/><rect fill="#E3E3E3" height="46.5938" rx="2.5" ry="2.5" style="stroke:#181818;stroke-width:0.5;" width="112" x="260" y="25.1328"/><text fill="#000000" font-family="sans-serif" font-size="14" lengthAdjust="spacing" textLength="63" x="284.5" y="45.1279">&#171;thread&#187;</text><text fill="#000000" font-family="sans-serif" font-size="14" lengthAdjust="spacing" textLength="98" x="267" y="61.4248">AnkaiosServer</text><rect fill="#E3E3E3" height="46.5938" rx="2.5" ry="2.5" style="stroke:#181818;stroke-width:0.5;" width="214" x="382" y="25.1328"/><text fill="#000000" font-family="sans-serif" font-size="14" lengthAdjust="spacing" textLength="63" x="457.5" y="45.1279">&#171;thread&#187;</text><text fill="#000000" font-family="sans-serif" font-size="14" lengthAdjust="spacing" textLength="200" x="389" y="61.4248">GRPCCommunicationsServer</text><rect fill="#E3E3E3" height="46.5938" rx="2.5" ry="2.5" style="stroke:#181818;stroke-width:0.5;" width="137" x="606" y="25.1328"/><text fill="#000000" font-family="sans-serif" font-size="14" lengthAdjust="spacing" textLength="63" x="643" y="45.1279">&#171;thread&#187;</text><text fill="#000000" font-family="sans-serif" font-size="14" lengthAdjust="spacing" textLength="123" x="613" y="61.4248">tonic gRPC server</text><rect fill="#E3E3E3" height="30.2969" rx="2.5" ry="2.5" style="stroke:#181818;stroke-width:0.5;" width="64" x="773" y="41.4297"/><text fill="#000000" font-family="sans-serif" font-size="14" lengthAdjust="spacing" textLength="50" x="780" y="61.4248">Agent1</text><rect fill="#E3E3E3" height="30.2969" rx="2.5" ry="2.5" style="stroke:#181818;stroke-width:0.5;" width="64" x="847" y="41.4297"/><text fill="#000000" font-family="sans-serif" font-size="14" lengthAdjust="spacing" textLength="50" x="854" y="61.4248">Agent2</text><rect fill="#FFFFFF" height="227.1953" style="stroke:#181818;stroke-width:1.0;" width="10" x="311" y="173.7969"/><rect fill="#FFFFFF" height="28" style="stroke:#181818;stroke-width:1.0;" width="10" x="316" y="256.3281"/><rect fill="#FFFFFF" height="29.1328" style="stroke:#181818;stroke-width:1.0;" width="10" x="484" y="400.9922"/><rect fill="#FFFFFF" height="29.1328" style="stroke:#181818;stroke-width:1.0;" width="10" x="669.5" y="144.6641"/><rect fill="#FFFFFF" height="21.1328" style="stroke:#181818;stroke-width:1.0;" width="10" x="800" y="123.5313"/><rect fill="#FFFFFF" height="89.5313" style="stroke:#181818;stroke-width:1.0;" width="10" x="874" y="430.125"/><text fill="#000000" font-family="sans-serif" font-size="11" lengthAdjust="spacing" textLength="256" x="469.5" y="106.937">Two agents are connected to Ankiaos Server</text><line style="stroke:#181818;stroke-width:1.0;" x1="680.5" x2="690.5" y1="144.6641" y2="140.6641"/><line style="stroke:#181818;stroke-width:1.0;" x1="680.5" x2="690.5" y1="144.6641" y2="148.6641"/><line style="stroke:#181818;stroke-width:1.0;" x1="679.5" x2="804" y1="144.6641" y2="144.6641"/><text fill="#000000" font-family="sans-serif" font-size="13" lengthAdjust="spacing" textLength="72" x="696.5" y="139.5981">AgentGone</text><line style="stroke:#181818;stroke-width:1.0;" x1="322" x2="332" y1="173.7969" y2="169.7969"/><line style="stroke:#181818;stroke-width:1.0;" x1="322" x2="332" y1="173.7969" y2="177.7969"/><line style="stroke:#181818;stroke-width:1.0;" x1="321" x2="673.5" y1="173.7969" y2="173.7969"/><text fill="#000000" font-family="sans-serif" font-size="13" lengthAdjust="spacing" textLength="72" x="338" y="168.731">AgentGone</text><line style="stroke:#181818;stroke-width:1.0;" x1="326" x2="368" y1="248.3281" y2="248.3281"/><line style="stroke:#181818;stroke-width:1.0;" x1="368" x2="368" y1="248.3281" y2="261.3281"/><line style="stroke:#181818;stroke-width:1.0;" x1="327" x2="368" y1="261.3281" y2="261.3281"/><polygon fill="#181818" points="337,257.3281,327,261.3281,337,265.3281" style="stroke:#181818;stroke-width:1.0;"/><text fill="#000000" font-family="sans-serif" font-size="13" lengthAdjust="spacing" textLength="141" x="333" y="197.8638">set workload states to</text><text fill="#000000" font-family="sans-serif" font-size="13" lengthAdjust="spacing" textLength="140" x="333" y="212.9966">`agent disconnected`</text><text fill="#000000" font-family="sans-serif" font-size="13" lengthAdjust="spacing" textLength="127" x="333" y="228.1294">in WorkloadStateDB</text><text fill="#000000" font-family="sans-serif" font-size="13" lengthAdjust="spacing" textLength="56" x="333" y="243.2622">(Agent1)</text><path d="M5,304.3281 L5,374.3281 L306,374.3281 L306,314.3281 L296,304.3281 L5,304.3281 " fill="#FFFFFF" style="stroke:#181818;stroke-width:0.5;"/><path d="M296,304.3281 L296,314.3281 L306,314.3281 L296,304.3281 " fill="#FFFFFF" style="stroke:#181818;stroke-width:0.5;"/><text fill="#000000" font-family="monospace" font-size="13" lengthAdjust="spacing" textLength="120" x="11" y="321.395">workloadStates:</text><text fill="#000000" font-family="monospace" font-size="13" lengthAdjust="spacing" textLength="176" x="11" y="336.5278">-&#160;workload:&#160;Workload&#160;1</text><text fill="#000000" font-family="monospace" font-size="13" lengthAdjust="spacing" textLength="112" x="27" y="351.6606">agent:&#160;Agent&#160;1</text><text fill="#000000" font-family="monospace" font-size="13" lengthAdjust="spacing" textLength="264" x="27" y="366.7935">executionState:&#160;AgentDisconnected</text><line style="stroke:#181818;stroke-width:1.0;" x1="482" x2="472" y1="400.9922" y2="396.9922"/><line style="stroke:#181818;stroke-width:1.0;" x1="482" x2="472" y1="400.9922" y2="404.9922"/><line style="stroke:#181818;stroke-width:1.0;" x1="316" x2="483" y1="400.9922" y2="400.9922"/><text fill="#000000" font-family="sans-serif" font-size="13" lengthAdjust="spacing" textLength="140" x="323" y="395.9263">UpdateWorkloadState</text><line style="stroke:#181818;stroke-width:1.0;" x1="872" x2="862" y1="430.125" y2="426.125"/><line style="stroke:#181818;stroke-width:1.0;" x1="872" x2="862" y1="430.125" y2="434.125"/><line style="stroke:#181818;stroke-width:1.0;" x1="489" x2="873" y1="430.125" y2="430.125"/><text fill="#000000" font-family="sans-serif" font-size="13" lengthAdjust="spacing" textLength="140" x="496" y="425.0591">UpdateWorkloadState</text><path d="M889,443.125 L889,513.125 L1190,513.125 L1190,453.125 L1180,443.125 L889,443.125 " fill="#FFFFFF" style="stroke:#181818;stroke-width:0.5;"/><path d="M1180,443.125 L1180,453.125 L1190,453.125 L1180,443.125 " fill="#FFFFFF" style="stroke:#181818;stroke-width:0.5;"/><text fill="#000000" font-family="monospace" font-size="13" lengthAdjust="spacing" textLength="120" x="895" y="460.1919">workloadStates:</text><text fill="#000000" font-family="monospace" font-size="13" lengthAdjust="spacing" textLength="176" x="895" y="475.3247">-&#160;workload:&#160;Workload&#160;1</text><text fill="#000000" font-family="monospace" font-size="13" lengthAdjust="spacing" textLength="104" x="911" y="490.4575">node:&#160;Agent&#160;1</text><text fill="#000000" font-family="monospace" font-size="13" lengthAdjust="spacing" textLength="264" x="911" y="505.5903">executionState:&#160;AgentDisconnected</text><!--SRC=[hPBBRi8m44Nt_effLgrGWc29K2GA4jkgjEe6gRZs52p2EB8TuFFhE0yI-jeGPH5xpftSkVQT8f4L4Y59XkrhqEh22BH3gSKmppYvuf0DHOQS4hjNnDY7FaCqeprNsi8ApH5Dn79kd18gzpn4qwdR6UGoJTTKWpK7t88DdxyhbizFyxa-70fIWZkbgIlUcboy_zV1QI-5hUzJ_on8mswZHPBW1xcQPhP5SlPgch0v2Yru-FoXFBwKnvVUN3Xrv0uRNP8aBoTThJnj48GcGk5GUdVWNIZUPkfXLkaWJjEUUuZZmM1IkLrgGjOlUleNhYKQO328uubVE3Xfiyyqbs2TTroc1MlQ10CWbMsDRjQa2DvgUbN2YySrtLSfFJ3IVjuCFrrppb0_KNJgYkmaYZgrk3KmQPl3g8T05LmzpxSYdb4KvNK9xMjgqN7k-V9aIeECTRBgNAawiDTS-XQz6LcFyghghFyGX22CskvSSozkc0HfYJS9uWi0]--></g></svg>