<?xml version="1.0" encoding="us-ascii" standalone="no"?><svg xmlns="http://www.w3.org/2000/svg" xmlns:xlink="http://www.w3.org/1999/xlink" contentStyleType="text/css" height="1043px" preserveAspectRatio="none" style="width:1315px;height:1043px;background:#FFFFFF;" version="1.1" viewBox="0 0 1315 1043" width="1315px" zoomAndPan="magnify"><defs/><g><rect fill="#EEEEEE" height="1024.4922" style="stroke:#D3D3D3;stroke-width:0.5;" width="1149" x="11" y="6"/><text fill="#777777" font-family="sans-serif" font-size="13" font-weight="bold" lengthAdjust="spacing" textLength="110" x="530.5" y="18.0669">Ankaios Server</text><rect fill="#EEEEEE" height="1024.4922" style="stroke:#D3D3D3;stroke-width:0.5;" width="121" x="1182" y="6"/><text fill="#777777" font-family="sans-serif" font-size="13" font-weight="bold" lengthAdjust="spacing" textLength="107" x="1189" y="18.0669">Ankaios Agent</text><rect fill="#FFFFFF" height="938.7656" style="stroke:#181818;stroke-width:1.0;" width="10" x="33" y="88.7266"/><rect fill="#FFFFFF" height="28" style="stroke:#181818;stroke-width:1.0;" width="10" x="38" y="125.8594"/><rect fill="#FFFFFF" height="827.5" style="stroke:#181818;stroke-width:1.0;" width="10" x="323" y="199.9922"/><rect fill="#FFFFFF" height="551.3203" style="stroke:#181818;stroke-width:1.0;" width="10" x="328" y="476.1719"/><rect fill="#FFFFFF" height="273.1953" style="stroke:#181818;stroke-width:1.0;" width="10" x="333" y="754.2969"/><rect fill="#FFFFFF" height="34.1328" style="stroke:#181818;stroke-width:1.0;" width="10" x="338" y="791.4297"/><rect fill="#FFFFFF" height="769.9063" style="stroke:#181818;stroke-width:1.0;" width="10" x="533" y="257.5859"/><rect fill="#FFFFFF" height="30" style="stroke:#181818;stroke-width:1.0;" width="10" x="538" y="329.3125"/><rect fill="#FFFFFF" height="28" style="stroke:#181818;stroke-width:1.0;" width="10" x="538" y="648.0313"/><rect fill="#FFFFFF" height="201.9297" style="stroke:#181818;stroke-width:1.0;" width="10" x="538" y="825.5625"/><rect fill="#FFFFFF" height="164.7969" style="stroke:#181818;stroke-width:1.0;" width="10" x="543" y="862.6953"/><rect fill="#FFFFFF" height="507.1875" style="stroke:#181818;stroke-width:1.0;" width="10" x="797.5" y="520.3047"/><rect fill="#FFFFFF" height="28" style="stroke:#181818;stroke-width:1.0;" width="10" x="802.5" y="575.8984"/><rect fill="#FFFFFF" height="622.0469" style="stroke:#181818;stroke-width:1.0;" width="10" x="1077.5" y="405.4453"/><rect fill="#FFFFFF" height="34.1328" style="stroke:#181818;stroke-width:1.0;" width="10" x="1082.5" y="720.1641"/><rect fill="#FFFFFF" height="769.9063" style="stroke:#181818;stroke-width:1.0;" width="10" x="1237.5" y="257.5859"/><rect fill="#FFFFFF" height="91.3984" style="stroke:#181818;stroke-width:1.0;" width="10" x="1242.5" y="936.0938"/><rect fill="#FFFFFF" height="16" style="stroke:#181818;stroke-width:1.0;" width="10" x="1247.5" y="1011.4922"/><rect fill="none" height="76.2656" style="stroke:#000000;stroke-width:1.5;" width="888" x="421" y="291.0469"/><rect fill="none" height="61.3984" style="stroke:#000000;stroke-width:1.5;" width="888" x="421" y="882.6953"/><rect fill="none" height="61.3984" style="stroke:#000000;stroke-width:1.5;" width="888" x="421" y="958.0938"/><line style="stroke:#181818;stroke-width:0.5;stroke-dasharray:5.0,5.0;" x1="38" x2="38" y1="72.7266" y2="1036.4922"/><line style="stroke:#181818;stroke-width:0.5;stroke-dasharray:5.0,5.0;" x1="328" x2="328" y1="207.6563" y2="1036.4922"/><line style="stroke:#181818;stroke-width:0.5;stroke-dasharray:5.0,5.0;" x1="538" x2="538" y1="265.25" y2="1036.4922"/><line style="stroke:#181818;stroke-width:0.5;stroke-dasharray:5.0,5.0;" x1="802" x2="802" y1="527.9688" y2="1036.4922"/><line style="stroke:#181818;stroke-width:0.5;stroke-dasharray:5.0,5.0;" x1="1082" x2="1082" y1="413.1094" y2="1036.4922"/><line style="stroke:#181818;stroke-width:0.5;stroke-dasharray:5.0,5.0;" x1="1242" x2="1242" y1="72.7266" y2="1036.4922"/><rect fill="#E3E3E3" height="30.2969" rx="2.5" ry="2.5" style="stroke:#181818;stroke-width:0.5;" width="46" x="15" y="41.4297"/><text fill="#000000" font-family="sans-serif" font-size="14" lengthAdjust="spacing" textLength="32" x="22" y="61.4248">Main</text><rect fill="#E3E3E3" height="30.2969" rx="2.5" ry="2.5" style="stroke:#181818;stroke-width:0.5;" width="113" x="1186" y="41.4297"/><text fill="#000000" font-family="sans-serif" font-size="14" lengthAdjust="spacing" textLength="99" x="1193" y="61.4248">Ankaios Agent</text><rect fill="#FFFFFF" height="938.7656" style="stroke:#181818;stroke-width:1.0;" width="10" x="33" y="88.7266"/><rect fill="#FFFFFF" height="28" style="stroke:#181818;stroke-width:1.0;" width="10" x="38" y="125.8594"/><rect fill="#FFFFFF" height="827.5" style="stroke:#181818;stroke-width:1.0;" width="10" x="323" y="199.9922"/><rect fill="#FFFFFF" height="551.3203" style="stroke:#181818;stroke-width:1.0;" width="10" x="328" y="476.1719"/><rect fill="#FFFFFF" height="273.1953" style="stroke:#181818;stroke-width:1.0;" width="10" x="333" y="754.2969"/><rect fill="#FFFFFF" height="34.1328" style="stroke:#181818;stroke-width:1.0;" width="10" x="338" y="791.4297"/><rect fill="#FFFFFF" height="769.9063" style="stroke:#181818;stroke-width:1.0;" width="10" x="533" y="257.5859"/><rect fill="#FFFFFF" height="30" style="stroke:#181818;stroke-width:1.0;" width="10" x="538" y="329.3125"/><rect fill="#FFFFFF" height="28" style="stroke:#181818;stroke-width:1.0;" width="10" x="538" y="648.0313"/><rect fill="#FFFFFF" height="201.9297" style="stroke:#181818;stroke-width:1.0;" width="10" x="538" y="825.5625"/><rect fill="#FFFFFF" height="164.7969" style="stroke:#181818;stroke-width:1.0;" width="10" x="543" y="862.6953"/><rect fill="#FFFFFF" height="507.1875" style="stroke:#181818;stroke-width:1.0;" width="10" x="797.5" y="520.3047"/><rect fill="#FFFFFF" height="28" style="stroke:#181818;stroke-width:1.0;" width="10" x="802.5" y="575.8984"/><rect fill="#FFFFFF" height="622.0469" style="stroke:#181818;stroke-width:1.0;" width="10" x="1077.5" y="405.4453"/><rect fill="#FFFFFF" height="34.1328" style="stroke:#181818;stroke-width:1.0;" width="10" x="1082.5" y="720.1641"/><rect fill="#FFFFFF" height="769.9063" style="stroke:#181818;stroke-width:1.0;" width="10" x="1237.5" y="257.5859"/><rect fill="#FFFFFF" height="91.3984" style="stroke:#181818;stroke-width:1.0;" width="10" x="1242.5" y="936.0938"/><rect fill="#FFFFFF" height="16" style="stroke:#181818;stroke-width:1.0;" width="10" x="1247.5" y="1011.4922"/><polygon fill="#181818" points="21,84.7266,31,88.7266,21,92.7266" style="stroke:#181818;stroke-width:1.0;"/><line style="stroke:#181818;stroke-width:1.0;" x1="0" x2="27" y1="88.7266" y2="88.7266"/><line style="stroke:#181818;stroke-width:1.0;" x1="48" x2="90" y1="117.8594" y2="117.8594"/><line style="stroke:#181818;stroke-width:1.0;" x1="90" x2="90" y1="117.8594" y2="130.8594"/><line style="stroke:#181818;stroke-width:1.0;" x1="49" x2="90" y1="130.8594" y2="130.8594"/><polygon fill="#181818" points="59,126.8594,49,130.8594,59,134.8594" style="stroke:#181818;stroke-width:1.0;"/><text fill="#000000" font-family="sans-serif" font-size="13" lengthAdjust="spacing" textLength="205" x="55" y="112.7935">create communication channels</text><line style="stroke:#181818;stroke-width:1.0;" x1="270" x2="260" y1="189.9922" y2="185.9922"/><line style="stroke:#181818;stroke-width:1.0;" x1="270" x2="260" y1="189.9922" y2="193.9922"/><line style="stroke:#181818;stroke-width:1.0;" x1="43" x2="271" y1="189.9922" y2="189.9922"/><text fill="#000000" font-family="sans-serif" font-size="13" lengthAdjust="spacing" textLength="205" x="50" y="184.9263">create and start in a new thread</text><rect fill="#E3E3E3" height="46.5938" rx="2.5" ry="2.5" style="stroke:#181818;stroke-width:0.5;" width="112" x="272" y="168.8594"/><text fill="#000000" font-family="sans-serif" font-size="14" lengthAdjust="spacing" textLength="63" x="296.5" y="188.8545">&#171;thread&#187;</text><text fill="#000000" font-family="sans-serif" font-size="14" lengthAdjust="spacing" textLength="98" x="279" y="205.1514">AnkaiosServer</text><line style="stroke:#181818;stroke-width:1.0;" x1="429" x2="419" y1="247.5859" y2="243.5859"/><line style="stroke:#181818;stroke-width:1.0;" x1="429" x2="419" y1="247.5859" y2="251.5859"/><line style="stroke:#181818;stroke-width:1.0;" x1="43" x2="430" y1="247.5859" y2="247.5859"/><text fill="#000000" font-family="sans-serif" font-size="13" lengthAdjust="spacing" textLength="205" x="50" y="242.52">create and start in a new thread</text><rect fill="#E3E3E3" height="46.5938" rx="2.5" ry="2.5" style="stroke:#181818;stroke-width:0.5;" width="214" x="431" y="226.4531"/><text fill="#000000" font-family="sans-serif" font-size="14" lengthAdjust="spacing" textLength="63" x="506.5" y="246.4482">&#171;thread&#187;</text><text fill="#000000" font-family="sans-serif" font-size="14" lengthAdjust="spacing" textLength="200" x="438" y="262.7451">GRPCCommunicationsServer</text><path d="M421,291.0469 L498,291.0469 L498,298.1797 L488,308.1797 L421,308.1797 L421,291.0469 " fill="#EEEEEE" style="stroke:#000000;stroke-width:1.5;"/><rect fill="none" height="76.2656" style="stroke:#000000;stroke-width:1.5;" width="888" x="421" y="291.0469"/><text fill="#000000" font-family="sans-serif" font-size="13" font-weight="bold" lengthAdjust="spacing" textLength="32" x="436" y="304.1138">loop</text><text fill="#000000" font-family="sans-serif" font-size="11" font-weight="bold" lengthAdjust="spacing" textLength="72" x="513" y="303.2573">[per agent]</text><polygon fill="#181818" points="559,325.3125,549,329.3125,559,333.3125" style="stroke:#181818;stroke-width:1.0;"/><line style="stroke:#181818;stroke-width:1.0;" x1="553" x2="1236.5" y1="329.3125" y2="329.3125"/><text fill="#000000" font-family="sans-serif" font-size="13" lengthAdjust="spacing" textLength="122" x="565" y="324.2466">agent hello (name)</text><line style="stroke:#181818;stroke-width:1.0;" x1="1007" x2="997" y1="395.4453" y2="391.4453"/><line style="stroke:#181818;stroke-width:1.0;" x1="1007" x2="997" y1="395.4453" y2="399.4453"/><line style="stroke:#181818;stroke-width:1.0;" x1="43" x2="1008" y1="395.4453" y2="395.4453"/><text fill="#000000" font-family="sans-serif" font-size="13" lengthAdjust="spacing" textLength="205" x="50" y="390.3794">create and start in a new thread</text><rect fill="#E3E3E3" height="46.5938" rx="2.5" ry="2.5" style="stroke:#181818;stroke-width:0.5;" width="147" x="1009" y="374.3125"/><text fill="#000000" font-family="sans-serif" font-size="14" lengthAdjust="spacing" textLength="63" x="1051" y="394.3076">&#171;thread&#187;</text><text fill="#000000" font-family="sans-serif" font-size="14" lengthAdjust="spacing" textLength="133" x="1016" y="410.6045">StartupStateLoader</text><line style="stroke:#181818;stroke-width:1.0;" x1="333" x2="380" y1="463.1719" y2="463.1719"/><line style="stroke:#181818;stroke-width:1.0;" x1="380" x2="380" y1="463.1719" y2="476.1719"/><line style="stroke:#181818;stroke-width:1.0;" x1="339" x2="380" y1="476.1719" y2="476.1719"/><polygon fill="#181818" points="349,472.1719,339,476.1719,349,480.1719" style="stroke:#181818;stroke-width:1.0;"/><text fill="#000000" font-family="sans-serif" font-size="13" lengthAdjust="spacing" textLength="108" x="345" y="442.9731">start listening for</text><text fill="#000000" font-family="sans-serif" font-size="13" lengthAdjust="spacing" textLength="144" x="345" y="458.106">state change requests</text><line style="stroke:#181818;stroke-width:1.0;" x1="732" x2="722" y1="510.3047" y2="506.3047"/><line style="stroke:#181818;stroke-width:1.0;" x1="732" x2="722" y1="510.3047" y2="514.3047"/><line style="stroke:#181818;stroke-width:1.0;" x1="543" x2="733" y1="510.3047" y2="510.3047"/><text fill="#000000" font-family="sans-serif" font-size="13" lengthAdjust="spacing" textLength="167" x="550" y="505.2388">spawn gRPC server thread</text><rect fill="#E3E3E3" height="46.5938" rx="2.5" ry="2.5" style="stroke:#181818;stroke-width:0.5;" width="137" x="734" y="489.1719"/><text fill="#000000" font-family="sans-serif" font-size="14" lengthAdjust="spacing" textLength="63" x="771" y="509.167">&#171;thread&#187;</text><text fill="#000000" font-family="sans-serif" font-size="14" lengthAdjust="spacing" textLength="123" x="741" y="525.4639">tonic gRPC server</text><line style="stroke:#181818;stroke-width:1.0;" x1="812.5" x2="854.5" y1="567.8984" y2="567.8984"/><line style="stroke:#181818;stroke-width:1.0;" x1="854.5" x2="854.5" y1="567.8984" y2="580.8984"/><line style="stroke:#181818;stroke-width:1.0;" x1="813.5" x2="854.5" y1="580.8984" y2="580.8984"/><polygon fill="#181818" points="823.5,576.8984,813.5,580.8984,823.5,584.8984" style="stroke:#181818;stroke-width:1.0;"/><text fill="#000000" font-family="sans-serif" font-size="13" lengthAdjust="spacing" textLength="256" x="819.5" y="562.8325">start listening for state change requests</text><line style="stroke:#181818;stroke-width:1.0;" x1="548" x2="590" y1="640.0313" y2="640.0313"/><line style="stroke:#181818;stroke-width:1.0;" x1="590" x2="590" y1="640.0313" y2="653.0313"/><line style="stroke:#181818;stroke-width:1.0;" x1="549" x2="590" y1="653.0313" y2="653.0313"/><polygon fill="#181818" points="559,649.0313,549,653.0313,559,657.0313" style="stroke:#181818;stroke-width:1.0;"/><text fill="#000000" font-family="sans-serif" font-size="13" lengthAdjust="spacing" textLength="234" x="555" y="634.9653">start listening for execution requests</text><line style="stroke:#181818;stroke-width:1.0;" x1="1087.5" x2="1134.5" y1="707.1641" y2="707.1641"/><line style="stroke:#181818;stroke-width:1.0;" x1="1134.5" x2="1134.5" y1="707.1641" y2="720.1641"/><line style="stroke:#181818;stroke-width:1.0;" x1="1093.5" x2="1134.5" y1="720.1641" y2="720.1641"/><polygon fill="#181818" points="1103.5,716.1641,1093.5,720.1641,1103.5,724.1641" style="stroke:#181818;stroke-width:1.0;"/><text fill="#000000" font-family="sans-serif" font-size="13" lengthAdjust="spacing" textLength="119" x="1099.5" y="702.0981">load startup config</text><line style="stroke:#181818;stroke-width:1.0;" x1="344" x2="354" y1="754.2969" y2="750.2969"/><line style="stroke:#181818;stroke-width:1.0;" x1="344" x2="354" y1="754.2969" y2="758.2969"/><line style="stroke:#181818;stroke-width:1.0;" x1="343" x2="1076.5" y1="754.2969" y2="754.2969"/><text fill="#000000" font-family="sans-serif" font-size="13" lengthAdjust="spacing" textLength="118" x="360" y="749.231">send startup state</text><line style="stroke:#181818;stroke-width:1.0;" x1="343" x2="390" y1="778.4297" y2="778.4297"/><line style="stroke:#181818;stroke-width:1.0;" x1="390" x2="390" y1="778.4297" y2="791.4297"/><line style="stroke:#181818;stroke-width:1.0;" x1="349" x2="390" y1="791.4297" y2="791.4297"/><polygon fill="#181818" points="359,787.4297,349,791.4297,359,795.4297" style="stroke:#181818;stroke-width:1.0;"/><text fill="#000000" font-family="sans-serif" font-size="13" lengthAdjust="spacing" textLength="176" x="355" y="773.3638">calculate execution request</text><line style="stroke:#181818;stroke-width:1.0;" x1="536" x2="526" y1="825.5625" y2="821.5625"/><line style="stroke:#181818;stroke-width:1.0;" x1="536" x2="526" y1="825.5625" y2="829.5625"/><line style="stroke:#181818;stroke-width:1.0;" x1="343" x2="537" y1="825.5625" y2="825.5625"/><text fill="#000000" font-family="sans-serif" font-size="13" lengthAdjust="spacing" textLength="150" x="350" y="820.4966">send execution request</text><line style="stroke:#181818;stroke-width:1.0;" x1="548" x2="595" y1="849.6953" y2="849.6953"/><line style="stroke:#181818;stroke-width:1.0;" x1="595" x2="595" y1="849.6953" y2="862.6953"/><line style="stroke:#181818;stroke-width:1.0;" x1="554" x2="595" y1="862.6953" y2="862.6953"/><polygon fill="#181818" points="564,858.6953,554,862.6953,564,866.6953" style="stroke:#181818;stroke-width:1.0;"/><text fill="#000000" font-family="sans-serif" font-size="13" lengthAdjust="spacing" textLength="142" x="560" y="844.6294">find concerned agents</text><path d="M421,882.6953 L498,882.6953 L498,889.8281 L488,899.8281 L421,899.8281 L421,882.6953 " fill="#EEEEEE" style="stroke:#000000;stroke-width:1.5;"/><rect fill="none" height="61.3984" style="stroke:#000000;stroke-width:1.5;" width="888" x="421" y="882.6953"/><text fill="#000000" font-family="sans-serif" font-size="13" font-weight="bold" lengthAdjust="spacing" textLength="32" x="436" y="895.7622">loop</text><text fill="#000000" font-family="sans-serif" font-size="11" font-weight="bold" lengthAdjust="spacing" textLength="104" x="513" y="894.9058">[for each agent]</text><line style="stroke:#181818;stroke-width:1.0;" x1="1240.5" x2="1230.5" y1="936.0938" y2="932.0938"/><line style="stroke:#181818;stroke-width:1.0;" x1="1240.5" x2="1230.5" y1="936.0938" y2="940.0938"/><line style="stroke:#181818;stroke-width:1.0;" x1="553" x2="1241.5" y1="936.0938" y2="936.0938"/><text fill="#000000" font-family="sans-serif" font-size="13" lengthAdjust="spacing" textLength="150" x="560" y="915.895">send execution request</text><text fill="#000000" font-family="sans-serif" font-size="13" lengthAdjust="spacing" textLength="107" x="560" y="931.0278">with workload list</text><path d="M421,958.0938 L498,958.0938 L498,965.2266 L488,975.2266 L421,975.2266 L421,958.0938 " fill="#EEEEEE" style="stroke:#000000;stroke-width:1.5;"/><rect fill="none" height="61.3984" style="stroke:#000000;stroke-width:1.5;" width="888" x="421" y="958.0938"/><text fill="#000000" font-family="sans-serif" font-size="13" font-weight="bold" lengthAdjust="spacing" textLength="32" x="436" y="971.1606">loop</text><text fill="#000000" font-family="sans-serif" font-size="11" font-weight="bold" lengthAdjust="spacing" textLength="142" x="513" y="970.3042">[for each other agent]</text><line style="stroke:#181818;stroke-width:1.0;" x1="1245.5" x2="1235.5" y1="1011.4922" y2="1007.4922"/><line style="stroke:#181818;stroke-width:1.0;" x1="1245.5" x2="1235.5" y1="1011.4922" y2="1015.4922"/><line style="stroke:#181818;stroke-width:1.0;" x1="553" x2="1246.5" y1="1011.4922" y2="1011.4922"/><text fill="#000000" font-family="sans-serif" font-size="13" lengthAdjust="spacing" textLength="150" x="560" y="991.2935">send execution request</text><text fill="#000000" font-family="sans-serif" font-size="13" lengthAdjust="spacing" textLength="167" x="560" y="1006.4263">with list of workload states</text><!--SRC=[dLD1Rjim4Bpp5LjVqiPGSpS20q4ElQH0qLm362orbWZJIuMax3o_IqgsICLkc_f2KkJCxiwCFsbIfgyHb459N_rEan2_x1ii7cWdjVNmZEw0RY4wwO9MkfCKuBlK1DB3djVYOd5_7rg7ibwlNsXa60dYUv-sGbp7VFlvu_7HxlSzQIM3jfJ36zUfpSXnbI5OXaB3F6Ev14rVDt-l_npufkzu2VXaPNrgF9ut9dqGI3MmH3ET7Xgai130luAzl8zaCkucbcgTT8JbKgHrEbVL2XHt5jYUN1DGhIH2uq-0zJWgtDwU4PBvVPm6ebT0U8HXJ25Lq8VuP9JZJ9Bfoqpm4QhSckdhCAcnjeEEEOTZL2ZjugHvoULoDLwqQ8o5poJt-2Mzh_5Y9TPGP1fa9dsq_y9WCJPKdNMDhGqCHlk0fAc1hNNmGWcO36aG7Bxsw8CN8fyhzfRdBxdaEtcaFARlMYeYM-2h6T-Gb4lz_LDtCnEkSU4RgZx5xqG4TpTuq0QCx9iseBkvO-bo4wgPAL76k1tu-uvZJLlTp45dsQig2Oyq8TBJAmufQLHluiJlUiqGvRnPYGkWFmgrWgrc6C-Wq17MGtXPtXJu99bKRPRwUIY6i3FHvVAShgCEBHojsoNLeXyfysK16zhYp_MVPI8xsErKBadjOy7V]--></g></svg>