<?xml version="1.0" encoding="us-ascii" standalone="no"?><svg xmlns="http://www.w3.org/2000/svg" xmlns:xlink="http://www.w3.org/1999/xlink" contentStyleType="text/css" height="660px" preserveAspectRatio="none" style="width:1285px;height:660px;background:#FFFFFF;" version="1.1" viewBox="0 0 1285 660" width="1285px" zoomAndPan="magnify"><defs/><g><rect fill="#EEEEEE" height="641.7891" style="stroke:#D3D3D3;stroke-width:0.5;" width="610" x="224" y="6"/><text fill="#777777" font-family="sans-serif" font-size="13" font-weight="bold" lengthAdjust="spacing" textLength="110" x="474" y="18.0669">Ankaios Server</text><rect fill="#EEEEEE" height="641.7891" style="stroke:#D3D3D3;stroke-width:0.5;" width="146" x="889.5" y="6"/><text fill="#777777" font-family="sans-serif" font-size="13" font-weight="bold" lengthAdjust="spacing" textLength="115" x="905" y="18.0669">Ankaios Agents</text><rect fill="#FFFFFF" height="211.7969" style="stroke:#181818;stroke-width:1.0;" width="10" x="279" y="284.3281"/><rect fill="#FFFFFF" height="89.1328" style="stroke:#181818;stroke-width:1.0;" width="10" x="571" y="466.125"/><rect fill="#FFFFFF" height="89.1328" style="stroke:#181818;stroke-width:1.0;" width="10" x="756.5" y="225.1953"/><rect fill="#FFFFFF" height="119.5313" style="stroke:#181818;stroke-width:1.0;" width="10" x="994.5" y="525.2578"/><line style="stroke:#181818;stroke-width:0.5;stroke-dasharray:5.0,5.0;" x1="284" x2="284" y1="72.7266" y2="82.7266"/><line style="stroke:#383838;stroke-width:1.0;stroke-dasharray:1.0,4.0;" x1="284" x2="284" y1="82.7266" y2="123.5313"/><line style="stroke:#181818;stroke-width:0.5;stroke-dasharray:5.0,5.0;" x1="284" x2="284" y1="123.5313" y2="653.7891"/><line style="stroke:#181818;stroke-width:0.5;stroke-dasharray:5.0,5.0;" x1="576" x2="576" y1="72.7266" y2="82.7266"/><line style="stroke:#383838;stroke-width:1.0;stroke-dasharray:1.0,4.0;" x1="576" x2="576" y1="82.7266" y2="123.5313"/><line style="stroke:#181818;stroke-width:0.5;stroke-dasharray:5.0,5.0;" x1="576" x2="576" y1="123.5313" y2="653.7891"/><line style="stroke:#181818;stroke-width:0.5;stroke-dasharray:5.0,5.0;" x1="761" x2="761" y1="72.7266" y2="82.7266"/><line style="stroke:#383838;stroke-width:1.0;stroke-dasharray:1.0,4.0;" x1="761" x2="761" y1="82.7266" y2="123.5313"/><line style="stroke:#181818;stroke-width:0.5;stroke-dasharray:5.0,5.0;" x1="761" x2="761" y1="123.5313" y2="653.7891"/><line style="stroke:#181818;stroke-width:0.5;stroke-dasharray:5.0,5.0;" x1="925.5" x2="925.5" y1="72.7266" y2="82.7266"/><line style="stroke:#383838;stroke-width:1.0;stroke-dasharray:1.0,4.0;" x1="925.5" x2="925.5" y1="82.7266" y2="123.5313"/><line style="stroke:#181818;stroke-width:0.5;stroke-dasharray:5.0,5.0;" x1="925.5" x2="925.5" y1="123.5313" y2="653.7891"/><line style="stroke:#181818;stroke-width:0.5;stroke-dasharray:5.0,5.0;" x1="999.5" x2="999.5" y1="72.7266" y2="82.7266"/><line style="stroke:#383838;stroke-width:1.0;stroke-dasharray:1.0,4.0;" x1="999.5" x2="999.5" y1="82.7266" y2="123.5313"/><line style="stroke:#181818;stroke-width:0.5;stroke-dasharray:5.0,5.0;" x1="999.5" x2="999.5" y1="123.5313" y2="653.7891"/><rect fill="#E3E3E3" height="46.5938" rx="2.5" ry="2.5" style="stroke:#181818;stroke-width:0.5;" width="112" x="228" y="25.1328"/><text fill="#000000" font-family="sans-serif" font-size="14" lengthAdjust="spacing" textLength="63" x="252.5" y="45.1279">&#171;thread&#187;</text><text fill="#000000" font-family="sans-serif" font-size="14" lengthAdjust="spacing" textLength="98" x="235" y="61.4248">AnkaiosServer</text><rect fill="#E3E3E3" height="46.5938" rx="2.5" ry="2.5" style="stroke:#181818;stroke-width:0.5;" width="214" x="469" y="25.1328"/><text fill="#000000" font-family="sans-serif" font-size="14" lengthAdjust="spacing" textLength="63" x="544.5" y="45.1279">&#171;thread&#187;</text><text fill="#000000" font-family="sans-serif" font-size="14" lengthAdjust="spacing" textLength="200" x="476" y="61.4248">GRPCCommunicationsServer</text><rect fill="#E3E3E3" height="46.5938" rx="2.5" ry="2.5" style="stroke:#181818;stroke-width:0.5;" width="137" x="693" y="25.1328"/><text fill="#000000" font-family="sans-serif" font-size="14" lengthAdjust="spacing" textLength="63" x="730" y="45.1279">&#171;thread&#187;</text><text fill="#000000" font-family="sans-serif" font-size="14" lengthAdjust="spacing" textLength="123" x="700" y="61.4248">tonic gRPC server</text><rect fill="#E3E3E3" height="30.2969" rx="2.5" ry="2.5" style="stroke:#181818;stroke-width:0.5;" width="64" x="893.5" y="41.4297"/><text fill="#000000" font-family="sans-serif" font-size="14" lengthAdjust="spacing" textLength="50" x="900.5" y="61.4248">Agent1</text><rect fill="#E3E3E3" height="30.2969" rx="2.5" ry="2.5" style="stroke:#181818;stroke-width:0.5;" width="64" x="967.5" y="41.4297"/><text fill="#000000" font-family="sans-serif" font-size="14" lengthAdjust="spacing" textLength="50" x="974.5" y="61.4248">Agent2</text><rect fill="#FFFFFF" height="211.7969" style="stroke:#181818;stroke-width:1.0;" width="10" x="279" y="284.3281"/><rect fill="#FFFFFF" height="89.1328" style="stroke:#181818;stroke-width:1.0;" width="10" x="571" y="466.125"/><rect fill="#FFFFFF" height="89.1328" style="stroke:#181818;stroke-width:1.0;" width="10" x="756.5" y="225.1953"/><rect fill="#FFFFFF" height="119.5313" style="stroke:#181818;stroke-width:1.0;" width="10" x="994.5" y="525.2578"/><text fill="#000000" font-family="sans-serif" font-size="11" lengthAdjust="spacing" textLength="256" x="513.75" y="106.937">Two agents are connected to Ankiaos Server</text><path d="M930,128.5313 L930,198.5313 L1199,198.5313 L1199,138.5313 L1189,128.5313 L930,128.5313 " fill="#FFFFFF" style="stroke:#181818;stroke-width:0.5;"/><path d="M1189,128.5313 L1189,138.5313 L1199,138.5313 L1189,128.5313 " fill="#FFFFFF" style="stroke:#181818;stroke-width:0.5;"/><text fill="#000000" font-family="monospace" font-size="13" lengthAdjust="spacing" textLength="120" x="936" y="145.5981">workloadStates:</text><text fill="#000000" font-family="monospace" font-size="13" lengthAdjust="spacing" textLength="176" x="936" y="160.731">-&#160;workload:&#160;Workload&#160;1</text><text fill="#000000" font-family="monospace" font-size="13" lengthAdjust="spacing" textLength="96" x="952" y="175.8638">node:&#160;Node&#160;1</text><text fill="#000000" font-family="monospace" font-size="13" lengthAdjust="spacing" textLength="232" x="952" y="190.9966">executionState:&#160;ExecSucceeded</text><line style="stroke:#181818;stroke-width:1.0;" x1="767.5" x2="777.5" y1="225.1953" y2="221.1953"/><line style="stroke:#181818;stroke-width:1.0;" x1="767.5" x2="777.5" y1="225.1953" y2="229.1953"/><line style="stroke:#181818;stroke-width:1.0;" x1="766.5" x2="924.5" y1="225.1953" y2="225.1953"/><text fill="#000000" font-family="sans-serif" font-size="13" lengthAdjust="spacing" textLength="140" x="783.5" y="220.1294">UpdateWorkloadState</text><line style="stroke:#181818;stroke-width:1.0;" x1="290" x2="300" y1="284.3281" y2="280.3281"/><line style="stroke:#181818;stroke-width:1.0;" x1="290" x2="300" y1="284.3281" y2="288.3281"/><line style="stroke:#181818;stroke-width:1.0;" x1="289" x2="755.5" y1="284.3281" y2="284.3281"/><text fill="#000000" font-family="sans-serif" font-size="13" lengthAdjust="spacing" textLength="140" x="306" y="279.2622">UpdateWorkloadState</text><path d="M5,327.3281 L5,397.3281 L274,397.3281 L274,337.3281 L264,327.3281 L5,327.3281 " fill="#FFFFFF" style="stroke:#181818;stroke-width:0.5;"/><path d="M264,327.3281 L264,337.3281 L274,337.3281 L264,327.3281 " fill="#FFFFFF" style="stroke:#181818;stroke-width:0.5;"/><text fill="#000000" font-family="monospace" font-size="13" lengthAdjust="spacing" textLength="120" x="11" y="344.395">workloadStates:</text><text fill="#000000" font-family="monospace" font-size="13" lengthAdjust="spacing" textLength="176" x="11" y="359.5278">-&#160;workload:&#160;Workload&#160;1</text><text fill="#000000" font-family="monospace" font-size="13" lengthAdjust="spacing" textLength="96" x="27" y="374.6606">node:&#160;Node&#160;1</text><text fill="#000000" font-family="monospace" font-size="13" lengthAdjust="spacing" textLength="232" x="27" y="389.7935">executionState:&#160;ExecSucceeded</text><line style="stroke:#181818;stroke-width:1.0;" x1="289" x2="331" y1="423.9922" y2="423.9922"/><line style="stroke:#181818;stroke-width:1.0;" x1="331" x2="331" y1="423.9922" y2="436.9922"/><line style="stroke:#181818;stroke-width:1.0;" x1="290" x2="331" y1="436.9922" y2="436.9922"/><polygon fill="#181818" points="300,432.9922,290,436.9922,300,440.9922" style="stroke:#181818;stroke-width:1.0;"/><text fill="#000000" font-family="sans-serif" font-size="13" lengthAdjust="spacing" textLength="268" x="296" y="418.9263">store workload states in WorkloadStateDB</text><line style="stroke:#181818;stroke-width:1.0;" x1="569" x2="559" y1="466.125" y2="462.125"/><line style="stroke:#181818;stroke-width:1.0;" x1="569" x2="559" y1="466.125" y2="470.125"/><line style="stroke:#181818;stroke-width:1.0;" x1="289" x2="570" y1="466.125" y2="466.125"/><text fill="#000000" font-family="sans-serif" font-size="13" lengthAdjust="spacing" textLength="140" x="296" y="461.0591">UpdateWorkloadState</text><line style="stroke:#181818;stroke-width:1.0;" x1="992.5" x2="982.5" y1="525.2578" y2="521.2578"/><line style="stroke:#181818;stroke-width:1.0;" x1="992.5" x2="982.5" y1="525.2578" y2="529.2578"/><line style="stroke:#181818;stroke-width:1.0;" x1="581" x2="993.5" y1="525.2578" y2="525.2578"/><text fill="#000000" font-family="sans-serif" font-size="13" lengthAdjust="spacing" textLength="140" x="588" y="520.1919">UpdateWorkloadState</text><path d="M1009,568.2578 L1009,638.2578 L1278,638.2578 L1278,578.2578 L1268,568.2578 L1009,568.2578 " fill="#FFFFFF" style="stroke:#181818;stroke-width:0.5;"/><path d="M1268,568.2578 L1268,578.2578 L1278,578.2578 L1268,568.2578 " fill="#FFFFFF" style="stroke:#181818;stroke-width:0.5;"/><text fill="#000000" font-family="monospace" font-size="13" lengthAdjust="spacing" textLength="120" x="1015" y="585.3247">workloadStates:</text><text fill="#000000" font-family="monospace" font-size="13" lengthAdjust="spacing" textLength="176" x="1015" y="600.4575">-&#160;workload:&#160;Workload&#160;1</text><text fill="#000000" font-family="monospace" font-size="13" lengthAdjust="spacing" textLength="96" x="1031" y="615.5903">node:&#160;Node&#160;1</text><text fill="#000000" font-family="monospace" font-size="13" lengthAdjust="spacing" textLength="232" x="1031" y="630.7231">executionState:&#160;ExecSucceeded</text><!--SRC=[pL9DJyCm3BtdLvXSfrRQZjLKQGp43I46sWK9XSHqqJgdIbAsdq-QjLlArwxq42NsUy_sgwyqoRfL2B96GRdRQcBipHo0BsWhj76mGlk1bhD6MA-bRWHvuFEvtrWKgYnVg0VsE10ENBp-phXxV5WkpMxNafR2QqCfkRADVBsau4sWGXLq-cAH6gC35qb168Hz6MTH8Nd7OQmTezCe8kBrX_Jid9wTrVCyVzgROpXaRN3I4A7qg48_4CfgSN8nW1aPZs1rjV53AUW_plV6RciZrCeBZwxWFCbbC6GBMFStc8uW06GK5d0VpcyfFA1iExEZU06tuRrgfKHKg0AscwZhZHsxWgmiHuR2P99b1JmtAj3NQQDi1Eju5ndHX1hV_R0h_yo3qop3A0KuRyBF7Ug7PzSUQ8BHP3VNZ2L69ClyXnifgcCTT-oIVSaEpVwRVvy0]--></g></svg>