<?xml version="1.0" encoding="us-ascii" standalone="no"?><svg xmlns="http://www.w3.org/2000/svg" xmlns:xlink="http://www.w3.org/1999/xlink" contentStyleType="text/css" height="1148px" preserveAspectRatio="none" style="width:1329px;height:1148px;background:#FFFFFF;" version="1.1" viewBox="0 0 1329 1148" width="1329px" zoomAndPan="magnify"><defs/><g><rect fill="#EEEEEE" height="1129.5055" style="stroke:#D3D3D3;stroke-width:0.5;" width="1086.5" x="11" y="6"/><text fill="#777777" font-family="sans-serif" font-size="13" font-weight="bold" lengthAdjust="spacing" textLength="97" x="505.75" y="19.897">Ankaios Server</text><rect fill="#EEEEEE" height="1129.5055" style="stroke:#D3D3D3;stroke-width:0.5;" width="118" x="1119.5" y="6"/><text fill="#777777" font-family="sans-serif" font-size="13" font-weight="bold" lengthAdjust="spacing" textLength="95" x="1131" y="19.897">Ankaios Agent</text><rect fill="#FFFFFF" height="1035.6637" style="stroke:#181818;stroke-width:1.0;" width="10" x="34" y="96.8419"/><rect fill="#FFFFFF" height="28" style="stroke:#181818;stroke-width:1.0;" width="10" x="39" y="136.5479"/><rect fill="#FFFFFF" height="919.2516" style="stroke:#181818;stroke-width:1.0;" width="10" x="306.5" y="213.2539"/><rect fill="#FFFFFF" height="618.7261" style="stroke:#181818;stroke-width:1.0;" width="10" x="311.5" y="513.7794"/><rect fill="#FFFFFF" height="296.3541" style="stroke:#181818;stroke-width:1.0;" width="10" x="316.5" y="836.1514"/><rect fill="#FFFFFF" height="36.706" style="stroke:#181818;stroke-width:1.0;" width="10" x="321.5" y="875.8574"/><rect fill="#FFFFFF" height="856.1158" style="stroke:#181818;stroke-width:1.0;" width="10" x="503.5" y="276.3897"/><rect fill="#FFFFFF" height="30" style="stroke:#181818;stroke-width:1.0;" width="10" x="508.5" y="356.2316"/><rect fill="#FFFFFF" height="28" style="stroke:#181818;stroke-width:1.0;" width="10" x="508.5" y="696.3273"/><rect fill="#FFFFFF" height="219.9421" style="stroke:#181818;stroke-width:1.0;" width="10" x="508.5" y="912.5634"/><rect fill="#FFFFFF" height="180.2361" style="stroke:#181818;stroke-width:1.0;" width="10" x="513.5" y="952.2694"/><rect fill="#FFFFFF" height="572.0201" style="stroke:#181818;stroke-width:1.0;" width="10" x="755.5" y="560.4855"/><rect fill="#FFFFFF" height="28" style="stroke:#181818;stroke-width:1.0;" width="10" x="760.5" y="621.6213"/><rect fill="#FFFFFF" height="697.5679" style="stroke:#181818;stroke-width:1.0;" width="10" x="1016.5" y="434.9376"/><rect fill="#FFFFFF" height="50.912" style="stroke:#181818;stroke-width:1.0;" width="10" x="1021.5" y="785.2393"/><rect fill="#FFFFFF" height="856.1158" style="stroke:#181818;stroke-width:1.0;" width="10" x="1173.5" y="276.3897"/><rect fill="#FFFFFF" height="99.118" style="stroke:#181818;stroke-width:1.0;" width="10" x="1178.5" y="1033.3875"/><rect fill="#FFFFFF" height="16" style="stroke:#181818;stroke-width:1.0;" width="10" x="1183.5" y="1116.5055"/><rect fill="none" height="81.412" style="stroke:#000000;stroke-width:1.5;" width="848" x="395.5" y="312.8195"/><rect fill="none" height="69.118" style="stroke:#000000;stroke-width:1.5;" width="848" x="395.5" y="972.2694"/><rect fill="none" height="69.118" style="stroke:#000000;stroke-width:1.5;" width="848" x="395.5" y="1055.3875"/><line style="stroke:#181818;stroke-width:0.5;stroke-dasharray:5.0,5.0;" x1="39" x2="39" y1="80.8419" y2="1141.5055"/><line style="stroke:#181818;stroke-width:0.5;stroke-dasharray:5.0,5.0;" x1="311" x2="311" y1="221.1158" y2="1141.5055"/><line style="stroke:#181818;stroke-width:0.5;stroke-dasharray:5.0,5.0;" x1="508.5" x2="508.5" y1="284.2516" y2="1141.5055"/><line style="stroke:#181818;stroke-width:0.5;stroke-dasharray:5.0,5.0;" x1="760.5" x2="760.5" y1="568.3474" y2="1141.5055"/><line style="stroke:#181818;stroke-width:0.5;stroke-dasharray:5.0,5.0;" x1="1021.5" x2="1021.5" y1="442.7995" y2="1141.5055"/><line style="stroke:#181818;stroke-width:0.5;stroke-dasharray:5.0,5.0;" x1="1178.5" x2="1178.5" y1="80.8419" y2="1141.5055"/><rect fill="#E3E3E3" height="33.0679" rx="2.5" ry="2.5" style="stroke:#181818;stroke-width:0.5;" width="48" x="15" y="46.7739"/><text fill="#000000" font-family="sans-serif" font-size="14" lengthAdjust="spacing" textLength="34" x="22" y="68.7399">Main</text><rect fill="#E3E3E3" height="33.0679" rx="2.5" ry="2.5" style="stroke:#181818;stroke-width:0.5;" width="110" x="1123.5" y="46.7739"/><text fill="#000000" font-family="sans-serif" font-size="14" lengthAdjust="spacing" textLength="96" x="1130.5" y="68.7399">Ankaios Agent</text><rect fill="#FFFFFF" height="1035.6637" style="stroke:#181818;stroke-width:1.0;" width="10" x="34" y="96.8419"/><rect fill="#FFFFFF" height="28" style="stroke:#181818;stroke-width:1.0;" width="10" x="39" y="136.5479"/><rect fill="#FFFFFF" height="919.2516" style="stroke:#181818;stroke-width:1.0;" width="10" x="306.5" y="213.2539"/><rect fill="#FFFFFF" height="618.7261" style="stroke:#181818;stroke-width:1.0;" width="10" x="311.5" y="513.7794"/><rect fill="#FFFFFF" height="296.3541" style="stroke:#181818;stroke-width:1.0;" width="10" x="316.5" y="836.1514"/><rect fill="#FFFFFF" height="36.706" style="stroke:#181818;stroke-width:1.0;" width="10" x="321.5" y="875.8574"/><rect fill="#FFFFFF" height="856.1158" style="stroke:#181818;stroke-width:1.0;" width="10" x="503.5" y="276.3897"/><rect fill="#FFFFFF" height="30" style="stroke:#181818;stroke-width:1.0;" width="10" x="508.5" y="356.2316"/><rect fill="#FFFFFF" height="28" style="stroke:#181818;stroke-width:1.0;" width="10" x="508.5" y="696.3273"/><rect fill="#FFFFFF" height="219.9421" style="stroke:#181818;stroke-width:1.0;" width="10" x="508.5" y="912.5634"/><rect fill="#FFFFFF" height="180.2361" style="stroke:#181818;stroke-width:1.0;" width="10" x="513.5" y="952.2694"/><rect fill="#FFFFFF" height="572.0201" style="stroke:#181818;stroke-width:1.0;" width="10" x="755.5" y="560.4855"/><rect fill="#FFFFFF" height="28" style="stroke:#181818;stroke-width:1.0;" width="10" x="760.5" y="621.6213"/><rect fill="#FFFFFF" height="697.5679" style="stroke:#181818;stroke-width:1.0;" width="10" x="1016.5" y="434.9376"/><rect fill="#FFFFFF" height="50.912" style="stroke:#181818;stroke-width:1.0;" width="10" x="1021.5" y="785.2393"/><rect fill="#FFFFFF" height="856.1158" style="stroke:#181818;stroke-width:1.0;" width="10" x="1173.5" y="276.3897"/><rect fill="#FFFFFF" height="99.118" style="stroke:#181818;stroke-width:1.0;" width="10" x="1178.5" y="1033.3875"/><rect fill="#FFFFFF" height="16" style="stroke:#181818;stroke-width:1.0;" width="10" x="1183.5" y="1116.5055"/><polygon fill="#181818" points="22,92.8419,32,96.8419,22,100.8419" style="stroke:#181818;stroke-width:1.0;"/><line style="stroke:#181818;stroke-width:1.0;" x1="0" x2="28" y1="96.8419" y2="96.8419"/><line style="stroke:#181818;stroke-width:1.0;" x1="49" x2="91" y1="128.5479" y2="128.5479"/><line style="stroke:#181818;stroke-width:1.0;" x1="91" x2="91" y1="128.5479" y2="141.5479"/><line style="stroke:#181818;stroke-width:1.0;" x1="50" x2="91" y1="141.5479" y2="141.5479"/><polygon fill="#181818" points="60,137.5479,50,141.5479,60,145.5479" style="stroke:#181818;stroke-width:1.0;"/><text fill="#000000" font-family="sans-serif" font-size="13" lengthAdjust="spacing" textLength="190" x="56" y="122.7389">create communication channels</text><line style="stroke:#181818;stroke-width:1.0;" x1="255" x2="245" y1="203.2539" y2="199.2539"/><line style="stroke:#181818;stroke-width:1.0;" x1="255" x2="245" y1="203.2539" y2="207.2539"/><line style="stroke:#181818;stroke-width:1.0;" x1="44" x2="256" y1="203.2539" y2="203.2539"/><text fill="#000000" font-family="sans-serif" font-size="13" lengthAdjust="spacing" textLength="189" x="51" y="197.4449">create and start in a new thread</text><rect fill="#E3E3E3" height="52.1358" rx="2.5" ry="2.5" style="stroke:#181818;stroke-width:0.5;" width="109" x="257" y="179.5479"/><text fill="#000000" font-family="sans-serif" font-size="14" lengthAdjust="spacing" textLength="59" x="282" y="201.5138">&#171;thread&#187;</text><text fill="#000000" font-family="sans-serif" font-size="14" lengthAdjust="spacing" textLength="95" x="264" y="220.5817">AnkaiosServer</text><line style="stroke:#181818;stroke-width:1.0;" x1="403.5" x2="393.5" y1="266.3897" y2="262.3897"/><line style="stroke:#181818;stroke-width:1.0;" x1="403.5" x2="393.5" y1="266.3897" y2="270.3897"/><line style="stroke:#181818;stroke-width:1.0;" x1="44" x2="404.5" y1="266.3897" y2="266.3897"/><text fill="#000000" font-family="sans-serif" font-size="13" lengthAdjust="spacing" textLength="189" x="51" y="260.5807">create and start in a new thread</text><rect fill="#E3E3E3" height="52.1358" rx="2.5" ry="2.5" style="stroke:#181818;stroke-width:0.5;" width="206" x="405.5" y="242.6837"/><text fill="#000000" font-family="sans-serif" font-size="14" lengthAdjust="spacing" textLength="59" x="479" y="264.6496">&#171;thread&#187;</text><text fill="#000000" font-family="sans-serif" font-size="14" lengthAdjust="spacing" textLength="192" x="412.5" y="283.7176">GRPCCommunicationsServer</text><path d="M395.5,312.8195 L468.5,312.8195 L468.5,322.5256 L458.5,332.5256 L395.5,332.5256 L395.5,312.8195 " fill="#EEEEEE" style="stroke:#000000;stroke-width:1.5;"/><rect fill="none" height="81.412" style="stroke:#000000;stroke-width:1.5;" width="848" x="395.5" y="312.8195"/><text fill="#000000" font-family="sans-serif" font-size="13" font-weight="bold" lengthAdjust="spacing" textLength="28" x="410.5" y="327.7165">loop</text><text fill="#000000" font-family="sans-serif" font-size="11" font-weight="bold" lengthAdjust="spacing" textLength="63" x="483.5" y="326.5784">[per agent]</text><polygon fill="#181818" points="529.5,352.2316,519.5,356.2316,529.5,360.2316" style="stroke:#181818;stroke-width:1.0;"/><line style="stroke:#181818;stroke-width:1.0;" x1="523.5" x2="1172.5" y1="356.2316" y2="356.2316"/><text fill="#000000" font-family="sans-serif" font-size="13" lengthAdjust="spacing" textLength="112" x="535.5" y="350.4226">agent hello (name)</text><line style="stroke:#181818;stroke-width:1.0;" x1="947.5" x2="937.5" y1="424.9376" y2="420.9376"/><line style="stroke:#181818;stroke-width:1.0;" x1="947.5" x2="937.5" y1="424.9376" y2="428.9376"/><line style="stroke:#181818;stroke-width:1.0;" x1="44" x2="948.5" y1="424.9376" y2="424.9376"/><text fill="#000000" font-family="sans-serif" font-size="13" lengthAdjust="spacing" textLength="189" x="51" y="419.1286">create and start in a new thread</text><rect fill="#E3E3E3" height="52.1358" rx="2.5" ry="2.5" style="stroke:#181818;stroke-width:0.5;" width="144" x="949.5" y="401.2316"/><text fill="#000000" font-family="sans-serif" font-size="14" lengthAdjust="spacing" textLength="59" x="992" y="423.1975">&#171;thread&#187;</text><text fill="#000000" font-family="sans-serif" font-size="14" lengthAdjust="spacing" textLength="130" x="956.5" y="442.2654">StartupStateLoader</text><line style="stroke:#181818;stroke-width:1.0;" x1="316.5" x2="363.5" y1="500.7794" y2="500.7794"/><line style="stroke:#181818;stroke-width:1.0;" x1="363.5" x2="363.5" y1="500.7794" y2="513.7794"/><line style="stroke:#181818;stroke-width:1.0;" x1="322.5" x2="363.5" y1="513.7794" y2="513.7794"/><polygon fill="#181818" points="332.5,509.7794,322.5,513.7794,332.5,517.7794" style="stroke:#181818;stroke-width:1.0;"/><text fill="#000000" font-family="sans-serif" font-size="13" lengthAdjust="spacing" textLength="102" x="328.5" y="477.2644">start listening for</text><text fill="#000000" font-family="sans-serif" font-size="13" lengthAdjust="spacing" textLength="132" x="328.5" y="494.9704">state change requests</text><line style="stroke:#181818;stroke-width:1.0;" x1="692.5" x2="682.5" y1="550.4855" y2="546.4855"/><line style="stroke:#181818;stroke-width:1.0;" x1="692.5" x2="682.5" y1="550.4855" y2="554.4855"/><line style="stroke:#181818;stroke-width:1.0;" x1="513.5" x2="693.5" y1="550.4855" y2="550.4855"/><text fill="#000000" font-family="sans-serif" font-size="13" lengthAdjust="spacing" textLength="157" x="520.5" y="544.6764">spawn gRPC server thread</text><rect fill="#E3E3E3" height="52.1358" rx="2.5" ry="2.5" style="stroke:#181818;stroke-width:0.5;" width="132" x="694.5" y="526.7794"/><text fill="#000000" font-family="sans-serif" font-size="14" lengthAdjust="spacing" textLength="59" x="731" y="548.7454">&#171;thread&#187;</text><text fill="#000000" font-family="sans-serif" font-size="14" lengthAdjust="spacing" textLength="118" x="701.5" y="567.8133">tonic gRPC server</text><line style="stroke:#181818;stroke-width:1.0;" x1="770.5" x2="812.5" y1="613.6213" y2="613.6213"/><line style="stroke:#181818;stroke-width:1.0;" x1="812.5" x2="812.5" y1="613.6213" y2="626.6213"/><line style="stroke:#181818;stroke-width:1.0;" x1="771.5" x2="812.5" y1="626.6213" y2="626.6213"/><polygon fill="#181818" points="781.5,622.6213,771.5,626.6213,781.5,630.6213" style="stroke:#181818;stroke-width:1.0;"/><text fill="#000000" font-family="sans-serif" font-size="13" lengthAdjust="spacing" textLength="237" x="777.5" y="607.8123">start listening for state change requests</text><line style="stroke:#181818;stroke-width:1.0;" x1="518.5" x2="560.5" y1="688.3273" y2="688.3273"/><line style="stroke:#181818;stroke-width:1.0;" x1="560.5" x2="560.5" y1="688.3273" y2="701.3273"/><line style="stroke:#181818;stroke-width:1.0;" x1="519.5" x2="560.5" y1="701.3273" y2="701.3273"/><polygon fill="#181818" points="529.5,697.3273,519.5,701.3273,529.5,705.3273" style="stroke:#181818;stroke-width:1.0;"/><text fill="#000000" font-family="sans-serif" font-size="13" lengthAdjust="spacing" textLength="219" x="525.5" y="682.5183">start listening for execution requests</text><line style="stroke:#181818;stroke-width:1.0;" x1="1026.5" x2="1073.5" y1="772.2393" y2="772.2393"/><line style="stroke:#181818;stroke-width:1.0;" x1="1073.5" x2="1073.5" y1="772.2393" y2="785.2393"/><line style="stroke:#181818;stroke-width:1.0;" x1="1032.5" x2="1073.5" y1="785.2393" y2="785.2393"/><polygon fill="#181818" points="1042.5,781.2393,1032.5,785.2393,1042.5,789.2393" style="stroke:#181818;stroke-width:1.0;"/><text fill="#000000" font-family="sans-serif" font-size="13" lengthAdjust="spacing" textLength="113" x="1038.5" y="766.4303">load startup config</text><path d="M1163,744.3273 L1163,807.3273 L1322,807.3273 L1322,754.3273 L1312,744.3273 L1163,744.3273 " fill="#FFFFFF" style="stroke:#181818;stroke-width:0.5;"/><path d="M1312,744.3273 L1312,754.3273 L1322,754.3273 L1312,744.3273 " fill="#FFFFFF" style="stroke:#181818;stroke-width:0.5;"/><text fill="#000000" font-family="sans-serif" font-size="13" lengthAdjust="spacing" textLength="107" x="1169" y="763.2243">the startup config</text><text fill="#000000" font-family="sans-serif" font-size="13" lengthAdjust="spacing" textLength="104" x="1169" y="780.9303">is provided either</text><text fill="#000000" font-family="sans-serif" font-size="13" lengthAdjust="spacing" textLength="138" x="1169" y="798.6363">via config file or the CLI</text><line style="stroke:#181818;stroke-width:1.0;" x1="327.5" x2="337.5" y1="836.1514" y2="832.1514"/><line style="stroke:#181818;stroke-width:1.0;" x1="327.5" x2="337.5" y1="836.1514" y2="840.1514"/><line style="stroke:#181818;stroke-width:1.0;" x1="326.5" x2="1015.5" y1="836.1514" y2="836.1514"/><text fill="#000000" font-family="sans-serif" font-size="13" lengthAdjust="spacing" textLength="109" x="343.5" y="830.3424">send startup state</text><line style="stroke:#181818;stroke-width:1.0;" x1="326.5" x2="373.5" y1="862.8574" y2="862.8574"/><line style="stroke:#181818;stroke-width:1.0;" x1="373.5" x2="373.5" y1="862.8574" y2="875.8574"/><line style="stroke:#181818;stroke-width:1.0;" x1="332.5" x2="373.5" y1="875.8574" y2="875.8574"/><polygon fill="#181818" points="342.5,871.8574,332.5,875.8574,342.5,879.8574" style="stroke:#181818;stroke-width:1.0;"/><text fill="#000000" font-family="sans-serif" font-size="13" lengthAdjust="spacing" textLength="163" x="338.5" y="857.0484">calculate execution request</text><line style="stroke:#181818;stroke-width:1.0;" x1="506.5" x2="496.5" y1="912.5634" y2="908.5634"/><line style="stroke:#181818;stroke-width:1.0;" x1="506.5" x2="496.5" y1="912.5634" y2="916.5634"/><line style="stroke:#181818;stroke-width:1.0;" x1="326.5" x2="507.5" y1="912.5634" y2="912.5634"/><text fill="#000000" font-family="sans-serif" font-size="13" lengthAdjust="spacing" textLength="140" x="333.5" y="906.7544">send execution request</text><line style="stroke:#181818;stroke-width:1.0;" x1="518.5" x2="565.5" y1="939.2694" y2="939.2694"/><line style="stroke:#181818;stroke-width:1.0;" x1="565.5" x2="565.5" y1="939.2694" y2="952.2694"/><line style="stroke:#181818;stroke-width:1.0;" x1="524.5" x2="565.5" y1="952.2694" y2="952.2694"/><polygon fill="#181818" points="534.5,948.2694,524.5,952.2694,534.5,956.2694" style="stroke:#181818;stroke-width:1.0;"/><text fill="#000000" font-family="sans-serif" font-size="13" lengthAdjust="spacing" textLength="133" x="530.5" y="933.4604">find concerned agents</text><path d="M395.5,972.2694 L468.5,972.2694 L468.5,981.9754 L458.5,991.9754 L395.5,991.9754 L395.5,972.2694 " fill="#EEEEEE" style="stroke:#000000;stroke-width:1.5;"/><rect fill="none" height="69.118" style="stroke:#000000;stroke-width:1.5;" width="848" x="395.5" y="972.2694"/><text fill="#000000" font-family="sans-serif" font-size="13" font-weight="bold" lengthAdjust="spacing" textLength="28" x="410.5" y="987.1664">loop</text><text fill="#000000" font-family="sans-serif" font-size="11" font-weight="bold" lengthAdjust="spacing" textLength="90" x="483.5" y="986.0283">[for each agent]</text><line style="stroke:#181818;stroke-width:1.0;" x1="1176.5" x2="1166.5" y1="1033.3875" y2="1029.3875"/><line style="stroke:#181818;stroke-width:1.0;" x1="1176.5" x2="1166.5" y1="1033.3875" y2="1037.3875"/><line style="stroke:#181818;stroke-width:1.0;" x1="523.5" x2="1177.5" y1="1033.3875" y2="1033.3875"/><text fill="#000000" font-family="sans-serif" font-size="13" lengthAdjust="spacing" textLength="140" x="530.5" y="1009.8724">send execution request</text><text fill="#000000" font-family="sans-serif" font-size="13" lengthAdjust="spacing" textLength="105" x="530.5" y="1027.5785">with workload list</text><path d="M395.5,1055.3875 L468.5,1055.3875 L468.5,1065.0935 L458.5,1075.0935 L395.5,1075.0935 L395.5,1055.3875 " fill="#EEEEEE" style="stroke:#000000;stroke-width:1.5;"/><rect fill="none" height="69.118" style="stroke:#000000;stroke-width:1.5;" width="848" x="395.5" y="1055.3875"/><text fill="#000000" font-family="sans-serif" font-size="13" font-weight="bold" lengthAdjust="spacing" textLength="28" x="410.5" y="1070.2845">loop</text><text fill="#000000" font-family="sans-serif" font-size="11" font-weight="bold" lengthAdjust="spacing" textLength="124" x="483.5" y="1069.1464">[for each other agent]</text><line style="stroke:#181818;stroke-width:1.0;" x1="1181.5" x2="1171.5" y1="1116.5055" y2="1112.5055"/><line style="stroke:#181818;stroke-width:1.0;" x1="1181.5" x2="1171.5" y1="1116.5055" y2="1120.5055"/><line style="stroke:#181818;stroke-width:1.0;" x1="523.5" x2="1182.5" y1="1116.5055" y2="1116.5055"/><text fill="#000000" font-family="sans-serif" font-size="13" lengthAdjust="spacing" textLength="140" x="530.5" y="1092.9905">send execution request</text><text fill="#000000" font-family="sans-serif" font-size="13" lengthAdjust="spacing" textLength="159" x="530.5" y="1110.6965">with list of workload states</text><!--SRC=[fLDDRnen4BtxLqovf0rQzeuYf8X35IcLgkQAX5pli5YOySRsGdv-nzu5l1j86nKXhJ_clPbvR_n5ap9jXJ2RbUU_GszRfz2NbLLbOoI5TczAPL3IpEyq2V7Rli7aaNPIMmylw0xe9gAHBcYb6uw77r8JI0zx_Wuk9WyFOUjGLel5Ydg6dY36-xGKuZRc-w-VowNTxrlIIWPjAOVNhb7hdkCcGx0CXPfv-dG9caxNVy__4lYcRVWJyDdAwbHutAzDEX185R148vqUQwGm4S2_0VlmFfB9kBgm58ka8qod8dql-wAOW-BA0eBADG6rbKHe_0cmw5k5-_ipGZA_Zzr0z0e8Zz2rAQGA-X13UZdE99c-p0IVeSgjkPnsdHfh6sYOizj6XT8gTfgdd4xd_SKMZR7mbUGUlwNu2gzcOWr5fa5cqcVh7nWi-eAAiwwnj8x1Q1-GDDMmiGvMb839a1h1uMkBFdWXyhvYRVdy9PTy8u-KZ-cxaWOZEy0N8xvkKgxLzq_LZKounOLlgDeqVYSYAE_me0qOsTRRWEwkPEbo4ugHAL76kEpusuR7cZQw5cIvIgUPPCuouEXwHTf3u-n1LrW1QevmApfesT_3HXi4wn9q-Vmqhk7iOb4a7v4k1QJG6uOhQLHhee3lMiyGG_co55T07-e-vpuOnZqfTCITfhV0RgNtanoGQfizel6CTM-7YQwdvs4zidPmj6wNJ8ZsfYSqJ62Zll-V9hA3tLpI9QbzJFW7]--></g></svg>