<?xml version="1.0" encoding="UTF-8" standalone="no"?><svg xmlns="http://www.w3.org/2000/svg" xmlns:xlink="http://www.w3.org/1999/xlink" contentScriptType="application/ecmascript" contentStyleType="text/css" height="888px" preserveAspectRatio="none" style="width:1252px;height:888px;" version="1.1" viewBox="0 0 1252 888" width="1252px" zoomAndPan="magnify"><defs/><g><rect fill="#EEEEEE" height="866.6484" style="stroke: #D3D3D3; stroke-width: 1.0;" width="746" x="19" y="4"/><text fill="#777777" font-family="sans-serif" font-size="13" font-weight="bold" lengthAdjust="spacingAndGlyphs" textLength="110" x="337" y="16.0669">Ankaios Server</text><rect fill="#EEEEEE" height="866.6484" style="stroke: #D3D3D3; stroke-width: 1.0;" width="276" x="787" y="4"/><text fill="#777777" font-family="sans-serif" font-size="13" font-weight="bold" lengthAdjust="spacingAndGlyphs" textLength="115" x="867.5" y="16.0669">Ankaios Agents</text><rect fill="#FFFFFF" height="48.1328" style="stroke: #383838; stroke-width: 1.0;" width="10" x="74" y="465.4531"/><rect fill="#FFFFFF" height="14" style="stroke: #383838; stroke-width: 1.0;" width="10" x="74" y="853.6484"/><rect fill="#FFFFFF" height="679.5234" style="stroke: #383838; stroke-width: 1.0;" width="10" x="307" y="188.125"/><rect fill="#FFFFFF" height="627.2578" style="stroke: #383838; stroke-width: 1.0;" width="10" x="312" y="240.3906"/><rect fill="#FFFFFF" height="585.125" style="stroke: #383838; stroke-width: 1.0;" width="10" x="317" y="282.5234"/><rect fill="#FFFFFF" height="58.2656" style="stroke: #383838; stroke-width: 1.0;" width="10" x="322" y="354.9219"/><rect fill="#FFFFFF" height="286.7969" style="stroke: #383838; stroke-width: 1.0;" width="10" x="502" y="499.5859"/><rect fill="#FFFFFF" height="49.1328" style="stroke: #383838; stroke-width: 1.0;" width="10" x="820" y="80.7266"/><rect fill="#FFFFFF" height="300.7969" style="stroke: #383838; stroke-width: 1.0;" width="10" x="820" y="566.8516"/><rect fill="#FFFFFF" height="28" style="stroke: #383838; stroke-width: 1.0;" width="10" x="825" y="603.9844"/><rect fill="#FFFFFF" height="168.3984" style="stroke: #383838; stroke-width: 1.0;" width="10" x="1020" y="699.25"/><rect fill="#FFFFFF" height="28" style="stroke: #383838; stroke-width: 1.0;" width="10" x="1025" y="736.3828"/><rect fill="#FFFFFF" height="442.5938" style="stroke: #000000; stroke-width: 2.0;" width="1227" x="13" y="374.9219"/><rect fill="#FFFFFF" height="118.3984" style="stroke: #000000; stroke-width: 2.0;" width="640" x="390" y="528.5859"/><rect fill="#FFFFFF" height="118.3984" style="stroke: #000000; stroke-width: 2.0;" width="840" x="390" y="660.9844"/><rect fill="#FFFFFF" height="31.1328" style="stroke: none; stroke-width: 1.0;" width="1227" x="13" y="786.3828"/><line style="stroke: #383838; stroke-width: 1.0;" x1="79" x2="79" y1="70.7266" y2="80.7266"/><line style="stroke: #383838; stroke-width: 1.0; stroke-dasharray: 1.0,4.0;" x1="79" x2="79" y1="80.7266" y2="108.7266"/><line style="stroke: #383838; stroke-width: 1.0;" x1="79" x2="79" y1="108.7266" y2="876.6484"/><line style="stroke: #383838; stroke-width: 1.0;" x1="312" x2="312" y1="70.7266" y2="80.7266"/><line style="stroke: #383838; stroke-width: 1.0; stroke-dasharray: 1.0,4.0;" x1="312" x2="312" y1="80.7266" y2="108.7266"/><line style="stroke: #383838; stroke-width: 1.0;" x1="312" x2="312" y1="108.7266" y2="876.6484"/><line style="stroke: #383838; stroke-width: 1.0;" x1="507" x2="507" y1="70.7266" y2="80.7266"/><line style="stroke: #383838; stroke-width: 1.0; stroke-dasharray: 1.0,4.0;" x1="507" x2="507" y1="80.7266" y2="108.7266"/><line style="stroke: #383838; stroke-width: 1.0;" x1="507" x2="507" y1="108.7266" y2="876.6484"/><line style="stroke: #383838; stroke-width: 1.0;" x1="692" x2="692" y1="70.7266" y2="80.7266"/><line style="stroke: #383838; stroke-width: 1.0; stroke-dasharray: 1.0,4.0;" x1="692" x2="692" y1="80.7266" y2="108.7266"/><line style="stroke: #383838; stroke-width: 1.0;" x1="692" x2="692" y1="108.7266" y2="876.6484"/><line style="stroke: #383838; stroke-width: 1.0;" x1="825" x2="825" y1="70.7266" y2="80.7266"/><line style="stroke: #383838; stroke-width: 1.0; stroke-dasharray: 1.0,4.0;" x1="825" x2="825" y1="80.7266" y2="108.7266"/><line style="stroke: #383838; stroke-width: 1.0;" x1="825" x2="825" y1="108.7266" y2="876.6484"/><line style="stroke: #383838; stroke-width: 1.0;" x1="1025" x2="1025" y1="70.7266" y2="80.7266"/><line style="stroke: #383838; stroke-width: 1.0; stroke-dasharray: 1.0,4.0;" x1="1025" x2="1025" y1="80.7266" y2="108.7266"/><line style="stroke: #383838; stroke-width: 1.0;" x1="1025" x2="1025" y1="108.7266" y2="876.6484"/><rect fill="#F8F8F8" height="46.5938" style="stroke: #383838; stroke-width: 1.5;" width="112" x="23" y="23.1328"/><text fill="#000000" font-family="sans-serif" font-size="14" lengthAdjust="spacingAndGlyphs" textLength="93" x="32.5" y="43.1279">&lt;&lt;thread&gt;&gt;</text><text fill="#000000" font-family="sans-serif" font-size="14" lengthAdjust="spacingAndGlyphs" textLength="98" x="30" y="59.4248">AnkaiosServer</text><rect fill="#F8F8F8" height="30.2969" style="stroke: #383838; stroke-width: 1.5;" width="94" x="265" y="39.4297"/><text fill="#000000" font-family="sans-serif" font-size="14" lengthAdjust="spacingAndGlyphs" textLength="80" x="272" y="59.4248">ServerState</text><rect fill="#F8F8F8" height="46.5938" style="stroke: #383838; stroke-width: 1.5;" width="214" x="400" y="23.1328"/><text fill="#000000" font-family="sans-serif" font-size="14" lengthAdjust="spacingAndGlyphs" textLength="93" x="460.5" y="43.1279">&lt;&lt;thread&gt;&gt;</text><text fill="#000000" font-family="sans-serif" font-size="14" lengthAdjust="spacingAndGlyphs" textLength="200" x="407" y="59.4248">GRPCCommunicationsServer</text><rect fill="#F8F8F8" height="46.5938" style="stroke: #383838; stroke-width: 1.5;" width="137" x="624" y="23.1328"/><text fill="#000000" font-family="sans-serif" font-size="14" lengthAdjust="spacingAndGlyphs" textLength="93" x="646" y="43.1279">&lt;&lt;thread&gt;&gt;</text><text fill="#000000" font-family="sans-serif" font-size="14" lengthAdjust="spacingAndGlyphs" textLength="123" x="631" y="59.4248">tonic gRPC server</text><rect fill="#F8F8F8" height="30.2969" style="stroke: #383838; stroke-width: 1.5;" width="68" x="791" y="39.4297"/><text fill="#000000" font-family="sans-serif" font-size="14" lengthAdjust="spacingAndGlyphs" textLength="54" x="798" y="59.4248">Agent 1</text><rect fill="#F8F8F8" height="30.2969" style="stroke: #383838; stroke-width: 1.5;" width="68" x="991" y="39.4297"/><text fill="#000000" font-family="sans-serif" font-size="14" lengthAdjust="spacingAndGlyphs" textLength="54" x="998" y="59.4248">Agent 2</text><rect fill="#FFFFFF" height="48.1328" style="stroke: #383838; stroke-width: 1.0;" width="10" x="74" y="465.4531"/><rect fill="#FFFFFF" height="14" style="stroke: #383838; stroke-width: 1.0;" width="10" x="74" y="853.6484"/><rect fill="#FFFFFF" height="679.5234" style="stroke: #383838; stroke-width: 1.0;" width="10" x="307" y="188.125"/><rect fill="#FFFFFF" height="627.2578" style="stroke: #383838; stroke-width: 1.0;" width="10" x="312" y="240.3906"/><rect fill="#FFFFFF" height="585.125" style="stroke: #383838; stroke-width: 1.0;" width="10" x="317" y="282.5234"/><rect fill="#FFFFFF" height="58.2656" style="stroke: #383838; stroke-width: 1.0;" width="10" x="322" y="354.9219"/><rect fill="#FFFFFF" height="286.7969" style="stroke: #383838; stroke-width: 1.0;" width="10" x="502" y="499.5859"/><rect fill="#FFFFFF" height="49.1328" style="stroke: #383838; stroke-width: 1.0;" width="10" x="820" y="80.7266"/><rect fill="#FFFFFF" height="300.7969" style="stroke: #383838; stroke-width: 1.0;" width="10" x="820" y="566.8516"/><rect fill="#FFFFFF" height="28" style="stroke: #383838; stroke-width: 1.0;" width="10" x="825" y="603.9844"/><rect fill="#FFFFFF" height="168.3984" style="stroke: #383838; stroke-width: 1.0;" width="10" x="1020" y="699.25"/><rect fill="#FFFFFF" height="28" style="stroke: #383838; stroke-width: 1.0;" width="10" x="1025" y="736.3828"/><line style="stroke: #383838; stroke-width: 1.0;" x1="692.5" x2="702.5" y1="129.8594" y2="125.8594"/><line style="stroke: #383838; stroke-width: 1.0;" x1="692.5" x2="702.5" y1="129.8594" y2="133.8594"/><line style="stroke: #383838; stroke-width: 1.0;" x1="692.5" x2="824" y1="129.8594" y2="129.8594"/><text fill="#000000" font-family="sans-serif" font-size="13" lengthAdjust="spacingAndGlyphs" textLength="82" x="709.5" y="124.7935">UpdateState</text><line style="stroke: #383838; stroke-width: 1.0;" x1="79" x2="89" y1="158.9922" y2="154.9922"/><line style="stroke: #383838; stroke-width: 1.0;" x1="79" x2="89" y1="158.9922" y2="162.9922"/><line style="stroke: #383838; stroke-width: 1.0;" x1="79" x2="691.5" y1="158.9922" y2="158.9922"/><text fill="#000000" font-family="sans-serif" font-size="13" lengthAdjust="spacingAndGlyphs" textLength="82" x="96" y="153.9263">UpdateState</text><polygon fill="#383838" points="295,184.125,305,188.125,295,192.125" style="stroke: #383838; stroke-width: 1.0;"/><line style="stroke: #383838; stroke-width: 1.0;" x1="79" x2="301" y1="188.125" y2="188.125"/><text fill="#000000" font-family="sans-serif" font-size="13" lengthAdjust="spacingAndGlyphs" textLength="82" x="86" y="183.0591">update state</text><line style="stroke: #383838; stroke-width: 1.0;" x1="317" x2="364" y1="227.3906" y2="227.3906"/><line style="stroke: #383838; stroke-width: 1.0;" x1="364" x2="364" y1="227.3906" y2="240.3906"/><line style="stroke: #383838; stroke-width: 1.0;" x1="323" x2="364" y1="240.3906" y2="240.3906"/><polygon fill="#383838" points="333,236.3906,323,240.3906,333,244.3906" style="stroke: #383838; stroke-width: 1.0;"/><text fill="#000000" font-family="sans-serif" font-size="13" lengthAdjust="spacingAndGlyphs" textLength="117" x="329" y="207.1919">Compare new with</text><text fill="#000000" font-family="sans-serif" font-size="13" lengthAdjust="spacingAndGlyphs" textLength="106" x="329" y="222.3247">old CurrentState</text><line style="stroke: #383838; stroke-width: 1.0;" x1="322" x2="369" y1="269.5234" y2="269.5234"/><line style="stroke: #383838; stroke-width: 1.0;" x1="369" x2="369" y1="269.5234" y2="282.5234"/><line style="stroke: #383838; stroke-width: 1.0;" x1="328" x2="369" y1="282.5234" y2="282.5234"/><polygon fill="#383838" points="338,278.5234,328,282.5234,338,286.5234" style="stroke: #383838; stroke-width: 1.0;"/><text fill="#000000" font-family="sans-serif" font-size="13" lengthAdjust="spacingAndGlyphs" textLength="143" x="334" y="264.4575">Validate the new state</text><line style="stroke: #383838; stroke-width: 1.0;" x1="327" x2="374" y1="341.9219" y2="341.9219"/><line style="stroke: #383838; stroke-width: 1.0;" x1="374" x2="374" y1="341.9219" y2="354.9219"/><line style="stroke: #383838; stroke-width: 1.0;" x1="333" x2="374" y1="354.9219" y2="354.9219"/><polygon fill="#383838" points="343,350.9219,333,354.9219,343,358.9219" style="stroke: #383838; stroke-width: 1.0;"/><text fill="#000000" font-family="sans-serif" font-size="13" lengthAdjust="spacingAndGlyphs" textLength="161" x="339" y="306.5903">Update DeleteGraph with</text><text fill="#000000" font-family="sans-serif" font-size="13" lengthAdjust="spacingAndGlyphs" textLength="109" x="339" y="321.7231">DeleteConditions</text><text fill="#000000" font-family="sans-serif" font-size="13" lengthAdjust="spacingAndGlyphs" textLength="108" x="339" y="336.856">of new workloads</text><path d="M13,374.9219 L77,374.9219 L77,381.9219 L67,391.9219 L13,391.9219 L13,374.9219 " fill="#EEEEEE" style="stroke: #000000; stroke-width: 1.0;"/><rect fill="none" height="442.5938" style="stroke: #000000; stroke-width: 2.0;" width="1227" x="13" y="374.9219"/><text fill="#000000" font-family="sans-serif" font-size="13" font-weight="bold" lengthAdjust="spacingAndGlyphs" textLength="19" x="28" y="387.9888">alt</text><text fill="#000000" font-family="sans-serif" font-size="11" font-weight="bold" lengthAdjust="spacingAndGlyphs" textLength="79" x="92" y="387.1323">[State valid]</text><line style="stroke: #383838; stroke-width: 1.0;" x1="79" x2="89" y1="413.1875" y2="409.1875"/><line style="stroke: #383838; stroke-width: 1.0;" x1="79" x2="89" y1="413.1875" y2="417.1875"/><line style="stroke: #383838; stroke-width: 1.0; stroke-dasharray: 2.0,2.0;" x1="79" x2="316" y1="413.1875" y2="413.1875"/><text fill="#000000" font-family="sans-serif" font-size="13" lengthAdjust="spacingAndGlyphs" textLength="188" x="96" y="408.1216">Added and deleted workloads</text><line style="stroke: #383838; stroke-width: 1.0;" x1="79" x2="126" y1="452.4531" y2="452.4531"/><line style="stroke: #383838; stroke-width: 1.0;" x1="126" x2="126" y1="452.4531" y2="465.4531"/><line style="stroke: #383838; stroke-width: 1.0;" x1="85" x2="126" y1="465.4531" y2="465.4531"/><polygon fill="#383838" points="95,461.4531,85,465.4531,95,469.4531" style="stroke: #383838; stroke-width: 1.0;"/><text fill="#000000" font-family="sans-serif" font-size="13" lengthAdjust="spacingAndGlyphs" textLength="219" x="91" y="432.2544">Create FromServer message from</text><text fill="#000000" font-family="sans-serif" font-size="13" lengthAdjust="spacingAndGlyphs" textLength="187" x="91" y="447.3872">added and deleted workloads</text><line style="stroke: #383838; stroke-width: 1.0;" x1="500" x2="490" y1="499.5859" y2="495.5859"/><line style="stroke: #383838; stroke-width: 1.0;" x1="500" x2="490" y1="499.5859" y2="503.5859"/><line style="stroke: #383838; stroke-width: 1.0;" x1="84" x2="501" y1="499.5859" y2="499.5859"/><text fill="#000000" font-family="sans-serif" font-size="13" lengthAdjust="spacingAndGlyphs" textLength="173" x="91" y="494.52">send FromServer message</text><line style="stroke: #383838; stroke-width: 1.0;" x1="79" x2="89" y1="513.5859" y2="509.5859"/><line style="stroke: #383838; stroke-width: 1.0;" x1="79" x2="89" y1="513.5859" y2="517.5859"/><line style="stroke: #383838; stroke-width: 1.0; stroke-dasharray: 2.0,2.0;" x1="79" x2="501" y1="513.5859" y2="513.5859"/><path d="M390,528.5859 L460,528.5859 L460,535.5859 L450,545.5859 L390,545.5859 L390,528.5859 " fill="#EEEEEE" style="stroke: #000000; stroke-width: 1.0;"/><rect fill="none" height="118.3984" style="stroke: #000000; stroke-width: 2.0;" width="640" x="390" y="528.5859"/><text fill="#000000" font-family="sans-serif" font-size="13" font-weight="bold" lengthAdjust="spacingAndGlyphs" textLength="25" x="405" y="541.6528">opt</text><text fill="#000000" font-family="sans-serif" font-size="11" font-weight="bold" lengthAdjust="spacingAndGlyphs" textLength="214" x="475" y="540.7964">[ExuectionsRequests for Agent 1]</text><line style="stroke: #383838; stroke-width: 1.0;" x1="818" x2="808" y1="566.8516" y2="562.8516"/><line style="stroke: #383838; stroke-width: 1.0;" x1="818" x2="808" y1="566.8516" y2="570.8516"/><line style="stroke: #383838; stroke-width: 1.0;" x1="512" x2="819" y1="566.8516" y2="566.8516"/><text fill="#000000" font-family="sans-serif" font-size="13" lengthAdjust="spacingAndGlyphs" textLength="173" x="519" y="561.7856">send FromServer message</text><line style="stroke: #383838; stroke-width: 1.0;" x1="835" x2="877" y1="595.9844" y2="595.9844"/><line style="stroke: #383838; stroke-width: 1.0;" x1="877" x2="877" y1="595.9844" y2="608.9844"/><line style="stroke: #383838; stroke-width: 1.0;" x1="836" x2="877" y1="608.9844" y2="608.9844"/><polygon fill="#383838" points="846,604.9844,836,608.9844,846,612.9844" style="stroke: #383838; stroke-width: 1.0;"/><text fill="#000000" font-family="sans-serif" font-size="13" lengthAdjust="spacingAndGlyphs" textLength="176" x="842" y="590.9185">apply FromServer message</text><path d="M390,660.9844 L460,660.9844 L460,667.9844 L450,677.9844 L390,677.9844 L390,660.9844 " fill="#EEEEEE" style="stroke: #000000; stroke-width: 1.0;"/><rect fill="none" height="118.3984" style="stroke: #000000; stroke-width: 2.0;" width="840" x="390" y="660.9844"/><text fill="#000000" font-family="sans-serif" font-size="13" font-weight="bold" lengthAdjust="spacingAndGlyphs" textLength="25" x="405" y="674.0513">opt</text><text fill="#000000" font-family="sans-serif" font-size="11" font-weight="bold" lengthAdjust="spacingAndGlyphs" textLength="214" x="475" y="673.1948">[ExuectionsRequests for Agent 2]</text><line style="stroke: #383838; stroke-width: 1.0;" x1="1018" x2="1008" y1="699.25" y2="695.25"/><line style="stroke: #383838; stroke-width: 1.0;" x1="1018" x2="1008" y1="699.25" y2="703.25"/><line style="stroke: #383838; stroke-width: 1.0;" x1="512" x2="1019" y1="699.25" y2="699.25"/><text fill="#000000" font-family="sans-serif" font-size="13" lengthAdjust="spacingAndGlyphs" textLength="173" x="519" y="694.1841">send FromServer message</text><line style="stroke: #383838; stroke-width: 1.0;" x1="1035" x2="1077" y1="728.3828" y2="728.3828"/><line style="stroke: #383838; stroke-width: 1.0;" x1="1077" x2="1077" y1="728.3828" y2="741.3828"/><line style="stroke: #383838; stroke-width: 1.0;" x1="1036" x2="1077" y1="741.3828" y2="741.3828"/><polygon fill="#383838" points="1046,737.3828,1036,741.3828,1046,745.3828" style="stroke: #383838; stroke-width: 1.0;"/><text fill="#000000" font-family="sans-serif" font-size="13" lengthAdjust="spacingAndGlyphs" textLength="176" x="1042" y="723.3169">apply FromServer message</text><line style="stroke: #000000; stroke-width: 1.0; stroke-dasharray: 2.0,2.0;" x1="13" x2="1240" y1="787.3828" y2="787.3828"/><line style="stroke: #383838; stroke-width: 1.0;" x1="79" x2="89" y1="809.5156" y2="805.5156"/><line style="stroke: #383838; stroke-width: 1.0;" x1="79" x2="89" y1="809.5156" y2="813.5156"/><line style="stroke: #383838; stroke-width: 1.0; stroke-dasharray: 2.0,2.0;" x1="79" x2="316" y1="809.5156" y2="809.5156"/><text fill="#000000" font-family="sans-serif" font-size="13" lengthAdjust="spacingAndGlyphs" textLength="113" x="96" y="804.4497">UpdateStateError</text><line style="stroke: #383838; stroke-width: 1.0;" x1="79" x2="126" y1="840.6484" y2="840.6484"/><line style="stroke: #383838; stroke-width: 1.0;" x1="126" x2="126" y1="840.6484" y2="853.6484"/><line style="stroke: #383838; stroke-width: 1.0;" x1="85" x2="126" y1="853.6484" y2="853.6484"/><polygon fill="#383838" points="95,849.6484,85,853.6484,95,857.6484" style="stroke: #383838; stroke-width: 1.0;"/><text fill="#000000" font-family="sans-serif" font-size="13" lengthAdjust="spacingAndGlyphs" textLength="177" x="91" y="835.5825">listen for incoming requests</text><!--MD5=[df896340461909566325d3e31e0e2eb1]
@startuml seq_update_state
skinparam monochrome true
skinparam guillemet true
skinparam style strictuml
hide empty members
hide empty methods

skinparam class {
    BorderColor<<logical entity>> grey
    FontColor<<logical entity>> grey
    StereotypeFontColor<<logical entity>> grey
}

skinparam sequenceBox {
    BorderColor #LightGrey
    BackgroundColor #EEEEEE
    FontColor #777777
}

skinparam BoxPadding 10

skinparam note {
    BackgroundColor #FFFFFF
}

skinparam nodesep 30
skinparam ranksep 30

box "Ankaios Server"
participant "<<thread>>\nAnkaiosServer" as server
participant "ServerState" as server_state
participant "<<thread>>\nGRPCCommunicationsServer" as grpc_server
participant "<<thread>>\ntonic gRPC server" as tonic_server
end box


box "Ankaios Agents"
participant "Agent 1" as agent1
participant "Agent 2" as agent2
end box

activate agent1
...
agent1 ->> tonic_server- -++: UpdateState
tonic_server ->> server- -++: UpdateState
server -> server_state++: update state
server_state -> server_state ++- -: Compare new with\nold CurrentState
server_state -> server_state ++- -: Validate the new state
server_state -> server_state ++- -: Update DeleteGraph with\nDeleteConditions\nof new workloads
alt State valid
server_state - ->> server- -: Added and deleted workloads
server -> server++- -: Create FromServer message from\nadded and deleted workloads
server ->> grpc_server++: send FromServer message
grpc_server - ->> server
deactivate server
opt ExuectionsRequests for Agent 1
grpc_server ->> agent1++:send FromServer message
agent1 -> agent1++- -: apply FromServer message
deactivate agent1
end
opt ExuectionsRequests for Agent 2
grpc_server ->> agent2++:send FromServer message
agent2 -> agent2++- -: apply FromServer message
deactivate agent2
end
deactivate grpc_server
else
server_state - ->> server: UpdateStateError
end
server -> server++: listen for incoming requests


@enduml

PlantUML version 1.2020.02(Sun Mar 01 10:22:07 UTC 2020)
(GPL source distribution)
Java Runtime: OpenJDK Runtime Environment
JVM: OpenJDK 64-Bit Server VM
Java Version: 17.0.9+9-Debian-1deb12u1
Operating System: Linux
Default Encoding: UTF-8
Language: en
Country: US
--></g></svg>