<?xml version="1.0" encoding="us-ascii" standalone="no"?><svg xmlns="http://www.w3.org/2000/svg" xmlns:xlink="http://www.w3.org/1999/xlink" contentStyleType="text/css" height="1182px" preserveAspectRatio="none" style="width:979px;height:1182px;background:#FFFFFF;" version="1.1" viewBox="0 0 979 1182" width="979px" zoomAndPan="magnify"><defs/><g><rect fill="#EEEEEE" height="1163.5" style="stroke:#D3D3D3;stroke-width:0.5;" width="788" x="16" y="6"/><text fill="#777777" font-family="sans-serif" font-size="13" font-weight="bold" lengthAdjust="spacing" textLength="110" x="355" y="18.0669">Ankaios Server</text><rect fill="#EEEEEE" height="1163.5" style="stroke:#D3D3D3;stroke-width:0.5;" width="121" x="826" y="6"/><text fill="#777777" font-family="sans-serif" font-size="13" font-weight="bold" lengthAdjust="spacing" textLength="107" x="833" y="18.0669">Ankaios Agent</text><rect fill="#FFFFFF" height="889.5703" style="stroke:#FFFFFF;stroke-width:1.0;" width="10" x="38" y="117.8594"/><line style="stroke:#181818;stroke-width:1.0;" x1="38" x2="38" y1="117.8594" y2="1007.4297"/><line style="stroke:#181818;stroke-width:1.0;" x1="48" x2="48" y1="117.8594" y2="1007.4297"/><line style="stroke:#181818;stroke-width:1.0;" x1="38" x2="48" y1="117.8594" y2="117.8594"/><rect fill="#FFFFFF" height="95.2656" style="stroke:#FFFFFF;stroke-width:1.0;" width="10" x="38" y="1048.2344"/><line style="stroke:#181818;stroke-width:1.0;" x1="38" x2="38" y1="1048.2344" y2="1143.5"/><line style="stroke:#181818;stroke-width:1.0;" x1="48" x2="48" y1="1048.2344" y2="1143.5"/><line style="stroke:#181818;stroke-width:1.0;" x1="38" x2="48" y1="1143.5" y2="1143.5"/><rect fill="#FFFFFF" height="28" style="stroke:#181818;stroke-width:1.0;" width="10" x="43" y="166.625"/><rect fill="#FFFFFF" height="28" style="stroke:#181818;stroke-width:1.0;" width="10" x="43" y="254.457"/><rect fill="#FFFFFF" height="28" style="stroke:#181818;stroke-width:1.0;" width="10" x="43" y="330.6563"/><rect fill="#FFFFFF" height="28" style="stroke:#181818;stroke-width:1.0;" width="10" x="43" y="1115.5"/><rect fill="#FFFFFF" height="494.7813" style="stroke:#FFFFFF;stroke-width:1.0;" width="10" x="274" y="512.6484"/><line style="stroke:#181818;stroke-width:1.0;" x1="274" x2="274" y1="512.6484" y2="1007.4297"/><line style="stroke:#181818;stroke-width:1.0;" x1="284" x2="284" y1="512.6484" y2="1007.4297"/><line style="stroke:#181818;stroke-width:1.0;" x1="274" x2="284" y1="512.6484" y2="512.6484"/><rect fill="#FFFFFF" height="30.1328" style="stroke:#FFFFFF;stroke-width:1.0;" width="10" x="274" y="1048.2344"/><line style="stroke:#181818;stroke-width:1.0;" x1="274" x2="274" y1="1048.2344" y2="1078.3672"/><line style="stroke:#181818;stroke-width:1.0;" x1="284" x2="284" y1="1048.2344" y2="1078.3672"/><line style="stroke:#181818;stroke-width:1.0;" x1="274" x2="284" y1="1078.3672" y2="1078.3672"/><rect fill="#FFFFFF" height="28" style="stroke:#181818;stroke-width:1.0;" width="10" x="279" y="568.2422"/><rect fill="#FFFFFF" height="166.6641" style="stroke:#181818;stroke-width:1.0;" width="10" x="279" y="767.3672"/><rect fill="#FFFFFF" height="28" style="stroke:#181818;stroke-width:1.0;" width="10" x="284" y="869.8984"/><rect fill="#FFFFFF" height="602.6406" style="stroke:#FFFFFF;stroke-width:1.0;" width="10" x="457" y="404.7891"/><line style="stroke:#181818;stroke-width:1.0;" x1="457" x2="457" y1="404.7891" y2="1007.4297"/><line style="stroke:#181818;stroke-width:1.0;" x1="467" x2="467" y1="404.7891" y2="1007.4297"/><line style="stroke:#181818;stroke-width:1.0;" x1="457" x2="467" y1="404.7891" y2="404.7891"/><rect fill="#FFFFFF" height="95.2656" style="stroke:#FFFFFF;stroke-width:1.0;" width="10" x="457" y="1048.2344"/><line style="stroke:#181818;stroke-width:1.0;" x1="457" x2="457" y1="1048.2344" y2="1143.5"/><line style="stroke:#181818;stroke-width:1.0;" x1="467" x2="467" y1="1048.2344" y2="1143.5"/><line style="stroke:#181818;stroke-width:1.0;" x1="457" x2="467" y1="1143.5" y2="1143.5"/><rect fill="#FFFFFF" height="29.1328" style="stroke:#181818;stroke-width:1.0;" width="10" x="462" y="680.6406"/><rect fill="#FFFFFF" height="47.2656" style="stroke:#181818;stroke-width:1.0;" width="10" x="462" y="934.0313"/><rect fill="#FFFFFF" height="287.6563" style="stroke:#FFFFFF;stroke-width:1.0;" width="10" x="726.5" y="719.7734"/><line style="stroke:#181818;stroke-width:1.0;" x1="726.5" x2="726.5" y1="719.7734" y2="1007.4297"/><line style="stroke:#181818;stroke-width:1.0;" x1="736.5" x2="736.5" y1="719.7734" y2="1007.4297"/><line style="stroke:#181818;stroke-width:1.0;" x1="726.5" x2="736.5" y1="719.7734" y2="719.7734"/><rect fill="#FFFFFF" height="30.1328" style="stroke:#FFFFFF;stroke-width:1.0;" width="10" x="726.5" y="1048.2344"/><line style="stroke:#181818;stroke-width:1.0;" x1="726.5" x2="726.5" y1="1048.2344" y2="1078.3672"/><line style="stroke:#181818;stroke-width:1.0;" x1="736.5" x2="736.5" y1="1048.2344" y2="1078.3672"/><line style="stroke:#181818;stroke-width:1.0;" x1="726.5" x2="736.5" y1="1078.3672" y2="1078.3672"/><rect fill="#FFFFFF" height="903.5703" style="stroke:#FFFFFF;stroke-width:1.0;" width="10" x="881.5" y="103.8594"/><line style="stroke:#181818;stroke-width:1.0;" x1="881.5" x2="881.5" y1="103.8594" y2="1007.4297"/><line style="stroke:#181818;stroke-width:1.0;" x1="891.5" x2="891.5" y1="103.8594" y2="1007.4297"/><line style="stroke:#181818;stroke-width:1.0;" x1="881.5" x2="891.5" y1="103.8594" y2="103.8594"/><rect fill="#FFFFFF" height="118.2656" style="stroke:#FFFFFF;stroke-width:1.0;" width="10" x="881.5" y="1048.2344"/><line style="stroke:#181818;stroke-width:1.0;" x1="881.5" x2="881.5" y1="1048.2344" y2="1166.5"/><line style="stroke:#181818;stroke-width:1.0;" x1="891.5" x2="891.5" y1="1048.2344" y2="1166.5"/><rect fill="#FFFFFF" height="26.1328" style="stroke:#FFFFFF;stroke-width:1.0;" width="10" x="886.5" y="981.2969"/><line style="stroke:#181818;stroke-width:1.0;" x1="886.5" x2="886.5" y1="981.2969" y2="1007.4297"/><line style="stroke:#181818;stroke-width:1.0;" x1="896.5" x2="896.5" y1="981.2969" y2="1007.4297"/><line style="stroke:#181818;stroke-width:1.0;" x1="886.5" x2="896.5" y1="981.2969" y2="981.2969"/><rect fill="#FFFFFF" height="118.2656" style="stroke:#FFFFFF;stroke-width:1.0;" width="10" x="886.5" y="1048.2344"/><line style="stroke:#181818;stroke-width:1.0;" x1="886.5" x2="886.5" y1="1048.2344" y2="1166.5"/><line style="stroke:#181818;stroke-width:1.0;" x1="896.5" x2="896.5" y1="1048.2344" y2="1166.5"/><rect fill="none" height="540.2578" style="stroke:#000000;stroke-width:1.5;" width="953" x="10" y="618.2422"/><rect fill="none" height="405.8594" style="stroke:#000000;stroke-width:1.5;" width="740" x="213" y="642.375"/><line style="stroke:#181818;stroke-width:0.5;stroke-dasharray:5.0,5.0;" x1="43" x2="43" y1="72.7266" y2="1007.4297"/><line style="stroke:#383838;stroke-width:1.0;stroke-dasharray:1.0,4.0;" x1="43" x2="43" y1="1007.4297" y2="1048.2344"/><line style="stroke:#181818;stroke-width:0.5;stroke-dasharray:5.0,5.0;" x1="43" x2="43" y1="1048.2344" y2="1175.5"/><line style="stroke:#181818;stroke-width:0.5;stroke-dasharray:5.0,5.0;" x1="279" x2="279" y1="520.3125" y2="1007.4297"/><line style="stroke:#383838;stroke-width:1.0;stroke-dasharray:1.0,4.0;" x1="279" x2="279" y1="1007.4297" y2="1048.2344"/><line style="stroke:#181818;stroke-width:0.5;stroke-dasharray:5.0,5.0;" x1="279" x2="279" y1="1048.2344" y2="1175.5"/><line style="stroke:#181818;stroke-width:0.5;stroke-dasharray:5.0,5.0;" x1="462" x2="462" y1="412.4531" y2="1007.4297"/><line style="stroke:#383838;stroke-width:1.0;stroke-dasharray:1.0,4.0;" x1="462" x2="462" y1="1007.4297" y2="1048.2344"/><line style="stroke:#181818;stroke-width:0.5;stroke-dasharray:5.0,5.0;" x1="462" x2="462" y1="1048.2344" y2="1175.5"/><line style="stroke:#181818;stroke-width:0.5;stroke-dasharray:5.0,5.0;" x1="731" x2="731" y1="727.4375" y2="1007.4297"/><line style="stroke:#383838;stroke-width:1.0;stroke-dasharray:1.0,4.0;" x1="731" x2="731" y1="1007.4297" y2="1048.2344"/><line style="stroke:#181818;stroke-width:0.5;stroke-dasharray:5.0,5.0;" x1="731" x2="731" y1="1048.2344" y2="1175.5"/><line style="stroke:#181818;stroke-width:0.5;stroke-dasharray:5.0,5.0;" x1="886" x2="886" y1="72.7266" y2="1007.4297"/><line style="stroke:#383838;stroke-width:1.0;stroke-dasharray:1.0,4.0;" x1="886" x2="886" y1="1007.4297" y2="1048.2344"/><line style="stroke:#181818;stroke-width:0.5;stroke-dasharray:5.0,5.0;" x1="886" x2="886" y1="1048.2344" y2="1175.5"/><rect fill="#E3E3E3" height="30.2969" rx="2.5" ry="2.5" style="stroke:#181818;stroke-width:0.5;" width="46" x="20" y="41.4297"/><text fill="#000000" font-family="sans-serif" font-size="14" lengthAdjust="spacing" textLength="32" x="27" y="61.4248">Main</text><rect fill="#E3E3E3" height="30.2969" rx="2.5" ry="2.5" style="stroke:#181818;stroke-width:0.5;" width="113" x="830" y="41.4297"/><text fill="#000000" font-family="sans-serif" font-size="14" lengthAdjust="spacing" textLength="99" x="837" y="61.4248">Ankaios Agent</text><rect fill="#FFFFFF" height="889.5703" style="stroke:#FFFFFF;stroke-width:1.0;" width="10" x="38" y="117.8594"/><line style="stroke:#181818;stroke-width:1.0;" x1="38" x2="38" y1="117.8594" y2="1007.4297"/><line style="stroke:#181818;stroke-width:1.0;" x1="48" x2="48" y1="117.8594" y2="1007.4297"/><line style="stroke:#181818;stroke-width:1.0;" x1="38" x2="48" y1="117.8594" y2="117.8594"/><rect fill="#FFFFFF" height="95.2656" style="stroke:#FFFFFF;stroke-width:1.0;" width="10" x="38" y="1048.2344"/><line style="stroke:#181818;stroke-width:1.0;" x1="38" x2="38" y1="1048.2344" y2="1143.5"/><line style="stroke:#181818;stroke-width:1.0;" x1="48" x2="48" y1="1048.2344" y2="1143.5"/><line style="stroke:#181818;stroke-width:1.0;" x1="38" x2="48" y1="1143.5" y2="1143.5"/><rect fill="#FFFFFF" height="28" style="stroke:#181818;stroke-width:1.0;" width="10" x="43" y="166.625"/><rect fill="#FFFFFF" height="28" style="stroke:#181818;stroke-width:1.0;" width="10" x="43" y="254.457"/><rect fill="#FFFFFF" height="28" style="stroke:#181818;stroke-width:1.0;" width="10" x="43" y="330.6563"/><rect fill="#FFFFFF" height="28" style="stroke:#181818;stroke-width:1.0;" width="10" x="43" y="1115.5"/><rect fill="#FFFFFF" height="494.7813" style="stroke:#FFFFFF;stroke-width:1.0;" width="10" x="274" y="512.6484"/><line style="stroke:#181818;stroke-width:1.0;" x1="274" x2="274" y1="512.6484" y2="1007.4297"/><line style="stroke:#181818;stroke-width:1.0;" x1="284" x2="284" y1="512.6484" y2="1007.4297"/><line style="stroke:#181818;stroke-width:1.0;" x1="274" x2="284" y1="512.6484" y2="512.6484"/><rect fill="#FFFFFF" height="30.1328" style="stroke:#FFFFFF;stroke-width:1.0;" width="10" x="274" y="1048.2344"/><line style="stroke:#181818;stroke-width:1.0;" x1="274" x2="274" y1="1048.2344" y2="1078.3672"/><line style="stroke:#181818;stroke-width:1.0;" x1="284" x2="284" y1="1048.2344" y2="1078.3672"/><line style="stroke:#181818;stroke-width:1.0;" x1="274" x2="284" y1="1078.3672" y2="1078.3672"/><rect fill="#FFFFFF" height="28" style="stroke:#181818;stroke-width:1.0;" width="10" x="279" y="568.2422"/><rect fill="#FFFFFF" height="166.6641" style="stroke:#181818;stroke-width:1.0;" width="10" x="279" y="767.3672"/><rect fill="#FFFFFF" height="28" style="stroke:#181818;stroke-width:1.0;" width="10" x="284" y="869.8984"/><rect fill="#FFFFFF" height="602.6406" style="stroke:#FFFFFF;stroke-width:1.0;" width="10" x="457" y="404.7891"/><line style="stroke:#181818;stroke-width:1.0;" x1="457" x2="457" y1="404.7891" y2="1007.4297"/><line style="stroke:#181818;stroke-width:1.0;" x1="467" x2="467" y1="404.7891" y2="1007.4297"/><line style="stroke:#181818;stroke-width:1.0;" x1="457" x2="467" y1="404.7891" y2="404.7891"/><rect fill="#FFFFFF" height="95.2656" style="stroke:#FFFFFF;stroke-width:1.0;" width="10" x="457" y="1048.2344"/><line style="stroke:#181818;stroke-width:1.0;" x1="457" x2="457" y1="1048.2344" y2="1143.5"/><line style="stroke:#181818;stroke-width:1.0;" x1="467" x2="467" y1="1048.2344" y2="1143.5"/><line style="stroke:#181818;stroke-width:1.0;" x1="457" x2="467" y1="1143.5" y2="1143.5"/><rect fill="#FFFFFF" height="29.1328" style="stroke:#181818;stroke-width:1.0;" width="10" x="462" y="680.6406"/><rect fill="#FFFFFF" height="47.2656" style="stroke:#181818;stroke-width:1.0;" width="10" x="462" y="934.0313"/><rect fill="#FFFFFF" height="287.6563" style="stroke:#FFFFFF;stroke-width:1.0;" width="10" x="726.5" y="719.7734"/><line style="stroke:#181818;stroke-width:1.0;" x1="726.5" x2="726.5" y1="719.7734" y2="1007.4297"/><line style="stroke:#181818;stroke-width:1.0;" x1="736.5" x2="736.5" y1="719.7734" y2="1007.4297"/><line style="stroke:#181818;stroke-width:1.0;" x1="726.5" x2="736.5" y1="719.7734" y2="719.7734"/><rect fill="#FFFFFF" height="30.1328" style="stroke:#FFFFFF;stroke-width:1.0;" width="10" x="726.5" y="1048.2344"/><line style="stroke:#181818;stroke-width:1.0;" x1="726.5" x2="726.5" y1="1048.2344" y2="1078.3672"/><line style="stroke:#181818;stroke-width:1.0;" x1="736.5" x2="736.5" y1="1048.2344" y2="1078.3672"/><line style="stroke:#181818;stroke-width:1.0;" x1="726.5" x2="736.5" y1="1078.3672" y2="1078.3672"/><rect fill="#FFFFFF" height="903.5703" style="stroke:#FFFFFF;stroke-width:1.0;" width="10" x="881.5" y="103.8594"/><line style="stroke:#181818;stroke-width:1.0;" x1="881.5" x2="881.5" y1="103.8594" y2="1007.4297"/><line style="stroke:#181818;stroke-width:1.0;" x1="891.5" x2="891.5" y1="103.8594" y2="1007.4297"/><line style="stroke:#181818;stroke-width:1.0;" x1="881.5" x2="891.5" y1="103.8594" y2="103.8594"/><rect fill="#FFFFFF" height="118.2656" style="stroke:#FFFFFF;stroke-width:1.0;" width="10" x="881.5" y="1048.2344"/><line style="stroke:#181818;stroke-width:1.0;" x1="881.5" x2="881.5" y1="1048.2344" y2="1166.5"/><line style="stroke:#181818;stroke-width:1.0;" x1="891.5" x2="891.5" y1="1048.2344" y2="1166.5"/><rect fill="#FFFFFF" height="26.1328" style="stroke:#FFFFFF;stroke-width:1.0;" width="10" x="886.5" y="981.2969"/><line style="stroke:#181818;stroke-width:1.0;" x1="886.5" x2="886.5" y1="981.2969" y2="1007.4297"/><line style="stroke:#181818;stroke-width:1.0;" x1="896.5" x2="896.5" y1="981.2969" y2="1007.4297"/><line style="stroke:#181818;stroke-width:1.0;" x1="886.5" x2="896.5" y1="981.2969" y2="981.2969"/><rect fill="#FFFFFF" height="118.2656" style="stroke:#FFFFFF;stroke-width:1.0;" width="10" x="886.5" y="1048.2344"/><line style="stroke:#181818;stroke-width:1.0;" x1="886.5" x2="886.5" y1="1048.2344" y2="1166.5"/><line style="stroke:#181818;stroke-width:1.0;" x1="896.5" x2="896.5" y1="1048.2344" y2="1166.5"/><polygon fill="#181818" points="902.5,99.8594,892.5,103.8594,902.5,107.8594" style="stroke:#181818;stroke-width:1.0;"/><line style="stroke:#181818;stroke-width:1.0;" x1="896.5" x2="972" y1="103.8594" y2="103.8594"/><text fill="#000000" font-family="sans-serif" font-size="13" lengthAdjust="spacing" textLength="30" x="908.5" y="98.7935">start</text><polygon fill="#181818" points="26,113.8594,36,117.8594,26,121.8594" style="stroke:#181818;stroke-width:1.0;"/><line style="stroke:#181818;stroke-width:1.0;" x1="0" x2="32" y1="117.8594" y2="117.8594"/><line style="stroke:#181818;stroke-width:1.0;" x1="53" x2="95" y1="158.625" y2="158.625"/><line style="stroke:#181818;stroke-width:1.0;" x1="95" x2="95" y1="158.625" y2="171.625"/><line style="stroke:#181818;stroke-width:1.0;" x1="54" x2="95" y1="171.625" y2="171.625"/><polygon fill="#181818" points="64,167.625,54,171.625,64,175.625" style="stroke:#181818;stroke-width:1.0;"/><text fill="#000000" font-family="sans-serif" font-size="13" lengthAdjust="spacing" textLength="135" x="60" y="153.5591">load server config file</text><path d="M207,130.8594 L207,185.8594 L648,185.8594 L648,140.8594 L638,130.8594 L207,130.8594 " fill="#FFFFFF" style="stroke:#181818;stroke-width:0.5;"/><path d="M638,130.8594 L638,140.8594 L648,140.8594 L638,130.8594 " fill="#FFFFFF" style="stroke:#181818;stroke-width:0.5;"/><text fill="#000000" font-family="sans-serif" font-size="13" lengthAdjust="spacing" textLength="381" x="213" y="147.9263">The precedence of means of configuring the Ankaios Server</text><text fill="#000000" font-family="sans-serif" font-size="13" lengthAdjust="spacing" textLength="298" x="217" y="163.0591">is the following: Ankaios Server CLI arguments,</text><text fill="#000000" font-family="sans-serif" font-size="13" lengthAdjust="spacing" textLength="416" x="217" y="178.1919">environment variables and after that the server configuration file.</text><line style="stroke:#181818;stroke-width:1.0;" x1="53" x2="95" y1="246.457" y2="246.457"/><line style="stroke:#181818;stroke-width:1.0;" x1="95" x2="95" y1="246.457" y2="259.457"/><line style="stroke:#181818;stroke-width:1.0;" x1="54" x2="95" y1="259.457" y2="259.457"/><polygon fill="#181818" points="64,255.457,54,259.457,64,263.457" style="stroke:#181818;stroke-width:1.0;"/><text fill="#000000" font-family="sans-serif" font-size="13" lengthAdjust="spacing" textLength="119" x="60" y="241.3911">load startup config</text><path d="M191,226.2578 L191,266.2578 L399,266.2578 L399,236.2578 L389,226.2578 L191,226.2578 " fill="#FFFFFF" style="stroke:#181818;stroke-width:0.5;"/><path d="M389,226.2578 L389,236.2578 L399,236.2578 L389,226.2578 " fill="#FFFFFF" style="stroke:#181818;stroke-width:0.5;"/><text fill="#000000" font-family="sans-serif" font-size="13" lengthAdjust="spacing" textLength="143" x="197" y="243.3247">Empty state is loaded,</text><text fill="#000000" font-family="sans-serif" font-size="13" lengthAdjust="spacing" textLength="187" x="197" y="258.4575">if the startup config is empty.</text><line style="stroke:#181818;stroke-width:1.0;" x1="53" x2="95" y1="322.6563" y2="322.6563"/><line style="stroke:#181818;stroke-width:1.0;" x1="95" x2="95" y1="322.6563" y2="335.6563"/><line style="stroke:#181818;stroke-width:1.0;" x1="54" x2="95" y1="335.6563" y2="335.6563"/><polygon fill="#181818" points="64,331.6563,54,335.6563,64,339.6563" style="stroke:#181818;stroke-width:1.0;"/><text fill="#000000" font-family="sans-serif" font-size="13" lengthAdjust="spacing" textLength="205" x="60" y="317.5903">create communication channels</text><line style="stroke:#181818;stroke-width:1.0;" x1="353" x2="343" y1="394.7891" y2="390.7891"/><line style="stroke:#181818;stroke-width:1.0;" x1="353" x2="343" y1="394.7891" y2="398.7891"/><line style="stroke:#181818;stroke-width:1.0;" x1="48" x2="354" y1="394.7891" y2="394.7891"/><text fill="#000000" font-family="sans-serif" font-size="13" lengthAdjust="spacing" textLength="30" x="55" y="389.7231">start</text><rect fill="#E3E3E3" height="46.5938" rx="2.5" ry="2.5" style="stroke:#181818;stroke-width:0.5;" width="214" x="355" y="373.6563"/><text fill="#000000" font-family="sans-serif" font-size="14" lengthAdjust="spacing" textLength="63" x="430.5" y="393.6514">&#171;thread&#187;</text><text fill="#000000" font-family="sans-serif" font-size="14" lengthAdjust="spacing" textLength="200" x="362" y="409.9482">GRPCCommunicationsServer</text><path d="M379,436.25 L379,476.25 L545,476.25 L545,446.25 L535,436.25 L379,436.25 " fill="#FFFFFF" style="stroke:#181818;stroke-width:0.5;"/><path d="M535,436.25 L535,446.25 L545,446.25 L535,436.25 " fill="#FFFFFF" style="stroke:#181818;stroke-width:0.5;"/><text fill="#000000" font-family="sans-serif" font-size="13" lengthAdjust="spacing" textLength="108" x="385" y="453.3169">start listening for</text><text fill="#000000" font-family="sans-serif" font-size="13" lengthAdjust="spacing" textLength="145" x="385" y="468.4497">FromServer messages</text><line style="stroke:#181818;stroke-width:1.0;" x1="221" x2="211" y1="502.6484" y2="498.6484"/><line style="stroke:#181818;stroke-width:1.0;" x1="221" x2="211" y1="502.6484" y2="506.6484"/><line style="stroke:#181818;stroke-width:1.0;" x1="48" x2="222" y1="502.6484" y2="502.6484"/><text fill="#000000" font-family="sans-serif" font-size="13" lengthAdjust="spacing" textLength="151" x="55" y="497.5825">start with startup config</text><rect fill="#E3E3E3" height="46.5938" rx="2.5" ry="2.5" style="stroke:#181818;stroke-width:0.5;" width="112" x="223" y="481.5156"/><text fill="#000000" font-family="sans-serif" font-size="14" lengthAdjust="spacing" textLength="63" x="247.5" y="501.5107">&#171;thread&#187;</text><text fill="#000000" font-family="sans-serif" font-size="14" lengthAdjust="spacing" textLength="98" x="230" y="517.8076">AnkaiosServer</text><line style="stroke:#181818;stroke-width:1.0;" x1="289" x2="331" y1="560.2422" y2="560.2422"/><line style="stroke:#181818;stroke-width:1.0;" x1="331" x2="331" y1="560.2422" y2="573.2422"/><line style="stroke:#181818;stroke-width:1.0;" x1="290" x2="331" y1="573.2422" y2="573.2422"/><polygon fill="#181818" points="300,569.2422,290,573.2422,300,577.2422" style="stroke:#181818;stroke-width:1.0;"/><text fill="#000000" font-family="sans-serif" font-size="13" lengthAdjust="spacing" textLength="142" x="296" y="555.1763">validate startup config</text><path d="M10,618.2422 L74,618.2422 L74,625.375 L64,635.375 L10,635.375 L10,618.2422 " fill="#EEEEEE" style="stroke:#000000;stroke-width:1.5;"/><rect fill="none" height="540.2578" style="stroke:#000000;stroke-width:1.5;" width="953" x="10" y="618.2422"/><text fill="#000000" font-family="sans-serif" font-size="13" font-weight="bold" lengthAdjust="spacing" textLength="19" x="25" y="631.3091">alt</text><text fill="#000000" font-family="sans-serif" font-size="11" font-weight="bold" lengthAdjust="spacing" textLength="135" x="89" y="630.4526">[startup config valid]</text><path d="M213,642.375 L290,642.375 L290,649.5078 L280,659.5078 L213,659.5078 L213,642.375 " fill="#EEEEEE" style="stroke:#000000;stroke-width:1.5;"/><rect fill="none" height="405.8594" style="stroke:#000000;stroke-width:1.5;" width="740" x="213" y="642.375"/><text fill="#000000" font-family="sans-serif" font-size="13" font-weight="bold" lengthAdjust="spacing" textLength="32" x="228" y="655.4419">loop</text><text fill="#000000" font-family="sans-serif" font-size="11" font-weight="bold" lengthAdjust="spacing" textLength="72" x="305" y="654.5854">[per agent]</text><line style="stroke:#181818;stroke-width:1.0;" x1="473" x2="483" y1="680.6406" y2="676.6406"/><line style="stroke:#181818;stroke-width:1.0;" x1="473" x2="483" y1="680.6406" y2="684.6406"/><line style="stroke:#181818;stroke-width:1.0;" x1="472" x2="880.5" y1="680.6406" y2="680.6406"/><text fill="#000000" font-family="sans-serif" font-size="13" lengthAdjust="spacing" textLength="122" x="489" y="675.5747">agent hello (name)</text><line style="stroke:#181818;stroke-width:1.0;" x1="661" x2="651" y1="709.7734" y2="705.7734"/><line style="stroke:#181818;stroke-width:1.0;" x1="661" x2="651" y1="709.7734" y2="713.7734"/><line style="stroke:#181818;stroke-width:1.0;" x1="467" x2="662" y1="709.7734" y2="709.7734"/><text fill="#000000" font-family="sans-serif" font-size="13" lengthAdjust="spacing" textLength="167" x="474" y="704.7075">spawn gRPC server thread</text><rect fill="#E3E3E3" height="46.5938" rx="2.5" ry="2.5" style="stroke:#181818;stroke-width:0.5;" width="137" x="663" y="688.6406"/><text fill="#000000" font-family="sans-serif" font-size="14" lengthAdjust="spacing" textLength="63" x="700" y="708.6357">&#171;thread&#187;</text><text fill="#000000" font-family="sans-serif" font-size="14" lengthAdjust="spacing" textLength="123" x="670" y="724.9326">tonic gRPC server</text><line style="stroke:#181818;stroke-width:1.0;" x1="290" x2="300" y1="767.3672" y2="763.3672"/><line style="stroke:#181818;stroke-width:1.0;" x1="290" x2="300" y1="767.3672" y2="771.3672"/><line style="stroke:#181818;stroke-width:1.0;" x1="289" x2="725.5" y1="767.3672" y2="767.3672"/><text fill="#000000" font-family="sans-serif" font-size="13" lengthAdjust="spacing" textLength="122" x="306" y="762.3013">agent hello (name)</text><path d="M657,780.3672 L657,820.3672 L805,820.3672 L805,790.3672 L795,780.3672 L657,780.3672 " fill="#FFFFFF" style="stroke:#181818;stroke-width:0.5;"/><path d="M795,780.3672 L795,790.3672 L805,790.3672 L795,780.3672 " fill="#FFFFFF" style="stroke:#181818;stroke-width:0.5;"/><text fill="#000000" font-family="sans-serif" font-size="13" lengthAdjust="spacing" textLength="108" x="663" y="797.4341">start listening for</text><text fill="#000000" font-family="sans-serif" font-size="13" lengthAdjust="spacing" textLength="127" x="663" y="812.5669">ToServer messages</text><line style="stroke:#181818;stroke-width:1.0;" x1="294" x2="336" y1="861.8984" y2="861.8984"/><line style="stroke:#181818;stroke-width:1.0;" x1="336" x2="336" y1="861.8984" y2="874.8984"/><line style="stroke:#181818;stroke-width:1.0;" x1="295" x2="336" y1="874.8984" y2="874.8984"/><polygon fill="#181818" points="305,870.8984,295,874.8984,305,878.8984" style="stroke:#181818;stroke-width:1.0;"/><text fill="#000000" font-family="sans-serif" font-size="13" lengthAdjust="spacing" textLength="150" x="301" y="841.6997">calculate commands to</text><text fill="#000000" font-family="sans-serif" font-size="13" lengthAdjust="spacing" textLength="113" x="305" y="856.8325">the specific agent</text><line style="stroke:#181818;stroke-width:1.0;" x1="460" x2="450" y1="934.0313" y2="930.0313"/><line style="stroke:#181818;stroke-width:1.0;" x1="460" x2="450" y1="934.0313" y2="938.0313"/><line style="stroke:#181818;stroke-width:1.0;" x1="284" x2="461" y1="934.0313" y2="934.0313"/><text fill="#000000" font-family="sans-serif" font-size="13" lengthAdjust="spacing" textLength="107" x="291" y="928.9653">send commands</text><line style="stroke:#181818;stroke-width:1.0;" x1="884.5" x2="874.5" y1="981.2969" y2="977.2969"/><line style="stroke:#181818;stroke-width:1.0;" x1="884.5" x2="874.5" y1="981.2969" y2="985.2969"/><line style="stroke:#181818;stroke-width:1.0;" x1="467" x2="885.5" y1="981.2969" y2="981.2969"/><text fill="#000000" font-family="sans-serif" font-size="13" lengthAdjust="spacing" textLength="123" x="474" y="976.231">forward commands</text><path d="M265,947.0313 L265,1002.0313 L452,1002.0313 L452,957.0313 L442,947.0313 L265,947.0313 " fill="#FFFFFF" style="stroke:#181818;stroke-width:0.5;"/><path d="M442,947.0313 L442,957.0313 L452,957.0313 L442,947.0313 " fill="#FFFFFF" style="stroke:#181818;stroke-width:0.5;"/><text fill="#000000" font-family="sans-serif" font-size="13" lengthAdjust="spacing" textLength="146" x="271" y="964.0981">the commands include</text><text fill="#000000" font-family="sans-serif" font-size="13" lengthAdjust="spacing" textLength="120" x="271" y="979.231">new workloads and</text><text fill="#000000" font-family="sans-serif" font-size="13" lengthAdjust="spacing" textLength="166" x="271" y="994.3638">workload execution states</text><text fill="#000000" font-family="sans-serif" font-size="11" lengthAdjust="spacing" textLength="273" x="328.25" y="1031.6401">Agent starts workloads according to commands</text><line style="stroke:#000000;stroke-width:1.0;stroke-dasharray:2.0,2.0;" x1="10" x2="963" y1="1056.2344" y2="1056.2344"/><line style="stroke:#181818;stroke-width:1.0;" x1="49" x2="59" y1="1078.3672" y2="1074.3672"/><line style="stroke:#181818;stroke-width:1.0;" x1="49" x2="59" y1="1078.3672" y2="1082.3672"/><line style="stroke:#181818;stroke-width:1.0;stroke-dasharray:2.0,2.0;" x1="48" x2="278" y1="1078.3672" y2="1078.3672"/><text fill="#000000" font-family="sans-serif" font-size="13" lengthAdjust="spacing" textLength="123" x="65" y="1073.3013">startup config error</text><line style="stroke:#181818;stroke-width:1.0;" x1="53" x2="95" y1="1107.5" y2="1107.5"/><line style="stroke:#181818;stroke-width:1.0;" x1="95" x2="95" y1="1107.5" y2="1120.5"/><line style="stroke:#181818;stroke-width:1.0;" x1="54" x2="95" y1="1120.5" y2="1120.5"/><polygon fill="#181818" points="64,1116.5,54,1120.5,64,1124.5" style="stroke:#181818;stroke-width:1.0;"/><text fill="#000000" font-family="sans-serif" font-size="13" lengthAdjust="spacing" textLength="118" x="60" y="1102.4341">Graceful shutdown</text><line style="stroke:#383838;stroke-width:2.0;" x1="453" x2="471" y1="1141.5" y2="1159.5"/><line style="stroke:#383838;stroke-width:2.0;" x1="453" x2="471" y1="1159.5" y2="1141.5"/><line style="stroke:#383838;stroke-width:2.0;" x1="270" x2="288" y1="1141.5" y2="1159.5"/><line style="stroke:#383838;stroke-width:2.0;" x1="270" x2="288" y1="1159.5" y2="1141.5"/><line style="stroke:#383838;stroke-width:2.0;" x1="34" x2="52" y1="1141.5" y2="1159.5"/><line style="stroke:#383838;stroke-width:2.0;" x1="34" x2="52" y1="1159.5" y2="1141.5"/><!--SRC=[VLNRQjmm47tNLqptgKrgx_iI5a9eGw65qkOnK1HvR8l8af7aTVBtdP4lQxkxDGjhZUOSpUMC_45RPRe28S_tyyzZS9rN6FQ5K_lMI1kxnkoLGMdpyAgj42_k3NRtzbLg5-0t-XFwdMYbZrhfblpXXzGMP826_bSRkxkxM7kKnV7uR4U6aO3zGteLro6Fltu-FBYcwQnMCcfdb-ZAj-hFI76L8Jg2GaKyusa9cgmJ5cq1bE8cp_iARTm9e6T5ljvdCiblPvQqXBiCRcyF429XXSYEgJPa4kd_lCwo0nWdYp4wKCwMke9I6nJMHGIlgpeUuAb6Q3qgBD0g15T2GmqA_390Egzj1P7Srfrwjg13ifVE6DUJrs7Z0W_Vlu7qLTTGvE4p8T2Uj7UMrt2INiiNWvGefIZBI81OovWuLr5tFlKe1PzVJvHBqhKZPfNabwQDx-n09WgQtR6WU7Gv7BP2iWSouE9HYWH0B6ef7b2rj1PDc037fORWvcRgbrHHdnY-b5WArB7ZqihwI20mEaIqt8JI3VQltZLZXHiCWOGHaaoOwHp2zdJeTQotLPeZ6eyTGTa47v8-IQEBvBL1cxWjNd8LmZZNGajCWuWvwa6_s-Amc8UT6ab6yD7A1Z-9X5ZwCMuvNKDUhUpjSWXX6D24Bl1YkLCeqyPgNdbdTSIvYbUYPCIvVV-G_Q-7_3ovRHVPEdToqC2c8PCCfL6TcPH80yHt3z249Jstg7H9rzDG_3NFklnPbcuJFdCYkbZwiNd9crBefTy0KXaCbd7EZYEPWnk_4FEcnHvwvrzv5DC5CEzCLi0tL5qQhpIuc-Bm8i_puReSgXoMZ4evNwIRovsZ800FYX0qgpXhdVFZgU6wRjICtbE_5aeQkxkmhBg-kZ66JZrwgR3i38IwYuNhBO53zEvzfSh9jbcc3n-7_1S0]--></g></svg>