<?xml version="1.0" encoding="us-ascii" standalone="no"?><svg xmlns="http://www.w3.org/2000/svg" xmlns:xlink="http://www.w3.org/1999/xlink" contentStyleType="text/css" height="610px" preserveAspectRatio="none" style="width:1185px;height:610px;background:#FFFFFF;" version="1.1" viewBox="0 0 1185 610" width="1185px" zoomAndPan="magnify"><defs/><g><rect fill="#EEEEEE" height="591.5234" style="stroke:#D3D3D3;stroke-width:0.5;" width="575" x="208" y="6"/><text fill="#777777" font-family="sans-serif" font-size="13" font-weight="bold" lengthAdjust="spacing" textLength="110" x="440.5" y="18.0669">Ankaios Server</text><rect fill="#EEEEEE" height="591.5234" style="stroke:#D3D3D3;stroke-width:0.5;" width="146" x="805" y="6"/><text fill="#777777" font-family="sans-serif" font-size="13" font-weight="bold" lengthAdjust="spacing" textLength="115" x="820.5" y="18.0669">Ankaios Agents</text><rect fill="#FFFFFF" height="242.0625" style="stroke:#181818;stroke-width:1.0;" width="10" x="263" y="203.7969"/><rect fill="#FFFFFF" height="89.1328" style="stroke:#181818;stroke-width:1.0;" width="10" x="520" y="415.8594"/><rect fill="#FFFFFF" height="89.1328" style="stroke:#181818;stroke-width:1.0;" width="10" x="705.5" y="144.6641"/><rect fill="#FFFFFF" height="119.5313" style="stroke:#181818;stroke-width:1.0;" width="10" x="910" y="474.9922"/><line style="stroke:#181818;stroke-width:0.5;stroke-dasharray:5.0,5.0;" x1="268" x2="268" y1="72.7266" y2="82.7266"/><line style="stroke:#383838;stroke-width:1.0;stroke-dasharray:1.0,4.0;" x1="268" x2="268" y1="82.7266" y2="123.5313"/><line style="stroke:#181818;stroke-width:0.5;stroke-dasharray:5.0,5.0;" x1="268" x2="268" y1="123.5313" y2="603.5234"/><line style="stroke:#181818;stroke-width:0.5;stroke-dasharray:5.0,5.0;" x1="525" x2="525" y1="72.7266" y2="82.7266"/><line style="stroke:#383838;stroke-width:1.0;stroke-dasharray:1.0,4.0;" x1="525" x2="525" y1="82.7266" y2="123.5313"/><line style="stroke:#181818;stroke-width:0.5;stroke-dasharray:5.0,5.0;" x1="525" x2="525" y1="123.5313" y2="603.5234"/><line style="stroke:#181818;stroke-width:0.5;stroke-dasharray:5.0,5.0;" x1="710" x2="710" y1="72.7266" y2="82.7266"/><line style="stroke:#383838;stroke-width:1.0;stroke-dasharray:1.0,4.0;" x1="710" x2="710" y1="82.7266" y2="123.5313"/><line style="stroke:#181818;stroke-width:0.5;stroke-dasharray:5.0,5.0;" x1="710" x2="710" y1="123.5313" y2="603.5234"/><line style="stroke:#181818;stroke-width:0.5;stroke-dasharray:5.0,5.0;" x1="841" x2="841" y1="72.7266" y2="82.7266"/><line style="stroke:#383838;stroke-width:1.0;stroke-dasharray:1.0,4.0;" x1="841" x2="841" y1="82.7266" y2="123.5313"/><line style="stroke:#181818;stroke-width:0.5;stroke-dasharray:5.0,5.0;" x1="841" x2="841" y1="123.5313" y2="603.5234"/><line style="stroke:#181818;stroke-width:0.5;stroke-dasharray:5.0,5.0;" x1="915" x2="915" y1="72.7266" y2="82.7266"/><line style="stroke:#383838;stroke-width:1.0;stroke-dasharray:1.0,4.0;" x1="915" x2="915" y1="82.7266" y2="123.5313"/><line style="stroke:#181818;stroke-width:0.5;stroke-dasharray:5.0,5.0;" x1="915" x2="915" y1="123.5313" y2="603.5234"/><rect fill="#E3E3E3" height="46.5938" rx="2.5" ry="2.5" style="stroke:#181818;stroke-width:0.5;" width="112" x="212" y="25.1328"/><text fill="#000000" font-family="sans-serif" font-size="14" lengthAdjust="spacing" textLength="63" x="236.5" y="45.1279">&#171;thread&#187;</text><text fill="#000000" font-family="sans-serif" font-size="14" lengthAdjust="spacing" textLength="98" x="219" y="61.4248">AnkaiosServer</text><rect fill="#E3E3E3" height="46.5938" rx="2.5" ry="2.5" style="stroke:#181818;stroke-width:0.5;" width="214" x="418" y="25.1328"/><text fill="#000000" font-family="sans-serif" font-size="14" lengthAdjust="spacing" textLength="63" x="493.5" y="45.1279">&#171;thread&#187;</text><text fill="#000000" font-family="sans-serif" font-size="14" lengthAdjust="spacing" textLength="200" x="425" y="61.4248">GRPCCommunicationsServer</text><rect fill="#E3E3E3" height="46.5938" rx="2.5" ry="2.5" style="stroke:#181818;stroke-width:0.5;" width="137" x="642" y="25.1328"/><text fill="#000000" font-family="sans-serif" font-size="14" lengthAdjust="spacing" textLength="63" x="679" y="45.1279">&#171;thread&#187;</text><text fill="#000000" font-family="sans-serif" font-size="14" lengthAdjust="spacing" textLength="123" x="649" y="61.4248">tonic gRPC server</text><rect fill="#E3E3E3" height="30.2969" rx="2.5" ry="2.5" style="stroke:#181818;stroke-width:0.5;" width="64" x="809" y="41.4297"/><text fill="#000000" font-family="sans-serif" font-size="14" lengthAdjust="spacing" textLength="50" x="816" y="61.4248">Agent1</text><rect fill="#E3E3E3" height="30.2969" rx="2.5" ry="2.5" style="stroke:#181818;stroke-width:0.5;" width="64" x="883" y="41.4297"/><text fill="#000000" font-family="sans-serif" font-size="14" lengthAdjust="spacing" textLength="50" x="890" y="61.4248">Agent2</text><rect fill="#FFFFFF" height="242.0625" style="stroke:#181818;stroke-width:1.0;" width="10" x="263" y="203.7969"/><rect fill="#FFFFFF" height="89.1328" style="stroke:#181818;stroke-width:1.0;" width="10" x="520" y="415.8594"/><rect fill="#FFFFFF" height="89.1328" style="stroke:#181818;stroke-width:1.0;" width="10" x="705.5" y="144.6641"/><rect fill="#FFFFFF" height="119.5313" style="stroke:#181818;stroke-width:1.0;" width="10" x="910" y="474.9922"/><text fill="#000000" font-family="sans-serif" font-size="11" lengthAdjust="spacing" textLength="256" x="463.5" y="106.937">Two agents are connected to Ankiaos Server</text><line style="stroke:#181818;stroke-width:1.0;" x1="716.5" x2="726.5" y1="144.6641" y2="140.6641"/><line style="stroke:#181818;stroke-width:1.0;" x1="716.5" x2="726.5" y1="144.6641" y2="148.6641"/><line style="stroke:#181818;stroke-width:1.0;" x1="715.5" x2="840" y1="144.6641" y2="144.6641"/><text fill="#000000" font-family="sans-serif" font-size="13" lengthAdjust="spacing" textLength="72" x="732.5" y="139.5981">AgentGone</text><line style="stroke:#181818;stroke-width:1.0;" x1="274" x2="284" y1="203.7969" y2="199.7969"/><line style="stroke:#181818;stroke-width:1.0;" x1="274" x2="284" y1="203.7969" y2="207.7969"/><line style="stroke:#181818;stroke-width:1.0;" x1="273" x2="704.5" y1="203.7969" y2="203.7969"/><text fill="#000000" font-family="sans-serif" font-size="13" lengthAdjust="spacing" textLength="72" x="290" y="198.731">AgentGone</text><line style="stroke:#181818;stroke-width:1.0;" x1="273" x2="315" y1="293.1953" y2="293.1953"/><line style="stroke:#181818;stroke-width:1.0;" x1="315" x2="315" y1="293.1953" y2="306.1953"/><line style="stroke:#181818;stroke-width:1.0;" x1="274" x2="315" y1="306.1953" y2="306.1953"/><polygon fill="#181818" points="284,302.1953,274,306.1953,284,310.1953" style="stroke:#181818;stroke-width:1.0;"/><text fill="#000000" font-family="sans-serif" font-size="13" lengthAdjust="spacing" textLength="233" x="280" y="257.8638">set workload states to ExecUnknown</text><text fill="#000000" font-family="sans-serif" font-size="13" lengthAdjust="spacing" textLength="127" x="284" y="272.9966">in WorkloadStateDB</text><text fill="#000000" font-family="sans-serif" font-size="13" lengthAdjust="spacing" textLength="56" x="280" y="288.1294">(Agent1)</text><path d="M5,319.1953 L5,389.1953 L258,389.1953 L258,329.1953 L248,319.1953 L5,319.1953 " fill="#FFFFFF" style="stroke:#181818;stroke-width:0.5;"/><path d="M248,319.1953 L248,329.1953 L258,329.1953 L248,319.1953 " fill="#FFFFFF" style="stroke:#181818;stroke-width:0.5;"/><text fill="#000000" font-family="monospace" font-size="13" lengthAdjust="spacing" textLength="120" x="11" y="336.2622">workloadStates:</text><text fill="#000000" font-family="monospace" font-size="13" lengthAdjust="spacing" textLength="176" x="11" y="351.395">-&#160;workload:&#160;Workload&#160;1</text><text fill="#000000" font-family="monospace" font-size="13" lengthAdjust="spacing" textLength="96" x="27" y="366.5278">node:&#160;Node&#160;1</text><text fill="#000000" font-family="monospace" font-size="13" lengthAdjust="spacing" textLength="216" x="27" y="381.6606">executionState:&#160;ExecUnknown</text><line style="stroke:#181818;stroke-width:1.0;" x1="518" x2="508" y1="415.8594" y2="411.8594"/><line style="stroke:#181818;stroke-width:1.0;" x1="518" x2="508" y1="415.8594" y2="419.8594"/><line style="stroke:#181818;stroke-width:1.0;" x1="273" x2="519" y1="415.8594" y2="415.8594"/><text fill="#000000" font-family="sans-serif" font-size="13" lengthAdjust="spacing" textLength="140" x="280" y="410.7935">UpdateWorkloadState</text><line style="stroke:#181818;stroke-width:1.0;" x1="908" x2="898" y1="474.9922" y2="470.9922"/><line style="stroke:#181818;stroke-width:1.0;" x1="908" x2="898" y1="474.9922" y2="478.9922"/><line style="stroke:#181818;stroke-width:1.0;" x1="530" x2="909" y1="474.9922" y2="474.9922"/><text fill="#000000" font-family="sans-serif" font-size="13" lengthAdjust="spacing" textLength="140" x="537" y="469.9263">UpdateWorkloadState</text><path d="M925,517.9922 L925,587.9922 L1178,587.9922 L1178,527.9922 L1168,517.9922 L925,517.9922 " fill="#FFFFFF" style="stroke:#181818;stroke-width:0.5;"/><path d="M1168,517.9922 L1168,527.9922 L1178,527.9922 L1168,517.9922 " fill="#FFFFFF" style="stroke:#181818;stroke-width:0.5;"/><text fill="#000000" font-family="monospace" font-size="13" lengthAdjust="spacing" textLength="120" x="931" y="535.0591">workloadStates:</text><text fill="#000000" font-family="monospace" font-size="13" lengthAdjust="spacing" textLength="176" x="931" y="550.1919">-&#160;workload:&#160;Workload&#160;1</text><text fill="#000000" font-family="monospace" font-size="13" lengthAdjust="spacing" textLength="96" x="947" y="565.3247">node:&#160;Node&#160;1</text><text fill="#000000" font-family="monospace" font-size="13" lengthAdjust="spacing" textLength="216" x="947" y="580.4575">executionState:&#160;ExecUnknown</text><!--SRC=[pL9DJyCm3BtdLvYUG5ChRSTggZG6sWqXniHb4Wg9wQ9sJfLcT3-VDFrOEpQuqaDbsUyzsy-vKIJoWqGGENAAoamHOn_w2C62Cgvq2MiqNsW2Ld1ZbL059ml1V6vt1hbCaYsrm1O7l8JIXzSPgvVdvLBlzmTIWbkbQKXEJI7U_rAmsb4XTJfjCq_rsOwB9C4jShRD8aMovTasFZdr4jo75ygpKtbsqewYwBNIJTfLZVDH4w6mADqquBegtdlemApHXp19HjF2P1A6SJFTIXEoKR56Ny7rY0uGky12fKsMQowXjDnYxGmy7b5iA2DTqPP04Rorc7KDURZVqctZmnqZRH5o_BJT9Q7zWg0Qaieu20Qri6yRz-8m7K40I4kCuSdzVvJGJNYeduCNZuSJEsJjUJqOOmDN1e-bjMPJI4SUxSQ6g9hLNF4NWZV0g7Hdkul_BmVODm00]--></g></svg>