<?xml version="1.0" encoding="us-ascii" standalone="no"?><svg xmlns="http://www.w3.org/2000/svg" xmlns:xlink="http://www.w3.org/1999/xlink" contentStyleType="text/css" height="1108px" preserveAspectRatio="none" style="width:1304px;height:1108px;background:#FFFFFF;" version="1.1" viewBox="0 0 1304 1108" width="1304px" zoomAndPan="magnify"><defs/><g><rect fill="#EEEEEE" height="1089.0469" style="stroke:#D3D3D3;stroke-width:0.5;" width="776" x="16" y="6"/><text fill="#777777" font-family="sans-serif" font-size="13" font-weight="bold" lengthAdjust="spacing" textLength="110" x="349" y="18.0669">Ankaios Server</text><rect fill="#EEEEEE" height="1089.0469" style="stroke:#D3D3D3;stroke-width:0.5;" width="276" x="844.5" y="6"/><text fill="#777777" font-family="sans-serif" font-size="13" font-weight="bold" lengthAdjust="spacing" textLength="115" x="925" y="18.0669">Ankaios Agents</text><rect fill="#FFFFFF" height="576.9922" style="stroke:#181818;stroke-width:1.0;" width="10" x="71" y="160.9922"/><rect fill="#FFFFFF" height="28" style="stroke:#181818;stroke-width:1.0;" width="10" x="76" y="659.8516"/><rect fill="#FFFFFF" height="58.1328" style="stroke:#181818;stroke-width:1.0;" width="10" x="71" y="1033.9141"/><rect fill="#FFFFFF" height="14" style="stroke:#181818;stroke-width:1.0;" width="10" x="76" y="1078.0469"/><rect fill="#FFFFFF" height="417.4609" style="stroke:#181818;stroke-width:1.0;" width="10" x="314" y="190.125"/><rect fill="#FFFFFF" height="28" style="stroke:#181818;stroke-width:1.0;" width="10" x="319" y="257.5234"/><rect fill="#FFFFFF" height="28" style="stroke:#181818;stroke-width:1.0;" width="10" x="319" y="344.7891"/><rect fill="#FFFFFF" height="28" style="stroke:#181818;stroke-width:1.0;" width="10" x="319" y="416.9219"/><rect fill="#FFFFFF" height="28" style="stroke:#181818;stroke-width:1.0;" width="10" x="319" y="519.3203"/><rect fill="#FFFFFF" height="286.7969" style="stroke:#181818;stroke-width:1.0;" width="10" x="529" y="723.9844"/><rect fill="#FFFFFF" height="29.1328" style="stroke:#181818;stroke-width:1.0;" width="10" x="714.5" y="131.8594"/><rect fill="#FFFFFF" height="21.1328" style="stroke:#181818;stroke-width:1.0;" width="10" x="877.5" y="110.7266"/><rect fill="#FFFFFF" height="65.1328" style="stroke:#181818;stroke-width:1.0;" width="10" x="877.5" y="791.25"/><rect fill="#FFFFFF" height="28" style="stroke:#181818;stroke-width:1.0;" width="10" x="882.5" y="828.3828"/><rect fill="#FFFFFF" height="65.1328" style="stroke:#181818;stroke-width:1.0;" width="10" x="1077.5" y="923.6484"/><rect fill="#FFFFFF" height="28" style="stroke:#181818;stroke-width:1.0;" width="10" x="1082.5" y="960.7813"/><rect fill="none" height="472.5938" style="stroke:#000000;stroke-width:1.5;" width="1287.5" x="10" y="569.3203"/><rect fill="none" height="118.3984" style="stroke:#000000;stroke-width:1.5;" width="670.5" x="417" y="752.9844"/><rect fill="none" height="118.3984" style="stroke:#000000;stroke-width:1.5;" width="870.5" x="417" y="885.3828"/><line style="stroke:#181818;stroke-width:0.5;stroke-dasharray:5.0,5.0;" x1="76" x2="76" y1="72.7266" y2="82.7266"/><line style="stroke:#383838;stroke-width:1.0;stroke-dasharray:1.0,4.0;" x1="76" x2="76" y1="82.7266" y2="110.7266"/><line style="stroke:#181818;stroke-width:0.5;stroke-dasharray:5.0,5.0;" x1="76" x2="76" y1="110.7266" y2="1101.0469"/><line style="stroke:#181818;stroke-width:0.5;stroke-dasharray:5.0,5.0;" x1="319" x2="319" y1="72.7266" y2="82.7266"/><line style="stroke:#383838;stroke-width:1.0;stroke-dasharray:1.0,4.0;" x1="319" x2="319" y1="82.7266" y2="110.7266"/><line style="stroke:#181818;stroke-width:0.5;stroke-dasharray:5.0,5.0;" x1="319" x2="319" y1="110.7266" y2="1101.0469"/><line style="stroke:#181818;stroke-width:0.5;stroke-dasharray:5.0,5.0;" x1="534" x2="534" y1="72.7266" y2="82.7266"/><line style="stroke:#383838;stroke-width:1.0;stroke-dasharray:1.0,4.0;" x1="534" x2="534" y1="82.7266" y2="110.7266"/><line style="stroke:#181818;stroke-width:0.5;stroke-dasharray:5.0,5.0;" x1="534" x2="534" y1="110.7266" y2="1101.0469"/><line style="stroke:#181818;stroke-width:0.5;stroke-dasharray:5.0,5.0;" x1="719" x2="719" y1="72.7266" y2="82.7266"/><line style="stroke:#383838;stroke-width:1.0;stroke-dasharray:1.0,4.0;" x1="719" x2="719" y1="82.7266" y2="110.7266"/><line style="stroke:#181818;stroke-width:0.5;stroke-dasharray:5.0,5.0;" x1="719" x2="719" y1="110.7266" y2="1101.0469"/><line style="stroke:#181818;stroke-width:0.5;stroke-dasharray:5.0,5.0;" x1="882.5" x2="882.5" y1="72.7266" y2="82.7266"/><line style="stroke:#383838;stroke-width:1.0;stroke-dasharray:1.0,4.0;" x1="882.5" x2="882.5" y1="82.7266" y2="110.7266"/><line style="stroke:#181818;stroke-width:0.5;stroke-dasharray:5.0,5.0;" x1="882.5" x2="882.5" y1="110.7266" y2="1101.0469"/><line style="stroke:#181818;stroke-width:0.5;stroke-dasharray:5.0,5.0;" x1="1082.5" x2="1082.5" y1="72.7266" y2="82.7266"/><line style="stroke:#383838;stroke-width:1.0;stroke-dasharray:1.0,4.0;" x1="1082.5" x2="1082.5" y1="82.7266" y2="110.7266"/><line style="stroke:#181818;stroke-width:0.5;stroke-dasharray:5.0,5.0;" x1="1082.5" x2="1082.5" y1="110.7266" y2="1101.0469"/><rect fill="#E3E3E3" height="46.5938" rx="2.5" ry="2.5" style="stroke:#181818;stroke-width:0.5;" width="112" x="20" y="25.1328"/><text fill="#000000" font-family="sans-serif" font-size="14" lengthAdjust="spacing" textLength="63" x="44.5" y="45.1279">&#171;thread&#187;</text><text fill="#000000" font-family="sans-serif" font-size="14" lengthAdjust="spacing" textLength="98" x="27" y="61.4248">AnkaiosServer</text><rect fill="#E3E3E3" height="30.2969" rx="2.5" ry="2.5" style="stroke:#181818;stroke-width:0.5;" width="94" x="272" y="41.4297"/><text fill="#000000" font-family="sans-serif" font-size="14" lengthAdjust="spacing" textLength="80" x="279" y="61.4248">ServerState</text><rect fill="#E3E3E3" height="46.5938" rx="2.5" ry="2.5" style="stroke:#181818;stroke-width:0.5;" width="214" x="427" y="25.1328"/><text fill="#000000" font-family="sans-serif" font-size="14" lengthAdjust="spacing" textLength="63" x="502.5" y="45.1279">&#171;thread&#187;</text><text fill="#000000" font-family="sans-serif" font-size="14" lengthAdjust="spacing" textLength="200" x="434" y="61.4248">GRPCCommunicationsServer</text><rect fill="#E3E3E3" height="46.5938" rx="2.5" ry="2.5" style="stroke:#181818;stroke-width:0.5;" width="137" x="651" y="25.1328"/><text fill="#000000" font-family="sans-serif" font-size="14" lengthAdjust="spacing" textLength="63" x="688" y="45.1279">&#171;thread&#187;</text><text fill="#000000" font-family="sans-serif" font-size="14" lengthAdjust="spacing" textLength="123" x="658" y="61.4248">tonic gRPC server</text><rect fill="#E3E3E3" height="30.2969" rx="2.5" ry="2.5" style="stroke:#181818;stroke-width:0.5;" width="68" x="848.5" y="41.4297"/><text fill="#000000" font-family="sans-serif" font-size="14" lengthAdjust="spacing" textLength="54" x="855.5" y="61.4248">Agent 1</text><rect fill="#E3E3E3" height="30.2969" rx="2.5" ry="2.5" style="stroke:#181818;stroke-width:0.5;" width="68" x="1048.5" y="41.4297"/><text fill="#000000" font-family="sans-serif" font-size="14" lengthAdjust="spacing" textLength="54" x="1055.5" y="61.4248">Agent 2</text><rect fill="#FFFFFF" height="576.9922" style="stroke:#181818;stroke-width:1.0;" width="10" x="71" y="160.9922"/><rect fill="#FFFFFF" height="28" style="stroke:#181818;stroke-width:1.0;" width="10" x="76" y="659.8516"/><rect fill="#FFFFFF" height="58.1328" style="stroke:#181818;stroke-width:1.0;" width="10" x="71" y="1033.9141"/><rect fill="#FFFFFF" height="14" style="stroke:#181818;stroke-width:1.0;" width="10" x="76" y="1078.0469"/><rect fill="#FFFFFF" height="417.4609" style="stroke:#181818;stroke-width:1.0;" width="10" x="314" y="190.125"/><rect fill="#FFFFFF" height="28" style="stroke:#181818;stroke-width:1.0;" width="10" x="319" y="257.5234"/><rect fill="#FFFFFF" height="28" style="stroke:#181818;stroke-width:1.0;" width="10" x="319" y="344.7891"/><rect fill="#FFFFFF" height="28" style="stroke:#181818;stroke-width:1.0;" width="10" x="319" y="416.9219"/><rect fill="#FFFFFF" height="28" style="stroke:#181818;stroke-width:1.0;" width="10" x="319" y="519.3203"/><rect fill="#FFFFFF" height="286.7969" style="stroke:#181818;stroke-width:1.0;" width="10" x="529" y="723.9844"/><rect fill="#FFFFFF" height="29.1328" style="stroke:#181818;stroke-width:1.0;" width="10" x="714.5" y="131.8594"/><rect fill="#FFFFFF" height="21.1328" style="stroke:#181818;stroke-width:1.0;" width="10" x="877.5" y="110.7266"/><rect fill="#FFFFFF" height="65.1328" style="stroke:#181818;stroke-width:1.0;" width="10" x="877.5" y="791.25"/><rect fill="#FFFFFF" height="28" style="stroke:#181818;stroke-width:1.0;" width="10" x="882.5" y="828.3828"/><rect fill="#FFFFFF" height="65.1328" style="stroke:#181818;stroke-width:1.0;" width="10" x="1077.5" y="923.6484"/><rect fill="#FFFFFF" height="28" style="stroke:#181818;stroke-width:1.0;" width="10" x="1082.5" y="960.7813"/><line style="stroke:#181818;stroke-width:1.0;" x1="725.5" x2="735.5" y1="131.8594" y2="127.8594"/><line style="stroke:#181818;stroke-width:1.0;" x1="725.5" x2="735.5" y1="131.8594" y2="135.8594"/><line style="stroke:#181818;stroke-width:1.0;" x1="724.5" x2="881.5" y1="131.8594" y2="131.8594"/><text fill="#000000" font-family="sans-serif" font-size="13" lengthAdjust="spacing" textLength="134" x="741.5" y="126.7935">UpdateStateRequest</text><line style="stroke:#181818;stroke-width:1.0;" x1="82" x2="92" y1="160.9922" y2="156.9922"/><line style="stroke:#181818;stroke-width:1.0;" x1="82" x2="92" y1="160.9922" y2="164.9922"/><line style="stroke:#181818;stroke-width:1.0;" x1="81" x2="718.5" y1="160.9922" y2="160.9922"/><text fill="#000000" font-family="sans-serif" font-size="13" lengthAdjust="spacing" textLength="134" x="98" y="155.9263">UpdateStateRequest</text><polygon fill="#181818" points="302,186.125,312,190.125,302,194.125" style="stroke:#181818;stroke-width:1.0;"/><line style="stroke:#181818;stroke-width:1.0;" x1="81" x2="308" y1="190.125" y2="190.125"/><text fill="#000000" font-family="sans-serif" font-size="13" lengthAdjust="spacing" textLength="82" x="88" y="185.0591">update state</text><line style="stroke:#181818;stroke-width:1.0;" x1="329" x2="371" y1="249.5234" y2="249.5234"/><line style="stroke:#181818;stroke-width:1.0;" x1="371" x2="371" y1="249.5234" y2="262.5234"/><line style="stroke:#181818;stroke-width:1.0;" x1="330" x2="371" y1="262.5234" y2="262.5234"/><polygon fill="#181818" points="340,258.5234,330,262.5234,340,266.5234" style="stroke:#181818;stroke-width:1.0;"/><text fill="#000000" font-family="sans-serif" font-size="13" lengthAdjust="spacing" textLength="191" x="336" y="214.1919">Generate new State based on</text><text fill="#000000" font-family="sans-serif" font-size="13" lengthAdjust="spacing" textLength="112" x="336" y="229.3247">update mask and</text><text fill="#000000" font-family="sans-serif" font-size="13" lengthAdjust="spacing" textLength="164" x="336" y="244.4575">new and old DesiredState</text><line style="stroke:#181818;stroke-width:1.0;" x1="329" x2="371" y1="336.7891" y2="336.7891"/><line style="stroke:#181818;stroke-width:1.0;" x1="371" x2="371" y1="336.7891" y2="349.7891"/><line style="stroke:#181818;stroke-width:1.0;" x1="330" x2="371" y1="349.7891" y2="349.7891"/><polygon fill="#181818" points="340,345.7891,330,349.7891,340,353.7891" style="stroke:#181818;stroke-width:1.0;"/><text fill="#000000" font-family="sans-serif" font-size="13" lengthAdjust="spacing" textLength="70" x="336" y="316.5903">Render the</text><text fill="#000000" font-family="sans-serif" font-size="13" lengthAdjust="spacing" textLength="154" x="336" y="331.7231">templated DesiredState</text><line style="stroke:#181818;stroke-width:1.0;" x1="329" x2="371" y1="408.9219" y2="408.9219"/><line style="stroke:#181818;stroke-width:1.0;" x1="371" x2="371" y1="408.9219" y2="421.9219"/><line style="stroke:#181818;stroke-width:1.0;" x1="330" x2="371" y1="421.9219" y2="421.9219"/><polygon fill="#181818" points="340,417.9219,330,421.9219,340,425.9219" style="stroke:#181818;stroke-width:1.0;"/><text fill="#000000" font-family="sans-serif" font-size="13" lengthAdjust="spacing" textLength="145" x="336" y="403.856">Validate the new State</text><line style="stroke:#181818;stroke-width:1.0;" x1="329" x2="371" y1="511.3203" y2="511.3203"/><line style="stroke:#181818;stroke-width:1.0;" x1="371" x2="371" y1="511.3203" y2="524.3203"/><line style="stroke:#181818;stroke-width:1.0;" x1="330" x2="371" y1="524.3203" y2="524.3203"/><polygon fill="#181818" points="340,520.3203,330,524.3203,340,528.3203" style="stroke:#181818;stroke-width:1.0;"/><text fill="#000000" font-family="sans-serif" font-size="13" lengthAdjust="spacing" textLength="161" x="336" y="475.9888">Update DeleteGraph with</text><text fill="#000000" font-family="sans-serif" font-size="13" lengthAdjust="spacing" textLength="109" x="336" y="491.1216">DeleteConditions</text><text fill="#000000" font-family="sans-serif" font-size="13" lengthAdjust="spacing" textLength="108" x="336" y="506.2544">of new workloads</text><path d="M10,569.3203 L74,569.3203 L74,576.4531 L64,586.4531 L10,586.4531 L10,569.3203 " fill="#EEEEEE" style="stroke:#000000;stroke-width:1.5;"/><rect fill="none" height="472.5938" style="stroke:#000000;stroke-width:1.5;" width="1287.5" x="10" y="569.3203"/><text fill="#000000" font-family="sans-serif" font-size="13" font-weight="bold" lengthAdjust="spacing" textLength="19" x="25" y="582.3872">alt</text><text fill="#000000" font-family="sans-serif" font-size="11" font-weight="bold" lengthAdjust="spacing" textLength="79" x="89" y="581.5308">[State valid]</text><line style="stroke:#181818;stroke-width:1.0;" x1="82" x2="92" y1="607.5859" y2="603.5859"/><line style="stroke:#181818;stroke-width:1.0;" x1="82" x2="92" y1="607.5859" y2="611.5859"/><line style="stroke:#181818;stroke-width:1.0;stroke-dasharray:2.0,2.0;" x1="81" x2="318" y1="607.5859" y2="607.5859"/><text fill="#000000" font-family="sans-serif" font-size="13" lengthAdjust="spacing" textLength="188" x="98" y="602.52">Added and deleted workloads</text><line style="stroke:#181818;stroke-width:1.0;" x1="86" x2="128" y1="651.8516" y2="651.8516"/><line style="stroke:#181818;stroke-width:1.0;" x1="128" x2="128" y1="651.8516" y2="664.8516"/><line style="stroke:#181818;stroke-width:1.0;" x1="87" x2="128" y1="664.8516" y2="664.8516"/><polygon fill="#181818" points="97,660.8516,87,664.8516,97,668.8516" style="stroke:#181818;stroke-width:1.0;"/><text fill="#000000" font-family="sans-serif" font-size="13" lengthAdjust="spacing" textLength="219" x="93" y="631.6528">Create FromServer message from</text><text fill="#000000" font-family="sans-serif" font-size="13" lengthAdjust="spacing" textLength="187" x="93" y="646.7856">added and deleted workloads</text><line style="stroke:#181818;stroke-width:1.0;" x1="527" x2="517" y1="723.9844" y2="719.9844"/><line style="stroke:#181818;stroke-width:1.0;" x1="527" x2="517" y1="723.9844" y2="727.9844"/><line style="stroke:#181818;stroke-width:1.0;" x1="81" x2="528" y1="723.9844" y2="723.9844"/><text fill="#000000" font-family="sans-serif" font-size="13" lengthAdjust="spacing" textLength="173" x="88" y="718.9185">send FromServer message</text><line style="stroke:#181818;stroke-width:1.0;" x1="77" x2="87" y1="737.9844" y2="733.9844"/><line style="stroke:#181818;stroke-width:1.0;" x1="77" x2="87" y1="737.9844" y2="741.9844"/><line style="stroke:#181818;stroke-width:1.0;stroke-dasharray:2.0,2.0;" x1="76" x2="528" y1="737.9844" y2="737.9844"/><path d="M417,752.9844 L487,752.9844 L487,760.1172 L477,770.1172 L417,770.1172 L417,752.9844 " fill="#EEEEEE" style="stroke:#000000;stroke-width:1.5;"/><rect fill="none" height="118.3984" style="stroke:#000000;stroke-width:1.5;" width="670.5" x="417" y="752.9844"/><text fill="#000000" font-family="sans-serif" font-size="13" font-weight="bold" lengthAdjust="spacing" textLength="25" x="432" y="766.0513">opt</text><text fill="#000000" font-family="sans-serif" font-size="11" font-weight="bold" lengthAdjust="spacing" textLength="214" x="502" y="765.1948">[ExuectionsRequests for Agent 1]</text><line style="stroke:#181818;stroke-width:1.0;" x1="875.5" x2="865.5" y1="791.25" y2="787.25"/><line style="stroke:#181818;stroke-width:1.0;" x1="875.5" x2="865.5" y1="791.25" y2="795.25"/><line style="stroke:#181818;stroke-width:1.0;" x1="539" x2="876.5" y1="791.25" y2="791.25"/><text fill="#000000" font-family="sans-serif" font-size="13" lengthAdjust="spacing" textLength="173" x="546" y="786.1841">send FromServer message</text><line style="stroke:#181818;stroke-width:1.0;" x1="892.5" x2="934.5" y1="820.3828" y2="820.3828"/><line style="stroke:#181818;stroke-width:1.0;" x1="934.5" x2="934.5" y1="820.3828" y2="833.3828"/><line style="stroke:#181818;stroke-width:1.0;" x1="893.5" x2="934.5" y1="833.3828" y2="833.3828"/><polygon fill="#181818" points="903.5,829.3828,893.5,833.3828,903.5,837.3828" style="stroke:#181818;stroke-width:1.0;"/><text fill="#000000" font-family="sans-serif" font-size="13" lengthAdjust="spacing" textLength="176" x="899.5" y="815.3169">apply FromServer message</text><path d="M417,885.3828 L487,885.3828 L487,892.5156 L477,902.5156 L417,902.5156 L417,885.3828 " fill="#EEEEEE" style="stroke:#000000;stroke-width:1.5;"/><rect fill="none" height="118.3984" style="stroke:#000000;stroke-width:1.5;" width="870.5" x="417" y="885.3828"/><text fill="#000000" font-family="sans-serif" font-size="13" font-weight="bold" lengthAdjust="spacing" textLength="25" x="432" y="898.4497">opt</text><text fill="#000000" font-family="sans-serif" font-size="11" font-weight="bold" lengthAdjust="spacing" textLength="214" x="502" y="897.5933">[ExuectionsRequests for Agent 2]</text><line style="stroke:#181818;stroke-width:1.0;" x1="1075.5" x2="1065.5" y1="923.6484" y2="919.6484"/><line style="stroke:#181818;stroke-width:1.0;" x1="1075.5" x2="1065.5" y1="923.6484" y2="927.6484"/><line style="stroke:#181818;stroke-width:1.0;" x1="539" x2="1076.5" y1="923.6484" y2="923.6484"/><text fill="#000000" font-family="sans-serif" font-size="13" lengthAdjust="spacing" textLength="173" x="546" y="918.5825">send FromServer message</text><line style="stroke:#181818;stroke-width:1.0;" x1="1092.5" x2="1134.5" y1="952.7813" y2="952.7813"/><line style="stroke:#181818;stroke-width:1.0;" x1="1134.5" x2="1134.5" y1="952.7813" y2="965.7813"/><line style="stroke:#181818;stroke-width:1.0;" x1="1093.5" x2="1134.5" y1="965.7813" y2="965.7813"/><polygon fill="#181818" points="1103.5,961.7813,1093.5,965.7813,1103.5,969.7813" style="stroke:#181818;stroke-width:1.0;"/><text fill="#000000" font-family="sans-serif" font-size="13" lengthAdjust="spacing" textLength="176" x="1099.5" y="947.7153">apply FromServer message</text><line style="stroke:#000000;stroke-width:1.0;stroke-dasharray:2.0,2.0;" x1="10" x2="1297.5" y1="1011.7813" y2="1011.7813"/><line style="stroke:#181818;stroke-width:1.0;" x1="82" x2="92" y1="1033.9141" y2="1029.9141"/><line style="stroke:#181818;stroke-width:1.0;" x1="82" x2="92" y1="1033.9141" y2="1037.9141"/><line style="stroke:#181818;stroke-width:1.0;stroke-dasharray:2.0,2.0;" x1="81" x2="318" y1="1033.9141" y2="1033.9141"/><text fill="#000000" font-family="sans-serif" font-size="13" lengthAdjust="spacing" textLength="113" x="98" y="1028.8481">UpdateStateError</text><line style="stroke:#181818;stroke-width:1.0;" x1="81" x2="128" y1="1065.0469" y2="1065.0469"/><line style="stroke:#181818;stroke-width:1.0;" x1="128" x2="128" y1="1065.0469" y2="1078.0469"/><line style="stroke:#181818;stroke-width:1.0;" x1="87" x2="128" y1="1078.0469" y2="1078.0469"/><polygon fill="#181818" points="97,1074.0469,87,1078.0469,97,1082.0469" style="stroke:#181818;stroke-width:1.0;"/><text fill="#000000" font-family="sans-serif" font-size="13" lengthAdjust="spacing" textLength="177" x="93" y="1059.981">listen for incoming requests</text><!--SRC=[bLN1Rk8m4BtdAsQv8eAQ8wgG4DlbMe5sJv4gDnx0mXcdjWFTlz-9amQJ1K4b3cRyvisRyRFpGr6XQucGfjF-Pz6PsXRefj8KqqeBydMffuL6GQaxA4gIT_C9emKTX38EDcYFQ4T99QnNXQeO3wFdPx-tAEHydbC7x70W7BYmlCnejpTUU8mmRwu9tEPUhL-NIrEMDQb2U6KeBhEpLV5shLRCu0sdmevvkf8XDKI_Sf4aSCl9eF753icxGUCX24-1H3JhfslxsNa_EzEBmgiZj_kLcAPfqYvXCfzVQ9fCnkCP_AuamyFCrlXHe_D930fPT_0zycBW3RWEO6WF8DuSWc4ydanci492s_mbF46e0U_2eGH3ENLafN0742HpQa2y0ACb_4IdBChDevNMF37MxFV8nuSbMzJZzrd-2As2AEOvQtuainqZ5zJeSML5jOUJylkSsiZIa5J1YpcPRQ0-6NlGHaYN2EsxuHoR-eDoyO7DO24bzzLCIGPY6V4CpwrLjcHNCyylQyhs7a29ph67OCkXdCGZZFFuuZHES8r3_-TC8bWiFP7OExcBcCh3osUDHHXBvpq7MsEXkp2NPCpL6f_BtwhUtumUsan0L9N-UmqUYUgk5_FU5vPT5vRT4vRrmh9l2WiFGXoDdp7K3czw1WPt_CLQ4rwlAswPWLRE8uLM-JDWIaKxiDq0akGV]--></g></svg>