<?xml version="1.0" encoding="us-ascii" standalone="no"?><svg xmlns="http://www.w3.org/2000/svg" xmlns:xlink="http://www.w3.org/1999/xlink" contentStyleType="text/css" height="570px" preserveAspectRatio="none" style="width:1305px;height:570px;background:#FFFFFF;" version="1.1" viewBox="0 0 1305 570" width="1305px" zoomAndPan="magnify"><defs/><g><rect fill="#EEEEEE" height="551.7891" style="stroke:#D3D3D3;stroke-width:0.5;" width="625" x="224" y="6"/><text fill="#777777" font-family="sans-serif" font-size="13" font-weight="bold" lengthAdjust="spacing" textLength="110" x="481.5" y="18.0669">Ankaios Server</text><rect fill="#EEEEEE" height="551.7891" style="stroke:#D3D3D3;stroke-width:0.5;" width="146" x="909.5" y="6"/><text fill="#777777" font-family="sans-serif" font-size="13" font-weight="bold" lengthAdjust="spacing" textLength="115" x="925" y="18.0669">Ankaios Agents</text><rect fill="#FFFFFF" height="181.7969" style="stroke:#181818;stroke-width:1.0;" width="10" x="279" y="254.3281"/><rect fill="#FFFFFF" height="28" style="stroke:#181818;stroke-width:1.0;" width="10" x="284" y="371.9922"/><rect fill="#FFFFFF" height="29.1328" style="stroke:#181818;stroke-width:1.0;" width="10" x="586" y="436.125"/><rect fill="#FFFFFF" height="29.1328" style="stroke:#181818;stroke-width:1.0;" width="10" x="771.5" y="225.1953"/><rect fill="#FFFFFF" height="101.6641" style="stroke:#181818;stroke-width:1.0;" width="10" x="940.5" y="123.5313"/><rect fill="#FFFFFF" height="89.5313" style="stroke:#181818;stroke-width:1.0;" width="10" x="1014.5" y="465.2578"/><line style="stroke:#181818;stroke-width:0.5;stroke-dasharray:5.0,5.0;" x1="284" x2="284" y1="72.7266" y2="82.7266"/><line style="stroke:#383838;stroke-width:1.0;stroke-dasharray:1.0,4.0;" x1="284" x2="284" y1="82.7266" y2="123.5313"/><line style="stroke:#181818;stroke-width:0.5;stroke-dasharray:5.0,5.0;" x1="284" x2="284" y1="123.5313" y2="563.7891"/><line style="stroke:#181818;stroke-width:0.5;stroke-dasharray:5.0,5.0;" x1="591" x2="591" y1="72.7266" y2="82.7266"/><line style="stroke:#383838;stroke-width:1.0;stroke-dasharray:1.0,4.0;" x1="591" x2="591" y1="82.7266" y2="123.5313"/><line style="stroke:#181818;stroke-width:0.5;stroke-dasharray:5.0,5.0;" x1="591" x2="591" y1="123.5313" y2="563.7891"/><line style="stroke:#181818;stroke-width:0.5;stroke-dasharray:5.0,5.0;" x1="776" x2="776" y1="72.7266" y2="82.7266"/><line style="stroke:#383838;stroke-width:1.0;stroke-dasharray:1.0,4.0;" x1="776" x2="776" y1="82.7266" y2="123.5313"/><line style="stroke:#181818;stroke-width:0.5;stroke-dasharray:5.0,5.0;" x1="776" x2="776" y1="123.5313" y2="563.7891"/><line style="stroke:#181818;stroke-width:0.5;stroke-dasharray:5.0,5.0;" x1="945.5" x2="945.5" y1="72.7266" y2="82.7266"/><line style="stroke:#383838;stroke-width:1.0;stroke-dasharray:1.0,4.0;" x1="945.5" x2="945.5" y1="82.7266" y2="123.5313"/><line style="stroke:#181818;stroke-width:0.5;stroke-dasharray:5.0,5.0;" x1="945.5" x2="945.5" y1="123.5313" y2="563.7891"/><line style="stroke:#181818;stroke-width:0.5;stroke-dasharray:5.0,5.0;" x1="1019.5" x2="1019.5" y1="72.7266" y2="82.7266"/><line style="stroke:#383838;stroke-width:1.0;stroke-dasharray:1.0,4.0;" x1="1019.5" x2="1019.5" y1="82.7266" y2="123.5313"/><line style="stroke:#181818;stroke-width:0.5;stroke-dasharray:5.0,5.0;" x1="1019.5" x2="1019.5" y1="123.5313" y2="563.7891"/><rect fill="#E3E3E3" height="46.5938" rx="2.5" ry="2.5" style="stroke:#181818;stroke-width:0.5;" width="112" x="228" y="25.1328"/><text fill="#000000" font-family="sans-serif" font-size="14" lengthAdjust="spacing" textLength="63" x="252.5" y="45.1279">&#171;thread&#187;</text><text fill="#000000" font-family="sans-serif" font-size="14" lengthAdjust="spacing" textLength="98" x="235" y="61.4248">AnkaiosServer</text><rect fill="#E3E3E3" height="46.5938" rx="2.5" ry="2.5" style="stroke:#181818;stroke-width:0.5;" width="214" x="484" y="25.1328"/><text fill="#000000" font-family="sans-serif" font-size="14" lengthAdjust="spacing" textLength="63" x="559.5" y="45.1279">&#171;thread&#187;</text><text fill="#000000" font-family="sans-serif" font-size="14" lengthAdjust="spacing" textLength="200" x="491" y="61.4248">GRPCCommunicationsServer</text><rect fill="#E3E3E3" height="46.5938" rx="2.5" ry="2.5" style="stroke:#181818;stroke-width:0.5;" width="137" x="708" y="25.1328"/><text fill="#000000" font-family="sans-serif" font-size="14" lengthAdjust="spacing" textLength="63" x="745" y="45.1279">&#171;thread&#187;</text><text fill="#000000" font-family="sans-serif" font-size="14" lengthAdjust="spacing" textLength="123" x="715" y="61.4248">tonic gRPC server</text><rect fill="#E3E3E3" height="30.2969" rx="2.5" ry="2.5" style="stroke:#181818;stroke-width:0.5;" width="64" x="913.5" y="41.4297"/><text fill="#000000" font-family="sans-serif" font-size="14" lengthAdjust="spacing" textLength="50" x="920.5" y="61.4248">Agent1</text><rect fill="#E3E3E3" height="30.2969" rx="2.5" ry="2.5" style="stroke:#181818;stroke-width:0.5;" width="64" x="987.5" y="41.4297"/><text fill="#000000" font-family="sans-serif" font-size="14" lengthAdjust="spacing" textLength="50" x="994.5" y="61.4248">Agent2</text><rect fill="#FFFFFF" height="181.7969" style="stroke:#181818;stroke-width:1.0;" width="10" x="279" y="254.3281"/><rect fill="#FFFFFF" height="28" style="stroke:#181818;stroke-width:1.0;" width="10" x="284" y="371.9922"/><rect fill="#FFFFFF" height="29.1328" style="stroke:#181818;stroke-width:1.0;" width="10" x="586" y="436.125"/><rect fill="#FFFFFF" height="29.1328" style="stroke:#181818;stroke-width:1.0;" width="10" x="771.5" y="225.1953"/><rect fill="#FFFFFF" height="101.6641" style="stroke:#181818;stroke-width:1.0;" width="10" x="940.5" y="123.5313"/><rect fill="#FFFFFF" height="89.5313" style="stroke:#181818;stroke-width:1.0;" width="10" x="1014.5" y="465.2578"/><text fill="#000000" font-family="sans-serif" font-size="11" lengthAdjust="spacing" textLength="256" x="523.75" y="106.937">Two agents are connected to Ankiaos Server</text><path d="M955,128.5313 L955,198.5313 L1224,198.5313 L1224,138.5313 L1214,128.5313 L955,128.5313 " fill="#FFFFFF" style="stroke:#181818;stroke-width:0.5;"/><path d="M1214,128.5313 L1214,138.5313 L1224,138.5313 L1214,128.5313 " fill="#FFFFFF" style="stroke:#181818;stroke-width:0.5;"/><text fill="#000000" font-family="monospace" font-size="13" lengthAdjust="spacing" textLength="120" x="961" y="145.5981">workloadStates:</text><text fill="#000000" font-family="monospace" font-size="13" lengthAdjust="spacing" textLength="176" x="961" y="160.731">-&#160;workload:&#160;Workload&#160;1</text><text fill="#000000" font-family="monospace" font-size="13" lengthAdjust="spacing" textLength="112" x="977" y="175.8638">agent:&#160;Agent&#160;1</text><text fill="#000000" font-family="monospace" font-size="13" lengthAdjust="spacing" textLength="232" x="977" y="190.9966">executionState:&#160;ExecSucceeded</text><line style="stroke:#181818;stroke-width:1.0;" x1="782.5" x2="792.5" y1="225.1953" y2="221.1953"/><line style="stroke:#181818;stroke-width:1.0;" x1="782.5" x2="792.5" y1="225.1953" y2="229.1953"/><line style="stroke:#181818;stroke-width:1.0;" x1="781.5" x2="944.5" y1="225.1953" y2="225.1953"/><text fill="#000000" font-family="sans-serif" font-size="13" lengthAdjust="spacing" textLength="140" x="798.5" y="220.1294">UpdateWorkloadState</text><line style="stroke:#181818;stroke-width:1.0;" x1="290" x2="300" y1="254.3281" y2="250.3281"/><line style="stroke:#181818;stroke-width:1.0;" x1="290" x2="300" y1="254.3281" y2="258.3281"/><line style="stroke:#181818;stroke-width:1.0;" x1="289" x2="775.5" y1="254.3281" y2="254.3281"/><text fill="#000000" font-family="sans-serif" font-size="13" lengthAdjust="spacing" textLength="140" x="306" y="249.2622">UpdateWorkloadState</text><path d="M5,267.3281 L5,337.3281 L274,337.3281 L274,277.3281 L264,267.3281 L5,267.3281 " fill="#FFFFFF" style="stroke:#181818;stroke-width:0.5;"/><path d="M264,267.3281 L264,277.3281 L274,277.3281 L264,267.3281 " fill="#FFFFFF" style="stroke:#181818;stroke-width:0.5;"/><text fill="#000000" font-family="monospace" font-size="13" lengthAdjust="spacing" textLength="120" x="11" y="284.395">workloadStates:</text><text fill="#000000" font-family="monospace" font-size="13" lengthAdjust="spacing" textLength="176" x="11" y="299.5278">-&#160;workload:&#160;Workload&#160;1</text><text fill="#000000" font-family="monospace" font-size="13" lengthAdjust="spacing" textLength="112" x="27" y="314.6606">agent:&#160;Agent&#160;1</text><text fill="#000000" font-family="monospace" font-size="13" lengthAdjust="spacing" textLength="232" x="27" y="329.7935">executionState:&#160;ExecSucceeded</text><line style="stroke:#181818;stroke-width:1.0;" x1="294" x2="336" y1="363.9922" y2="363.9922"/><line style="stroke:#181818;stroke-width:1.0;" x1="336" x2="336" y1="363.9922" y2="376.9922"/><line style="stroke:#181818;stroke-width:1.0;" x1="295" x2="336" y1="376.9922" y2="376.9922"/><polygon fill="#181818" points="305,372.9922,295,376.9922,305,380.9922" style="stroke:#181818;stroke-width:1.0;"/><text fill="#000000" font-family="sans-serif" font-size="13" lengthAdjust="spacing" textLength="283" x="301" y="358.9263">store workload states in WorkloadStatesMap</text><line style="stroke:#181818;stroke-width:1.0;" x1="584" x2="574" y1="436.125" y2="432.125"/><line style="stroke:#181818;stroke-width:1.0;" x1="584" x2="574" y1="436.125" y2="440.125"/><line style="stroke:#181818;stroke-width:1.0;" x1="284" x2="585" y1="436.125" y2="436.125"/><text fill="#000000" font-family="sans-serif" font-size="13" lengthAdjust="spacing" textLength="140" x="291" y="431.0591">UpdateWorkloadState</text><line style="stroke:#181818;stroke-width:1.0;" x1="1012.5" x2="1002.5" y1="465.2578" y2="461.2578"/><line style="stroke:#181818;stroke-width:1.0;" x1="1012.5" x2="1002.5" y1="465.2578" y2="469.2578"/><line style="stroke:#181818;stroke-width:1.0;" x1="591" x2="1013.5" y1="465.2578" y2="465.2578"/><text fill="#000000" font-family="sans-serif" font-size="13" lengthAdjust="spacing" textLength="140" x="598" y="460.1919">UpdateWorkloadState</text><path d="M1029,478.2578 L1029,548.2578 L1298,548.2578 L1298,488.2578 L1288,478.2578 L1029,478.2578 " fill="#FFFFFF" style="stroke:#181818;stroke-width:0.5;"/><path d="M1288,478.2578 L1288,488.2578 L1298,488.2578 L1288,478.2578 " fill="#FFFFFF" style="stroke:#181818;stroke-width:0.5;"/><text fill="#000000" font-family="monospace" font-size="13" lengthAdjust="spacing" textLength="120" x="1035" y="495.3247">workloadStates:</text><text fill="#000000" font-family="monospace" font-size="13" lengthAdjust="spacing" textLength="176" x="1035" y="510.4575">-&#160;workload:&#160;Workload&#160;1</text><text fill="#000000" font-family="monospace" font-size="13" lengthAdjust="spacing" textLength="112" x="1051" y="525.5903">agent:&#160;Agent&#160;1</text><text fill="#000000" font-family="monospace" font-size="13" lengthAdjust="spacing" textLength="232" x="1051" y="540.7231">executionState:&#160;ExecSucceeded</text><!--SRC=[pLBBReCm4BpxAxPS4Q3aY2AagAfwgbGrhNAfLBdsbbWXDh9Dai_lOY21z95ha0-sTsQyC-oTqg9g94AQPgTbqPd62dIPD2AhAwvziwioKI7NgTigpTYdEKAqr5kkZ8CLsZtQYDNSUYLKJNY85Wk_iSXbKRph7jZZW3jmOVitu_7b-VxUx7QDLe9xPVIONDfQV5nJy8QeK99E_rYWXjk1Yre26M4NTfObQkykx8JBMT3WOVjBUNukpy_YN7Yrvnu77alJzFLWkYF1BO8mMgFmAAa_e3OKFwLAOAODiQqgDtxGWFwBeeEnsyfmkVBqXCkZQ5HBOAZciEvtC9j0e5FCEzC_YdX4qRJn1_aS7kYyQeH0b2W9svfikoENeJ58YcAICIH97EVmLalYhyUziYcCU5SP8OSAl_mmFhSNmydEu2QEaoG7vmtzvg4DEhPTWj8mCUYUU3sIACQ3_ayi4nInkW6ybkDedkQt5-Gt]--></g></svg>