<?xml version="1.0" encoding="us-ascii" standalone="no"?><svg xmlns="http://www.w3.org/2000/svg" xmlns:xlink="http://www.w3.org/1999/xlink" contentStyleType="text/css" height="540px" preserveAspectRatio="none" style="width:1290px;height:540px;background:#FFFFFF;" version="1.1" viewBox="0 0 1290 540" width="1290px" zoomAndPan="magnify"><defs/><g><rect fill="#EEEEEE" height="521.7891" style="stroke:#D3D3D3;stroke-width:0.5;" width="610" x="224" y="6"/><text fill="#777777" font-family="sans-serif" font-size="13" font-weight="bold" lengthAdjust="spacing" textLength="110" x="474" y="18.0669">Ankaios Server</text><rect fill="#EEEEEE" height="521.7891" style="stroke:#D3D3D3;stroke-width:0.5;" width="146" x="894.5" y="6"/><text fill="#777777" font-family="sans-serif" font-size="13" font-weight="bold" lengthAdjust="spacing" textLength="115" x="910" y="18.0669">Ankaios Agents</text><rect fill="#FFFFFF" height="151.7969" style="stroke:#181818;stroke-width:1.0;" width="10" x="279" y="254.3281"/><rect fill="#FFFFFF" height="29.1328" style="stroke:#181818;stroke-width:1.0;" width="10" x="571" y="406.125"/><rect fill="#FFFFFF" height="29.1328" style="stroke:#181818;stroke-width:1.0;" width="10" x="756.5" y="225.1953"/><rect fill="#FFFFFF" height="101.6641" style="stroke:#181818;stroke-width:1.0;" width="10" x="925.5" y="123.5313"/><rect fill="#FFFFFF" height="89.5313" style="stroke:#181818;stroke-width:1.0;" width="10" x="999.5" y="435.2578"/><line style="stroke:#181818;stroke-width:0.5;stroke-dasharray:5.0,5.0;" x1="284" x2="284" y1="72.7266" y2="82.7266"/><line style="stroke:#383838;stroke-width:1.0;stroke-dasharray:1.0,4.0;" x1="284" x2="284" y1="82.7266" y2="123.5313"/><line style="stroke:#181818;stroke-width:0.5;stroke-dasharray:5.0,5.0;" x1="284" x2="284" y1="123.5313" y2="533.7891"/><line style="stroke:#181818;stroke-width:0.5;stroke-dasharray:5.0,5.0;" x1="576" x2="576" y1="72.7266" y2="82.7266"/><line style="stroke:#383838;stroke-width:1.0;stroke-dasharray:1.0,4.0;" x1="576" x2="576" y1="82.7266" y2="123.5313"/><line style="stroke:#181818;stroke-width:0.5;stroke-dasharray:5.0,5.0;" x1="576" x2="576" y1="123.5313" y2="533.7891"/><line style="stroke:#181818;stroke-width:0.5;stroke-dasharray:5.0,5.0;" x1="761" x2="761" y1="72.7266" y2="82.7266"/><line style="stroke:#383838;stroke-width:1.0;stroke-dasharray:1.0,4.0;" x1="761" x2="761" y1="82.7266" y2="123.5313"/><line style="stroke:#181818;stroke-width:0.5;stroke-dasharray:5.0,5.0;" x1="761" x2="761" y1="123.5313" y2="533.7891"/><line style="stroke:#181818;stroke-width:0.5;stroke-dasharray:5.0,5.0;" x1="930.5" x2="930.5" y1="72.7266" y2="82.7266"/><line style="stroke:#383838;stroke-width:1.0;stroke-dasharray:1.0,4.0;" x1="930.5" x2="930.5" y1="82.7266" y2="123.5313"/><line style="stroke:#181818;stroke-width:0.5;stroke-dasharray:5.0,5.0;" x1="930.5" x2="930.5" y1="123.5313" y2="533.7891"/><line style="stroke:#181818;stroke-width:0.5;stroke-dasharray:5.0,5.0;" x1="1004.5" x2="1004.5" y1="72.7266" y2="82.7266"/><line style="stroke:#383838;stroke-width:1.0;stroke-dasharray:1.0,4.0;" x1="1004.5" x2="1004.5" y1="82.7266" y2="123.5313"/><line style="stroke:#181818;stroke-width:0.5;stroke-dasharray:5.0,5.0;" x1="1004.5" x2="1004.5" y1="123.5313" y2="533.7891"/><rect fill="#E3E3E3" height="46.5938" rx="2.5" ry="2.5" style="stroke:#181818;stroke-width:0.5;" width="112" x="228" y="25.1328"/><text fill="#000000" font-family="sans-serif" font-size="14" lengthAdjust="spacing" textLength="63" x="252.5" y="45.1279">&#171;thread&#187;</text><text fill="#000000" font-family="sans-serif" font-size="14" lengthAdjust="spacing" textLength="98" x="235" y="61.4248">AnkaiosServer</text><rect fill="#E3E3E3" height="46.5938" rx="2.5" ry="2.5" style="stroke:#181818;stroke-width:0.5;" width="214" x="469" y="25.1328"/><text fill="#000000" font-family="sans-serif" font-size="14" lengthAdjust="spacing" textLength="63" x="544.5" y="45.1279">&#171;thread&#187;</text><text fill="#000000" font-family="sans-serif" font-size="14" lengthAdjust="spacing" textLength="200" x="476" y="61.4248">GRPCCommunicationsServer</text><rect fill="#E3E3E3" height="46.5938" rx="2.5" ry="2.5" style="stroke:#181818;stroke-width:0.5;" width="137" x="693" y="25.1328"/><text fill="#000000" font-family="sans-serif" font-size="14" lengthAdjust="spacing" textLength="63" x="730" y="45.1279">&#171;thread&#187;</text><text fill="#000000" font-family="sans-serif" font-size="14" lengthAdjust="spacing" textLength="123" x="700" y="61.4248">tonic gRPC server</text><rect fill="#E3E3E3" height="30.2969" rx="2.5" ry="2.5" style="stroke:#181818;stroke-width:0.5;" width="64" x="898.5" y="41.4297"/><text fill="#000000" font-family="sans-serif" font-size="14" lengthAdjust="spacing" textLength="50" x="905.5" y="61.4248">Agent1</text><rect fill="#E3E3E3" height="30.2969" rx="2.5" ry="2.5" style="stroke:#181818;stroke-width:0.5;" width="64" x="972.5" y="41.4297"/><text fill="#000000" font-family="sans-serif" font-size="14" lengthAdjust="spacing" textLength="50" x="979.5" y="61.4248">Agent2</text><rect fill="#FFFFFF" height="151.7969" style="stroke:#181818;stroke-width:1.0;" width="10" x="279" y="254.3281"/><rect fill="#FFFFFF" height="29.1328" style="stroke:#181818;stroke-width:1.0;" width="10" x="571" y="406.125"/><rect fill="#FFFFFF" height="29.1328" style="stroke:#181818;stroke-width:1.0;" width="10" x="756.5" y="225.1953"/><rect fill="#FFFFFF" height="101.6641" style="stroke:#181818;stroke-width:1.0;" width="10" x="925.5" y="123.5313"/><rect fill="#FFFFFF" height="89.5313" style="stroke:#181818;stroke-width:1.0;" width="10" x="999.5" y="435.2578"/><text fill="#000000" font-family="sans-serif" font-size="11" lengthAdjust="spacing" textLength="256" x="516.25" y="106.937">Two agents are connected to Ankiaos Server</text><path d="M940,128.5313 L940,198.5313 L1209,198.5313 L1209,138.5313 L1199,128.5313 L940,128.5313 " fill="#FFFFFF" style="stroke:#181818;stroke-width:0.5;"/><path d="M1199,128.5313 L1199,138.5313 L1209,138.5313 L1199,128.5313 " fill="#FFFFFF" style="stroke:#181818;stroke-width:0.5;"/><text fill="#000000" font-family="monospace" font-size="13" lengthAdjust="spacing" textLength="120" x="946" y="145.5981">workloadStates:</text><text fill="#000000" font-family="monospace" font-size="13" lengthAdjust="spacing" textLength="176" x="946" y="160.731">-&#160;workload:&#160;Workload&#160;1</text><text fill="#000000" font-family="monospace" font-size="13" lengthAdjust="spacing" textLength="112" x="962" y="175.8638">agent:&#160;Agent&#160;1</text><text fill="#000000" font-family="monospace" font-size="13" lengthAdjust="spacing" textLength="232" x="962" y="190.9966">executionState:&#160;ExecSucceeded</text><line style="stroke:#181818;stroke-width:1.0;" x1="767.5" x2="777.5" y1="225.1953" y2="221.1953"/><line style="stroke:#181818;stroke-width:1.0;" x1="767.5" x2="777.5" y1="225.1953" y2="229.1953"/><line style="stroke:#181818;stroke-width:1.0;" x1="766.5" x2="929.5" y1="225.1953" y2="225.1953"/><text fill="#000000" font-family="sans-serif" font-size="13" lengthAdjust="spacing" textLength="140" x="783.5" y="220.1294">UpdateWorkloadState</text><line style="stroke:#181818;stroke-width:1.0;" x1="290" x2="300" y1="254.3281" y2="250.3281"/><line style="stroke:#181818;stroke-width:1.0;" x1="290" x2="300" y1="254.3281" y2="258.3281"/><line style="stroke:#181818;stroke-width:1.0;" x1="289" x2="760.5" y1="254.3281" y2="254.3281"/><text fill="#000000" font-family="sans-serif" font-size="13" lengthAdjust="spacing" textLength="140" x="306" y="249.2622">UpdateWorkloadState</text><path d="M5,267.3281 L5,337.3281 L274,337.3281 L274,277.3281 L264,267.3281 L5,267.3281 " fill="#FFFFFF" style="stroke:#181818;stroke-width:0.5;"/><path d="M264,267.3281 L264,277.3281 L274,277.3281 L264,267.3281 " fill="#FFFFFF" style="stroke:#181818;stroke-width:0.5;"/><text fill="#000000" font-family="monospace" font-size="13" lengthAdjust="spacing" textLength="120" x="11" y="284.395">workloadStates:</text><text fill="#000000" font-family="monospace" font-size="13" lengthAdjust="spacing" textLength="176" x="11" y="299.5278">-&#160;workload:&#160;Workload&#160;1</text><text fill="#000000" font-family="monospace" font-size="13" lengthAdjust="spacing" textLength="112" x="27" y="314.6606">agent:&#160;Agent&#160;1</text><text fill="#000000" font-family="monospace" font-size="13" lengthAdjust="spacing" textLength="232" x="27" y="329.7935">executionState:&#160;ExecSucceeded</text><line style="stroke:#181818;stroke-width:1.0;" x1="289" x2="331" y1="363.9922" y2="363.9922"/><line style="stroke:#181818;stroke-width:1.0;" x1="331" x2="331" y1="363.9922" y2="376.9922"/><line style="stroke:#181818;stroke-width:1.0;" x1="290" x2="331" y1="376.9922" y2="376.9922"/><polygon fill="#181818" points="300,372.9922,290,376.9922,300,380.9922" style="stroke:#181818;stroke-width:1.0;"/><text fill="#000000" font-family="sans-serif" font-size="13" lengthAdjust="spacing" textLength="268" x="296" y="358.9263">store workload states in WorkloadStateDB</text><line style="stroke:#181818;stroke-width:1.0;" x1="569" x2="559" y1="406.125" y2="402.125"/><line style="stroke:#181818;stroke-width:1.0;" x1="569" x2="559" y1="406.125" y2="410.125"/><line style="stroke:#181818;stroke-width:1.0;" x1="284" x2="570" y1="406.125" y2="406.125"/><text fill="#000000" font-family="sans-serif" font-size="13" lengthAdjust="spacing" textLength="140" x="291" y="401.0591">UpdateWorkloadState</text><line style="stroke:#181818;stroke-width:1.0;" x1="997.5" x2="987.5" y1="435.2578" y2="431.2578"/><line style="stroke:#181818;stroke-width:1.0;" x1="997.5" x2="987.5" y1="435.2578" y2="439.2578"/><line style="stroke:#181818;stroke-width:1.0;" x1="576" x2="998.5" y1="435.2578" y2="435.2578"/><text fill="#000000" font-family="sans-serif" font-size="13" lengthAdjust="spacing" textLength="140" x="583" y="430.1919">UpdateWorkloadState</text><path d="M1014,448.2578 L1014,518.2578 L1283,518.2578 L1283,458.2578 L1273,448.2578 L1014,448.2578 " fill="#FFFFFF" style="stroke:#181818;stroke-width:0.5;"/><path d="M1273,448.2578 L1273,458.2578 L1283,458.2578 L1273,448.2578 " fill="#FFFFFF" style="stroke:#181818;stroke-width:0.5;"/><text fill="#000000" font-family="monospace" font-size="13" lengthAdjust="spacing" textLength="120" x="1020" y="465.3247">workloadStates:</text><text fill="#000000" font-family="monospace" font-size="13" lengthAdjust="spacing" textLength="176" x="1020" y="480.4575">-&#160;workload:&#160;Workload&#160;1</text><text fill="#000000" font-family="monospace" font-size="13" lengthAdjust="spacing" textLength="112" x="1036" y="495.5903">agent:&#160;Agent&#160;1</text><text fill="#000000" font-family="monospace" font-size="13" lengthAdjust="spacing" textLength="232" x="1036" y="510.7231">executionState:&#160;ExecSucceeded</text><!--SRC=[pLBBRi8m4BpdAxQ-eYI2OuGYKLhrMfLMN2fLhhqD5i6ER0Vu_6wS11Bwu4haW-sT6UzCzavfKTOI8KdIqxBeJ6q5kbGQaLObrxxUbQaeaUl4RPMEeazp1BRGMwwCWnNQFLeMLTnw9LH5U63pkTzOv3BFttK7x7307RYm_PlnzFAyN9hThjPASA-C7f8BMucFQmhU41KAqkaU2zHmstDHIo0ZqOMTHO7QkmixuN8QD7ZO_bAUdSkpipWNNksvnvuN9KdoUZ3jaU0MGHYjKNYKr1zG6ugVKYLmf0snhIesljU0xcFiOEosD5okF3tXCiO6jHZwQWRhRWVJ4GHQnQmr_QE8HnHr4t-Gp-2HpgjQ24I9ah2DoQOxSXaQWpZFHnb374yc6RnLalZhOQ_H64QyguoGGubVlX-VsulXPATtau7pXdvntm8Tcmv1QHYPUxWVaFFXYFyJo0X5h7RqhYKucAJPxKNu3G00]--></g></svg>