<?xml version="1.0" encoding="us-ascii" standalone="no"?><svg xmlns="http://www.w3.org/2000/svg" xmlns:xlink="http://www.w3.org/1999/xlink" contentStyleType="text/css" height="473px" preserveAspectRatio="none" style="width:1665px;height:473px;background:#FFFFFF;" version="1.1" viewBox="0 0 1665 473" width="1665px" zoomAndPan="magnify"><defs/><g><!--class Commands--><g id="elem_Commands"><rect codeLine="3" fill="#F1F1F1" height="42.5938" id="Commands" rx="2.5" ry="2.5" style="stroke:#181818;stroke-width:0.5;" width="85" x="931.5" y="7"/><text fill="#000000" font-family="sans-serif" font-size="14" lengthAdjust="spacing" textLength="57" x="945.5" y="24.9951">&#171;union&#187;</text><text fill="#000000" font-family="sans-serif" font-size="14" lengthAdjust="spacing" textLength="79" x="934.5" y="41.292">Commands</text></g><!--class Get--><g id="elem_Get"><rect codeLine="6" fill="#F1F1F1" height="50.5938" id="Get" rx="2.5" ry="2.5" style="stroke:#181818;stroke-width:0.5;" width="259" x="257.5" y="98"/><text fill="#000000" font-family="sans-serif" font-size="14" lengthAdjust="spacing" textLength="25" x="374.5" y="115.9951">Get</text><line style="stroke:#181818;stroke-width:0.5;" x1="258.5" x2="515.5" y1="124.2969" y2="124.2969"/><text fill="#000000" font-family="sans-serif" font-size="14" lengthAdjust="spacing" textLength="247" x="263.5" y="141.292">Option&lt;GetCommands&gt; command</text></g><!--class Set--><g id="elem_Set"><rect codeLine="7" fill="#F1F1F1" height="50.5938" id="Set" rx="2.5" ry="2.5" style="stroke:#181818;stroke-width:0.5;" width="257" x="546.5" y="98"/><text fill="#000000" font-family="sans-serif" font-size="14" lengthAdjust="spacing" textLength="23" x="663.5" y="115.9951">Set</text><line style="stroke:#181818;stroke-width:0.5;" x1="547.5" x2="802.5" y1="124.2969" y2="124.2969"/><text fill="#000000" font-family="sans-serif" font-size="14" lengthAdjust="spacing" textLength="245" x="552.5" y="141.292">Option&lt;SetCommands&gt; command</text></g><!--class Delete--><g id="elem_Delete"><rect codeLine="8" fill="#F1F1F1" height="50.5938" id="Delete" rx="2.5" ry="2.5" style="stroke:#181818;stroke-width:0.5;" width="280" x="834" y="98"/><text fill="#000000" font-family="sans-serif" font-size="14" lengthAdjust="spacing" textLength="46" x="951" y="115.9951">Delete</text><line style="stroke:#181818;stroke-width:0.5;" x1="835" x2="1113" y1="124.2969" y2="124.2969"/><text fill="#000000" font-family="sans-serif" font-size="14" lengthAdjust="spacing" textLength="268" x="840" y="141.292">Option&lt;DeleteCommands&gt; command</text></g><!--class Run--><g id="elem_Run"><rect codeLine="9" fill="#F1F1F1" height="50.5938" id="Run" rx="2.5" ry="2.5" style="stroke:#181818;stroke-width:0.5;" width="262" x="1144" y="98"/><text fill="#000000" font-family="sans-serif" font-size="14" lengthAdjust="spacing" textLength="28" x="1261" y="115.9951">Run</text><line style="stroke:#181818;stroke-width:0.5;" x1="1145" x2="1405" y1="124.2969" y2="124.2969"/><text fill="#000000" font-family="sans-serif" font-size="14" lengthAdjust="spacing" textLength="250" x="1150" y="141.292">Option&lt;RunCommands&gt; command</text></g><!--class Apply--><g id="elem_Apply"><rect codeLine="10" fill="#F1F1F1" height="50.5938" id="Apply" rx="2.5" ry="2.5" style="stroke:#181818;stroke-width:0.5;" width="151" x="1436.5" y="98"/><text fill="#000000" font-family="sans-serif" font-size="14" lengthAdjust="spacing" textLength="37" x="1493.5" y="115.9951">Apply</text><line style="stroke:#181818;stroke-width:0.5;" x1="1437.5" x2="1586.5" y1="124.2969" y2="124.2969"/><text fill="#000000" font-family="sans-serif" font-size="14" lengthAdjust="spacing" textLength="139" x="1442.5" y="141.292">ApplyArgs applyArgs</text></g><!--class GetState--><g id="elem_GetState"><rect codeLine="29" fill="#F1F1F1" height="66.8906" id="GetState" rx="2.5" ry="2.5" style="stroke:#181818;stroke-width:0.5;" width="228" x="357" y="371.5"/><text fill="#000000" font-family="sans-serif" font-size="14" lengthAdjust="spacing" textLength="36" x="453" y="389.4951">State</text><line style="stroke:#181818;stroke-width:0.5;" x1="358" x2="584" y1="397.7969" y2="397.7969"/><text fill="#000000" font-family="sans-serif" font-size="14" lengthAdjust="spacing" textLength="197" x="363" y="414.792">OutputFormat output_format</text><text fill="#000000" font-family="sans-serif" font-size="14" lengthAdjust="spacing" textLength="216" x="363" y="431.0889">Vec&lt;String&gt; object_field_mask</text></g><!--class GetWorkload--><g id="elem_GetWorkload"><rect codeLine="30" fill="#F1F1F1" height="83.1875" id="GetWorkload" rx="2.5" ry="2.5" style="stroke:#181818;stroke-width:0.5;" width="214" x="7" y="363.5"/><text fill="#000000" font-family="sans-serif" font-size="14" lengthAdjust="spacing" textLength="64" x="82" y="381.4951">Workload</text><line style="stroke:#181818;stroke-width:0.5;" x1="8" x2="220" y1="389.7969" y2="389.7969"/><text fill="#000000" font-family="sans-serif" font-size="14" lengthAdjust="spacing" textLength="200" x="13" y="406.792">Option&lt;String&gt; agent_name</text><text fill="#000000" font-family="sans-serif" font-size="14" lengthAdjust="spacing" textLength="149" x="13" y="423.0889">Option&lt;String&gt; state</text><text fill="#000000" font-family="sans-serif" font-size="14" lengthAdjust="spacing" textLength="202" x="13" y="439.3857">Vec&lt;String&gt; workload_name</text></g><!--class GetCommands--><g id="elem_GetCommands"><rect codeLine="33" fill="#F1F1F1" height="42.5938" id="GetCommands" rx="2.5" ry="2.5" style="stroke:#181818;stroke-width:0.5;" width="110" x="270" y="233"/><text fill="#000000" font-family="sans-serif" font-size="14" lengthAdjust="spacing" textLength="57" x="296.5" y="250.9951">&#171;union&#187;</text><text fill="#000000" font-family="sans-serif" font-size="14" lengthAdjust="spacing" textLength="104" x="273" y="267.292">GetCommands</text></g><!--class GetConfig--><g id="elem_GetConfig"><rect fill="#F1F1F1" height="26.2969" id="GetConfig" rx="2.5" ry="2.5" style="stroke:#181818;stroke-width:0.5;" width="75" x="251.5" y="392"/><text fill="#000000" font-family="sans-serif" font-size="14" lengthAdjust="spacing" textLength="69" x="254.5" y="409.9951">GetConfig</text></g><!--class SetState--><g id="elem_SetState"><rect codeLine="47" fill="#F1F1F1" height="66.8906" id="SetState" rx="2.5" ry="2.5" style="stroke:#181818;stroke-width:0.5;" width="237" x="615.5" y="371.5"/><text fill="#000000" font-family="sans-serif" font-size="14" lengthAdjust="spacing" textLength="36" x="716" y="389.4951">State</text><line style="stroke:#181818;stroke-width:0.5;" x1="616.5" x2="851.5" y1="397.7969" y2="397.7969"/><text fill="#000000" font-family="sans-serif" font-size="14" lengthAdjust="spacing" textLength="216" x="621.5" y="414.792">Vec&lt;String&gt; object_field_mask</text><text fill="#000000" font-family="sans-serif" font-size="14" lengthAdjust="spacing" textLength="225" x="621.5" y="431.0889">Option&lt;String&gt; state_object_file</text></g><!--class SetCommands--><g id="elem_SetCommands"><rect codeLine="51" fill="#F1F1F1" height="42.5938" id="SetCommands" rx="2.5" ry="2.5" style="stroke:#181818;stroke-width:0.5;" width="108" x="680" y="233"/><text fill="#000000" font-family="sans-serif" font-size="14" lengthAdjust="spacing" textLength="57" x="705.5" y="250.9951">&#171;union&#187;</text><text fill="#000000" font-family="sans-serif" font-size="14" lengthAdjust="spacing" textLength="102" x="683" y="267.292">SetCommands</text></g><!--class DeleteWorkload--><g id="elem_DeleteWorkload"><rect codeLine="55" fill="#F1F1F1" height="50.5938" id="DeleteWorkload" rx="2.5" ry="2.5" style="stroke:#181818;stroke-width:0.5;" width="214" x="1003" y="379.5"/><text fill="#000000" font-family="sans-serif" font-size="14" lengthAdjust="spacing" textLength="64" x="1078" y="397.4951">Workload</text><line style="stroke:#181818;stroke-width:0.5;" x1="1004" x2="1216" y1="405.7969" y2="405.7969"/><text fill="#000000" font-family="sans-serif" font-size="14" lengthAdjust="spacing" textLength="202" x="1009" y="422.792">Vec&lt;String&gt; workload_name</text></g><!--class DeleteConfig--><g id="elem_DeleteConfig"><rect codeLine="58" fill="#F1F1F1" height="50.5938" id="DeleteConfig" rx="2.5" ry="2.5" style="stroke:#181818;stroke-width:0.5;" width="90" x="883" y="379.5"/><text fill="#000000" font-family="sans-serif" font-size="14" lengthAdjust="spacing" textLength="44" x="906" y="397.4951">Config</text><line style="stroke:#181818;stroke-width:0.5;" x1="884" x2="972" y1="405.7969" y2="405.7969"/><text fill="#000000" font-family="sans-serif" font-size="14" lengthAdjust="spacing" textLength="78" x="889" y="422.792">Config item</text></g><!--class DeleteCommands--><g id="elem_DeleteCommands"><rect codeLine="61" fill="#F1F1F1" height="42.5938" id="DeleteCommands" rx="2.5" ry="2.5" style="stroke:#181818;stroke-width:0.5;" width="131" x="908.5" y="233"/><text fill="#000000" font-family="sans-serif" font-size="14" lengthAdjust="spacing" textLength="57" x="945.5" y="250.9951">&#171;union&#187;</text><text fill="#000000" font-family="sans-serif" font-size="14" lengthAdjust="spacing" textLength="125" x="911.5" y="267.292">DeleteCommands</text></g><!--class RunWorkload--><g id="elem_RunWorkload"><rect codeLine="66" fill="#F1F1F1" height="123.7813" id="RunWorkload" rx="2.5" ry="2.5" style="stroke:#181818;stroke-width:0.5;" width="186" x="1247" y="343"/><text fill="#000000" font-family="sans-serif" font-size="14" lengthAdjust="spacing" textLength="64" x="1308" y="360.9951">Workload</text><line style="stroke:#181818;stroke-width:0.5;" x1="1248" x2="1432" y1="369.2969" y2="369.2969"/><text fill="#000000" font-family="sans-serif" font-size="14" lengthAdjust="spacing" textLength="152" x="1253" y="386.292">String workload_name</text><text fill="#000000" font-family="sans-serif" font-size="14" lengthAdjust="spacing" textLength="143" x="1253" y="402.5889">String runtime_name</text><text fill="#000000" font-family="sans-serif" font-size="14" lengthAdjust="spacing" textLength="146" x="1253" y="418.8857">String runtime_config</text><text fill="#000000" font-family="sans-serif" font-size="14" lengthAdjust="spacing" textLength="130" x="1253" y="435.1826">String agent_name</text><line style="stroke:#181818;stroke-width:0.5;" x1="1248" x2="1432" y1="442.4844" y2="442.4844"/><text fill="#000000" font-family="sans-serif" font-size="14" lengthAdjust="spacing" textLength="174" x="1253" y="459.4795">Vec&lt;(String, String)&gt; tag</text></g><!--class RunCommands--><g id="elem_RunCommands"><rect codeLine="73" fill="#F1F1F1" height="42.5938" id="RunCommands" rx="2.5" ry="2.5" style="stroke:#181818;stroke-width:0.5;" width="113" x="1280.5" y="233"/><text fill="#000000" font-family="sans-serif" font-size="14" lengthAdjust="spacing" textLength="57" x="1308.5" y="250.9951">&#171;union&#187;</text><text fill="#000000" font-family="sans-serif" font-size="14" lengthAdjust="spacing" textLength="107" x="1283.5" y="267.292">RunCommands</text></g><!--class ApplyArgs--><g id="elem_ApplyArgs"><rect codeLine="77" fill="#F1F1F1" height="83.1875" id="ApplyArgs" rx="2.5" ry="2.5" style="stroke:#181818;stroke-width:0.5;" width="212" x="1446" y="213"/><text fill="#000000" font-family="sans-serif" font-size="14" lengthAdjust="spacing" textLength="68" x="1518" y="230.9951">ApplyArgs</text><line style="stroke:#181818;stroke-width:0.5;" x1="1447" x2="1657" y1="239.2969" y2="239.2969"/><text fill="#000000" font-family="sans-serif" font-size="14" lengthAdjust="spacing" textLength="187" x="1452" y="256.292">Vec&lt;String&gt; manifest_files</text><text fill="#000000" font-family="sans-serif" font-size="14" lengthAdjust="spacing" textLength="200" x="1452" y="272.5889">Option&lt;String&gt; agent_name</text><text fill="#000000" font-family="sans-serif" font-size="14" lengthAdjust="spacing" textLength="125" x="1452" y="288.8857">bool delete_mode</text></g><!--link Commands to Get--><g id="link_Commands_Get"><path codeLine="13" d="M931.35,34.08 C852.14,42.87 677.09,63.59 531,90 C517.89,92.37 521.7693,91.3902 508.2193,94.2602 " fill="none" id="Commands-to-Get" style="stroke:#181818;stroke-width:1.0;"/><polygon fill="none" points="490.61,97.99,509.4626,100.13,506.9761,88.3904,490.61,97.99" style="stroke:#181818;stroke-width:1.0;"/><text fill="#000000" font-family="sans-serif" font-size="13" lengthAdjust="spacing" textLength="40" x="678" y="78.0669">one of</text></g><!--link Commands to Set--><g id="link_Commands_Set"><path codeLine="14" d="M931.48,42.73 C885.37,57.07 827.9273,74.9326 771.0373,92.6326 " fill="none" id="Commands-to-Set" style="stroke:#181818;stroke-width:1.0;"/><polygon fill="none" points="753.85,97.98,772.8198,98.3617,769.2549,86.9034,753.85,97.98" style="stroke:#181818;stroke-width:1.0;"/><text fill="#000000" font-family="sans-serif" font-size="13" lengthAdjust="spacing" textLength="40" x="852" y="78.0669">one of</text></g><!--link Commands to Delete--><g id="link_Commands_Delete"><path codeLine="15" d="M974,50.14 C974,64.27 974,65.06 974,79.96 " fill="none" id="Commands-to-Delete" style="stroke:#181818;stroke-width:1.0;"/><polygon fill="none" points="974,97.96,980,79.96,968,79.96,974,97.96" style="stroke:#181818;stroke-width:1.0;"/><text fill="#000000" font-family="sans-serif" font-size="13" lengthAdjust="spacing" textLength="40" x="975" y="78.0669">one of</text></g><!--link Commands to Run--><g id="link_Commands_Run"><path codeLine="16" d="M1016.81,42.73 C1063.23,57.07 1121.1524,74.9658 1178.4324,92.6658 " fill="none" id="Commands-to-Run" style="stroke:#181818;stroke-width:1.0;"/><polygon fill="none" points="1195.63,97.98,1180.2038,86.9332,1176.6609,98.3983,1195.63,97.98" style="stroke:#181818;stroke-width:1.0;"/><text fill="#000000" font-family="sans-serif" font-size="13" lengthAdjust="spacing" textLength="40" x="1143" y="78.0669">one of</text></g><!--link Commands to Apply--><g id="link_Commands_Apply"><path codeLine="17" d="M1016.76,32.31 C1096.98,38.23 1275.1,54.48 1421,90 C1429.96,92.18 1422.1628,89.3622 1431.2628,92.3222 " fill="none" id="Commands-to-Apply" style="stroke:#181818;stroke-width:1.0;"/><polygon fill="none" points="1448.38,97.89,1433.1187,86.6165,1429.4068,98.0279,1448.38,97.89" style="stroke:#181818;stroke-width:1.0;"/><text fill="#000000" font-family="sans-serif" font-size="13" lengthAdjust="spacing" textLength="40" x="1386" y="78.0669">one of</text></g><!--link GetCommands to GetState--><g id="link_GetCommands_GetState"><path codeLine="34" d="M345.3,276.15 C369.51,300.77 397.6609,329.4042 426.1909,358.4242 " fill="none" id="GetCommands-to-GetState" style="stroke:#181818;stroke-width:1.0;"/><polygon fill="none" points="438.81,371.26,430.4695,354.2178,421.9123,362.6305,438.81,371.26" style="stroke:#181818;stroke-width:1.0;"/><text fill="#000000" font-family="sans-serif" font-size="13" lengthAdjust="spacing" textLength="40" x="395" y="324.0669">one of</text></g><!--link GetCommands to GetWorkload--><g id="link_GetCommands_GetWorkload"><path codeLine="35" d="M295.66,276.15 C263.73,298.62 226.5794,324.7596 186.4294,353.0196 " fill="none" id="GetCommands-to-GetWorkload" style="stroke:#181818;stroke-width:1.0;"/><polygon fill="none" points="171.71,363.38,189.8829,357.9261,182.976,348.1131,171.71,363.38" style="stroke:#181818;stroke-width:1.0;"/><text fill="#000000" font-family="sans-serif" font-size="13" lengthAdjust="spacing" textLength="40" x="246" y="324.0669">one of</text></g><!--link GetCommands to GetConfig--><g id="link_GetCommands_GetConfig"><path codeLine="36" d="M319.99,276.15 C312.38,307.55 302.3677,348.8359 296.2077,374.2659 " fill="none" id="GetCommands-to-GetConfig" style="stroke:#181818;stroke-width:1.0;"/><polygon fill="none" points="291.97,391.76,302.039,375.6785,290.3763,372.8534,291.97,391.76" style="stroke:#181818;stroke-width:1.0;"/><text fill="#000000" font-family="sans-serif" font-size="13" lengthAdjust="spacing" textLength="40" x="313" y="324.0669">one of</text></g><!--link GetCommands to Get--><g id="link_GetCommands_Get"><path codeLine="45" d="M335.7062,227.3009 C343.2462,209.1909 352.54,187.8 364,165 C366.61,159.8 363.7112,164.787 366.6212,159.597 " fill="none" id="GetCommands-Get" style="stroke:#181818;stroke-width:1.0;"/><polygon fill="#181818" points="333.4,232.84,340.552,226.0688,335.3218,228.2241,333.1665,222.9939,333.4,232.84" style="stroke:#181818;stroke-width:1.0;"/><polygon fill="none" points="372.49,149.13,366.0666,152.4072,366.6212,159.597,373.0446,156.3197,372.49,149.13" style="stroke:#181818;stroke-width:1.0;"/></g><!--link Get to GetCommands--><!--link SetCommands to SetState--><g id="link_SetCommands_SetState"><path codeLine="52" d="M734,276.15 C734,300.77 734,324.24 734,353.26 " fill="none" id="SetCommands-to-SetState" style="stroke:#181818;stroke-width:1.0;"/><polygon fill="none" points="734,371.26,740,353.26,728,353.26,734,371.26" style="stroke:#181818;stroke-width:1.0;"/><text fill="#000000" font-family="sans-serif" font-size="13" lengthAdjust="spacing" textLength="40" x="735" y="324.0669">one of</text></g><!--link SetCommands to Set--><g id="link_SetCommands_Set"><path codeLine="53" d="M723.8609,227.2675 C716.7309,209.1675 707.94,187.83 697,165 C694.51,159.8 697.3461,164.9081 694.5661,159.7181 " fill="none" id="SetCommands-Set" style="stroke:#181818;stroke-width:1.0;"/><polygon fill="#181818" points="726.06,232.85,726.4831,223.0102,724.2274,228.1979,719.0397,225.9423,726.06,232.85" style="stroke:#181818;stroke-width:1.0;"/><polygon fill="none" points="688.9,149.14,688.207,156.3177,694.5661,159.7181,695.2591,152.5403,688.9,149.14" style="stroke:#181818;stroke-width:1.0;"/></g><!--link Set to SetCommands--><!--link DeleteCommands to DeleteWorkload--><g id="link_DeleteCommands_DeleteWorkload"><path codeLine="62" d="M992.91,276.15 C1017.65,303.16 1048.8053,337.1736 1075.2453,366.0536 " fill="none" id="DeleteCommands-to-DeleteWorkload" style="stroke:#181818;stroke-width:1.0;"/><polygon fill="none" points="1087.4,379.33,1079.6708,362.002,1070.8198,370.1052,1087.4,379.33" style="stroke:#181818;stroke-width:1.0;"/><text fill="#000000" font-family="sans-serif" font-size="13" lengthAdjust="spacing" textLength="40" x="1038" y="324.0669">one of</text></g><!--link DeleteCommands to DeleteConfig--><g id="link_DeleteCommands_DeleteConfig"><path codeLine="63" d="M967.6,276.15 C959.24,303.16 949.9183,333.2567 940.9683,362.1367 " fill="none" id="DeleteCommands-to-DeleteConfig" style="stroke:#181818;stroke-width:1.0;"/><polygon fill="none" points="935.64,379.33,946.6994,363.9128,935.2372,360.3606,935.64,379.33" style="stroke:#181818;stroke-width:1.0;"/><text fill="#000000" font-family="sans-serif" font-size="13" lengthAdjust="spacing" textLength="40" x="957" y="324.0669">one of</text></g><!--link DeleteCommands to Delete--><g id="link_DeleteCommands_Delete"><path codeLine="64" d="M974,226.85 C974,204.04 974,185.34 974,161.07 " fill="none" id="DeleteCommands-Delete" style="stroke:#181818;stroke-width:1.0;"/><polygon fill="#181818" points="974,232.85,978,223.85,974,227.85,970,223.85,974,232.85" style="stroke:#181818;stroke-width:1.0;"/><polygon fill="none" points="974,149.07,970,155.07,974,161.07,978,155.07,974,149.07" style="stroke:#181818;stroke-width:1.0;"/></g><!--link Delete to DeleteCommands--><!--link RunCommands to RunWorkload--><g id="link_RunCommands_RunWorkload"><path codeLine="74" d="M1337.42,276.15 C1337.77,293.44 1337.9164,301.0437 1338.3964,324.8037 " fill="none" id="RunCommands-to-RunWorkload" style="stroke:#181818;stroke-width:1.0;"/><polygon fill="none" points="1338.76,342.8,1344.3952,324.6825,1332.3977,324.9249,1338.76,342.8" style="stroke:#181818;stroke-width:1.0;"/><text fill="#000000" font-family="sans-serif" font-size="13" lengthAdjust="spacing" textLength="40" x="1339" y="324.0669">one of</text></g><!--link RunCommands to Run--><g id="link_RunCommands_Run"><path codeLine="75" d="M1326.2938,227.3009 C1318.7538,209.1909 1309.46,187.8 1298,165 C1295.39,159.8 1298.2888,164.787 1295.3788,159.597 " fill="none" id="RunCommands-Run" style="stroke:#181818;stroke-width:1.0;"/><polygon fill="#181818" points="1328.6,232.84,1328.8335,222.9939,1326.6782,228.2241,1321.448,226.0688,1328.6,232.84" style="stroke:#181818;stroke-width:1.0;"/><polygon fill="none" points="1289.51,149.13,1288.9554,156.3197,1295.3788,159.597,1295.9334,152.4072,1289.51,149.13" style="stroke:#181818;stroke-width:1.0;"/></g><!--link Run to RunCommands--><!--link ApplyArgs to Apply--><g id="link_ApplyArgs_Apply"><path codeLine="82" d="M1537.603,207.0592 C1531.113,186.1292 1528.741,178.5126 1523.171,160.5326 " fill="none" id="ApplyArgs-Apply" style="stroke:#181818;stroke-width:1.0;"/><polygon fill="#181818" points="1539.38,212.79,1540.535,203.0091,1537.8992,208.0143,1532.8939,205.3785,1539.38,212.79" style="stroke:#181818;stroke-width:1.0;"/><polygon fill="none" points="1519.62,149.07,1517.5746,155.9849,1523.171,160.5326,1525.2163,153.6176,1519.62,149.07" style="stroke:#181818;stroke-width:1.0;"/></g><!--link Apply to ApplyArgs--><!--SRC=[ZLNVRziW47xdhs1zMIlDoViKMQfQhO-LohGzR5D4xOj3Wy4oU5MszNyV0OF19b6hIELy7_Vhkpi-C57neGQyMgt3hmSbXxu2jQvbjUuu5Nfe-RhYGCLA7PX0IEb-g3I-scm6mQGeov_YJhOj5RMwmbHXBo2aPGDw3pt-Yx3v6oy-W8v5aehtm453_ELf4B5ustNyYDuGydvmKVmhJrRnPom5OBcRgSXvbVDsHcaSdxjdWvYKo7b_xBGfoCO87btYofqGYH4aXt2nJ20dBt4kh15aX2N2HsV_t_QDmjIV9lg8fXeiOIPUAmJLTzaVkAIrrthv0gFEGFejN7lBDarK9kyej4vq3lHQ5rFDSn3lyJBgJeeTQrBslF77GNU3_YBxbceihR3TMIb6VODgGtJFH5DY-Vm2bG4nuFMsfUfWxKMHUCv7F6r0wAsWBLp6ALlH51BxVHq_ErD9efkYa7RCCcGJpnLvRpeHC1VYDjpWaEMPp7YEP4Jcz905psIU68aJIrhLJKnekrIyN3vlp_L6PCrzGB5WB8q7fg7DvfpERc9kp3mLussqREBps7ahpv2sNkD6pPVCx8zGh-XiBBf2pUgKXVI3qAo5To0gLymi9fgBL7zYxTg1FetWcn9hscGh7or4ds2eUNGE6tvPxHXb2tXwW8Ahi5EjzI2XQTUcVMRii1qeDnyfxFnYY57FKd9SMmwthQmDaPFMXkSUHFJnwvufl0VUAQmbbdrZFFy1RDOrvlHeTXc-DflCFEqdjNdPAnY7NU7Vq6jMKSwFD_QXAdxiMLs3-5NBLr4KPJAp3pb0lBp7Xso1cKt0wHrRO6Awt3EsW8Jq_mC0]--></g></svg>