<?xml version="1.0" encoding="us-ascii" standalone="no"?><svg xmlns="http://www.w3.org/2000/svg" xmlns:xlink="http://www.w3.org/1999/xlink" contentStyleType="text/css" height="473px" preserveAspectRatio="none" style="width:1581px;height:473px;background:#FFFFFF;" version="1.1" viewBox="0 0 1581 473" width="1581px" zoomAndPan="magnify"><defs/><g><!--class Commands--><g id="elem_Commands"><rect codeLine="3" fill="#F1F1F1" height="42.5938" id="Commands" rx="2.5" ry="2.5" style="stroke:#181818;stroke-width:0.5;" width="85" x="886.5" y="7"/><text fill="#000000" font-family="sans-serif" font-size="14" lengthAdjust="spacing" textLength="57" x="900.5" y="24.9951">&#171;union&#187;</text><text fill="#000000" font-family="sans-serif" font-size="14" lengthAdjust="spacing" textLength="79" x="889.5" y="41.292">Commands</text></g><!--class Get--><g id="elem_Get"><rect codeLine="6" fill="#F1F1F1" height="50.5938" id="Get" rx="2.5" ry="2.5" style="stroke:#181818;stroke-width:0.5;" width="259" x="212.5" y="98"/><text fill="#000000" font-family="sans-serif" font-size="14" lengthAdjust="spacing" textLength="25" x="329.5" y="115.9951">Get</text><line style="stroke:#181818;stroke-width:0.5;" x1="213.5" x2="470.5" y1="124.2969" y2="124.2969"/><text fill="#000000" font-family="sans-serif" font-size="14" lengthAdjust="spacing" textLength="247" x="218.5" y="141.292">Option&lt;GetCommands&gt; command</text></g><!--class Set--><g id="elem_Set"><rect codeLine="7" fill="#F1F1F1" height="50.5938" id="Set" rx="2.5" ry="2.5" style="stroke:#181818;stroke-width:0.5;" width="257" x="501.5" y="98"/><text fill="#000000" font-family="sans-serif" font-size="14" lengthAdjust="spacing" textLength="23" x="618.5" y="115.9951">Set</text><line style="stroke:#181818;stroke-width:0.5;" x1="502.5" x2="757.5" y1="124.2969" y2="124.2969"/><text fill="#000000" font-family="sans-serif" font-size="14" lengthAdjust="spacing" textLength="245" x="507.5" y="141.292">Option&lt;SetCommands&gt; command</text></g><!--class Delete--><g id="elem_Delete"><rect codeLine="8" fill="#F1F1F1" height="50.5938" id="Delete" rx="2.5" ry="2.5" style="stroke:#181818;stroke-width:0.5;" width="280" x="789" y="98"/><text fill="#000000" font-family="sans-serif" font-size="14" lengthAdjust="spacing" textLength="46" x="906" y="115.9951">Delete</text><line style="stroke:#181818;stroke-width:0.5;" x1="790" x2="1068" y1="124.2969" y2="124.2969"/><text fill="#000000" font-family="sans-serif" font-size="14" lengthAdjust="spacing" textLength="268" x="795" y="141.292">Option&lt;DeleteCommands&gt; command</text></g><!--class Run--><g id="elem_Run"><rect codeLine="9" fill="#F1F1F1" height="50.5938" id="Run" rx="2.5" ry="2.5" style="stroke:#181818;stroke-width:0.5;" width="262" x="1099" y="98"/><text fill="#000000" font-family="sans-serif" font-size="14" lengthAdjust="spacing" textLength="28" x="1216" y="115.9951">Run</text><line style="stroke:#181818;stroke-width:0.5;" x1="1100" x2="1360" y1="124.2969" y2="124.2969"/><text fill="#000000" font-family="sans-serif" font-size="14" lengthAdjust="spacing" textLength="250" x="1105" y="141.292">Option&lt;RunCommands&gt; command</text></g><!--class Apply--><g id="elem_Apply"><rect codeLine="10" fill="#F1F1F1" height="50.5938" id="Apply" rx="2.5" ry="2.5" style="stroke:#181818;stroke-width:0.5;" width="151" x="1391.5" y="98"/><text fill="#000000" font-family="sans-serif" font-size="14" lengthAdjust="spacing" textLength="37" x="1448.5" y="115.9951">Apply</text><line style="stroke:#181818;stroke-width:0.5;" x1="1392.5" x2="1541.5" y1="124.2969" y2="124.2969"/><text fill="#000000" font-family="sans-serif" font-size="14" lengthAdjust="spacing" textLength="139" x="1397.5" y="141.292">ApplyArgs applyArgs</text></g><!--class GetState--><g id="elem_GetState"><rect codeLine="29" fill="#F1F1F1" height="66.8906" id="GetState" rx="2.5" ry="2.5" style="stroke:#181818;stroke-width:0.5;" width="228" x="251" y="371.5"/><text fill="#000000" font-family="sans-serif" font-size="14" lengthAdjust="spacing" textLength="36" x="347" y="389.4951">State</text><line style="stroke:#181818;stroke-width:0.5;" x1="252" x2="478" y1="397.7969" y2="397.7969"/><text fill="#000000" font-family="sans-serif" font-size="14" lengthAdjust="spacing" textLength="197" x="257" y="414.792">OutputFormat output_format</text><text fill="#000000" font-family="sans-serif" font-size="14" lengthAdjust="spacing" textLength="216" x="257" y="431.0889">Vec&lt;String&gt; object_field_mask</text></g><!--class GetWorkload--><g id="elem_GetWorkload"><rect codeLine="30" fill="#F1F1F1" height="83.1875" id="GetWorkload" rx="2.5" ry="2.5" style="stroke:#181818;stroke-width:0.5;" width="214" x="7" y="363.5"/><text fill="#000000" font-family="sans-serif" font-size="14" lengthAdjust="spacing" textLength="64" x="82" y="381.4951">Workload</text><line style="stroke:#181818;stroke-width:0.5;" x1="8" x2="220" y1="389.7969" y2="389.7969"/><text fill="#000000" font-family="sans-serif" font-size="14" lengthAdjust="spacing" textLength="200" x="13" y="406.792">Option&lt;String&gt; agent_name</text><text fill="#000000" font-family="sans-serif" font-size="14" lengthAdjust="spacing" textLength="149" x="13" y="423.0889">Option&lt;String&gt; state</text><text fill="#000000" font-family="sans-serif" font-size="14" lengthAdjust="spacing" textLength="202" x="13" y="439.3857">Vec&lt;String&gt; workload_name</text></g><!--class GetCommands--><g id="elem_GetCommands"><rect codeLine="33" fill="#F1F1F1" height="42.5938" id="GetCommands" rx="2.5" ry="2.5" style="stroke:#181818;stroke-width:0.5;" width="110" x="287" y="233"/><text fill="#000000" font-family="sans-serif" font-size="14" lengthAdjust="spacing" textLength="57" x="313.5" y="250.9951">&#171;union&#187;</text><text fill="#000000" font-family="sans-serif" font-size="14" lengthAdjust="spacing" textLength="104" x="290" y="267.292">GetCommands</text></g><!--class SetState--><g id="elem_SetState"><rect codeLine="46" fill="#F1F1F1" height="66.8906" id="SetState" rx="2.5" ry="2.5" style="stroke:#181818;stroke-width:0.5;" width="237" x="537.5" y="371.5"/><text fill="#000000" font-family="sans-serif" font-size="14" lengthAdjust="spacing" textLength="36" x="638" y="389.4951">State</text><line style="stroke:#181818;stroke-width:0.5;" x1="538.5" x2="773.5" y1="397.7969" y2="397.7969"/><text fill="#000000" font-family="sans-serif" font-size="14" lengthAdjust="spacing" textLength="216" x="543.5" y="414.792">Vec&lt;String&gt; object_field_mask</text><text fill="#000000" font-family="sans-serif" font-size="14" lengthAdjust="spacing" textLength="225" x="543.5" y="431.0889">Option&lt;String&gt; state_object_file</text></g><!--class SetCommands--><g id="elem_SetCommands"><rect codeLine="50" fill="#F1F1F1" height="42.5938" id="SetCommands" rx="2.5" ry="2.5" style="stroke:#181818;stroke-width:0.5;" width="108" x="602" y="233"/><text fill="#000000" font-family="sans-serif" font-size="14" lengthAdjust="spacing" textLength="57" x="627.5" y="250.9951">&#171;union&#187;</text><text fill="#000000" font-family="sans-serif" font-size="14" lengthAdjust="spacing" textLength="102" x="605" y="267.292">SetCommands</text></g><!--class DeleteWorkload--><g id="elem_DeleteWorkload"><rect codeLine="54" fill="#F1F1F1" height="50.5938" id="DeleteWorkload" rx="2.5" ry="2.5" style="stroke:#181818;stroke-width:0.5;" width="214" x="834" y="379.5"/><text fill="#000000" font-family="sans-serif" font-size="14" lengthAdjust="spacing" textLength="64" x="909" y="397.4951">Workload</text><line style="stroke:#181818;stroke-width:0.5;" x1="835" x2="1047" y1="405.7969" y2="405.7969"/><text fill="#000000" font-family="sans-serif" font-size="14" lengthAdjust="spacing" textLength="202" x="840" y="422.792">Vec&lt;String&gt; workload_name</text></g><!--class DeleteCommands--><g id="elem_DeleteCommands"><rect codeLine="57" fill="#F1F1F1" height="42.5938" id="DeleteCommands" rx="2.5" ry="2.5" style="stroke:#181818;stroke-width:0.5;" width="131" x="875.5" y="233"/><text fill="#000000" font-family="sans-serif" font-size="14" lengthAdjust="spacing" textLength="57" x="912.5" y="250.9951">&#171;union&#187;</text><text fill="#000000" font-family="sans-serif" font-size="14" lengthAdjust="spacing" textLength="125" x="878.5" y="267.292">DeleteCommands</text></g><!--class RunWorkload--><g id="elem_RunWorkload"><rect codeLine="61" fill="#F1F1F1" height="123.7813" id="RunWorkload" rx="2.5" ry="2.5" style="stroke:#181818;stroke-width:0.5;" width="186" x="1151" y="343"/><text fill="#000000" font-family="sans-serif" font-size="14" lengthAdjust="spacing" textLength="64" x="1212" y="360.9951">Workload</text><line style="stroke:#181818;stroke-width:0.5;" x1="1152" x2="1336" y1="369.2969" y2="369.2969"/><text fill="#000000" font-family="sans-serif" font-size="14" lengthAdjust="spacing" textLength="152" x="1157" y="386.292">String workload_name</text><text fill="#000000" font-family="sans-serif" font-size="14" lengthAdjust="spacing" textLength="143" x="1157" y="402.5889">String runtime_name</text><text fill="#000000" font-family="sans-serif" font-size="14" lengthAdjust="spacing" textLength="146" x="1157" y="418.8857">String runtime_config</text><text fill="#000000" font-family="sans-serif" font-size="14" lengthAdjust="spacing" textLength="130" x="1157" y="435.1826">String agent_name</text><line style="stroke:#181818;stroke-width:0.5;" x1="1152" x2="1336" y1="442.4844" y2="442.4844"/><text fill="#000000" font-family="sans-serif" font-size="14" lengthAdjust="spacing" textLength="174" x="1157" y="459.4795">Vec&lt;(String, String)&gt; tag</text></g><!--class RunCommands--><g id="elem_RunCommands"><rect codeLine="68" fill="#F1F1F1" height="42.5938" id="RunCommands" rx="2.5" ry="2.5" style="stroke:#181818;stroke-width:0.5;" width="113" x="1187.5" y="233"/><text fill="#000000" font-family="sans-serif" font-size="14" lengthAdjust="spacing" textLength="57" x="1215.5" y="250.9951">&#171;union&#187;</text><text fill="#000000" font-family="sans-serif" font-size="14" lengthAdjust="spacing" textLength="107" x="1190.5" y="267.292">RunCommands</text></g><!--class ApplyArgs--><g id="elem_ApplyArgs"><rect codeLine="72" fill="#F1F1F1" height="83.1875" id="ApplyArgs" rx="2.5" ry="2.5" style="stroke:#181818;stroke-width:0.5;" width="212" x="1362" y="213"/><text fill="#000000" font-family="sans-serif" font-size="14" lengthAdjust="spacing" textLength="68" x="1434" y="230.9951">ApplyArgs</text><line style="stroke:#181818;stroke-width:0.5;" x1="1363" x2="1573" y1="239.2969" y2="239.2969"/><text fill="#000000" font-family="sans-serif" font-size="14" lengthAdjust="spacing" textLength="187" x="1368" y="256.292">Vec&lt;String&gt; manifest_files</text><text fill="#000000" font-family="sans-serif" font-size="14" lengthAdjust="spacing" textLength="200" x="1368" y="272.5889">Option&lt;String&gt; agent_name</text><text fill="#000000" font-family="sans-serif" font-size="14" lengthAdjust="spacing" textLength="125" x="1368" y="288.8857">bool delete_mode</text></g><!--link Commands to Get--><g id="link_Commands_Get"><path codeLine="13" d="M886.35,34.08 C807.14,42.87 632.09,63.59 486,90 C472.89,92.37 476.7693,91.3902 463.2193,94.2602 " fill="none" id="Commands-to-Get" style="stroke:#181818;stroke-width:1.0;"/><polygon fill="none" points="445.61,97.99,464.4626,100.13,461.9761,88.3904,445.61,97.99" style="stroke:#181818;stroke-width:1.0;"/><text fill="#000000" font-family="sans-serif" font-size="13" lengthAdjust="spacing" textLength="40" x="633" y="78.0669">one of</text></g><!--link Commands to Set--><g id="link_Commands_Set"><path codeLine="14" d="M886.48,42.73 C840.37,57.07 782.9273,74.9326 726.0373,92.6326 " fill="none" id="Commands-to-Set" style="stroke:#181818;stroke-width:1.0;"/><polygon fill="none" points="708.85,97.98,727.8198,98.3617,724.2549,86.9034,708.85,97.98" style="stroke:#181818;stroke-width:1.0;"/><text fill="#000000" font-family="sans-serif" font-size="13" lengthAdjust="spacing" textLength="40" x="807" y="78.0669">one of</text></g><!--link Commands to Delete--><g id="link_Commands_Delete"><path codeLine="15" d="M929,50.14 C929,64.27 929,65.06 929,79.96 " fill="none" id="Commands-to-Delete" style="stroke:#181818;stroke-width:1.0;"/><polygon fill="none" points="929,97.96,935,79.96,923,79.96,929,97.96" style="stroke:#181818;stroke-width:1.0;"/><text fill="#000000" font-family="sans-serif" font-size="13" lengthAdjust="spacing" textLength="40" x="930" y="78.0669">one of</text></g><!--link Commands to Run--><g id="link_Commands_Run"><path codeLine="16" d="M971.81,42.73 C1018.23,57.07 1076.1524,74.9658 1133.4324,92.6658 " fill="none" id="Commands-to-Run" style="stroke:#181818;stroke-width:1.0;"/><polygon fill="none" points="1150.63,97.98,1135.2038,86.9332,1131.6609,98.3983,1150.63,97.98" style="stroke:#181818;stroke-width:1.0;"/><text fill="#000000" font-family="sans-serif" font-size="13" lengthAdjust="spacing" textLength="40" x="1098" y="78.0669">one of</text></g><!--link Commands to Apply--><g id="link_Commands_Apply"><path codeLine="17" d="M971.76,32.31 C1051.98,38.23 1230.1,54.48 1376,90 C1384.96,92.18 1377.1628,89.3622 1386.2628,92.3222 " fill="none" id="Commands-to-Apply" style="stroke:#181818;stroke-width:1.0;"/><polygon fill="none" points="1403.38,97.89,1388.1187,86.6165,1384.4068,98.0279,1403.38,97.89" style="stroke:#181818;stroke-width:1.0;"/><text fill="#000000" font-family="sans-serif" font-size="13" lengthAdjust="spacing" textLength="40" x="1341" y="78.0669">one of</text></g><!--link GetCommands to GetState--><g id="link_GetCommands_GetState"><path codeLine="34" d="M345.2,276.15 C349.01,300.77 352.6718,324.4526 357.1718,353.4726 " fill="none" id="GetCommands-to-GetState" style="stroke:#181818;stroke-width:1.0;"/><polygon fill="none" points="359.93,371.26,363.1009,352.5532,351.2426,354.392,359.93,371.26" style="stroke:#181818;stroke-width:1.0;"/><text fill="#000000" font-family="sans-serif" font-size="13" lengthAdjust="spacing" textLength="40" x="354" y="324.0669">one of</text></g><!--link GetCommands to GetWorkload--><g id="link_GetCommands_GetWorkload"><path codeLine="35" d="M310.3,276.15 C275.79,298.62 234.833,325.2964 191.443,353.5564 " fill="none" id="GetCommands-to-GetWorkload" style="stroke:#181818;stroke-width:1.0;"/><polygon fill="none" points="176.36,363.38,194.7175,358.5841,188.1685,348.5287,176.36,363.38" style="stroke:#181818;stroke-width:1.0;"/><text fill="#000000" font-family="sans-serif" font-size="13" lengthAdjust="spacing" textLength="40" x="257" y="324.0669">one of</text></g><!--link GetCommands to Get--><g id="link_GetCommands_Get"><path codeLine="44" d="M342,226.85 C342,204.04 342,185.34 342,161.07 " fill="none" id="GetCommands-Get" style="stroke:#181818;stroke-width:1.0;"/><polygon fill="#181818" points="342,232.85,346,223.85,342,227.85,338,223.85,342,232.85" style="stroke:#181818;stroke-width:1.0;"/><polygon fill="none" points="342,149.07,338,155.07,342,161.07,346,155.07,342,149.07" style="stroke:#181818;stroke-width:1.0;"/></g><!--link Get to GetCommands--><!--link SetCommands to SetState--><g id="link_SetCommands_SetState"><path codeLine="51" d="M656,276.15 C656,300.77 656,324.24 656,353.26 " fill="none" id="SetCommands-to-SetState" style="stroke:#181818;stroke-width:1.0;"/><polygon fill="none" points="656,371.26,662,353.26,650,353.26,656,371.26" style="stroke:#181818;stroke-width:1.0;"/><text fill="#000000" font-family="sans-serif" font-size="13" lengthAdjust="spacing" textLength="40" x="657" y="324.0669">one of</text></g><!--link SetCommands to Set--><g id="link_SetCommands_Set"><path codeLine="52" d="M650.6539,226.9684 C646.0539,204.1584 642.2102,185.1036 637.3202,160.8336 " fill="none" id="SetCommands-Set" style="stroke:#181818;stroke-width:1.0;"/><polygon fill="#181818" points="651.84,232.85,653.9819,223.2369,650.8516,227.9487,646.1398,224.8184,651.84,232.85" style="stroke:#181818;stroke-width:1.0;"/><polygon fill="none" points="634.95,149.07,632.2139,155.7419,637.3202,160.8336,640.0563,154.1617,634.95,149.07" style="stroke:#181818;stroke-width:1.0;"/></g><!--link Set to SetCommands--><!--link DeleteCommands to DeleteWorkload--><g id="link_DeleteCommands_DeleteWorkload"><path codeLine="58" d="M941,276.15 C941,303.16 941,332.45 941,361.33 " fill="none" id="DeleteCommands-to-DeleteWorkload" style="stroke:#181818;stroke-width:1.0;"/><polygon fill="none" points="941,379.33,947,361.33,935,361.33,941,379.33" style="stroke:#181818;stroke-width:1.0;"/><text fill="#000000" font-family="sans-serif" font-size="13" lengthAdjust="spacing" textLength="40" x="942" y="324.0669">one of</text></g><!--link DeleteCommands to Delete--><g id="link_DeleteCommands_Delete"><path codeLine="59" d="M938.5247,226.8757 C936.4047,204.0657 934.6477,185.2888 932.3977,161.0188 " fill="none" id="DeleteCommands-Delete" style="stroke:#181818;stroke-width:1.0;"/><polygon fill="#181818" points="939.08,232.85,942.2299,223.5185,938.6173,227.8715,934.2643,224.2588,939.08,232.85" style="stroke:#181818;stroke-width:1.0;"/><polygon fill="none" points="931.29,149.07,927.8609,155.4136,932.3977,161.0188,935.8268,154.6751,931.29,149.07" style="stroke:#181818;stroke-width:1.0;"/></g><!--link Delete to DeleteCommands--><!--link RunCommands to RunWorkload--><g id="link_RunCommands_RunWorkload"><path codeLine="69" d="M1244,276.15 C1244,293.44 1244,301.04 1244,324.8 " fill="none" id="RunCommands-to-RunWorkload" style="stroke:#181818;stroke-width:1.0;"/><polygon fill="none" points="1244,342.8,1250,324.8,1238,324.8,1244,342.8" style="stroke:#181818;stroke-width:1.0;"/><text fill="#000000" font-family="sans-serif" font-size="13" lengthAdjust="spacing" textLength="40" x="1245" y="324.0669">one of</text></g><!--link RunCommands to Run--><g id="link_RunCommands_Run"><path codeLine="70" d="M1241.1115,226.8852 C1238.6315,204.0752 1236.5928,185.2702 1233.9628,161.0002 " fill="none" id="RunCommands-Run" style="stroke:#181818;stroke-width:1.0;"/><polygon fill="#181818" points="1241.76,232.85,1244.7638,223.4704,1241.2196,227.8793,1236.8106,224.3351,1241.76,232.85" style="stroke:#181818;stroke-width:1.0;"/><polygon fill="none" points="1232.67,149.07,1229.3397,155.466,1233.9628,161.0002,1237.2931,154.6041,1232.67,149.07" style="stroke:#181818;stroke-width:1.0;"/></g><!--link Run to RunCommands--><!--link ApplyArgs to Apply--><g id="link_ApplyArgs_Apply"><path codeLine="77" d="M1467.6341,206.7902 C1467.4741,185.8602 1467.4234,179.0496 1467.2834,161.0696 " fill="none" id="ApplyArgs-Apply" style="stroke:#181818;stroke-width:1.0;"/><polygon fill="#181818" points="1467.68,212.79,1471.6111,203.7597,1467.6418,207.7901,1463.6113,203.8208,1467.68,212.79" style="stroke:#181818;stroke-width:1.0;"/><polygon fill="none" points="1467.19,149.07,1463.2368,155.101,1467.2834,161.0696,1471.2366,155.0387,1467.19,149.07" style="stroke:#181818;stroke-width:1.0;"/></g><!--link Apply to ApplyArgs--><!--SRC=[ZLLTRziW57tdLzprPQqq9-zJPAdQj3vM6jFsi4qHjMySBnWYWrTbM__x21WCDebQHIh7zy3zE9VBcrPKVAWHLgjr-FMevD1NgDQrhDP7peGUEhwkE3AnKeTM4A9qFrGQRZQRGRHIbEKFyK5s7HErkW6cm0D2j6nGxx67lmJCtxZn0NKCQGe_8aUDyPVFWuZX_V78J-I54Ey7Yk9VUJuLteCK278tCz7B9kVjWj4ulhJF1Z4PYVF-UDIc81i3FBk4ogq8ZHaqnt2nJ2I7bpmNraWoOCdmqTd_ztsZWFdL91_LJACLpCHhGJ1za_s1IrPxgyTN57K7fD_2jfTiqqHbyev2wqJh8AzrCTKyH_4UKsNyniT17mVzIVOTqo0jsEuiYbbViTfGtRUYAK4-_SBAa5hazRPZwc3FYxnuFKS-Qr3ehM0TNkSfMwsK4ljz7Z-xev9KDqKXxHNA24cz3lIrwKJ4N8ZRi8DZLaCwqp32XCu5eWiDwJmn6YUMjA6x3Q6bKdYzV9cuqxiLEGZHfp2U5iicct5j9kCSooTZRct895gR4rqAimoob7uGkktm5OnAYbtRv3bHnwRsSprl7UdTIBuhGRCcMyze3Fa4GoMZTPYhonh6B5l0yzWFhi8aiwS7HAO9btQ0EQVTeNATcz8kNzcOzIGbXzfgkEraROISh3OyzmoHjr_shO8zygC2BK7sZV7y1y4CIU3iPAOCt9ePOnxKizcyfnMErr31R-nrMp7EJtVsUIY-xzkwHl6pbi-YAChaDZta2F7879-F1MVMr-VNOy69vNAFnu8IqlyF]--></g></svg>