<?xml version="1.0" encoding="us-ascii" standalone="no"?><svg xmlns="http://www.w3.org/2000/svg" xmlns:xlink="http://www.w3.org/1999/xlink" contentStyleType="text/css" height="433px" preserveAspectRatio="none" style="width:1363px;height:433px;background:#FFFFFF;" version="1.1" viewBox="0 0 1363 433" width="1363px" zoomAndPan="magnify"><defs/><g><!--class Commands--><g id="elem_Commands"><rect codeLine="3" fill="#F1F1F1" height="42.5938" id="Commands" rx="2.5" ry="2.5" style="stroke:#181818;stroke-width:0.5;" width="85" x="675.5" y="7"/><text fill="#000000" font-family="sans-serif" font-size="14" lengthAdjust="spacing" textLength="57" x="689.5" y="24.9951">&#171;union&#187;</text><text fill="#000000" font-family="sans-serif" font-size="14" lengthAdjust="spacing" textLength="79" x="678.5" y="41.292">Commands</text></g><!--class Get--><g id="elem_Get"><rect codeLine="6" fill="#F1F1F1" height="50.5938" id="Get" rx="2.5" ry="2.5" style="stroke:#181818;stroke-width:0.5;" width="259" x="207.5" y="98"/><text fill="#000000" font-family="sans-serif" font-size="14" lengthAdjust="spacing" textLength="25" x="324.5" y="115.9951">Get</text><line style="stroke:#181818;stroke-width:0.5;" x1="208.5" x2="465.5" y1="124.2969" y2="124.2969"/><text fill="#000000" font-family="sans-serif" font-size="14" lengthAdjust="spacing" textLength="247" x="213.5" y="141.292">Option&lt;GetCommands&gt; command</text></g><!--class Set--><g id="elem_Set"><rect codeLine="7" fill="#F1F1F1" height="50.5938" id="Set" rx="2.5" ry="2.5" style="stroke:#181818;stroke-width:0.5;" width="257" x="496.5" y="98"/><text fill="#000000" font-family="sans-serif" font-size="14" lengthAdjust="spacing" textLength="23" x="613.5" y="115.9951">Set</text><line style="stroke:#181818;stroke-width:0.5;" x1="497.5" x2="752.5" y1="124.2969" y2="124.2969"/><text fill="#000000" font-family="sans-serif" font-size="14" lengthAdjust="spacing" textLength="245" x="502.5" y="141.292">Option&lt;SetCommands&gt; command</text></g><!--class Delete--><g id="elem_Delete"><rect codeLine="8" fill="#F1F1F1" height="50.5938" id="Delete" rx="2.5" ry="2.5" style="stroke:#181818;stroke-width:0.5;" width="280" x="784" y="98"/><text fill="#000000" font-family="sans-serif" font-size="14" lengthAdjust="spacing" textLength="46" x="901" y="115.9951">Delete</text><line style="stroke:#181818;stroke-width:0.5;" x1="785" x2="1063" y1="124.2969" y2="124.2969"/><text fill="#000000" font-family="sans-serif" font-size="14" lengthAdjust="spacing" textLength="268" x="790" y="141.292">Option&lt;DeleteCommands&gt; command</text></g><!--class Run--><g id="elem_Run"><rect codeLine="9" fill="#F1F1F1" height="50.5938" id="Run" rx="2.5" ry="2.5" style="stroke:#181818;stroke-width:0.5;" width="262" x="1094" y="98"/><text fill="#000000" font-family="sans-serif" font-size="14" lengthAdjust="spacing" textLength="28" x="1211" y="115.9951">Run</text><line style="stroke:#181818;stroke-width:0.5;" x1="1095" x2="1355" y1="124.2969" y2="124.2969"/><text fill="#000000" font-family="sans-serif" font-size="14" lengthAdjust="spacing" textLength="250" x="1100" y="141.292">Option&lt;RunCommands&gt; command</text></g><!--class GetState--><g id="elem_GetState"><rect codeLine="26" fill="#F1F1F1" height="66.8906" id="GetState" rx="2.5" ry="2.5" style="stroke:#181818;stroke-width:0.5;" width="228" x="251" y="331.5"/><text fill="#000000" font-family="sans-serif" font-size="14" lengthAdjust="spacing" textLength="36" x="347" y="349.4951">State</text><line style="stroke:#181818;stroke-width:0.5;" x1="252" x2="478" y1="357.7969" y2="357.7969"/><text fill="#000000" font-family="sans-serif" font-size="14" lengthAdjust="spacing" textLength="197" x="257" y="374.792">OutputFormat output_format</text><text fill="#000000" font-family="sans-serif" font-size="14" lengthAdjust="spacing" textLength="216" x="257" y="391.0889">Vec&lt;String&gt; object_field_mask</text></g><!--class GetWorkload--><g id="elem_GetWorkload"><rect codeLine="27" fill="#F1F1F1" height="83.1875" id="GetWorkload" rx="2.5" ry="2.5" style="stroke:#181818;stroke-width:0.5;" width="214" x="7" y="323.5"/><text fill="#000000" font-family="sans-serif" font-size="14" lengthAdjust="spacing" textLength="64" x="82" y="341.4951">Workload</text><line style="stroke:#181818;stroke-width:0.5;" x1="8" x2="220" y1="349.7969" y2="349.7969"/><text fill="#000000" font-family="sans-serif" font-size="14" lengthAdjust="spacing" textLength="200" x="13" y="366.792">Option&lt;String&gt; agent_name</text><text fill="#000000" font-family="sans-serif" font-size="14" lengthAdjust="spacing" textLength="149" x="13" y="383.0889">Option&lt;String&gt; state</text><text fill="#000000" font-family="sans-serif" font-size="14" lengthAdjust="spacing" textLength="202" x="13" y="399.3857">Vec&lt;String&gt; workload_name</text></g><!--class GetCommands--><g id="elem_GetCommands"><rect codeLine="30" fill="#F1F1F1" height="42.5938" id="GetCommands" rx="2.5" ry="2.5" style="stroke:#181818;stroke-width:0.5;" width="110" x="263" y="213"/><text fill="#000000" font-family="sans-serif" font-size="14" lengthAdjust="spacing" textLength="57" x="289.5" y="230.9951">&#171;union&#187;</text><text fill="#000000" font-family="sans-serif" font-size="14" lengthAdjust="spacing" textLength="104" x="266" y="247.292">GetCommands</text></g><!--class SetState--><g id="elem_SetState"><rect codeLine="43" fill="#F1F1F1" height="66.8906" id="SetState" rx="2.5" ry="2.5" style="stroke:#181818;stroke-width:0.5;" width="237" x="515.5" y="331.5"/><text fill="#000000" font-family="sans-serif" font-size="14" lengthAdjust="spacing" textLength="36" x="616" y="349.4951">State</text><line style="stroke:#181818;stroke-width:0.5;" x1="516.5" x2="751.5" y1="357.7969" y2="357.7969"/><text fill="#000000" font-family="sans-serif" font-size="14" lengthAdjust="spacing" textLength="216" x="521.5" y="374.792">Vec&lt;String&gt; object_field_mask</text><text fill="#000000" font-family="sans-serif" font-size="14" lengthAdjust="spacing" textLength="225" x="521.5" y="391.0889">Option&lt;String&gt; state_object_file</text></g><!--class SetCommands--><g id="elem_SetCommands"><rect codeLine="47" fill="#F1F1F1" height="42.5938" id="SetCommands" rx="2.5" ry="2.5" style="stroke:#181818;stroke-width:0.5;" width="108" x="580" y="213"/><text fill="#000000" font-family="sans-serif" font-size="14" lengthAdjust="spacing" textLength="57" x="605.5" y="230.9951">&#171;union&#187;</text><text fill="#000000" font-family="sans-serif" font-size="14" lengthAdjust="spacing" textLength="102" x="583" y="247.292">SetCommands</text></g><!--class DeleteWorkload--><g id="elem_DeleteWorkload"><rect codeLine="51" fill="#F1F1F1" height="50.5938" id="DeleteWorkload" rx="2.5" ry="2.5" style="stroke:#181818;stroke-width:0.5;" width="214" x="827" y="339.5"/><text fill="#000000" font-family="sans-serif" font-size="14" lengthAdjust="spacing" textLength="64" x="902" y="357.4951">Workload</text><line style="stroke:#181818;stroke-width:0.5;" x1="828" x2="1040" y1="365.7969" y2="365.7969"/><text fill="#000000" font-family="sans-serif" font-size="14" lengthAdjust="spacing" textLength="202" x="833" y="382.792">Vec&lt;String&gt; workload_name</text></g><!--class DeleteCommands--><g id="elem_DeleteCommands"><rect codeLine="54" fill="#F1F1F1" height="42.5938" id="DeleteCommands" rx="2.5" ry="2.5" style="stroke:#181818;stroke-width:0.5;" width="131" x="868.5" y="213"/><text fill="#000000" font-family="sans-serif" font-size="14" lengthAdjust="spacing" textLength="57" x="905.5" y="230.9951">&#171;union&#187;</text><text fill="#000000" font-family="sans-serif" font-size="14" lengthAdjust="spacing" textLength="125" x="871.5" y="247.292">DeleteCommands</text></g><!--class RunWorkload--><g id="elem_RunWorkload"><rect codeLine="58" fill="#F1F1F1" height="123.7813" id="RunWorkload" rx="2.5" ry="2.5" style="stroke:#181818;stroke-width:0.5;" width="186" x="1132" y="303"/><text fill="#000000" font-family="sans-serif" font-size="14" lengthAdjust="spacing" textLength="64" x="1193" y="320.9951">Workload</text><line style="stroke:#181818;stroke-width:0.5;" x1="1133" x2="1317" y1="329.2969" y2="329.2969"/><text fill="#000000" font-family="sans-serif" font-size="14" lengthAdjust="spacing" textLength="152" x="1138" y="346.292">String workload_name</text><text fill="#000000" font-family="sans-serif" font-size="14" lengthAdjust="spacing" textLength="143" x="1138" y="362.5889">String runtime_name</text><text fill="#000000" font-family="sans-serif" font-size="14" lengthAdjust="spacing" textLength="146" x="1138" y="378.8857">String runtime_config</text><text fill="#000000" font-family="sans-serif" font-size="14" lengthAdjust="spacing" textLength="130" x="1138" y="395.1826">String agent_name</text><line style="stroke:#181818;stroke-width:0.5;" x1="1133" x2="1317" y1="402.4844" y2="402.4844"/><text fill="#000000" font-family="sans-serif" font-size="14" lengthAdjust="spacing" textLength="174" x="1138" y="419.4795">Vec&lt;(String, String)&gt; tag</text></g><!--class RunCommands--><g id="elem_RunCommands"><rect codeLine="65" fill="#F1F1F1" height="42.5938" id="RunCommands" rx="2.5" ry="2.5" style="stroke:#181818;stroke-width:0.5;" width="113" x="1168.5" y="213"/><text fill="#000000" font-family="sans-serif" font-size="14" lengthAdjust="spacing" textLength="57" x="1196.5" y="230.9951">&#171;union&#187;</text><text fill="#000000" font-family="sans-serif" font-size="14" lengthAdjust="spacing" textLength="107" x="1171.5" y="247.292">RunCommands</text></g><!--link Commands to Get--><g id="link_Commands_Get"><path codeLine="12" d="M675.4,39.9 C618.31,53.83 532.6963,74.7306 455.2463,93.6406 " fill="none" id="Commands-to-Get" style="stroke:#181818;stroke-width:1.0;"/><polygon fill="none" points="437.76,97.91,456.6695,99.4694,453.8232,87.8118,437.76,97.91" style="stroke:#181818;stroke-width:1.0;"/><text fill="#000000" font-family="sans-serif" font-size="13" lengthAdjust="spacing" textLength="40" x="563" y="78.0669">one of</text></g><!--link Commands to Set--><g id="link_Commands_Set"><path codeLine="13" d="M697.36,50.14 C683.23,64.27 677.1679,70.3321 662.2679,85.2321 " fill="none" id="Commands-to-Set" style="stroke:#181818;stroke-width:1.0;"/><polygon fill="none" points="649.54,97.96,666.5106,89.4747,658.0253,80.9894,649.54,97.96" style="stroke:#181818;stroke-width:1.0;"/><text fill="#000000" font-family="sans-serif" font-size="13" lengthAdjust="spacing" textLength="40" x="680" y="78.0669">one of</text></g><!--link Commands to Delete--><g id="link_Commands_Delete"><path codeLine="14" d="M760.68,48.77 C792.27,63.03 819.1242,75.154 853.1942,90.534 " fill="none" id="Commands-to-Delete" style="stroke:#181818;stroke-width:1.0;"/><polygon fill="none" points="869.6,97.94,855.6628,85.0654,850.7255,96.0026,869.6,97.94" style="stroke:#181818;stroke-width:1.0;"/><text fill="#000000" font-family="sans-serif" font-size="13" lengthAdjust="spacing" textLength="40" x="834" y="78.0669">one of</text></g><!--link Commands to Run--><g id="link_Commands_Run"><path codeLine="15" d="M760.65,35.9 C828.32,46.22 964.39,67.66 1079,90 C1091.62,92.46 1087.2088,91.4122 1100.2888,94.2122 " fill="none" id="Commands-to-Run" style="stroke:#181818;stroke-width:1.0;"/><polygon fill="none" points="1117.89,97.98,1101.5447,88.3451,1099.0328,100.0792,1117.89,97.98" style="stroke:#181818;stroke-width:1.0;"/><text fill="#000000" font-family="sans-serif" font-size="13" lengthAdjust="spacing" textLength="40" x="1031" y="78.0669">one of</text></g><!--link GetCommands to GetState--><g id="link_GetCommands_GetState"><path codeLine="31" d="M325.55,256.15 C332.97,276.44 338.2294,290.8044 346.8794,314.4644 " fill="none" id="GetCommands-to-GetState" style="stroke:#181818;stroke-width:1.0;"/><polygon fill="none" points="353.06,331.37,352.5146,312.4042,341.2442,316.5246,353.06,331.37" style="stroke:#181818;stroke-width:1.0;"/><text fill="#000000" font-family="sans-serif" font-size="13" lengthAdjust="spacing" textLength="40" x="337" y="284.0669">one of</text></g><!--link GetCommands to GetWorkload--><g id="link_GetCommands_GetWorkload"><path codeLine="32" d="M285.22,256.15 C256.5,274.24 229.1511,291.4677 193.6311,313.8377 " fill="none" id="GetCommands-to-GetWorkload" style="stroke:#181818;stroke-width:1.0;"/><polygon fill="none" points="178.4,323.43,196.8286,318.9147,190.4337,308.7606,178.4,323.43" style="stroke:#181818;stroke-width:1.0;"/><text fill="#000000" font-family="sans-serif" font-size="13" lengthAdjust="spacing" textLength="40" x="259" y="284.0669">one of</text></g><!--link GetCommands to Get--><g id="link_GetCommands_Get"><path codeLine="41" d="M326.924,206.906 C328.364,202.136 328,202.8 329,198 C332.34,181.91 333.3738,175.501 334.5338,161.141 " fill="none" id="GetCommands-Get" style="stroke:#181818;stroke-width:1.0;"/><polygon fill="#181818" points="325.19,212.65,331.6204,205.1901,326.635,207.8634,323.9617,202.878,325.19,212.65" style="stroke:#181818;stroke-width:1.0;"/><polygon fill="none" points="335.5,149.18,331.0299,154.8384,334.5338,161.141,339.0039,155.4826,335.5,149.18" style="stroke:#181818;stroke-width:1.0;"/></g><!--link Get to GetCommands--><!--link SetCommands to SetState--><g id="link_SetCommands_SetState"><path codeLine="48" d="M634,256.15 C634,276.44 634,289.71 634,313.37 " fill="none" id="SetCommands-to-SetState" style="stroke:#181818;stroke-width:1.0;"/><polygon fill="none" points="634,331.37,640,313.37,628,313.37,634,331.37" style="stroke:#181818;stroke-width:1.0;"/><text fill="#000000" font-family="sans-serif" font-size="13" lengthAdjust="spacing" textLength="40" x="635" y="284.0669">one of</text></g><!--link SetCommands to Set--><g id="link_SetCommands_Set"><path codeLine="49" d="M631.8042,206.9105 C630.3042,188.8205 629.6193,180.4091 628.0293,161.1891 " fill="none" id="SetCommands-Set" style="stroke:#181818;stroke-width:1.0;"/><polygon fill="#181818" points="632.3,212.89,635.5426,203.5902,631.8868,207.9071,627.57,204.2513,632.3,212.89" style="stroke:#181818;stroke-width:1.0;"/><polygon fill="none" points="627.04,149.23,623.5483,155.5394,628.0293,161.1891,631.5211,154.8798,627.04,149.23" style="stroke:#181818;stroke-width:1.0;"/></g><!--link Set to SetCommands--><!--link DeleteCommands to DeleteWorkload--><g id="link_DeleteCommands_DeleteWorkload"><path codeLine="55" d="M934,256.15 C934,278.85 934,297.3 934,321.45 " fill="none" id="DeleteCommands-to-DeleteWorkload" style="stroke:#181818;stroke-width:1.0;"/><polygon fill="none" points="934,339.45,940,321.45,928,321.45,934,339.45" style="stroke:#181818;stroke-width:1.0;"/><text fill="#000000" font-family="sans-serif" font-size="13" lengthAdjust="spacing" textLength="40" x="935" y="284.0669">one of</text></g><!--link DeleteCommands to Delete--><g id="link_DeleteCommands_Delete"><path codeLine="56" d="M931.5617,206.9151 C929.9017,188.8251 929.1243,180.4 927.3643,161.18 " fill="none" id="DeleteCommands-Delete" style="stroke:#181818;stroke-width:1.0;"/><polygon fill="#181818" points="932.11,212.89,935.2708,203.5621,931.6531,207.9109,927.3043,204.2932,932.11,212.89" style="stroke:#181818;stroke-width:1.0;"/><polygon fill="none" points="926.27,149.23,922.8338,155.5698,927.3643,161.18,930.8005,154.8402,926.27,149.23" style="stroke:#181818;stroke-width:1.0;"/></g><!--link Delete to DeleteCommands--><!--link RunCommands to RunWorkload--><g id="link_RunCommands_RunWorkload"><path codeLine="66" d="M1225,256.15 C1225,268.92 1225,268.04 1225,284.87 " fill="none" id="RunCommands-to-RunWorkload" style="stroke:#181818;stroke-width:1.0;"/><polygon fill="none" points="1225,302.87,1231,284.87,1219,284.87,1225,302.87" style="stroke:#181818;stroke-width:1.0;"/><text fill="#000000" font-family="sans-serif" font-size="13" lengthAdjust="spacing" textLength="40" x="1226" y="284.0669">one of</text></g><!--link RunCommands to Run--><g id="link_RunCommands_Run"><path codeLine="67" d="M1225,206.89 C1225,188.8 1225,180.45 1225,161.23 " fill="none" id="RunCommands-Run" style="stroke:#181818;stroke-width:1.0;"/><polygon fill="#181818" points="1225,212.89,1229,203.89,1225,207.89,1221,203.89,1225,212.89" style="stroke:#181818;stroke-width:1.0;"/><polygon fill="none" points="1225,149.23,1221,155.23,1225,161.23,1229,155.23,1225,149.23" style="stroke:#181818;stroke-width:1.0;"/></g><!--link Run to RunCommands--><!--SRC=[ZLN1RjmW4Btp5JIN9bAzUwyiNnernqWbIWzjjQ9uraiNmyhWHccRVoy6mu9DLbdjWSSyPdWpm_WTbqoCBU3DPXl_0sWr3WpqjbLiUn9Kch4NMoQ0oeq-SecGDiF83Bwgwr5o9Plck_oa-fxALbzXgd4021dLWJd0WFyYR7_pmJimAIGvl0K11jATBwD4BmW5jxYg_ZMJ4_mHAmbOxHScyhh9Et_5QEESpo4VuFvahCJQWi1jCFChH586AJ5yk3F9upNFHvv95gmPCUd4K0CkpVPE3aJJLpKSXQ9ji0PyeGxUGRuNZxqKIvsa8WIA1K_MiKekn3cl9Kg8c6S_7BmVpMaqdzNGKuEL0xkzGodh4LXDpC1brs3rynSmI-8WsbrFzT7vIwA4ciryse4qEqbxkCpJBbiv9OtxD6zxLvdKkggKQ_n28Kce0tchd8HOkk8kdX1Gh25Pr331Y2mBH5Or94jX91MMjQ7l-DXIERoSliAzy_UJ18Ytps7wwDTDjk0w9VFqAOknBpCgITRMevUmK52a3ACql8StC9YIUzwLEKd7vlOfdzUUz64ctpJOqAwOpsJK184nayawZiTr3bEMI-0qhD7xXmFN-03YfB5HM0qTbVmFO3k3iA3FzX7ZQ_k4xLTcCjkF38EvopN-3OFXZ0hnVECcRFNjmDiMv8zMFScgQh9clIiHqeaqJ-0LPz4sqm1USH9j_m40]--></g></svg>