<?xml version="1.0" encoding="UTF-8" standalone="no"?><svg xmlns="http://www.w3.org/2000/svg" xmlns:xlink="http://www.w3.org/1999/xlink" contentStyleType="text/css" height="479px" preserveAspectRatio="none" style="width:625px;height:479px;background:#FFFFFF;" version="1.1" viewBox="0 0 625 479" width="625px" zoomAndPan="magnify"><defs/><g><rect fill="#EEEEEE" height="467.9688" style="stroke:#D3D3D3;stroke-width:0.5;" width="430.5" x="21" y="6"/><text fill="#000000" font-family="sans-serif" font-size="13" font-weight="bold" lengthAdjust="spacing" textLength="91" x="190.75" y="18.0669">Ankaios Ank</text><rect fill="#EEEEEE" height="467.9688" style="stroke:#D3D3D3;stroke-width:0.5;" width="134" x="483.5" y="6"/><text fill="#000000" font-family="sans-serif" font-size="13" font-weight="bold" lengthAdjust="spacing" textLength="110" x="495.5" y="18.0669">Ankaios Server</text><rect fill="none" height="69.2656" style="stroke:#000000;stroke-width:1.5;" width="324" x="133.5" y="339.5703"/><line style="stroke:#181818;stroke-width:0.5;stroke-dasharray:5.0,5.0;" x1="43.5" x2="43.5" y1="101.4297" y2="181.6953"/><line style="stroke:#383838;stroke-width:1.0;stroke-dasharray:1.0,4.0;" x1="43.5" x2="43.5" y1="181.6953" y2="222.5"/><line style="stroke:#181818;stroke-width:0.5;stroke-dasharray:5.0,5.0;" x1="43.5" x2="43.5" y1="222.5" y2="294.7656"/><line style="stroke:#383838;stroke-width:1.0;stroke-dasharray:1.0,4.0;" x1="43.5" x2="43.5" y1="294.7656" y2="335.5703"/><line style="stroke:#181818;stroke-width:0.5;stroke-dasharray:5.0,5.0;" x1="43.5" x2="43.5" y1="335.5703" y2="467.9688"/><line style="stroke:#181818;stroke-width:0.5;stroke-dasharray:5.0,5.0;" x1="149.5" x2="149.5" y1="101.4297" y2="181.6953"/><line style="stroke:#383838;stroke-width:1.0;stroke-dasharray:1.0,4.0;" x1="149.5" x2="149.5" y1="181.6953" y2="222.5"/><line style="stroke:#181818;stroke-width:0.5;stroke-dasharray:5.0,5.0;" x1="149.5" x2="149.5" y1="222.5" y2="294.7656"/><line style="stroke:#383838;stroke-width:1.0;stroke-dasharray:1.0,4.0;" x1="149.5" x2="149.5" y1="294.7656" y2="335.5703"/><line style="stroke:#181818;stroke-width:0.5;stroke-dasharray:5.0,5.0;" x1="149.5" x2="149.5" y1="335.5703" y2="467.9688"/><rect fill="#FFFFFF" height="51.1328" style="stroke:#FFFFFF;stroke-width:1.0;" width="10" x="144.5" y="130.5625"/><line style="stroke:#181818;stroke-width:1.0;" x1="144.5" x2="144.5" y1="130.5625" y2="181.6953"/><line style="stroke:#181818;stroke-width:1.0;" x1="154.5" x2="154.5" y1="130.5625" y2="181.6953"/><line style="stroke:#181818;stroke-width:1.0;" x1="144.5" x2="154.5" y1="130.5625" y2="130.5625"/><rect fill="#FFFFFF" height="72.2656" style="stroke:#FFFFFF;stroke-width:1.0;" width="10" x="144.5" y="222.5"/><line style="stroke:#181818;stroke-width:1.0;" x1="144.5" x2="144.5" y1="222.5" y2="294.7656"/><line style="stroke:#181818;stroke-width:1.0;" x1="154.5" x2="154.5" y1="222.5" y2="294.7656"/><rect fill="#FFFFFF" height="108.3984" style="stroke:#FFFFFF;stroke-width:1.0;" width="10" x="144.5" y="335.5703"/><line style="stroke:#181818;stroke-width:1.0;" x1="144.5" x2="144.5" y1="335.5703" y2="443.9688"/><line style="stroke:#181818;stroke-width:1.0;" x1="154.5" x2="154.5" y1="335.5703" y2="443.9688"/><line style="stroke:#181818;stroke-width:1.0;" x1="144.5" x2="154.5" y1="443.9688" y2="443.9688"/><line style="stroke:#181818;stroke-width:0.5;stroke-dasharray:5.0,5.0;" x1="313.5" x2="313.5" y1="101.4297" y2="181.6953"/><line style="stroke:#383838;stroke-width:1.0;stroke-dasharray:1.0,4.0;" x1="313.5" x2="313.5" y1="181.6953" y2="222.5"/><line style="stroke:#181818;stroke-width:0.5;stroke-dasharray:5.0,5.0;" x1="313.5" x2="313.5" y1="222.5" y2="294.7656"/><line style="stroke:#383838;stroke-width:1.0;stroke-dasharray:1.0,4.0;" x1="313.5" x2="313.5" y1="294.7656" y2="335.5703"/><line style="stroke:#181818;stroke-width:0.5;stroke-dasharray:5.0,5.0;" x1="313.5" x2="313.5" y1="335.5703" y2="467.9688"/><line style="stroke:#181818;stroke-width:0.5;stroke-dasharray:5.0,5.0;" x1="393" x2="393" y1="101.4297" y2="181.6953"/><line style="stroke:#383838;stroke-width:1.0;stroke-dasharray:1.0,4.0;" x1="393" x2="393" y1="181.6953" y2="222.5"/><line style="stroke:#181818;stroke-width:0.5;stroke-dasharray:5.0,5.0;" x1="393" x2="393" y1="222.5" y2="294.7656"/><line style="stroke:#383838;stroke-width:1.0;stroke-dasharray:1.0,4.0;" x1="393" x2="393" y1="294.7656" y2="335.5703"/><line style="stroke:#181818;stroke-width:0.5;stroke-dasharray:5.0,5.0;" x1="393" x2="393" y1="335.5703" y2="467.9688"/><line style="stroke:#181818;stroke-width:0.5;stroke-dasharray:5.0,5.0;" x1="550.5" x2="550.5" y1="101.4297" y2="181.6953"/><line style="stroke:#383838;stroke-width:1.0;stroke-dasharray:1.0,4.0;" x1="550.5" x2="550.5" y1="181.6953" y2="222.5"/><line style="stroke:#181818;stroke-width:0.5;stroke-dasharray:5.0,5.0;" x1="550.5" x2="550.5" y1="222.5" y2="294.7656"/><line style="stroke:#383838;stroke-width:1.0;stroke-dasharray:1.0,4.0;" x1="550.5" x2="550.5" y1="294.7656" y2="335.5703"/><line style="stroke:#181818;stroke-width:0.5;stroke-dasharray:5.0,5.0;" x1="550.5" x2="550.5" y1="335.5703" y2="467.9688"/><text fill="#000000" font-family="sans-serif" font-size="14" lengthAdjust="spacing" textLength="31" x="25" y="98.1279">user</text><ellipse cx="43.5" cy="33.6328" fill="#E3E3E3" rx="8" ry="8" style="stroke:#181818;stroke-width:0.5;"/><path d="M43.5,41.6328 L43.5,68.6328 M30.5,49.6328 L56.5,49.6328 M43.5,68.6328 L30.5,83.6328 M43.5,68.6328 L56.5,83.6328 " fill="none" style="stroke:#181818;stroke-width:0.5;"/><rect fill="#E3E3E3" height="30.2969" rx="2.5" ry="2.5" style="stroke:#181818;stroke-width:0.5;" width="46" x="126.5" y="70.1328"/><text fill="#000000" font-family="sans-serif" font-size="14" lengthAdjust="spacing" textLength="32" x="133.5" y="90.1279">Main</text><rect fill="#E3E3E3" height="30.2969" rx="2.5" ry="2.5" style="stroke:#181818;stroke-width:0.5;" width="30" x="298.5" y="70.1328"/><text fill="#000000" font-family="sans-serif" font-size="14" lengthAdjust="spacing" textLength="16" x="305.5" y="90.1279">Cli</text><rect fill="#E3E3E3" height="30.2969" rx="2.5" ry="2.5" style="stroke:#181818;stroke-width:0.5;" width="109" x="338.5" y="70.1328"/><text fill="#000000" font-family="sans-serif" font-size="14" lengthAdjust="spacing" textLength="95" x="345.5" y="90.1279">CliCommands</text><rect fill="#E3E3E3" height="30.2969" rx="2.5" ry="2.5" style="stroke:#181818;stroke-width:0.5;" width="116" x="492.5" y="70.1328"/><text fill="#000000" font-family="sans-serif" font-size="14" lengthAdjust="spacing" textLength="102" x="499.5" y="90.1279">Ankaios Server</text><polygon fill="#181818" points="132.5,126.5625,142.5,130.5625,132.5,134.5625" style="stroke:#181818;stroke-width:1.0;"/><line style="stroke:#181818;stroke-width:1.0;" x1="43.5" x2="138.5" y1="130.5625" y2="130.5625"/><text fill="#000000" font-family="sans-serif" font-size="13" lengthAdjust="spacing" textLength="77" x="50.5" y="125.4966">a command</text><rect fill="#EEEEEE" height="3" style="stroke:#EEEEEE;stroke-width:1.0;" width="613.5" x="5" y="159.1289"/><line style="stroke:#000000;stroke-width:1.0;" x1="5" x2="618.5" y1="159.1289" y2="159.1289"/><line style="stroke:#000000;stroke-width:1.0;" x1="5" x2="618.5" y1="162.1289" y2="162.1289"/><rect fill="#EEEEEE" height="23.1328" style="stroke:#000000;stroke-width:2.0;" width="73" x="275.25" y="148.5625"/><text fill="#000000" font-family="sans-serif" font-size="13" font-weight="bold" lengthAdjust="spacing" textLength="54" x="281.25" y="164.6294">startup</text><text fill="#000000" font-family="sans-serif" font-size="11" lengthAdjust="spacing" textLength="334" x="130" y="205.9058">parse the user input and initialize connection to the server</text><rect fill="#EEEEEE" height="3" style="stroke:#EEEEEE;stroke-width:1.0;" width="613.5" x="5" y="243.0664"/><line style="stroke:#000000;stroke-width:1.0;" x1="5" x2="618.5" y1="243.0664" y2="243.0664"/><line style="stroke:#000000;stroke-width:1.0;" x1="5" x2="618.5" y1="246.0664" y2="246.0664"/><rect fill="#EEEEEE" height="23.1328" style="stroke:#000000;stroke-width:2.0;" width="92" x="265.75" y="232.5"/><text fill="#000000" font-family="sans-serif" font-size="13" font-weight="bold" lengthAdjust="spacing" textLength="73" x="271.75" y="248.5669">command</text><polygon fill="#181818" points="381,282.7656,391,286.7656,381,290.7656" style="stroke:#181818;stroke-width:1.0;"/><line style="stroke:#181818;stroke-width:1.0;" x1="154.5" x2="387" y1="286.7656" y2="286.7656"/><text fill="#000000" font-family="sans-serif" font-size="13" lengthAdjust="spacing" textLength="170" x="161.5" y="281.6997">command implementation</text><text fill="#000000" font-family="sans-serif" font-size="11" lengthAdjust="spacing" textLength="217" x="188.5" y="318.9761">call server and process the command</text><path d="M133.5,339.5703 L197.5,339.5703 L197.5,346.7031 L187.5,356.7031 L133.5,356.7031 L133.5,339.5703 " fill="#EEEEEE" style="stroke:#000000;stroke-width:1.5;"/><rect fill="none" height="69.2656" style="stroke:#000000;stroke-width:1.5;" width="324" x="133.5" y="339.5703"/><text fill="#000000" font-family="sans-serif" font-size="13" font-weight="bold" lengthAdjust="spacing" textLength="19" x="148.5" y="352.6372">alt</text><text fill="#000000" font-family="sans-serif" font-size="11" font-weight="bold" lengthAdjust="spacing" textLength="229" x="212.5" y="351.7808">[a command returns text to display]</text><line style="stroke:#181818;stroke-width:1.0;" x1="154.5" x2="196.5" y1="387.8359" y2="387.8359"/><line style="stroke:#181818;stroke-width:1.0;" x1="196.5" x2="196.5" y1="387.8359" y2="400.8359"/><line style="stroke:#181818;stroke-width:1.0;" x1="155.5" x2="196.5" y1="400.8359" y2="400.8359"/><polygon fill="#181818" points="165.5,396.8359,155.5,400.8359,165.5,404.8359" style="stroke:#181818;stroke-width:1.0;"/><text fill="#000000" font-family="sans-serif" font-size="13" lengthAdjust="spacing" textLength="145" x="161.5" y="382.77">print text to the stdout</text><polygon fill="#181818" points="54.5,439.9688,44.5,443.9688,54.5,447.9688" style="stroke:#181818;stroke-width:1.0;"/><line style="stroke:#181818;stroke-width:1.0;" x1="48.5" x2="143.5" y1="443.9688" y2="443.9688"/><text fill="#000000" font-family="sans-serif" font-size="13" lengthAdjust="spacing" textLength="23" x="60.5" y="438.9028">exit</text><path d="M159.5,427.8359 L159.5,452.8359 L495.5,452.8359 L495.5,437.8359 L485.5,427.8359 L159.5,427.8359 " fill="#FFFFFF" style="stroke:#181818;stroke-width:0.5;"/><path d="M485.5,427.8359 L485.5,437.8359 L495.5,437.8359 L485.5,427.8359 " fill="#FFFFFF" style="stroke:#181818;stroke-width:0.5;"/><text fill="#000000" font-family="sans-serif" font-size="13" lengthAdjust="spacing" textLength="315" x="165.5" y="444.9028">terminate the connection and exit the application</text><!--MD5=[52a1d78942cd79f2d6d92ec08c54259a]
@startuml seq_cmd_overview
!include ../../../../doc/plantuml/clean.skin

box "Ankaios Ank"
    actor "user" as user
    participant Main as main
    participant "Cli" as cli
    participant "CliCommands" as cli_commands
end box

box "Ankaios Server"
    participant "Ankaios Server" as server
end box

user-> main ++ : a command

== startup ==
... parse the user input and initialize connection to the server ...

== command ==

main -> cli_commands : command implementation
... call server and process the command ...

alt a command returns text to display
    main -> main : print text to the stdout
end

user <- main - - : exit
note right: terminate the connection and exit the application

@enduml

@startuml seq_cmd_overview
skinparam monochrome true
skinparam guillemet true
skinparam style strictuml
hide empty members
hide empty methods

skinparam class {
    BorderColor<<logical entity>> grey
    FontColor<<logical entity>> grey
    StereotypeFontColor<<logical entity>> grey
}

skinparam sequenceBox {
    BorderColor #LightGrey
    BackgroundColor #EEEEEE
    FontColor #777777
}

skinparam BoxPadding 10

skinparam note {
    BackgroundColor #FFFFFF
}

skinparam nodesep 30
skinparam ranksep 30

!pragma teoz true

box "Ankaios Ank"
    actor "user" as user
    participant Main as main
    participant "Cli" as cli
    participant "CliCommands" as cli_commands
end box

box "Ankaios Server"
    participant "Ankaios Server" as server
end box

user-> main ++ : a command

== startup ==
... parse the user input and initialize connection to the server ...

== command ==

main -> cli_commands : command implementation
... call server and process the command ...

alt a command returns text to display
    main -> main : print text to the stdout
end

user <- main - - : exit
note right: terminate the connection and exit the application

@enduml

PlantUML version 1.2022.7(Mon Aug 22 17:01:30 UTC 2022)
(GPL source distribution)
Java Runtime: OpenJDK Runtime Environment
JVM: OpenJDK 64-Bit Server VM
Default Encoding: ANSI_X3.4-1968
Language: en
Country: US
--></g></svg>