<?xml version="1.0" encoding="us-ascii" standalone="no"?><svg xmlns="http://www.w3.org/2000/svg" xmlns:xlink="http://www.w3.org/1999/xlink" contentStyleType="text/css" height="787px" preserveAspectRatio="none" style="width:1204px;height:787px;background:#FFFFFF;" version="1.1" viewBox="0 0 1204 787" width="1204px" zoomAndPan="magnify"><defs/><g><rect fill="#EEEEEE" height="768.5313" style="stroke:#D3D3D3;stroke-width:0.5;" width="1029" x="11" y="6"/><text fill="#777777" font-family="sans-serif" font-size="13" font-weight="bold" lengthAdjust="spacing" textLength="91" x="480" y="18.0669">Ankaios Ank</text><rect fill="#EEEEEE" height="768.5313" style="stroke:#D3D3D3;stroke-width:0.5;" width="124" x="1062" y="6"/><text fill="#777777" font-family="sans-serif" font-size="13" font-weight="bold" lengthAdjust="spacing" textLength="110" x="1069" y="18.0669">Ankaios Server</text><rect fill="#FFFFFF" height="597.1641" style="stroke:#FFFFFF;stroke-width:1.0;" width="10" x="129.5" y="132.5625"/><line style="stroke:#181818;stroke-width:1.0;" x1="129.5" x2="129.5" y1="132.5625" y2="729.7266"/><line style="stroke:#181818;stroke-width:1.0;" x1="139.5" x2="139.5" y1="132.5625" y2="729.7266"/><line style="stroke:#181818;stroke-width:1.0;" x1="129.5" x2="139.5" y1="132.5625" y2="132.5625"/><rect fill="#FFFFFF" height="1" style="stroke:#FFFFFF;stroke-width:1.0;" width="10" x="129.5" y="770.5313"/><line style="stroke:#181818;stroke-width:1.0;" x1="129.5" x2="129.5" y1="770.5313" y2="771.5313"/><line style="stroke:#181818;stroke-width:1.0;" x1="139.5" x2="139.5" y1="770.5313" y2="771.5313"/><rect fill="#FFFFFF" height="14" style="stroke:#181818;stroke-width:1.0;" width="10" x="194.5" y="246.125"/><rect fill="#FFFFFF" height="31.2969" style="stroke:#181818;stroke-width:1.0;" width="10" x="274" y="299.2578"/><rect fill="#FFFFFF" height="318.4453" style="stroke:#FFFFFF;stroke-width:1.0;" width="10" x="580" y="411.2813"/><line style="stroke:#181818;stroke-width:1.0;" x1="580" x2="580" y1="411.2813" y2="729.7266"/><line style="stroke:#181818;stroke-width:1.0;" x1="590" x2="590" y1="411.2813" y2="729.7266"/><line style="stroke:#181818;stroke-width:1.0;" x1="580" x2="590" y1="411.2813" y2="411.2813"/><rect fill="#FFFFFF" height="1" style="stroke:#FFFFFF;stroke-width:1.0;" width="10" x="580" y="770.5313"/><line style="stroke:#181818;stroke-width:1.0;" x1="580" x2="580" y1="770.5313" y2="771.5313"/><line style="stroke:#181818;stroke-width:1.0;" x1="590" x2="590" y1="770.5313" y2="771.5313"/><rect fill="#FFFFFF" height="187.2891" style="stroke:#FFFFFF;stroke-width:1.0;" width="10" x="811" y="542.4375"/><line style="stroke:#181818;stroke-width:1.0;" x1="811" x2="811" y1="542.4375" y2="729.7266"/><line style="stroke:#181818;stroke-width:1.0;" x1="821" x2="821" y1="542.4375" y2="729.7266"/><line style="stroke:#181818;stroke-width:1.0;" x1="811" x2="821" y1="542.4375" y2="542.4375"/><rect fill="#FFFFFF" height="1" style="stroke:#FFFFFF;stroke-width:1.0;" width="10" x="811" y="770.5313"/><line style="stroke:#181818;stroke-width:1.0;" x1="811" x2="811" y1="770.5313" y2="771.5313"/><line style="stroke:#181818;stroke-width:1.0;" x1="821" x2="821" y1="770.5313" y2="771.5313"/><rect fill="#FFFFFF" height="56.1328" style="stroke:#FFFFFF;stroke-width:1.0;" width="10" x="970" y="673.5938"/><line style="stroke:#181818;stroke-width:1.0;" x1="970" x2="970" y1="673.5938" y2="729.7266"/><line style="stroke:#181818;stroke-width:1.0;" x1="980" x2="980" y1="673.5938" y2="729.7266"/><line style="stroke:#181818;stroke-width:1.0;" x1="970" x2="980" y1="673.5938" y2="673.5938"/><rect fill="#FFFFFF" height="1" style="stroke:#FFFFFF;stroke-width:1.0;" width="10" x="970" y="770.5313"/><line style="stroke:#181818;stroke-width:1.0;" x1="970" x2="970" y1="770.5313" y2="771.5313"/><line style="stroke:#181818;stroke-width:1.0;" x1="980" x2="980" y1="770.5313" y2="771.5313"/><line style="stroke:#181818;stroke-width:0.5;stroke-dasharray:5.0,5.0;" x1="33" x2="33" y1="101.4297" y2="729.7266"/><line style="stroke:#383838;stroke-width:1.0;stroke-dasharray:1.0,4.0;" x1="33" x2="33" y1="729.7266" y2="770.5313"/><line style="stroke:#181818;stroke-width:0.5;stroke-dasharray:5.0,5.0;" x1="33" x2="33" y1="770.5313" y2="780.5313"/><line style="stroke:#181818;stroke-width:0.5;stroke-dasharray:5.0,5.0;" x1="134.5" x2="134.5" y1="101.4297" y2="729.7266"/><line style="stroke:#383838;stroke-width:1.0;stroke-dasharray:1.0,4.0;" x1="134.5" x2="134.5" y1="729.7266" y2="770.5313"/><line style="stroke:#181818;stroke-width:0.5;stroke-dasharray:5.0,5.0;" x1="134.5" x2="134.5" y1="770.5313" y2="780.5313"/><line style="stroke:#181818;stroke-width:0.5;stroke-dasharray:5.0,5.0;" x1="199.5" x2="199.5" y1="214.3438" y2="729.7266"/><line style="stroke:#383838;stroke-width:1.0;stroke-dasharray:1.0,4.0;" x1="199.5" x2="199.5" y1="729.7266" y2="770.5313"/><line style="stroke:#181818;stroke-width:0.5;stroke-dasharray:5.0,5.0;" x1="199.5" x2="199.5" y1="770.5313" y2="780.5313"/><line style="stroke:#181818;stroke-width:0.5;stroke-dasharray:5.0,5.0;" x1="278.5" x2="278.5" y1="298.7734" y2="729.7266"/><line style="stroke:#383838;stroke-width:1.0;stroke-dasharray:1.0,4.0;" x1="278.5" x2="278.5" y1="729.7266" y2="770.5313"/><line style="stroke:#181818;stroke-width:0.5;stroke-dasharray:5.0,5.0;" x1="278.5" x2="278.5" y1="770.5313" y2="780.5313"/><line style="stroke:#181818;stroke-width:0.5;stroke-dasharray:5.0,5.0;" x1="585" x2="585" y1="348.2188" y2="729.7266"/><line style="stroke:#383838;stroke-width:1.0;stroke-dasharray:1.0,4.0;" x1="585" x2="585" y1="729.7266" y2="770.5313"/><line style="stroke:#181818;stroke-width:0.5;stroke-dasharray:5.0,5.0;" x1="585" x2="585" y1="770.5313" y2="780.5313"/><line style="stroke:#181818;stroke-width:0.5;stroke-dasharray:5.0,5.0;" x1="815.5" x2="815.5" y1="471.2266" y2="729.7266"/><line style="stroke:#383838;stroke-width:1.0;stroke-dasharray:1.0,4.0;" x1="815.5" x2="815.5" y1="729.7266" y2="770.5313"/><line style="stroke:#181818;stroke-width:0.5;stroke-dasharray:5.0,5.0;" x1="815.5" x2="815.5" y1="770.5313" y2="780.5313"/><line style="stroke:#181818;stroke-width:0.5;stroke-dasharray:5.0,5.0;" x1="975" x2="975" y1="602.3828" y2="729.7266"/><line style="stroke:#383838;stroke-width:1.0;stroke-dasharray:1.0,4.0;" x1="975" x2="975" y1="729.7266" y2="770.5313"/><line style="stroke:#181818;stroke-width:0.5;stroke-dasharray:5.0,5.0;" x1="975" x2="975" y1="770.5313" y2="780.5313"/><line style="stroke:#181818;stroke-width:0.5;stroke-dasharray:5.0,5.0;" x1="1124" x2="1124" y1="101.4297" y2="729.7266"/><line style="stroke:#383838;stroke-width:1.0;stroke-dasharray:1.0,4.0;" x1="1124" x2="1124" y1="729.7266" y2="770.5313"/><line style="stroke:#181818;stroke-width:0.5;stroke-dasharray:5.0,5.0;" x1="1124" x2="1124" y1="770.5313" y2="780.5313"/><text fill="#000000" font-family="sans-serif" font-size="14" lengthAdjust="spacing" textLength="31" x="15" y="98.1279">user</text><ellipse cx="33.5" cy="33.6328" fill="#E3E3E3" rx="8" ry="8" style="stroke:#181818;stroke-width:0.5;"/><path d="M33.5,41.6328 L33.5,68.6328 M20.5,49.6328 L46.5,49.6328 M33.5,68.6328 L20.5,83.6328 M33.5,68.6328 L46.5,83.6328 " fill="none" style="stroke:#181818;stroke-width:0.5;"/><rect fill="#E3E3E3" height="30.2969" rx="2.5" ry="2.5" style="stroke:#181818;stroke-width:0.5;" width="46" x="111.5" y="70.1328"/><text fill="#000000" font-family="sans-serif" font-size="14" lengthAdjust="spacing" textLength="32" x="118.5" y="90.1279">Main</text><rect fill="#E3E3E3" height="30.2969" rx="2.5" ry="2.5" style="stroke:#181818;stroke-width:0.5;" width="116" x="1066" y="70.1328"/><text fill="#000000" font-family="sans-serif" font-size="14" lengthAdjust="spacing" textLength="102" x="1073" y="90.1279">Ankaios Server</text><rect fill="#FFFFFF" height="597.1641" style="stroke:#FFFFFF;stroke-width:1.0;" width="10" x="129.5" y="132.5625"/><line style="stroke:#181818;stroke-width:1.0;" x1="129.5" x2="129.5" y1="132.5625" y2="729.7266"/><line style="stroke:#181818;stroke-width:1.0;" x1="139.5" x2="139.5" y1="132.5625" y2="729.7266"/><line style="stroke:#181818;stroke-width:1.0;" x1="129.5" x2="139.5" y1="132.5625" y2="132.5625"/><rect fill="#FFFFFF" height="1" style="stroke:#FFFFFF;stroke-width:1.0;" width="10" x="129.5" y="770.5313"/><line style="stroke:#181818;stroke-width:1.0;" x1="129.5" x2="129.5" y1="770.5313" y2="771.5313"/><line style="stroke:#181818;stroke-width:1.0;" x1="139.5" x2="139.5" y1="770.5313" y2="771.5313"/><rect fill="#FFFFFF" height="14" style="stroke:#181818;stroke-width:1.0;" width="10" x="194.5" y="246.125"/><rect fill="#FFFFFF" height="31.2969" style="stroke:#181818;stroke-width:1.0;" width="10" x="274" y="299.2578"/><rect fill="#FFFFFF" height="318.4453" style="stroke:#FFFFFF;stroke-width:1.0;" width="10" x="580" y="411.2813"/><line style="stroke:#181818;stroke-width:1.0;" x1="580" x2="580" y1="411.2813" y2="729.7266"/><line style="stroke:#181818;stroke-width:1.0;" x1="590" x2="590" y1="411.2813" y2="729.7266"/><line style="stroke:#181818;stroke-width:1.0;" x1="580" x2="590" y1="411.2813" y2="411.2813"/><rect fill="#FFFFFF" height="1" style="stroke:#FFFFFF;stroke-width:1.0;" width="10" x="580" y="770.5313"/><line style="stroke:#181818;stroke-width:1.0;" x1="580" x2="580" y1="770.5313" y2="771.5313"/><line style="stroke:#181818;stroke-width:1.0;" x1="590" x2="590" y1="770.5313" y2="771.5313"/><rect fill="#FFFFFF" height="187.2891" style="stroke:#FFFFFF;stroke-width:1.0;" width="10" x="811" y="542.4375"/><line style="stroke:#181818;stroke-width:1.0;" x1="811" x2="811" y1="542.4375" y2="729.7266"/><line style="stroke:#181818;stroke-width:1.0;" x1="821" x2="821" y1="542.4375" y2="729.7266"/><line style="stroke:#181818;stroke-width:1.0;" x1="811" x2="821" y1="542.4375" y2="542.4375"/><rect fill="#FFFFFF" height="1" style="stroke:#FFFFFF;stroke-width:1.0;" width="10" x="811" y="770.5313"/><line style="stroke:#181818;stroke-width:1.0;" x1="811" x2="811" y1="770.5313" y2="771.5313"/><line style="stroke:#181818;stroke-width:1.0;" x1="821" x2="821" y1="770.5313" y2="771.5313"/><rect fill="#FFFFFF" height="56.1328" style="stroke:#FFFFFF;stroke-width:1.0;" width="10" x="970" y="673.5938"/><line style="stroke:#181818;stroke-width:1.0;" x1="970" x2="970" y1="673.5938" y2="729.7266"/><line style="stroke:#181818;stroke-width:1.0;" x1="980" x2="980" y1="673.5938" y2="729.7266"/><line style="stroke:#181818;stroke-width:1.0;" x1="970" x2="980" y1="673.5938" y2="673.5938"/><rect fill="#FFFFFF" height="1" style="stroke:#FFFFFF;stroke-width:1.0;" width="10" x="970" y="770.5313"/><line style="stroke:#181818;stroke-width:1.0;" x1="970" x2="970" y1="770.5313" y2="771.5313"/><line style="stroke:#181818;stroke-width:1.0;" x1="980" x2="980" y1="770.5313" y2="771.5313"/><polygon fill="#181818" points="117.5,128.5625,127.5,132.5625,117.5,136.5625" style="stroke:#181818;stroke-width:1.0;"/><line style="stroke:#181818;stroke-width:1.0;" x1="33.5" x2="123.5" y1="132.5625" y2="132.5625"/><text fill="#000000" font-family="sans-serif" font-size="13" lengthAdjust="spacing" textLength="77" x="40.5" y="127.4966">a command</text><rect fill="#EEEEEE" height="3" style="stroke:#EEEEEE;stroke-width:1.0;" width="1197" x="0" y="161.1289"/><line style="stroke:#000000;stroke-width:1.0;" x1="0" x2="1197" y1="161.1289" y2="161.1289"/><line style="stroke:#000000;stroke-width:1.0;" x1="0" x2="1197" y1="164.1289" y2="164.1289"/><rect fill="#EEEEEE" height="23.1328" style="stroke:#000000;stroke-width:2.0;" width="73" x="562" y="150.5625"/><text fill="#000000" font-family="sans-serif" font-size="13" font-weight="bold" lengthAdjust="spacing" textLength="54" x="568" y="166.6294">startup</text><polygon fill="#181818" points="172.5,185.6953,182.5,189.6953,172.5,193.6953" style="stroke:#181818;stroke-width:1.0;"/><line style="stroke:#181818;stroke-width:1.0;" x1="139.5" x2="178.5" y1="189.6953" y2="189.6953"/><rect fill="#E3E3E3" height="30.2969" rx="2.5" ry="2.5" style="stroke:#181818;stroke-width:0.5;" width="30" x="184.5" y="183.6953"/><text fill="#000000" font-family="sans-serif" font-size="14" lengthAdjust="spacing" textLength="16" x="191.5" y="203.6904">Cli</text><polygon fill="#181818" points="182.5,242.125,192.5,246.125,182.5,250.125" style="stroke:#181818;stroke-width:1.0;"/><line style="stroke:#181818;stroke-width:1.0;" x1="139.5" x2="188.5" y1="246.125" y2="246.125"/><text fill="#000000" font-family="sans-serif" font-size="13" lengthAdjust="spacing" textLength="36" x="146.5" y="241.0591">parse</text><line style="stroke:#181818;stroke-width:1.0;" x1="140.5" x2="150.5" y1="260.125" y2="256.125"/><line style="stroke:#181818;stroke-width:1.0;" x1="140.5" x2="150.5" y1="260.125" y2="264.125"/><line style="stroke:#181818;stroke-width:1.0;" x1="139.5" x2="198.5" y1="260.125" y2="260.125"/><polygon fill="#181818" points="212.5,285.2578,222.5,289.2578,212.5,293.2578" style="stroke:#181818;stroke-width:1.0;"/><line style="stroke:#181818;stroke-width:1.0;" x1="139.5" x2="218.5" y1="289.2578" y2="289.2578"/><text fill="#000000" font-family="sans-serif" font-size="13" lengthAdjust="spacing" textLength="19" x="146.5" y="284.1919">init</text><rect fill="#E3E3E3" height="30.2969" rx="2.5" ry="2.5" style="stroke:#181818;stroke-width:0.5;" width="109" x="224.5" y="268.125"/><text fill="#000000" font-family="sans-serif" font-size="14" lengthAdjust="spacing" textLength="95" x="231.5" y="288.1201">CliCommands</text><line style="stroke:#181818;stroke-width:1.0;" x1="511" x2="501" y1="330.5547" y2="326.5547"/><line style="stroke:#181818;stroke-width:1.0;" x1="511" x2="501" y1="330.5547" y2="334.5547"/><line style="stroke:#181818;stroke-width:1.0;" x1="279" x2="512" y1="330.5547" y2="330.5547"/><text fill="#000000" font-family="sans-serif" font-size="13" lengthAdjust="spacing" textLength="205" x="286" y="325.4888">create and start in a new thread</text><rect fill="#E3E3E3" height="46.5938" rx="2.5" ry="2.5" style="stroke:#181818;stroke-width:0.5;" width="144" x="513" y="309.4219"/><text fill="#000000" font-family="sans-serif" font-size="14" lengthAdjust="spacing" textLength="63" x="553.5" y="329.417">&#171;thread&#187;</text><text fill="#000000" font-family="sans-serif" font-size="14" lengthAdjust="spacing" textLength="130" x="520" y="345.7139">Middleware (gRPC)</text><line style="stroke:#181818;stroke-width:1.0;" x1="585" x2="632" y1="398.2813" y2="398.2813"/><line style="stroke:#181818;stroke-width:1.0;" x1="632" x2="632" y1="398.2813" y2="411.2813"/><line style="stroke:#181818;stroke-width:1.0;" x1="591" x2="632" y1="411.2813" y2="411.2813"/><polygon fill="#181818" points="601,407.2813,591,411.2813,601,415.2813" style="stroke:#181818;stroke-width:1.0;"/><text fill="#000000" font-family="sans-serif" font-size="13" lengthAdjust="spacing" textLength="142" x="597" y="378.0825">start and endless loop</text><text fill="#000000" font-family="sans-serif" font-size="13" lengthAdjust="spacing" textLength="217" x="597" y="393.2153">trying to (re)connect to the server</text><line style="stroke:#181818;stroke-width:1.0;" x1="748.5" x2="738.5" y1="445.4141" y2="441.4141"/><line style="stroke:#181818;stroke-width:1.0;" x1="748.5" x2="738.5" y1="445.4141" y2="449.4141"/><line style="stroke:#181818;stroke-width:1.0;" x1="590" x2="749.5" y1="445.4141" y2="445.4141"/><text fill="#000000" font-family="sans-serif" font-size="13" lengthAdjust="spacing" textLength="133" x="597" y="440.3481">create an async task</text><rect fill="#E3E3E3" height="62.8906" rx="2.5" ry="2.5" style="stroke:#181818;stroke-width:0.5;" width="131" x="750.5" y="424.2813"/><text fill="#000000" font-family="sans-serif" font-size="14" lengthAdjust="spacing" textLength="47" x="792.5" y="444.2764">&#171;task&#187;</text><text fill="#000000" font-family="sans-serif" font-size="14" lengthAdjust="spacing" textLength="117" x="757.5" y="460.5732">Listen to Ankaios</text><text fill="#000000" font-family="sans-serif" font-size="14" lengthAdjust="spacing" textLength="44" x="794" y="476.8701">Server</text><line style="stroke:#181818;stroke-width:1.0;" x1="816" x2="863" y1="529.4375" y2="529.4375"/><line style="stroke:#181818;stroke-width:1.0;" x1="863" x2="863" y1="529.4375" y2="542.4375"/><line style="stroke:#181818;stroke-width:1.0;" x1="822" x2="863" y1="542.4375" y2="542.4375"/><polygon fill="#181818" points="832,538.4375,822,542.4375,832,546.4375" style="stroke:#181818;stroke-width:1.0;"/><text fill="#000000" font-family="sans-serif" font-size="13" lengthAdjust="spacing" textLength="108" x="828" y="509.2388">start listening for</text><text fill="#000000" font-family="sans-serif" font-size="13" lengthAdjust="spacing" textLength="145" x="828" y="524.3716">FromServer messages</text><line style="stroke:#181818;stroke-width:1.0;" x1="912" x2="902" y1="576.5703" y2="572.5703"/><line style="stroke:#181818;stroke-width:1.0;" x1="912" x2="902" y1="576.5703" y2="580.5703"/><line style="stroke:#181818;stroke-width:1.0;" x1="590" x2="913" y1="576.5703" y2="576.5703"/><text fill="#000000" font-family="sans-serif" font-size="13" lengthAdjust="spacing" textLength="133" x="597" y="571.5044">create an async task</text><rect fill="#E3E3E3" height="62.8906" rx="2.5" ry="2.5" style="stroke:#181818;stroke-width:0.5;" width="122" x="914" y="555.4375"/><text fill="#000000" font-family="sans-serif" font-size="14" lengthAdjust="spacing" textLength="47" x="951.5" y="575.4326">&#171;task&#187;</text><text fill="#000000" font-family="sans-serif" font-size="14" lengthAdjust="spacing" textLength="104" x="921" y="591.7295">Listen to Agent</text><text fill="#000000" font-family="sans-serif" font-size="14" lengthAdjust="spacing" textLength="60" x="945" y="608.0264">Manager</text><line style="stroke:#181818;stroke-width:1.0;" x1="975" x2="1022" y1="660.5938" y2="660.5938"/><line style="stroke:#181818;stroke-width:1.0;" x1="1022" x2="1022" y1="660.5938" y2="673.5938"/><line style="stroke:#181818;stroke-width:1.0;" x1="981" x2="1022" y1="673.5938" y2="673.5938"/><polygon fill="#181818" points="991,669.5938,981,673.5938,991,677.5938" style="stroke:#181818;stroke-width:1.0;"/><text fill="#000000" font-family="sans-serif" font-size="13" lengthAdjust="spacing" textLength="108" x="987" y="640.395">start listening for</text><text fill="#000000" font-family="sans-serif" font-size="13" lengthAdjust="spacing" textLength="127" x="987" y="655.5278">ToServer messages</text><rect fill="#EEEEEE" height="3" style="stroke:#EEEEEE;stroke-width:1.0;" width="1197" x="0" y="707.1602"/><line style="stroke:#000000;stroke-width:1.0;" x1="0" x2="1197" y1="707.1602" y2="707.1602"/><line style="stroke:#000000;stroke-width:1.0;" x1="0" x2="1197" y1="710.1602" y2="710.1602"/><rect fill="#EEEEEE" height="23.1328" style="stroke:#000000;stroke-width:2.0;" width="92" x="552.5" y="696.5938"/><text fill="#000000" font-family="sans-serif" font-size="13" font-weight="bold" lengthAdjust="spacing" textLength="73" x="558.5" y="712.6606">command</text><text fill="#000000" font-family="sans-serif" font-size="11" lengthAdjust="spacing" textLength="88" x="534.75" y="753.937">implementation</text><!--SRC=[ZLJ1QkCm4BthAsPzIXlit4jZM09xQg7ixZ4GL7dgYaWZ8ydfzkyxifriNBbGOx2bUVFcQTxOFpGfqpS8LRMvt1w3wxt2i6cSsdH6KkojsIY3agfmr2J4i_i7nKywIkq2yBCGm9TKqNae-e2-01aWlGo1JlgebUwO2HwbfXIq_Co2nSxe8LKPlHZSEMibDU4CEgXf8qVVtyTNZxAfwpqzwgOn-2Ozmghz_RIx6V9Rtwa3ao35nNGPZYdvGOU81D71TE8z_K5_cWvfXkWXkaCODh_9r79HO66IP9insN5N83N0hVxKxwbuNkWJ875EcYv4oPAo7feFwpNSWOIfWq9ijn0Yy_KTRBT231Z6SeFWzdQsNA_lKkM08gtAUY8ioslKnHhEvaAQT1Gy8Vea8ywjcu4JsvKnOx9Y8pcB0QD4I3C4X6ymUYmQNAOMrrJbd3cTOcHBlDmYWu5TSAvZOw9_rzGcgrOURvGZGXNJChxYkQjpxZeR1TP-9PtjU2S5QHP4XYmNil_h6qD9pmj_O7lwvPqTJGRBcdbMifFM-JXzHyuPMYxbVotehylay3HDBWpJL5KLQDiPjAnFHks8_pcL-000]--></g></svg>