<?xml version="1.0" encoding="us-ascii" standalone="no"?><svg xmlns="http://www.w3.org/2000/svg" xmlns:xlink="http://www.w3.org/1999/xlink" contentStyleType="text/css" height="515px" preserveAspectRatio="none" style="width:795px;height:515px;background:#FFFFFF;" version="1.1" viewBox="0 0 795 515" width="795px" zoomAndPan="magnify"><defs/><g><rect fill="#EEEEEE" height="496.5625" style="stroke:#D3D3D3;stroke-width:0.5;" width="605.5" x="11" y="6"/><text fill="#777777" font-family="sans-serif" font-size="13" font-weight="bold" lengthAdjust="spacing" textLength="91" x="268.25" y="18.0669">Ankaios Ank</text><rect fill="#EEEEEE" height="496.5625" style="stroke:#D3D3D3;stroke-width:0.5;" width="124" x="653.5" y="6"/><text fill="#777777" font-family="sans-serif" font-size="13" font-weight="bold" lengthAdjust="spacing" textLength="110" x="660.5" y="18.0669">Ankaios Server</text><rect fill="#FFFFFF" height="51.1328" style="stroke:#FFFFFF;stroke-width:1.0;" width="10" x="126" y="132.5625"/><line style="stroke:#181818;stroke-width:1.0;" x1="126" x2="126" y1="132.5625" y2="183.6953"/><line style="stroke:#181818;stroke-width:1.0;" x1="136" x2="136" y1="132.5625" y2="183.6953"/><line style="stroke:#181818;stroke-width:1.0;" x1="126" x2="136" y1="132.5625" y2="132.5625"/><rect fill="#FFFFFF" height="266.0625" style="stroke:#FFFFFF;stroke-width:1.0;" width="10" x="126" y="224.5"/><line style="stroke:#181818;stroke-width:1.0;" x1="126" x2="126" y1="224.5" y2="490.5625"/><line style="stroke:#181818;stroke-width:1.0;" x1="136" x2="136" y1="224.5" y2="490.5625"/><line style="stroke:#181818;stroke-width:1.0;" x1="126" x2="136" y1="490.5625" y2="490.5625"/><rect fill="#FFFFFF" height="29.1328" style="stroke:#181818;stroke-width:1.0;" width="10" x="262" y="288.7656"/><rect fill="#FFFFFF" height="77.2656" style="stroke:#181818;stroke-width:1.0;" width="10" x="262" y="384.1641"/><rect fill="#FFFFFF" height="29.1328" style="stroke:#181818;stroke-width:1.0;" width="10" x="410" y="418.2969"/><rect fill="#FFFFFF" height="29.1328" style="stroke:#181818;stroke-width:1.0;" width="10" x="546.5" y="317.8984"/><rect fill="#FFFFFF" height="71.2656" style="stroke:#181818;stroke-width:1.0;" width="10" x="710.5" y="347.0313"/><line style="stroke:#181818;stroke-width:0.5;stroke-dasharray:5.0,5.0;" x1="33" x2="33" y1="101.4297" y2="183.6953"/><line style="stroke:#383838;stroke-width:1.0;stroke-dasharray:1.0,4.0;" x1="33" x2="33" y1="183.6953" y2="224.5"/><line style="stroke:#181818;stroke-width:0.5;stroke-dasharray:5.0,5.0;" x1="33" x2="33" y1="224.5" y2="508.5625"/><line style="stroke:#181818;stroke-width:0.5;stroke-dasharray:5.0,5.0;" x1="131" x2="131" y1="101.4297" y2="183.6953"/><line style="stroke:#383838;stroke-width:1.0;stroke-dasharray:1.0,4.0;" x1="131" x2="131" y1="183.6953" y2="224.5"/><line style="stroke:#181818;stroke-width:0.5;stroke-dasharray:5.0,5.0;" x1="131" x2="131" y1="224.5" y2="508.5625"/><line style="stroke:#181818;stroke-width:0.5;stroke-dasharray:5.0,5.0;" x1="266.5" x2="266.5" y1="101.4297" y2="183.6953"/><line style="stroke:#383838;stroke-width:1.0;stroke-dasharray:1.0,4.0;" x1="266.5" x2="266.5" y1="183.6953" y2="224.5"/><line style="stroke:#181818;stroke-width:0.5;stroke-dasharray:5.0,5.0;" x1="266.5" x2="266.5" y1="224.5" y2="508.5625"/><line style="stroke:#181818;stroke-width:0.5;stroke-dasharray:5.0,5.0;" x1="414.5" x2="414.5" y1="101.4297" y2="183.6953"/><line style="stroke:#383838;stroke-width:1.0;stroke-dasharray:1.0,4.0;" x1="414.5" x2="414.5" y1="183.6953" y2="224.5"/><line style="stroke:#181818;stroke-width:0.5;stroke-dasharray:5.0,5.0;" x1="414.5" x2="414.5" y1="224.5" y2="508.5625"/><line style="stroke:#181818;stroke-width:0.5;stroke-dasharray:5.0,5.0;" x1="551.5" x2="551.5" y1="101.4297" y2="183.6953"/><line style="stroke:#383838;stroke-width:1.0;stroke-dasharray:1.0,4.0;" x1="551.5" x2="551.5" y1="183.6953" y2="224.5"/><line style="stroke:#181818;stroke-width:0.5;stroke-dasharray:5.0,5.0;" x1="551.5" x2="551.5" y1="224.5" y2="508.5625"/><line style="stroke:#181818;stroke-width:0.5;stroke-dasharray:5.0,5.0;" x1="715.5" x2="715.5" y1="101.4297" y2="183.6953"/><line style="stroke:#383838;stroke-width:1.0;stroke-dasharray:1.0,4.0;" x1="715.5" x2="715.5" y1="183.6953" y2="224.5"/><line style="stroke:#181818;stroke-width:0.5;stroke-dasharray:5.0,5.0;" x1="715.5" x2="715.5" y1="224.5" y2="508.5625"/><text fill="#000000" font-family="sans-serif" font-size="14" lengthAdjust="spacing" textLength="31" x="15" y="98.1279">user</text><ellipse cx="33.5" cy="33.6328" fill="#E3E3E3" rx="8" ry="8" style="stroke:#181818;stroke-width:0.5;"/><path d="M33.5,41.6328 L33.5,68.6328 M20.5,49.6328 L46.5,49.6328 M33.5,68.6328 L20.5,83.6328 M33.5,68.6328 L46.5,83.6328 " fill="none" style="stroke:#181818;stroke-width:0.5;"/><rect fill="#E3E3E3" height="30.2969" rx="2.5" ry="2.5" style="stroke:#181818;stroke-width:0.5;" width="46" x="108" y="70.1328"/><text fill="#000000" font-family="sans-serif" font-size="14" lengthAdjust="spacing" textLength="32" x="115" y="90.1279">Main</text><rect fill="#E3E3E3" height="30.2969" rx="2.5" ry="2.5" style="stroke:#181818;stroke-width:0.5;" width="109" x="212.5" y="70.1328"/><text fill="#000000" font-family="sans-serif" font-size="14" lengthAdjust="spacing" textLength="95" x="219.5" y="90.1279">CliCommands</text><rect fill="#E3E3E3" height="62.8906" rx="2.5" ry="2.5" style="stroke:#181818;stroke-width:0.5;" width="131" x="349.5" y="37.5391"/><text fill="#000000" font-family="sans-serif" font-size="14" lengthAdjust="spacing" textLength="47" x="391.5" y="57.5342">&#171;task&#187;</text><text fill="#000000" font-family="sans-serif" font-size="14" lengthAdjust="spacing" textLength="117" x="356.5" y="73.8311">Listen to Ankaios</text><text fill="#000000" font-family="sans-serif" font-size="14" lengthAdjust="spacing" textLength="44" x="393" y="90.1279">Server</text><rect fill="#E3E3E3" height="62.8906" rx="2.5" ry="2.5" style="stroke:#181818;stroke-width:0.5;" width="122" x="490.5" y="37.5391"/><text fill="#000000" font-family="sans-serif" font-size="14" lengthAdjust="spacing" textLength="47" x="528" y="57.5342">&#171;task&#187;</text><text fill="#000000" font-family="sans-serif" font-size="14" lengthAdjust="spacing" textLength="104" x="497.5" y="73.8311">Listen to Agent</text><text fill="#000000" font-family="sans-serif" font-size="14" lengthAdjust="spacing" textLength="60" x="521.5" y="90.1279">Manager</text><rect fill="#E3E3E3" height="30.2969" rx="2.5" ry="2.5" style="stroke:#181818;stroke-width:0.5;" width="116" x="657.5" y="70.1328"/><text fill="#000000" font-family="sans-serif" font-size="14" lengthAdjust="spacing" textLength="102" x="664.5" y="90.1279">Ankaios Server</text><rect fill="#FFFFFF" height="51.1328" style="stroke:#FFFFFF;stroke-width:1.0;" width="10" x="126" y="132.5625"/><line style="stroke:#181818;stroke-width:1.0;" x1="126" x2="126" y1="132.5625" y2="183.6953"/><line style="stroke:#181818;stroke-width:1.0;" x1="136" x2="136" y1="132.5625" y2="183.6953"/><line style="stroke:#181818;stroke-width:1.0;" x1="126" x2="136" y1="132.5625" y2="132.5625"/><rect fill="#FFFFFF" height="266.0625" style="stroke:#FFFFFF;stroke-width:1.0;" width="10" x="126" y="224.5"/><line style="stroke:#181818;stroke-width:1.0;" x1="126" x2="126" y1="224.5" y2="490.5625"/><line style="stroke:#181818;stroke-width:1.0;" x1="136" x2="136" y1="224.5" y2="490.5625"/><line style="stroke:#181818;stroke-width:1.0;" x1="126" x2="136" y1="490.5625" y2="490.5625"/><rect fill="#FFFFFF" height="29.1328" style="stroke:#181818;stroke-width:1.0;" width="10" x="262" y="288.7656"/><rect fill="#FFFFFF" height="77.2656" style="stroke:#181818;stroke-width:1.0;" width="10" x="262" y="384.1641"/><rect fill="#FFFFFF" height="29.1328" style="stroke:#181818;stroke-width:1.0;" width="10" x="410" y="418.2969"/><rect fill="#FFFFFF" height="29.1328" style="stroke:#181818;stroke-width:1.0;" width="10" x="546.5" y="317.8984"/><rect fill="#FFFFFF" height="71.2656" style="stroke:#181818;stroke-width:1.0;" width="10" x="710.5" y="347.0313"/><polygon fill="#181818" points="114,128.5625,124,132.5625,114,136.5625" style="stroke:#181818;stroke-width:1.0;"/><line style="stroke:#181818;stroke-width:1.0;" x1="0" x2="120" y1="132.5625" y2="132.5625"/><text fill="#000000" font-family="sans-serif" font-size="13" lengthAdjust="spacing" textLength="107" x="7" y="127.4966">delete workloads</text><rect fill="#EEEEEE" height="3" style="stroke:#EEEEEE;stroke-width:1.0;" width="788.5" x="0" y="161.1289"/><line style="stroke:#000000;stroke-width:1.0;" x1="0" x2="788.5" y1="161.1289" y2="161.1289"/><line style="stroke:#000000;stroke-width:1.0;" x1="0" x2="788.5" y1="164.1289" y2="164.1289"/><rect fill="#EEEEEE" height="23.1328" style="stroke:#000000;stroke-width:2.0;" width="73" x="357.75" y="150.5625"/><text fill="#000000" font-family="sans-serif" font-size="13" font-weight="bold" lengthAdjust="spacing" textLength="54" x="363.75" y="166.6294">startup</text><text fill="#000000" font-family="sans-serif" font-size="11" lengthAdjust="spacing" textLength="66" x="341.5" y="207.9058">initialization</text><rect fill="#EEEEEE" height="3" style="stroke:#EEEEEE;stroke-width:1.0;" width="788.5" x="0" y="245.0664"/><line style="stroke:#000000;stroke-width:1.0;" x1="0" x2="788.5" y1="245.0664" y2="245.0664"/><line style="stroke:#000000;stroke-width:1.0;" x1="0" x2="788.5" y1="248.0664" y2="248.0664"/><rect fill="#EEEEEE" height="23.1328" style="stroke:#000000;stroke-width:2.0;" width="92" x="348.25" y="234.5"/><text fill="#000000" font-family="sans-serif" font-size="13" font-weight="bold" lengthAdjust="spacing" textLength="73" x="354.25" y="250.5669">command</text><polygon fill="#181818" points="250,284.7656,260,288.7656,250,292.7656" style="stroke:#181818;stroke-width:1.0;"/><line style="stroke:#181818;stroke-width:1.0;" x1="136" x2="256" y1="288.7656" y2="288.7656"/><text fill="#000000" font-family="sans-serif" font-size="13" lengthAdjust="spacing" textLength="107" x="143" y="283.6997">delete workloads</text><line style="stroke:#181818;stroke-width:1.0;" x1="544.5" x2="534.5" y1="317.8984" y2="313.8984"/><line style="stroke:#181818;stroke-width:1.0;" x1="544.5" x2="534.5" y1="317.8984" y2="321.8984"/><line style="stroke:#181818;stroke-width:1.0;" x1="267" x2="545.5" y1="317.8984" y2="317.8984"/><text fill="#000000" font-family="sans-serif" font-size="13" lengthAdjust="spacing" textLength="135" x="274" y="312.8325">request update state</text><line style="stroke:#181818;stroke-width:1.0;" x1="708.5" x2="698.5" y1="347.0313" y2="343.0313"/><line style="stroke:#181818;stroke-width:1.0;" x1="708.5" x2="698.5" y1="347.0313" y2="351.0313"/><line style="stroke:#181818;stroke-width:1.0;" x1="551.5" x2="709.5" y1="347.0313" y2="347.0313"/><text fill="#000000" font-family="sans-serif" font-size="13" lengthAdjust="spacing" textLength="135" x="558.5" y="341.9653">request update state</text><line style="stroke:#181818;stroke-width:1.0;" x1="267" x2="314" y1="371.1641" y2="371.1641"/><line style="stroke:#181818;stroke-width:1.0;" x1="314" x2="314" y1="371.1641" y2="384.1641"/><line style="stroke:#181818;stroke-width:1.0;" x1="273" x2="314" y1="384.1641" y2="384.1641"/><polygon fill="#181818" points="283,380.1641,273,384.1641,283,388.1641" style="stroke:#181818;stroke-width:1.0;"/><text fill="#000000" font-family="sans-serif" font-size="13" lengthAdjust="spacing" textLength="134" x="279" y="366.0981">wait for the response</text><line style="stroke:#181818;stroke-width:1.0;" x1="421" x2="431" y1="418.2969" y2="414.2969"/><line style="stroke:#181818;stroke-width:1.0;" x1="421" x2="431" y1="418.2969" y2="422.2969"/><line style="stroke:#181818;stroke-width:1.0;" x1="420" x2="714.5" y1="418.2969" y2="418.2969"/><text fill="#000000" font-family="sans-serif" font-size="13" lengthAdjust="spacing" textLength="59" x="437" y="413.231">response</text><line style="stroke:#181818;stroke-width:1.0;" x1="273" x2="283" y1="447.4297" y2="443.4297"/><line style="stroke:#181818;stroke-width:1.0;" x1="273" x2="283" y1="447.4297" y2="451.4297"/><line style="stroke:#181818;stroke-width:1.0;" x1="272" x2="414" y1="447.4297" y2="447.4297"/><text fill="#000000" font-family="sans-serif" font-size="13" lengthAdjust="spacing" textLength="59" x="289" y="442.3638">response</text><polygon fill="#181818" points="147,457.4297,137,461.4297,147,465.4297" style="stroke:#181818;stroke-width:1.0;"/><line style="stroke:#181818;stroke-width:1.0;" x1="141" x2="266" y1="461.4297" y2="461.4297"/><line style="stroke:#383838;stroke-width:2.0;" x1="258" x2="276" y1="452.4297" y2="470.4297"/><line style="stroke:#383838;stroke-width:2.0;" x1="258" x2="276" y1="470.4297" y2="452.4297"/><line style="stroke:#383838;stroke-width:2.0;" x1="542.5" x2="560.5" y1="452.4297" y2="470.4297"/><line style="stroke:#383838;stroke-width:2.0;" x1="542.5" x2="560.5" y1="470.4297" y2="452.4297"/><line style="stroke:#383838;stroke-width:2.0;" x1="406" x2="424" y1="452.4297" y2="470.4297"/><line style="stroke:#383838;stroke-width:2.0;" x1="406" x2="424" y1="470.4297" y2="452.4297"/><polygon fill="#181818" points="44.5,486.5625,34.5,490.5625,44.5,494.5625" style="stroke:#181818;stroke-width:1.0;"/><line style="stroke:#181818;stroke-width:1.0;" x1="38.5" x2="130" y1="490.5625" y2="490.5625"/><text fill="#000000" font-family="sans-serif" font-size="13" lengthAdjust="spacing" textLength="23" x="50.5" y="485.4966">exit</text><line style="stroke:#383838;stroke-width:2.0;" x1="122" x2="140" y1="481.5625" y2="499.5625"/><line style="stroke:#383838;stroke-width:2.0;" x1="122" x2="140" y1="499.5625" y2="481.5625"/><!--SRC=[ZPDDRuCm38Rl-HKUrmguenPfsdKzxLgfoi3hB4B24jDs-_KpWNKjhD8G4iX-y_Wp3sGhqzS8MPPVNe_1zRx2aDUkoZkZBVUjoIk3scQX8QlKgpj3ycWRJIw0V1C5ykYAdOUa3-WJq066d-Zej6Ugg1CIR3NPmTdAT-5CdWmzkRRLjWuHKHdQLvDXgLwlMOUcB7VscGAZ1NOmPRMpB-YFKo8cUlVizY4Q_qaweBXsTgkjFYn8xMXLQ6kGTinwCWLV1fe91kQKqmMKbh4vi5f10JKQP8IJyurnMfgWDXi8BCY-Wyr6gIpBW2mnQKDVcibP6MOMPLFZeYmIXNpTq7iHRZHfMIwhXZHThGhm-D5ZOEYxMWj2qc9KDSeUq74mt4pl3uYWn-8Z3-u0v_dCQoZWf8dXJNQFtr4OeNCsoBdvs66zJgy35h_QXNJ8xJPkUYKVsocqcUHkyU88xDtdhVN7kDogfMVQ4ZLSgY7oED1KcePduik1UAs-0G00]--></g></svg>