<?xml version="1.0" encoding="us-ascii" standalone="no"?><svg xmlns="http://www.w3.org/2000/svg" xmlns:xlink="http://www.w3.org/1999/xlink" contentStyleType="text/css" height="616px" preserveAspectRatio="none" style="width:995px;height:616px;background:#FFFFFF;" version="1.1" viewBox="0 0 995 616" width="995px" zoomAndPan="magnify"><defs/><g><rect fill="#EEEEEE" height="597.7813" style="stroke:#D3D3D3;stroke-width:0.5;" width="797.5" x="11" y="6"/><text fill="#777777" font-family="sans-serif" font-size="13" font-weight="bold" lengthAdjust="spacing" textLength="91" x="364.25" y="18.0669">Ankaios Ank</text><rect fill="#EEEEEE" height="597.7813" style="stroke:#D3D3D3;stroke-width:0.5;" width="124" x="853" y="6"/><text fill="#777777" font-family="sans-serif" font-size="13" font-weight="bold" lengthAdjust="spacing" textLength="110" x="860" y="18.0669">Ankaios Server</text><rect fill="#FFFFFF" height="426.4141" style="stroke:#FFFFFF;stroke-width:1.0;" width="10" x="129.5" y="132.5625"/><line style="stroke:#181818;stroke-width:1.0;" x1="129.5" x2="129.5" y1="132.5625" y2="558.9766"/><line style="stroke:#181818;stroke-width:1.0;" x1="139.5" x2="139.5" y1="132.5625" y2="558.9766"/><line style="stroke:#181818;stroke-width:1.0;" x1="129.5" x2="139.5" y1="132.5625" y2="132.5625"/><rect fill="#FFFFFF" height="1" style="stroke:#FFFFFF;stroke-width:1.0;" width="10" x="129.5" y="599.7813"/><line style="stroke:#181818;stroke-width:1.0;" x1="129.5" x2="129.5" y1="599.7813" y2="600.7813"/><line style="stroke:#181818;stroke-width:1.0;" x1="139.5" x2="139.5" y1="599.7813" y2="600.7813"/><rect fill="#FFFFFF" height="14" style="stroke:#181818;stroke-width:1.0;" width="10" x="194.5" y="246.125"/><rect fill="#FFFFFF" height="16.1641" style="stroke:#181818;stroke-width:1.0;" width="10" x="274" y="299.2578"/><rect fill="#FFFFFF" height="46.4297" style="stroke:#181818;stroke-width:1.0;" width="10" x="407.5" y="325.4219"/><rect fill="#FFFFFF" height="177.125" style="stroke:#FFFFFF;stroke-width:1.0;" width="10" x="713" y="381.8516"/><line style="stroke:#181818;stroke-width:1.0;" x1="713" x2="713" y1="381.8516" y2="558.9766"/><line style="stroke:#181818;stroke-width:1.0;" x1="723" x2="723" y1="381.8516" y2="558.9766"/><line style="stroke:#181818;stroke-width:1.0;" x1="713" x2="723" y1="381.8516" y2="381.8516"/><rect fill="#FFFFFF" height="1" style="stroke:#FFFFFF;stroke-width:1.0;" width="10" x="713" y="599.7813"/><line style="stroke:#181818;stroke-width:1.0;" x1="713" x2="713" y1="599.7813" y2="600.7813"/><line style="stroke:#181818;stroke-width:1.0;" x1="723" x2="723" y1="599.7813" y2="600.7813"/><rect fill="#FFFFFF" height="118.9648" style="stroke:#FFFFFF;stroke-width:1.0;" width="10" x="910" y="440.0117"/><line style="stroke:#181818;stroke-width:1.0;" x1="910" x2="910" y1="440.0117" y2="558.9766"/><line style="stroke:#181818;stroke-width:1.0;" x1="920" x2="920" y1="440.0117" y2="558.9766"/><line style="stroke:#181818;stroke-width:1.0;" x1="910" x2="920" y1="440.0117" y2="440.0117"/><rect fill="#FFFFFF" height="1" style="stroke:#FFFFFF;stroke-width:1.0;" width="10" x="910" y="599.7813"/><line style="stroke:#181818;stroke-width:1.0;" x1="910" x2="910" y1="599.7813" y2="600.7813"/><line style="stroke:#181818;stroke-width:1.0;" x1="920" x2="920" y1="599.7813" y2="600.7813"/><line style="stroke:#181818;stroke-width:0.5;stroke-dasharray:5.0,5.0;" x1="33" x2="33" y1="101.4297" y2="558.9766"/><line style="stroke:#383838;stroke-width:1.0;stroke-dasharray:1.0,4.0;" x1="33" x2="33" y1="558.9766" y2="599.7813"/><line style="stroke:#181818;stroke-width:0.5;stroke-dasharray:5.0,5.0;" x1="33" x2="33" y1="599.7813" y2="609.7813"/><line style="stroke:#181818;stroke-width:0.5;stroke-dasharray:5.0,5.0;" x1="134.5" x2="134.5" y1="101.4297" y2="558.9766"/><line style="stroke:#383838;stroke-width:1.0;stroke-dasharray:1.0,4.0;" x1="134.5" x2="134.5" y1="558.9766" y2="599.7813"/><line style="stroke:#181818;stroke-width:0.5;stroke-dasharray:5.0,5.0;" x1="134.5" x2="134.5" y1="599.7813" y2="609.7813"/><line style="stroke:#181818;stroke-width:0.5;stroke-dasharray:5.0,5.0;" x1="199.5" x2="199.5" y1="214.3438" y2="558.9766"/><line style="stroke:#383838;stroke-width:1.0;stroke-dasharray:1.0,4.0;" x1="199.5" x2="199.5" y1="558.9766" y2="599.7813"/><line style="stroke:#181818;stroke-width:0.5;stroke-dasharray:5.0,5.0;" x1="199.5" x2="199.5" y1="599.7813" y2="609.7813"/><line style="stroke:#181818;stroke-width:0.5;stroke-dasharray:5.0,5.0;" x1="278.5" x2="278.5" y1="298.7734" y2="558.9766"/><line style="stroke:#383838;stroke-width:1.0;stroke-dasharray:1.0,4.0;" x1="278.5" x2="278.5" y1="558.9766" y2="599.7813"/><line style="stroke:#181818;stroke-width:0.5;stroke-dasharray:5.0,5.0;" x1="278.5" x2="278.5" y1="599.7813" y2="609.7813"/><line style="stroke:#181818;stroke-width:0.5;stroke-dasharray:5.0,5.0;" x1="412.5" x2="412.5" y1="340.0703" y2="558.9766"/><line style="stroke:#383838;stroke-width:1.0;stroke-dasharray:1.0,4.0;" x1="412.5" x2="412.5" y1="558.9766" y2="599.7813"/><line style="stroke:#181818;stroke-width:0.5;stroke-dasharray:5.0,5.0;" x1="412.5" x2="412.5" y1="599.7813" y2="609.7813"/><line style="stroke:#181818;stroke-width:0.5;stroke-dasharray:5.0,5.0;" x1="717.5" x2="717.5" y1="389.5156" y2="558.9766"/><line style="stroke:#383838;stroke-width:1.0;stroke-dasharray:1.0,4.0;" x1="717.5" x2="717.5" y1="558.9766" y2="599.7813"/><line style="stroke:#181818;stroke-width:0.5;stroke-dasharray:5.0,5.0;" x1="717.5" x2="717.5" y1="599.7813" y2="609.7813"/><line style="stroke:#181818;stroke-width:0.5;stroke-dasharray:5.0,5.0;" x1="915" x2="915" y1="101.4297" y2="558.9766"/><line style="stroke:#383838;stroke-width:1.0;stroke-dasharray:1.0,4.0;" x1="915" x2="915" y1="558.9766" y2="599.7813"/><line style="stroke:#181818;stroke-width:0.5;stroke-dasharray:5.0,5.0;" x1="915" x2="915" y1="599.7813" y2="609.7813"/><text fill="#000000" font-family="sans-serif" font-size="14" lengthAdjust="spacing" textLength="31" x="15" y="98.1279">user</text><ellipse cx="33.5" cy="33.6328" fill="#E3E3E3" rx="8" ry="8" style="stroke:#181818;stroke-width:0.5;"/><path d="M33.5,41.6328 L33.5,68.6328 M20.5,49.6328 L46.5,49.6328 M33.5,68.6328 L20.5,83.6328 M33.5,68.6328 L46.5,83.6328 " fill="none" style="stroke:#181818;stroke-width:0.5;"/><rect fill="#E3E3E3" height="30.2969" rx="2.5" ry="2.5" style="stroke:#181818;stroke-width:0.5;" width="46" x="111.5" y="70.1328"/><text fill="#000000" font-family="sans-serif" font-size="14" lengthAdjust="spacing" textLength="32" x="118.5" y="90.1279">Main</text><rect fill="#E3E3E3" height="30.2969" rx="2.5" ry="2.5" style="stroke:#181818;stroke-width:0.5;" width="116" x="857" y="70.1328"/><text fill="#000000" font-family="sans-serif" font-size="14" lengthAdjust="spacing" textLength="102" x="864" y="90.1279">Ankaios Server</text><rect fill="#FFFFFF" height="426.4141" style="stroke:#FFFFFF;stroke-width:1.0;" width="10" x="129.5" y="132.5625"/><line style="stroke:#181818;stroke-width:1.0;" x1="129.5" x2="129.5" y1="132.5625" y2="558.9766"/><line style="stroke:#181818;stroke-width:1.0;" x1="139.5" x2="139.5" y1="132.5625" y2="558.9766"/><line style="stroke:#181818;stroke-width:1.0;" x1="129.5" x2="139.5" y1="132.5625" y2="132.5625"/><rect fill="#FFFFFF" height="1" style="stroke:#FFFFFF;stroke-width:1.0;" width="10" x="129.5" y="599.7813"/><line style="stroke:#181818;stroke-width:1.0;" x1="129.5" x2="129.5" y1="599.7813" y2="600.7813"/><line style="stroke:#181818;stroke-width:1.0;" x1="139.5" x2="139.5" y1="599.7813" y2="600.7813"/><rect fill="#FFFFFF" height="14" style="stroke:#181818;stroke-width:1.0;" width="10" x="194.5" y="246.125"/><rect fill="#FFFFFF" height="16.1641" style="stroke:#181818;stroke-width:1.0;" width="10" x="274" y="299.2578"/><rect fill="#FFFFFF" height="46.4297" style="stroke:#181818;stroke-width:1.0;" width="10" x="407.5" y="325.4219"/><rect fill="#FFFFFF" height="177.125" style="stroke:#FFFFFF;stroke-width:1.0;" width="10" x="713" y="381.8516"/><line style="stroke:#181818;stroke-width:1.0;" x1="713" x2="713" y1="381.8516" y2="558.9766"/><line style="stroke:#181818;stroke-width:1.0;" x1="723" x2="723" y1="381.8516" y2="558.9766"/><line style="stroke:#181818;stroke-width:1.0;" x1="713" x2="723" y1="381.8516" y2="381.8516"/><rect fill="#FFFFFF" height="1" style="stroke:#FFFFFF;stroke-width:1.0;" width="10" x="713" y="599.7813"/><line style="stroke:#181818;stroke-width:1.0;" x1="713" x2="713" y1="599.7813" y2="600.7813"/><line style="stroke:#181818;stroke-width:1.0;" x1="723" x2="723" y1="599.7813" y2="600.7813"/><rect fill="#FFFFFF" height="118.9648" style="stroke:#FFFFFF;stroke-width:1.0;" width="10" x="910" y="440.0117"/><line style="stroke:#181818;stroke-width:1.0;" x1="910" x2="910" y1="440.0117" y2="558.9766"/><line style="stroke:#181818;stroke-width:1.0;" x1="920" x2="920" y1="440.0117" y2="558.9766"/><line style="stroke:#181818;stroke-width:1.0;" x1="910" x2="920" y1="440.0117" y2="440.0117"/><rect fill="#FFFFFF" height="1" style="stroke:#FFFFFF;stroke-width:1.0;" width="10" x="910" y="599.7813"/><line style="stroke:#181818;stroke-width:1.0;" x1="910" x2="910" y1="599.7813" y2="600.7813"/><line style="stroke:#181818;stroke-width:1.0;" x1="920" x2="920" y1="599.7813" y2="600.7813"/><polygon fill="#181818" points="117.5,128.5625,127.5,132.5625,117.5,136.5625" style="stroke:#181818;stroke-width:1.0;"/><line style="stroke:#181818;stroke-width:1.0;" x1="33.5" x2="123.5" y1="132.5625" y2="132.5625"/><text fill="#000000" font-family="sans-serif" font-size="13" lengthAdjust="spacing" textLength="77" x="40.5" y="127.4966">a command</text><rect fill="#EEEEEE" height="3" style="stroke:#EEEEEE;stroke-width:1.0;" width="988" x="0" y="161.1289"/><line style="stroke:#000000;stroke-width:1.0;" x1="0" x2="988" y1="161.1289" y2="161.1289"/><line style="stroke:#000000;stroke-width:1.0;" x1="0" x2="988" y1="164.1289" y2="164.1289"/><rect fill="#EEEEEE" height="23.1328" style="stroke:#000000;stroke-width:2.0;" width="73" x="457.5" y="150.5625"/><text fill="#000000" font-family="sans-serif" font-size="13" font-weight="bold" lengthAdjust="spacing" textLength="54" x="463.5" y="166.6294">startup</text><polygon fill="#181818" points="172.5,185.6953,182.5,189.6953,172.5,193.6953" style="stroke:#181818;stroke-width:1.0;"/><line style="stroke:#181818;stroke-width:1.0;" x1="139.5" x2="178.5" y1="189.6953" y2="189.6953"/><rect fill="#E3E3E3" height="30.2969" rx="2.5" ry="2.5" style="stroke:#181818;stroke-width:0.5;" width="30" x="184.5" y="183.6953"/><text fill="#000000" font-family="sans-serif" font-size="14" lengthAdjust="spacing" textLength="16" x="191.5" y="203.6904">Cli</text><polygon fill="#181818" points="182.5,242.125,192.5,246.125,182.5,250.125" style="stroke:#181818;stroke-width:1.0;"/><line style="stroke:#181818;stroke-width:1.0;" x1="139.5" x2="188.5" y1="246.125" y2="246.125"/><text fill="#000000" font-family="sans-serif" font-size="13" lengthAdjust="spacing" textLength="36" x="146.5" y="241.0591">parse</text><line style="stroke:#181818;stroke-width:1.0;" x1="140.5" x2="150.5" y1="260.125" y2="256.125"/><line style="stroke:#181818;stroke-width:1.0;" x1="140.5" x2="150.5" y1="260.125" y2="264.125"/><line style="stroke:#181818;stroke-width:1.0;" x1="139.5" x2="198.5" y1="260.125" y2="260.125"/><polygon fill="#181818" points="212.5,285.2578,222.5,289.2578,212.5,293.2578" style="stroke:#181818;stroke-width:1.0;"/><line style="stroke:#181818;stroke-width:1.0;" x1="139.5" x2="218.5" y1="289.2578" y2="289.2578"/><text fill="#000000" font-family="sans-serif" font-size="13" lengthAdjust="spacing" textLength="19" x="146.5" y="284.1919">init</text><rect fill="#E3E3E3" height="30.2969" rx="2.5" ry="2.5" style="stroke:#181818;stroke-width:0.5;" width="109" x="224.5" y="268.125"/><text fill="#000000" font-family="sans-serif" font-size="14" lengthAdjust="spacing" textLength="95" x="231.5" y="288.1201">CliCommands</text><polygon fill="#181818" points="331.5,311.4219,341.5,315.4219,331.5,319.4219" style="stroke:#181818;stroke-width:1.0;"/><line style="stroke:#181818;stroke-width:1.0;" x1="279" x2="337.5" y1="315.4219" y2="315.4219"/><rect fill="#E3E3E3" height="30.2969" rx="2.5" ry="2.5" style="stroke:#181818;stroke-width:0.5;" width="138" x="343.5" y="309.4219"/><text fill="#000000" font-family="sans-serif" font-size="14" lengthAdjust="spacing" textLength="124" x="350.5" y="329.417">ServerConnection</text><line style="stroke:#181818;stroke-width:1.0;" x1="629.5" x2="619.5" y1="371.8516" y2="367.8516"/><line style="stroke:#181818;stroke-width:1.0;" x1="629.5" x2="619.5" y1="371.8516" y2="375.8516"/><line style="stroke:#181818;stroke-width:1.0;" x1="412.5" x2="630.5" y1="371.8516" y2="371.8516"/><text fill="#000000" font-family="sans-serif" font-size="13" lengthAdjust="spacing" textLength="190" x="419.5" y="366.7856">create and start in a new task</text><rect fill="#E3E3E3" height="46.5938" rx="2.5" ry="2.5" style="stroke:#181818;stroke-width:0.5;" width="173" x="631.5" y="350.7188"/><text fill="#000000" font-family="sans-serif" font-size="14" lengthAdjust="spacing" textLength="47" x="694.5" y="370.7139">&#171;task&#187;</text><text fill="#000000" font-family="sans-serif" font-size="14" lengthAdjust="spacing" textLength="159" x="638.5" y="387.0107">Communications Client</text><line style="stroke:#181818;stroke-width:1.0;" x1="908" x2="898" y1="440.0117" y2="436.0117"/><line style="stroke:#181818;stroke-width:1.0;" x1="908" x2="898" y1="440.0117" y2="444.0117"/><line style="stroke:#181818;stroke-width:1.0;" x1="723" x2="909" y1="440.0117" y2="440.0117"/><text fill="#000000" font-family="sans-serif" font-size="13" lengthAdjust="spacing" textLength="112" x="730" y="434.9458">connect to server</text><path d="M536,413.3125 L536,453.3125 L708,453.3125 L708,423.3125 L698,413.3125 L536,413.3125 " fill="#FFFFFF" style="stroke:#181818;stroke-width:0.5;"/><path d="M698,413.3125 L698,423.3125 L708,423.3125 L698,413.3125 " fill="#FFFFFF" style="stroke:#181818;stroke-width:0.5;"/><text fill="#000000" font-family="sans-serif" font-size="13" lengthAdjust="spacing" textLength="151" x="542" y="430.3794">if the connection is lost,</text><text fill="#000000" font-family="sans-serif" font-size="13" lengthAdjust="spacing" textLength="124" x="542" y="445.5122">will try to reconnect</text><line style="stroke:#181818;stroke-width:1.0;" x1="723" x2="765" y1="494.8438" y2="494.8438"/><line style="stroke:#181818;stroke-width:1.0;" x1="765" x2="765" y1="494.8438" y2="507.8438"/><line style="stroke:#181818;stroke-width:1.0;" x1="724" x2="765" y1="507.8438" y2="507.8438"/><polygon fill="#181818" points="734,503.8438,724,507.8438,734,511.8438" style="stroke:#181818;stroke-width:1.0;"/><text fill="#000000" font-family="sans-serif" font-size="13" lengthAdjust="spacing" textLength="169" x="730" y="474.645">start listening for ToServer</text><text fill="#000000" font-family="sans-serif" font-size="13" lengthAdjust="spacing" textLength="173" x="730" y="489.7778">and FromServer messages</text><rect fill="#EEEEEE" height="3" style="stroke:#EEEEEE;stroke-width:1.0;" width="988" x="0" y="536.4102"/><line style="stroke:#000000;stroke-width:1.0;" x1="0" x2="988" y1="536.4102" y2="536.4102"/><line style="stroke:#000000;stroke-width:1.0;" x1="0" x2="988" y1="539.4102" y2="539.4102"/><rect fill="#EEEEEE" height="23.1328" style="stroke:#000000;stroke-width:2.0;" width="92" x="448" y="525.8438"/><text fill="#000000" font-family="sans-serif" font-size="13" font-weight="bold" lengthAdjust="spacing" textLength="73" x="454" y="541.9106">command</text><text fill="#000000" font-family="sans-serif" font-size="11" lengthAdjust="spacing" textLength="88" x="430.25" y="583.187">implementation</text><!--SRC=[TLJBRkCm3BphAxW-DXld7YG15W5wszFs6A1GPQPBHAOCKMwxVx-Kx3pj1W4SYSEPqL3E3sBd-mQXhbUNRqG9VNGegoQuLUSjfxxrA-VHSYqdOcFUmXTKl_XaAGZeipAW7-jIY53rWh42Av1_b49dOo97dJB1RqkSYwq-9yLgxwcqEa-pnNreMykDd46lRjoOelzW_C2u3ype4WKkBL8sjUkyE-tRR9ALqsvtu2pMCpcRWG8gZvm6vRlAgoiLWzo09lCGp-2ZcWez0AxshaGvmUMkP0MB1Qp1mdXWOxPRaAHyVGVRhJ45erZr0azFTyl5OfsL1KrUBNSZuN9vYxeagTqgH4p9w43fmoQyJ_eEhCsJJ0k3QN2-_R8xdOMPKcMtisaFDbt4JAN4GnYGBnSmVa8Uugs7gThLtkmqpRniDZHmbLn7FaZXF3mEIkdnc3J48wI_23V78G4V9Fqyy2Tv3od-ovqHHyYtclCUr-EXFKb29dw7exw0Bs6uKGVEiJp7q0vhQ574lgEKkpFEezoTkgw1sivZgwH5GVyGQlCV]--></g></svg>