<?xml version="1.0" encoding="us-ascii" standalone="no"?><svg xmlns="http://www.w3.org/2000/svg" xmlns:xlink="http://www.w3.org/1999/xlink" contentStyleType="text/css" height="522px" preserveAspectRatio="none" style="width:605px;height:522px;background:#FFFFFF;" version="1.1" viewBox="0 0 605 522" width="605px" zoomAndPan="magnify"><defs/><g><rect fill="#EEEEEE" height="503.9688" style="stroke:#D3D3D3;stroke-width:0.5;" width="430.5" x="11" y="6"/><text fill="#777777" font-family="sans-serif" font-size="13" font-weight="bold" lengthAdjust="spacing" textLength="91" x="180.75" y="18.0669">Ankaios Ank</text><rect fill="#EEEEEE" height="503.9688" style="stroke:#D3D3D3;stroke-width:0.5;" width="124" x="463.5" y="6"/><text fill="#777777" font-family="sans-serif" font-size="13" font-weight="bold" lengthAdjust="spacing" textLength="110" x="470.5" y="18.0669">Ankaios Server</text><rect fill="#FFFFFF" height="51.1328" style="stroke:#FFFFFF;stroke-width:1.0;" width="10" x="129.5" y="132.5625"/><line style="stroke:#181818;stroke-width:1.0;" x1="129.5" x2="129.5" y1="132.5625" y2="183.6953"/><line style="stroke:#181818;stroke-width:1.0;" x1="139.5" x2="139.5" y1="132.5625" y2="183.6953"/><line style="stroke:#181818;stroke-width:1.0;" x1="129.5" x2="139.5" y1="132.5625" y2="132.5625"/><rect fill="#FFFFFF" height="102.2656" style="stroke:#FFFFFF;stroke-width:1.0;" width="10" x="129.5" y="224.5"/><line style="stroke:#181818;stroke-width:1.0;" x1="129.5" x2="129.5" y1="224.5" y2="326.7656"/><line style="stroke:#181818;stroke-width:1.0;" x1="139.5" x2="139.5" y1="224.5" y2="326.7656"/><rect fill="#FFFFFF" height="127.3984" style="stroke:#FFFFFF;stroke-width:1.0;" width="10" x="129.5" y="367.5703"/><line style="stroke:#181818;stroke-width:1.0;" x1="129.5" x2="129.5" y1="367.5703" y2="494.9688"/><line style="stroke:#181818;stroke-width:1.0;" x1="139.5" x2="139.5" y1="367.5703" y2="494.9688"/><line style="stroke:#181818;stroke-width:1.0;" x1="129.5" x2="139.5" y1="494.9688" y2="494.9688"/><rect fill="#FFFFFF" height="28" style="stroke:#181818;stroke-width:1.0;" width="10" x="134.5" y="420.8359"/><rect fill="#FFFFFF" height="30" style="stroke:#181818;stroke-width:1.0;" width="10" x="378" y="288.7656"/><rect fill="none" height="89.2656" style="stroke:#000000;stroke-width:1.5;" width="313" x="101.5" y="374.5703"/><line style="stroke:#181818;stroke-width:0.5;stroke-dasharray:5.0,5.0;" x1="33" x2="33" y1="101.4297" y2="183.6953"/><line style="stroke:#383838;stroke-width:1.0;stroke-dasharray:1.0,4.0;" x1="33" x2="33" y1="183.6953" y2="224.5"/><line style="stroke:#181818;stroke-width:0.5;stroke-dasharray:5.0,5.0;" x1="33" x2="33" y1="224.5" y2="326.7656"/><line style="stroke:#383838;stroke-width:1.0;stroke-dasharray:1.0,4.0;" x1="33" x2="33" y1="326.7656" y2="367.5703"/><line style="stroke:#181818;stroke-width:0.5;stroke-dasharray:5.0,5.0;" x1="33" x2="33" y1="367.5703" y2="515.9688"/><line style="stroke:#181818;stroke-width:0.5;stroke-dasharray:5.0,5.0;" x1="134.5" x2="134.5" y1="101.4297" y2="183.6953"/><line style="stroke:#383838;stroke-width:1.0;stroke-dasharray:1.0,4.0;" x1="134.5" x2="134.5" y1="183.6953" y2="224.5"/><line style="stroke:#181818;stroke-width:0.5;stroke-dasharray:5.0,5.0;" x1="134.5" x2="134.5" y1="224.5" y2="326.7656"/><line style="stroke:#383838;stroke-width:1.0;stroke-dasharray:1.0,4.0;" x1="134.5" x2="134.5" y1="326.7656" y2="367.5703"/><line style="stroke:#181818;stroke-width:0.5;stroke-dasharray:5.0,5.0;" x1="134.5" x2="134.5" y1="367.5703" y2="515.9688"/><line style="stroke:#181818;stroke-width:0.5;stroke-dasharray:5.0,5.0;" x1="303.5" x2="303.5" y1="101.4297" y2="183.6953"/><line style="stroke:#383838;stroke-width:1.0;stroke-dasharray:1.0,4.0;" x1="303.5" x2="303.5" y1="183.6953" y2="224.5"/><line style="stroke:#181818;stroke-width:0.5;stroke-dasharray:5.0,5.0;" x1="303.5" x2="303.5" y1="224.5" y2="326.7656"/><line style="stroke:#383838;stroke-width:1.0;stroke-dasharray:1.0,4.0;" x1="303.5" x2="303.5" y1="326.7656" y2="367.5703"/><line style="stroke:#181818;stroke-width:0.5;stroke-dasharray:5.0,5.0;" x1="303.5" x2="303.5" y1="367.5703" y2="515.9688"/><line style="stroke:#181818;stroke-width:0.5;stroke-dasharray:5.0,5.0;" x1="382.5" x2="382.5" y1="101.4297" y2="183.6953"/><line style="stroke:#383838;stroke-width:1.0;stroke-dasharray:1.0,4.0;" x1="382.5" x2="382.5" y1="183.6953" y2="224.5"/><line style="stroke:#181818;stroke-width:0.5;stroke-dasharray:5.0,5.0;" x1="382.5" x2="382.5" y1="224.5" y2="326.7656"/><line style="stroke:#383838;stroke-width:1.0;stroke-dasharray:1.0,4.0;" x1="382.5" x2="382.5" y1="326.7656" y2="367.5703"/><line style="stroke:#181818;stroke-width:0.5;stroke-dasharray:5.0,5.0;" x1="382.5" x2="382.5" y1="367.5703" y2="515.9688"/><line style="stroke:#181818;stroke-width:0.5;stroke-dasharray:5.0,5.0;" x1="525.5" x2="525.5" y1="101.4297" y2="183.6953"/><line style="stroke:#383838;stroke-width:1.0;stroke-dasharray:1.0,4.0;" x1="525.5" x2="525.5" y1="183.6953" y2="224.5"/><line style="stroke:#181818;stroke-width:0.5;stroke-dasharray:5.0,5.0;" x1="525.5" x2="525.5" y1="224.5" y2="326.7656"/><line style="stroke:#383838;stroke-width:1.0;stroke-dasharray:1.0,4.0;" x1="525.5" x2="525.5" y1="326.7656" y2="367.5703"/><line style="stroke:#181818;stroke-width:0.5;stroke-dasharray:5.0,5.0;" x1="525.5" x2="525.5" y1="367.5703" y2="515.9688"/><text fill="#000000" font-family="sans-serif" font-size="14" lengthAdjust="spacing" textLength="31" x="15" y="98.1279">user</text><ellipse cx="33.5" cy="33.6328" fill="#E3E3E3" rx="8" ry="8" style="stroke:#181818;stroke-width:0.5;"/><path d="M33.5,41.6328 L33.5,68.6328 M20.5,49.6328 L46.5,49.6328 M33.5,68.6328 L20.5,83.6328 M33.5,68.6328 L46.5,83.6328 " fill="none" style="stroke:#181818;stroke-width:0.5;"/><rect fill="#E3E3E3" height="30.2969" rx="2.5" ry="2.5" style="stroke:#181818;stroke-width:0.5;" width="46" x="111.5" y="70.1328"/><text fill="#000000" font-family="sans-serif" font-size="14" lengthAdjust="spacing" textLength="32" x="118.5" y="90.1279">Main</text><rect fill="#E3E3E3" height="30.2969" rx="2.5" ry="2.5" style="stroke:#181818;stroke-width:0.5;" width="30" x="288.5" y="70.1328"/><text fill="#000000" font-family="sans-serif" font-size="14" lengthAdjust="spacing" textLength="16" x="295.5" y="90.1279">Cli</text><rect fill="#E3E3E3" height="30.2969" rx="2.5" ry="2.5" style="stroke:#181818;stroke-width:0.5;" width="109" x="328.5" y="70.1328"/><text fill="#000000" font-family="sans-serif" font-size="14" lengthAdjust="spacing" textLength="95" x="335.5" y="90.1279">CliCommands</text><rect fill="#E3E3E3" height="30.2969" rx="2.5" ry="2.5" style="stroke:#181818;stroke-width:0.5;" width="116" x="467.5" y="70.1328"/><text fill="#000000" font-family="sans-serif" font-size="14" lengthAdjust="spacing" textLength="102" x="474.5" y="90.1279">Ankaios Server</text><rect fill="#FFFFFF" height="51.1328" style="stroke:#FFFFFF;stroke-width:1.0;" width="10" x="129.5" y="132.5625"/><line style="stroke:#181818;stroke-width:1.0;" x1="129.5" x2="129.5" y1="132.5625" y2="183.6953"/><line style="stroke:#181818;stroke-width:1.0;" x1="139.5" x2="139.5" y1="132.5625" y2="183.6953"/><line style="stroke:#181818;stroke-width:1.0;" x1="129.5" x2="139.5" y1="132.5625" y2="132.5625"/><rect fill="#FFFFFF" height="102.2656" style="stroke:#FFFFFF;stroke-width:1.0;" width="10" x="129.5" y="224.5"/><line style="stroke:#181818;stroke-width:1.0;" x1="129.5" x2="129.5" y1="224.5" y2="326.7656"/><line style="stroke:#181818;stroke-width:1.0;" x1="139.5" x2="139.5" y1="224.5" y2="326.7656"/><rect fill="#FFFFFF" height="127.3984" style="stroke:#FFFFFF;stroke-width:1.0;" width="10" x="129.5" y="367.5703"/><line style="stroke:#181818;stroke-width:1.0;" x1="129.5" x2="129.5" y1="367.5703" y2="494.9688"/><line style="stroke:#181818;stroke-width:1.0;" x1="139.5" x2="139.5" y1="367.5703" y2="494.9688"/><line style="stroke:#181818;stroke-width:1.0;" x1="129.5" x2="139.5" y1="494.9688" y2="494.9688"/><rect fill="#FFFFFF" height="28" style="stroke:#181818;stroke-width:1.0;" width="10" x="134.5" y="420.8359"/><rect fill="#FFFFFF" height="30" style="stroke:#181818;stroke-width:1.0;" width="10" x="378" y="288.7656"/><polygon fill="#181818" points="117.5,128.5625,127.5,132.5625,117.5,136.5625" style="stroke:#181818;stroke-width:1.0;"/><line style="stroke:#181818;stroke-width:1.0;" x1="33.5" x2="123.5" y1="132.5625" y2="132.5625"/><text fill="#000000" font-family="sans-serif" font-size="13" lengthAdjust="spacing" textLength="77" x="40.5" y="127.4966">a command</text><rect fill="#EEEEEE" height="3" style="stroke:#EEEEEE;stroke-width:1.0;" width="598.5" x="0" y="161.1289"/><line style="stroke:#000000;stroke-width:1.0;" x1="0" x2="598.5" y1="161.1289" y2="161.1289"/><line style="stroke:#000000;stroke-width:1.0;" x1="0" x2="598.5" y1="164.1289" y2="164.1289"/><rect fill="#EEEEEE" height="23.1328" style="stroke:#000000;stroke-width:2.0;" width="73" x="262.75" y="150.5625"/><text fill="#000000" font-family="sans-serif" font-size="13" font-weight="bold" lengthAdjust="spacing" textLength="54" x="268.75" y="166.6294">startup</text><text fill="#000000" font-family="sans-serif" font-size="11" lengthAdjust="spacing" textLength="334" x="112.5" y="207.9058">parse the user input and initialize connection to the server</text><rect fill="#EEEEEE" height="3" style="stroke:#EEEEEE;stroke-width:1.0;" width="598.5" x="0" y="245.0664"/><line style="stroke:#000000;stroke-width:1.0;" x1="0" x2="598.5" y1="245.0664" y2="245.0664"/><line style="stroke:#000000;stroke-width:1.0;" x1="0" x2="598.5" y1="248.0664" y2="248.0664"/><rect fill="#EEEEEE" height="23.1328" style="stroke:#000000;stroke-width:2.0;" width="92" x="253.25" y="234.5"/><text fill="#000000" font-family="sans-serif" font-size="13" font-weight="bold" lengthAdjust="spacing" textLength="73" x="259.25" y="250.5669">command</text><polygon fill="#181818" points="366,284.7656,376,288.7656,366,292.7656" style="stroke:#181818;stroke-width:1.0;"/><line style="stroke:#181818;stroke-width:1.0;" x1="139.5" x2="372" y1="288.7656" y2="288.7656"/><text fill="#000000" font-family="sans-serif" font-size="13" lengthAdjust="spacing" textLength="170" x="146.5" y="283.6997">command implementation</text><text fill="#000000" font-family="sans-serif" font-size="11" lengthAdjust="spacing" textLength="217" x="171" y="350.9761">call server and process the command</text><path d="M101.5,374.5703 L165.5,374.5703 L165.5,381.7031 L155.5,391.7031 L101.5,391.7031 L101.5,374.5703 " fill="#EEEEEE" style="stroke:#000000;stroke-width:1.5;"/><rect fill="none" height="89.2656" style="stroke:#000000;stroke-width:1.5;" width="313" x="101.5" y="374.5703"/><text fill="#000000" font-family="sans-serif" font-size="13" font-weight="bold" lengthAdjust="spacing" textLength="19" x="116.5" y="387.6372">alt</text><text fill="#000000" font-family="sans-serif" font-size="11" font-weight="bold" lengthAdjust="spacing" textLength="229" x="180.5" y="386.7808">[a command returns text to display]</text><line style="stroke:#181818;stroke-width:1.0;" x1="144.5" x2="186.5" y1="412.8359" y2="412.8359"/><line style="stroke:#181818;stroke-width:1.0;" x1="186.5" x2="186.5" y1="412.8359" y2="425.8359"/><line style="stroke:#181818;stroke-width:1.0;" x1="145.5" x2="186.5" y1="425.8359" y2="425.8359"/><polygon fill="#181818" points="155.5,421.8359,145.5,425.8359,155.5,429.8359" style="stroke:#181818;stroke-width:1.0;"/><text fill="#000000" font-family="sans-serif" font-size="13" lengthAdjust="spacing" textLength="145" x="151.5" y="407.77">print text to the stdout</text><polygon fill="#181818" points="44.5,490.9688,34.5,494.9688,44.5,498.9688" style="stroke:#181818;stroke-width:1.0;"/><line style="stroke:#181818;stroke-width:1.0;" x1="38.5" x2="133.5" y1="494.9688" y2="494.9688"/><text fill="#000000" font-family="sans-serif" font-size="13" lengthAdjust="spacing" textLength="23" x="50.5" y="489.9028">exit</text><path d="M144,475.8359 L144,500.8359 L480,500.8359 L480,485.8359 L470,475.8359 L144,475.8359 " fill="#FFFFFF" style="stroke:#181818;stroke-width:0.5;"/><path d="M470,475.8359 L470,485.8359 L480,485.8359 L470,475.8359 " fill="#FFFFFF" style="stroke:#181818;stroke-width:0.5;"/><text fill="#000000" font-family="sans-serif" font-size="13" lengthAdjust="spacing" textLength="315" x="150" y="492.9028">terminate the connection and exit the application</text><line style="stroke:#383838;stroke-width:2.0;" x1="125.5" x2="143.5" y1="485.9688" y2="503.9688"/><line style="stroke:#383838;stroke-width:2.0;" x1="125.5" x2="143.5" y1="503.9688" y2="485.9688"/><!--SRC=[RPB1JiCm38RlUGhJwxJsNZ4an9aJ3u12QZ5hgHCbxhJnz3XfkusDgbAZvFVdtt_wHEpyD22qRNTv4-Om9OUv6uBhehSiq-Wxvz5ocm_4ndo54pIlVB0KCkYtCQ2FTH8ID5F6r83DK1Rr8Deav2Wg2TujSJaSzVjmsBnvggNEqx-7Rs4SBGzv5NswPSCW3w2sxhnzO3ggcqVMdQ3WSbrUGSN-zgKQXSq6Uh2mT3DcjuCiofiYx7QcRTj2pmYonpes4CT9GBMw8Y7hwGUrd1cTK62GKBLpJus_hSo5NvYczjN-jrEgZ_uYeZ5w79755g8PKFEdenNy6qmnvwptQwzI6bFG-ytLmeeh7goNwvIGKAR4giAJ5CC3PVqRpZNCrTsIJgz8qbnNQPrDXZ19LTzug_UE9SEQq_DsGMqrO3oHw1nPKZZFGWvQakXxBxsoqqXS6BFjIvR5Qocj-pP6JswEv1S0]--></g></svg>