<?xml version="1.0" encoding="us-ascii" standalone="no"?><svg xmlns="http://www.w3.org/2000/svg" xmlns:xlink="http://www.w3.org/1999/xlink" contentStyleType="text/css" height="1710px" preserveAspectRatio="none" style="width:1409px;height:1710px;background:#FFFFFF;" version="1.1" viewBox="0 0 1409 1710" width="1409px" zoomAndPan="magnify"><defs/><g><rect fill="#EEEEEE" height="1691.4297" style="stroke:#D3D3D3;stroke-width:0.5;" width="1057" x="16" y="6"/><text fill="#777777" font-family="sans-serif" font-size="13" font-weight="bold" lengthAdjust="spacing" textLength="91" x="499" y="18.0669">Ankaios Ank</text><rect fill="#EEEEEE" height="1691.4297" style="stroke:#D3D3D3;stroke-width:0.5;" width="124" x="1262.5" y="6"/><text fill="#777777" font-family="sans-serif" font-size="13" font-weight="bold" lengthAdjust="spacing" textLength="110" x="1269.5" y="18.0669">Ankaios Server</text><rect fill="#FFFFFF" height="51.1328" style="stroke:#FFFFFF;stroke-width:1.0;" width="10" x="149.5" y="132.5625"/><line style="stroke:#181818;stroke-width:1.0;" x1="149.5" x2="149.5" y1="132.5625" y2="183.6953"/><line style="stroke:#181818;stroke-width:1.0;" x1="159.5" x2="159.5" y1="132.5625" y2="183.6953"/><line style="stroke:#181818;stroke-width:1.0;" x1="149.5" x2="159.5" y1="132.5625" y2="132.5625"/><rect fill="#FFFFFF" height="1469.9297" style="stroke:#FFFFFF;stroke-width:1.0;" width="10" x="149.5" y="224.5"/><line style="stroke:#181818;stroke-width:1.0;" x1="149.5" x2="149.5" y1="224.5" y2="1694.4297"/><line style="stroke:#181818;stroke-width:1.0;" x1="159.5" x2="159.5" y1="224.5" y2="1694.4297"/><rect fill="#FFFFFF" height="29.1328" style="stroke:#181818;stroke-width:1.0;" width="10" x="154.5" y="1300.625"/><rect fill="#FFFFFF" height="101.2656" style="stroke:#181818;stroke-width:1.0;" width="10" x="154.5" y="1402.8281"/><rect fill="#FFFFFF" height="28" style="stroke:#181818;stroke-width:1.0;" width="10" x="159.5" y="1439.9609"/><rect fill="#FFFFFF" height="101.2656" style="stroke:#181818;stroke-width:1.0;" width="10" x="154.5" y="1577.1641"/><rect fill="#FFFFFF" height="28" style="stroke:#181818;stroke-width:1.0;" width="10" x="159.5" y="1614.2969"/><rect fill="#FFFFFF" height="1405.6641" style="stroke:#181818;stroke-width:1.0;" width="10" x="465.5" y="288.7656"/><rect fill="#FFFFFF" height="796.2031" style="stroke:#181818;stroke-width:1.0;" width="10" x="470.5" y="898.2266"/><rect fill="#FFFFFF" height="717.1719" style="stroke:#181818;stroke-width:1.0;" width="10" x="475.5" y="977.2578"/><rect fill="#FFFFFF" height="28" style="stroke:#181818;stroke-width:1.0;" width="10" x="480.5" y="1046.1563"/><rect fill="#FFFFFF" height="29.1328" style="stroke:#181818;stroke-width:1.0;" width="10" x="480.5" y="1271.4922"/><rect fill="#FFFFFF" height="29.1328" style="stroke:#181818;stroke-width:1.0;" width="10" x="480.5" y="1373.6953"/><rect fill="#FFFFFF" height="29.1328" style="stroke:#181818;stroke-width:1.0;" width="10" x="480.5" y="1548.0313"/><rect fill="#FFFFFF" height="146.7969" style="stroke:#181818;stroke-width:1.0;" width="10" x="721.5" y="317.8984"/><rect fill="#FFFFFF" height="1054.2031" style="stroke:#181818;stroke-width:1.0;" width="10" x="721.5" y="493.8281"/><rect fill="#FFFFFF" height="58.2656" style="stroke:#181818;stroke-width:1.0;" width="10" x="726.5" y="530.9609"/><rect fill="#FFFFFF" height="697.0703" style="stroke:#181818;stroke-width:1.0;" width="10" x="726.5" y="676.625"/><rect fill="#FFFFFF" height="28" style="stroke:#181818;stroke-width:1.0;" width="10" x="731.5" y="753.0234"/><rect fill="#FFFFFF" height="58.2656" style="stroke:#181818;stroke-width:1.0;" width="10" x="731.5" y="839.9609"/><rect fill="#FFFFFF" height="161.2031" style="stroke:#181818;stroke-width:1.0;" width="10" x="731.5" y="1110.2891"/><rect fill="#FFFFFF" height="28" style="stroke:#181818;stroke-width:1.0;" width="10" x="736.5" y="1162.2266"/><rect fill="#FFFFFF" height="29.1328" style="stroke:#181818;stroke-width:1.0;" width="10" x="979.5" y="362.1641"/><rect fill="#FFFFFF" height="29.1328" style="stroke:#181818;stroke-width:1.0;" width="10" x="979.5" y="589.2266"/><rect fill="#FFFFFF" height="29.1328" style="stroke:#181818;stroke-width:1.0;" width="10" x="979.5" y="647.4922"/><rect fill="#FFFFFF" height="256.1953" style="stroke:#181818;stroke-width:1.0;" width="10" x="1319.5" y="391.2969"/><rect fill="#FFFFFF" height="29.1328" style="stroke:#181818;stroke-width:1.0;" width="10" x="1324.5" y="618.3594"/><rect fill="none" height="668.2656" style="stroke:#000000;stroke-width:1.5;" width="1006.5" x="386" y="550.9609"/><rect fill="none" height="520.6016" style="stroke:#000000;stroke-width:1.5;" width="812.5" x="396" y="691.625"/><rect fill="none" height="345.2656" style="stroke:#000000;stroke-width:1.5;" width="479.5" x="406" y="859.9609"/><rect fill="none" height="453.2031" style="stroke:#000000;stroke-width:1.5;" width="795.5" x="10" y="1233.2266"/><line style="stroke:#181818;stroke-width:0.5;stroke-dasharray:5.0,5.0;" x1="38" x2="38" y1="101.4297" y2="183.6953"/><line style="stroke:#383838;stroke-width:1.0;stroke-dasharray:1.0,4.0;" x1="38" x2="38" y1="183.6953" y2="224.5"/><line style="stroke:#181818;stroke-width:0.5;stroke-dasharray:5.0,5.0;" x1="38" x2="38" y1="224.5" y2="1703.4297"/><line style="stroke:#181818;stroke-width:0.5;stroke-dasharray:5.0,5.0;" x1="154.5" x2="154.5" y1="101.4297" y2="183.6953"/><line style="stroke:#383838;stroke-width:1.0;stroke-dasharray:1.0,4.0;" x1="154.5" x2="154.5" y1="183.6953" y2="224.5"/><line style="stroke:#181818;stroke-width:0.5;stroke-dasharray:5.0,5.0;" x1="154.5" x2="154.5" y1="224.5" y2="1703.4297"/><line style="stroke:#181818;stroke-width:0.5;stroke-dasharray:5.0,5.0;" x1="470" x2="470" y1="101.4297" y2="183.6953"/><line style="stroke:#383838;stroke-width:1.0;stroke-dasharray:1.0,4.0;" x1="470" x2="470" y1="183.6953" y2="224.5"/><line style="stroke:#181818;stroke-width:0.5;stroke-dasharray:5.0,5.0;" x1="470" x2="470" y1="224.5" y2="1703.4297"/><line style="stroke:#181818;stroke-width:0.5;stroke-dasharray:5.0,5.0;" x1="726.5" x2="726.5" y1="101.4297" y2="183.6953"/><line style="stroke:#383838;stroke-width:1.0;stroke-dasharray:1.0,4.0;" x1="726.5" x2="726.5" y1="183.6953" y2="224.5"/><line style="stroke:#181818;stroke-width:0.5;stroke-dasharray:5.0,5.0;" x1="726.5" x2="726.5" y1="224.5" y2="1703.4297"/><line style="stroke:#181818;stroke-width:0.5;stroke-dasharray:5.0,5.0;" x1="984" x2="984" y1="101.4297" y2="183.6953"/><line style="stroke:#383838;stroke-width:1.0;stroke-dasharray:1.0,4.0;" x1="984" x2="984" y1="183.6953" y2="224.5"/><line style="stroke:#181818;stroke-width:0.5;stroke-dasharray:5.0,5.0;" x1="984" x2="984" y1="224.5" y2="1703.4297"/><line style="stroke:#181818;stroke-width:0.5;stroke-dasharray:5.0,5.0;" x1="1324.5" x2="1324.5" y1="101.4297" y2="183.6953"/><line style="stroke:#383838;stroke-width:1.0;stroke-dasharray:1.0,4.0;" x1="1324.5" x2="1324.5" y1="183.6953" y2="224.5"/><line style="stroke:#181818;stroke-width:0.5;stroke-dasharray:5.0,5.0;" x1="1324.5" x2="1324.5" y1="224.5" y2="1703.4297"/><text fill="#000000" font-family="sans-serif" font-size="14" lengthAdjust="spacing" textLength="31" x="20" y="98.1279">user</text><ellipse cx="38.5" cy="33.6328" fill="#E3E3E3" rx="8" ry="8" style="stroke:#181818;stroke-width:0.5;"/><path d="M38.5,41.6328 L38.5,68.6328 M25.5,49.6328 L51.5,49.6328 M38.5,68.6328 L25.5,83.6328 M38.5,68.6328 L51.5,83.6328 " fill="none" style="stroke:#181818;stroke-width:0.5;"/><rect fill="#E3E3E3" height="30.2969" rx="2.5" ry="2.5" style="stroke:#181818;stroke-width:0.5;" width="46" x="131.5" y="70.1328"/><text fill="#000000" font-family="sans-serif" font-size="14" lengthAdjust="spacing" textLength="32" x="138.5" y="90.1279">Main</text><rect fill="#E3E3E3" height="30.2969" rx="2.5" ry="2.5" style="stroke:#181818;stroke-width:0.5;" width="109" x="416" y="70.1328"/><text fill="#000000" font-family="sans-serif" font-size="14" lengthAdjust="spacing" textLength="95" x="423" y="90.1279">CliCommands</text><rect fill="#E3E3E3" height="30.2969" rx="2.5" ry="2.5" style="stroke:#181818;stroke-width:0.5;" width="138" x="657.5" y="70.1328"/><text fill="#000000" font-family="sans-serif" font-size="14" lengthAdjust="spacing" textLength="124" x="664.5" y="90.1279">ServerConnection</text><rect fill="#E3E3E3" height="46.5938" rx="2.5" ry="2.5" style="stroke:#181818;stroke-width:0.5;" width="169" x="900" y="53.8359"/><text fill="#000000" font-family="sans-serif" font-size="14" lengthAdjust="spacing" textLength="47" x="961" y="73.8311">&#171;task&#187;</text><text fill="#000000" font-family="sans-serif" font-size="14" lengthAdjust="spacing" textLength="155" x="907" y="90.1279">CommunicationsClient</text><rect fill="#E3E3E3" height="30.2969" rx="2.5" ry="2.5" style="stroke:#181818;stroke-width:0.5;" width="116" x="1266.5" y="70.1328"/><text fill="#000000" font-family="sans-serif" font-size="14" lengthAdjust="spacing" textLength="102" x="1273.5" y="90.1279">Ankaios Server</text><rect fill="#FFFFFF" height="51.1328" style="stroke:#FFFFFF;stroke-width:1.0;" width="10" x="149.5" y="132.5625"/><line style="stroke:#181818;stroke-width:1.0;" x1="149.5" x2="149.5" y1="132.5625" y2="183.6953"/><line style="stroke:#181818;stroke-width:1.0;" x1="159.5" x2="159.5" y1="132.5625" y2="183.6953"/><line style="stroke:#181818;stroke-width:1.0;" x1="149.5" x2="159.5" y1="132.5625" y2="132.5625"/><rect fill="#FFFFFF" height="1469.9297" style="stroke:#FFFFFF;stroke-width:1.0;" width="10" x="149.5" y="224.5"/><line style="stroke:#181818;stroke-width:1.0;" x1="149.5" x2="149.5" y1="224.5" y2="1694.4297"/><line style="stroke:#181818;stroke-width:1.0;" x1="159.5" x2="159.5" y1="224.5" y2="1694.4297"/><rect fill="#FFFFFF" height="29.1328" style="stroke:#181818;stroke-width:1.0;" width="10" x="154.5" y="1300.625"/><rect fill="#FFFFFF" height="101.2656" style="stroke:#181818;stroke-width:1.0;" width="10" x="154.5" y="1402.8281"/><rect fill="#FFFFFF" height="28" style="stroke:#181818;stroke-width:1.0;" width="10" x="159.5" y="1439.9609"/><rect fill="#FFFFFF" height="101.2656" style="stroke:#181818;stroke-width:1.0;" width="10" x="154.5" y="1577.1641"/><rect fill="#FFFFFF" height="28" style="stroke:#181818;stroke-width:1.0;" width="10" x="159.5" y="1614.2969"/><rect fill="#FFFFFF" height="1405.6641" style="stroke:#181818;stroke-width:1.0;" width="10" x="465.5" y="288.7656"/><rect fill="#FFFFFF" height="796.2031" style="stroke:#181818;stroke-width:1.0;" width="10" x="470.5" y="898.2266"/><rect fill="#FFFFFF" height="717.1719" style="stroke:#181818;stroke-width:1.0;" width="10" x="475.5" y="977.2578"/><rect fill="#FFFFFF" height="28" style="stroke:#181818;stroke-width:1.0;" width="10" x="480.5" y="1046.1563"/><rect fill="#FFFFFF" height="29.1328" style="stroke:#181818;stroke-width:1.0;" width="10" x="480.5" y="1271.4922"/><rect fill="#FFFFFF" height="29.1328" style="stroke:#181818;stroke-width:1.0;" width="10" x="480.5" y="1373.6953"/><rect fill="#FFFFFF" height="29.1328" style="stroke:#181818;stroke-width:1.0;" width="10" x="480.5" y="1548.0313"/><rect fill="#FFFFFF" height="146.7969" style="stroke:#181818;stroke-width:1.0;" width="10" x="721.5" y="317.8984"/><rect fill="#FFFFFF" height="1054.2031" style="stroke:#181818;stroke-width:1.0;" width="10" x="721.5" y="493.8281"/><rect fill="#FFFFFF" height="58.2656" style="stroke:#181818;stroke-width:1.0;" width="10" x="726.5" y="530.9609"/><rect fill="#FFFFFF" height="697.0703" style="stroke:#181818;stroke-width:1.0;" width="10" x="726.5" y="676.625"/><rect fill="#FFFFFF" height="28" style="stroke:#181818;stroke-width:1.0;" width="10" x="731.5" y="753.0234"/><rect fill="#FFFFFF" height="58.2656" style="stroke:#181818;stroke-width:1.0;" width="10" x="731.5" y="839.9609"/><rect fill="#FFFFFF" height="161.2031" style="stroke:#181818;stroke-width:1.0;" width="10" x="731.5" y="1110.2891"/><rect fill="#FFFFFF" height="28" style="stroke:#181818;stroke-width:1.0;" width="10" x="736.5" y="1162.2266"/><rect fill="#FFFFFF" height="29.1328" style="stroke:#181818;stroke-width:1.0;" width="10" x="979.5" y="362.1641"/><rect fill="#FFFFFF" height="29.1328" style="stroke:#181818;stroke-width:1.0;" width="10" x="979.5" y="589.2266"/><rect fill="#FFFFFF" height="29.1328" style="stroke:#181818;stroke-width:1.0;" width="10" x="979.5" y="647.4922"/><rect fill="#FFFFFF" height="256.1953" style="stroke:#181818;stroke-width:1.0;" width="10" x="1319.5" y="391.2969"/><rect fill="#FFFFFF" height="29.1328" style="stroke:#181818;stroke-width:1.0;" width="10" x="1324.5" y="618.3594"/><polygon fill="#181818" points="137.5,128.5625,147.5,132.5625,137.5,136.5625" style="stroke:#181818;stroke-width:1.0;"/><line style="stroke:#181818;stroke-width:1.0;" x1="0" x2="143.5" y1="132.5625" y2="132.5625"/><text fill="#000000" font-family="sans-serif" font-size="13" lengthAdjust="spacing" textLength="95" x="7" y="127.4966">ank get events</text><rect fill="#EEEEEE" height="3" style="stroke:#EEEEEE;stroke-width:1.0;" width="1402.5" x="0" y="161.1289"/><line style="stroke:#000000;stroke-width:1.0;" x1="0" x2="1402.5" y1="161.1289" y2="161.1289"/><line style="stroke:#000000;stroke-width:1.0;" x1="0" x2="1402.5" y1="164.1289" y2="164.1289"/><rect fill="#EEEEEE" height="23.1328" style="stroke:#000000;stroke-width:2.0;" width="73" x="664.75" y="150.5625"/><text fill="#000000" font-family="sans-serif" font-size="13" font-weight="bold" lengthAdjust="spacing" textLength="54" x="670.75" y="166.6294">startup</text><text fill="#000000" font-family="sans-serif" font-size="11" lengthAdjust="spacing" textLength="66" x="648.5" y="207.9058">initialization</text><rect fill="#EEEEEE" height="3" style="stroke:#EEEEEE;stroke-width:1.0;" width="1402.5" x="0" y="245.0664"/><line style="stroke:#000000;stroke-width:1.0;" x1="0" x2="1402.5" y1="245.0664" y2="245.0664"/><line style="stroke:#000000;stroke-width:1.0;" x1="0" x2="1402.5" y1="248.0664" y2="248.0664"/><rect fill="#EEEEEE" height="23.1328" style="stroke:#000000;stroke-width:2.0;" width="92" x="655.25" y="234.5"/><text fill="#000000" font-family="sans-serif" font-size="13" font-weight="bold" lengthAdjust="spacing" textLength="73" x="661.25" y="250.5669">command</text><polygon fill="#181818" points="453.5,284.7656,463.5,288.7656,453.5,292.7656" style="stroke:#181818;stroke-width:1.0;"/><line style="stroke:#181818;stroke-width:1.0;" x1="159.5" x2="459.5" y1="288.7656" y2="288.7656"/><text fill="#000000" font-family="sans-serif" font-size="13" lengthAdjust="spacing" textLength="287" x="166.5" y="283.6997">get events with field mask and output format</text><polygon fill="#181818" points="709.5,313.8984,719.5,317.8984,709.5,321.8984" style="stroke:#181818;stroke-width:1.0;"/><line style="stroke:#181818;stroke-width:1.0;" x1="475.5" x2="715.5" y1="317.8984" y2="317.8984"/><text fill="#000000" font-family="sans-serif" font-size="13" lengthAdjust="spacing" textLength="227" x="482.5" y="312.8325">subscribe for events with field mask</text><line style="stroke:#181818;stroke-width:1.0;" x1="977.5" x2="967.5" y1="362.1641" y2="358.1641"/><line style="stroke:#181818;stroke-width:1.0;" x1="977.5" x2="967.5" y1="362.1641" y2="366.1641"/><line style="stroke:#181818;stroke-width:1.0;" x1="731.5" x2="978.5" y1="362.1641" y2="362.1641"/><text fill="#000000" font-family="sans-serif" font-size="13" lengthAdjust="spacing" textLength="184" x="738.5" y="341.9653">send CompleteStateRequest</text><text fill="#000000" font-family="sans-serif" font-size="13" lengthAdjust="spacing" textLength="201" x="738.5" y="357.0981">with subscribe_for_events=true</text><line style="stroke:#181818;stroke-width:1.0;" x1="1317.5" x2="1307.5" y1="391.2969" y2="387.2969"/><line style="stroke:#181818;stroke-width:1.0;" x1="1317.5" x2="1307.5" y1="391.2969" y2="395.2969"/><line style="stroke:#181818;stroke-width:1.0;" x1="984.5" x2="1318.5" y1="391.2969" y2="391.2969"/><text fill="#000000" font-family="sans-serif" font-size="13" lengthAdjust="spacing" textLength="184" x="991.5" y="386.231">send CompleteStateRequest</text><line style="stroke:#181818;stroke-width:1.0;" x1="732.5" x2="742.5" y1="435.5625" y2="431.5625"/><line style="stroke:#181818;stroke-width:1.0;" x1="732.5" x2="742.5" y1="435.5625" y2="439.5625"/><line style="stroke:#181818;stroke-width:1.0;stroke-dasharray:2.0,2.0;" x1="731.5" x2="983.5" y1="435.5625" y2="435.5625"/><text fill="#000000" font-family="sans-serif" font-size="13" lengthAdjust="spacing" textLength="115" x="748.5" y="415.3638">EventSubscription</text><text fill="#000000" font-family="sans-serif" font-size="13" lengthAdjust="spacing" textLength="96" x="748.5" y="430.4966">with request_id</text><line style="stroke:#181818;stroke-width:1.0;" x1="476.5" x2="486.5" y1="464.6953" y2="460.6953"/><line style="stroke:#181818;stroke-width:1.0;" x1="476.5" x2="486.5" y1="464.6953" y2="468.6953"/><line style="stroke:#181818;stroke-width:1.0;stroke-dasharray:2.0,2.0;" x1="475.5" x2="725.5" y1="464.6953" y2="464.6953"/><text fill="#000000" font-family="sans-serif" font-size="13" lengthAdjust="spacing" textLength="115" x="492.5" y="459.6294">EventSubscription</text><polygon fill="#181818" points="709.5,489.8281,719.5,493.8281,709.5,497.8281" style="stroke:#181818;stroke-width:1.0;"/><line style="stroke:#181818;stroke-width:1.0;" x1="475.5" x2="715.5" y1="493.8281" y2="493.8281"/><text fill="#000000" font-family="sans-serif" font-size="13" lengthAdjust="spacing" textLength="217" x="482.5" y="488.7622">receive events until signal or error</text><line style="stroke:#181818;stroke-width:1.0;" x1="731.5" x2="778.5" y1="517.9609" y2="517.9609"/><line style="stroke:#181818;stroke-width:1.0;" x1="778.5" x2="778.5" y1="517.9609" y2="530.9609"/><line style="stroke:#181818;stroke-width:1.0;" x1="737.5" x2="778.5" y1="530.9609" y2="530.9609"/><polygon fill="#181818" points="747.5,526.9609,737.5,530.9609,747.5,534.9609" style="stroke:#181818;stroke-width:1.0;"/><text fill="#000000" font-family="sans-serif" font-size="13" lengthAdjust="spacing" textLength="165" x="743.5" y="512.895">listen for event messages</text><path d="M386,550.9609 L463,550.9609 L463,558.0938 L453,568.0938 L386,568.0938 L386,550.9609 " fill="#EEEEEE" style="stroke:#000000;stroke-width:1.5;"/><rect fill="none" height="668.2656" style="stroke:#000000;stroke-width:1.5;" width="1006.5" x="386" y="550.9609"/><text fill="#000000" font-family="sans-serif" font-size="13" font-weight="bold" lengthAdjust="spacing" textLength="32" x="401" y="564.0278">loop</text><text fill="#000000" font-family="sans-serif" font-size="11" font-weight="bold" lengthAdjust="spacing" textLength="243" x="478" y="563.1714">[until unix termination signal or error]</text><line style="stroke:#181818;stroke-width:1.0;" x1="977.5" x2="967.5" y1="589.2266" y2="585.2266"/><line style="stroke:#181818;stroke-width:1.0;" x1="977.5" x2="967.5" y1="589.2266" y2="593.2266"/><line style="stroke:#181818;stroke-width:1.0;" x1="731.5" x2="978.5" y1="589.2266" y2="589.2266"/><text fill="#000000" font-family="sans-serif" font-size="13" lengthAdjust="spacing" textLength="200" x="738.5" y="584.1606">listen to FromServer messages</text><line style="stroke:#181818;stroke-width:1.0;" x1="1322.5" x2="1312.5" y1="618.3594" y2="614.3594"/><line style="stroke:#181818;stroke-width:1.0;" x1="1322.5" x2="1312.5" y1="618.3594" y2="622.3594"/><line style="stroke:#181818;stroke-width:1.0;" x1="984.5" x2="1323.5" y1="618.3594" y2="618.3594"/><text fill="#000000" font-family="sans-serif" font-size="13" lengthAdjust="spacing" textLength="200" x="991.5" y="613.2935">listen to FromServer messages</text><line style="stroke:#181818;stroke-width:1.0;" x1="990.5" x2="1000.5" y1="647.4922" y2="643.4922"/><line style="stroke:#181818;stroke-width:1.0;" x1="990.5" x2="1000.5" y1="647.4922" y2="651.4922"/><line style="stroke:#181818;stroke-width:1.0;stroke-dasharray:2.0,2.0;" x1="989.5" x2="1323.5" y1="647.4922" y2="647.4922"/><text fill="#000000" font-family="sans-serif" font-size="13" lengthAdjust="spacing" textLength="311" x="1006.5" y="642.4263">FromServer message (CompleteStateResponse)</text><line style="stroke:#181818;stroke-width:1.0;" x1="737.5" x2="747.5" y1="676.625" y2="672.625"/><line style="stroke:#181818;stroke-width:1.0;" x1="737.5" x2="747.5" y1="676.625" y2="680.625"/><line style="stroke:#181818;stroke-width:1.0;stroke-dasharray:2.0,2.0;" x1="736.5" x2="983.5" y1="676.625" y2="676.625"/><text fill="#000000" font-family="sans-serif" font-size="13" lengthAdjust="spacing" textLength="159" x="753.5" y="671.5591">CompleteStateResponse</text><path d="M396,691.625 L460,691.625 L460,698.7578 L450,708.7578 L396,708.7578 L396,691.625 " fill="#EEEEEE" style="stroke:#000000;stroke-width:1.5;"/><rect fill="none" height="520.6016" style="stroke:#000000;stroke-width:1.5;" width="812.5" x="396" y="691.625"/><text fill="#000000" font-family="sans-serif" font-size="13" font-weight="bold" lengthAdjust="spacing" textLength="19" x="411" y="704.6919">alt</text><text fill="#000000" font-family="sans-serif" font-size="11" font-weight="bold" lengthAdjust="spacing" textLength="248" x="475" y="703.8354">[initial state response (first message)]</text><line style="stroke:#181818;stroke-width:1.0;" x1="741.5" x2="783.5" y1="745.0234" y2="745.0234"/><line style="stroke:#181818;stroke-width:1.0;" x1="783.5" x2="783.5" y1="745.0234" y2="758.0234"/><line style="stroke:#181818;stroke-width:1.0;" x1="742.5" x2="783.5" y1="758.0234" y2="758.0234"/><polygon fill="#181818" points="752.5,754.0234,742.5,758.0234,752.5,762.0234" style="stroke:#181818;stroke-width:1.0;"/><text fill="#000000" font-family="sans-serif" font-size="13" lengthAdjust="spacing" textLength="99" x="748.5" y="724.8247">skip initial state</text><text fill="#000000" font-family="sans-serif" font-size="13" lengthAdjust="spacing" textLength="229" x="748.5" y="739.9575">set initial_response_received = true</text><path d="M989,717.2578 L989,757.2578 L1183,757.2578 L1183,727.2578 L1173,717.2578 L989,717.2578 " fill="#FFFFFF" style="stroke:#181818;stroke-width:0.5;"/><path d="M1173,717.2578 L1173,727.2578 L1183,727.2578 L1173,717.2578 " fill="#FFFFFF" style="stroke:#181818;stroke-width:0.5;"/><text fill="#000000" font-family="sans-serif" font-size="13" lengthAdjust="spacing" textLength="173" x="995" y="734.3247">Initial state is not an event,</text><text fill="#000000" font-family="sans-serif" font-size="13" lengthAdjust="spacing" textLength="143" x="995" y="749.4575">just baseline snapshot</text><line style="stroke:#000000;stroke-width:1.0;stroke-dasharray:2.0,2.0;" x1="396" x2="1208.5" y1="797.0234" y2="797.0234"/><text fill="#000000" font-family="sans-serif" font-size="11" font-weight="bold" lengthAdjust="spacing" textLength="195" x="401" y="807.2339">[subsequent event responses]</text><line style="stroke:#181818;stroke-width:1.0;" x1="736.5" x2="783.5" y1="826.9609" y2="826.9609"/><line style="stroke:#181818;stroke-width:1.0;" x1="783.5" x2="783.5" y1="826.9609" y2="839.9609"/><line style="stroke:#181818;stroke-width:1.0;" x1="742.5" x2="783.5" y1="839.9609" y2="839.9609"/><polygon fill="#181818" points="752.5,835.9609,742.5,839.9609,752.5,843.9609" style="stroke:#181818;stroke-width:1.0;"/><text fill="#000000" font-family="sans-serif" font-size="13" lengthAdjust="spacing" textLength="118" x="748.5" y="821.895">filter by request_id</text><path d="M406,859.9609 L470,859.9609 L470,867.0938 L460,877.0938 L406,877.0938 L406,859.9609 " fill="#EEEEEE" style="stroke:#000000;stroke-width:1.5;"/><rect fill="none" height="345.2656" style="stroke:#000000;stroke-width:1.5;" width="479.5" x="406" y="859.9609"/><text fill="#000000" font-family="sans-serif" font-size="13" font-weight="bold" lengthAdjust="spacing" textLength="19" x="421" y="873.0278">alt</text><text fill="#000000" font-family="sans-serif" font-size="11" font-weight="bold" lengthAdjust="spacing" textLength="218" x="485" y="872.1714">[request_id matches subscription]</text><line style="stroke:#181818;stroke-width:1.0;" x1="481.5" x2="491.5" y1="898.2266" y2="894.2266"/><line style="stroke:#181818;stroke-width:1.0;" x1="481.5" x2="491.5" y1="898.2266" y2="902.2266"/><line style="stroke:#181818;stroke-width:1.0;stroke-dasharray:2.0,2.0;" x1="480.5" x2="725.5" y1="898.2266" y2="898.2266"/><text fill="#000000" font-family="sans-serif" font-size="13" lengthAdjust="spacing" textLength="209" x="497.5" y="893.1606">event (CompleteStateResponse)</text><line style="stroke:#181818;stroke-width:1.0;" x1="480.5" x2="527.5" y1="964.2578" y2="964.2578"/><line style="stroke:#181818;stroke-width:1.0;" x1="527.5" x2="527.5" y1="964.2578" y2="977.2578"/><line style="stroke:#181818;stroke-width:1.0;" x1="486.5" x2="527.5" y1="977.2578" y2="977.2578"/><polygon fill="#181818" points="496.5,973.2578,486.5,977.2578,496.5,981.2578" style="stroke:#181818;stroke-width:1.0;"/><text fill="#000000" font-family="sans-serif" font-size="13" lengthAdjust="spacing" textLength="186" x="492.5" y="944.0591">format event with timestamp</text><text fill="#000000" font-family="sans-serif" font-size="13" lengthAdjust="spacing" textLength="110" x="492.5" y="959.1919">and altered fields</text><path d="M690,911.2266 L690,1011.2266 L860,1011.2266 L860,921.2266 L850,911.2266 L690,911.2266 " fill="#FFFFFF" style="stroke:#181818;stroke-width:0.5;"/><path d="M850,911.2266 L850,921.2266 L860,921.2266 L850,911.2266 " fill="#FFFFFF" style="stroke:#181818;stroke-width:0.5;"/><text fill="#000000" font-family="sans-serif" font-size="13" lengthAdjust="spacing" textLength="95" x="696" y="928.2935">Output format:</text><text fill="#000000" font-family="sans-serif" font-size="13" lengthAdjust="spacing" textLength="149" x="696" y="943.4263">- timestamp (RFC3339)</text><text fill="#000000" font-family="sans-serif" font-size="13" lengthAdjust="spacing" textLength="85" x="696" y="958.5591">- addedFields</text><text fill="#000000" font-family="sans-serif" font-size="13" lengthAdjust="spacing" textLength="98" x="696" y="973.6919">- updatedFields</text><text fill="#000000" font-family="sans-serif" font-size="13" lengthAdjust="spacing" textLength="102" x="696" y="988.8247">- removedFields</text><text fill="#000000" font-family="sans-serif" font-size="13" lengthAdjust="spacing" textLength="104" x="696" y="1003.9575">- completeState</text><line style="stroke:#181818;stroke-width:1.0;" x1="490.5" x2="532.5" y1="1038.1563" y2="1038.1563"/><line style="stroke:#181818;stroke-width:1.0;" x1="532.5" x2="532.5" y1="1038.1563" y2="1051.1563"/><line style="stroke:#181818;stroke-width:1.0;" x1="491.5" x2="532.5" y1="1051.1563" y2="1051.1563"/><polygon fill="#181818" points="501.5,1047.1563,491.5,1051.1563,501.5,1055.1563" style="stroke:#181818;stroke-width:1.0;"/><text fill="#000000" font-family="sans-serif" font-size="13" lengthAdjust="spacing" textLength="183" x="497.5" y="1033.0903">output event (YAML or JSON)</text><polygon fill="#181818" points="719.5,1106.2891,729.5,1110.2891,719.5,1114.2891" style="stroke:#181818;stroke-width:1.0;"/><line style="stroke:#181818;stroke-width:1.0;" x1="485.5" x2="725.5" y1="1110.2891" y2="1110.2891"/><text fill="#000000" font-family="sans-serif" font-size="13" lengthAdjust="spacing" textLength="118" x="492.5" y="1105.2231">receive next event</text><line style="stroke:#000000;stroke-width:1.0;stroke-dasharray:2.0,2.0;" x1="406" x2="885.5" y1="1119.2891" y2="1119.2891"/><text fill="#000000" font-family="sans-serif" font-size="11" font-weight="bold" lengthAdjust="spacing" textLength="180" x="411" y="1129.4995">[request_id does not match]</text><line style="stroke:#181818;stroke-width:1.0;" x1="746.5" x2="788.5" y1="1154.2266" y2="1154.2266"/><line style="stroke:#181818;stroke-width:1.0;" x1="788.5" x2="788.5" y1="1154.2266" y2="1167.2266"/><line style="stroke:#181818;stroke-width:1.0;" x1="747.5" x2="788.5" y1="1167.2266" y2="1167.2266"/><polygon fill="#181818" points="757.5,1163.2266,747.5,1167.2266,757.5,1171.2266" style="stroke:#181818;stroke-width:1.0;"/><text fill="#000000" font-family="sans-serif" font-size="13" lengthAdjust="spacing" textLength="103" x="753.5" y="1149.1606">ignore message</text><path d="M10,1233.2266 L74,1233.2266 L74,1240.3594 L64,1250.3594 L10,1250.3594 L10,1233.2266 " fill="#EEEEEE" style="stroke:#000000;stroke-width:1.5;"/><rect fill="none" height="453.2031" style="stroke:#000000;stroke-width:1.5;" width="795.5" x="10" y="1233.2266"/><text fill="#000000" font-family="sans-serif" font-size="13" font-weight="bold" lengthAdjust="spacing" textLength="19" x="25" y="1246.2935">alt</text><text fill="#000000" font-family="sans-serif" font-size="11" font-weight="bold" lengthAdjust="spacing" textLength="245" x="89" y="1245.437">[signal interruption (SIGINT/SIGTERM)]</text><line style="stroke:#181818;stroke-width:1.0;" x1="491.5" x2="501.5" y1="1271.4922" y2="1267.4922"/><line style="stroke:#181818;stroke-width:1.0;" x1="491.5" x2="501.5" y1="1271.4922" y2="1275.4922"/><line style="stroke:#181818;stroke-width:1.0;stroke-dasharray:2.0,2.0;" x1="490.5" x2="725.5" y1="1271.4922" y2="1271.4922"/><text fill="#000000" font-family="sans-serif" font-size="13" lengthAdjust="spacing" textLength="109" x="507.5" y="1266.4263">graceful exit (Ok)</text><line style="stroke:#181818;stroke-width:1.0;" x1="165.5" x2="175.5" y1="1300.625" y2="1296.625"/><line style="stroke:#181818;stroke-width:1.0;" x1="165.5" x2="175.5" y1="1300.625" y2="1304.625"/><line style="stroke:#181818;stroke-width:1.0;stroke-dasharray:2.0,2.0;" x1="164.5" x2="474.5" y1="1300.625" y2="1300.625"/><text fill="#000000" font-family="sans-serif" font-size="13" lengthAdjust="spacing" textLength="103" x="181.5" y="1295.5591">exit successfully</text><line style="stroke:#181818;stroke-width:1.0;" x1="39.5" x2="49.5" y1="1329.7578" y2="1325.7578"/><line style="stroke:#181818;stroke-width:1.0;" x1="39.5" x2="49.5" y1="1329.7578" y2="1333.7578"/><line style="stroke:#181818;stroke-width:1.0;stroke-dasharray:2.0,2.0;" x1="38.5" x2="148.5" y1="1329.7578" y2="1329.7578"/><text fill="#000000" font-family="sans-serif" font-size="13" lengthAdjust="spacing" textLength="23" x="55.5" y="1324.6919">exit</text><line style="stroke:#000000;stroke-width:1.0;stroke-dasharray:2.0,2.0;" x1="10" x2="805.5" y1="1338.7578" y2="1338.7578"/><text fill="#000000" font-family="sans-serif" font-size="11" font-weight="bold" lengthAdjust="spacing" textLength="157" x="15" y="1348.9683">[connection interrupted]</text><line style="stroke:#181818;stroke-width:1.0;" x1="491.5" x2="501.5" y1="1373.6953" y2="1369.6953"/><line style="stroke:#181818;stroke-width:1.0;" x1="491.5" x2="501.5" y1="1373.6953" y2="1377.6953"/><line style="stroke:#181818;stroke-width:1.0;stroke-dasharray:2.0,2.0;" x1="490.5" x2="720.5" y1="1373.6953" y2="1373.6953"/><text fill="#000000" font-family="sans-serif" font-size="13" lengthAdjust="spacing" textLength="105" x="507.5" y="1368.6294">connection error</text><line style="stroke:#181818;stroke-width:1.0;" x1="165.5" x2="175.5" y1="1402.8281" y2="1398.8281"/><line style="stroke:#181818;stroke-width:1.0;" x1="165.5" x2="175.5" y1="1402.8281" y2="1406.8281"/><line style="stroke:#181818;stroke-width:1.0;stroke-dasharray:2.0,2.0;" x1="164.5" x2="474.5" y1="1402.8281" y2="1402.8281"/><text fill="#000000" font-family="sans-serif" font-size="13" lengthAdjust="spacing" textLength="31" x="181.5" y="1397.7622">error</text><line style="stroke:#181818;stroke-width:1.0;" x1="169.5" x2="211.5" y1="1431.9609" y2="1431.9609"/><line style="stroke:#181818;stroke-width:1.0;" x1="211.5" x2="211.5" y1="1431.9609" y2="1444.9609"/><line style="stroke:#181818;stroke-width:1.0;" x1="170.5" x2="211.5" y1="1444.9609" y2="1444.9609"/><polygon fill="#181818" points="180.5,1440.9609,170.5,1444.9609,180.5,1448.9609" style="stroke:#181818;stroke-width:1.0;"/><text fill="#000000" font-family="sans-serif" font-size="13" lengthAdjust="spacing" textLength="64" x="176.5" y="1426.895">print error</text><line style="stroke:#181818;stroke-width:1.0;" x1="39.5" x2="49.5" y1="1504.0938" y2="1500.0938"/><line style="stroke:#181818;stroke-width:1.0;" x1="39.5" x2="49.5" y1="1504.0938" y2="1508.0938"/><line style="stroke:#181818;stroke-width:1.0;stroke-dasharray:2.0,2.0;" x1="38.5" x2="148.5" y1="1504.0938" y2="1504.0938"/><text fill="#000000" font-family="sans-serif" font-size="13" lengthAdjust="spacing" textLength="87" x="55.5" y="1499.0278">exit with error</text><line style="stroke:#000000;stroke-width:1.0;stroke-dasharray:2.0,2.0;" x1="10" x2="805.5" y1="1513.0938" y2="1513.0938"/><text fill="#000000" font-family="sans-serif" font-size="11" font-weight="bold" lengthAdjust="spacing" textLength="206" x="15" y="1523.3042">[subscription or reception error]</text><line style="stroke:#181818;stroke-width:1.0;" x1="491.5" x2="501.5" y1="1548.0313" y2="1544.0313"/><line style="stroke:#181818;stroke-width:1.0;" x1="491.5" x2="501.5" y1="1548.0313" y2="1552.0313"/><line style="stroke:#181818;stroke-width:1.0;stroke-dasharray:2.0,2.0;" x1="490.5" x2="725.5" y1="1548.0313" y2="1548.0313"/><text fill="#000000" font-family="sans-serif" font-size="13" lengthAdjust="spacing" textLength="31" x="507.5" y="1542.9653">error</text><line style="stroke:#181818;stroke-width:1.0;" x1="165.5" x2="175.5" y1="1577.1641" y2="1573.1641"/><line style="stroke:#181818;stroke-width:1.0;" x1="165.5" x2="175.5" y1="1577.1641" y2="1581.1641"/><line style="stroke:#181818;stroke-width:1.0;stroke-dasharray:2.0,2.0;" x1="164.5" x2="474.5" y1="1577.1641" y2="1577.1641"/><text fill="#000000" font-family="sans-serif" font-size="13" lengthAdjust="spacing" textLength="31" x="181.5" y="1572.0981">error</text><line style="stroke:#181818;stroke-width:1.0;" x1="169.5" x2="211.5" y1="1606.2969" y2="1606.2969"/><line style="stroke:#181818;stroke-width:1.0;" x1="211.5" x2="211.5" y1="1606.2969" y2="1619.2969"/><line style="stroke:#181818;stroke-width:1.0;" x1="170.5" x2="211.5" y1="1619.2969" y2="1619.2969"/><polygon fill="#181818" points="180.5,1615.2969,170.5,1619.2969,180.5,1623.2969" style="stroke:#181818;stroke-width:1.0;"/><text fill="#000000" font-family="sans-serif" font-size="13" lengthAdjust="spacing" textLength="64" x="176.5" y="1601.231">print error</text><line style="stroke:#181818;stroke-width:1.0;" x1="39.5" x2="49.5" y1="1678.4297" y2="1674.4297"/><line style="stroke:#181818;stroke-width:1.0;" x1="39.5" x2="49.5" y1="1678.4297" y2="1682.4297"/><line style="stroke:#181818;stroke-width:1.0;stroke-dasharray:2.0,2.0;" x1="38.5" x2="148.5" y1="1678.4297" y2="1678.4297"/><text fill="#000000" font-family="sans-serif" font-size="13" lengthAdjust="spacing" textLength="87" x="55.5" y="1673.3638">exit with error</text><!--SRC=[nLPDR-Cs4BthLqnzIh2rVSYfHcnW4MoA5Cq6YFUoG023bYOEQufKIShDzjTtXjI7zM4txgL20XdYyBtXp9id_IHrgieCOJQRDtyMdIbjYcwUcNHUAA5zcQjvgb3ecTjBdIHRymwJptelf750zqa2T8dK6mkJqg6TW730Fy928QoNgIm82Hw5rBoOqtsmEBbJyixakT2P2n2fafkqUZ2CNgCzeBqpMcFgfT5XYmiFQLVzTBZlzjOBjr-jNZIJbLgcWWCTiQFsaRYpi4d3Ie8w0pfxhm0nZScGfnVGPjS2JLUX4l3f4on0w3tiq0CUYCmboN89pXDWMS1ocIIpsGoabbuA9VyEYL7VPY6igb482tY4UroxYDzYmr_Ily6hH9KHlzi3RpQbBqeFhyRcmYT9Pp_X3GfBe0jmvTQbLcwHzvr0JuPRfwlLU8q39fU7MbCezBZsmkCp_bcYyoyw83US6-BSHCwbjoKcev21BAO0qscen4c6aLHlRwTJE04yNS0Nfb_7Z0fUhPAq4N0Ziruf0zv8HSQmFjO5Ef355EK1wmQKsai5JkwqKC1ziTROqJQS0bJIUTHjKo57vyGEIPRAcA9Ye9AyWqURInq5sQVacRYW-w4_3RatS6zD7iUdJO0nFzJe_mvqrACAQRWVhde2SWKXu7M0pP3SK1xeUJtouvKuAoxc7UL8ejygN_i1-mHHsMeThbwbTKtFOagdMZ6g05OZUNtH9NWXx8PpKxDjAl6H_K2OmffD6yv9xjvyyuYlXqxEqd4S6L3KsS-Tq3zAEiLME5HIKoMrADoRQT5uYfaaF4151sThuC7JbTCr9N6Nrs115gP8tB3zSJpDDGwNltrCHkVJDtIrEHNDg-SCRvY3pe27diVCpychllhkqFFyHMNc5MBm9Iz95LxanOjcqnTyGcfTS6lN0J_HFhwUZbyLYy7oj6M1g-VxkvkRcr-kHw94bc5sFsIEgsMHqS5FhrlCpU7CUdfSlyvwHpSVh2LFHFM6hFhp_VFZx-nqlwsVlfvloxYwQi_M-5vXji9cBH-9ApCOnoIexDzaTNgaoPsDnTeNZkSegU_ydx2sAokNcWHYow1dk5e__FhmzTkSRj- -F3zU9vS9UsT5Yg-b0doNLC2dVGJeHQwgRw9g63ZKbIbza3hQgdw4BLK0XV9NPdXvSc0I2dUKIPCzPXVcUXJIlihEPzg4rPzWrQSTPrTOoPxK2naS8Cve36iChROJ5XkBfkXbTO6p_4yd8Ktz0m00]--></g></svg>