<?xml version="1.0" encoding="us-ascii" standalone="no"?><svg xmlns="http://www.w3.org/2000/svg" xmlns:xlink="http://www.w3.org/1999/xlink" contentStyleType="text/css" height="1515px" preserveAspectRatio="none" style="width:928px;height:1515px;background:#FFFFFF;" version="1.1" viewBox="0 0 928 1515" width="928px" zoomAndPan="magnify"><defs/><g><rect fill="#EEEEEE" height="1496.3516" style="stroke:#D3D3D3;stroke-width:0.5;" width="731.5" x="11" y="6"/><text fill="#777777" font-family="sans-serif" font-size="13" font-weight="bold" lengthAdjust="spacing" textLength="91" x="331.25" y="18.0669">Ankaios Ank</text><rect fill="#EEEEEE" height="1496.3516" style="stroke:#D3D3D3;stroke-width:0.5;" width="124" x="771" y="6"/><text fill="#777777" font-family="sans-serif" font-size="13" font-weight="bold" lengthAdjust="spacing" textLength="110" x="778" y="18.0669">Ankaios Server</text><rect fill="#FFFFFF" height="51.1328" style="stroke:#FFFFFF;stroke-width:1.0;" width="10" x="109.5" y="132.5625"/><line style="stroke:#181818;stroke-width:1.0;" x1="109.5" x2="109.5" y1="132.5625" y2="183.6953"/><line style="stroke:#181818;stroke-width:1.0;" x1="119.5" x2="119.5" y1="132.5625" y2="183.6953"/><line style="stroke:#181818;stroke-width:1.0;" x1="109.5" x2="119.5" y1="132.5625" y2="132.5625"/><rect fill="#FFFFFF" height="1265.8516" style="stroke:#FFFFFF;stroke-width:1.0;" width="10" x="109.5" y="224.5"/><line style="stroke:#181818;stroke-width:1.0;" x1="109.5" x2="109.5" y1="224.5" y2="1490.3516"/><line style="stroke:#181818;stroke-width:1.0;" x1="119.5" x2="119.5" y1="224.5" y2="1490.3516"/><line style="stroke:#181818;stroke-width:1.0;" x1="109.5" x2="119.5" y1="1490.3516" y2="1490.3516"/><rect fill="#FFFFFF" height="1172.4531" style="stroke:#181818;stroke-width:1.0;" width="10" x="197" y="288.7656"/><rect fill="#FFFFFF" height="187.7969" style="stroke:#181818;stroke-width:1.0;" width="10" x="433" y="317.8984"/><rect fill="#FFFFFF" height="63.2656" style="stroke:#181818;stroke-width:1.0;" width="10" x="438" y="413.2969"/><rect fill="#FFFFFF" height="187.7969" style="stroke:#181818;stroke-width:1.0;" width="10" x="433" y="659.0313"/><rect fill="#FFFFFF" height="63.2656" style="stroke:#181818;stroke-width:1.0;" width="10" x="438" y="754.4297"/><rect fill="#FFFFFF" height="29.1328" style="stroke:#181818;stroke-width:1.0;" width="10" x="433" y="918.0938"/><rect fill="#FFFFFF" height="129.5313" style="stroke:#181818;stroke-width:1.0;" width="10" x="433" y="1157.1563"/><rect fill="#FFFFFF" height="63.2656" style="stroke:#181818;stroke-width:1.0;" width="10" x="438" y="1194.2891"/><rect fill="#FFFFFF" height="29.1328" style="stroke:#181818;stroke-width:1.0;" width="10" x="649" y="347.0313"/><rect fill="#FFFFFF" height="29.1328" style="stroke:#181818;stroke-width:1.0;" width="10" x="649" y="447.4297"/><rect fill="#FFFFFF" height="29.1328" style="stroke:#181818;stroke-width:1.0;" width="10" x="649" y="688.1641"/><rect fill="#FFFFFF" height="29.1328" style="stroke:#181818;stroke-width:1.0;" width="10" x="649" y="788.5625"/><rect fill="#FFFFFF" height="29.1328" style="stroke:#181818;stroke-width:1.0;" width="10" x="649" y="1228.4219"/><rect fill="#FFFFFF" height="71.2656" style="stroke:#181818;stroke-width:1.0;" width="10" x="828" y="376.1641"/><rect fill="#FFFFFF" height="71.2656" style="stroke:#181818;stroke-width:1.0;" width="10" x="828" y="717.2969"/><rect fill="none" height="884.3906" style="stroke:#000000;stroke-width:1.5;" width="803.5" x="107.5" y="563.8281"/><rect fill="none" height="322.3281" style="stroke:#000000;stroke-width:1.5;" width="783.5" x="117.5" y="1118.8906"/><rect fill="none" height="132.5313" style="stroke:#000000;stroke-width:1.5;" width="375" x="127.5" y="1301.6875"/><rect fill="none" height="59.2656" style="stroke:#000000;stroke-width:1.5;" width="355" x="137.5" y="1325.8203"/><line style="stroke:#181818;stroke-width:0.5;stroke-dasharray:5.0,5.0;" x1="33" x2="33" y1="101.4297" y2="183.6953"/><line style="stroke:#383838;stroke-width:1.0;stroke-dasharray:1.0,4.0;" x1="33" x2="33" y1="183.6953" y2="224.5"/><line style="stroke:#181818;stroke-width:0.5;stroke-dasharray:5.0,5.0;" x1="33" x2="33" y1="224.5" y2="1508.3516"/><line style="stroke:#181818;stroke-width:0.5;stroke-dasharray:5.0,5.0;" x1="114.5" x2="114.5" y1="101.4297" y2="183.6953"/><line style="stroke:#383838;stroke-width:1.0;stroke-dasharray:1.0,4.0;" x1="114.5" x2="114.5" y1="183.6953" y2="224.5"/><line style="stroke:#181818;stroke-width:0.5;stroke-dasharray:5.0,5.0;" x1="114.5" x2="114.5" y1="224.5" y2="1508.3516"/><line style="stroke:#181818;stroke-width:0.5;stroke-dasharray:5.0,5.0;" x1="201.5" x2="201.5" y1="101.4297" y2="183.6953"/><line style="stroke:#383838;stroke-width:1.0;stroke-dasharray:1.0,4.0;" x1="201.5" x2="201.5" y1="183.6953" y2="224.5"/><line style="stroke:#181818;stroke-width:0.5;stroke-dasharray:5.0,5.0;" x1="201.5" x2="201.5" y1="224.5" y2="1508.3516"/><line style="stroke:#181818;stroke-width:0.5;stroke-dasharray:5.0,5.0;" x1="438" x2="438" y1="101.4297" y2="183.6953"/><line style="stroke:#383838;stroke-width:1.0;stroke-dasharray:1.0,4.0;" x1="438" x2="438" y1="183.6953" y2="224.5"/><line style="stroke:#181818;stroke-width:0.5;stroke-dasharray:5.0,5.0;" x1="438" x2="438" y1="224.5" y2="1508.3516"/><line style="stroke:#181818;stroke-width:0.5;stroke-dasharray:5.0,5.0;" x1="653.5" x2="653.5" y1="101.4297" y2="183.6953"/><line style="stroke:#383838;stroke-width:1.0;stroke-dasharray:1.0,4.0;" x1="653.5" x2="653.5" y1="183.6953" y2="224.5"/><line style="stroke:#181818;stroke-width:0.5;stroke-dasharray:5.0,5.0;" x1="653.5" x2="653.5" y1="224.5" y2="1508.3516"/><line style="stroke:#181818;stroke-width:0.5;stroke-dasharray:5.0,5.0;" x1="833" x2="833" y1="101.4297" y2="183.6953"/><line style="stroke:#383838;stroke-width:1.0;stroke-dasharray:1.0,4.0;" x1="833" x2="833" y1="183.6953" y2="224.5"/><line style="stroke:#181818;stroke-width:0.5;stroke-dasharray:5.0,5.0;" x1="833" x2="833" y1="224.5" y2="1508.3516"/><text fill="#000000" font-family="sans-serif" font-size="14" lengthAdjust="spacing" textLength="31" x="15" y="98.1279">user</text><ellipse cx="33.5" cy="33.6328" fill="#E3E3E3" rx="8" ry="8" style="stroke:#181818;stroke-width:0.5;"/><path d="M33.5,41.6328 L33.5,68.6328 M20.5,49.6328 L46.5,49.6328 M33.5,68.6328 L20.5,83.6328 M33.5,68.6328 L46.5,83.6328 " fill="none" style="stroke:#181818;stroke-width:0.5;"/><rect fill="#E3E3E3" height="30.2969" rx="2.5" ry="2.5" style="stroke:#181818;stroke-width:0.5;" width="46" x="91.5" y="70.1328"/><text fill="#000000" font-family="sans-serif" font-size="14" lengthAdjust="spacing" textLength="32" x="98.5" y="90.1279">Main</text><rect fill="#E3E3E3" height="30.2969" rx="2.5" ry="2.5" style="stroke:#181818;stroke-width:0.5;" width="109" x="147.5" y="70.1328"/><text fill="#000000" font-family="sans-serif" font-size="14" lengthAdjust="spacing" textLength="95" x="154.5" y="90.1279">CliCommands</text><rect fill="#E3E3E3" height="30.2969" rx="2.5" ry="2.5" style="stroke:#181818;stroke-width:0.5;" width="138" x="369" y="70.1328"/><text fill="#000000" font-family="sans-serif" font-size="14" lengthAdjust="spacing" textLength="124" x="376" y="90.1279">ServerConnection</text><rect fill="#E3E3E3" height="46.5938" rx="2.5" ry="2.5" style="stroke:#181818;stroke-width:0.5;" width="169" x="569.5" y="53.8359"/><text fill="#000000" font-family="sans-serif" font-size="14" lengthAdjust="spacing" textLength="47" x="630.5" y="73.8311">&#171;task&#187;</text><text fill="#000000" font-family="sans-serif" font-size="14" lengthAdjust="spacing" textLength="155" x="576.5" y="90.1279">CommunicationsClient</text><rect fill="#E3E3E3" height="30.2969" rx="2.5" ry="2.5" style="stroke:#181818;stroke-width:0.5;" width="116" x="775" y="70.1328"/><text fill="#000000" font-family="sans-serif" font-size="14" lengthAdjust="spacing" textLength="102" x="782" y="90.1279">Ankaios Server</text><rect fill="#FFFFFF" height="51.1328" style="stroke:#FFFFFF;stroke-width:1.0;" width="10" x="109.5" y="132.5625"/><line style="stroke:#181818;stroke-width:1.0;" x1="109.5" x2="109.5" y1="132.5625" y2="183.6953"/><line style="stroke:#181818;stroke-width:1.0;" x1="119.5" x2="119.5" y1="132.5625" y2="183.6953"/><line style="stroke:#181818;stroke-width:1.0;" x1="109.5" x2="119.5" y1="132.5625" y2="132.5625"/><rect fill="#FFFFFF" height="1265.8516" style="stroke:#FFFFFF;stroke-width:1.0;" width="10" x="109.5" y="224.5"/><line style="stroke:#181818;stroke-width:1.0;" x1="109.5" x2="109.5" y1="224.5" y2="1490.3516"/><line style="stroke:#181818;stroke-width:1.0;" x1="119.5" x2="119.5" y1="224.5" y2="1490.3516"/><line style="stroke:#181818;stroke-width:1.0;" x1="109.5" x2="119.5" y1="1490.3516" y2="1490.3516"/><rect fill="#FFFFFF" height="1172.4531" style="stroke:#181818;stroke-width:1.0;" width="10" x="197" y="288.7656"/><rect fill="#FFFFFF" height="187.7969" style="stroke:#181818;stroke-width:1.0;" width="10" x="433" y="317.8984"/><rect fill="#FFFFFF" height="63.2656" style="stroke:#181818;stroke-width:1.0;" width="10" x="438" y="413.2969"/><rect fill="#FFFFFF" height="187.7969" style="stroke:#181818;stroke-width:1.0;" width="10" x="433" y="659.0313"/><rect fill="#FFFFFF" height="63.2656" style="stroke:#181818;stroke-width:1.0;" width="10" x="438" y="754.4297"/><rect fill="#FFFFFF" height="29.1328" style="stroke:#181818;stroke-width:1.0;" width="10" x="433" y="918.0938"/><rect fill="#FFFFFF" height="129.5313" style="stroke:#181818;stroke-width:1.0;" width="10" x="433" y="1157.1563"/><rect fill="#FFFFFF" height="63.2656" style="stroke:#181818;stroke-width:1.0;" width="10" x="438" y="1194.2891"/><rect fill="#FFFFFF" height="29.1328" style="stroke:#181818;stroke-width:1.0;" width="10" x="649" y="347.0313"/><rect fill="#FFFFFF" height="29.1328" style="stroke:#181818;stroke-width:1.0;" width="10" x="649" y="447.4297"/><rect fill="#FFFFFF" height="29.1328" style="stroke:#181818;stroke-width:1.0;" width="10" x="649" y="688.1641"/><rect fill="#FFFFFF" height="29.1328" style="stroke:#181818;stroke-width:1.0;" width="10" x="649" y="788.5625"/><rect fill="#FFFFFF" height="29.1328" style="stroke:#181818;stroke-width:1.0;" width="10" x="649" y="1228.4219"/><rect fill="#FFFFFF" height="71.2656" style="stroke:#181818;stroke-width:1.0;" width="10" x="828" y="376.1641"/><rect fill="#FFFFFF" height="71.2656" style="stroke:#181818;stroke-width:1.0;" width="10" x="828" y="717.2969"/><polygon fill="#181818" points="97.5,128.5625,107.5,132.5625,97.5,136.5625" style="stroke:#181818;stroke-width:1.0;"/><line style="stroke:#181818;stroke-width:1.0;" x1="33.5" x2="103.5" y1="132.5625" y2="132.5625"/><text fill="#000000" font-family="sans-serif" font-size="13" lengthAdjust="spacing" textLength="57" x="40.5" y="127.4966">set state</text><rect fill="#EEEEEE" height="3" style="stroke:#EEEEEE;stroke-width:1.0;" width="921" x="0" y="161.1289"/><line style="stroke:#000000;stroke-width:1.0;" x1="0" x2="921" y1="161.1289" y2="161.1289"/><line style="stroke:#000000;stroke-width:1.0;" x1="0" x2="921" y1="164.1289" y2="164.1289"/><rect fill="#EEEEEE" height="23.1328" style="stroke:#000000;stroke-width:2.0;" width="73" x="424" y="150.5625"/><text fill="#000000" font-family="sans-serif" font-size="13" font-weight="bold" lengthAdjust="spacing" textLength="54" x="430" y="166.6294">startup</text><text fill="#000000" font-family="sans-serif" font-size="11" lengthAdjust="spacing" textLength="66" x="400.25" y="207.9058">initialization</text><rect fill="#EEEEEE" height="3" style="stroke:#EEEEEE;stroke-width:1.0;" width="921" x="0" y="245.0664"/><line style="stroke:#000000;stroke-width:1.0;" x1="0" x2="921" y1="245.0664" y2="245.0664"/><line style="stroke:#000000;stroke-width:1.0;" x1="0" x2="921" y1="248.0664" y2="248.0664"/><rect fill="#EEEEEE" height="23.1328" style="stroke:#000000;stroke-width:2.0;" width="92" x="414.5" y="234.5"/><text fill="#000000" font-family="sans-serif" font-size="13" font-weight="bold" lengthAdjust="spacing" textLength="73" x="420.5" y="250.5669">command</text><polygon fill="#181818" points="185,284.7656,195,288.7656,185,292.7656" style="stroke:#181818;stroke-width:1.0;"/><line style="stroke:#181818;stroke-width:1.0;" x1="119.5" x2="191" y1="288.7656" y2="288.7656"/><text fill="#000000" font-family="sans-serif" font-size="13" lengthAdjust="spacing" textLength="57" x="126.5" y="283.6997">set state</text><polygon fill="#181818" points="421,313.8984,431,317.8984,421,321.8984" style="stroke:#181818;stroke-width:1.0;"/><line style="stroke:#181818;stroke-width:1.0;" x1="207" x2="427" y1="317.8984" y2="317.8984"/><text fill="#000000" font-family="sans-serif" font-size="13" lengthAdjust="spacing" textLength="135" x="214" y="312.8325">request update state</text><line style="stroke:#181818;stroke-width:1.0;" x1="647" x2="637" y1="347.0313" y2="343.0313"/><line style="stroke:#181818;stroke-width:1.0;" x1="647" x2="637" y1="347.0313" y2="351.0313"/><line style="stroke:#181818;stroke-width:1.0;" x1="443" x2="648" y1="347.0313" y2="347.0313"/><text fill="#000000" font-family="sans-serif" font-size="13" lengthAdjust="spacing" textLength="135" x="450" y="341.9653">request update state</text><line style="stroke:#181818;stroke-width:1.0;" x1="826" x2="816" y1="376.1641" y2="372.1641"/><line style="stroke:#181818;stroke-width:1.0;" x1="826" x2="816" y1="376.1641" y2="380.1641"/><line style="stroke:#181818;stroke-width:1.0;" x1="654" x2="827" y1="376.1641" y2="376.1641"/><text fill="#000000" font-family="sans-serif" font-size="13" lengthAdjust="spacing" textLength="135" x="661" y="371.0981">request update state</text><line style="stroke:#181818;stroke-width:1.0;" x1="443" x2="490" y1="400.2969" y2="400.2969"/><line style="stroke:#181818;stroke-width:1.0;" x1="490" x2="490" y1="400.2969" y2="413.2969"/><line style="stroke:#181818;stroke-width:1.0;" x1="449" x2="490" y1="413.2969" y2="413.2969"/><polygon fill="#181818" points="459,409.2969,449,413.2969,459,417.2969" style="stroke:#181818;stroke-width:1.0;"/><text fill="#000000" font-family="sans-serif" font-size="13" lengthAdjust="spacing" textLength="134" x="455" y="395.231">wait for the response</text><line style="stroke:#181818;stroke-width:1.0;" x1="660" x2="670" y1="447.4297" y2="443.4297"/><line style="stroke:#181818;stroke-width:1.0;" x1="660" x2="670" y1="447.4297" y2="451.4297"/><line style="stroke:#181818;stroke-width:1.0;" x1="659" x2="832" y1="447.4297" y2="447.4297"/><text fill="#000000" font-family="sans-serif" font-size="13" lengthAdjust="spacing" textLength="122" x="676" y="442.3638">changed workloads</text><line style="stroke:#181818;stroke-width:1.0;" x1="444" x2="454" y1="476.5625" y2="472.5625"/><line style="stroke:#181818;stroke-width:1.0;" x1="444" x2="454" y1="476.5625" y2="480.5625"/><line style="stroke:#181818;stroke-width:1.0;" x1="443" x2="653" y1="476.5625" y2="476.5625"/><text fill="#000000" font-family="sans-serif" font-size="13" lengthAdjust="spacing" textLength="122" x="460" y="471.4966">changed workloads</text><line style="stroke:#181818;stroke-width:1.0;" x1="208" x2="218" y1="505.6953" y2="501.6953"/><line style="stroke:#181818;stroke-width:1.0;" x1="208" x2="218" y1="505.6953" y2="509.6953"/><line style="stroke:#181818;stroke-width:1.0;stroke-dasharray:2.0,2.0;" x1="207" x2="437" y1="505.6953" y2="505.6953"/><text fill="#000000" font-family="sans-serif" font-size="13" lengthAdjust="spacing" textLength="122" x="224" y="500.6294">changed workloads</text><rect fill="#EEEEEE" height="3" style="stroke:#EEEEEE;stroke-width:1.0;" width="921" x="0" y="534.2617"/><line style="stroke:#000000;stroke-width:1.0;" x1="0" x2="921" y1="534.2617" y2="534.2617"/><line style="stroke:#000000;stroke-width:1.0;" x1="0" x2="921" y1="537.2617" y2="537.2617"/><rect fill="#EEEEEE" height="23.1328" style="stroke:#000000;stroke-width:2.0;" width="273" x="324" y="523.6953"/><text fill="#000000" font-family="sans-serif" font-size="13" font-weight="bold" lengthAdjust="spacing" textLength="254" x="330" y="539.7622">wait for workloads and print state</text><path d="M107.5,563.8281 L171.5,563.8281 L171.5,570.9609 L161.5,580.9609 L107.5,580.9609 L107.5,563.8281 " fill="#EEEEEE" style="stroke:#000000;stroke-width:1.5;"/><rect fill="none" height="884.3906" style="stroke:#000000;stroke-width:1.5;" width="803.5" x="107.5" y="563.8281"/><text fill="#000000" font-family="sans-serif" font-size="13" font-weight="bold" lengthAdjust="spacing" textLength="19" x="122.5" y="576.895">alt</text><text fill="#000000" font-family="sans-serif" font-size="11" font-weight="bold" lengthAdjust="spacing" textLength="155" x="186.5" y="576.0386">[no workloads changed]</text><line style="stroke:#181818;stroke-width:1.0;" x1="207" x2="249" y1="602.0938" y2="602.0938"/><line style="stroke:#181818;stroke-width:1.0;" x1="249" x2="249" y1="602.0938" y2="615.0938"/><line style="stroke:#181818;stroke-width:1.0;" x1="208" x2="249" y1="615.0938" y2="615.0938"/><polygon fill="#181818" points="218,611.0938,208,615.0938,218,619.0938" style="stroke:#181818;stroke-width:1.0;"/><text fill="#000000" font-family="sans-serif" font-size="13" lengthAdjust="spacing" textLength="207" x="214" y="597.0278">output "No workloads to update"</text><line style="stroke:#000000;stroke-width:1.0;stroke-dasharray:2.0,2.0;" x1="107.5" x2="911" y1="624.0938" y2="624.0938"/><text fill="#000000" font-family="sans-serif" font-size="11" font-weight="bold" lengthAdjust="spacing" textLength="135" x="112.5" y="634.3042">[workloads changed]</text><polygon fill="#181818" points="421,655.0313,431,659.0313,421,663.0313" style="stroke:#181818;stroke-width:1.0;"/><line style="stroke:#181818;stroke-width:1.0;" x1="207" x2="427" y1="659.0313" y2="659.0313"/><text fill="#000000" font-family="sans-serif" font-size="13" lengthAdjust="spacing" textLength="150" x="214" y="653.9653">request complete state</text><line style="stroke:#181818;stroke-width:1.0;" x1="647" x2="637" y1="688.1641" y2="684.1641"/><line style="stroke:#181818;stroke-width:1.0;" x1="647" x2="637" y1="688.1641" y2="692.1641"/><line style="stroke:#181818;stroke-width:1.0;" x1="443" x2="648" y1="688.1641" y2="688.1641"/><text fill="#000000" font-family="sans-serif" font-size="13" lengthAdjust="spacing" textLength="150" x="450" y="683.0981">request complete state</text><line style="stroke:#181818;stroke-width:1.0;" x1="826" x2="816" y1="717.2969" y2="713.2969"/><line style="stroke:#181818;stroke-width:1.0;" x1="826" x2="816" y1="717.2969" y2="721.2969"/><line style="stroke:#181818;stroke-width:1.0;" x1="654" x2="827" y1="717.2969" y2="717.2969"/><text fill="#000000" font-family="sans-serif" font-size="13" lengthAdjust="spacing" textLength="150" x="661" y="712.231">request complete state</text><line style="stroke:#181818;stroke-width:1.0;" x1="443" x2="490" y1="741.4297" y2="741.4297"/><line style="stroke:#181818;stroke-width:1.0;" x1="490" x2="490" y1="741.4297" y2="754.4297"/><line style="stroke:#181818;stroke-width:1.0;" x1="449" x2="490" y1="754.4297" y2="754.4297"/><polygon fill="#181818" points="459,750.4297,449,754.4297,459,758.4297" style="stroke:#181818;stroke-width:1.0;"/><text fill="#000000" font-family="sans-serif" font-size="13" lengthAdjust="spacing" textLength="134" x="455" y="736.3638">wait for the response</text><line style="stroke:#181818;stroke-width:1.0;" x1="660" x2="670" y1="788.5625" y2="784.5625"/><line style="stroke:#181818;stroke-width:1.0;" x1="660" x2="670" y1="788.5625" y2="792.5625"/><line style="stroke:#181818;stroke-width:1.0;" x1="659" x2="832" y1="788.5625" y2="788.5625"/><text fill="#000000" font-family="sans-serif" font-size="13" lengthAdjust="spacing" textLength="97" x="676" y="783.4966">complete state</text><line style="stroke:#181818;stroke-width:1.0;" x1="444" x2="454" y1="817.6953" y2="813.6953"/><line style="stroke:#181818;stroke-width:1.0;" x1="444" x2="454" y1="817.6953" y2="821.6953"/><line style="stroke:#181818;stroke-width:1.0;" x1="443" x2="653" y1="817.6953" y2="817.6953"/><text fill="#000000" font-family="sans-serif" font-size="13" lengthAdjust="spacing" textLength="97" x="460" y="812.6294">complete state</text><line style="stroke:#181818;stroke-width:1.0;" x1="208" x2="218" y1="846.8281" y2="842.8281"/><line style="stroke:#181818;stroke-width:1.0;" x1="208" x2="218" y1="846.8281" y2="850.8281"/><line style="stroke:#181818;stroke-width:1.0;" x1="207" x2="437" y1="846.8281" y2="846.8281"/><text fill="#000000" font-family="sans-serif" font-size="13" lengthAdjust="spacing" textLength="97" x="224" y="841.7622">complete state</text><line style="stroke:#181818;stroke-width:1.0;" x1="207" x2="249" y1="875.9609" y2="875.9609"/><line style="stroke:#181818;stroke-width:1.0;" x1="249" x2="249" y1="875.9609" y2="888.9609"/><line style="stroke:#181818;stroke-width:1.0;" x1="208" x2="249" y1="888.9609" y2="888.9609"/><polygon fill="#181818" points="218,884.9609,208,888.9609,218,892.9609" style="stroke:#181818;stroke-width:1.0;"/><text fill="#000000" font-family="sans-serif" font-size="13" lengthAdjust="spacing" textLength="175" x="214" y="870.895">filter for changed workloads</text><polygon fill="#181818" points="421,914.0938,431,918.0938,421,922.0938" style="stroke:#181818;stroke-width:1.0;"/><line style="stroke:#181818;stroke-width:1.0;" x1="207" x2="427" y1="918.0938" y2="918.0938"/><text fill="#000000" font-family="sans-serif" font-size="13" lengthAdjust="spacing" textLength="148" x="214" y="913.0278">take missed messages</text><polygon fill="#181818" points="218,943.2266,208,947.2266,218,951.2266" style="stroke:#181818;stroke-width:1.0;"/><line style="stroke:#181818;stroke-width:1.0;stroke-dasharray:2.0,2.0;" x1="212" x2="437" y1="947.2266" y2="947.2266"/><text fill="#000000" font-family="sans-serif" font-size="13" lengthAdjust="spacing" textLength="116" x="224" y="942.1606">missed messages</text><line style="stroke:#181818;stroke-width:1.0;" x1="207" x2="249" y1="991.4922" y2="991.4922"/><line style="stroke:#181818;stroke-width:1.0;" x1="249" x2="249" y1="991.4922" y2="1004.4922"/><line style="stroke:#181818;stroke-width:1.0;" x1="208" x2="249" y1="1004.4922" y2="1004.4922"/><polygon fill="#181818" points="218,1000.4922,208,1004.4922,218,1008.4922" style="stroke:#181818;stroke-width:1.0;"/><text fill="#000000" font-family="sans-serif" font-size="13" lengthAdjust="spacing" textLength="158" x="214" y="971.2935">filter for update workload</text><text fill="#000000" font-family="sans-serif" font-size="13" lengthAdjust="spacing" textLength="103" x="214" y="986.4263">state messages</text><line style="stroke:#181818;stroke-width:1.0;" x1="207" x2="249" y1="1048.7578" y2="1048.7578"/><line style="stroke:#181818;stroke-width:1.0;" x1="249" x2="249" y1="1048.7578" y2="1061.7578"/><line style="stroke:#181818;stroke-width:1.0;" x1="208" x2="249" y1="1061.7578" y2="1061.7578"/><polygon fill="#181818" points="218,1057.7578,208,1061.7578,218,1065.7578" style="stroke:#181818;stroke-width:1.0;"/><text fill="#000000" font-family="sans-serif" font-size="13" lengthAdjust="spacing" textLength="150" x="214" y="1028.5591">mark all worloads which</text><text fill="#000000" font-family="sans-serif" font-size="13" lengthAdjust="spacing" textLength="140" x="214" y="1043.6919">reached desired state</text><line style="stroke:#181818;stroke-width:1.0;" x1="207" x2="249" y1="1090.8906" y2="1090.8906"/><line style="stroke:#181818;stroke-width:1.0;" x1="249" x2="249" y1="1090.8906" y2="1103.8906"/><line style="stroke:#181818;stroke-width:1.0;" x1="208" x2="249" y1="1103.8906" y2="1103.8906"/><polygon fill="#181818" points="218,1099.8906,208,1103.8906,218,1107.8906" style="stroke:#181818;stroke-width:1.0;"/><text fill="#000000" font-family="sans-serif" font-size="13" lengthAdjust="spacing" textLength="125" x="214" y="1085.8247">print workload table</text><path d="M117.5,1118.8906 L194.5,1118.8906 L194.5,1126.0234 L184.5,1136.0234 L117.5,1136.0234 L117.5,1118.8906 " fill="#EEEEEE" style="stroke:#000000;stroke-width:1.5;"/><rect fill="none" height="322.3281" style="stroke:#000000;stroke-width:1.5;" width="783.5" x="117.5" y="1118.8906"/><text fill="#000000" font-family="sans-serif" font-size="13" font-weight="bold" lengthAdjust="spacing" textLength="32" x="132.5" y="1131.9575">loop</text><text fill="#000000" font-family="sans-serif" font-size="11" font-weight="bold" lengthAdjust="spacing" textLength="310" x="209.5" y="1131.1011">[until all changed workloads have been marked]</text><polygon fill="#181818" points="421,1153.1563,431,1157.1563,421,1161.1563" style="stroke:#181818;stroke-width:1.0;"/><line style="stroke:#181818;stroke-width:1.0;" x1="207" x2="427" y1="1157.1563" y2="1157.1563"/><text fill="#000000" font-family="sans-serif" font-size="13" lengthAdjust="spacing" textLength="207" x="214" y="1152.0903">read next update workload state</text><line style="stroke:#181818;stroke-width:1.0;" x1="443" x2="490" y1="1181.2891" y2="1181.2891"/><line style="stroke:#181818;stroke-width:1.0;" x1="490" x2="490" y1="1181.2891" y2="1194.2891"/><line style="stroke:#181818;stroke-width:1.0;" x1="449" x2="490" y1="1194.2891" y2="1194.2891"/><polygon fill="#181818" points="459,1190.2891,449,1194.2891,459,1198.2891" style="stroke:#181818;stroke-width:1.0;"/><text fill="#000000" font-family="sans-serif" font-size="13" lengthAdjust="spacing" textLength="192" x="455" y="1176.2231">wait for update workload state</text><line style="stroke:#181818;stroke-width:1.0;" x1="660" x2="670" y1="1228.4219" y2="1224.4219"/><line style="stroke:#181818;stroke-width:1.0;" x1="660" x2="670" y1="1228.4219" y2="1232.4219"/><line style="stroke:#181818;stroke-width:1.0;" x1="659" x2="832" y1="1228.4219" y2="1228.4219"/><text fill="#000000" font-family="sans-serif" font-size="13" lengthAdjust="spacing" textLength="142" x="676" y="1223.356">update workload state</text><line style="stroke:#181818;stroke-width:1.0;" x1="444" x2="454" y1="1257.5547" y2="1253.5547"/><line style="stroke:#181818;stroke-width:1.0;" x1="444" x2="454" y1="1257.5547" y2="1261.5547"/><line style="stroke:#181818;stroke-width:1.0;" x1="443" x2="653" y1="1257.5547" y2="1257.5547"/><text fill="#000000" font-family="sans-serif" font-size="13" lengthAdjust="spacing" textLength="142" x="460" y="1252.4888">update workload state</text><line style="stroke:#181818;stroke-width:1.0;" x1="208" x2="218" y1="1286.6875" y2="1282.6875"/><line style="stroke:#181818;stroke-width:1.0;" x1="208" x2="218" y1="1286.6875" y2="1290.6875"/><line style="stroke:#181818;stroke-width:1.0;" x1="207" x2="437" y1="1286.6875" y2="1286.6875"/><text fill="#000000" font-family="sans-serif" font-size="13" lengthAdjust="spacing" textLength="142" x="224" y="1281.6216">update workload state</text><path d="M127.5,1301.6875 L191.5,1301.6875 L191.5,1308.8203 L181.5,1318.8203 L127.5,1318.8203 L127.5,1301.6875 " fill="#EEEEEE" style="stroke:#000000;stroke-width:1.5;"/><rect fill="none" height="132.5313" style="stroke:#000000;stroke-width:1.5;" width="375" x="127.5" y="1301.6875"/><text fill="#000000" font-family="sans-serif" font-size="13" font-weight="bold" lengthAdjust="spacing" textLength="19" x="142.5" y="1314.7544">alt</text><text fill="#000000" font-family="sans-serif" font-size="11" font-weight="bold" lengthAdjust="spacing" textLength="271" x="206.5" y="1313.8979">[updated workload in changed workloads]</text><path d="M137.5,1325.8203 L201.5,1325.8203 L201.5,1332.9531 L191.5,1342.9531 L137.5,1342.9531 L137.5,1325.8203 " fill="#EEEEEE" style="stroke:#000000;stroke-width:1.5;"/><rect fill="none" height="59.2656" style="stroke:#000000;stroke-width:1.5;" width="355" x="137.5" y="1325.8203"/><text fill="#000000" font-family="sans-serif" font-size="13" font-weight="bold" lengthAdjust="spacing" textLength="19" x="152.5" y="1338.8872">alt</text><text fill="#000000" font-family="sans-serif" font-size="11" font-weight="bold" lengthAdjust="spacing" textLength="271" x="216.5" y="1338.0308">[updated workload reached desired state]</text><line style="stroke:#181818;stroke-width:1.0;" x1="207" x2="249" y1="1364.0859" y2="1364.0859"/><line style="stroke:#181818;stroke-width:1.0;" x1="249" x2="249" y1="1364.0859" y2="1377.0859"/><line style="stroke:#181818;stroke-width:1.0;" x1="208" x2="249" y1="1377.0859" y2="1377.0859"/><polygon fill="#181818" points="218,1373.0859,208,1377.0859,218,1381.0859" style="stroke:#181818;stroke-width:1.0;"/><text fill="#000000" font-family="sans-serif" font-size="13" lengthAdjust="spacing" textLength="169" x="214" y="1359.02">mark workload as updated</text><line style="stroke:#181818;stroke-width:1.0;" x1="207" x2="249" y1="1413.2188" y2="1413.2188"/><line style="stroke:#181818;stroke-width:1.0;" x1="249" x2="249" y1="1413.2188" y2="1426.2188"/><line style="stroke:#181818;stroke-width:1.0;" x1="208" x2="249" y1="1426.2188" y2="1426.2188"/><polygon fill="#181818" points="218,1422.2188,208,1426.2188,218,1430.2188" style="stroke:#181818;stroke-width:1.0;"/><text fill="#000000" font-family="sans-serif" font-size="13" lengthAdjust="spacing" textLength="182" x="214" y="1408.1528">print updated workload table</text><line style="stroke:#181818;stroke-width:1.0;" x1="120.5" x2="130.5" y1="1461.2188" y2="1457.2188"/><line style="stroke:#181818;stroke-width:1.0;" x1="120.5" x2="130.5" y1="1461.2188" y2="1465.2188"/><line style="stroke:#181818;stroke-width:1.0;stroke-dasharray:2.0,2.0;" x1="119.5" x2="201" y1="1461.2188" y2="1461.2188"/><polygon fill="#181818" points="44.5,1486.3516,34.5,1490.3516,44.5,1494.3516" style="stroke:#181818;stroke-width:1.0;"/><line style="stroke:#181818;stroke-width:1.0;" x1="38.5" x2="113.5" y1="1490.3516" y2="1490.3516"/><text fill="#000000" font-family="sans-serif" font-size="13" lengthAdjust="spacing" textLength="23" x="50.5" y="1485.2856">exit</text><!--SRC=[dPPDR-CW48Rl_8fPNoixzoY9jEfvzxBNIXN5qmO5WnTm4-sltm7Sn37agrOgfsRccG_USVWXjL13Yz0qY-F7eZE35UWMhH6BNd7jXqujX4Ak6xUJch4tSu3gfzvnQHpGlM905nVUMAW6XxO2xY1yYGizjruAsHC9Vd6fms97zsonUbRosNGTrwsB2A7agnWVvDP_q7wYVJPQe_3IwEZYuaFo-dgQ-wrMdhlTPlEYGx11Iy63eQFeg7qAVBRmAk8AGzq2rJvhG4gZokFC34xPdK2XHr1lOZlWwGcMPE71UUwHiVKwVBD-w66zPgnf6f1QUicL_1SJetrhejdOesWMKOISzcwEFbiZswnfvB04Yty7T1w6lYMdqJKthJURShykCehMaPFeKDSnuQ9pCOCB5UovzF1EglHR99hhAHmHol5NgteQVmbYo_K7jh0tTgSC9mdcKOBJXNBg4g556XFv6Sl9b7gsBKIkSvioDMZWMElnCGH9z5RgSTkZFBZoeCt4QAH5-SvrCVr_2MRm_K2w_ZrrzsRSdegXSbW05ydN5KUMlSBZbWV0DtLN83sglXdYOZOFQV1o8haCxsd63HtcYAj2p7RibDHPpMNqTHMzI-Mfjj2HWf3lruhdEuHEEaU03ftZ7vX-8opwmUhYqjsPZM-ShyHUT1gW1s0TjplWIWL6ceVzLehjYxRK-2qbrgAJbkuJLLqdfad-IedgVrEZdpAcXq5xgMB4hAsmvPy8RuWwfZKE-oDZIV4q7loyBvDD_-vKb8cd16_DI80zcjNrORbEkpat3ypEZTh3gpgPdFQIJW25iO79LVGgYmvcrnsAFXB30Iz5ESFGoORTZqoIph9DqfuZmptyfHDE_7ayfzUCZISgwdWw1jNq7iU3zEm_]--></g></svg>