<?xml version="1.0" encoding="us-ascii" standalone="no"?><svg xmlns="http://www.w3.org/2000/svg" xmlns:xlink="http://www.w3.org/1999/xlink" contentStyleType="text/css" height="747px" preserveAspectRatio="none" style="width:867px;height:747px;background:#FFFFFF;" version="1.1" viewBox="0 0 867 747" width="867px" zoomAndPan="magnify"><defs/><g><rect fill="#EEEEEE" height="728.4922" style="stroke:#D3D3D3;stroke-width:0.5;" width="657.5" x="11" y="6"/><text fill="#777777" font-family="sans-serif" font-size="13" font-weight="bold" lengthAdjust="spacing" textLength="91" x="294.25" y="18.0669">Ankaios Ank</text><rect fill="#EEEEEE" height="728.4922" style="stroke:#D3D3D3;stroke-width:0.5;" width="124" x="720.5" y="6"/><text fill="#777777" font-family="sans-serif" font-size="13" font-weight="bold" lengthAdjust="spacing" textLength="110" x="727.5" y="18.0669">Ankaios Server</text><rect fill="#FFFFFF" height="51.1328" style="stroke:#FFFFFF;stroke-width:1.0;" width="10" x="126" y="132.5625"/><line style="stroke:#181818;stroke-width:1.0;" x1="126" x2="126" y1="132.5625" y2="183.6953"/><line style="stroke:#181818;stroke-width:1.0;" x1="136" x2="136" y1="132.5625" y2="183.6953"/><line style="stroke:#181818;stroke-width:1.0;" x1="126" x2="136" y1="132.5625" y2="132.5625"/><rect fill="#FFFFFF" height="497.9922" style="stroke:#FFFFFF;stroke-width:1.0;" width="10" x="126" y="224.5"/><line style="stroke:#181818;stroke-width:1.0;" x1="126" x2="126" y1="224.5" y2="722.4922"/><line style="stroke:#181818;stroke-width:1.0;" x1="136" x2="136" y1="224.5" y2="722.4922"/><line style="stroke:#181818;stroke-width:1.0;" x1="126" x2="136" y1="722.4922" y2="722.4922"/><rect fill="#FFFFFF" height="404.5938" style="stroke:#181818;stroke-width:1.0;" width="10" x="262" y="288.7656"/><rect fill="#FFFFFF" height="95.3984" style="stroke:#181818;stroke-width:1.0;" width="10" x="267" y="447.4297"/><rect fill="#FFFFFF" height="58.2656" style="stroke:#181818;stroke-width:1.0;" width="10" x="272" y="484.5625"/><rect fill="#FFFFFF" height="84.2656" style="stroke:#181818;stroke-width:1.0;" width="10" x="267" y="609.0938"/><rect fill="#FFFFFF" height="21" style="stroke:#181818;stroke-width:1.0;" width="10" x="272" y="672.3594"/><rect fill="#FFFFFF" height="29.1328" style="stroke:#181818;stroke-width:1.0;" width="10" x="462" y="418.2969"/><rect fill="#FFFFFF" height="29.1328" style="stroke:#181818;stroke-width:1.0;" width="10" x="462" y="643.2266"/><rect fill="#FFFFFF" height="29.1328" style="stroke:#181818;stroke-width:1.0;" width="10" x="598.5" y="317.8984"/><rect fill="#FFFFFF" height="29.1328" style="stroke:#181818;stroke-width:1.0;" width="10" x="598.5" y="542.8281"/><rect fill="#FFFFFF" height="71.2656" style="stroke:#181818;stroke-width:1.0;" width="10" x="777.5" y="347.0313"/><rect fill="#FFFFFF" height="71.2656" style="stroke:#181818;stroke-width:1.0;" width="10" x="777.5" y="571.9609"/><rect fill="none" height="175.7969" style="stroke:#000000;stroke-width:1.5;" width="648" x="202.5" y="504.5625"/><line style="stroke:#181818;stroke-width:0.5;stroke-dasharray:5.0,5.0;" x1="33" x2="33" y1="101.4297" y2="183.6953"/><line style="stroke:#383838;stroke-width:1.0;stroke-dasharray:1.0,4.0;" x1="33" x2="33" y1="183.6953" y2="224.5"/><line style="stroke:#181818;stroke-width:0.5;stroke-dasharray:5.0,5.0;" x1="33" x2="33" y1="224.5" y2="740.4922"/><line style="stroke:#181818;stroke-width:0.5;stroke-dasharray:5.0,5.0;" x1="131" x2="131" y1="101.4297" y2="183.6953"/><line style="stroke:#383838;stroke-width:1.0;stroke-dasharray:1.0,4.0;" x1="131" x2="131" y1="183.6953" y2="224.5"/><line style="stroke:#181818;stroke-width:0.5;stroke-dasharray:5.0,5.0;" x1="131" x2="131" y1="224.5" y2="740.4922"/><line style="stroke:#181818;stroke-width:0.5;stroke-dasharray:5.0,5.0;" x1="266.5" x2="266.5" y1="101.4297" y2="183.6953"/><line style="stroke:#383838;stroke-width:1.0;stroke-dasharray:1.0,4.0;" x1="266.5" x2="266.5" y1="183.6953" y2="224.5"/><line style="stroke:#181818;stroke-width:0.5;stroke-dasharray:5.0,5.0;" x1="266.5" x2="266.5" y1="224.5" y2="740.4922"/><line style="stroke:#181818;stroke-width:0.5;stroke-dasharray:5.0,5.0;" x1="466.5" x2="466.5" y1="101.4297" y2="183.6953"/><line style="stroke:#383838;stroke-width:1.0;stroke-dasharray:1.0,4.0;" x1="466.5" x2="466.5" y1="183.6953" y2="224.5"/><line style="stroke:#181818;stroke-width:0.5;stroke-dasharray:5.0,5.0;" x1="466.5" x2="466.5" y1="224.5" y2="740.4922"/><line style="stroke:#181818;stroke-width:0.5;stroke-dasharray:5.0,5.0;" x1="603.5" x2="603.5" y1="101.4297" y2="183.6953"/><line style="stroke:#383838;stroke-width:1.0;stroke-dasharray:1.0,4.0;" x1="603.5" x2="603.5" y1="183.6953" y2="224.5"/><line style="stroke:#181818;stroke-width:0.5;stroke-dasharray:5.0,5.0;" x1="603.5" x2="603.5" y1="224.5" y2="740.4922"/><line style="stroke:#181818;stroke-width:0.5;stroke-dasharray:5.0,5.0;" x1="782.5" x2="782.5" y1="101.4297" y2="183.6953"/><line style="stroke:#383838;stroke-width:1.0;stroke-dasharray:1.0,4.0;" x1="782.5" x2="782.5" y1="183.6953" y2="224.5"/><line style="stroke:#181818;stroke-width:0.5;stroke-dasharray:5.0,5.0;" x1="782.5" x2="782.5" y1="224.5" y2="740.4922"/><text fill="#000000" font-family="sans-serif" font-size="14" lengthAdjust="spacing" textLength="31" x="15" y="98.1279">user</text><ellipse cx="33.5" cy="33.6328" fill="#E3E3E3" rx="8" ry="8" style="stroke:#181818;stroke-width:0.5;"/><path d="M33.5,41.6328 L33.5,68.6328 M20.5,49.6328 L46.5,49.6328 M33.5,68.6328 L20.5,83.6328 M33.5,68.6328 L46.5,83.6328 " fill="none" style="stroke:#181818;stroke-width:0.5;"/><rect fill="#E3E3E3" height="30.2969" rx="2.5" ry="2.5" style="stroke:#181818;stroke-width:0.5;" width="46" x="108" y="70.1328"/><text fill="#000000" font-family="sans-serif" font-size="14" lengthAdjust="spacing" textLength="32" x="115" y="90.1279">Main</text><rect fill="#E3E3E3" height="30.2969" rx="2.5" ry="2.5" style="stroke:#181818;stroke-width:0.5;" width="109" x="212.5" y="70.1328"/><text fill="#000000" font-family="sans-serif" font-size="14" lengthAdjust="spacing" textLength="95" x="219.5" y="90.1279">CliCommands</text><rect fill="#E3E3E3" height="62.8906" rx="2.5" ry="2.5" style="stroke:#181818;stroke-width:0.5;" width="131" x="401.5" y="37.5391"/><text fill="#000000" font-family="sans-serif" font-size="14" lengthAdjust="spacing" textLength="47" x="443.5" y="57.5342">&#171;task&#187;</text><text fill="#000000" font-family="sans-serif" font-size="14" lengthAdjust="spacing" textLength="117" x="408.5" y="73.8311">Listen to Ankaios</text><text fill="#000000" font-family="sans-serif" font-size="14" lengthAdjust="spacing" textLength="44" x="445" y="90.1279">Server</text><rect fill="#E3E3E3" height="62.8906" rx="2.5" ry="2.5" style="stroke:#181818;stroke-width:0.5;" width="122" x="542.5" y="37.5391"/><text fill="#000000" font-family="sans-serif" font-size="14" lengthAdjust="spacing" textLength="47" x="580" y="57.5342">&#171;task&#187;</text><text fill="#000000" font-family="sans-serif" font-size="14" lengthAdjust="spacing" textLength="104" x="549.5" y="73.8311">Listen to Agent</text><text fill="#000000" font-family="sans-serif" font-size="14" lengthAdjust="spacing" textLength="60" x="573.5" y="90.1279">Manager</text><rect fill="#E3E3E3" height="30.2969" rx="2.5" ry="2.5" style="stroke:#181818;stroke-width:0.5;" width="116" x="724.5" y="70.1328"/><text fill="#000000" font-family="sans-serif" font-size="14" lengthAdjust="spacing" textLength="102" x="731.5" y="90.1279">Ankaios Server</text><rect fill="#FFFFFF" height="51.1328" style="stroke:#FFFFFF;stroke-width:1.0;" width="10" x="126" y="132.5625"/><line style="stroke:#181818;stroke-width:1.0;" x1="126" x2="126" y1="132.5625" y2="183.6953"/><line style="stroke:#181818;stroke-width:1.0;" x1="136" x2="136" y1="132.5625" y2="183.6953"/><line style="stroke:#181818;stroke-width:1.0;" x1="126" x2="136" y1="132.5625" y2="132.5625"/><rect fill="#FFFFFF" height="497.9922" style="stroke:#FFFFFF;stroke-width:1.0;" width="10" x="126" y="224.5"/><line style="stroke:#181818;stroke-width:1.0;" x1="126" x2="126" y1="224.5" y2="722.4922"/><line style="stroke:#181818;stroke-width:1.0;" x1="136" x2="136" y1="224.5" y2="722.4922"/><line style="stroke:#181818;stroke-width:1.0;" x1="126" x2="136" y1="722.4922" y2="722.4922"/><rect fill="#FFFFFF" height="404.5938" style="stroke:#181818;stroke-width:1.0;" width="10" x="262" y="288.7656"/><rect fill="#FFFFFF" height="95.3984" style="stroke:#181818;stroke-width:1.0;" width="10" x="267" y="447.4297"/><rect fill="#FFFFFF" height="58.2656" style="stroke:#181818;stroke-width:1.0;" width="10" x="272" y="484.5625"/><rect fill="#FFFFFF" height="84.2656" style="stroke:#181818;stroke-width:1.0;" width="10" x="267" y="609.0938"/><rect fill="#FFFFFF" height="21" style="stroke:#181818;stroke-width:1.0;" width="10" x="272" y="672.3594"/><rect fill="#FFFFFF" height="29.1328" style="stroke:#181818;stroke-width:1.0;" width="10" x="462" y="418.2969"/><rect fill="#FFFFFF" height="29.1328" style="stroke:#181818;stroke-width:1.0;" width="10" x="462" y="643.2266"/><rect fill="#FFFFFF" height="29.1328" style="stroke:#181818;stroke-width:1.0;" width="10" x="598.5" y="317.8984"/><rect fill="#FFFFFF" height="29.1328" style="stroke:#181818;stroke-width:1.0;" width="10" x="598.5" y="542.8281"/><rect fill="#FFFFFF" height="71.2656" style="stroke:#181818;stroke-width:1.0;" width="10" x="777.5" y="347.0313"/><rect fill="#FFFFFF" height="71.2656" style="stroke:#181818;stroke-width:1.0;" width="10" x="777.5" y="571.9609"/><polygon fill="#181818" points="114,128.5625,124,132.5625,114,136.5625" style="stroke:#181818;stroke-width:1.0;"/><line style="stroke:#181818;stroke-width:1.0;" x1="0" x2="120" y1="132.5625" y2="132.5625"/><text fill="#000000" font-family="sans-serif" font-size="13" lengthAdjust="spacing" textLength="107" x="7" y="127.4966">delete workloads</text><rect fill="#EEEEEE" height="3" style="stroke:#EEEEEE;stroke-width:1.0;" width="860.5" x="0" y="161.1289"/><line style="stroke:#000000;stroke-width:1.0;" x1="0" x2="860.5" y1="161.1289" y2="161.1289"/><line style="stroke:#000000;stroke-width:1.0;" x1="0" x2="860.5" y1="164.1289" y2="164.1289"/><rect fill="#EEEEEE" height="23.1328" style="stroke:#000000;stroke-width:2.0;" width="73" x="393.75" y="150.5625"/><text fill="#000000" font-family="sans-serif" font-size="13" font-weight="bold" lengthAdjust="spacing" textLength="54" x="399.75" y="166.6294">startup</text><text fill="#000000" font-family="sans-serif" font-size="11" lengthAdjust="spacing" textLength="66" x="375" y="207.9058">initialization</text><rect fill="#EEEEEE" height="3" style="stroke:#EEEEEE;stroke-width:1.0;" width="860.5" x="0" y="245.0664"/><line style="stroke:#000000;stroke-width:1.0;" x1="0" x2="860.5" y1="245.0664" y2="245.0664"/><line style="stroke:#000000;stroke-width:1.0;" x1="0" x2="860.5" y1="248.0664" y2="248.0664"/><rect fill="#EEEEEE" height="23.1328" style="stroke:#000000;stroke-width:2.0;" width="92" x="384.25" y="234.5"/><text fill="#000000" font-family="sans-serif" font-size="13" font-weight="bold" lengthAdjust="spacing" textLength="73" x="390.25" y="250.5669">command</text><polygon fill="#181818" points="250,284.7656,260,288.7656,250,292.7656" style="stroke:#181818;stroke-width:1.0;"/><line style="stroke:#181818;stroke-width:1.0;" x1="136" x2="256" y1="288.7656" y2="288.7656"/><text fill="#000000" font-family="sans-serif" font-size="13" lengthAdjust="spacing" textLength="107" x="143" y="283.6997">delete workloads</text><line style="stroke:#181818;stroke-width:1.0;" x1="596.5" x2="586.5" y1="317.8984" y2="313.8984"/><line style="stroke:#181818;stroke-width:1.0;" x1="596.5" x2="586.5" y1="317.8984" y2="321.8984"/><line style="stroke:#181818;stroke-width:1.0;" x1="272" x2="597.5" y1="317.8984" y2="317.8984"/><text fill="#000000" font-family="sans-serif" font-size="13" lengthAdjust="spacing" textLength="150" x="279" y="312.8325">request complete state</text><line style="stroke:#181818;stroke-width:1.0;" x1="775.5" x2="765.5" y1="347.0313" y2="343.0313"/><line style="stroke:#181818;stroke-width:1.0;" x1="775.5" x2="765.5" y1="347.0313" y2="351.0313"/><line style="stroke:#181818;stroke-width:1.0;" x1="603.5" x2="776.5" y1="347.0313" y2="347.0313"/><text fill="#000000" font-family="sans-serif" font-size="13" lengthAdjust="spacing" textLength="150" x="610.5" y="341.9653">request complete state</text><line style="stroke:#181818;stroke-width:1.0;" x1="272" x2="314" y1="376.1641" y2="376.1641"/><line style="stroke:#181818;stroke-width:1.0;" x1="314" x2="314" y1="376.1641" y2="389.1641"/><line style="stroke:#181818;stroke-width:1.0;" x1="273" x2="314" y1="389.1641" y2="389.1641"/><polygon fill="#181818" points="283,385.1641,273,389.1641,283,393.1641" style="stroke:#181818;stroke-width:1.0;"/><text fill="#000000" font-family="sans-serif" font-size="13" lengthAdjust="spacing" textLength="134" x="279" y="371.0981">wait for the response</text><line style="stroke:#181818;stroke-width:1.0;" x1="473" x2="483" y1="418.2969" y2="414.2969"/><line style="stroke:#181818;stroke-width:1.0;" x1="473" x2="483" y1="418.2969" y2="422.2969"/><line style="stroke:#181818;stroke-width:1.0;" x1="472" x2="781.5" y1="418.2969" y2="418.2969"/><text fill="#000000" font-family="sans-serif" font-size="13" lengthAdjust="spacing" textLength="97" x="489" y="413.231">complete state</text><line style="stroke:#181818;stroke-width:1.0;" x1="278" x2="288" y1="447.4297" y2="443.4297"/><line style="stroke:#181818;stroke-width:1.0;" x1="278" x2="288" y1="447.4297" y2="451.4297"/><line style="stroke:#181818;stroke-width:1.0;" x1="277" x2="466" y1="447.4297" y2="447.4297"/><text fill="#000000" font-family="sans-serif" font-size="13" lengthAdjust="spacing" textLength="97" x="294" y="442.3638">complete state</text><line style="stroke:#181818;stroke-width:1.0;" x1="277" x2="324" y1="471.5625" y2="471.5625"/><line style="stroke:#181818;stroke-width:1.0;" x1="324" x2="324" y1="471.5625" y2="484.5625"/><line style="stroke:#181818;stroke-width:1.0;" x1="283" x2="324" y1="484.5625" y2="484.5625"/><polygon fill="#181818" points="293,480.5625,283,484.5625,293,488.5625" style="stroke:#181818;stroke-width:1.0;"/><text fill="#000000" font-family="sans-serif" font-size="13" lengthAdjust="spacing" textLength="171" x="289" y="466.4966">find and remove workloads</text><path d="M202.5,504.5625 L266.5,504.5625 L266.5,511.6953 L256.5,521.6953 L202.5,521.6953 L202.5,504.5625 " fill="#EEEEEE" style="stroke:#000000;stroke-width:1.5;"/><rect fill="none" height="175.7969" style="stroke:#000000;stroke-width:1.5;" width="648" x="202.5" y="504.5625"/><text fill="#000000" font-family="sans-serif" font-size="13" font-weight="bold" lengthAdjust="spacing" textLength="19" x="217.5" y="517.6294">alt</text><text fill="#000000" font-family="sans-serif" font-size="11" font-weight="bold" lengthAdjust="spacing" textLength="187" x="281.5" y="516.7729">[Workload has been deleted]</text><line style="stroke:#181818;stroke-width:1.0;" x1="596.5" x2="586.5" y1="542.8281" y2="538.8281"/><line style="stroke:#181818;stroke-width:1.0;" x1="596.5" x2="586.5" y1="542.8281" y2="546.8281"/><line style="stroke:#181818;stroke-width:1.0;" x1="272" x2="597.5" y1="542.8281" y2="542.8281"/><text fill="#000000" font-family="sans-serif" font-size="13" lengthAdjust="spacing" textLength="135" x="279" y="537.7622">request update state</text><line style="stroke:#181818;stroke-width:1.0;" x1="775.5" x2="765.5" y1="571.9609" y2="567.9609"/><line style="stroke:#181818;stroke-width:1.0;" x1="775.5" x2="765.5" y1="571.9609" y2="575.9609"/><line style="stroke:#181818;stroke-width:1.0;" x1="603.5" x2="776.5" y1="571.9609" y2="571.9609"/><text fill="#000000" font-family="sans-serif" font-size="13" lengthAdjust="spacing" textLength="135" x="610.5" y="566.895">request update state</text><line style="stroke:#181818;stroke-width:1.0;" x1="272" x2="319" y1="596.0938" y2="596.0938"/><line style="stroke:#181818;stroke-width:1.0;" x1="319" x2="319" y1="596.0938" y2="609.0938"/><line style="stroke:#181818;stroke-width:1.0;" x1="278" x2="319" y1="609.0938" y2="609.0938"/><polygon fill="#181818" points="288,605.0938,278,609.0938,288,613.0938" style="stroke:#181818;stroke-width:1.0;"/><text fill="#000000" font-family="sans-serif" font-size="13" lengthAdjust="spacing" textLength="134" x="284" y="591.0278">wait for the response</text><line style="stroke:#181818;stroke-width:1.0;" x1="473" x2="483" y1="643.2266" y2="639.2266"/><line style="stroke:#181818;stroke-width:1.0;" x1="473" x2="483" y1="643.2266" y2="647.2266"/><line style="stroke:#181818;stroke-width:1.0;" x1="472" x2="781.5" y1="643.2266" y2="643.2266"/><text fill="#000000" font-family="sans-serif" font-size="13" lengthAdjust="spacing" textLength="59" x="489" y="638.1606">response</text><line style="stroke:#181818;stroke-width:1.0;" x1="283" x2="293" y1="672.3594" y2="668.3594"/><line style="stroke:#181818;stroke-width:1.0;" x1="283" x2="293" y1="672.3594" y2="676.3594"/><line style="stroke:#181818;stroke-width:1.0;" x1="282" x2="466" y1="672.3594" y2="672.3594"/><text fill="#000000" font-family="sans-serif" font-size="13" lengthAdjust="spacing" textLength="59" x="299" y="667.2935">response</text><polygon fill="#181818" points="147,689.3594,137,693.3594,147,697.3594" style="stroke:#181818;stroke-width:1.0;"/><line style="stroke:#181818;stroke-width:1.0;" x1="141" x2="266" y1="693.3594" y2="693.3594"/><line style="stroke:#383838;stroke-width:2.0;" x1="258" x2="276" y1="684.3594" y2="702.3594"/><line style="stroke:#383838;stroke-width:2.0;" x1="258" x2="276" y1="702.3594" y2="684.3594"/><line style="stroke:#383838;stroke-width:2.0;" x1="594.5" x2="612.5" y1="684.3594" y2="702.3594"/><line style="stroke:#383838;stroke-width:2.0;" x1="594.5" x2="612.5" y1="702.3594" y2="684.3594"/><line style="stroke:#383838;stroke-width:2.0;" x1="458" x2="476" y1="684.3594" y2="702.3594"/><line style="stroke:#383838;stroke-width:2.0;" x1="458" x2="476" y1="702.3594" y2="684.3594"/><polygon fill="#181818" points="44.5,718.4922,34.5,722.4922,44.5,726.4922" style="stroke:#181818;stroke-width:1.0;"/><line style="stroke:#181818;stroke-width:1.0;" x1="38.5" x2="130" y1="722.4922" y2="722.4922"/><text fill="#000000" font-family="sans-serif" font-size="13" lengthAdjust="spacing" textLength="23" x="50.5" y="717.4263">exit</text><line style="stroke:#383838;stroke-width:2.0;" x1="122" x2="140" y1="713.4922" y2="731.4922"/><line style="stroke:#383838;stroke-width:2.0;" x1="122" x2="140" y1="731.4922" y2="713.4922"/><!--SRC=[bLHDRzim3BthLt2v5dRkGM9Ww7KzzR1BW42rsPQ8B7aIdNxy-b6oOzHMF7H102Vau-FJe-WVP6lJDmXbkPs-7eFhVOrXsxXwsnbjkM_DjZQeRHdEP9LwSk-m-MdFcbm0UMuKo4VNx3ni-e1-0pf0_94IdVPCDNN210-QR4osyioIctj3zwvjjMr2egWDdUenaAFtUzRXN5L7-ui2emLsCAewsaVqbr68ITaJkrD8mMyolQ2aZlP1M_sICRL3LA5jGEnOU38spnij095pr3GH5LKo1-xkO0SD6cI4D-VFncanGHqE45We-muE1wNAiWIonAGDVMecPsMOPOADnYLOOXJchuQkTPXXYghAJosLE_3ufyV0iKsNA4GMeyh1aM8u91H5whbIkkmyLxk3DqqCptB7-1M58tJE1gbQZXVs- -9hmzswn2kgMlIwMVPFTH7_JE9sTDnZwoupJxLX-3t-XLUP-XFABHkyRz8r-ORhWwghUNtNw4bRP6XGDf0kCPZjpVzCPKPyIrj-yfN9p3klJMV2tuIlp6OgahqPRhVGBd1gpH591FRkOnwz1lCbppFZqghuZekTX_qgn4Ly9vuAqblkBm00]--></g></svg>