<?xml version="1.0" encoding="us-ascii" standalone="no"?><svg xmlns="http://www.w3.org/2000/svg" xmlns:xlink="http://www.w3.org/1999/xlink" contentStyleType="text/css" height="631px" preserveAspectRatio="none" style="width:816px;height:631px;background:#FFFFFF;" version="1.1" viewBox="0 0 816 631" width="816px" zoomAndPan="magnify"><defs/><g><rect fill="#EEEEEE" height="612.0938" style="stroke:#D3D3D3;stroke-width:0.5;" width="634.5" x="11" y="6"/><text fill="#777777" font-family="sans-serif" font-size="13" font-weight="bold" lengthAdjust="spacing" textLength="91" x="282.75" y="18.0669">Ankaios Ank</text><rect fill="#EEEEEE" height="612.0938" style="stroke:#D3D3D3;stroke-width:0.5;" width="124" x="674" y="6"/><text fill="#777777" font-family="sans-serif" font-size="13" font-weight="bold" lengthAdjust="spacing" textLength="110" x="681" y="18.0669">Ankaios Server</text><rect fill="#FFFFFF" height="51.1328" style="stroke:#FFFFFF;stroke-width:1.0;" width="10" x="89" y="132.5625"/><line style="stroke:#181818;stroke-width:1.0;" x1="89" x2="89" y1="132.5625" y2="183.6953"/><line style="stroke:#181818;stroke-width:1.0;" x1="99" x2="99" y1="132.5625" y2="183.6953"/><line style="stroke:#181818;stroke-width:1.0;" x1="89" x2="99" y1="132.5625" y2="132.5625"/><rect fill="#FFFFFF" height="381.5938" style="stroke:#FFFFFF;stroke-width:1.0;" width="10" x="89" y="224.5"/><line style="stroke:#181818;stroke-width:1.0;" x1="89" x2="89" y1="224.5" y2="606.0938"/><line style="stroke:#181818;stroke-width:1.0;" x1="99" x2="99" y1="224.5" y2="606.0938"/><line style="stroke:#181818;stroke-width:1.0;" x1="89" x2="99" y1="606.0938" y2="606.0938"/><rect fill="#FFFFFF" height="246.0625" style="stroke:#181818;stroke-width:1.0;" width="10" x="194" y="288.7656"/><rect fill="#FFFFFF" height="34.1328" style="stroke:#181818;stroke-width:1.0;" width="10" x="199" y="500.6953"/><rect fill="#FFFFFF" height="116.5313" style="stroke:#181818;stroke-width:1.0;" width="10" x="373" y="317.8984"/><rect fill="#FFFFFF" height="29.1328" style="stroke:#181818;stroke-width:1.0;" width="10" x="552" y="347.0313"/><rect fill="#FFFFFF" height="29.1328" style="stroke:#181818;stroke-width:1.0;" width="10" x="552" y="405.2969"/><rect fill="#FFFFFF" height="29.1328" style="stroke:#181818;stroke-width:1.0;" width="10" x="731" y="376.1641"/><line style="stroke:#181818;stroke-width:0.5;stroke-dasharray:5.0,5.0;" x1="33" x2="33" y1="101.4297" y2="183.6953"/><line style="stroke:#383838;stroke-width:1.0;stroke-dasharray:1.0,4.0;" x1="33" x2="33" y1="183.6953" y2="224.5"/><line style="stroke:#181818;stroke-width:0.5;stroke-dasharray:5.0,5.0;" x1="33" x2="33" y1="224.5" y2="624.0938"/><line style="stroke:#181818;stroke-width:0.5;stroke-dasharray:5.0,5.0;" x1="94" x2="94" y1="101.4297" y2="183.6953"/><line style="stroke:#383838;stroke-width:1.0;stroke-dasharray:1.0,4.0;" x1="94" x2="94" y1="183.6953" y2="224.5"/><line style="stroke:#181818;stroke-width:0.5;stroke-dasharray:5.0,5.0;" x1="94" x2="94" y1="224.5" y2="624.0938"/><line style="stroke:#181818;stroke-width:0.5;stroke-dasharray:5.0,5.0;" x1="198.5" x2="198.5" y1="101.4297" y2="183.6953"/><line style="stroke:#383838;stroke-width:1.0;stroke-dasharray:1.0,4.0;" x1="198.5" x2="198.5" y1="183.6953" y2="224.5"/><line style="stroke:#181818;stroke-width:0.5;stroke-dasharray:5.0,5.0;" x1="198.5" x2="198.5" y1="224.5" y2="624.0938"/><line style="stroke:#181818;stroke-width:0.5;stroke-dasharray:5.0,5.0;" x1="378" x2="378" y1="101.4297" y2="183.6953"/><line style="stroke:#383838;stroke-width:1.0;stroke-dasharray:1.0,4.0;" x1="378" x2="378" y1="183.6953" y2="224.5"/><line style="stroke:#181818;stroke-width:0.5;stroke-dasharray:5.0,5.0;" x1="378" x2="378" y1="224.5" y2="624.0938"/><line style="stroke:#181818;stroke-width:0.5;stroke-dasharray:5.0,5.0;" x1="556.5" x2="556.5" y1="101.4297" y2="183.6953"/><line style="stroke:#383838;stroke-width:1.0;stroke-dasharray:1.0,4.0;" x1="556.5" x2="556.5" y1="183.6953" y2="224.5"/><line style="stroke:#181818;stroke-width:0.5;stroke-dasharray:5.0,5.0;" x1="556.5" x2="556.5" y1="224.5" y2="624.0938"/><line style="stroke:#181818;stroke-width:0.5;stroke-dasharray:5.0,5.0;" x1="736" x2="736" y1="101.4297" y2="183.6953"/><line style="stroke:#383838;stroke-width:1.0;stroke-dasharray:1.0,4.0;" x1="736" x2="736" y1="183.6953" y2="224.5"/><line style="stroke:#181818;stroke-width:0.5;stroke-dasharray:5.0,5.0;" x1="736" x2="736" y1="224.5" y2="624.0938"/><text fill="#000000" font-family="sans-serif" font-size="14" lengthAdjust="spacing" textLength="31" x="15" y="98.1279">user</text><ellipse cx="33.5" cy="33.6328" fill="#E3E3E3" rx="8" ry="8" style="stroke:#181818;stroke-width:0.5;"/><path d="M33.5,41.6328 L33.5,68.6328 M20.5,49.6328 L46.5,49.6328 M33.5,68.6328 L20.5,83.6328 M33.5,68.6328 L46.5,83.6328 " fill="none" style="stroke:#181818;stroke-width:0.5;"/><rect fill="#E3E3E3" height="30.2969" rx="2.5" ry="2.5" style="stroke:#181818;stroke-width:0.5;" width="46" x="71" y="70.1328"/><text fill="#000000" font-family="sans-serif" font-size="14" lengthAdjust="spacing" textLength="32" x="78" y="90.1279">Main</text><rect fill="#E3E3E3" height="30.2969" rx="2.5" ry="2.5" style="stroke:#181818;stroke-width:0.5;" width="109" x="144.5" y="70.1328"/><text fill="#000000" font-family="sans-serif" font-size="14" lengthAdjust="spacing" textLength="95" x="151.5" y="90.1279">CliCommands</text><rect fill="#E3E3E3" height="30.2969" rx="2.5" ry="2.5" style="stroke:#181818;stroke-width:0.5;" width="138" x="309" y="70.1328"/><text fill="#000000" font-family="sans-serif" font-size="14" lengthAdjust="spacing" textLength="124" x="316" y="90.1279">ServerConnection</text><rect fill="#E3E3E3" height="46.5938" rx="2.5" ry="2.5" style="stroke:#181818;stroke-width:0.5;" width="169" x="472.5" y="53.8359"/><text fill="#000000" font-family="sans-serif" font-size="14" lengthAdjust="spacing" textLength="47" x="533.5" y="73.8311">&#171;task&#187;</text><text fill="#000000" font-family="sans-serif" font-size="14" lengthAdjust="spacing" textLength="155" x="479.5" y="90.1279">CommunicationsClient</text><rect fill="#E3E3E3" height="30.2969" rx="2.5" ry="2.5" style="stroke:#181818;stroke-width:0.5;" width="116" x="678" y="70.1328"/><text fill="#000000" font-family="sans-serif" font-size="14" lengthAdjust="spacing" textLength="102" x="685" y="90.1279">Ankaios Server</text><rect fill="#FFFFFF" height="51.1328" style="stroke:#FFFFFF;stroke-width:1.0;" width="10" x="89" y="132.5625"/><line style="stroke:#181818;stroke-width:1.0;" x1="89" x2="89" y1="132.5625" y2="183.6953"/><line style="stroke:#181818;stroke-width:1.0;" x1="99" x2="99" y1="132.5625" y2="183.6953"/><line style="stroke:#181818;stroke-width:1.0;" x1="89" x2="99" y1="132.5625" y2="132.5625"/><rect fill="#FFFFFF" height="381.5938" style="stroke:#FFFFFF;stroke-width:1.0;" width="10" x="89" y="224.5"/><line style="stroke:#181818;stroke-width:1.0;" x1="89" x2="89" y1="224.5" y2="606.0938"/><line style="stroke:#181818;stroke-width:1.0;" x1="99" x2="99" y1="224.5" y2="606.0938"/><line style="stroke:#181818;stroke-width:1.0;" x1="89" x2="99" y1="606.0938" y2="606.0938"/><rect fill="#FFFFFF" height="246.0625" style="stroke:#181818;stroke-width:1.0;" width="10" x="194" y="288.7656"/><rect fill="#FFFFFF" height="34.1328" style="stroke:#181818;stroke-width:1.0;" width="10" x="199" y="500.6953"/><rect fill="#FFFFFF" height="116.5313" style="stroke:#181818;stroke-width:1.0;" width="10" x="373" y="317.8984"/><rect fill="#FFFFFF" height="29.1328" style="stroke:#181818;stroke-width:1.0;" width="10" x="552" y="347.0313"/><rect fill="#FFFFFF" height="29.1328" style="stroke:#181818;stroke-width:1.0;" width="10" x="552" y="405.2969"/><rect fill="#FFFFFF" height="29.1328" style="stroke:#181818;stroke-width:1.0;" width="10" x="731" y="376.1641"/><polygon fill="#181818" points="77,128.5625,87,132.5625,77,136.5625" style="stroke:#181818;stroke-width:1.0;"/><line style="stroke:#181818;stroke-width:1.0;" x1="0" x2="83" y1="132.5625" y2="132.5625"/><text fill="#000000" font-family="sans-serif" font-size="13" lengthAdjust="spacing" textLength="70" x="7" y="127.4966">get configs</text><rect fill="#EEEEEE" height="3" style="stroke:#EEEEEE;stroke-width:1.0;" width="809" x="0" y="161.1289"/><line style="stroke:#000000;stroke-width:1.0;" x1="0" x2="809" y1="161.1289" y2="161.1289"/><line style="stroke:#000000;stroke-width:1.0;" x1="0" x2="809" y1="164.1289" y2="164.1289"/><rect fill="#EEEEEE" height="23.1328" style="stroke:#000000;stroke-width:2.0;" width="73" x="368" y="150.5625"/><text fill="#000000" font-family="sans-serif" font-size="13" font-weight="bold" lengthAdjust="spacing" textLength="54" x="374" y="166.6294">startup</text><text fill="#000000" font-family="sans-serif" font-size="11" lengthAdjust="spacing" textLength="66" x="351.75" y="207.9058">initialization</text><rect fill="#EEEEEE" height="3" style="stroke:#EEEEEE;stroke-width:1.0;" width="809" x="0" y="245.0664"/><line style="stroke:#000000;stroke-width:1.0;" x1="0" x2="809" y1="245.0664" y2="245.0664"/><line style="stroke:#000000;stroke-width:1.0;" x1="0" x2="809" y1="248.0664" y2="248.0664"/><rect fill="#EEEEEE" height="23.1328" style="stroke:#000000;stroke-width:2.0;" width="92" x="358.5" y="234.5"/><text fill="#000000" font-family="sans-serif" font-size="13" font-weight="bold" lengthAdjust="spacing" textLength="73" x="364.5" y="250.5669">command</text><polygon fill="#181818" points="182,284.7656,192,288.7656,182,292.7656" style="stroke:#181818;stroke-width:1.0;"/><line style="stroke:#181818;stroke-width:1.0;" x1="99" x2="188" y1="288.7656" y2="288.7656"/><text fill="#000000" font-family="sans-serif" font-size="13" lengthAdjust="spacing" textLength="70" x="106" y="283.6997">get configs</text><polygon fill="#181818" points="361,313.8984,371,317.8984,361,321.8984" style="stroke:#181818;stroke-width:1.0;"/><line style="stroke:#181818;stroke-width:1.0;" x1="204" x2="367" y1="317.8984" y2="317.8984"/><text fill="#000000" font-family="sans-serif" font-size="13" lengthAdjust="spacing" textLength="150" x="211" y="312.8325">request complete state</text><line style="stroke:#181818;stroke-width:1.0;" x1="550" x2="540" y1="347.0313" y2="343.0313"/><line style="stroke:#181818;stroke-width:1.0;" x1="550" x2="540" y1="347.0313" y2="351.0313"/><line style="stroke:#181818;stroke-width:1.0;" x1="383" x2="551" y1="347.0313" y2="347.0313"/><text fill="#000000" font-family="sans-serif" font-size="13" lengthAdjust="spacing" textLength="150" x="390" y="341.9653">request complete state</text><line style="stroke:#181818;stroke-width:1.0;" x1="729" x2="719" y1="376.1641" y2="372.1641"/><line style="stroke:#181818;stroke-width:1.0;" x1="729" x2="719" y1="376.1641" y2="380.1641"/><line style="stroke:#181818;stroke-width:1.0;" x1="557" x2="730" y1="376.1641" y2="376.1641"/><text fill="#000000" font-family="sans-serif" font-size="13" lengthAdjust="spacing" textLength="150" x="564" y="371.0981">request complete state</text><line style="stroke:#181818;stroke-width:1.0;" x1="563" x2="573" y1="405.2969" y2="401.2969"/><line style="stroke:#181818;stroke-width:1.0;" x1="563" x2="573" y1="405.2969" y2="409.2969"/><line style="stroke:#181818;stroke-width:1.0;" x1="562" x2="735" y1="405.2969" y2="405.2969"/><text fill="#000000" font-family="sans-serif" font-size="13" lengthAdjust="spacing" textLength="97" x="579" y="400.231">complete state</text><line style="stroke:#181818;stroke-width:1.0;" x1="379" x2="389" y1="434.4297" y2="430.4297"/><line style="stroke:#181818;stroke-width:1.0;" x1="379" x2="389" y1="434.4297" y2="438.4297"/><line style="stroke:#181818;stroke-width:1.0;" x1="378" x2="556" y1="434.4297" y2="434.4297"/><text fill="#000000" font-family="sans-serif" font-size="13" lengthAdjust="spacing" textLength="97" x="395" y="429.3638">complete state</text><line style="stroke:#181818;stroke-width:1.0;" x1="205" x2="215" y1="463.5625" y2="459.5625"/><line style="stroke:#181818;stroke-width:1.0;" x1="205" x2="215" y1="463.5625" y2="467.5625"/><line style="stroke:#181818;stroke-width:1.0;stroke-dasharray:2.0,2.0;" x1="204" x2="377" y1="463.5625" y2="463.5625"/><text fill="#000000" font-family="sans-serif" font-size="13" lengthAdjust="spacing" textLength="97" x="221" y="458.4966">complete state</text><line style="stroke:#181818;stroke-width:1.0;" x1="204" x2="251" y1="487.6953" y2="487.6953"/><line style="stroke:#181818;stroke-width:1.0;" x1="251" x2="251" y1="487.6953" y2="500.6953"/><line style="stroke:#181818;stroke-width:1.0;" x1="210" x2="251" y1="500.6953" y2="500.6953"/><polygon fill="#181818" points="220,496.6953,210,500.6953,220,504.6953" style="stroke:#181818;stroke-width:1.0;"/><text fill="#000000" font-family="sans-serif" font-size="13" lengthAdjust="spacing" textLength="118" x="216" y="482.6294">format output text</text><line style="stroke:#181818;stroke-width:1.0;" x1="100" x2="110" y1="534.8281" y2="530.8281"/><line style="stroke:#181818;stroke-width:1.0;" x1="100" x2="110" y1="534.8281" y2="538.8281"/><line style="stroke:#181818;stroke-width:1.0;stroke-dasharray:2.0,2.0;" x1="99" x2="198" y1="534.8281" y2="534.8281"/><text fill="#000000" font-family="sans-serif" font-size="13" lengthAdjust="spacing" textLength="71" x="116" y="529.7622">output text</text><line style="stroke:#181818;stroke-width:1.0;" x1="99" x2="141" y1="563.9609" y2="563.9609"/><line style="stroke:#181818;stroke-width:1.0;" x1="141" x2="141" y1="563.9609" y2="576.9609"/><line style="stroke:#181818;stroke-width:1.0;" x1="100" x2="141" y1="576.9609" y2="576.9609"/><polygon fill="#181818" points="110,572.9609,100,576.9609,110,580.9609" style="stroke:#181818;stroke-width:1.0;"/><text fill="#000000" font-family="sans-serif" font-size="13" lengthAdjust="spacing" textLength="58" x="106" y="558.895">print text</text><line style="stroke:#181818;stroke-width:1.0;" x1="34.5" x2="44.5" y1="606.0938" y2="602.0938"/><line style="stroke:#181818;stroke-width:1.0;" x1="34.5" x2="44.5" y1="606.0938" y2="610.0938"/><line style="stroke:#181818;stroke-width:1.0;stroke-dasharray:2.0,2.0;" x1="33.5" x2="93" y1="606.0938" y2="606.0938"/><text fill="#000000" font-family="sans-serif" font-size="13" lengthAdjust="spacing" textLength="23" x="50.5" y="601.0278">exit</text><!--SRC=[bLF1JiCm3BtdAqolgDszsYgXdJbnHK8XDSXQwvJ4GHDVJv8EM9SEH5KfbVtUy-jBSaDiXj0ZDCtc-tNeRN06_QQtPZCDcYMCmyOCgBdn1sAbdkqHgZi-QB8UubefY8ysOXrKmQEhG7j87xanQITaQ8fASA-9KtECQz6izWFjxJXgxdsMC0CzcLEXH3-WUqUtjyneX2ndYi_5oFggbhpjLhG_TDqZfs61oUW4z74wiio35uqdapiAkOVuxnS1p3QgSiu5uCVTZr3TvIJWzXPQU4M9W_c5NhrIknruYMfXWjrEgQPfW9Y4z40VsLNSj2R3JW5bM1QBekV1hOWlsX5UX1OvBJXy2-WJRPm654o615K9hhjkFR5VL5RnMMdMXxhElg_Gh_2ts_gSt_xjFJ6kUAaBUe_naDExJeNYd2r2ZRBrIgmhciLcNEnT2o_MZLh01fc2WE1HvdtECvRiEYPsZZiplBXB_wr_7woqjZ0vujE4TCjd9pCaES0ZYVe4]--></g></svg>