<?xml version="1.0" encoding="UTF-8" standalone="no"?><svg xmlns="http://www.w3.org/2000/svg" xmlns:xlink="http://www.w3.org/1999/xlink" contentStyleType="text/css" height="617px" preserveAspectRatio="none" style="width:744px;height:617px;background:#FFFFFF;" version="1.1" viewBox="0 0 744 617" width="744px" zoomAndPan="magnify"><defs/><g><rect fill="#EEEEEE" height="605.9609" style="stroke:#D3D3D3;stroke-width:0.5;" width="534" x="21" y="6"/><text fill="#000000" font-family="sans-serif" font-size="13" font-weight="bold" lengthAdjust="spacing" textLength="91" x="242.5" y="18.0669">Ankaios Ank</text><rect fill="#EEEEEE" height="605.9609" style="stroke:#D3D3D3;stroke-width:0.5;" width="134" x="602" y="6"/><text fill="#000000" font-family="sans-serif" font-size="13" font-weight="bold" lengthAdjust="spacing" textLength="110" x="614" y="18.0669">Ankaios Server</text><line style="stroke:#181818;stroke-width:0.5;stroke-dasharray:5.0,5.0;" x1="43.5" x2="43.5" y1="101.4297" y2="181.6953"/><line style="stroke:#383838;stroke-width:1.0;stroke-dasharray:1.0,4.0;" x1="43.5" x2="43.5" y1="181.6953" y2="222.5"/><line style="stroke:#181818;stroke-width:0.5;stroke-dasharray:5.0,5.0;" x1="43.5" x2="43.5" y1="222.5" y2="605.9609"/><line style="stroke:#181818;stroke-width:0.5;stroke-dasharray:5.0,5.0;" x1="95.5" x2="95.5" y1="101.4297" y2="181.6953"/><line style="stroke:#383838;stroke-width:1.0;stroke-dasharray:1.0,4.0;" x1="95.5" x2="95.5" y1="181.6953" y2="222.5"/><line style="stroke:#181818;stroke-width:0.5;stroke-dasharray:5.0,5.0;" x1="95.5" x2="95.5" y1="222.5" y2="605.9609"/><rect fill="#FFFFFF" height="51.1328" style="stroke:#FFFFFF;stroke-width:1.0;" width="10" x="90.5" y="130.5625"/><line style="stroke:#181818;stroke-width:1.0;" x1="90.5" x2="90.5" y1="130.5625" y2="181.6953"/><line style="stroke:#181818;stroke-width:1.0;" x1="100.5" x2="100.5" y1="130.5625" y2="181.6953"/><line style="stroke:#181818;stroke-width:1.0;" x1="90.5" x2="100.5" y1="130.5625" y2="130.5625"/><rect fill="#FFFFFF" height="365.4609" style="stroke:#FFFFFF;stroke-width:1.0;" width="10" x="90.5" y="222.5"/><line style="stroke:#181818;stroke-width:1.0;" x1="90.5" x2="90.5" y1="222.5" y2="587.9609"/><line style="stroke:#181818;stroke-width:1.0;" x1="100.5" x2="100.5" y1="222.5" y2="587.9609"/><line style="stroke:#181818;stroke-width:1.0;" x1="90.5" x2="100.5" y1="587.9609" y2="587.9609"/><line style="stroke:#181818;stroke-width:0.5;stroke-dasharray:5.0,5.0;" x1="200.5" x2="200.5" y1="101.4297" y2="181.6953"/><line style="stroke:#383838;stroke-width:1.0;stroke-dasharray:1.0,4.0;" x1="200.5" x2="200.5" y1="181.6953" y2="222.5"/><line style="stroke:#181818;stroke-width:0.5;stroke-dasharray:5.0,5.0;" x1="200.5" x2="200.5" y1="222.5" y2="605.9609"/><rect fill="#FFFFFF" height="229.9297" style="stroke:#181818;stroke-width:1.0;" width="10" x="195.5" y="286.7656"/><line style="stroke:#181818;stroke-width:0.5;stroke-dasharray:5.0,5.0;" x1="353.5" x2="353.5" y1="101.4297" y2="181.6953"/><line style="stroke:#383838;stroke-width:1.0;stroke-dasharray:1.0,4.0;" x1="353.5" x2="353.5" y1="181.6953" y2="222.5"/><line style="stroke:#181818;stroke-width:0.5;stroke-dasharray:5.0,5.0;" x1="353.5" x2="353.5" y1="222.5" y2="605.9609"/><line style="stroke:#181818;stroke-width:0.5;stroke-dasharray:5.0,5.0;" x1="490" x2="490" y1="101.4297" y2="181.6953"/><line style="stroke:#383838;stroke-width:1.0;stroke-dasharray:1.0,4.0;" x1="490" x2="490" y1="181.6953" y2="222.5"/><line style="stroke:#181818;stroke-width:0.5;stroke-dasharray:5.0,5.0;" x1="490" x2="490" y1="222.5" y2="605.9609"/><line style="stroke:#181818;stroke-width:0.5;stroke-dasharray:5.0,5.0;" x1="669" x2="669" y1="101.4297" y2="181.6953"/><line style="stroke:#383838;stroke-width:1.0;stroke-dasharray:1.0,4.0;" x1="669" x2="669" y1="181.6953" y2="222.5"/><line style="stroke:#181818;stroke-width:0.5;stroke-dasharray:5.0,5.0;" x1="669" x2="669" y1="222.5" y2="605.9609"/><rect fill="#FFFFFF" height="71.2656" style="stroke:#181818;stroke-width:1.0;" width="10" x="664" y="345.0313"/><text fill="#000000" font-family="sans-serif" font-size="14" lengthAdjust="spacing" textLength="31" x="25" y="98.1279">user</text><ellipse cx="43.5" cy="33.6328" fill="#E3E3E3" rx="8" ry="8" style="stroke:#181818;stroke-width:0.5;"/><path d="M43.5,41.6328 L43.5,68.6328 M30.5,49.6328 L56.5,49.6328 M43.5,68.6328 L30.5,83.6328 M43.5,68.6328 L56.5,83.6328 " fill="none" style="stroke:#181818;stroke-width:0.5;"/><rect fill="#E3E3E3" height="30.2969" rx="2.5" ry="2.5" style="stroke:#181818;stroke-width:0.5;" width="46" x="72.5" y="70.1328"/><text fill="#000000" font-family="sans-serif" font-size="14" lengthAdjust="spacing" textLength="32" x="79.5" y="90.1279">Main</text><rect fill="#E3E3E3" height="30.2969" rx="2.5" ry="2.5" style="stroke:#181818;stroke-width:0.5;" width="109" x="146" y="70.1328"/><text fill="#000000" font-family="sans-serif" font-size="14" lengthAdjust="spacing" textLength="95" x="153" y="90.1279">CliCommands</text><rect fill="#E3E3E3" height="62.8906" rx="2.5" ry="2.5" style="stroke:#181818;stroke-width:0.5;" width="131" x="288" y="37.5391"/><text fill="#000000" font-family="sans-serif" font-size="14" lengthAdjust="spacing" textLength="77" x="315" y="57.5342">&lt;&lt;task&gt;&gt;</text><text fill="#000000" font-family="sans-serif" font-size="14" lengthAdjust="spacing" textLength="117" x="295" y="73.8311">Listen to Ankaios</text><text fill="#000000" font-family="sans-serif" font-size="14" lengthAdjust="spacing" textLength="44" x="331.5" y="90.1279">Server</text><rect fill="#E3E3E3" height="62.8906" rx="2.5" ry="2.5" style="stroke:#181818;stroke-width:0.5;" width="122" x="429" y="37.5391"/><text fill="#000000" font-family="sans-serif" font-size="14" lengthAdjust="spacing" textLength="77" x="451.5" y="57.5342">&lt;&lt;task&gt;&gt;</text><text fill="#000000" font-family="sans-serif" font-size="14" lengthAdjust="spacing" textLength="104" x="436" y="73.8311">Listen to Agent</text><text fill="#000000" font-family="sans-serif" font-size="14" lengthAdjust="spacing" textLength="60" x="460" y="90.1279">Manager</text><rect fill="#E3E3E3" height="30.2969" rx="2.5" ry="2.5" style="stroke:#181818;stroke-width:0.5;" width="116" x="611" y="70.1328"/><text fill="#000000" font-family="sans-serif" font-size="14" lengthAdjust="spacing" textLength="102" x="618" y="90.1279">Ankaios Server</text><polygon fill="#181818" points="78.5,126.5625,88.5,130.5625,78.5,134.5625" style="stroke:#181818;stroke-width:1.0;"/><line style="stroke:#181818;stroke-width:1.0;" x1="5" x2="84.5" y1="130.5625" y2="130.5625"/><text fill="#000000" font-family="sans-serif" font-size="13" lengthAdjust="spacing" textLength="58" x="12" y="125.4966">get state</text><rect fill="#EEEEEE" height="3" style="stroke:#EEEEEE;stroke-width:1.0;" width="732" x="5" y="159.1289"/><line style="stroke:#000000;stroke-width:1.0;" x1="5" x2="737" y1="159.1289" y2="159.1289"/><line style="stroke:#000000;stroke-width:1.0;" x1="5" x2="737" y1="162.1289" y2="162.1289"/><rect fill="#EEEEEE" height="23.1328" style="stroke:#000000;stroke-width:2.0;" width="73" x="334.5" y="148.5625"/><text fill="#000000" font-family="sans-serif" font-size="13" font-weight="bold" lengthAdjust="spacing" textLength="54" x="340.5" y="164.6294">startup</text><text fill="#000000" font-family="sans-serif" font-size="11" lengthAdjust="spacing" textLength="66" x="323.25" y="205.9058">initialization</text><rect fill="#EEEEEE" height="3" style="stroke:#EEEEEE;stroke-width:1.0;" width="732" x="5" y="243.0664"/><line style="stroke:#000000;stroke-width:1.0;" x1="5" x2="737" y1="243.0664" y2="243.0664"/><line style="stroke:#000000;stroke-width:1.0;" x1="5" x2="737" y1="246.0664" y2="246.0664"/><rect fill="#EEEEEE" height="23.1328" style="stroke:#000000;stroke-width:2.0;" width="92" x="325" y="232.5"/><text fill="#000000" font-family="sans-serif" font-size="13" font-weight="bold" lengthAdjust="spacing" textLength="73" x="331" y="248.5669">command</text><polygon fill="#181818" points="183.5,282.7656,193.5,286.7656,183.5,290.7656" style="stroke:#181818;stroke-width:1.0;"/><line style="stroke:#181818;stroke-width:1.0;" x1="100.5" x2="189.5" y1="286.7656" y2="286.7656"/><text fill="#000000" font-family="sans-serif" font-size="13" lengthAdjust="spacing" textLength="58" x="107.5" y="281.6997">get state</text><line style="stroke:#181818;stroke-width:1.0;" x1="488" x2="478" y1="315.8984" y2="311.8984"/><line style="stroke:#181818;stroke-width:1.0;" x1="488" x2="478" y1="315.8984" y2="319.8984"/><line style="stroke:#181818;stroke-width:1.0;" x1="205.5" x2="489" y1="315.8984" y2="315.8984"/><text fill="#000000" font-family="sans-serif" font-size="13" lengthAdjust="spacing" textLength="150" x="212.5" y="310.8325">request complete state</text><line style="stroke:#181818;stroke-width:1.0;" x1="662" x2="652" y1="345.0313" y2="341.0313"/><line style="stroke:#181818;stroke-width:1.0;" x1="662" x2="652" y1="345.0313" y2="349.0313"/><line style="stroke:#181818;stroke-width:1.0;" x1="490" x2="663" y1="345.0313" y2="345.0313"/><text fill="#000000" font-family="sans-serif" font-size="13" lengthAdjust="spacing" textLength="150" x="497" y="339.9653">request complete state</text><line style="stroke:#181818;stroke-width:1.0;" x1="205.5" x2="247.5" y1="374.1641" y2="374.1641"/><line style="stroke:#181818;stroke-width:1.0;" x1="247.5" x2="247.5" y1="374.1641" y2="387.1641"/><line style="stroke:#181818;stroke-width:1.0;" x1="206.5" x2="247.5" y1="387.1641" y2="387.1641"/><polygon fill="#181818" points="216.5,383.1641,206.5,387.1641,216.5,391.1641" style="stroke:#181818;stroke-width:1.0;"/><text fill="#000000" font-family="sans-serif" font-size="13" lengthAdjust="spacing" textLength="134" x="212.5" y="369.0981">wait for the response</text><line style="stroke:#181818;stroke-width:1.0;" x1="354.5" x2="364.5" y1="416.2969" y2="412.2969"/><line style="stroke:#181818;stroke-width:1.0;" x1="354.5" x2="364.5" y1="416.2969" y2="420.2969"/><line style="stroke:#181818;stroke-width:1.0;" x1="353.5" x2="663" y1="416.2969" y2="416.2969"/><text fill="#000000" font-family="sans-serif" font-size="13" lengthAdjust="spacing" textLength="97" x="370.5" y="411.231">complete state</text><line style="stroke:#181818;stroke-width:1.0;" x1="206.5" x2="216.5" y1="445.4297" y2="441.4297"/><line style="stroke:#181818;stroke-width:1.0;" x1="206.5" x2="216.5" y1="445.4297" y2="449.4297"/><line style="stroke:#181818;stroke-width:1.0;" x1="205.5" x2="352.5" y1="445.4297" y2="445.4297"/><text fill="#000000" font-family="sans-serif" font-size="13" lengthAdjust="spacing" textLength="97" x="222.5" y="440.3638">complete state</text><line style="stroke:#181818;stroke-width:1.0;" x1="205.5" x2="247.5" y1="474.5625" y2="474.5625"/><line style="stroke:#181818;stroke-width:1.0;" x1="247.5" x2="247.5" y1="474.5625" y2="487.5625"/><line style="stroke:#181818;stroke-width:1.0;" x1="206.5" x2="247.5" y1="487.5625" y2="487.5625"/><polygon fill="#181818" points="216.5,483.5625,206.5,487.5625,216.5,491.5625" style="stroke:#181818;stroke-width:1.0;"/><text fill="#000000" font-family="sans-serif" font-size="13" lengthAdjust="spacing" textLength="118" x="212.5" y="469.4966">format output text</text><polygon fill="#181818" points="111.5,512.6953,101.5,516.6953,111.5,520.6953" style="stroke:#181818;stroke-width:1.0;"/><line style="stroke:#181818;stroke-width:1.0;" x1="105.5" x2="194.5" y1="516.6953" y2="516.6953"/><text fill="#000000" font-family="sans-serif" font-size="13" lengthAdjust="spacing" textLength="71" x="117.5" y="511.6294">output text</text><line style="stroke:#181818;stroke-width:1.0;" x1="100.5" x2="142.5" y1="545.8281" y2="545.8281"/><line style="stroke:#181818;stroke-width:1.0;" x1="142.5" x2="142.5" y1="545.8281" y2="558.8281"/><line style="stroke:#181818;stroke-width:1.0;" x1="101.5" x2="142.5" y1="558.8281" y2="558.8281"/><polygon fill="#181818" points="111.5,554.8281,101.5,558.8281,111.5,562.8281" style="stroke:#181818;stroke-width:1.0;"/><text fill="#000000" font-family="sans-serif" font-size="13" lengthAdjust="spacing" textLength="58" x="107.5" y="540.7622">print text</text><polygon fill="#181818" points="54.5,583.9609,44.5,587.9609,54.5,591.9609" style="stroke:#181818;stroke-width:1.0;"/><line style="stroke:#181818;stroke-width:1.0;" x1="48.5" x2="89.5" y1="587.9609" y2="587.9609"/><text fill="#000000" font-family="sans-serif" font-size="13" lengthAdjust="spacing" textLength="23" x="60.5" y="582.895">exit</text><!--MD5=[3460aa6bcd4c3f229133d688e4f98b08]
@startuml seq_get_state
!include ../../../../doc/plantuml/clean.skin

box "Ankaios Ank"
    actor "user" as user
    participant Main as main
    participant "CliCommands" as cli_commands
    participant "<<task>>\nListen to Ankaios\nServer" as listen_to_server
    participant "<<task>>\nListen to Agent \nManager" as listen_to_manager
end box

box "Ankaios Server"
    participant "Ankaios Server" as server
end box

-> main ++ : get state

== startup ==

... initialization ...

== command ==

main -> cli_commands ++ : get state
cli_commands ->> listen_to_manager : request complete state
listen_to_manager ->> server ++ : request complete state

cli_commands -> cli_commands : wait for the response

listen_to_server <<- server - -: complete state
listen_to_server ->> cli_commands : complete state
cli_commands -> cli_commands : format output text
main <- cli_commands - - : output text

destroy cli_commands
destroy listen_to_manager
destroy listen_to_server

main -> main : print text 
user <- main - - : exit

@enduml

@startuml seq_get_state
skinparam monochrome true
skinparam guillemet true
skinparam style strictuml
hide empty members
hide empty methods

skinparam class {
    BorderColor<<logical entity>> grey
    FontColor<<logical entity>> grey
    StereotypeFontColor<<logical entity>> grey
}

skinparam sequenceBox {
    BorderColor #LightGrey
    BackgroundColor #EEEEEE
    FontColor #777777
}

skinparam BoxPadding 10

skinparam note {
    BackgroundColor #FFFFFF
}

skinparam nodesep 30
skinparam ranksep 30

!pragma teoz true

box "Ankaios Ank"
    actor "user" as user
    participant Main as main
    participant "CliCommands" as cli_commands
    participant "<<task>>\nListen to Ankaios\nServer" as listen_to_server
    participant "<<task>>\nListen to Agent \nManager" as listen_to_manager
end box

box "Ankaios Server"
    participant "Ankaios Server" as server
end box

-> main ++ : get state

== startup ==

... initialization ...

== command ==

main -> cli_commands ++ : get state
cli_commands ->> listen_to_manager : request complete state
listen_to_manager ->> server ++ : request complete state

cli_commands -> cli_commands : wait for the response

listen_to_server <<- server - -: complete state
listen_to_server ->> cli_commands : complete state
cli_commands -> cli_commands : format output text
main <- cli_commands - - : output text

destroy cli_commands
destroy listen_to_manager
destroy listen_to_server

main -> main : print text 
user <- main - - : exit

@enduml

PlantUML version 1.2022.7(Mon Aug 22 17:01:30 UTC 2022)
(GPL source distribution)
Java Runtime: OpenJDK Runtime Environment
JVM: OpenJDK 64-Bit Server VM
Default Encoding: ANSI_X3.4-1968
Language: en
Country: US
--></g></svg>