<?xml version="1.0" encoding="us-ascii" standalone="no"?><svg xmlns="http://www.w3.org/2000/svg" xmlns:xlink="http://www.w3.org/1999/xlink" contentStyleType="text/css" height="712px" preserveAspectRatio="none" style="width:1095px;height:712px;background:#FFFFFF;" version="1.1" viewBox="0 0 1095 712" width="1095px" zoomAndPan="magnify"><defs/><g><rect fill="#EEEEEE" height="693.1797" style="stroke:#D3D3D3;stroke-width:0.5;" width="897.5" x="11" y="6"/><text fill="#777777" font-family="sans-serif" font-size="13" font-weight="bold" lengthAdjust="spacing" textLength="91" x="414.25" y="18.0669">Ankaios Ank</text><rect fill="#EEEEEE" height="693.1797" style="stroke:#D3D3D3;stroke-width:0.5;" width="124" x="953" y="6"/><text fill="#777777" font-family="sans-serif" font-size="13" font-weight="bold" lengthAdjust="spacing" textLength="110" x="960" y="18.0669">Ankaios Server</text><rect fill="#FFFFFF" height="521.8125" style="stroke:#FFFFFF;stroke-width:1.0;" width="10" x="129.5" y="132.5625"/><line style="stroke:#181818;stroke-width:1.0;" x1="129.5" x2="129.5" y1="132.5625" y2="654.375"/><line style="stroke:#181818;stroke-width:1.0;" x1="139.5" x2="139.5" y1="132.5625" y2="654.375"/><line style="stroke:#181818;stroke-width:1.0;" x1="129.5" x2="139.5" y1="132.5625" y2="132.5625"/><rect fill="#FFFFFF" height="1" style="stroke:#FFFFFF;stroke-width:1.0;" width="10" x="129.5" y="695.1797"/><line style="stroke:#181818;stroke-width:1.0;" x1="129.5" x2="129.5" y1="695.1797" y2="696.1797"/><line style="stroke:#181818;stroke-width:1.0;" x1="139.5" x2="139.5" y1="695.1797" y2="696.1797"/><rect fill="#FFFFFF" height="28" style="stroke:#181818;stroke-width:1.0;" width="10" x="134.5" y="224.4609"/><rect fill="#FFFFFF" height="14" style="stroke:#181818;stroke-width:1.0;" width="10" x="294.5" y="341.5234"/><rect fill="#FFFFFF" height="16.1641" style="stroke:#181818;stroke-width:1.0;" width="10" x="374" y="394.6563"/><rect fill="#FFFFFF" height="46.4297" style="stroke:#181818;stroke-width:1.0;" width="10" x="507.5" y="420.8203"/><rect fill="#FFFFFF" height="177.125" style="stroke:#FFFFFF;stroke-width:1.0;" width="10" x="813" y="477.25"/><line style="stroke:#181818;stroke-width:1.0;" x1="813" x2="813" y1="477.25" y2="654.375"/><line style="stroke:#181818;stroke-width:1.0;" x1="823" x2="823" y1="477.25" y2="654.375"/><line style="stroke:#181818;stroke-width:1.0;" x1="813" x2="823" y1="477.25" y2="477.25"/><rect fill="#FFFFFF" height="1" style="stroke:#FFFFFF;stroke-width:1.0;" width="10" x="813" y="695.1797"/><line style="stroke:#181818;stroke-width:1.0;" x1="813" x2="813" y1="695.1797" y2="696.1797"/><line style="stroke:#181818;stroke-width:1.0;" x1="823" x2="823" y1="695.1797" y2="696.1797"/><rect fill="#FFFFFF" height="118.9648" style="stroke:#FFFFFF;stroke-width:1.0;" width="10" x="1010" y="535.4102"/><line style="stroke:#181818;stroke-width:1.0;" x1="1010" x2="1010" y1="535.4102" y2="654.375"/><line style="stroke:#181818;stroke-width:1.0;" x1="1020" x2="1020" y1="535.4102" y2="654.375"/><line style="stroke:#181818;stroke-width:1.0;" x1="1010" x2="1020" y1="535.4102" y2="535.4102"/><rect fill="#FFFFFF" height="1" style="stroke:#FFFFFF;stroke-width:1.0;" width="10" x="1010" y="695.1797"/><line style="stroke:#181818;stroke-width:1.0;" x1="1010" x2="1010" y1="695.1797" y2="696.1797"/><line style="stroke:#181818;stroke-width:1.0;" x1="1020" x2="1020" y1="695.1797" y2="696.1797"/><line style="stroke:#181818;stroke-width:0.5;stroke-dasharray:5.0,5.0;" x1="33" x2="33" y1="101.4297" y2="654.375"/><line style="stroke:#383838;stroke-width:1.0;stroke-dasharray:1.0,4.0;" x1="33" x2="33" y1="654.375" y2="695.1797"/><line style="stroke:#181818;stroke-width:0.5;stroke-dasharray:5.0,5.0;" x1="33" x2="33" y1="695.1797" y2="705.1797"/><line style="stroke:#181818;stroke-width:0.5;stroke-dasharray:5.0,5.0;" x1="134.5" x2="134.5" y1="101.4297" y2="654.375"/><line style="stroke:#383838;stroke-width:1.0;stroke-dasharray:1.0,4.0;" x1="134.5" x2="134.5" y1="654.375" y2="695.1797"/><line style="stroke:#181818;stroke-width:0.5;stroke-dasharray:5.0,5.0;" x1="134.5" x2="134.5" y1="695.1797" y2="705.1797"/><line style="stroke:#181818;stroke-width:0.5;stroke-dasharray:5.0,5.0;" x1="299.5" x2="299.5" y1="309.7422" y2="654.375"/><line style="stroke:#383838;stroke-width:1.0;stroke-dasharray:1.0,4.0;" x1="299.5" x2="299.5" y1="654.375" y2="695.1797"/><line style="stroke:#181818;stroke-width:0.5;stroke-dasharray:5.0,5.0;" x1="299.5" x2="299.5" y1="695.1797" y2="705.1797"/><line style="stroke:#181818;stroke-width:0.5;stroke-dasharray:5.0,5.0;" x1="378.5" x2="378.5" y1="394.1719" y2="654.375"/><line style="stroke:#383838;stroke-width:1.0;stroke-dasharray:1.0,4.0;" x1="378.5" x2="378.5" y1="654.375" y2="695.1797"/><line style="stroke:#181818;stroke-width:0.5;stroke-dasharray:5.0,5.0;" x1="378.5" x2="378.5" y1="695.1797" y2="705.1797"/><line style="stroke:#181818;stroke-width:0.5;stroke-dasharray:5.0,5.0;" x1="512.5" x2="512.5" y1="435.4688" y2="654.375"/><line style="stroke:#383838;stroke-width:1.0;stroke-dasharray:1.0,4.0;" x1="512.5" x2="512.5" y1="654.375" y2="695.1797"/><line style="stroke:#181818;stroke-width:0.5;stroke-dasharray:5.0,5.0;" x1="512.5" x2="512.5" y1="695.1797" y2="705.1797"/><line style="stroke:#181818;stroke-width:0.5;stroke-dasharray:5.0,5.0;" x1="817.5" x2="817.5" y1="484.9141" y2="654.375"/><line style="stroke:#383838;stroke-width:1.0;stroke-dasharray:1.0,4.0;" x1="817.5" x2="817.5" y1="654.375" y2="695.1797"/><line style="stroke:#181818;stroke-width:0.5;stroke-dasharray:5.0,5.0;" x1="817.5" x2="817.5" y1="695.1797" y2="705.1797"/><line style="stroke:#181818;stroke-width:0.5;stroke-dasharray:5.0,5.0;" x1="1015" x2="1015" y1="101.4297" y2="654.375"/><line style="stroke:#383838;stroke-width:1.0;stroke-dasharray:1.0,4.0;" x1="1015" x2="1015" y1="654.375" y2="695.1797"/><line style="stroke:#181818;stroke-width:0.5;stroke-dasharray:5.0,5.0;" x1="1015" x2="1015" y1="695.1797" y2="705.1797"/><text fill="#000000" font-family="sans-serif" font-size="14" lengthAdjust="spacing" textLength="31" x="15" y="98.1279">user</text><ellipse cx="33.5" cy="33.6328" fill="#E3E3E3" rx="8" ry="8" style="stroke:#181818;stroke-width:0.5;"/><path d="M33.5,41.6328 L33.5,68.6328 M20.5,49.6328 L46.5,49.6328 M33.5,68.6328 L20.5,83.6328 M33.5,68.6328 L46.5,83.6328 " fill="none" style="stroke:#181818;stroke-width:0.5;"/><rect fill="#E3E3E3" height="30.2969" rx="2.5" ry="2.5" style="stroke:#181818;stroke-width:0.5;" width="46" x="111.5" y="70.1328"/><text fill="#000000" font-family="sans-serif" font-size="14" lengthAdjust="spacing" textLength="32" x="118.5" y="90.1279">Main</text><rect fill="#E3E3E3" height="30.2969" rx="2.5" ry="2.5" style="stroke:#181818;stroke-width:0.5;" width="116" x="957" y="70.1328"/><text fill="#000000" font-family="sans-serif" font-size="14" lengthAdjust="spacing" textLength="102" x="964" y="90.1279">Ankaios Server</text><rect fill="#FFFFFF" height="521.8125" style="stroke:#FFFFFF;stroke-width:1.0;" width="10" x="129.5" y="132.5625"/><line style="stroke:#181818;stroke-width:1.0;" x1="129.5" x2="129.5" y1="132.5625" y2="654.375"/><line style="stroke:#181818;stroke-width:1.0;" x1="139.5" x2="139.5" y1="132.5625" y2="654.375"/><line style="stroke:#181818;stroke-width:1.0;" x1="129.5" x2="139.5" y1="132.5625" y2="132.5625"/><rect fill="#FFFFFF" height="1" style="stroke:#FFFFFF;stroke-width:1.0;" width="10" x="129.5" y="695.1797"/><line style="stroke:#181818;stroke-width:1.0;" x1="129.5" x2="129.5" y1="695.1797" y2="696.1797"/><line style="stroke:#181818;stroke-width:1.0;" x1="139.5" x2="139.5" y1="695.1797" y2="696.1797"/><rect fill="#FFFFFF" height="28" style="stroke:#181818;stroke-width:1.0;" width="10" x="134.5" y="224.4609"/><rect fill="#FFFFFF" height="14" style="stroke:#181818;stroke-width:1.0;" width="10" x="294.5" y="341.5234"/><rect fill="#FFFFFF" height="16.1641" style="stroke:#181818;stroke-width:1.0;" width="10" x="374" y="394.6563"/><rect fill="#FFFFFF" height="46.4297" style="stroke:#181818;stroke-width:1.0;" width="10" x="507.5" y="420.8203"/><rect fill="#FFFFFF" height="177.125" style="stroke:#FFFFFF;stroke-width:1.0;" width="10" x="813" y="477.25"/><line style="stroke:#181818;stroke-width:1.0;" x1="813" x2="813" y1="477.25" y2="654.375"/><line style="stroke:#181818;stroke-width:1.0;" x1="823" x2="823" y1="477.25" y2="654.375"/><line style="stroke:#181818;stroke-width:1.0;" x1="813" x2="823" y1="477.25" y2="477.25"/><rect fill="#FFFFFF" height="1" style="stroke:#FFFFFF;stroke-width:1.0;" width="10" x="813" y="695.1797"/><line style="stroke:#181818;stroke-width:1.0;" x1="813" x2="813" y1="695.1797" y2="696.1797"/><line style="stroke:#181818;stroke-width:1.0;" x1="823" x2="823" y1="695.1797" y2="696.1797"/><rect fill="#FFFFFF" height="118.9648" style="stroke:#FFFFFF;stroke-width:1.0;" width="10" x="1010" y="535.4102"/><line style="stroke:#181818;stroke-width:1.0;" x1="1010" x2="1010" y1="535.4102" y2="654.375"/><line style="stroke:#181818;stroke-width:1.0;" x1="1020" x2="1020" y1="535.4102" y2="654.375"/><line style="stroke:#181818;stroke-width:1.0;" x1="1010" x2="1020" y1="535.4102" y2="535.4102"/><rect fill="#FFFFFF" height="1" style="stroke:#FFFFFF;stroke-width:1.0;" width="10" x="1010" y="695.1797"/><line style="stroke:#181818;stroke-width:1.0;" x1="1010" x2="1010" y1="695.1797" y2="696.1797"/><line style="stroke:#181818;stroke-width:1.0;" x1="1020" x2="1020" y1="695.1797" y2="696.1797"/><polygon fill="#181818" points="117.5,128.5625,127.5,132.5625,117.5,136.5625" style="stroke:#181818;stroke-width:1.0;"/><line style="stroke:#181818;stroke-width:1.0;" x1="33.5" x2="123.5" y1="132.5625" y2="132.5625"/><text fill="#000000" font-family="sans-serif" font-size="13" lengthAdjust="spacing" textLength="77" x="40.5" y="127.4966">a command</text><rect fill="#EEEEEE" height="3" style="stroke:#EEEEEE;stroke-width:1.0;" width="1088" x="0" y="161.1289"/><line style="stroke:#000000;stroke-width:1.0;" x1="0" x2="1088" y1="161.1289" y2="161.1289"/><line style="stroke:#000000;stroke-width:1.0;" x1="0" x2="1088" y1="164.1289" y2="164.1289"/><rect fill="#EEEEEE" height="23.1328" style="stroke:#000000;stroke-width:2.0;" width="73" x="507.5" y="150.5625"/><text fill="#000000" font-family="sans-serif" font-size="13" font-weight="bold" lengthAdjust="spacing" textLength="54" x="513.5" y="166.6294">startup</text><line style="stroke:#181818;stroke-width:1.0;" x1="144.5" x2="186.5" y1="216.4609" y2="216.4609"/><line style="stroke:#181818;stroke-width:1.0;" x1="186.5" x2="186.5" y1="216.4609" y2="229.4609"/><line style="stroke:#181818;stroke-width:1.0;" x1="145.5" x2="186.5" y1="229.4609" y2="229.4609"/><polygon fill="#181818" points="155.5,225.4609,145.5,229.4609,155.5,233.4609" style="stroke:#181818;stroke-width:1.0;"/><text fill="#000000" font-family="sans-serif" font-size="13" lengthAdjust="spacing" textLength="141" x="151.5" y="211.395">load ank CLI config file</text><path d="M304,188.6953 L304,243.6953 L724,243.6953 L724,198.6953 L714,188.6953 L304,188.6953 " fill="#FFFFFF" style="stroke:#181818;stroke-width:0.5;"/><path d="M714,188.6953 L714,198.6953 L724,198.6953 L714,188.6953 " fill="#FFFFFF" style="stroke:#181818;stroke-width:0.5;"/><text fill="#000000" font-family="sans-serif" font-size="13" lengthAdjust="spacing" textLength="358" x="310" y="205.7622">The precedence of means of configuring the Ankaios CLI</text><text fill="#000000" font-family="sans-serif" font-size="13" lengthAdjust="spacing" textLength="279" x="314" y="220.895">is the following: Ankaios ank CLI arguments,</text><text fill="#000000" font-family="sans-serif" font-size="13" lengthAdjust="spacing" textLength="395" x="314" y="236.0278">environment variables and after that the CLI configuration file.</text><polygon fill="#181818" points="272.5,281.0938,282.5,285.0938,272.5,289.0938" style="stroke:#181818;stroke-width:1.0;"/><line style="stroke:#181818;stroke-width:1.0;" x1="139.5" x2="278.5" y1="285.0938" y2="285.0938"/><rect fill="#E3E3E3" height="30.2969" rx="2.5" ry="2.5" style="stroke:#181818;stroke-width:0.5;" width="30" x="284.5" y="279.0938"/><text fill="#000000" font-family="sans-serif" font-size="14" lengthAdjust="spacing" textLength="16" x="291.5" y="299.0889">Cli</text><polygon fill="#181818" points="282.5,337.5234,292.5,341.5234,282.5,345.5234" style="stroke:#181818;stroke-width:1.0;"/><line style="stroke:#181818;stroke-width:1.0;" x1="139.5" x2="288.5" y1="341.5234" y2="341.5234"/><text fill="#000000" font-family="sans-serif" font-size="13" lengthAdjust="spacing" textLength="36" x="146.5" y="336.4575">parse</text><line style="stroke:#181818;stroke-width:1.0;" x1="140.5" x2="150.5" y1="355.5234" y2="351.5234"/><line style="stroke:#181818;stroke-width:1.0;" x1="140.5" x2="150.5" y1="355.5234" y2="359.5234"/><line style="stroke:#181818;stroke-width:1.0;" x1="139.5" x2="298.5" y1="355.5234" y2="355.5234"/><polygon fill="#181818" points="312.5,380.6563,322.5,384.6563,312.5,388.6563" style="stroke:#181818;stroke-width:1.0;"/><line style="stroke:#181818;stroke-width:1.0;" x1="139.5" x2="318.5" y1="384.6563" y2="384.6563"/><text fill="#000000" font-family="sans-serif" font-size="13" lengthAdjust="spacing" textLength="19" x="146.5" y="379.5903">init</text><rect fill="#E3E3E3" height="30.2969" rx="2.5" ry="2.5" style="stroke:#181818;stroke-width:0.5;" width="109" x="324.5" y="363.5234"/><text fill="#000000" font-family="sans-serif" font-size="14" lengthAdjust="spacing" textLength="95" x="331.5" y="383.5186">CliCommands</text><polygon fill="#181818" points="431.5,406.8203,441.5,410.8203,431.5,414.8203" style="stroke:#181818;stroke-width:1.0;"/><line style="stroke:#181818;stroke-width:1.0;" x1="379" x2="437.5" y1="410.8203" y2="410.8203"/><rect fill="#E3E3E3" height="30.2969" rx="2.5" ry="2.5" style="stroke:#181818;stroke-width:0.5;" width="138" x="443.5" y="404.8203"/><text fill="#000000" font-family="sans-serif" font-size="14" lengthAdjust="spacing" textLength="124" x="450.5" y="424.8154">ServerConnection</text><line style="stroke:#181818;stroke-width:1.0;" x1="729.5" x2="719.5" y1="467.25" y2="463.25"/><line style="stroke:#181818;stroke-width:1.0;" x1="729.5" x2="719.5" y1="467.25" y2="471.25"/><line style="stroke:#181818;stroke-width:1.0;" x1="512.5" x2="730.5" y1="467.25" y2="467.25"/><text fill="#000000" font-family="sans-serif" font-size="13" lengthAdjust="spacing" textLength="190" x="519.5" y="462.1841">create and start in a new task</text><rect fill="#E3E3E3" height="46.5938" rx="2.5" ry="2.5" style="stroke:#181818;stroke-width:0.5;" width="173" x="731.5" y="446.1172"/><text fill="#000000" font-family="sans-serif" font-size="14" lengthAdjust="spacing" textLength="47" x="794.5" y="466.1123">&#171;task&#187;</text><text fill="#000000" font-family="sans-serif" font-size="14" lengthAdjust="spacing" textLength="159" x="738.5" y="482.4092">Communications Client</text><line style="stroke:#181818;stroke-width:1.0;" x1="1008" x2="998" y1="535.4102" y2="531.4102"/><line style="stroke:#181818;stroke-width:1.0;" x1="1008" x2="998" y1="535.4102" y2="539.4102"/><line style="stroke:#181818;stroke-width:1.0;" x1="823" x2="1009" y1="535.4102" y2="535.4102"/><text fill="#000000" font-family="sans-serif" font-size="13" lengthAdjust="spacing" textLength="112" x="830" y="530.3442">connect to server</text><path d="M636,508.7109 L636,548.7109 L808,548.7109 L808,518.7109 L798,508.7109 L636,508.7109 " fill="#FFFFFF" style="stroke:#181818;stroke-width:0.5;"/><path d="M798,508.7109 L798,518.7109 L808,518.7109 L798,508.7109 " fill="#FFFFFF" style="stroke:#181818;stroke-width:0.5;"/><text fill="#000000" font-family="sans-serif" font-size="13" lengthAdjust="spacing" textLength="151" x="642" y="525.7778">if the connection is lost,</text><text fill="#000000" font-family="sans-serif" font-size="13" lengthAdjust="spacing" textLength="124" x="642" y="540.9106">will try to reconnect</text><line style="stroke:#181818;stroke-width:1.0;" x1="823" x2="865" y1="590.2422" y2="590.2422"/><line style="stroke:#181818;stroke-width:1.0;" x1="865" x2="865" y1="590.2422" y2="603.2422"/><line style="stroke:#181818;stroke-width:1.0;" x1="824" x2="865" y1="603.2422" y2="603.2422"/><polygon fill="#181818" points="834,599.2422,824,603.2422,834,607.2422" style="stroke:#181818;stroke-width:1.0;"/><text fill="#000000" font-family="sans-serif" font-size="13" lengthAdjust="spacing" textLength="169" x="830" y="570.0435">start listening for ToServer</text><text fill="#000000" font-family="sans-serif" font-size="13" lengthAdjust="spacing" textLength="173" x="830" y="585.1763">and FromServer messages</text><rect fill="#EEEEEE" height="3" style="stroke:#EEEEEE;stroke-width:1.0;" width="1088" x="0" y="631.8086"/><line style="stroke:#000000;stroke-width:1.0;" x1="0" x2="1088" y1="631.8086" y2="631.8086"/><line style="stroke:#000000;stroke-width:1.0;" x1="0" x2="1088" y1="634.8086" y2="634.8086"/><rect fill="#EEEEEE" height="23.1328" style="stroke:#000000;stroke-width:2.0;" width="92" x="498" y="621.2422"/><text fill="#000000" font-family="sans-serif" font-size="13" font-weight="bold" lengthAdjust="spacing" textLength="73" x="504" y="637.3091">command</text><text fill="#000000" font-family="sans-serif" font-size="11" lengthAdjust="spacing" textLength="88" x="480.25" y="678.5854">implementation</text><!--SRC=[TLHDRzim3BthLt0-DhDpDve0Gu010zhJUWnGg3AT4f4fGvAJxT-FafslsWi2s28VoQUd9tyZDdPe4AfgVVrx36xm1iEwSMRTMyrnwEpQMDHSXIEnKX_k3nG_-AZ91P1deK1-saJdeHW2-W9qWFII4xtsaGprqWbUDN5ATlAS9OkTfLngB2qcTwxhD3VX0detKs2E_et-X7xdcD54SfnBGWvArIKwhtj-ZZeSjzizfs43az4964368yTnyaFctUICGcv0bFaYpyYZc0_w0hZHkpLA2fRRh1MiLb23Xcd3Icqs4ABq6thOR9JAc1ksB6kmJZUW-GYxbrzInoqTe2MBYbr4y7JuZ3MyVIBq7Wqso0R1jT39EOVqCfOCdlW0KM0Nmj9kpq0X1rjdhJiBfBxcBoErFmoT21E-2npvHDvnMiD9Uz8V5XDK6BOHlVJICJUyaHryrZTphguR5B7XwUbXkLhLITg0AgtAxQH2MTwZhbQHQb6IcA8Inz99YnWFLde0I_7CDBc3Qd2v_1gTcqtDMoMsYtOQQHgFgLNIAPysfDi3Z6T8BhtdC9zsexTeLxKyDX4QUsLTftuGtSMTsJqMMp4FjVd8xhOZhh0kH3dnCraBqVzDbUAl4VBVcSiSwsdJba94JZvivGlpviOhi-Saoq_lkd4jpWr17p3aop6THxuSLLK1TRt5PB_HL19I_m00]--></g></svg>