<?xml version="1.0" encoding="us-ascii" standalone="no"?><svg xmlns="http://www.w3.org/2000/svg" xmlns:xlink="http://www.w3.org/1999/xlink" contentStyleType="text/css" height="1082px" preserveAspectRatio="none" style="width:843px;height:1082px;background:#FFFFFF;" version="1.1" viewBox="0 0 843 1082" width="843px" zoomAndPan="magnify"><defs/><g><rect fill="#EEEEEE" height="1063.4922" style="stroke:#D3D3D3;stroke-width:0.5;" width="623.5" x="11" y="6"/><text fill="#777777" font-family="sans-serif" font-size="13" font-weight="bold" lengthAdjust="spacing" textLength="91" x="277.25" y="18.0669">Ankaios Ank</text><rect fill="#EEEEEE" height="1063.4922" style="stroke:#D3D3D3;stroke-width:0.5;" width="124" x="686.5" y="6"/><text fill="#777777" font-family="sans-serif" font-size="13" font-weight="bold" lengthAdjust="spacing" textLength="110" x="693.5" y="18.0669">Ankaios Server</text><rect fill="#FFFFFF" height="51.1328" style="stroke:#FFFFFF;stroke-width:1.0;" width="10" x="109.5" y="132.5625"/><line style="stroke:#181818;stroke-width:1.0;" x1="109.5" x2="109.5" y1="132.5625" y2="183.6953"/><line style="stroke:#181818;stroke-width:1.0;" x1="119.5" x2="119.5" y1="132.5625" y2="183.6953"/><line style="stroke:#181818;stroke-width:1.0;" x1="109.5" x2="119.5" y1="132.5625" y2="132.5625"/><rect fill="#FFFFFF" height="832.9922" style="stroke:#FFFFFF;stroke-width:1.0;" width="10" x="109.5" y="224.5"/><line style="stroke:#181818;stroke-width:1.0;" x1="109.5" x2="109.5" y1="224.5" y2="1057.4922"/><line style="stroke:#181818;stroke-width:1.0;" x1="119.5" x2="119.5" y1="224.5" y2="1057.4922"/><line style="stroke:#181818;stroke-width:1.0;" x1="109.5" x2="119.5" y1="1057.4922" y2="1057.4922"/><rect fill="#FFFFFF" height="739.5938" style="stroke:#181818;stroke-width:1.0;" width="10" x="197" y="288.7656"/><rect fill="#FFFFFF" height="63.2656" style="stroke:#181818;stroke-width:1.0;" width="10" x="202" y="384.1641"/><rect fill="#FFFFFF" height="63.2656" style="stroke:#181818;stroke-width:1.0;" width="10" x="202" y="623.8984"/><rect fill="#FFFFFF" height="29.1328" style="stroke:#181818;stroke-width:1.0;" width="10" x="428" y="418.2969"/><rect fill="#FFFFFF" height="29.1328" style="stroke:#181818;stroke-width:1.0;" width="10" x="428" y="658.0313"/><rect fill="#FFFFFF" height="29.1328" style="stroke:#181818;stroke-width:1.0;" width="10" x="428" y="824.6953"/><rect fill="#FFFFFF" height="29.1328" style="stroke:#181818;stroke-width:1.0;" width="10" x="564.5" y="317.8984"/><rect fill="#FFFFFF" height="29.1328" style="stroke:#181818;stroke-width:1.0;" width="10" x="564.5" y="557.6328"/><rect fill="#FFFFFF" height="71.2656" style="stroke:#181818;stroke-width:1.0;" width="10" x="743.5" y="347.0313"/><rect fill="#FFFFFF" height="71.2656" style="stroke:#181818;stroke-width:1.0;" width="10" x="743.5" y="586.7656"/><rect fill="none" height="552.9297" style="stroke:#000000;stroke-width:1.5;" width="719" x="107.5" y="462.4297"/><rect fill="none" height="221.9297" style="stroke:#000000;stroke-width:1.5;" width="699" x="117.5" y="786.4297"/><rect fill="none" height="132.5313" style="stroke:#000000;stroke-width:1.5;" width="375" x="127.5" y="868.8281"/><rect fill="none" height="59.2656" style="stroke:#000000;stroke-width:1.5;" width="355" x="137.5" y="892.9609"/><line style="stroke:#181818;stroke-width:0.5;stroke-dasharray:5.0,5.0;" x1="33" x2="33" y1="101.4297" y2="183.6953"/><line style="stroke:#383838;stroke-width:1.0;stroke-dasharray:1.0,4.0;" x1="33" x2="33" y1="183.6953" y2="224.5"/><line style="stroke:#181818;stroke-width:0.5;stroke-dasharray:5.0,5.0;" x1="33" x2="33" y1="224.5" y2="1075.4922"/><line style="stroke:#181818;stroke-width:0.5;stroke-dasharray:5.0,5.0;" x1="114.5" x2="114.5" y1="101.4297" y2="183.6953"/><line style="stroke:#383838;stroke-width:1.0;stroke-dasharray:1.0,4.0;" x1="114.5" x2="114.5" y1="183.6953" y2="224.5"/><line style="stroke:#181818;stroke-width:0.5;stroke-dasharray:5.0,5.0;" x1="114.5" x2="114.5" y1="224.5" y2="1075.4922"/><line style="stroke:#181818;stroke-width:0.5;stroke-dasharray:5.0,5.0;" x1="201.5" x2="201.5" y1="101.4297" y2="183.6953"/><line style="stroke:#383838;stroke-width:1.0;stroke-dasharray:1.0,4.0;" x1="201.5" x2="201.5" y1="183.6953" y2="224.5"/><line style="stroke:#181818;stroke-width:0.5;stroke-dasharray:5.0,5.0;" x1="201.5" x2="201.5" y1="224.5" y2="1075.4922"/><line style="stroke:#181818;stroke-width:0.5;stroke-dasharray:5.0,5.0;" x1="432.5" x2="432.5" y1="101.4297" y2="183.6953"/><line style="stroke:#383838;stroke-width:1.0;stroke-dasharray:1.0,4.0;" x1="432.5" x2="432.5" y1="183.6953" y2="224.5"/><line style="stroke:#181818;stroke-width:0.5;stroke-dasharray:5.0,5.0;" x1="432.5" x2="432.5" y1="224.5" y2="1075.4922"/><line style="stroke:#181818;stroke-width:0.5;stroke-dasharray:5.0,5.0;" x1="569.5" x2="569.5" y1="101.4297" y2="183.6953"/><line style="stroke:#383838;stroke-width:1.0;stroke-dasharray:1.0,4.0;" x1="569.5" x2="569.5" y1="183.6953" y2="224.5"/><line style="stroke:#181818;stroke-width:0.5;stroke-dasharray:5.0,5.0;" x1="569.5" x2="569.5" y1="224.5" y2="1075.4922"/><line style="stroke:#181818;stroke-width:0.5;stroke-dasharray:5.0,5.0;" x1="748.5" x2="748.5" y1="101.4297" y2="183.6953"/><line style="stroke:#383838;stroke-width:1.0;stroke-dasharray:1.0,4.0;" x1="748.5" x2="748.5" y1="183.6953" y2="224.5"/><line style="stroke:#181818;stroke-width:0.5;stroke-dasharray:5.0,5.0;" x1="748.5" x2="748.5" y1="224.5" y2="1075.4922"/><text fill="#000000" font-family="sans-serif" font-size="14" lengthAdjust="spacing" textLength="31" x="15" y="98.1279">user</text><ellipse cx="33.5" cy="33.6328" fill="#E3E3E3" rx="8" ry="8" style="stroke:#181818;stroke-width:0.5;"/><path d="M33.5,41.6328 L33.5,68.6328 M20.5,49.6328 L46.5,49.6328 M33.5,68.6328 L20.5,83.6328 M33.5,68.6328 L46.5,83.6328 " fill="none" style="stroke:#181818;stroke-width:0.5;"/><rect fill="#E3E3E3" height="30.2969" rx="2.5" ry="2.5" style="stroke:#181818;stroke-width:0.5;" width="46" x="91.5" y="70.1328"/><text fill="#000000" font-family="sans-serif" font-size="14" lengthAdjust="spacing" textLength="32" x="98.5" y="90.1279">Main</text><rect fill="#E3E3E3" height="30.2969" rx="2.5" ry="2.5" style="stroke:#181818;stroke-width:0.5;" width="109" x="147.5" y="70.1328"/><text fill="#000000" font-family="sans-serif" font-size="14" lengthAdjust="spacing" textLength="95" x="154.5" y="90.1279">CliCommands</text><rect fill="#E3E3E3" height="62.8906" rx="2.5" ry="2.5" style="stroke:#181818;stroke-width:0.5;" width="131" x="367.5" y="37.5391"/><text fill="#000000" font-family="sans-serif" font-size="14" lengthAdjust="spacing" textLength="47" x="409.5" y="57.5342">&#171;task&#187;</text><text fill="#000000" font-family="sans-serif" font-size="14" lengthAdjust="spacing" textLength="117" x="374.5" y="73.8311">Listen to Ankaios</text><text fill="#000000" font-family="sans-serif" font-size="14" lengthAdjust="spacing" textLength="44" x="411" y="90.1279">Server</text><rect fill="#E3E3E3" height="62.8906" rx="2.5" ry="2.5" style="stroke:#181818;stroke-width:0.5;" width="122" x="508.5" y="37.5391"/><text fill="#000000" font-family="sans-serif" font-size="14" lengthAdjust="spacing" textLength="47" x="546" y="57.5342">&#171;task&#187;</text><text fill="#000000" font-family="sans-serif" font-size="14" lengthAdjust="spacing" textLength="104" x="515.5" y="73.8311">Listen to Agent</text><text fill="#000000" font-family="sans-serif" font-size="14" lengthAdjust="spacing" textLength="60" x="539.5" y="90.1279">Manager</text><rect fill="#E3E3E3" height="30.2969" rx="2.5" ry="2.5" style="stroke:#181818;stroke-width:0.5;" width="116" x="690.5" y="70.1328"/><text fill="#000000" font-family="sans-serif" font-size="14" lengthAdjust="spacing" textLength="102" x="697.5" y="90.1279">Ankaios Server</text><rect fill="#FFFFFF" height="51.1328" style="stroke:#FFFFFF;stroke-width:1.0;" width="10" x="109.5" y="132.5625"/><line style="stroke:#181818;stroke-width:1.0;" x1="109.5" x2="109.5" y1="132.5625" y2="183.6953"/><line style="stroke:#181818;stroke-width:1.0;" x1="119.5" x2="119.5" y1="132.5625" y2="183.6953"/><line style="stroke:#181818;stroke-width:1.0;" x1="109.5" x2="119.5" y1="132.5625" y2="132.5625"/><rect fill="#FFFFFF" height="832.9922" style="stroke:#FFFFFF;stroke-width:1.0;" width="10" x="109.5" y="224.5"/><line style="stroke:#181818;stroke-width:1.0;" x1="109.5" x2="109.5" y1="224.5" y2="1057.4922"/><line style="stroke:#181818;stroke-width:1.0;" x1="119.5" x2="119.5" y1="224.5" y2="1057.4922"/><line style="stroke:#181818;stroke-width:1.0;" x1="109.5" x2="119.5" y1="1057.4922" y2="1057.4922"/><rect fill="#FFFFFF" height="739.5938" style="stroke:#181818;stroke-width:1.0;" width="10" x="197" y="288.7656"/><rect fill="#FFFFFF" height="63.2656" style="stroke:#181818;stroke-width:1.0;" width="10" x="202" y="384.1641"/><rect fill="#FFFFFF" height="63.2656" style="stroke:#181818;stroke-width:1.0;" width="10" x="202" y="623.8984"/><rect fill="#FFFFFF" height="29.1328" style="stroke:#181818;stroke-width:1.0;" width="10" x="428" y="418.2969"/><rect fill="#FFFFFF" height="29.1328" style="stroke:#181818;stroke-width:1.0;" width="10" x="428" y="658.0313"/><rect fill="#FFFFFF" height="29.1328" style="stroke:#181818;stroke-width:1.0;" width="10" x="428" y="824.6953"/><rect fill="#FFFFFF" height="29.1328" style="stroke:#181818;stroke-width:1.0;" width="10" x="564.5" y="317.8984"/><rect fill="#FFFFFF" height="29.1328" style="stroke:#181818;stroke-width:1.0;" width="10" x="564.5" y="557.6328"/><rect fill="#FFFFFF" height="71.2656" style="stroke:#181818;stroke-width:1.0;" width="10" x="743.5" y="347.0313"/><rect fill="#FFFFFF" height="71.2656" style="stroke:#181818;stroke-width:1.0;" width="10" x="743.5" y="586.7656"/><polygon fill="#181818" points="97.5,128.5625,107.5,132.5625,97.5,136.5625" style="stroke:#181818;stroke-width:1.0;"/><line style="stroke:#181818;stroke-width:1.0;" x1="33.5" x2="103.5" y1="132.5625" y2="132.5625"/><text fill="#000000" font-family="sans-serif" font-size="13" lengthAdjust="spacing" textLength="57" x="40.5" y="127.4966">set state</text><rect fill="#EEEEEE" height="3" style="stroke:#EEEEEE;stroke-width:1.0;" width="836.5" x="0" y="161.1289"/><line style="stroke:#000000;stroke-width:1.0;" x1="0" x2="836.5" y1="161.1289" y2="161.1289"/><line style="stroke:#000000;stroke-width:1.0;" x1="0" x2="836.5" y1="164.1289" y2="164.1289"/><rect fill="#EEEEEE" height="23.1328" style="stroke:#000000;stroke-width:2.0;" width="73" x="381.75" y="150.5625"/><text fill="#000000" font-family="sans-serif" font-size="13" font-weight="bold" lengthAdjust="spacing" textLength="54" x="387.75" y="166.6294">startup</text><text fill="#000000" font-family="sans-serif" font-size="11" lengthAdjust="spacing" textLength="66" x="358" y="207.9058">initialization</text><rect fill="#EEEEEE" height="3" style="stroke:#EEEEEE;stroke-width:1.0;" width="836.5" x="0" y="245.0664"/><line style="stroke:#000000;stroke-width:1.0;" x1="0" x2="836.5" y1="245.0664" y2="245.0664"/><line style="stroke:#000000;stroke-width:1.0;" x1="0" x2="836.5" y1="248.0664" y2="248.0664"/><rect fill="#EEEEEE" height="23.1328" style="stroke:#000000;stroke-width:2.0;" width="92" x="372.25" y="234.5"/><text fill="#000000" font-family="sans-serif" font-size="13" font-weight="bold" lengthAdjust="spacing" textLength="73" x="378.25" y="250.5669">command</text><polygon fill="#181818" points="185,284.7656,195,288.7656,185,292.7656" style="stroke:#181818;stroke-width:1.0;"/><line style="stroke:#181818;stroke-width:1.0;" x1="119.5" x2="191" y1="288.7656" y2="288.7656"/><text fill="#000000" font-family="sans-serif" font-size="13" lengthAdjust="spacing" textLength="57" x="126.5" y="283.6997">set state</text><line style="stroke:#181818;stroke-width:1.0;" x1="562.5" x2="552.5" y1="317.8984" y2="313.8984"/><line style="stroke:#181818;stroke-width:1.0;" x1="562.5" x2="552.5" y1="317.8984" y2="321.8984"/><line style="stroke:#181818;stroke-width:1.0;" x1="207" x2="563.5" y1="317.8984" y2="317.8984"/><text fill="#000000" font-family="sans-serif" font-size="13" lengthAdjust="spacing" textLength="135" x="214" y="312.8325">request update state</text><line style="stroke:#181818;stroke-width:1.0;" x1="741.5" x2="731.5" y1="347.0313" y2="343.0313"/><line style="stroke:#181818;stroke-width:1.0;" x1="741.5" x2="731.5" y1="347.0313" y2="351.0313"/><line style="stroke:#181818;stroke-width:1.0;" x1="569.5" x2="742.5" y1="347.0313" y2="347.0313"/><text fill="#000000" font-family="sans-serif" font-size="13" lengthAdjust="spacing" textLength="135" x="576.5" y="341.9653">request update state</text><line style="stroke:#181818;stroke-width:1.0;" x1="207" x2="254" y1="371.1641" y2="371.1641"/><line style="stroke:#181818;stroke-width:1.0;" x1="254" x2="254" y1="371.1641" y2="384.1641"/><line style="stroke:#181818;stroke-width:1.0;" x1="213" x2="254" y1="384.1641" y2="384.1641"/><polygon fill="#181818" points="223,380.1641,213,384.1641,223,388.1641" style="stroke:#181818;stroke-width:1.0;"/><text fill="#000000" font-family="sans-serif" font-size="13" lengthAdjust="spacing" textLength="134" x="219" y="366.0981">wait for the response</text><line style="stroke:#181818;stroke-width:1.0;" x1="439" x2="449" y1="418.2969" y2="414.2969"/><line style="stroke:#181818;stroke-width:1.0;" x1="439" x2="449" y1="418.2969" y2="422.2969"/><line style="stroke:#181818;stroke-width:1.0;" x1="438" x2="747.5" y1="418.2969" y2="418.2969"/><text fill="#000000" font-family="sans-serif" font-size="13" lengthAdjust="spacing" textLength="122" x="455" y="413.231">changed workloads</text><line style="stroke:#181818;stroke-width:1.0;" x1="208" x2="218" y1="447.4297" y2="443.4297"/><line style="stroke:#181818;stroke-width:1.0;" x1="208" x2="218" y1="447.4297" y2="451.4297"/><line style="stroke:#181818;stroke-width:1.0;" x1="207" x2="432" y1="447.4297" y2="447.4297"/><text fill="#000000" font-family="sans-serif" font-size="13" lengthAdjust="spacing" textLength="122" x="224" y="442.3638">changed workloads</text><path d="M107.5,462.4297 L171.5,462.4297 L171.5,469.5625 L161.5,479.5625 L107.5,479.5625 L107.5,462.4297 " fill="#EEEEEE" style="stroke:#000000;stroke-width:1.5;"/><rect fill="none" height="552.9297" style="stroke:#000000;stroke-width:1.5;" width="719" x="107.5" y="462.4297"/><text fill="#000000" font-family="sans-serif" font-size="13" font-weight="bold" lengthAdjust="spacing" textLength="19" x="122.5" y="475.4966">alt</text><text fill="#000000" font-family="sans-serif" font-size="11" font-weight="bold" lengthAdjust="spacing" textLength="155" x="186.5" y="474.6401">[no workloads changed]</text><line style="stroke:#181818;stroke-width:1.0;" x1="207" x2="249" y1="500.6953" y2="500.6953"/><line style="stroke:#181818;stroke-width:1.0;" x1="249" x2="249" y1="500.6953" y2="513.6953"/><line style="stroke:#181818;stroke-width:1.0;" x1="208" x2="249" y1="513.6953" y2="513.6953"/><polygon fill="#181818" points="218,509.6953,208,513.6953,218,517.6953" style="stroke:#181818;stroke-width:1.0;"/><text fill="#000000" font-family="sans-serif" font-size="13" lengthAdjust="spacing" textLength="207" x="214" y="495.6294">output "No workloads to update"</text><line style="stroke:#000000;stroke-width:1.0;stroke-dasharray:2.0,2.0;" x1="107.5" x2="826.5" y1="522.6953" y2="522.6953"/><text fill="#000000" font-family="sans-serif" font-size="11" font-weight="bold" lengthAdjust="spacing" textLength="135" x="112.5" y="532.9058">[workloads changed]</text><line style="stroke:#181818;stroke-width:1.0;" x1="562.5" x2="552.5" y1="557.6328" y2="553.6328"/><line style="stroke:#181818;stroke-width:1.0;" x1="562.5" x2="552.5" y1="557.6328" y2="561.6328"/><line style="stroke:#181818;stroke-width:1.0;" x1="207" x2="563.5" y1="557.6328" y2="557.6328"/><text fill="#000000" font-family="sans-serif" font-size="13" lengthAdjust="spacing" textLength="150" x="214" y="552.5669">request complete state</text><line style="stroke:#181818;stroke-width:1.0;" x1="741.5" x2="731.5" y1="586.7656" y2="582.7656"/><line style="stroke:#181818;stroke-width:1.0;" x1="741.5" x2="731.5" y1="586.7656" y2="590.7656"/><line style="stroke:#181818;stroke-width:1.0;" x1="569.5" x2="742.5" y1="586.7656" y2="586.7656"/><text fill="#000000" font-family="sans-serif" font-size="13" lengthAdjust="spacing" textLength="150" x="576.5" y="581.6997">request complete state</text><line style="stroke:#181818;stroke-width:1.0;" x1="207" x2="254" y1="610.8984" y2="610.8984"/><line style="stroke:#181818;stroke-width:1.0;" x1="254" x2="254" y1="610.8984" y2="623.8984"/><line style="stroke:#181818;stroke-width:1.0;" x1="213" x2="254" y1="623.8984" y2="623.8984"/><polygon fill="#181818" points="223,619.8984,213,623.8984,223,627.8984" style="stroke:#181818;stroke-width:1.0;"/><text fill="#000000" font-family="sans-serif" font-size="13" lengthAdjust="spacing" textLength="134" x="219" y="605.8325">wait for the response</text><line style="stroke:#181818;stroke-width:1.0;" x1="439" x2="449" y1="658.0313" y2="654.0313"/><line style="stroke:#181818;stroke-width:1.0;" x1="439" x2="449" y1="658.0313" y2="662.0313"/><line style="stroke:#181818;stroke-width:1.0;" x1="438" x2="747.5" y1="658.0313" y2="658.0313"/><text fill="#000000" font-family="sans-serif" font-size="13" lengthAdjust="spacing" textLength="97" x="455" y="652.9653">complete state</text><line style="stroke:#181818;stroke-width:1.0;" x1="208" x2="218" y1="687.1641" y2="683.1641"/><line style="stroke:#181818;stroke-width:1.0;" x1="208" x2="218" y1="687.1641" y2="691.1641"/><line style="stroke:#181818;stroke-width:1.0;" x1="207" x2="432" y1="687.1641" y2="687.1641"/><text fill="#000000" font-family="sans-serif" font-size="13" lengthAdjust="spacing" textLength="97" x="224" y="682.0981">complete state</text><line style="stroke:#181818;stroke-width:1.0;" x1="207" x2="249" y1="716.2969" y2="716.2969"/><line style="stroke:#181818;stroke-width:1.0;" x1="249" x2="249" y1="716.2969" y2="729.2969"/><line style="stroke:#181818;stroke-width:1.0;" x1="208" x2="249" y1="729.2969" y2="729.2969"/><polygon fill="#181818" points="218,725.2969,208,729.2969,218,733.2969" style="stroke:#181818;stroke-width:1.0;"/><text fill="#000000" font-family="sans-serif" font-size="13" lengthAdjust="spacing" textLength="175" x="214" y="711.231">filter for changed workloads</text><line style="stroke:#181818;stroke-width:1.0;" x1="207" x2="249" y1="758.4297" y2="758.4297"/><line style="stroke:#181818;stroke-width:1.0;" x1="249" x2="249" y1="758.4297" y2="771.4297"/><line style="stroke:#181818;stroke-width:1.0;" x1="208" x2="249" y1="771.4297" y2="771.4297"/><polygon fill="#181818" points="218,767.4297,208,771.4297,218,775.4297" style="stroke:#181818;stroke-width:1.0;"/><text fill="#000000" font-family="sans-serif" font-size="13" lengthAdjust="spacing" textLength="125" x="214" y="753.3638">print workload table</text><path d="M117.5,786.4297 L194.5,786.4297 L194.5,793.5625 L184.5,803.5625 L117.5,803.5625 L117.5,786.4297 " fill="#EEEEEE" style="stroke:#000000;stroke-width:1.5;"/><rect fill="none" height="221.9297" style="stroke:#000000;stroke-width:1.5;" width="699" x="117.5" y="786.4297"/><text fill="#000000" font-family="sans-serif" font-size="13" font-weight="bold" lengthAdjust="spacing" textLength="32" x="132.5" y="799.4966">loop</text><text fill="#000000" font-family="sans-serif" font-size="11" font-weight="bold" lengthAdjust="spacing" textLength="310" x="209.5" y="798.6401">[until all changed workloads have been marked]</text><line style="stroke:#181818;stroke-width:1.0;" x1="439" x2="449" y1="824.6953" y2="820.6953"/><line style="stroke:#181818;stroke-width:1.0;" x1="439" x2="449" y1="824.6953" y2="828.6953"/><line style="stroke:#181818;stroke-width:1.0;" x1="438" x2="747.5" y1="824.6953" y2="824.6953"/><text fill="#000000" font-family="sans-serif" font-size="13" lengthAdjust="spacing" textLength="142" x="455" y="819.6294">update workload state</text><line style="stroke:#181818;stroke-width:1.0;" x1="208" x2="218" y1="853.8281" y2="849.8281"/><line style="stroke:#181818;stroke-width:1.0;" x1="208" x2="218" y1="853.8281" y2="857.8281"/><line style="stroke:#181818;stroke-width:1.0;" x1="207" x2="432" y1="853.8281" y2="853.8281"/><text fill="#000000" font-family="sans-serif" font-size="13" lengthAdjust="spacing" textLength="142" x="224" y="848.7622">update workload state</text><path d="M127.5,868.8281 L191.5,868.8281 L191.5,875.9609 L181.5,885.9609 L127.5,885.9609 L127.5,868.8281 " fill="#EEEEEE" style="stroke:#000000;stroke-width:1.5;"/><rect fill="none" height="132.5313" style="stroke:#000000;stroke-width:1.5;" width="375" x="127.5" y="868.8281"/><text fill="#000000" font-family="sans-serif" font-size="13" font-weight="bold" lengthAdjust="spacing" textLength="19" x="142.5" y="881.895">alt</text><text fill="#000000" font-family="sans-serif" font-size="11" font-weight="bold" lengthAdjust="spacing" textLength="271" x="206.5" y="881.0386">[updated workload in changed workloads]</text><path d="M137.5,892.9609 L201.5,892.9609 L201.5,900.0938 L191.5,910.0938 L137.5,910.0938 L137.5,892.9609 " fill="#EEEEEE" style="stroke:#000000;stroke-width:1.5;"/><rect fill="none" height="59.2656" style="stroke:#000000;stroke-width:1.5;" width="355" x="137.5" y="892.9609"/><text fill="#000000" font-family="sans-serif" font-size="13" font-weight="bold" lengthAdjust="spacing" textLength="19" x="152.5" y="906.0278">alt</text><text fill="#000000" font-family="sans-serif" font-size="11" font-weight="bold" lengthAdjust="spacing" textLength="271" x="216.5" y="905.1714">[updated workload reached desired state]</text><line style="stroke:#181818;stroke-width:1.0;" x1="207" x2="249" y1="931.2266" y2="931.2266"/><line style="stroke:#181818;stroke-width:1.0;" x1="249" x2="249" y1="931.2266" y2="944.2266"/><line style="stroke:#181818;stroke-width:1.0;" x1="208" x2="249" y1="944.2266" y2="944.2266"/><polygon fill="#181818" points="218,940.2266,208,944.2266,218,948.2266" style="stroke:#181818;stroke-width:1.0;"/><text fill="#000000" font-family="sans-serif" font-size="13" lengthAdjust="spacing" textLength="169" x="214" y="926.1606">mark workload as updated</text><line style="stroke:#181818;stroke-width:1.0;" x1="207" x2="249" y1="980.3594" y2="980.3594"/><line style="stroke:#181818;stroke-width:1.0;" x1="249" x2="249" y1="980.3594" y2="993.3594"/><line style="stroke:#181818;stroke-width:1.0;" x1="208" x2="249" y1="993.3594" y2="993.3594"/><polygon fill="#181818" points="218,989.3594,208,993.3594,218,997.3594" style="stroke:#181818;stroke-width:1.0;"/><text fill="#000000" font-family="sans-serif" font-size="13" lengthAdjust="spacing" textLength="182" x="214" y="975.2935">print updated workload table</text><line style="stroke:#181818;stroke-width:1.0;" x1="120.5" x2="130.5" y1="1028.3594" y2="1024.3594"/><line style="stroke:#181818;stroke-width:1.0;" x1="120.5" x2="130.5" y1="1028.3594" y2="1032.3594"/><line style="stroke:#181818;stroke-width:1.0;stroke-dasharray:2.0,2.0;" x1="119.5" x2="201" y1="1028.3594" y2="1028.3594"/><line style="stroke:#383838;stroke-width:2.0;" x1="193" x2="211" y1="1019.3594" y2="1037.3594"/><line style="stroke:#383838;stroke-width:2.0;" x1="193" x2="211" y1="1037.3594" y2="1019.3594"/><line style="stroke:#383838;stroke-width:2.0;" x1="560.5" x2="578.5" y1="1019.3594" y2="1037.3594"/><line style="stroke:#383838;stroke-width:2.0;" x1="560.5" x2="578.5" y1="1037.3594" y2="1019.3594"/><line style="stroke:#383838;stroke-width:2.0;" x1="424" x2="442" y1="1019.3594" y2="1037.3594"/><line style="stroke:#383838;stroke-width:2.0;" x1="424" x2="442" y1="1037.3594" y2="1019.3594"/><polygon fill="#181818" points="44.5,1053.4922,34.5,1057.4922,44.5,1061.4922" style="stroke:#181818;stroke-width:1.0;"/><line style="stroke:#181818;stroke-width:1.0;" x1="38.5" x2="113.5" y1="1057.4922" y2="1057.4922"/><text fill="#000000" font-family="sans-serif" font-size="13" lengthAdjust="spacing" textLength="23" x="50.5" y="1052.4263">exit</text><line style="stroke:#383838;stroke-width:2.0;" x1="105.5" x2="123.5" y1="1048.4922" y2="1066.4922"/><line style="stroke:#383838;stroke-width:2.0;" x1="105.5" x2="123.5" y1="1066.4922" y2="1048.4922"/><!--SRC=[bLLDZzem4BtxLqnpNINS8q2gzjhjfLSaP99Pi73ir9wms_xwZXFpaHZ85e62FFFUZD-RsD-KgNHN8nJ5ul9rw6tdAlIBsbQBLaj3NQCNbKPf2dzKHeYT_OJikpbAPJtmCnF07rcHTP1r7bq6qaFuqmTQwKXLgcKcU9FAX633poIOlMhrQfj6cjht59LMsoekfDdB9Kb_NAytveVoX0R8GkngOtwXEyL6T1_TajtwVl6BJ7laqCQyIIFt2LCph0eqDR0S4qrYyRJG925mnfukH44soDUzGl3o0YLd47YIX4AiLk6Veww5rKg8eYX06KLAQlLNahA6hIpwj2XRdzPJCUMjd5FgKInVhzEzCg84Xxyxz0HTMpCgOjFKG31i3FAyhtGNEAqwxR243wa8tdckw83CuLjhFEEcbi9ocTyMBA4wIBF76ZwiEsehUNuIJ6Xot41-3rSZJxOwXQv7yoYa9Z3scdd6zhO_sra9jgEsutduUGldeHlKoGHgZtU8xp7FESMfhSQBv87XV_oQm6VtziIrSUc7nZthzwbpAV2HTVC6lIjDN2Zi8Ps8UNZh5B_kPmIGtEcedRQsXSwGqY2rJidX84y8E-H3g97k6ATfJheWN7opBaMlCYJz1cGgQZx74GP-oBWspEVF0uMUeXmxS-256hroE2rqj-b4vA3FbJ7SE4EL4GsVg-Bhb8DlIRU3VrFAy0o_uNnbJVFfK0e-F3mv-sSyVkV5z3f98_5w6Au5jcquotD-G_5JqGNGtwV_0000]--></g></svg>