<?xml version="1.0" encoding="UTF-8" standalone="no"?><svg xmlns="http://www.w3.org/2000/svg" xmlns:xlink="http://www.w3.org/1999/xlink" contentStyleType="text/css" height="764px" preserveAspectRatio="none" style="width:867px;height:764px;background:#FFFFFF;" version="1.1" viewBox="0 0 867 764" width="867px" zoomAndPan="magnify"><defs/><g><rect fill="#EEEEEE" height="752.4922" style="stroke:#D3D3D3;stroke-width:0.5;" width="642.5" x="21" y="6"/><text fill="#000000" font-family="sans-serif" font-size="13" font-weight="bold" lengthAdjust="spacing" textLength="91" x="296.75" y="18.0669">Ankaios Ank</text><rect fill="#EEEEEE" height="752.4922" style="stroke:#D3D3D3;stroke-width:0.5;" width="134" x="710.5" y="6"/><text fill="#000000" font-family="sans-serif" font-size="13" font-weight="bold" lengthAdjust="spacing" textLength="110" x="722.5" y="18.0669">Ankaios Server</text><rect fill="none" height="185.7969" style="stroke:#000000;stroke-width:1.5;" width="595.5" x="256" y="499.5625"/><line style="stroke:#181818;stroke-width:0.5;stroke-dasharray:5.0,5.0;" x1="43.5" x2="43.5" y1="101.4297" y2="181.6953"/><line style="stroke:#383838;stroke-width:1.0;stroke-dasharray:1.0,4.0;" x1="43.5" x2="43.5" y1="181.6953" y2="222.5"/><line style="stroke:#181818;stroke-width:0.5;stroke-dasharray:5.0,5.0;" x1="43.5" x2="43.5" y1="222.5" y2="752.4922"/><line style="stroke:#181818;stroke-width:0.5;stroke-dasharray:5.0,5.0;" x1="136" x2="136" y1="101.4297" y2="181.6953"/><line style="stroke:#383838;stroke-width:1.0;stroke-dasharray:1.0,4.0;" x1="136" x2="136" y1="181.6953" y2="222.5"/><line style="stroke:#181818;stroke-width:0.5;stroke-dasharray:5.0,5.0;" x1="136" x2="136" y1="222.5" y2="752.4922"/><rect fill="#FFFFFF" height="51.1328" style="stroke:#FFFFFF;stroke-width:1.0;" width="10" x="131" y="130.5625"/><line style="stroke:#181818;stroke-width:1.0;" x1="131" x2="131" y1="130.5625" y2="181.6953"/><line style="stroke:#181818;stroke-width:1.0;" x1="141" x2="141" y1="130.5625" y2="181.6953"/><line style="stroke:#181818;stroke-width:1.0;" x1="131" x2="141" y1="130.5625" y2="130.5625"/><rect fill="#FFFFFF" height="511.9922" style="stroke:#FFFFFF;stroke-width:1.0;" width="10" x="131" y="222.5"/><line style="stroke:#181818;stroke-width:1.0;" x1="131" x2="131" y1="222.5" y2="734.4922"/><line style="stroke:#181818;stroke-width:1.0;" x1="141" x2="141" y1="222.5" y2="734.4922"/><line style="stroke:#181818;stroke-width:1.0;" x1="131" x2="141" y1="734.4922" y2="734.4922"/><line style="stroke:#181818;stroke-width:0.5;stroke-dasharray:5.0,5.0;" x1="272" x2="272" y1="101.4297" y2="181.6953"/><line style="stroke:#383838;stroke-width:1.0;stroke-dasharray:1.0,4.0;" x1="272" x2="272" y1="181.6953" y2="222.5"/><line style="stroke:#181818;stroke-width:0.5;stroke-dasharray:5.0,5.0;" x1="272" x2="272" y1="222.5" y2="752.4922"/><rect fill="#FFFFFF" height="418.5938" style="stroke:#181818;stroke-width:1.0;" width="10" x="267" y="286.7656"/><line style="stroke:#181818;stroke-width:0.5;stroke-dasharray:5.0,5.0;" x1="462" x2="462" y1="101.4297" y2="181.6953"/><line style="stroke:#383838;stroke-width:1.0;stroke-dasharray:1.0,4.0;" x1="462" x2="462" y1="181.6953" y2="222.5"/><line style="stroke:#181818;stroke-width:0.5;stroke-dasharray:5.0,5.0;" x1="462" x2="462" y1="222.5" y2="752.4922"/><line style="stroke:#181818;stroke-width:0.5;stroke-dasharray:5.0,5.0;" x1="598.5" x2="598.5" y1="101.4297" y2="181.6953"/><line style="stroke:#383838;stroke-width:1.0;stroke-dasharray:1.0,4.0;" x1="598.5" x2="598.5" y1="181.6953" y2="222.5"/><line style="stroke:#181818;stroke-width:0.5;stroke-dasharray:5.0,5.0;" x1="598.5" x2="598.5" y1="222.5" y2="752.4922"/><line style="stroke:#181818;stroke-width:0.5;stroke-dasharray:5.0,5.0;" x1="777.5" x2="777.5" y1="101.4297" y2="181.6953"/><line style="stroke:#383838;stroke-width:1.0;stroke-dasharray:1.0,4.0;" x1="777.5" x2="777.5" y1="181.6953" y2="222.5"/><line style="stroke:#181818;stroke-width:0.5;stroke-dasharray:5.0,5.0;" x1="777.5" x2="777.5" y1="222.5" y2="752.4922"/><rect fill="#FFFFFF" height="71.2656" style="stroke:#181818;stroke-width:1.0;" width="10" x="772.5" y="345.0313"/><rect fill="#FFFFFF" height="71.2656" style="stroke:#181818;stroke-width:1.0;" width="10" x="772.5" y="576.9609"/><text fill="#000000" font-family="sans-serif" font-size="14" lengthAdjust="spacing" textLength="31" x="25" y="98.1279">user</text><ellipse cx="43.5" cy="33.6328" fill="#E3E3E3" rx="8" ry="8" style="stroke:#181818;stroke-width:0.5;"/><path d="M43.5,41.6328 L43.5,68.6328 M30.5,49.6328 L56.5,49.6328 M43.5,68.6328 L30.5,83.6328 M43.5,68.6328 L56.5,83.6328 " fill="none" style="stroke:#181818;stroke-width:0.5;"/><rect fill="#E3E3E3" height="30.2969" rx="2.5" ry="2.5" style="stroke:#181818;stroke-width:0.5;" width="46" x="113" y="70.1328"/><text fill="#000000" font-family="sans-serif" font-size="14" lengthAdjust="spacing" textLength="32" x="120" y="90.1279">Main</text><rect fill="#E3E3E3" height="30.2969" rx="2.5" ry="2.5" style="stroke:#181818;stroke-width:0.5;" width="109" x="217.5" y="70.1328"/><text fill="#000000" font-family="sans-serif" font-size="14" lengthAdjust="spacing" textLength="95" x="224.5" y="90.1279">CliCommands</text><rect fill="#E3E3E3" height="62.8906" rx="2.5" ry="2.5" style="stroke:#181818;stroke-width:0.5;" width="131" x="396.5" y="37.5391"/><text fill="#000000" font-family="sans-serif" font-size="14" lengthAdjust="spacing" textLength="77" x="423.5" y="57.5342">&lt;&lt;task&gt;&gt;</text><text fill="#000000" font-family="sans-serif" font-size="14" lengthAdjust="spacing" textLength="117" x="403.5" y="73.8311">Listen to Ankaios</text><text fill="#000000" font-family="sans-serif" font-size="14" lengthAdjust="spacing" textLength="44" x="440" y="90.1279">Server</text><rect fill="#E3E3E3" height="62.8906" rx="2.5" ry="2.5" style="stroke:#181818;stroke-width:0.5;" width="122" x="537.5" y="37.5391"/><text fill="#000000" font-family="sans-serif" font-size="14" lengthAdjust="spacing" textLength="77" x="560" y="57.5342">&lt;&lt;task&gt;&gt;</text><text fill="#000000" font-family="sans-serif" font-size="14" lengthAdjust="spacing" textLength="104" x="544.5" y="73.8311">Listen to Agent</text><text fill="#000000" font-family="sans-serif" font-size="14" lengthAdjust="spacing" textLength="60" x="568.5" y="90.1279">Manager</text><rect fill="#E3E3E3" height="30.2969" rx="2.5" ry="2.5" style="stroke:#181818;stroke-width:0.5;" width="116" x="719.5" y="70.1328"/><text fill="#000000" font-family="sans-serif" font-size="14" lengthAdjust="spacing" textLength="102" x="726.5" y="90.1279">Ankaios Server</text><polygon fill="#181818" points="119,126.5625,129,130.5625,119,134.5625" style="stroke:#181818;stroke-width:1.0;"/><line style="stroke:#181818;stroke-width:1.0;" x1="5" x2="125" y1="130.5625" y2="130.5625"/><text fill="#000000" font-family="sans-serif" font-size="13" lengthAdjust="spacing" textLength="107" x="12" y="125.4966">delete workloads</text><rect fill="#EEEEEE" height="3" style="stroke:#EEEEEE;stroke-width:1.0;" width="855.5" x="5" y="159.1289"/><line style="stroke:#000000;stroke-width:1.0;" x1="5" x2="860.5" y1="159.1289" y2="159.1289"/><line style="stroke:#000000;stroke-width:1.0;" x1="5" x2="860.5" y1="162.1289" y2="162.1289"/><rect fill="#EEEEEE" height="23.1328" style="stroke:#000000;stroke-width:2.0;" width="73" x="396.25" y="148.5625"/><text fill="#000000" font-family="sans-serif" font-size="13" font-weight="bold" lengthAdjust="spacing" textLength="54" x="402.25" y="164.6294">startup</text><text fill="#000000" font-family="sans-serif" font-size="11" lengthAdjust="spacing" textLength="66" x="377.5" y="205.9058">initialization</text><rect fill="#EEEEEE" height="3" style="stroke:#EEEEEE;stroke-width:1.0;" width="855.5" x="5" y="243.0664"/><line style="stroke:#000000;stroke-width:1.0;" x1="5" x2="860.5" y1="243.0664" y2="243.0664"/><line style="stroke:#000000;stroke-width:1.0;" x1="5" x2="860.5" y1="246.0664" y2="246.0664"/><rect fill="#EEEEEE" height="23.1328" style="stroke:#000000;stroke-width:2.0;" width="92" x="386.75" y="232.5"/><text fill="#000000" font-family="sans-serif" font-size="13" font-weight="bold" lengthAdjust="spacing" textLength="73" x="392.75" y="248.5669">command</text><polygon fill="#181818" points="255,282.7656,265,286.7656,255,290.7656" style="stroke:#181818;stroke-width:1.0;"/><line style="stroke:#181818;stroke-width:1.0;" x1="141" x2="261" y1="286.7656" y2="286.7656"/><text fill="#000000" font-family="sans-serif" font-size="13" lengthAdjust="spacing" textLength="107" x="148" y="281.6997">delete workloads</text><line style="stroke:#181818;stroke-width:1.0;" x1="596.5" x2="586.5" y1="315.8984" y2="311.8984"/><line style="stroke:#181818;stroke-width:1.0;" x1="596.5" x2="586.5" y1="315.8984" y2="319.8984"/><line style="stroke:#181818;stroke-width:1.0;" x1="277" x2="597.5" y1="315.8984" y2="315.8984"/><text fill="#000000" font-family="sans-serif" font-size="13" lengthAdjust="spacing" textLength="150" x="284" y="310.8325">request complete state</text><line style="stroke:#181818;stroke-width:1.0;" x1="770.5" x2="760.5" y1="345.0313" y2="341.0313"/><line style="stroke:#181818;stroke-width:1.0;" x1="770.5" x2="760.5" y1="345.0313" y2="349.0313"/><line style="stroke:#181818;stroke-width:1.0;" x1="598.5" x2="771.5" y1="345.0313" y2="345.0313"/><text fill="#000000" font-family="sans-serif" font-size="13" lengthAdjust="spacing" textLength="150" x="605.5" y="339.9653">request complete state</text><line style="stroke:#181818;stroke-width:1.0;" x1="277" x2="319" y1="374.1641" y2="374.1641"/><line style="stroke:#181818;stroke-width:1.0;" x1="319" x2="319" y1="374.1641" y2="387.1641"/><line style="stroke:#181818;stroke-width:1.0;" x1="278" x2="319" y1="387.1641" y2="387.1641"/><polygon fill="#181818" points="288,383.1641,278,387.1641,288,391.1641" style="stroke:#181818;stroke-width:1.0;"/><text fill="#000000" font-family="sans-serif" font-size="13" lengthAdjust="spacing" textLength="134" x="284" y="369.0981">wait for the response</text><line style="stroke:#181818;stroke-width:1.0;" x1="463" x2="473" y1="416.2969" y2="412.2969"/><line style="stroke:#181818;stroke-width:1.0;" x1="463" x2="473" y1="416.2969" y2="420.2969"/><line style="stroke:#181818;stroke-width:1.0;" x1="462" x2="771.5" y1="416.2969" y2="416.2969"/><text fill="#000000" font-family="sans-serif" font-size="13" lengthAdjust="spacing" textLength="97" x="479" y="411.231">complete state</text><line style="stroke:#181818;stroke-width:1.0;" x1="278" x2="288" y1="445.4297" y2="441.4297"/><line style="stroke:#181818;stroke-width:1.0;" x1="278" x2="288" y1="445.4297" y2="449.4297"/><line style="stroke:#181818;stroke-width:1.0;" x1="277" x2="461" y1="445.4297" y2="445.4297"/><text fill="#000000" font-family="sans-serif" font-size="13" lengthAdjust="spacing" textLength="97" x="294" y="440.3638">complete state</text><line style="stroke:#181818;stroke-width:1.0;" x1="277" x2="319" y1="474.5625" y2="474.5625"/><line style="stroke:#181818;stroke-width:1.0;" x1="319" x2="319" y1="474.5625" y2="487.5625"/><line style="stroke:#181818;stroke-width:1.0;" x1="278" x2="319" y1="487.5625" y2="487.5625"/><polygon fill="#181818" points="288,483.5625,278,487.5625,288,491.5625" style="stroke:#181818;stroke-width:1.0;"/><text fill="#000000" font-family="sans-serif" font-size="13" lengthAdjust="spacing" textLength="171" x="284" y="469.4966">find and remove workloads</text><path d="M256,499.5625 L320,499.5625 L320,506.6953 L310,516.6953 L256,516.6953 L256,499.5625 " fill="#EEEEEE" style="stroke:#000000;stroke-width:1.5;"/><rect fill="none" height="185.7969" style="stroke:#000000;stroke-width:1.5;" width="595.5" x="256" y="499.5625"/><text fill="#000000" font-family="sans-serif" font-size="13" font-weight="bold" lengthAdjust="spacing" textLength="19" x="271" y="512.6294">alt</text><text fill="#000000" font-family="sans-serif" font-size="11" font-weight="bold" lengthAdjust="spacing" textLength="187" x="335" y="511.7729">[Workload has been deleted]</text><line style="stroke:#181818;stroke-width:1.0;" x1="596.5" x2="586.5" y1="547.8281" y2="543.8281"/><line style="stroke:#181818;stroke-width:1.0;" x1="596.5" x2="586.5" y1="547.8281" y2="551.8281"/><line style="stroke:#181818;stroke-width:1.0;" x1="277" x2="597.5" y1="547.8281" y2="547.8281"/><text fill="#000000" font-family="sans-serif" font-size="13" lengthAdjust="spacing" textLength="135" x="284" y="542.7622">request update state</text><line style="stroke:#181818;stroke-width:1.0;" x1="770.5" x2="760.5" y1="576.9609" y2="572.9609"/><line style="stroke:#181818;stroke-width:1.0;" x1="770.5" x2="760.5" y1="576.9609" y2="580.9609"/><line style="stroke:#181818;stroke-width:1.0;" x1="598.5" x2="771.5" y1="576.9609" y2="576.9609"/><text fill="#000000" font-family="sans-serif" font-size="13" lengthAdjust="spacing" textLength="135" x="605.5" y="571.895">request update state</text><line style="stroke:#181818;stroke-width:1.0;" x1="277" x2="319" y1="606.0938" y2="606.0938"/><line style="stroke:#181818;stroke-width:1.0;" x1="319" x2="319" y1="606.0938" y2="619.0938"/><line style="stroke:#181818;stroke-width:1.0;" x1="278" x2="319" y1="619.0938" y2="619.0938"/><polygon fill="#181818" points="288,615.0938,278,619.0938,288,623.0938" style="stroke:#181818;stroke-width:1.0;"/><text fill="#000000" font-family="sans-serif" font-size="13" lengthAdjust="spacing" textLength="134" x="284" y="601.0278">wait for the response</text><line style="stroke:#181818;stroke-width:1.0;" x1="463" x2="473" y1="648.2266" y2="644.2266"/><line style="stroke:#181818;stroke-width:1.0;" x1="463" x2="473" y1="648.2266" y2="652.2266"/><line style="stroke:#181818;stroke-width:1.0;" x1="462" x2="771.5" y1="648.2266" y2="648.2266"/><text fill="#000000" font-family="sans-serif" font-size="13" lengthAdjust="spacing" textLength="59" x="479" y="643.1606">response</text><line style="stroke:#181818;stroke-width:1.0;" x1="278" x2="288" y1="677.3594" y2="673.3594"/><line style="stroke:#181818;stroke-width:1.0;" x1="278" x2="288" y1="677.3594" y2="681.3594"/><line style="stroke:#181818;stroke-width:1.0;" x1="277" x2="461" y1="677.3594" y2="677.3594"/><text fill="#000000" font-family="sans-serif" font-size="13" lengthAdjust="spacing" textLength="59" x="294" y="672.2935">response</text><polygon fill="#181818" points="152,701.3594,142,705.3594,152,709.3594" style="stroke:#181818;stroke-width:1.0;"/><line style="stroke:#181818;stroke-width:1.0;" x1="146" x2="266" y1="705.3594" y2="705.3594"/><polygon fill="#181818" points="54.5,730.4922,44.5,734.4922,54.5,738.4922" style="stroke:#181818;stroke-width:1.0;"/><line style="stroke:#181818;stroke-width:1.0;" x1="48.5" x2="130" y1="734.4922" y2="734.4922"/><text fill="#000000" font-family="sans-serif" font-size="13" lengthAdjust="spacing" textLength="23" x="60.5" y="729.4263">exit</text><!--MD5=[53686985a70b547d8ab8afd63f0fdf17]
@startuml seq_delete_workload
!include ../../../../doc/plantuml/clean.skin

box "Ankaios Ank"
    actor "user" as user
    participant Main as main
    participant "CliCommands" as cli_commands
    participant "<<task>>\nListen to Ankaios\nServer" as listen_to_server
    participant "<<task>>\nListen to Agent \nManager" as listen_to_manager
end box

box "Ankaios Server"
    participant "Ankaios Server" as server
end box

-> main ++ : delete workloads

== startup ==

... initialization ...

== command ==

main -> cli_commands ++ : delete workloads

cli_commands ->> listen_to_manager : request complete state
listen_to_manager ->> server ++ : request complete state

cli_commands -> cli_commands : wait for the response

listen_to_server <<- server - -: complete state
listen_to_server ->> cli_commands : complete state
cli_commands -> cli_commands : find and remove workloads

alt Workload has been deleted
    cli_commands ->> listen_to_manager : request update state
    listen_to_manager ->> server ++ : request update state

    cli_commands -> cli_commands : wait for the response

    listen_to_server <<- server - -: response
    listen_to_server ->> cli_commands : response
end 
main <- cli_commands - -

destroy cli_commands
destroy listen_to_manager
destroy listen_to_server

user <- main - - : exit

@enduml

@startuml seq_delete_workload
skinparam monochrome true
skinparam guillemet true
skinparam style strictuml
hide empty members
hide empty methods

skinparam class {
    BorderColor<<logical entity>> grey
    FontColor<<logical entity>> grey
    StereotypeFontColor<<logical entity>> grey
}

skinparam sequenceBox {
    BorderColor #LightGrey
    BackgroundColor #EEEEEE
    FontColor #777777
}

skinparam BoxPadding 10

skinparam note {
    BackgroundColor #FFFFFF
}

skinparam nodesep 30
skinparam ranksep 30

!pragma teoz true

box "Ankaios Ank"
    actor "user" as user
    participant Main as main
    participant "CliCommands" as cli_commands
    participant "<<task>>\nListen to Ankaios\nServer" as listen_to_server
    participant "<<task>>\nListen to Agent \nManager" as listen_to_manager
end box

box "Ankaios Server"
    participant "Ankaios Server" as server
end box

-> main ++ : delete workloads

== startup ==

... initialization ...

== command ==

main -> cli_commands ++ : delete workloads

cli_commands ->> listen_to_manager : request complete state
listen_to_manager ->> server ++ : request complete state

cli_commands -> cli_commands : wait for the response

listen_to_server <<- server - -: complete state
listen_to_server ->> cli_commands : complete state
cli_commands -> cli_commands : find and remove workloads

alt Workload has been deleted
    cli_commands ->> listen_to_manager : request update state
    listen_to_manager ->> server ++ : request update state

    cli_commands -> cli_commands : wait for the response

    listen_to_server <<- server - -: response
    listen_to_server ->> cli_commands : response
end 
main <- cli_commands - -

destroy cli_commands
destroy listen_to_manager
destroy listen_to_server

user <- main - - : exit

@enduml

PlantUML version 1.2022.7(Mon Aug 22 17:01:30 UTC 2022)
(GPL source distribution)
Java Runtime: OpenJDK Runtime Environment
JVM: OpenJDK 64-Bit Server VM
Default Encoding: ANSI_X3.4-1968
Language: en
Country: US
--></g></svg>