<?xml version="1.0" encoding="us-ascii" standalone="no"?><svg xmlns="http://www.w3.org/2000/svg" xmlns:xlink="http://www.w3.org/1999/xlink" contentStyleType="text/css" height="715px" preserveAspectRatio="none" style="width:846px;height:715px;background:#FFFFFF;" version="1.1" viewBox="0 0 846 715" width="846px" zoomAndPan="magnify"><defs/><g><rect fill="#EEEEEE" height="696.3594" style="stroke:#D3D3D3;stroke-width:0.5;" width="664.5" x="11" y="6"/><text fill="#777777" font-family="sans-serif" font-size="13" font-weight="bold" lengthAdjust="spacing" textLength="91" x="297.75" y="18.0669">Ankaios Ank</text><rect fill="#EEEEEE" height="696.3594" style="stroke:#D3D3D3;stroke-width:0.5;" width="124" x="704" y="6"/><text fill="#777777" font-family="sans-serif" font-size="13" font-weight="bold" lengthAdjust="spacing" textLength="110" x="711" y="18.0669">Ankaios Server</text><rect fill="#FFFFFF" height="51.1328" style="stroke:#FFFFFF;stroke-width:1.0;" width="10" x="107" y="132.5625"/><line style="stroke:#181818;stroke-width:1.0;" x1="107" x2="107" y1="132.5625" y2="183.6953"/><line style="stroke:#181818;stroke-width:1.0;" x1="117" x2="117" y1="132.5625" y2="183.6953"/><line style="stroke:#181818;stroke-width:1.0;" x1="107" x2="117" y1="132.5625" y2="132.5625"/><rect fill="#FFFFFF" height="465.8594" style="stroke:#FFFFFF;stroke-width:1.0;" width="10" x="107" y="224.5"/><line style="stroke:#181818;stroke-width:1.0;" x1="107" x2="107" y1="224.5" y2="690.3594"/><line style="stroke:#181818;stroke-width:1.0;" x1="117" x2="117" y1="224.5" y2="690.3594"/><line style="stroke:#181818;stroke-width:1.0;" x1="107" x2="117" y1="690.3594" y2="690.3594"/><rect fill="#FFFFFF" height="330.3281" style="stroke:#181818;stroke-width:1.0;" width="10" x="224" y="288.7656"/><rect fill="#FFFFFF" height="76.2656" style="stroke:#181818;stroke-width:1.0;" width="10" x="229" y="542.8281"/><rect fill="#FFFFFF" height="34.1328" style="stroke:#181818;stroke-width:1.0;" width="10" x="234" y="584.9609"/><rect fill="#FFFFFF" height="187.7969" style="stroke:#181818;stroke-width:1.0;" width="10" x="403" y="317.8984"/><rect fill="#FFFFFF" height="63.2656" style="stroke:#181818;stroke-width:1.0;" width="10" x="408" y="413.2969"/><rect fill="#FFFFFF" height="29.1328" style="stroke:#181818;stroke-width:1.0;" width="10" x="582" y="347.0313"/><rect fill="#FFFFFF" height="29.1328" style="stroke:#181818;stroke-width:1.0;" width="10" x="582" y="447.4297"/><rect fill="#FFFFFF" height="71.2656" style="stroke:#181818;stroke-width:1.0;" width="10" x="761" y="376.1641"/><line style="stroke:#181818;stroke-width:0.5;stroke-dasharray:5.0,5.0;" x1="33" x2="33" y1="101.4297" y2="183.6953"/><line style="stroke:#383838;stroke-width:1.0;stroke-dasharray:1.0,4.0;" x1="33" x2="33" y1="183.6953" y2="224.5"/><line style="stroke:#181818;stroke-width:0.5;stroke-dasharray:5.0,5.0;" x1="33" x2="33" y1="224.5" y2="708.3594"/><line style="stroke:#181818;stroke-width:0.5;stroke-dasharray:5.0,5.0;" x1="112" x2="112" y1="101.4297" y2="183.6953"/><line style="stroke:#383838;stroke-width:1.0;stroke-dasharray:1.0,4.0;" x1="112" x2="112" y1="183.6953" y2="224.5"/><line style="stroke:#181818;stroke-width:0.5;stroke-dasharray:5.0,5.0;" x1="112" x2="112" y1="224.5" y2="708.3594"/><line style="stroke:#181818;stroke-width:0.5;stroke-dasharray:5.0,5.0;" x1="228.5" x2="228.5" y1="101.4297" y2="183.6953"/><line style="stroke:#383838;stroke-width:1.0;stroke-dasharray:1.0,4.0;" x1="228.5" x2="228.5" y1="183.6953" y2="224.5"/><line style="stroke:#181818;stroke-width:0.5;stroke-dasharray:5.0,5.0;" x1="228.5" x2="228.5" y1="224.5" y2="708.3594"/><line style="stroke:#181818;stroke-width:0.5;stroke-dasharray:5.0,5.0;" x1="408" x2="408" y1="101.4297" y2="183.6953"/><line style="stroke:#383838;stroke-width:1.0;stroke-dasharray:1.0,4.0;" x1="408" x2="408" y1="183.6953" y2="224.5"/><line style="stroke:#181818;stroke-width:0.5;stroke-dasharray:5.0,5.0;" x1="408" x2="408" y1="224.5" y2="708.3594"/><line style="stroke:#181818;stroke-width:0.5;stroke-dasharray:5.0,5.0;" x1="586.5" x2="586.5" y1="101.4297" y2="183.6953"/><line style="stroke:#383838;stroke-width:1.0;stroke-dasharray:1.0,4.0;" x1="586.5" x2="586.5" y1="183.6953" y2="224.5"/><line style="stroke:#181818;stroke-width:0.5;stroke-dasharray:5.0,5.0;" x1="586.5" x2="586.5" y1="224.5" y2="708.3594"/><line style="stroke:#181818;stroke-width:0.5;stroke-dasharray:5.0,5.0;" x1="766" x2="766" y1="101.4297" y2="183.6953"/><line style="stroke:#383838;stroke-width:1.0;stroke-dasharray:1.0,4.0;" x1="766" x2="766" y1="183.6953" y2="224.5"/><line style="stroke:#181818;stroke-width:0.5;stroke-dasharray:5.0,5.0;" x1="766" x2="766" y1="224.5" y2="708.3594"/><text fill="#000000" font-family="sans-serif" font-size="14" lengthAdjust="spacing" textLength="31" x="15" y="98.1279">user</text><ellipse cx="33.5" cy="33.6328" fill="#E3E3E3" rx="8" ry="8" style="stroke:#181818;stroke-width:0.5;"/><path d="M33.5,41.6328 L33.5,68.6328 M20.5,49.6328 L46.5,49.6328 M33.5,68.6328 L20.5,83.6328 M33.5,68.6328 L46.5,83.6328 " fill="none" style="stroke:#181818;stroke-width:0.5;"/><rect fill="#E3E3E3" height="30.2969" rx="2.5" ry="2.5" style="stroke:#181818;stroke-width:0.5;" width="46" x="89" y="70.1328"/><text fill="#000000" font-family="sans-serif" font-size="14" lengthAdjust="spacing" textLength="32" x="96" y="90.1279">Main</text><rect fill="#E3E3E3" height="30.2969" rx="2.5" ry="2.5" style="stroke:#181818;stroke-width:0.5;" width="109" x="174.5" y="70.1328"/><text fill="#000000" font-family="sans-serif" font-size="14" lengthAdjust="spacing" textLength="95" x="181.5" y="90.1279">CliCommands</text><rect fill="#E3E3E3" height="30.2969" rx="2.5" ry="2.5" style="stroke:#181818;stroke-width:0.5;" width="138" x="339" y="70.1328"/><text fill="#000000" font-family="sans-serif" font-size="14" lengthAdjust="spacing" textLength="124" x="346" y="90.1279">ServerConnection</text><rect fill="#E3E3E3" height="46.5938" rx="2.5" ry="2.5" style="stroke:#181818;stroke-width:0.5;" width="169" x="502.5" y="53.8359"/><text fill="#000000" font-family="sans-serif" font-size="14" lengthAdjust="spacing" textLength="47" x="563.5" y="73.8311">&#171;task&#187;</text><text fill="#000000" font-family="sans-serif" font-size="14" lengthAdjust="spacing" textLength="155" x="509.5" y="90.1279">CommunicationsClient</text><rect fill="#E3E3E3" height="30.2969" rx="2.5" ry="2.5" style="stroke:#181818;stroke-width:0.5;" width="116" x="708" y="70.1328"/><text fill="#000000" font-family="sans-serif" font-size="14" lengthAdjust="spacing" textLength="102" x="715" y="90.1279">Ankaios Server</text><rect fill="#FFFFFF" height="51.1328" style="stroke:#FFFFFF;stroke-width:1.0;" width="10" x="107" y="132.5625"/><line style="stroke:#181818;stroke-width:1.0;" x1="107" x2="107" y1="132.5625" y2="183.6953"/><line style="stroke:#181818;stroke-width:1.0;" x1="117" x2="117" y1="132.5625" y2="183.6953"/><line style="stroke:#181818;stroke-width:1.0;" x1="107" x2="117" y1="132.5625" y2="132.5625"/><rect fill="#FFFFFF" height="465.8594" style="stroke:#FFFFFF;stroke-width:1.0;" width="10" x="107" y="224.5"/><line style="stroke:#181818;stroke-width:1.0;" x1="107" x2="107" y1="224.5" y2="690.3594"/><line style="stroke:#181818;stroke-width:1.0;" x1="117" x2="117" y1="224.5" y2="690.3594"/><line style="stroke:#181818;stroke-width:1.0;" x1="107" x2="117" y1="690.3594" y2="690.3594"/><rect fill="#FFFFFF" height="330.3281" style="stroke:#181818;stroke-width:1.0;" width="10" x="224" y="288.7656"/><rect fill="#FFFFFF" height="76.2656" style="stroke:#181818;stroke-width:1.0;" width="10" x="229" y="542.8281"/><rect fill="#FFFFFF" height="34.1328" style="stroke:#181818;stroke-width:1.0;" width="10" x="234" y="584.9609"/><rect fill="#FFFFFF" height="187.7969" style="stroke:#181818;stroke-width:1.0;" width="10" x="403" y="317.8984"/><rect fill="#FFFFFF" height="63.2656" style="stroke:#181818;stroke-width:1.0;" width="10" x="408" y="413.2969"/><rect fill="#FFFFFF" height="29.1328" style="stroke:#181818;stroke-width:1.0;" width="10" x="582" y="347.0313"/><rect fill="#FFFFFF" height="29.1328" style="stroke:#181818;stroke-width:1.0;" width="10" x="582" y="447.4297"/><rect fill="#FFFFFF" height="71.2656" style="stroke:#181818;stroke-width:1.0;" width="10" x="761" y="376.1641"/><polygon fill="#181818" points="95,128.5625,105,132.5625,95,136.5625" style="stroke:#181818;stroke-width:1.0;"/><line style="stroke:#181818;stroke-width:1.0;" x1="0" x2="101" y1="132.5625" y2="132.5625"/><text fill="#000000" font-family="sans-serif" font-size="13" lengthAdjust="spacing" textLength="88" x="7" y="127.4966">get workloads</text><rect fill="#EEEEEE" height="3" style="stroke:#EEEEEE;stroke-width:1.0;" width="839" x="0" y="161.1289"/><line style="stroke:#000000;stroke-width:1.0;" x1="0" x2="839" y1="161.1289" y2="161.1289"/><line style="stroke:#000000;stroke-width:1.0;" x1="0" x2="839" y1="164.1289" y2="164.1289"/><rect fill="#EEEEEE" height="23.1328" style="stroke:#000000;stroke-width:2.0;" width="73" x="383" y="150.5625"/><text fill="#000000" font-family="sans-serif" font-size="13" font-weight="bold" lengthAdjust="spacing" textLength="54" x="389" y="166.6294">startup</text><text fill="#000000" font-family="sans-serif" font-size="11" lengthAdjust="spacing" textLength="66" x="366.75" y="207.9058">initialization</text><rect fill="#EEEEEE" height="3" style="stroke:#EEEEEE;stroke-width:1.0;" width="839" x="0" y="245.0664"/><line style="stroke:#000000;stroke-width:1.0;" x1="0" x2="839" y1="245.0664" y2="245.0664"/><line style="stroke:#000000;stroke-width:1.0;" x1="0" x2="839" y1="248.0664" y2="248.0664"/><rect fill="#EEEEEE" height="23.1328" style="stroke:#000000;stroke-width:2.0;" width="92" x="373.5" y="234.5"/><text fill="#000000" font-family="sans-serif" font-size="13" font-weight="bold" lengthAdjust="spacing" textLength="73" x="379.5" y="250.5669">command</text><polygon fill="#181818" points="212,284.7656,222,288.7656,212,292.7656" style="stroke:#181818;stroke-width:1.0;"/><line style="stroke:#181818;stroke-width:1.0;" x1="117" x2="218" y1="288.7656" y2="288.7656"/><text fill="#000000" font-family="sans-serif" font-size="13" lengthAdjust="spacing" textLength="88" x="124" y="283.6997">get workloads</text><polygon fill="#181818" points="391,313.8984,401,317.8984,391,321.8984" style="stroke:#181818;stroke-width:1.0;"/><line style="stroke:#181818;stroke-width:1.0;" x1="234" x2="397" y1="317.8984" y2="317.8984"/><text fill="#000000" font-family="sans-serif" font-size="13" lengthAdjust="spacing" textLength="150" x="241" y="312.8325">request complete state</text><line style="stroke:#181818;stroke-width:1.0;" x1="580" x2="570" y1="347.0313" y2="343.0313"/><line style="stroke:#181818;stroke-width:1.0;" x1="580" x2="570" y1="347.0313" y2="351.0313"/><line style="stroke:#181818;stroke-width:1.0;" x1="413" x2="581" y1="347.0313" y2="347.0313"/><text fill="#000000" font-family="sans-serif" font-size="13" lengthAdjust="spacing" textLength="150" x="420" y="341.9653">request complete state</text><line style="stroke:#181818;stroke-width:1.0;" x1="759" x2="749" y1="376.1641" y2="372.1641"/><line style="stroke:#181818;stroke-width:1.0;" x1="759" x2="749" y1="376.1641" y2="380.1641"/><line style="stroke:#181818;stroke-width:1.0;" x1="587" x2="760" y1="376.1641" y2="376.1641"/><text fill="#000000" font-family="sans-serif" font-size="13" lengthAdjust="spacing" textLength="150" x="594" y="371.0981">request complete state</text><line style="stroke:#181818;stroke-width:1.0;" x1="413" x2="460" y1="400.2969" y2="400.2969"/><line style="stroke:#181818;stroke-width:1.0;" x1="460" x2="460" y1="400.2969" y2="413.2969"/><line style="stroke:#181818;stroke-width:1.0;" x1="419" x2="460" y1="413.2969" y2="413.2969"/><polygon fill="#181818" points="429,409.2969,419,413.2969,429,417.2969" style="stroke:#181818;stroke-width:1.0;"/><text fill="#000000" font-family="sans-serif" font-size="13" lengthAdjust="spacing" textLength="134" x="425" y="395.231">wait for the response</text><line style="stroke:#181818;stroke-width:1.0;" x1="593" x2="603" y1="447.4297" y2="443.4297"/><line style="stroke:#181818;stroke-width:1.0;" x1="593" x2="603" y1="447.4297" y2="451.4297"/><line style="stroke:#181818;stroke-width:1.0;" x1="592" x2="765" y1="447.4297" y2="447.4297"/><text fill="#000000" font-family="sans-serif" font-size="13" lengthAdjust="spacing" textLength="97" x="609" y="442.3638">complete state</text><line style="stroke:#181818;stroke-width:1.0;" x1="414" x2="424" y1="476.5625" y2="472.5625"/><line style="stroke:#181818;stroke-width:1.0;" x1="414" x2="424" y1="476.5625" y2="480.5625"/><line style="stroke:#181818;stroke-width:1.0;" x1="413" x2="586" y1="476.5625" y2="476.5625"/><text fill="#000000" font-family="sans-serif" font-size="13" lengthAdjust="spacing" textLength="97" x="430" y="471.4966">complete state</text><line style="stroke:#181818;stroke-width:1.0;" x1="235" x2="245" y1="505.6953" y2="501.6953"/><line style="stroke:#181818;stroke-width:1.0;" x1="235" x2="245" y1="505.6953" y2="509.6953"/><line style="stroke:#181818;stroke-width:1.0;stroke-dasharray:2.0,2.0;" x1="234" x2="407" y1="505.6953" y2="505.6953"/><text fill="#000000" font-family="sans-serif" font-size="13" lengthAdjust="spacing" textLength="97" x="251" y="500.6294">complete state</text><line style="stroke:#181818;stroke-width:1.0;" x1="234" x2="281" y1="529.8281" y2="529.8281"/><line style="stroke:#181818;stroke-width:1.0;" x1="281" x2="281" y1="529.8281" y2="542.8281"/><line style="stroke:#181818;stroke-width:1.0;" x1="240" x2="281" y1="542.8281" y2="542.8281"/><polygon fill="#181818" points="250,538.8281,240,542.8281,250,546.8281" style="stroke:#181818;stroke-width:1.0;"/><text fill="#000000" font-family="sans-serif" font-size="13" lengthAdjust="spacing" textLength="95" x="246" y="524.7622">filter workloads</text><line style="stroke:#181818;stroke-width:1.0;" x1="239" x2="286" y1="571.9609" y2="571.9609"/><line style="stroke:#181818;stroke-width:1.0;" x1="286" x2="286" y1="571.9609" y2="584.9609"/><line style="stroke:#181818;stroke-width:1.0;" x1="245" x2="286" y1="584.9609" y2="584.9609"/><polygon fill="#181818" points="255,580.9609,245,584.9609,255,588.9609" style="stroke:#181818;stroke-width:1.0;"/><text fill="#000000" font-family="sans-serif" font-size="13" lengthAdjust="spacing" textLength="118" x="251" y="566.895">format output text</text><line style="stroke:#181818;stroke-width:1.0;" x1="118" x2="128" y1="619.0938" y2="615.0938"/><line style="stroke:#181818;stroke-width:1.0;" x1="118" x2="128" y1="619.0938" y2="623.0938"/><line style="stroke:#181818;stroke-width:1.0;stroke-dasharray:2.0,2.0;" x1="117" x2="228" y1="619.0938" y2="619.0938"/><text fill="#000000" font-family="sans-serif" font-size="13" lengthAdjust="spacing" textLength="71" x="134" y="614.0278">output text</text><line style="stroke:#181818;stroke-width:1.0;" x1="117" x2="159" y1="648.2266" y2="648.2266"/><line style="stroke:#181818;stroke-width:1.0;" x1="159" x2="159" y1="648.2266" y2="661.2266"/><line style="stroke:#181818;stroke-width:1.0;" x1="118" x2="159" y1="661.2266" y2="661.2266"/><polygon fill="#181818" points="128,657.2266,118,661.2266,128,665.2266" style="stroke:#181818;stroke-width:1.0;"/><text fill="#000000" font-family="sans-serif" font-size="13" lengthAdjust="spacing" textLength="58" x="124" y="643.1606">print text</text><polygon fill="#181818" points="44.5,686.3594,34.5,690.3594,44.5,694.3594" style="stroke:#181818;stroke-width:1.0;"/><line style="stroke:#181818;stroke-width:1.0;" x1="38.5" x2="111" y1="690.3594" y2="690.3594"/><text fill="#000000" font-family="sans-serif" font-size="13" lengthAdjust="spacing" textLength="23" x="50.5" y="685.2935">exit</text><!--SRC=[bLHDRzim3BthLt2-5dRkHc9Wo7cdNGSKcinkH6J9awWssAyV9MTD73ahPXYGGRxt-2b_8cTi6X6wRlV-1em-1ODnDtgpcwrsd2QxCnQrw-A9d5BV_HcQp-waoKUGir4WZpRi0pGfOcX0HyWVnJ7hm6He5YNueibbvoHdvMoEbev-chGROv4mbfxDnL2Zls9unN3qpg5XygvGOZ4Aww-rvktthEDf6Bwv72mvCZe3eqH7nqlWbUFP58z2DuBKVjU09OscZdC7k6Pt5Mg7qWbuUe8UVY33cmydwxMKgmu7Y2nwQOR3GQckwu0SCMbBlqjUChQkm2ujAh0Y9xAthTkKNm64K3LEM3q4_9KmSWunMsJCAJ6g6jmEmtRN_g6oYIzAYpwqRSdy0NqpYmTrl6bYU97zv9yeUd6MW8yIsE_RsmJwZulFZ0V5j1LzHBafzAgpeLhMrLH4jjsePqEpckRT-7ju8SjIq7K1FcRuC6a6dtXE38ndNfQhPBLcjpAaMznDYQih_B_szstEPmzp87U9a7yk85rV03a-dedL7m00]--></g></svg>