<?xml version="1.0" encoding="UTF-8" standalone="no"?><svg xmlns="http://www.w3.org/2000/svg" xmlns:xlink="http://www.w3.org/1999/xlink" contentStyleType="text/css" height="719px" preserveAspectRatio="none" style="width:763px;height:719px;background:#FFFFFF;" version="1.1" viewBox="0 0 763 719" width="763px" zoomAndPan="magnify"><defs/><g><rect fill="#EEEEEE" height="707.3594" style="stroke:#D3D3D3;stroke-width:0.5;" width="553.5" x="21" y="6"/><text fill="#000000" font-family="sans-serif" font-size="13" font-weight="bold" lengthAdjust="spacing" textLength="91" x="252.25" y="18.0669">Ankaios Ank</text><rect fill="#EEEEEE" height="707.3594" style="stroke:#D3D3D3;stroke-width:0.5;" width="134" x="621.5" y="6"/><text fill="#000000" font-family="sans-serif" font-size="13" font-weight="bold" lengthAdjust="spacing" textLength="110" x="633.5" y="18.0669">Ankaios Server</text><line style="stroke:#181818;stroke-width:0.5;stroke-dasharray:5.0,5.0;" x1="43.5" x2="43.5" y1="101.4297" y2="181.6953"/><line style="stroke:#383838;stroke-width:1.0;stroke-dasharray:1.0,4.0;" x1="43.5" x2="43.5" y1="181.6953" y2="222.5"/><line style="stroke:#181818;stroke-width:0.5;stroke-dasharray:5.0,5.0;" x1="43.5" x2="43.5" y1="222.5" y2="707.3594"/><line style="stroke:#181818;stroke-width:0.5;stroke-dasharray:5.0,5.0;" x1="110" x2="110" y1="101.4297" y2="181.6953"/><line style="stroke:#383838;stroke-width:1.0;stroke-dasharray:1.0,4.0;" x1="110" x2="110" y1="181.6953" y2="222.5"/><line style="stroke:#181818;stroke-width:0.5;stroke-dasharray:5.0,5.0;" x1="110" x2="110" y1="222.5" y2="707.3594"/><rect fill="#FFFFFF" height="51.1328" style="stroke:#FFFFFF;stroke-width:1.0;" width="10" x="105" y="130.5625"/><line style="stroke:#181818;stroke-width:1.0;" x1="105" x2="105" y1="130.5625" y2="181.6953"/><line style="stroke:#181818;stroke-width:1.0;" x1="115" x2="115" y1="130.5625" y2="181.6953"/><line style="stroke:#181818;stroke-width:1.0;" x1="105" x2="115" y1="130.5625" y2="130.5625"/><rect fill="#FFFFFF" height="466.8594" style="stroke:#FFFFFF;stroke-width:1.0;" width="10" x="105" y="222.5"/><line style="stroke:#181818;stroke-width:1.0;" x1="105" x2="105" y1="222.5" y2="689.3594"/><line style="stroke:#181818;stroke-width:1.0;" x1="115" x2="115" y1="222.5" y2="689.3594"/><line style="stroke:#181818;stroke-width:1.0;" x1="105" x2="115" y1="689.3594" y2="689.3594"/><line style="stroke:#181818;stroke-width:0.5;stroke-dasharray:5.0,5.0;" x1="220" x2="220" y1="101.4297" y2="181.6953"/><line style="stroke:#383838;stroke-width:1.0;stroke-dasharray:1.0,4.0;" x1="220" x2="220" y1="181.6953" y2="222.5"/><line style="stroke:#181818;stroke-width:0.5;stroke-dasharray:5.0,5.0;" x1="220" x2="220" y1="222.5" y2="707.3594"/><rect fill="#FFFFFF" height="373.4609" style="stroke:#181818;stroke-width:1.0;" width="10" x="215" y="286.7656"/><line style="stroke:#181818;stroke-width:0.5;stroke-dasharray:5.0,5.0;" x1="373" x2="373" y1="101.4297" y2="181.6953"/><line style="stroke:#383838;stroke-width:1.0;stroke-dasharray:1.0,4.0;" x1="373" x2="373" y1="181.6953" y2="222.5"/><line style="stroke:#181818;stroke-width:0.5;stroke-dasharray:5.0,5.0;" x1="373" x2="373" y1="222.5" y2="707.3594"/><line style="stroke:#181818;stroke-width:0.5;stroke-dasharray:5.0,5.0;" x1="509.5" x2="509.5" y1="101.4297" y2="181.6953"/><line style="stroke:#383838;stroke-width:1.0;stroke-dasharray:1.0,4.0;" x1="509.5" x2="509.5" y1="181.6953" y2="222.5"/><line style="stroke:#181818;stroke-width:0.5;stroke-dasharray:5.0,5.0;" x1="509.5" x2="509.5" y1="222.5" y2="707.3594"/><line style="stroke:#181818;stroke-width:0.5;stroke-dasharray:5.0,5.0;" x1="688.5" x2="688.5" y1="101.4297" y2="181.6953"/><line style="stroke:#383838;stroke-width:1.0;stroke-dasharray:1.0,4.0;" x1="688.5" x2="688.5" y1="181.6953" y2="222.5"/><line style="stroke:#181818;stroke-width:0.5;stroke-dasharray:5.0,5.0;" x1="688.5" x2="688.5" y1="222.5" y2="707.3594"/><rect fill="#FFFFFF" height="71.2656" style="stroke:#181818;stroke-width:1.0;" width="10" x="683.5" y="345.0313"/><rect fill="#FFFFFF" height="71.2656" style="stroke:#181818;stroke-width:1.0;" width="10" x="683.5" y="545.8281"/><text fill="#000000" font-family="sans-serif" font-size="14" lengthAdjust="spacing" textLength="31" x="25" y="98.1279">user</text><ellipse cx="43.5" cy="33.6328" fill="#E3E3E3" rx="8" ry="8" style="stroke:#181818;stroke-width:0.5;"/><path d="M43.5,41.6328 L43.5,68.6328 M30.5,49.6328 L56.5,49.6328 M43.5,68.6328 L30.5,83.6328 M43.5,68.6328 L56.5,83.6328 " fill="none" style="stroke:#181818;stroke-width:0.5;"/><rect fill="#E3E3E3" height="30.2969" rx="2.5" ry="2.5" style="stroke:#181818;stroke-width:0.5;" width="46" x="87" y="70.1328"/><text fill="#000000" font-family="sans-serif" font-size="14" lengthAdjust="spacing" textLength="32" x="94" y="90.1279">Main</text><rect fill="#E3E3E3" height="30.2969" rx="2.5" ry="2.5" style="stroke:#181818;stroke-width:0.5;" width="109" x="165.5" y="70.1328"/><text fill="#000000" font-family="sans-serif" font-size="14" lengthAdjust="spacing" textLength="95" x="172.5" y="90.1279">CliCommands</text><rect fill="#E3E3E3" height="62.8906" rx="2.5" ry="2.5" style="stroke:#181818;stroke-width:0.5;" width="131" x="307.5" y="37.5391"/><text fill="#000000" font-family="sans-serif" font-size="14" lengthAdjust="spacing" textLength="77" x="334.5" y="57.5342">&lt;&lt;task&gt;&gt;</text><text fill="#000000" font-family="sans-serif" font-size="14" lengthAdjust="spacing" textLength="117" x="314.5" y="73.8311">Listen to Ankaios</text><text fill="#000000" font-family="sans-serif" font-size="14" lengthAdjust="spacing" textLength="44" x="351" y="90.1279">Server</text><rect fill="#E3E3E3" height="62.8906" rx="2.5" ry="2.5" style="stroke:#181818;stroke-width:0.5;" width="122" x="448.5" y="37.5391"/><text fill="#000000" font-family="sans-serif" font-size="14" lengthAdjust="spacing" textLength="77" x="471" y="57.5342">&lt;&lt;task&gt;&gt;</text><text fill="#000000" font-family="sans-serif" font-size="14" lengthAdjust="spacing" textLength="104" x="455.5" y="73.8311">Listen to Agent</text><text fill="#000000" font-family="sans-serif" font-size="14" lengthAdjust="spacing" textLength="60" x="479.5" y="90.1279">Manager</text><rect fill="#E3E3E3" height="30.2969" rx="2.5" ry="2.5" style="stroke:#181818;stroke-width:0.5;" width="116" x="630.5" y="70.1328"/><text fill="#000000" font-family="sans-serif" font-size="14" lengthAdjust="spacing" textLength="102" x="637.5" y="90.1279">Ankaios Server</text><polygon fill="#181818" points="93,126.5625,103,130.5625,93,134.5625" style="stroke:#181818;stroke-width:1.0;"/><line style="stroke:#181818;stroke-width:1.0;" x1="5" x2="99" y1="130.5625" y2="130.5625"/><text fill="#000000" font-family="sans-serif" font-size="13" lengthAdjust="spacing" textLength="81" x="12" y="125.4966">run workload</text><rect fill="#EEEEEE" height="3" style="stroke:#EEEEEE;stroke-width:1.0;" width="751.5" x="5" y="159.1289"/><line style="stroke:#000000;stroke-width:1.0;" x1="5" x2="756.5" y1="159.1289" y2="159.1289"/><line style="stroke:#000000;stroke-width:1.0;" x1="5" x2="756.5" y1="162.1289" y2="162.1289"/><rect fill="#EEEEEE" height="23.1328" style="stroke:#000000;stroke-width:2.0;" width="73" x="344.25" y="148.5625"/><text fill="#000000" font-family="sans-serif" font-size="13" font-weight="bold" lengthAdjust="spacing" textLength="54" x="350.25" y="164.6294">startup</text><text fill="#000000" font-family="sans-serif" font-size="11" lengthAdjust="spacing" textLength="66" x="333" y="205.9058">initialization</text><rect fill="#EEEEEE" height="3" style="stroke:#EEEEEE;stroke-width:1.0;" width="751.5" x="5" y="243.0664"/><line style="stroke:#000000;stroke-width:1.0;" x1="5" x2="756.5" y1="243.0664" y2="243.0664"/><line style="stroke:#000000;stroke-width:1.0;" x1="5" x2="756.5" y1="246.0664" y2="246.0664"/><rect fill="#EEEEEE" height="23.1328" style="stroke:#000000;stroke-width:2.0;" width="92" x="334.75" y="232.5"/><text fill="#000000" font-family="sans-serif" font-size="13" font-weight="bold" lengthAdjust="spacing" textLength="73" x="340.75" y="248.5669">command</text><polygon fill="#181818" points="203,282.7656,213,286.7656,203,290.7656" style="stroke:#181818;stroke-width:1.0;"/><line style="stroke:#181818;stroke-width:1.0;" x1="115" x2="209" y1="286.7656" y2="286.7656"/><text fill="#000000" font-family="sans-serif" font-size="13" lengthAdjust="spacing" textLength="81" x="122" y="281.6997">run workload</text><line style="stroke:#181818;stroke-width:1.0;" x1="507.5" x2="497.5" y1="315.8984" y2="311.8984"/><line style="stroke:#181818;stroke-width:1.0;" x1="507.5" x2="497.5" y1="315.8984" y2="319.8984"/><line style="stroke:#181818;stroke-width:1.0;" x1="225" x2="508.5" y1="315.8984" y2="315.8984"/><text fill="#000000" font-family="sans-serif" font-size="13" lengthAdjust="spacing" textLength="150" x="232" y="310.8325">request complete state</text><line style="stroke:#181818;stroke-width:1.0;" x1="681.5" x2="671.5" y1="345.0313" y2="341.0313"/><line style="stroke:#181818;stroke-width:1.0;" x1="681.5" x2="671.5" y1="345.0313" y2="349.0313"/><line style="stroke:#181818;stroke-width:1.0;" x1="509.5" x2="682.5" y1="345.0313" y2="345.0313"/><text fill="#000000" font-family="sans-serif" font-size="13" lengthAdjust="spacing" textLength="150" x="516.5" y="339.9653">request complete state</text><line style="stroke:#181818;stroke-width:1.0;" x1="225" x2="267" y1="374.1641" y2="374.1641"/><line style="stroke:#181818;stroke-width:1.0;" x1="267" x2="267" y1="374.1641" y2="387.1641"/><line style="stroke:#181818;stroke-width:1.0;" x1="226" x2="267" y1="387.1641" y2="387.1641"/><polygon fill="#181818" points="236,383.1641,226,387.1641,236,391.1641" style="stroke:#181818;stroke-width:1.0;"/><text fill="#000000" font-family="sans-serif" font-size="13" lengthAdjust="spacing" textLength="134" x="232" y="369.0981">wait for the response</text><line style="stroke:#181818;stroke-width:1.0;" x1="374" x2="384" y1="416.2969" y2="412.2969"/><line style="stroke:#181818;stroke-width:1.0;" x1="374" x2="384" y1="416.2969" y2="420.2969"/><line style="stroke:#181818;stroke-width:1.0;" x1="373" x2="682.5" y1="416.2969" y2="416.2969"/><text fill="#000000" font-family="sans-serif" font-size="13" lengthAdjust="spacing" textLength="97" x="390" y="411.231">complete state</text><line style="stroke:#181818;stroke-width:1.0;" x1="226" x2="236" y1="445.4297" y2="441.4297"/><line style="stroke:#181818;stroke-width:1.0;" x1="226" x2="236" y1="445.4297" y2="449.4297"/><line style="stroke:#181818;stroke-width:1.0;" x1="225" x2="372" y1="445.4297" y2="445.4297"/><text fill="#000000" font-family="sans-serif" font-size="13" lengthAdjust="spacing" textLength="97" x="242" y="440.3638">complete state</text><line style="stroke:#181818;stroke-width:1.0;" x1="225" x2="267" y1="474.5625" y2="474.5625"/><line style="stroke:#181818;stroke-width:1.0;" x1="267" x2="267" y1="474.5625" y2="487.5625"/><line style="stroke:#181818;stroke-width:1.0;" x1="226" x2="267" y1="487.5625" y2="487.5625"/><polygon fill="#181818" points="236,483.5625,226,487.5625,236,491.5625" style="stroke:#181818;stroke-width:1.0;"/><text fill="#000000" font-family="sans-serif" font-size="13" lengthAdjust="spacing" textLength="84" x="232" y="469.4966">add workload</text><line style="stroke:#181818;stroke-width:1.0;" x1="507.5" x2="497.5" y1="516.6953" y2="512.6953"/><line style="stroke:#181818;stroke-width:1.0;" x1="507.5" x2="497.5" y1="516.6953" y2="520.6953"/><line style="stroke:#181818;stroke-width:1.0;" x1="225" x2="508.5" y1="516.6953" y2="516.6953"/><text fill="#000000" font-family="sans-serif" font-size="13" lengthAdjust="spacing" textLength="135" x="232" y="511.6294">request update state</text><line style="stroke:#181818;stroke-width:1.0;" x1="681.5" x2="671.5" y1="545.8281" y2="541.8281"/><line style="stroke:#181818;stroke-width:1.0;" x1="681.5" x2="671.5" y1="545.8281" y2="549.8281"/><line style="stroke:#181818;stroke-width:1.0;" x1="509.5" x2="682.5" y1="545.8281" y2="545.8281"/><text fill="#000000" font-family="sans-serif" font-size="13" lengthAdjust="spacing" textLength="135" x="516.5" y="540.7622">request update state</text><line style="stroke:#181818;stroke-width:1.0;" x1="225" x2="267" y1="574.9609" y2="574.9609"/><line style="stroke:#181818;stroke-width:1.0;" x1="267" x2="267" y1="574.9609" y2="587.9609"/><line style="stroke:#181818;stroke-width:1.0;" x1="226" x2="267" y1="587.9609" y2="587.9609"/><polygon fill="#181818" points="236,583.9609,226,587.9609,236,591.9609" style="stroke:#181818;stroke-width:1.0;"/><text fill="#000000" font-family="sans-serif" font-size="13" lengthAdjust="spacing" textLength="134" x="232" y="569.895">wait for the response</text><line style="stroke:#181818;stroke-width:1.0;" x1="374" x2="384" y1="617.0938" y2="613.0938"/><line style="stroke:#181818;stroke-width:1.0;" x1="374" x2="384" y1="617.0938" y2="621.0938"/><line style="stroke:#181818;stroke-width:1.0;" x1="373" x2="682.5" y1="617.0938" y2="617.0938"/><text fill="#000000" font-family="sans-serif" font-size="13" lengthAdjust="spacing" textLength="59" x="390" y="612.0278">response</text><line style="stroke:#181818;stroke-width:1.0;" x1="226" x2="236" y1="646.2266" y2="642.2266"/><line style="stroke:#181818;stroke-width:1.0;" x1="226" x2="236" y1="646.2266" y2="650.2266"/><line style="stroke:#181818;stroke-width:1.0;" x1="225" x2="372" y1="646.2266" y2="646.2266"/><text fill="#000000" font-family="sans-serif" font-size="13" lengthAdjust="spacing" textLength="59" x="242" y="641.1606">response</text><polygon fill="#181818" points="126,656.2266,116,660.2266,126,664.2266" style="stroke:#181818;stroke-width:1.0;"/><line style="stroke:#181818;stroke-width:1.0;" x1="120" x2="214" y1="660.2266" y2="660.2266"/><polygon fill="#181818" points="54.5,685.3594,44.5,689.3594,54.5,693.3594" style="stroke:#181818;stroke-width:1.0;"/><line style="stroke:#181818;stroke-width:1.0;" x1="48.5" x2="104" y1="689.3594" y2="689.3594"/><text fill="#000000" font-family="sans-serif" font-size="13" lengthAdjust="spacing" textLength="23" x="60.5" y="684.2935">exit</text><!--MD5=[3748c820d18f94280050b4fb0531a913]
@startuml seq_run_workload
!include ../../../../doc/plantuml/clean.skin

box "Ankaios Ank"
    actor "user" as user
    participant Main as main
    participant "CliCommands" as cli_commands
    participant "<<task>>\nListen to Ankaios\nServer" as listen_to_server
    participant "<<task>>\nListen to Agent \nManager" as listen_to_manager
end box

box "Ankaios Server"
    participant "Ankaios Server" as server
end box

-> main ++ : run workload

== startup ==

... initialization ...

== command ==

main -> cli_commands ++ : run workload

cli_commands ->> listen_to_manager : request complete state
listen_to_manager ->> server ++ : request complete state

cli_commands -> cli_commands : wait for the response

listen_to_server <<- server - -: complete state
listen_to_server ->> cli_commands : complete state
cli_commands -> cli_commands : add workload

cli_commands ->> listen_to_manager : request update state
listen_to_manager ->> server ++ : request update state

cli_commands -> cli_commands : wait for the response

listen_to_server <<- server - -: response
listen_to_server ->> cli_commands : response
main <- cli_commands - -

destroy cli_commands
destroy listen_to_manager
destroy listen_to_server

user <- main - - : exit

@enduml

@startuml seq_run_workload
skinparam monochrome true
skinparam guillemet true
skinparam style strictuml
hide empty members
hide empty methods

skinparam class {
    BorderColor<<logical entity>> grey
    FontColor<<logical entity>> grey
    StereotypeFontColor<<logical entity>> grey
}

skinparam sequenceBox {
    BorderColor #LightGrey
    BackgroundColor #EEEEEE
    FontColor #777777
}

skinparam BoxPadding 10

skinparam note {
    BackgroundColor #FFFFFF
}

skinparam nodesep 30
skinparam ranksep 30

!pragma teoz true

box "Ankaios Ank"
    actor "user" as user
    participant Main as main
    participant "CliCommands" as cli_commands
    participant "<<task>>\nListen to Ankaios\nServer" as listen_to_server
    participant "<<task>>\nListen to Agent \nManager" as listen_to_manager
end box

box "Ankaios Server"
    participant "Ankaios Server" as server
end box

-> main ++ : run workload

== startup ==

... initialization ...

== command ==

main -> cli_commands ++ : run workload

cli_commands ->> listen_to_manager : request complete state
listen_to_manager ->> server ++ : request complete state

cli_commands -> cli_commands : wait for the response

listen_to_server <<- server - -: complete state
listen_to_server ->> cli_commands : complete state
cli_commands -> cli_commands : add workload

cli_commands ->> listen_to_manager : request update state
listen_to_manager ->> server ++ : request update state

cli_commands -> cli_commands : wait for the response

listen_to_server <<- server - -: response
listen_to_server ->> cli_commands : response
main <- cli_commands - -

destroy cli_commands
destroy listen_to_manager
destroy listen_to_server

user <- main - - : exit

@enduml

PlantUML version 1.2022.7(Mon Aug 22 17:01:30 UTC 2022)
(GPL source distribution)
Java Runtime: OpenJDK Runtime Environment
JVM: OpenJDK 64-Bit Server VM
Default Encoding: ANSI_X3.4-1968
Language: en
Country: US
--></g></svg>