<?xml version="1.0" encoding="us-ascii" standalone="no"?><svg xmlns="http://www.w3.org/2000/svg" xmlns:xlink="http://www.w3.org/1999/xlink" contentStyleType="text/css" height="631px" preserveAspectRatio="none" style="width:807px;height:631px;background:#FFFFFF;" version="1.1" viewBox="0 0 807 631" width="807px" zoomAndPan="magnify"><defs/><g><rect fill="#EEEEEE" height="612.0938" style="stroke:#D3D3D3;stroke-width:0.5;" width="626" x="11" y="6"/><text fill="#777777" font-family="sans-serif" font-size="13" font-weight="bold" lengthAdjust="spacing" textLength="91" x="278.5" y="18.0669">Ankaios Ank</text><rect fill="#EEEEEE" height="612.0938" style="stroke:#D3D3D3;stroke-width:0.5;" width="124" x="665.5" y="6"/><text fill="#777777" font-family="sans-serif" font-size="13" font-weight="bold" lengthAdjust="spacing" textLength="110" x="672.5" y="18.0669">Ankaios Server</text><rect fill="#FFFFFF" height="51.1328" style="stroke:#FFFFFF;stroke-width:1.0;" width="10" x="80.5" y="132.5625"/><line style="stroke:#181818;stroke-width:1.0;" x1="80.5" x2="80.5" y1="132.5625" y2="183.6953"/><line style="stroke:#181818;stroke-width:1.0;" x1="90.5" x2="90.5" y1="132.5625" y2="183.6953"/><line style="stroke:#181818;stroke-width:1.0;" x1="80.5" x2="90.5" y1="132.5625" y2="132.5625"/><rect fill="#FFFFFF" height="390.5938" style="stroke:#FFFFFF;stroke-width:1.0;" width="10" x="80.5" y="224.5"/><line style="stroke:#181818;stroke-width:1.0;" x1="80.5" x2="80.5" y1="224.5" y2="615.0938"/><line style="stroke:#181818;stroke-width:1.0;" x1="90.5" x2="90.5" y1="224.5" y2="615.0938"/><rect fill="#FFFFFF" height="34.1328" style="stroke:#181818;stroke-width:1.0;" width="10" x="85.5" y="571.9609"/><rect fill="#FFFFFF" height="246.0625" style="stroke:#181818;stroke-width:1.0;" width="10" x="185.5" y="288.7656"/><rect fill="#FFFFFF" height="187.7969" style="stroke:#181818;stroke-width:1.0;" width="10" x="364.5" y="317.8984"/><rect fill="#FFFFFF" height="63.2656" style="stroke:#181818;stroke-width:1.0;" width="10" x="369.5" y="413.2969"/><rect fill="#FFFFFF" height="29.1328" style="stroke:#181818;stroke-width:1.0;" width="10" x="543.5" y="347.0313"/><rect fill="#FFFFFF" height="29.1328" style="stroke:#181818;stroke-width:1.0;" width="10" x="543.5" y="447.4297"/><rect fill="#FFFFFF" height="71.2656" style="stroke:#181818;stroke-width:1.0;" width="10" x="722.5" y="376.1641"/><line style="stroke:#181818;stroke-width:0.5;stroke-dasharray:5.0,5.0;" x1="33" x2="33" y1="101.4297" y2="183.6953"/><line style="stroke:#383838;stroke-width:1.0;stroke-dasharray:1.0,4.0;" x1="33" x2="33" y1="183.6953" y2="224.5"/><line style="stroke:#181818;stroke-width:0.5;stroke-dasharray:5.0,5.0;" x1="33" x2="33" y1="224.5" y2="624.0938"/><line style="stroke:#181818;stroke-width:0.5;stroke-dasharray:5.0,5.0;" x1="85.5" x2="85.5" y1="101.4297" y2="183.6953"/><line style="stroke:#383838;stroke-width:1.0;stroke-dasharray:1.0,4.0;" x1="85.5" x2="85.5" y1="183.6953" y2="224.5"/><line style="stroke:#181818;stroke-width:0.5;stroke-dasharray:5.0,5.0;" x1="85.5" x2="85.5" y1="224.5" y2="624.0938"/><line style="stroke:#181818;stroke-width:0.5;stroke-dasharray:5.0,5.0;" x1="190" x2="190" y1="101.4297" y2="183.6953"/><line style="stroke:#383838;stroke-width:1.0;stroke-dasharray:1.0,4.0;" x1="190" x2="190" y1="183.6953" y2="224.5"/><line style="stroke:#181818;stroke-width:0.5;stroke-dasharray:5.0,5.0;" x1="190" x2="190" y1="224.5" y2="624.0938"/><line style="stroke:#181818;stroke-width:0.5;stroke-dasharray:5.0,5.0;" x1="369.5" x2="369.5" y1="101.4297" y2="183.6953"/><line style="stroke:#383838;stroke-width:1.0;stroke-dasharray:1.0,4.0;" x1="369.5" x2="369.5" y1="183.6953" y2="224.5"/><line style="stroke:#181818;stroke-width:0.5;stroke-dasharray:5.0,5.0;" x1="369.5" x2="369.5" y1="224.5" y2="624.0938"/><line style="stroke:#181818;stroke-width:0.5;stroke-dasharray:5.0,5.0;" x1="548" x2="548" y1="101.4297" y2="183.6953"/><line style="stroke:#383838;stroke-width:1.0;stroke-dasharray:1.0,4.0;" x1="548" x2="548" y1="183.6953" y2="224.5"/><line style="stroke:#181818;stroke-width:0.5;stroke-dasharray:5.0,5.0;" x1="548" x2="548" y1="224.5" y2="624.0938"/><line style="stroke:#181818;stroke-width:0.5;stroke-dasharray:5.0,5.0;" x1="727.5" x2="727.5" y1="101.4297" y2="183.6953"/><line style="stroke:#383838;stroke-width:1.0;stroke-dasharray:1.0,4.0;" x1="727.5" x2="727.5" y1="183.6953" y2="224.5"/><line style="stroke:#181818;stroke-width:0.5;stroke-dasharray:5.0,5.0;" x1="727.5" x2="727.5" y1="224.5" y2="624.0938"/><text fill="#000000" font-family="sans-serif" font-size="14" lengthAdjust="spacing" textLength="31" x="15" y="98.1279">user</text><ellipse cx="33.5" cy="33.6328" fill="#E3E3E3" rx="8" ry="8" style="stroke:#181818;stroke-width:0.5;"/><path d="M33.5,41.6328 L33.5,68.6328 M20.5,49.6328 L46.5,49.6328 M33.5,68.6328 L20.5,83.6328 M33.5,68.6328 L46.5,83.6328 " fill="none" style="stroke:#181818;stroke-width:0.5;"/><rect fill="#E3E3E3" height="30.2969" rx="2.5" ry="2.5" style="stroke:#181818;stroke-width:0.5;" width="46" x="62.5" y="70.1328"/><text fill="#000000" font-family="sans-serif" font-size="14" lengthAdjust="spacing" textLength="32" x="69.5" y="90.1279">Main</text><rect fill="#E3E3E3" height="30.2969" rx="2.5" ry="2.5" style="stroke:#181818;stroke-width:0.5;" width="109" x="136" y="70.1328"/><text fill="#000000" font-family="sans-serif" font-size="14" lengthAdjust="spacing" textLength="95" x="143" y="90.1279">CliCommands</text><rect fill="#E3E3E3" height="30.2969" rx="2.5" ry="2.5" style="stroke:#181818;stroke-width:0.5;" width="138" x="300.5" y="70.1328"/><text fill="#000000" font-family="sans-serif" font-size="14" lengthAdjust="spacing" textLength="124" x="307.5" y="90.1279">ServerConnection</text><rect fill="#E3E3E3" height="46.5938" rx="2.5" ry="2.5" style="stroke:#181818;stroke-width:0.5;" width="169" x="464" y="53.8359"/><text fill="#000000" font-family="sans-serif" font-size="14" lengthAdjust="spacing" textLength="47" x="525" y="73.8311">&#171;task&#187;</text><text fill="#000000" font-family="sans-serif" font-size="14" lengthAdjust="spacing" textLength="155" x="471" y="90.1279">CommunicationsClient</text><rect fill="#E3E3E3" height="30.2969" rx="2.5" ry="2.5" style="stroke:#181818;stroke-width:0.5;" width="116" x="669.5" y="70.1328"/><text fill="#000000" font-family="sans-serif" font-size="14" lengthAdjust="spacing" textLength="102" x="676.5" y="90.1279">Ankaios Server</text><rect fill="#FFFFFF" height="51.1328" style="stroke:#FFFFFF;stroke-width:1.0;" width="10" x="80.5" y="132.5625"/><line style="stroke:#181818;stroke-width:1.0;" x1="80.5" x2="80.5" y1="132.5625" y2="183.6953"/><line style="stroke:#181818;stroke-width:1.0;" x1="90.5" x2="90.5" y1="132.5625" y2="183.6953"/><line style="stroke:#181818;stroke-width:1.0;" x1="80.5" x2="90.5" y1="132.5625" y2="132.5625"/><rect fill="#FFFFFF" height="390.5938" style="stroke:#FFFFFF;stroke-width:1.0;" width="10" x="80.5" y="224.5"/><line style="stroke:#181818;stroke-width:1.0;" x1="80.5" x2="80.5" y1="224.5" y2="615.0938"/><line style="stroke:#181818;stroke-width:1.0;" x1="90.5" x2="90.5" y1="224.5" y2="615.0938"/><rect fill="#FFFFFF" height="34.1328" style="stroke:#181818;stroke-width:1.0;" width="10" x="85.5" y="571.9609"/><rect fill="#FFFFFF" height="246.0625" style="stroke:#181818;stroke-width:1.0;" width="10" x="185.5" y="288.7656"/><rect fill="#FFFFFF" height="187.7969" style="stroke:#181818;stroke-width:1.0;" width="10" x="364.5" y="317.8984"/><rect fill="#FFFFFF" height="63.2656" style="stroke:#181818;stroke-width:1.0;" width="10" x="369.5" y="413.2969"/><rect fill="#FFFFFF" height="29.1328" style="stroke:#181818;stroke-width:1.0;" width="10" x="543.5" y="347.0313"/><rect fill="#FFFFFF" height="29.1328" style="stroke:#181818;stroke-width:1.0;" width="10" x="543.5" y="447.4297"/><rect fill="#FFFFFF" height="71.2656" style="stroke:#181818;stroke-width:1.0;" width="10" x="722.5" y="376.1641"/><polygon fill="#181818" points="68.5,128.5625,78.5,132.5625,68.5,136.5625" style="stroke:#181818;stroke-width:1.0;"/><line style="stroke:#181818;stroke-width:1.0;" x1="0" x2="74.5" y1="132.5625" y2="132.5625"/><text fill="#000000" font-family="sans-serif" font-size="13" lengthAdjust="spacing" textLength="58" x="7" y="127.4966">get state</text><rect fill="#EEEEEE" height="3" style="stroke:#EEEEEE;stroke-width:1.0;" width="800.5" x="0" y="161.1289"/><line style="stroke:#000000;stroke-width:1.0;" x1="0" x2="800.5" y1="161.1289" y2="161.1289"/><line style="stroke:#000000;stroke-width:1.0;" x1="0" x2="800.5" y1="164.1289" y2="164.1289"/><rect fill="#EEEEEE" height="23.1328" style="stroke:#000000;stroke-width:2.0;" width="73" x="363.75" y="150.5625"/><text fill="#000000" font-family="sans-serif" font-size="13" font-weight="bold" lengthAdjust="spacing" textLength="54" x="369.75" y="166.6294">startup</text><text fill="#000000" font-family="sans-serif" font-size="11" lengthAdjust="spacing" textLength="66" x="347.5" y="207.9058">initialization</text><rect fill="#EEEEEE" height="3" style="stroke:#EEEEEE;stroke-width:1.0;" width="800.5" x="0" y="245.0664"/><line style="stroke:#000000;stroke-width:1.0;" x1="0" x2="800.5" y1="245.0664" y2="245.0664"/><line style="stroke:#000000;stroke-width:1.0;" x1="0" x2="800.5" y1="248.0664" y2="248.0664"/><rect fill="#EEEEEE" height="23.1328" style="stroke:#000000;stroke-width:2.0;" width="92" x="354.25" y="234.5"/><text fill="#000000" font-family="sans-serif" font-size="13" font-weight="bold" lengthAdjust="spacing" textLength="73" x="360.25" y="250.5669">command</text><polygon fill="#181818" points="173.5,284.7656,183.5,288.7656,173.5,292.7656" style="stroke:#181818;stroke-width:1.0;"/><line style="stroke:#181818;stroke-width:1.0;" x1="90.5" x2="179.5" y1="288.7656" y2="288.7656"/><text fill="#000000" font-family="sans-serif" font-size="13" lengthAdjust="spacing" textLength="58" x="97.5" y="283.6997">get state</text><polygon fill="#181818" points="352.5,313.8984,362.5,317.8984,352.5,321.8984" style="stroke:#181818;stroke-width:1.0;"/><line style="stroke:#181818;stroke-width:1.0;" x1="195.5" x2="358.5" y1="317.8984" y2="317.8984"/><text fill="#000000" font-family="sans-serif" font-size="13" lengthAdjust="spacing" textLength="150" x="202.5" y="312.8325">request complete state</text><line style="stroke:#181818;stroke-width:1.0;" x1="541.5" x2="531.5" y1="347.0313" y2="343.0313"/><line style="stroke:#181818;stroke-width:1.0;" x1="541.5" x2="531.5" y1="347.0313" y2="351.0313"/><line style="stroke:#181818;stroke-width:1.0;" x1="374.5" x2="542.5" y1="347.0313" y2="347.0313"/><text fill="#000000" font-family="sans-serif" font-size="13" lengthAdjust="spacing" textLength="150" x="381.5" y="341.9653">request complete state</text><line style="stroke:#181818;stroke-width:1.0;" x1="720.5" x2="710.5" y1="376.1641" y2="372.1641"/><line style="stroke:#181818;stroke-width:1.0;" x1="720.5" x2="710.5" y1="376.1641" y2="380.1641"/><line style="stroke:#181818;stroke-width:1.0;" x1="548.5" x2="721.5" y1="376.1641" y2="376.1641"/><text fill="#000000" font-family="sans-serif" font-size="13" lengthAdjust="spacing" textLength="150" x="555.5" y="371.0981">request complete state</text><line style="stroke:#181818;stroke-width:1.0;" x1="374.5" x2="421.5" y1="400.2969" y2="400.2969"/><line style="stroke:#181818;stroke-width:1.0;" x1="421.5" x2="421.5" y1="400.2969" y2="413.2969"/><line style="stroke:#181818;stroke-width:1.0;" x1="380.5" x2="421.5" y1="413.2969" y2="413.2969"/><polygon fill="#181818" points="390.5,409.2969,380.5,413.2969,390.5,417.2969" style="stroke:#181818;stroke-width:1.0;"/><text fill="#000000" font-family="sans-serif" font-size="13" lengthAdjust="spacing" textLength="134" x="386.5" y="395.231">wait for the response</text><line style="stroke:#181818;stroke-width:1.0;" x1="554.5" x2="564.5" y1="447.4297" y2="443.4297"/><line style="stroke:#181818;stroke-width:1.0;" x1="554.5" x2="564.5" y1="447.4297" y2="451.4297"/><line style="stroke:#181818;stroke-width:1.0;" x1="553.5" x2="726.5" y1="447.4297" y2="447.4297"/><text fill="#000000" font-family="sans-serif" font-size="13" lengthAdjust="spacing" textLength="97" x="570.5" y="442.3638">complete state</text><line style="stroke:#181818;stroke-width:1.0;" x1="375.5" x2="385.5" y1="476.5625" y2="472.5625"/><line style="stroke:#181818;stroke-width:1.0;" x1="375.5" x2="385.5" y1="476.5625" y2="480.5625"/><line style="stroke:#181818;stroke-width:1.0;" x1="374.5" x2="547.5" y1="476.5625" y2="476.5625"/><text fill="#000000" font-family="sans-serif" font-size="13" lengthAdjust="spacing" textLength="97" x="391.5" y="471.4966">complete state</text><line style="stroke:#181818;stroke-width:1.0;" x1="196.5" x2="206.5" y1="505.6953" y2="501.6953"/><line style="stroke:#181818;stroke-width:1.0;" x1="196.5" x2="206.5" y1="505.6953" y2="509.6953"/><line style="stroke:#181818;stroke-width:1.0;stroke-dasharray:2.0,2.0;" x1="195.5" x2="368.5" y1="505.6953" y2="505.6953"/><text fill="#000000" font-family="sans-serif" font-size="13" lengthAdjust="spacing" textLength="97" x="212.5" y="500.6294">complete state</text><polygon fill="#181818" points="101.5,530.8281,91.5,534.8281,101.5,538.8281" style="stroke:#181818;stroke-width:1.0;"/><line style="stroke:#181818;stroke-width:1.0;" x1="95.5" x2="189.5" y1="534.8281" y2="534.8281"/><text fill="#000000" font-family="sans-serif" font-size="13" lengthAdjust="spacing" textLength="71" x="107.5" y="529.7622">output text</text><line style="stroke:#181818;stroke-width:1.0;" x1="90.5" x2="137.5" y1="558.9609" y2="558.9609"/><line style="stroke:#181818;stroke-width:1.0;" x1="137.5" x2="137.5" y1="558.9609" y2="571.9609"/><line style="stroke:#181818;stroke-width:1.0;" x1="96.5" x2="137.5" y1="571.9609" y2="571.9609"/><polygon fill="#181818" points="106.5,567.9609,96.5,571.9609,106.5,575.9609" style="stroke:#181818;stroke-width:1.0;"/><text fill="#000000" font-family="sans-serif" font-size="13" lengthAdjust="spacing" textLength="58" x="102.5" y="553.895">print text</text><line style="stroke:#181818;stroke-width:1.0;" x1="34.5" x2="44.5" y1="606.0938" y2="602.0938"/><line style="stroke:#181818;stroke-width:1.0;" x1="34.5" x2="44.5" y1="606.0938" y2="610.0938"/><line style="stroke:#181818;stroke-width:1.0;stroke-dasharray:2.0,2.0;" x1="33.5" x2="79.5" y1="606.0938" y2="606.0938"/><text fill="#000000" font-family="sans-serif" font-size="13" lengthAdjust="spacing" textLength="23" x="50.5" y="601.0278">exit</text><!--SRC=[XLDDJyCm3BtdLvXUKRlxj5L2EtFYYeH2Qi1QbvJ4WObVZvCMM4aBLQL4zlFpyqUko9e-TWXDi_d-FGONlS6mwPpP3Bss74_znlIeRHEEP9LwT6UeRknHamiWPwL0FctOUQXYG5-13f0ksJ5epsHe42QurMIJyoHduQmEFHtSwQHj5pA5wUd1J8OIVOV-3Vt1MOk6oTaS4h9HehwiPTnknpeSs_RUfcJHaj4962GxMXuJpnmF9diKsWwazbyD66LKPPvVW1zrFqHrcpi1rzUmXMTa2AmPbThlqyrp762_Lwff6Y1BJBgdZwn9HjPasDIU3CjKGddPje9wvXHmqJ29s8B7ruY14_tG8-CKNOBhjbtkrXyiY_ZCDF93NMVLA-6BAbRgUDV4y2HxoIyeV66GX6i2ThlwKi3s_-9Jn4enTH7UeRmGUjF9K2pfR2f2Mo_Kiy0vZZofc4srbkQvo4DaO3ppPUhPargpVs_Ij9nR63pPYIozwr7YY4h9y4oiFW40]--></g></svg>