<?xml version="1.0" encoding="us-ascii" standalone="no"?><svg xmlns="http://www.w3.org/2000/svg" xmlns:xlink="http://www.w3.org/1999/xlink" contentStyleType="text/css" height="716px" preserveAspectRatio="none" style="width:778px;height:716px;background:#FFFFFF;" version="1.1" viewBox="0 0 778 716" width="778px" zoomAndPan="magnify"><defs/><g><rect fill="#EEEEEE" height="697.3594" style="stroke:#D3D3D3;stroke-width:0.5;" width="573.5" x="11" y="6"/><text fill="#777777" font-family="sans-serif" font-size="13" font-weight="bold" lengthAdjust="spacing" textLength="91" x="252.25" y="18.0669">Ankaios Ank</text><rect fill="#EEEEEE" height="697.3594" style="stroke:#D3D3D3;stroke-width:0.5;" width="124" x="636.5" y="6"/><text fill="#777777" font-family="sans-serif" font-size="13" font-weight="bold" lengthAdjust="spacing" textLength="110" x="643.5" y="18.0669">Ankaios Server</text><rect fill="#FFFFFF" height="51.1328" style="stroke:#FFFFFF;stroke-width:1.0;" width="10" x="100" y="132.5625"/><line style="stroke:#181818;stroke-width:1.0;" x1="100" x2="100" y1="132.5625" y2="183.6953"/><line style="stroke:#181818;stroke-width:1.0;" x1="110" x2="110" y1="132.5625" y2="183.6953"/><line style="stroke:#181818;stroke-width:1.0;" x1="100" x2="110" y1="132.5625" y2="132.5625"/><rect fill="#FFFFFF" height="466.8594" style="stroke:#FFFFFF;stroke-width:1.0;" width="10" x="100" y="224.5"/><line style="stroke:#181818;stroke-width:1.0;" x1="100" x2="100" y1="224.5" y2="691.3594"/><line style="stroke:#181818;stroke-width:1.0;" x1="110" x2="110" y1="224.5" y2="691.3594"/><line style="stroke:#181818;stroke-width:1.0;" x1="100" x2="110" y1="691.3594" y2="691.3594"/><rect fill="#FFFFFF" height="373.4609" style="stroke:#181818;stroke-width:1.0;" width="10" x="210" y="288.7656"/><rect fill="#FFFFFF" height="278.0625" style="stroke:#181818;stroke-width:1.0;" width="10" x="215" y="384.1641"/><rect fill="#FFFFFF" height="214.7969" style="stroke:#181818;stroke-width:1.0;" width="10" x="220" y="447.4297"/><rect fill="#FFFFFF" height="34.1328" style="stroke:#181818;stroke-width:1.0;" width="10" x="225" y="484.5625"/><rect fill="#FFFFFF" height="77.2656" style="stroke:#181818;stroke-width:1.0;" width="10" x="225" y="584.9609"/><rect fill="#FFFFFF" height="14" style="stroke:#181818;stroke-width:1.0;" width="10" x="230" y="648.2266"/><rect fill="#FFFFFF" height="29.1328" style="stroke:#181818;stroke-width:1.0;" width="10" x="378" y="418.2969"/><rect fill="#FFFFFF" height="29.1328" style="stroke:#181818;stroke-width:1.0;" width="10" x="378" y="619.0938"/><rect fill="#FFFFFF" height="29.1328" style="stroke:#181818;stroke-width:1.0;" width="10" x="514.5" y="317.8984"/><rect fill="#FFFFFF" height="29.1328" style="stroke:#181818;stroke-width:1.0;" width="10" x="514.5" y="518.6953"/><rect fill="#FFFFFF" height="71.2656" style="stroke:#181818;stroke-width:1.0;" width="10" x="693.5" y="347.0313"/><rect fill="#FFFFFF" height="71.2656" style="stroke:#181818;stroke-width:1.0;" width="10" x="693.5" y="547.8281"/><line style="stroke:#181818;stroke-width:0.5;stroke-dasharray:5.0,5.0;" x1="33" x2="33" y1="101.4297" y2="183.6953"/><line style="stroke:#383838;stroke-width:1.0;stroke-dasharray:1.0,4.0;" x1="33" x2="33" y1="183.6953" y2="224.5"/><line style="stroke:#181818;stroke-width:0.5;stroke-dasharray:5.0,5.0;" x1="33" x2="33" y1="224.5" y2="709.3594"/><line style="stroke:#181818;stroke-width:0.5;stroke-dasharray:5.0,5.0;" x1="105" x2="105" y1="101.4297" y2="183.6953"/><line style="stroke:#383838;stroke-width:1.0;stroke-dasharray:1.0,4.0;" x1="105" x2="105" y1="183.6953" y2="224.5"/><line style="stroke:#181818;stroke-width:0.5;stroke-dasharray:5.0,5.0;" x1="105" x2="105" y1="224.5" y2="709.3594"/><line style="stroke:#181818;stroke-width:0.5;stroke-dasharray:5.0,5.0;" x1="214.5" x2="214.5" y1="101.4297" y2="183.6953"/><line style="stroke:#383838;stroke-width:1.0;stroke-dasharray:1.0,4.0;" x1="214.5" x2="214.5" y1="183.6953" y2="224.5"/><line style="stroke:#181818;stroke-width:0.5;stroke-dasharray:5.0,5.0;" x1="214.5" x2="214.5" y1="224.5" y2="709.3594"/><line style="stroke:#181818;stroke-width:0.5;stroke-dasharray:5.0,5.0;" x1="382.5" x2="382.5" y1="101.4297" y2="183.6953"/><line style="stroke:#383838;stroke-width:1.0;stroke-dasharray:1.0,4.0;" x1="382.5" x2="382.5" y1="183.6953" y2="224.5"/><line style="stroke:#181818;stroke-width:0.5;stroke-dasharray:5.0,5.0;" x1="382.5" x2="382.5" y1="224.5" y2="709.3594"/><line style="stroke:#181818;stroke-width:0.5;stroke-dasharray:5.0,5.0;" x1="519.5" x2="519.5" y1="101.4297" y2="183.6953"/><line style="stroke:#383838;stroke-width:1.0;stroke-dasharray:1.0,4.0;" x1="519.5" x2="519.5" y1="183.6953" y2="224.5"/><line style="stroke:#181818;stroke-width:0.5;stroke-dasharray:5.0,5.0;" x1="519.5" x2="519.5" y1="224.5" y2="709.3594"/><line style="stroke:#181818;stroke-width:0.5;stroke-dasharray:5.0,5.0;" x1="698.5" x2="698.5" y1="101.4297" y2="183.6953"/><line style="stroke:#383838;stroke-width:1.0;stroke-dasharray:1.0,4.0;" x1="698.5" x2="698.5" y1="183.6953" y2="224.5"/><line style="stroke:#181818;stroke-width:0.5;stroke-dasharray:5.0,5.0;" x1="698.5" x2="698.5" y1="224.5" y2="709.3594"/><text fill="#000000" font-family="sans-serif" font-size="14" lengthAdjust="spacing" textLength="31" x="15" y="98.1279">user</text><ellipse cx="33.5" cy="33.6328" fill="#E3E3E3" rx="8" ry="8" style="stroke:#181818;stroke-width:0.5;"/><path d="M33.5,41.6328 L33.5,68.6328 M20.5,49.6328 L46.5,49.6328 M33.5,68.6328 L20.5,83.6328 M33.5,68.6328 L46.5,83.6328 " fill="none" style="stroke:#181818;stroke-width:0.5;"/><rect fill="#E3E3E3" height="30.2969" rx="2.5" ry="2.5" style="stroke:#181818;stroke-width:0.5;" width="46" x="82" y="70.1328"/><text fill="#000000" font-family="sans-serif" font-size="14" lengthAdjust="spacing" textLength="32" x="89" y="90.1279">Main</text><rect fill="#E3E3E3" height="30.2969" rx="2.5" ry="2.5" style="stroke:#181818;stroke-width:0.5;" width="109" x="160.5" y="70.1328"/><text fill="#000000" font-family="sans-serif" font-size="14" lengthAdjust="spacing" textLength="95" x="167.5" y="90.1279">CliCommands</text><rect fill="#E3E3E3" height="62.8906" rx="2.5" ry="2.5" style="stroke:#181818;stroke-width:0.5;" width="131" x="317.5" y="37.5391"/><text fill="#000000" font-family="sans-serif" font-size="14" lengthAdjust="spacing" textLength="47" x="359.5" y="57.5342">&#171;task&#187;</text><text fill="#000000" font-family="sans-serif" font-size="14" lengthAdjust="spacing" textLength="117" x="324.5" y="73.8311">Listen to Ankaios</text><text fill="#000000" font-family="sans-serif" font-size="14" lengthAdjust="spacing" textLength="44" x="361" y="90.1279">Server</text><rect fill="#E3E3E3" height="62.8906" rx="2.5" ry="2.5" style="stroke:#181818;stroke-width:0.5;" width="122" x="458.5" y="37.5391"/><text fill="#000000" font-family="sans-serif" font-size="14" lengthAdjust="spacing" textLength="47" x="496" y="57.5342">&#171;task&#187;</text><text fill="#000000" font-family="sans-serif" font-size="14" lengthAdjust="spacing" textLength="104" x="465.5" y="73.8311">Listen to Agent</text><text fill="#000000" font-family="sans-serif" font-size="14" lengthAdjust="spacing" textLength="60" x="489.5" y="90.1279">Manager</text><rect fill="#E3E3E3" height="30.2969" rx="2.5" ry="2.5" style="stroke:#181818;stroke-width:0.5;" width="116" x="640.5" y="70.1328"/><text fill="#000000" font-family="sans-serif" font-size="14" lengthAdjust="spacing" textLength="102" x="647.5" y="90.1279">Ankaios Server</text><rect fill="#FFFFFF" height="51.1328" style="stroke:#FFFFFF;stroke-width:1.0;" width="10" x="100" y="132.5625"/><line style="stroke:#181818;stroke-width:1.0;" x1="100" x2="100" y1="132.5625" y2="183.6953"/><line style="stroke:#181818;stroke-width:1.0;" x1="110" x2="110" y1="132.5625" y2="183.6953"/><line style="stroke:#181818;stroke-width:1.0;" x1="100" x2="110" y1="132.5625" y2="132.5625"/><rect fill="#FFFFFF" height="466.8594" style="stroke:#FFFFFF;stroke-width:1.0;" width="10" x="100" y="224.5"/><line style="stroke:#181818;stroke-width:1.0;" x1="100" x2="100" y1="224.5" y2="691.3594"/><line style="stroke:#181818;stroke-width:1.0;" x1="110" x2="110" y1="224.5" y2="691.3594"/><line style="stroke:#181818;stroke-width:1.0;" x1="100" x2="110" y1="691.3594" y2="691.3594"/><rect fill="#FFFFFF" height="373.4609" style="stroke:#181818;stroke-width:1.0;" width="10" x="210" y="288.7656"/><rect fill="#FFFFFF" height="278.0625" style="stroke:#181818;stroke-width:1.0;" width="10" x="215" y="384.1641"/><rect fill="#FFFFFF" height="214.7969" style="stroke:#181818;stroke-width:1.0;" width="10" x="220" y="447.4297"/><rect fill="#FFFFFF" height="34.1328" style="stroke:#181818;stroke-width:1.0;" width="10" x="225" y="484.5625"/><rect fill="#FFFFFF" height="77.2656" style="stroke:#181818;stroke-width:1.0;" width="10" x="225" y="584.9609"/><rect fill="#FFFFFF" height="14" style="stroke:#181818;stroke-width:1.0;" width="10" x="230" y="648.2266"/><rect fill="#FFFFFF" height="29.1328" style="stroke:#181818;stroke-width:1.0;" width="10" x="378" y="418.2969"/><rect fill="#FFFFFF" height="29.1328" style="stroke:#181818;stroke-width:1.0;" width="10" x="378" y="619.0938"/><rect fill="#FFFFFF" height="29.1328" style="stroke:#181818;stroke-width:1.0;" width="10" x="514.5" y="317.8984"/><rect fill="#FFFFFF" height="29.1328" style="stroke:#181818;stroke-width:1.0;" width="10" x="514.5" y="518.6953"/><rect fill="#FFFFFF" height="71.2656" style="stroke:#181818;stroke-width:1.0;" width="10" x="693.5" y="347.0313"/><rect fill="#FFFFFF" height="71.2656" style="stroke:#181818;stroke-width:1.0;" width="10" x="693.5" y="547.8281"/><polygon fill="#181818" points="88,128.5625,98,132.5625,88,136.5625" style="stroke:#181818;stroke-width:1.0;"/><line style="stroke:#181818;stroke-width:1.0;" x1="0" x2="94" y1="132.5625" y2="132.5625"/><text fill="#000000" font-family="sans-serif" font-size="13" lengthAdjust="spacing" textLength="81" x="7" y="127.4966">run workload</text><rect fill="#EEEEEE" height="3" style="stroke:#EEEEEE;stroke-width:1.0;" width="771.5" x="0" y="161.1289"/><line style="stroke:#000000;stroke-width:1.0;" x1="0" x2="771.5" y1="161.1289" y2="161.1289"/><line style="stroke:#000000;stroke-width:1.0;" x1="0" x2="771.5" y1="164.1289" y2="164.1289"/><rect fill="#EEEEEE" height="23.1328" style="stroke:#000000;stroke-width:2.0;" width="73" x="349.25" y="150.5625"/><text fill="#000000" font-family="sans-serif" font-size="13" font-weight="bold" lengthAdjust="spacing" textLength="54" x="355.25" y="166.6294">startup</text><text fill="#000000" font-family="sans-serif" font-size="11" lengthAdjust="spacing" textLength="66" x="333" y="207.9058">initialization</text><rect fill="#EEEEEE" height="3" style="stroke:#EEEEEE;stroke-width:1.0;" width="771.5" x="0" y="245.0664"/><line style="stroke:#000000;stroke-width:1.0;" x1="0" x2="771.5" y1="245.0664" y2="245.0664"/><line style="stroke:#000000;stroke-width:1.0;" x1="0" x2="771.5" y1="248.0664" y2="248.0664"/><rect fill="#EEEEEE" height="23.1328" style="stroke:#000000;stroke-width:2.0;" width="92" x="339.75" y="234.5"/><text fill="#000000" font-family="sans-serif" font-size="13" font-weight="bold" lengthAdjust="spacing" textLength="73" x="345.75" y="250.5669">command</text><polygon fill="#181818" points="198,284.7656,208,288.7656,198,292.7656" style="stroke:#181818;stroke-width:1.0;"/><line style="stroke:#181818;stroke-width:1.0;" x1="110" x2="204" y1="288.7656" y2="288.7656"/><text fill="#000000" font-family="sans-serif" font-size="13" lengthAdjust="spacing" textLength="81" x="117" y="283.6997">run workload</text><line style="stroke:#181818;stroke-width:1.0;" x1="512.5" x2="502.5" y1="317.8984" y2="313.8984"/><line style="stroke:#181818;stroke-width:1.0;" x1="512.5" x2="502.5" y1="317.8984" y2="321.8984"/><line style="stroke:#181818;stroke-width:1.0;" x1="220" x2="513.5" y1="317.8984" y2="317.8984"/><text fill="#000000" font-family="sans-serif" font-size="13" lengthAdjust="spacing" textLength="150" x="227" y="312.8325">request complete state</text><line style="stroke:#181818;stroke-width:1.0;" x1="691.5" x2="681.5" y1="347.0313" y2="343.0313"/><line style="stroke:#181818;stroke-width:1.0;" x1="691.5" x2="681.5" y1="347.0313" y2="351.0313"/><line style="stroke:#181818;stroke-width:1.0;" x1="519.5" x2="692.5" y1="347.0313" y2="347.0313"/><text fill="#000000" font-family="sans-serif" font-size="13" lengthAdjust="spacing" textLength="150" x="526.5" y="341.9653">request complete state</text><line style="stroke:#181818;stroke-width:1.0;" x1="220" x2="267" y1="371.1641" y2="371.1641"/><line style="stroke:#181818;stroke-width:1.0;" x1="267" x2="267" y1="371.1641" y2="384.1641"/><line style="stroke:#181818;stroke-width:1.0;" x1="226" x2="267" y1="384.1641" y2="384.1641"/><polygon fill="#181818" points="236,380.1641,226,384.1641,236,388.1641" style="stroke:#181818;stroke-width:1.0;"/><text fill="#000000" font-family="sans-serif" font-size="13" lengthAdjust="spacing" textLength="134" x="232" y="366.0981">wait for the response</text><line style="stroke:#181818;stroke-width:1.0;" x1="389" x2="399" y1="418.2969" y2="414.2969"/><line style="stroke:#181818;stroke-width:1.0;" x1="389" x2="399" y1="418.2969" y2="422.2969"/><line style="stroke:#181818;stroke-width:1.0;" x1="388" x2="697.5" y1="418.2969" y2="418.2969"/><text fill="#000000" font-family="sans-serif" font-size="13" lengthAdjust="spacing" textLength="97" x="405" y="413.231">complete state</text><line style="stroke:#181818;stroke-width:1.0;" x1="231" x2="241" y1="447.4297" y2="443.4297"/><line style="stroke:#181818;stroke-width:1.0;" x1="231" x2="241" y1="447.4297" y2="451.4297"/><line style="stroke:#181818;stroke-width:1.0;" x1="230" x2="382" y1="447.4297" y2="447.4297"/><text fill="#000000" font-family="sans-serif" font-size="13" lengthAdjust="spacing" textLength="97" x="247" y="442.3638">complete state</text><line style="stroke:#181818;stroke-width:1.0;" x1="230" x2="277" y1="471.5625" y2="471.5625"/><line style="stroke:#181818;stroke-width:1.0;" x1="277" x2="277" y1="471.5625" y2="484.5625"/><line style="stroke:#181818;stroke-width:1.0;" x1="236" x2="277" y1="484.5625" y2="484.5625"/><polygon fill="#181818" points="246,480.5625,236,484.5625,246,488.5625" style="stroke:#181818;stroke-width:1.0;"/><text fill="#000000" font-family="sans-serif" font-size="13" lengthAdjust="spacing" textLength="84" x="242" y="466.4966">add workload</text><line style="stroke:#181818;stroke-width:1.0;" x1="512.5" x2="502.5" y1="518.6953" y2="514.6953"/><line style="stroke:#181818;stroke-width:1.0;" x1="512.5" x2="502.5" y1="518.6953" y2="522.6953"/><line style="stroke:#181818;stroke-width:1.0;" x1="230" x2="513.5" y1="518.6953" y2="518.6953"/><text fill="#000000" font-family="sans-serif" font-size="13" lengthAdjust="spacing" textLength="135" x="237" y="513.6294">request update state</text><line style="stroke:#181818;stroke-width:1.0;" x1="691.5" x2="681.5" y1="547.8281" y2="543.8281"/><line style="stroke:#181818;stroke-width:1.0;" x1="691.5" x2="681.5" y1="547.8281" y2="551.8281"/><line style="stroke:#181818;stroke-width:1.0;" x1="519.5" x2="692.5" y1="547.8281" y2="547.8281"/><text fill="#000000" font-family="sans-serif" font-size="13" lengthAdjust="spacing" textLength="135" x="526.5" y="542.7622">request update state</text><line style="stroke:#181818;stroke-width:1.0;" x1="230" x2="277" y1="571.9609" y2="571.9609"/><line style="stroke:#181818;stroke-width:1.0;" x1="277" x2="277" y1="571.9609" y2="584.9609"/><line style="stroke:#181818;stroke-width:1.0;" x1="236" x2="277" y1="584.9609" y2="584.9609"/><polygon fill="#181818" points="246,580.9609,236,584.9609,246,588.9609" style="stroke:#181818;stroke-width:1.0;"/><text fill="#000000" font-family="sans-serif" font-size="13" lengthAdjust="spacing" textLength="134" x="242" y="566.895">wait for the response</text><line style="stroke:#181818;stroke-width:1.0;" x1="389" x2="399" y1="619.0938" y2="615.0938"/><line style="stroke:#181818;stroke-width:1.0;" x1="389" x2="399" y1="619.0938" y2="623.0938"/><line style="stroke:#181818;stroke-width:1.0;" x1="388" x2="697.5" y1="619.0938" y2="619.0938"/><text fill="#000000" font-family="sans-serif" font-size="13" lengthAdjust="spacing" textLength="59" x="405" y="614.0278">response</text><line style="stroke:#181818;stroke-width:1.0;" x1="241" x2="251" y1="648.2266" y2="644.2266"/><line style="stroke:#181818;stroke-width:1.0;" x1="241" x2="251" y1="648.2266" y2="652.2266"/><line style="stroke:#181818;stroke-width:1.0;" x1="240" x2="382" y1="648.2266" y2="648.2266"/><text fill="#000000" font-family="sans-serif" font-size="13" lengthAdjust="spacing" textLength="59" x="257" y="643.1606">response</text><line style="stroke:#181818;stroke-width:1.0;" x1="111" x2="121" y1="662.2266" y2="658.2266"/><line style="stroke:#181818;stroke-width:1.0;" x1="111" x2="121" y1="662.2266" y2="666.2266"/><line style="stroke:#181818;stroke-width:1.0;stroke-dasharray:2.0,2.0;" x1="110" x2="214" y1="662.2266" y2="662.2266"/><line style="stroke:#383838;stroke-width:2.0;" x1="206" x2="224" y1="653.2266" y2="671.2266"/><line style="stroke:#383838;stroke-width:2.0;" x1="206" x2="224" y1="671.2266" y2="653.2266"/><line style="stroke:#383838;stroke-width:2.0;" x1="510.5" x2="528.5" y1="653.2266" y2="671.2266"/><line style="stroke:#383838;stroke-width:2.0;" x1="510.5" x2="528.5" y1="671.2266" y2="653.2266"/><line style="stroke:#383838;stroke-width:2.0;" x1="374" x2="392" y1="653.2266" y2="671.2266"/><line style="stroke:#383838;stroke-width:2.0;" x1="374" x2="392" y1="671.2266" y2="653.2266"/><polygon fill="#181818" points="44.5,687.3594,34.5,691.3594,44.5,695.3594" style="stroke:#181818;stroke-width:1.0;"/><line style="stroke:#181818;stroke-width:1.0;" x1="38.5" x2="104" y1="691.3594" y2="691.3594"/><text fill="#000000" font-family="sans-serif" font-size="13" lengthAdjust="spacing" textLength="23" x="50.5" y="686.2935">exit</text><line style="stroke:#383838;stroke-width:2.0;" x1="96" x2="114" y1="682.3594" y2="700.3594"/><line style="stroke:#383838;stroke-width:2.0;" x1="96" x2="114" y1="700.3594" y2="682.3594"/><!--SRC=[jLHDRwGm3BtdLtYvLZ3tqGpIgjVjgTUHHYvnkzO4XoQXNx- -9b3KWLbjkz8Y993z_9xp4kS7I-DwIr1Lc_aD57qV6eeRwvjDvr1ItxfDumYbYYSMO-xy2nG_vOJi8-YtCA0FDia7AFf8eG2CCFpaH8SXSSETCi4DiWp9Lh-hP77j-DgtBOgDcQ9nV6ocm1gzsoMCfxe-o2-EYGIIXwchWznIU9eQSJbxJFuOS_2BJ0-agOFSeE33YgaTeuR4Wjgny6GINmij00FdrDDCLDRP7BYwWYs4Nk3PXvFpQ8tPxo4cfUixsE-DgQeAM3WnEdx3n5vq8wiCcqpBiCoch9_DlCH-bY_hUhrQhT8YUkmffa6YSvHeQ2cHMOC7Yd5nK9QZtkNIfVAoqoqy8oUurzELVfEonCvBrBhbni9kLtwMtFwvoGzKlL2xMFRN_j3QxnavodpuqNSM_yd8iyB_QEEC_Qg1Sq4-VCfNBb76abuO_3JqVpRcturh8gRWNvVeCRYUs7Lcca0pN5YWIny7fbIVwONJN92lh7S0]--></g></svg>