<?xml version="1.0" encoding="us-ascii" standalone="no"?><svg xmlns="http://www.w3.org/2000/svg" xmlns:xlink="http://www.w3.org/1999/xlink" contentStyleType="text/css" height="515px" preserveAspectRatio="none" style="width:711px;height:515px;background:#FFFFFF;" version="1.1" viewBox="0 0 711 515" width="711px" zoomAndPan="magnify"><defs/><g><rect fill="#EEEEEE" height="496.5625" style="stroke:#D3D3D3;stroke-width:0.5;" width="521.5" x="11" y="6"/><text fill="#777777" font-family="sans-serif" font-size="13" font-weight="bold" lengthAdjust="spacing" textLength="91" x="226.25" y="18.0669">Ankaios Ank</text><rect fill="#EEEEEE" height="496.5625" style="stroke:#D3D3D3;stroke-width:0.5;" width="124" x="569.5" y="6"/><text fill="#777777" font-family="sans-serif" font-size="13" font-weight="bold" lengthAdjust="spacing" textLength="110" x="576.5" y="18.0669">Ankaios Server</text><rect fill="#FFFFFF" height="51.1328" style="stroke:#FFFFFF;stroke-width:1.0;" width="10" x="80.5" y="132.5625"/><line style="stroke:#181818;stroke-width:1.0;" x1="80.5" x2="80.5" y1="132.5625" y2="183.6953"/><line style="stroke:#181818;stroke-width:1.0;" x1="90.5" x2="90.5" y1="132.5625" y2="183.6953"/><line style="stroke:#181818;stroke-width:1.0;" x1="80.5" x2="90.5" y1="132.5625" y2="132.5625"/><rect fill="#FFFFFF" height="266.0625" style="stroke:#FFFFFF;stroke-width:1.0;" width="10" x="80.5" y="224.5"/><line style="stroke:#181818;stroke-width:1.0;" x1="80.5" x2="80.5" y1="224.5" y2="490.5625"/><line style="stroke:#181818;stroke-width:1.0;" x1="90.5" x2="90.5" y1="224.5" y2="490.5625"/><line style="stroke:#181818;stroke-width:1.0;" x1="80.5" x2="90.5" y1="490.5625" y2="490.5625"/><rect fill="#FFFFFF" height="172.6641" style="stroke:#181818;stroke-width:1.0;" width="10" x="168" y="288.7656"/><rect fill="#FFFFFF" height="77.2656" style="stroke:#181818;stroke-width:1.0;" width="10" x="173" y="384.1641"/><rect fill="#FFFFFF" height="14" style="stroke:#181818;stroke-width:1.0;" width="10" x="178" y="447.4297"/><rect fill="#FFFFFF" height="29.1328" style="stroke:#181818;stroke-width:1.0;" width="10" x="326" y="418.2969"/><rect fill="#FFFFFF" height="29.1328" style="stroke:#181818;stroke-width:1.0;" width="10" x="462.5" y="317.8984"/><rect fill="#FFFFFF" height="71.2656" style="stroke:#181818;stroke-width:1.0;" width="10" x="626.5" y="347.0313"/><line style="stroke:#181818;stroke-width:0.5;stroke-dasharray:5.0,5.0;" x1="33" x2="33" y1="101.4297" y2="183.6953"/><line style="stroke:#383838;stroke-width:1.0;stroke-dasharray:1.0,4.0;" x1="33" x2="33" y1="183.6953" y2="224.5"/><line style="stroke:#181818;stroke-width:0.5;stroke-dasharray:5.0,5.0;" x1="33" x2="33" y1="224.5" y2="508.5625"/><line style="stroke:#181818;stroke-width:0.5;stroke-dasharray:5.0,5.0;" x1="85.5" x2="85.5" y1="101.4297" y2="183.6953"/><line style="stroke:#383838;stroke-width:1.0;stroke-dasharray:1.0,4.0;" x1="85.5" x2="85.5" y1="183.6953" y2="224.5"/><line style="stroke:#181818;stroke-width:0.5;stroke-dasharray:5.0,5.0;" x1="85.5" x2="85.5" y1="224.5" y2="508.5625"/><line style="stroke:#181818;stroke-width:0.5;stroke-dasharray:5.0,5.0;" x1="172.5" x2="172.5" y1="101.4297" y2="183.6953"/><line style="stroke:#383838;stroke-width:1.0;stroke-dasharray:1.0,4.0;" x1="172.5" x2="172.5" y1="183.6953" y2="224.5"/><line style="stroke:#181818;stroke-width:0.5;stroke-dasharray:5.0,5.0;" x1="172.5" x2="172.5" y1="224.5" y2="508.5625"/><line style="stroke:#181818;stroke-width:0.5;stroke-dasharray:5.0,5.0;" x1="330.5" x2="330.5" y1="101.4297" y2="183.6953"/><line style="stroke:#383838;stroke-width:1.0;stroke-dasharray:1.0,4.0;" x1="330.5" x2="330.5" y1="183.6953" y2="224.5"/><line style="stroke:#181818;stroke-width:0.5;stroke-dasharray:5.0,5.0;" x1="330.5" x2="330.5" y1="224.5" y2="508.5625"/><line style="stroke:#181818;stroke-width:0.5;stroke-dasharray:5.0,5.0;" x1="467.5" x2="467.5" y1="101.4297" y2="183.6953"/><line style="stroke:#383838;stroke-width:1.0;stroke-dasharray:1.0,4.0;" x1="467.5" x2="467.5" y1="183.6953" y2="224.5"/><line style="stroke:#181818;stroke-width:0.5;stroke-dasharray:5.0,5.0;" x1="467.5" x2="467.5" y1="224.5" y2="508.5625"/><line style="stroke:#181818;stroke-width:0.5;stroke-dasharray:5.0,5.0;" x1="631.5" x2="631.5" y1="101.4297" y2="183.6953"/><line style="stroke:#383838;stroke-width:1.0;stroke-dasharray:1.0,4.0;" x1="631.5" x2="631.5" y1="183.6953" y2="224.5"/><line style="stroke:#181818;stroke-width:0.5;stroke-dasharray:5.0,5.0;" x1="631.5" x2="631.5" y1="224.5" y2="508.5625"/><text fill="#000000" font-family="sans-serif" font-size="14" lengthAdjust="spacing" textLength="31" x="15" y="98.1279">user</text><ellipse cx="33.5" cy="33.6328" fill="#E3E3E3" rx="8" ry="8" style="stroke:#181818;stroke-width:0.5;"/><path d="M33.5,41.6328 L33.5,68.6328 M20.5,49.6328 L46.5,49.6328 M33.5,68.6328 L20.5,83.6328 M33.5,68.6328 L46.5,83.6328 " fill="none" style="stroke:#181818;stroke-width:0.5;"/><rect fill="#E3E3E3" height="30.2969" rx="2.5" ry="2.5" style="stroke:#181818;stroke-width:0.5;" width="46" x="62.5" y="70.1328"/><text fill="#000000" font-family="sans-serif" font-size="14" lengthAdjust="spacing" textLength="32" x="69.5" y="90.1279">Main</text><rect fill="#E3E3E3" height="30.2969" rx="2.5" ry="2.5" style="stroke:#181818;stroke-width:0.5;" width="109" x="118.5" y="70.1328"/><text fill="#000000" font-family="sans-serif" font-size="14" lengthAdjust="spacing" textLength="95" x="125.5" y="90.1279">CliCommands</text><rect fill="#E3E3E3" height="62.8906" rx="2.5" ry="2.5" style="stroke:#181818;stroke-width:0.5;" width="131" x="265.5" y="37.5391"/><text fill="#000000" font-family="sans-serif" font-size="14" lengthAdjust="spacing" textLength="47" x="307.5" y="57.5342">&#171;task&#187;</text><text fill="#000000" font-family="sans-serif" font-size="14" lengthAdjust="spacing" textLength="117" x="272.5" y="73.8311">Listen to Ankaios</text><text fill="#000000" font-family="sans-serif" font-size="14" lengthAdjust="spacing" textLength="44" x="309" y="90.1279">Server</text><rect fill="#E3E3E3" height="62.8906" rx="2.5" ry="2.5" style="stroke:#181818;stroke-width:0.5;" width="122" x="406.5" y="37.5391"/><text fill="#000000" font-family="sans-serif" font-size="14" lengthAdjust="spacing" textLength="47" x="444" y="57.5342">&#171;task&#187;</text><text fill="#000000" font-family="sans-serif" font-size="14" lengthAdjust="spacing" textLength="104" x="413.5" y="73.8311">Listen to Agent</text><text fill="#000000" font-family="sans-serif" font-size="14" lengthAdjust="spacing" textLength="60" x="437.5" y="90.1279">Manager</text><rect fill="#E3E3E3" height="30.2969" rx="2.5" ry="2.5" style="stroke:#181818;stroke-width:0.5;" width="116" x="573.5" y="70.1328"/><text fill="#000000" font-family="sans-serif" font-size="14" lengthAdjust="spacing" textLength="102" x="580.5" y="90.1279">Ankaios Server</text><rect fill="#FFFFFF" height="51.1328" style="stroke:#FFFFFF;stroke-width:1.0;" width="10" x="80.5" y="132.5625"/><line style="stroke:#181818;stroke-width:1.0;" x1="80.5" x2="80.5" y1="132.5625" y2="183.6953"/><line style="stroke:#181818;stroke-width:1.0;" x1="90.5" x2="90.5" y1="132.5625" y2="183.6953"/><line style="stroke:#181818;stroke-width:1.0;" x1="80.5" x2="90.5" y1="132.5625" y2="132.5625"/><rect fill="#FFFFFF" height="266.0625" style="stroke:#FFFFFF;stroke-width:1.0;" width="10" x="80.5" y="224.5"/><line style="stroke:#181818;stroke-width:1.0;" x1="80.5" x2="80.5" y1="224.5" y2="490.5625"/><line style="stroke:#181818;stroke-width:1.0;" x1="90.5" x2="90.5" y1="224.5" y2="490.5625"/><line style="stroke:#181818;stroke-width:1.0;" x1="80.5" x2="90.5" y1="490.5625" y2="490.5625"/><rect fill="#FFFFFF" height="172.6641" style="stroke:#181818;stroke-width:1.0;" width="10" x="168" y="288.7656"/><rect fill="#FFFFFF" height="77.2656" style="stroke:#181818;stroke-width:1.0;" width="10" x="173" y="384.1641"/><rect fill="#FFFFFF" height="14" style="stroke:#181818;stroke-width:1.0;" width="10" x="178" y="447.4297"/><rect fill="#FFFFFF" height="29.1328" style="stroke:#181818;stroke-width:1.0;" width="10" x="326" y="418.2969"/><rect fill="#FFFFFF" height="29.1328" style="stroke:#181818;stroke-width:1.0;" width="10" x="462.5" y="317.8984"/><rect fill="#FFFFFF" height="71.2656" style="stroke:#181818;stroke-width:1.0;" width="10" x="626.5" y="347.0313"/><polygon fill="#181818" points="68.5,128.5625,78.5,132.5625,68.5,136.5625" style="stroke:#181818;stroke-width:1.0;"/><line style="stroke:#181818;stroke-width:1.0;" x1="0" x2="74.5" y1="132.5625" y2="132.5625"/><text fill="#000000" font-family="sans-serif" font-size="13" lengthAdjust="spacing" textLength="57" x="7" y="127.4966">set state</text><rect fill="#EEEEEE" height="3" style="stroke:#EEEEEE;stroke-width:1.0;" width="704.5" x="0" y="161.1289"/><line style="stroke:#000000;stroke-width:1.0;" x1="0" x2="704.5" y1="161.1289" y2="161.1289"/><line style="stroke:#000000;stroke-width:1.0;" x1="0" x2="704.5" y1="164.1289" y2="164.1289"/><rect fill="#EEEEEE" height="23.1328" style="stroke:#000000;stroke-width:2.0;" width="73" x="315.75" y="150.5625"/><text fill="#000000" font-family="sans-serif" font-size="13" font-weight="bold" lengthAdjust="spacing" textLength="54" x="321.75" y="166.6294">startup</text><text fill="#000000" font-family="sans-serif" font-size="11" lengthAdjust="spacing" textLength="66" x="299.5" y="207.9058">initialization</text><rect fill="#EEEEEE" height="3" style="stroke:#EEEEEE;stroke-width:1.0;" width="704.5" x="0" y="245.0664"/><line style="stroke:#000000;stroke-width:1.0;" x1="0" x2="704.5" y1="245.0664" y2="245.0664"/><line style="stroke:#000000;stroke-width:1.0;" x1="0" x2="704.5" y1="248.0664" y2="248.0664"/><rect fill="#EEEEEE" height="23.1328" style="stroke:#000000;stroke-width:2.0;" width="92" x="306.25" y="234.5"/><text fill="#000000" font-family="sans-serif" font-size="13" font-weight="bold" lengthAdjust="spacing" textLength="73" x="312.25" y="250.5669">command</text><polygon fill="#181818" points="156,284.7656,166,288.7656,156,292.7656" style="stroke:#181818;stroke-width:1.0;"/><line style="stroke:#181818;stroke-width:1.0;" x1="90.5" x2="162" y1="288.7656" y2="288.7656"/><text fill="#000000" font-family="sans-serif" font-size="13" lengthAdjust="spacing" textLength="57" x="97.5" y="283.6997">set state</text><line style="stroke:#181818;stroke-width:1.0;" x1="460.5" x2="450.5" y1="317.8984" y2="313.8984"/><line style="stroke:#181818;stroke-width:1.0;" x1="460.5" x2="450.5" y1="317.8984" y2="321.8984"/><line style="stroke:#181818;stroke-width:1.0;" x1="178" x2="461.5" y1="317.8984" y2="317.8984"/><text fill="#000000" font-family="sans-serif" font-size="13" lengthAdjust="spacing" textLength="135" x="185" y="312.8325">request update state</text><line style="stroke:#181818;stroke-width:1.0;" x1="624.5" x2="614.5" y1="347.0313" y2="343.0313"/><line style="stroke:#181818;stroke-width:1.0;" x1="624.5" x2="614.5" y1="347.0313" y2="351.0313"/><line style="stroke:#181818;stroke-width:1.0;" x1="467.5" x2="625.5" y1="347.0313" y2="347.0313"/><text fill="#000000" font-family="sans-serif" font-size="13" lengthAdjust="spacing" textLength="135" x="474.5" y="341.9653">request update state</text><line style="stroke:#181818;stroke-width:1.0;" x1="178" x2="225" y1="371.1641" y2="371.1641"/><line style="stroke:#181818;stroke-width:1.0;" x1="225" x2="225" y1="371.1641" y2="384.1641"/><line style="stroke:#181818;stroke-width:1.0;" x1="184" x2="225" y1="384.1641" y2="384.1641"/><polygon fill="#181818" points="194,380.1641,184,384.1641,194,388.1641" style="stroke:#181818;stroke-width:1.0;"/><text fill="#000000" font-family="sans-serif" font-size="13" lengthAdjust="spacing" textLength="134" x="190" y="366.0981">wait for the response</text><line style="stroke:#181818;stroke-width:1.0;" x1="337" x2="347" y1="418.2969" y2="414.2969"/><line style="stroke:#181818;stroke-width:1.0;" x1="337" x2="347" y1="418.2969" y2="422.2969"/><line style="stroke:#181818;stroke-width:1.0;" x1="336" x2="630.5" y1="418.2969" y2="418.2969"/><text fill="#000000" font-family="sans-serif" font-size="13" lengthAdjust="spacing" textLength="59" x="353" y="413.231">response</text><line style="stroke:#181818;stroke-width:1.0;" x1="189" x2="199" y1="447.4297" y2="443.4297"/><line style="stroke:#181818;stroke-width:1.0;" x1="189" x2="199" y1="447.4297" y2="451.4297"/><line style="stroke:#181818;stroke-width:1.0;" x1="188" x2="330" y1="447.4297" y2="447.4297"/><text fill="#000000" font-family="sans-serif" font-size="13" lengthAdjust="spacing" textLength="59" x="205" y="442.3638">response</text><line style="stroke:#181818;stroke-width:1.0;" x1="91.5" x2="101.5" y1="461.4297" y2="457.4297"/><line style="stroke:#181818;stroke-width:1.0;" x1="91.5" x2="101.5" y1="461.4297" y2="465.4297"/><line style="stroke:#181818;stroke-width:1.0;stroke-dasharray:2.0,2.0;" x1="90.5" x2="172" y1="461.4297" y2="461.4297"/><line style="stroke:#383838;stroke-width:2.0;" x1="164" x2="182" y1="452.4297" y2="470.4297"/><line style="stroke:#383838;stroke-width:2.0;" x1="164" x2="182" y1="470.4297" y2="452.4297"/><line style="stroke:#383838;stroke-width:2.0;" x1="458.5" x2="476.5" y1="452.4297" y2="470.4297"/><line style="stroke:#383838;stroke-width:2.0;" x1="458.5" x2="476.5" y1="470.4297" y2="452.4297"/><line style="stroke:#383838;stroke-width:2.0;" x1="322" x2="340" y1="452.4297" y2="470.4297"/><line style="stroke:#383838;stroke-width:2.0;" x1="322" x2="340" y1="470.4297" y2="452.4297"/><polygon fill="#181818" points="44.5,486.5625,34.5,490.5625,44.5,494.5625" style="stroke:#181818;stroke-width:1.0;"/><line style="stroke:#181818;stroke-width:1.0;" x1="38.5" x2="84.5" y1="490.5625" y2="490.5625"/><text fill="#000000" font-family="sans-serif" font-size="13" lengthAdjust="spacing" textLength="23" x="50.5" y="485.4966">exit</text><line style="stroke:#383838;stroke-width:2.0;" x1="76.5" x2="94.5" y1="481.5625" y2="499.5625"/><line style="stroke:#383838;stroke-width:2.0;" x1="76.5" x2="94.5" y1="499.5625" y2="481.5625"/><!--SRC=[ZLCzRuCm4DtzAwwi4R0ZGAgoDbFNI94BRdgAiQbzf6b_VSyEJGFkK8HawzwxTvz-GDFfgLTG5ENjTyhRoNNAbxtjob5BGzEWoquhQGf_GYF4Yxr0zcXE4gq7FZC1_CcEh8Diyifb83s4ImH6wGWx75a9TX9D00S-4p3RQjpQOP2czr6YqtZePaFAhckI_jIsU_E4dfG1iZ1djJVFoftdH7H43sGFFXh_gNHK3EtDJXfvJ9I6grKeqmEtOzMJENWQQ4K8cdDEDw6yZSs1pGOg1WayIL92D4suEPf6Q1eXYg80D4WeDNv9GcjuYaMapHsBj2Z5alUTN4iliBnjqpBPemAdtYVb2QQnPw_PDwK6WMjDaESnqf-EwwZh32lua4ZmoYj5Ruer_6YDPx_rDA6ky_k0rIyteORSbd6N3h5Rh9UlMQ9NlDvu3lalbf81Jyv-Bgq_ndHVKcIUlmZF1RYKwyHoxfkw8DqSueFv1W00]--></g></svg>