<?xml version="1.0" encoding="us-ascii" standalone="no"?><svg xmlns="http://www.w3.org/2000/svg" xmlns:xlink="http://www.w3.org/1999/xlink" contentStyleType="text/css" height="1501px" preserveAspectRatio="none" style="width:1113px;height:1501px;background:#FFFFFF;" version="1.1" viewBox="0 0 1113 1501" width="1113px" zoomAndPan="magnify"><defs/><g><rect fill="#EEEEEE" height="1482.5625" style="stroke:#D3D3D3;stroke-width:0.5;" width="847" x="36" y="6"/><text fill="#777777" font-family="sans-serif" font-size="13" font-weight="bold" lengthAdjust="spacing" textLength="91" x="414" y="18.0669">Ankaios Ank</text><rect fill="#EEEEEE" height="1482.5625" style="stroke:#D3D3D3;stroke-width:0.5;" width="124" x="966.5" y="6"/><text fill="#777777" font-family="sans-serif" font-size="13" font-weight="bold" lengthAdjust="spacing" textLength="110" x="973.5" y="18.0669">Ankaios Server</text><rect fill="#FFFFFF" height="51.1328" style="stroke:#FFFFFF;stroke-width:1.0;" width="10" x="105.5" y="132.5625"/><line style="stroke:#181818;stroke-width:1.0;" x1="105.5" x2="105.5" y1="132.5625" y2="183.6953"/><line style="stroke:#181818;stroke-width:1.0;" x1="115.5" x2="115.5" y1="132.5625" y2="183.6953"/><line style="stroke:#181818;stroke-width:1.0;" x1="105.5" x2="115.5" y1="132.5625" y2="132.5625"/><rect fill="#FFFFFF" height="926.6563" style="stroke:#FFFFFF;stroke-width:1.0;" width="10" x="105.5" y="224.5"/><line style="stroke:#181818;stroke-width:1.0;" x1="105.5" x2="105.5" y1="224.5" y2="1151.1563"/><line style="stroke:#181818;stroke-width:1.0;" x1="115.5" x2="115.5" y1="224.5" y2="1151.1563"/><line style="stroke:#181818;stroke-width:1.0;" x1="105.5" x2="115.5" y1="1151.1563" y2="1151.1563"/><rect fill="#FFFFFF" height="101.2656" style="stroke:#181818;stroke-width:1.0;" width="10" x="105.5" y="1231.2266"/><rect fill="#FFFFFF" height="28" style="stroke:#181818;stroke-width:1.0;" width="10" x="110.5" y="1268.3594"/><rect fill="#FFFFFF" height="29.1328" style="stroke:#181818;stroke-width:1.0;" width="10" x="105.5" y="1447.4297"/><rect fill="#FFFFFF" height="833.2578" style="stroke:#181818;stroke-width:1.0;" width="10" x="275.5" y="288.7656"/><rect fill="#FFFFFF" height="28" style="stroke:#181818;stroke-width:1.0;" width="10" x="280.5" y="557.9609"/><rect fill="#FFFFFF" height="29.1328" style="stroke:#181818;stroke-width:1.0;" width="10" x="275.5" y="1202.0938"/><rect fill="#FFFFFF" height="187.7969" style="stroke:#181818;stroke-width:1.0;" width="10" x="555.5" y="317.8984"/><rect fill="#FFFFFF" height="63.2656" style="stroke:#181818;stroke-width:1.0;" width="10" x="560.5" y="413.2969"/><rect fill="#FFFFFF" height="863.4688" style="stroke:#181818;stroke-width:1.0;" width="10" x="555.5" y="622.0938"/><rect fill="#FFFFFF" height="58.2656" style="stroke:#181818;stroke-width:1.0;" width="10" x="560.5" y="717.4922"/><rect fill="#FFFFFF" height="338.9375" style="stroke:#181818;stroke-width:1.0;" width="10" x="560.5" y="863.1563"/><rect fill="#FFFFFF" height="28" style="stroke:#181818;stroke-width:1.0;" width="10" x="565.5" y="928.4883"/><rect fill="#FFFFFF" height="58.2656" style="stroke:#181818;stroke-width:1.0;" width="10" x="565.5" y="1034.625"/><rect fill="#FFFFFF" height="28" style="stroke:#181818;stroke-width:1.0;" width="10" x="560.5" y="1384.4297"/><rect fill="#FFFFFF" height="29.1328" style="stroke:#181818;stroke-width:1.0;" width="10" x="789.5" y="347.0313"/><rect fill="#FFFFFF" height="29.1328" style="stroke:#181818;stroke-width:1.0;" width="10" x="789.5" y="447.4297"/><rect fill="#FFFFFF" height="29.1328" style="stroke:#181818;stroke-width:1.0;" width="10" x="789.5" y="651.2266"/><rect fill="#FFFFFF" height="29.1328" style="stroke:#181818;stroke-width:1.0;" width="10" x="789.5" y="775.7578"/><rect fill="#FFFFFF" height="29.1328" style="stroke:#181818;stroke-width:1.0;" width="10" x="789.5" y="834.0234"/><rect fill="#FFFFFF" height="71.2656" style="stroke:#181818;stroke-width:1.0;" width="10" x="1023.5" y="376.1641"/><rect fill="#FFFFFF" height="153.6641" style="stroke:#181818;stroke-width:1.0;" width="10" x="1023.5" y="680.3594"/><rect fill="#FFFFFF" height="29.1328" style="stroke:#181818;stroke-width:1.0;" width="10" x="1028.5" y="804.8906"/><rect fill="none" height="696.9375" style="stroke:#000000;stroke-width:1.5;" width="1086.5" x="10" y="737.4922"/><rect fill="none" height="549.2734" style="stroke:#000000;stroke-width:1.5;" width="984.5" x="20" y="878.1563"/><rect fill="none" height="104.5313" style="stroke:#000000;stroke-width:1.5;" width="609.5" x="30" y="1054.625"/><line style="stroke:#181818;stroke-width:0.5;stroke-dasharray:5.0,5.0;" x1="58" x2="58" y1="101.4297" y2="183.6953"/><line style="stroke:#383838;stroke-width:1.0;stroke-dasharray:1.0,4.0;" x1="58" x2="58" y1="183.6953" y2="224.5"/><line style="stroke:#181818;stroke-width:0.5;stroke-dasharray:5.0,5.0;" x1="58" x2="58" y1="224.5" y2="1494.5625"/><line style="stroke:#181818;stroke-width:0.5;stroke-dasharray:5.0,5.0;" x1="110.5" x2="110.5" y1="101.4297" y2="183.6953"/><line style="stroke:#383838;stroke-width:1.0;stroke-dasharray:1.0,4.0;" x1="110.5" x2="110.5" y1="183.6953" y2="224.5"/><line style="stroke:#181818;stroke-width:0.5;stroke-dasharray:5.0,5.0;" x1="110.5" x2="110.5" y1="224.5" y2="1494.5625"/><line style="stroke:#181818;stroke-width:0.5;stroke-dasharray:5.0,5.0;" x1="280" x2="280" y1="101.4297" y2="183.6953"/><line style="stroke:#383838;stroke-width:1.0;stroke-dasharray:1.0,4.0;" x1="280" x2="280" y1="183.6953" y2="224.5"/><line style="stroke:#181818;stroke-width:0.5;stroke-dasharray:5.0,5.0;" x1="280" x2="280" y1="224.5" y2="1494.5625"/><line style="stroke:#181818;stroke-width:0.5;stroke-dasharray:5.0,5.0;" x1="560.5" x2="560.5" y1="101.4297" y2="183.6953"/><line style="stroke:#383838;stroke-width:1.0;stroke-dasharray:1.0,4.0;" x1="560.5" x2="560.5" y1="183.6953" y2="224.5"/><line style="stroke:#181818;stroke-width:0.5;stroke-dasharray:5.0,5.0;" x1="560.5" x2="560.5" y1="224.5" y2="1494.5625"/><line style="stroke:#181818;stroke-width:0.5;stroke-dasharray:5.0,5.0;" x1="794" x2="794" y1="101.4297" y2="183.6953"/><line style="stroke:#383838;stroke-width:1.0;stroke-dasharray:1.0,4.0;" x1="794" x2="794" y1="183.6953" y2="224.5"/><line style="stroke:#181818;stroke-width:0.5;stroke-dasharray:5.0,5.0;" x1="794" x2="794" y1="224.5" y2="1494.5625"/><line style="stroke:#181818;stroke-width:0.5;stroke-dasharray:5.0,5.0;" x1="1028.5" x2="1028.5" y1="101.4297" y2="183.6953"/><line style="stroke:#383838;stroke-width:1.0;stroke-dasharray:1.0,4.0;" x1="1028.5" x2="1028.5" y1="183.6953" y2="224.5"/><line style="stroke:#181818;stroke-width:0.5;stroke-dasharray:5.0,5.0;" x1="1028.5" x2="1028.5" y1="224.5" y2="1494.5625"/><text fill="#000000" font-family="sans-serif" font-size="14" lengthAdjust="spacing" textLength="31" x="40" y="98.1279">user</text><ellipse cx="58.5" cy="33.6328" fill="#E3E3E3" rx="8" ry="8" style="stroke:#181818;stroke-width:0.5;"/><path d="M58.5,41.6328 L58.5,68.6328 M45.5,49.6328 L71.5,49.6328 M58.5,68.6328 L45.5,83.6328 M58.5,68.6328 L71.5,83.6328 " fill="none" style="stroke:#181818;stroke-width:0.5;"/><rect fill="#E3E3E3" height="30.2969" rx="2.5" ry="2.5" style="stroke:#181818;stroke-width:0.5;" width="46" x="87.5" y="70.1328"/><text fill="#000000" font-family="sans-serif" font-size="14" lengthAdjust="spacing" textLength="32" x="94.5" y="90.1279">Main</text><rect fill="#E3E3E3" height="30.2969" rx="2.5" ry="2.5" style="stroke:#181818;stroke-width:0.5;" width="109" x="226" y="70.1328"/><text fill="#000000" font-family="sans-serif" font-size="14" lengthAdjust="spacing" textLength="95" x="233" y="90.1279">CliCommands</text><rect fill="#E3E3E3" height="30.2969" rx="2.5" ry="2.5" style="stroke:#181818;stroke-width:0.5;" width="138" x="491.5" y="70.1328"/><text fill="#000000" font-family="sans-serif" font-size="14" lengthAdjust="spacing" textLength="124" x="498.5" y="90.1279">ServerConnection</text><rect fill="#E3E3E3" height="46.5938" rx="2.5" ry="2.5" style="stroke:#181818;stroke-width:0.5;" width="169" x="710" y="53.8359"/><text fill="#000000" font-family="sans-serif" font-size="14" lengthAdjust="spacing" textLength="47" x="771" y="73.8311">&#171;task&#187;</text><text fill="#000000" font-family="sans-serif" font-size="14" lengthAdjust="spacing" textLength="155" x="717" y="90.1279">CommunicationsClient</text><rect fill="#E3E3E3" height="30.2969" rx="2.5" ry="2.5" style="stroke:#181818;stroke-width:0.5;" width="116" x="970.5" y="70.1328"/><text fill="#000000" font-family="sans-serif" font-size="14" lengthAdjust="spacing" textLength="102" x="977.5" y="90.1279">Ankaios Server</text><rect fill="#FFFFFF" height="51.1328" style="stroke:#FFFFFF;stroke-width:1.0;" width="10" x="105.5" y="132.5625"/><line style="stroke:#181818;stroke-width:1.0;" x1="105.5" x2="105.5" y1="132.5625" y2="183.6953"/><line style="stroke:#181818;stroke-width:1.0;" x1="115.5" x2="115.5" y1="132.5625" y2="183.6953"/><line style="stroke:#181818;stroke-width:1.0;" x1="105.5" x2="115.5" y1="132.5625" y2="132.5625"/><rect fill="#FFFFFF" height="926.6563" style="stroke:#FFFFFF;stroke-width:1.0;" width="10" x="105.5" y="224.5"/><line style="stroke:#181818;stroke-width:1.0;" x1="105.5" x2="105.5" y1="224.5" y2="1151.1563"/><line style="stroke:#181818;stroke-width:1.0;" x1="115.5" x2="115.5" y1="224.5" y2="1151.1563"/><line style="stroke:#181818;stroke-width:1.0;" x1="105.5" x2="115.5" y1="1151.1563" y2="1151.1563"/><rect fill="#FFFFFF" height="101.2656" style="stroke:#181818;stroke-width:1.0;" width="10" x="105.5" y="1231.2266"/><rect fill="#FFFFFF" height="28" style="stroke:#181818;stroke-width:1.0;" width="10" x="110.5" y="1268.3594"/><rect fill="#FFFFFF" height="29.1328" style="stroke:#181818;stroke-width:1.0;" width="10" x="105.5" y="1447.4297"/><rect fill="#FFFFFF" height="833.2578" style="stroke:#181818;stroke-width:1.0;" width="10" x="275.5" y="288.7656"/><rect fill="#FFFFFF" height="28" style="stroke:#181818;stroke-width:1.0;" width="10" x="280.5" y="557.9609"/><rect fill="#FFFFFF" height="29.1328" style="stroke:#181818;stroke-width:1.0;" width="10" x="275.5" y="1202.0938"/><rect fill="#FFFFFF" height="187.7969" style="stroke:#181818;stroke-width:1.0;" width="10" x="555.5" y="317.8984"/><rect fill="#FFFFFF" height="63.2656" style="stroke:#181818;stroke-width:1.0;" width="10" x="560.5" y="413.2969"/><rect fill="#FFFFFF" height="863.4688" style="stroke:#181818;stroke-width:1.0;" width="10" x="555.5" y="622.0938"/><rect fill="#FFFFFF" height="58.2656" style="stroke:#181818;stroke-width:1.0;" width="10" x="560.5" y="717.4922"/><rect fill="#FFFFFF" height="338.9375" style="stroke:#181818;stroke-width:1.0;" width="10" x="560.5" y="863.1563"/><rect fill="#FFFFFF" height="28" style="stroke:#181818;stroke-width:1.0;" width="10" x="565.5" y="928.4883"/><rect fill="#FFFFFF" height="58.2656" style="stroke:#181818;stroke-width:1.0;" width="10" x="565.5" y="1034.625"/><rect fill="#FFFFFF" height="28" style="stroke:#181818;stroke-width:1.0;" width="10" x="560.5" y="1384.4297"/><rect fill="#FFFFFF" height="29.1328" style="stroke:#181818;stroke-width:1.0;" width="10" x="789.5" y="347.0313"/><rect fill="#FFFFFF" height="29.1328" style="stroke:#181818;stroke-width:1.0;" width="10" x="789.5" y="447.4297"/><rect fill="#FFFFFF" height="29.1328" style="stroke:#181818;stroke-width:1.0;" width="10" x="789.5" y="651.2266"/><rect fill="#FFFFFF" height="29.1328" style="stroke:#181818;stroke-width:1.0;" width="10" x="789.5" y="775.7578"/><rect fill="#FFFFFF" height="29.1328" style="stroke:#181818;stroke-width:1.0;" width="10" x="789.5" y="834.0234"/><rect fill="#FFFFFF" height="71.2656" style="stroke:#181818;stroke-width:1.0;" width="10" x="1023.5" y="376.1641"/><rect fill="#FFFFFF" height="153.6641" style="stroke:#181818;stroke-width:1.0;" width="10" x="1023.5" y="680.3594"/><rect fill="#FFFFFF" height="29.1328" style="stroke:#181818;stroke-width:1.0;" width="10" x="1028.5" y="804.8906"/><polygon fill="#181818" points="93.5,128.5625,103.5,132.5625,93.5,136.5625" style="stroke:#181818;stroke-width:1.0;"/><line style="stroke:#181818;stroke-width:1.0;" x1="0" x2="99.5" y1="132.5625" y2="132.5625"/><text fill="#000000" font-family="sans-serif" font-size="13" lengthAdjust="spacing" textLength="53" x="7" y="127.4966">ank logs</text><rect fill="#EEEEEE" height="3" style="stroke:#EEEEEE;stroke-width:1.0;" width="1106.5" x="0" y="161.1289"/><line style="stroke:#000000;stroke-width:1.0;" x1="0" x2="1106.5" y1="161.1289" y2="161.1289"/><line style="stroke:#000000;stroke-width:1.0;" x1="0" x2="1106.5" y1="164.1289" y2="164.1289"/><rect fill="#EEEEEE" height="23.1328" style="stroke:#000000;stroke-width:2.0;" width="73" x="516.75" y="150.5625"/><text fill="#000000" font-family="sans-serif" font-size="13" font-weight="bold" lengthAdjust="spacing" textLength="54" x="522.75" y="166.6294">startup</text><text fill="#000000" font-family="sans-serif" font-size="11" lengthAdjust="spacing" textLength="66" x="510.5" y="207.9058">initialization</text><rect fill="#EEEEEE" height="3" style="stroke:#EEEEEE;stroke-width:1.0;" width="1106.5" x="0" y="245.0664"/><line style="stroke:#000000;stroke-width:1.0;" x1="0" x2="1106.5" y1="245.0664" y2="245.0664"/><line style="stroke:#000000;stroke-width:1.0;" x1="0" x2="1106.5" y1="248.0664" y2="248.0664"/><rect fill="#EEEEEE" height="23.1328" style="stroke:#000000;stroke-width:2.0;" width="92" x="507.25" y="234.5"/><text fill="#000000" font-family="sans-serif" font-size="13" font-weight="bold" lengthAdjust="spacing" textLength="73" x="513.25" y="250.5669">command</text><polygon fill="#181818" points="263.5,284.7656,273.5,288.7656,263.5,292.7656" style="stroke:#181818;stroke-width:1.0;"/><line style="stroke:#181818;stroke-width:1.0;" x1="115.5" x2="269.5" y1="288.7656" y2="288.7656"/><text fill="#000000" font-family="sans-serif" font-size="13" lengthAdjust="spacing" textLength="107" x="122.5" y="283.6997">get logs blocking</text><polygon fill="#181818" points="543.5,313.8984,553.5,317.8984,543.5,321.8984" style="stroke:#181818;stroke-width:1.0;"/><line style="stroke:#181818;stroke-width:1.0;" x1="285.5" x2="549.5" y1="317.8984" y2="317.8984"/><text fill="#000000" font-family="sans-serif" font-size="13" lengthAdjust="spacing" textLength="153" x="292.5" y="312.8325">request workload states</text><line style="stroke:#181818;stroke-width:1.0;" x1="787.5" x2="777.5" y1="347.0313" y2="343.0313"/><line style="stroke:#181818;stroke-width:1.0;" x1="787.5" x2="777.5" y1="347.0313" y2="351.0313"/><line style="stroke:#181818;stroke-width:1.0;" x1="565.5" x2="788.5" y1="347.0313" y2="347.0313"/><text fill="#000000" font-family="sans-serif" font-size="13" lengthAdjust="spacing" textLength="153" x="572.5" y="341.9653">request workload states</text><line style="stroke:#181818;stroke-width:1.0;" x1="1021.5" x2="1011.5" y1="376.1641" y2="372.1641"/><line style="stroke:#181818;stroke-width:1.0;" x1="1021.5" x2="1011.5" y1="376.1641" y2="380.1641"/><line style="stroke:#181818;stroke-width:1.0;" x1="794.5" x2="1022.5" y1="376.1641" y2="376.1641"/><text fill="#000000" font-family="sans-serif" font-size="13" lengthAdjust="spacing" textLength="153" x="801.5" y="371.0981">request workload states</text><line style="stroke:#181818;stroke-width:1.0;" x1="565.5" x2="612.5" y1="400.2969" y2="400.2969"/><line style="stroke:#181818;stroke-width:1.0;" x1="612.5" x2="612.5" y1="400.2969" y2="413.2969"/><line style="stroke:#181818;stroke-width:1.0;" x1="571.5" x2="612.5" y1="413.2969" y2="413.2969"/><polygon fill="#181818" points="581.5,409.2969,571.5,413.2969,581.5,417.2969" style="stroke:#181818;stroke-width:1.0;"/><text fill="#000000" font-family="sans-serif" font-size="13" lengthAdjust="spacing" textLength="134" x="577.5" y="395.231">wait for the response</text><line style="stroke:#181818;stroke-width:1.0;" x1="800.5" x2="810.5" y1="447.4297" y2="443.4297"/><line style="stroke:#181818;stroke-width:1.0;" x1="800.5" x2="810.5" y1="447.4297" y2="451.4297"/><line style="stroke:#181818;stroke-width:1.0;" x1="799.5" x2="1027.5" y1="447.4297" y2="447.4297"/><text fill="#000000" font-family="sans-serif" font-size="13" lengthAdjust="spacing" textLength="100" x="816.5" y="442.3638">workload states</text><line style="stroke:#181818;stroke-width:1.0;" x1="566.5" x2="576.5" y1="476.5625" y2="472.5625"/><line style="stroke:#181818;stroke-width:1.0;" x1="566.5" x2="576.5" y1="476.5625" y2="480.5625"/><line style="stroke:#181818;stroke-width:1.0;" x1="565.5" x2="793.5" y1="476.5625" y2="476.5625"/><text fill="#000000" font-family="sans-serif" font-size="13" lengthAdjust="spacing" textLength="100" x="582.5" y="471.4966">workload states</text><line style="stroke:#181818;stroke-width:1.0;" x1="286.5" x2="296.5" y1="505.6953" y2="501.6953"/><line style="stroke:#181818;stroke-width:1.0;" x1="286.5" x2="296.5" y1="505.6953" y2="509.6953"/><line style="stroke:#181818;stroke-width:1.0;stroke-dasharray:2.0,2.0;" x1="285.5" x2="559.5" y1="505.6953" y2="505.6953"/><text fill="#000000" font-family="sans-serif" font-size="13" lengthAdjust="spacing" textLength="100" x="302.5" y="500.6294">workload states</text><line style="stroke:#181818;stroke-width:1.0;" x1="290.5" x2="332.5" y1="549.9609" y2="549.9609"/><line style="stroke:#181818;stroke-width:1.0;" x1="332.5" x2="332.5" y1="549.9609" y2="562.9609"/><line style="stroke:#181818;stroke-width:1.0;" x1="291.5" x2="332.5" y1="562.9609" y2="562.9609"/><polygon fill="#181818" points="301.5,558.9609,291.5,562.9609,301.5,566.9609" style="stroke:#181818;stroke-width:1.0;"/><text fill="#000000" font-family="sans-serif" font-size="13" lengthAdjust="spacing" textLength="173" x="297.5" y="529.7622">convert workload names to</text><text fill="#000000" font-family="sans-serif" font-size="13" lengthAdjust="spacing" textLength="162" x="297.5" y="544.895">workload instance names</text><polygon fill="#181818" points="543.5,618.0938,553.5,622.0938,543.5,626.0938" style="stroke:#181818;stroke-width:1.0;"/><line style="stroke:#181818;stroke-width:1.0;" x1="285.5" x2="549.5" y1="622.0938" y2="622.0938"/><text fill="#000000" font-family="sans-serif" font-size="13" lengthAdjust="spacing" textLength="251" x="292.5" y="617.0278">stream logs until stop or cli termination</text><line style="stroke:#181818;stroke-width:1.0;" x1="787.5" x2="777.5" y1="651.2266" y2="647.2266"/><line style="stroke:#181818;stroke-width:1.0;" x1="787.5" x2="777.5" y1="651.2266" y2="655.2266"/><line style="stroke:#181818;stroke-width:1.0;" x1="565.5" x2="788.5" y1="651.2266" y2="651.2266"/><text fill="#000000" font-family="sans-serif" font-size="13" lengthAdjust="spacing" textLength="114" x="572.5" y="646.1606">send logs request</text><line style="stroke:#181818;stroke-width:1.0;" x1="1021.5" x2="1011.5" y1="680.3594" y2="676.3594"/><line style="stroke:#181818;stroke-width:1.0;" x1="1021.5" x2="1011.5" y1="680.3594" y2="684.3594"/><line style="stroke:#181818;stroke-width:1.0;" x1="794.5" x2="1022.5" y1="680.3594" y2="680.3594"/><text fill="#000000" font-family="sans-serif" font-size="13" lengthAdjust="spacing" textLength="114" x="801.5" y="675.2935">send logs request</text><line style="stroke:#181818;stroke-width:1.0;" x1="565.5" x2="612.5" y1="704.4922" y2="704.4922"/><line style="stroke:#181818;stroke-width:1.0;" x1="612.5" x2="612.5" y1="704.4922" y2="717.4922"/><line style="stroke:#181818;stroke-width:1.0;" x1="571.5" x2="612.5" y1="717.4922" y2="717.4922"/><polygon fill="#181818" points="581.5,713.4922,571.5,717.4922,581.5,721.4922" style="stroke:#181818;stroke-width:1.0;"/><text fill="#000000" font-family="sans-serif" font-size="13" lengthAdjust="spacing" textLength="145" x="577.5" y="699.4263">listen for workload logs</text><path d="M10,737.4922 L87,737.4922 L87,744.625 L77,754.625 L10,754.625 L10,737.4922 " fill="#EEEEEE" style="stroke:#000000;stroke-width:1.5;"/><rect fill="none" height="696.9375" style="stroke:#000000;stroke-width:1.5;" width="1086.5" x="10" y="737.4922"/><text fill="#000000" font-family="sans-serif" font-size="13" font-weight="bold" lengthAdjust="spacing" textLength="32" x="25" y="750.5591">loop</text><text fill="#000000" font-family="sans-serif" font-size="11" font-weight="bold" lengthAdjust="spacing" textLength="191" x="102" y="749.7026">[until unix termination signal]</text><line style="stroke:#181818;stroke-width:1.0;" x1="787.5" x2="777.5" y1="775.7578" y2="771.7578"/><line style="stroke:#181818;stroke-width:1.0;" x1="787.5" x2="777.5" y1="775.7578" y2="779.7578"/><line style="stroke:#181818;stroke-width:1.0;" x1="565.5" x2="788.5" y1="775.7578" y2="775.7578"/><text fill="#000000" font-family="sans-serif" font-size="13" lengthAdjust="spacing" textLength="200" x="572.5" y="770.6919">listen to FromServer messages</text><line style="stroke:#181818;stroke-width:1.0;" x1="1026.5" x2="1016.5" y1="804.8906" y2="800.8906"/><line style="stroke:#181818;stroke-width:1.0;" x1="1026.5" x2="1016.5" y1="804.8906" y2="808.8906"/><line style="stroke:#181818;stroke-width:1.0;" x1="794.5" x2="1027.5" y1="804.8906" y2="804.8906"/><text fill="#000000" font-family="sans-serif" font-size="13" lengthAdjust="spacing" textLength="200" x="801.5" y="799.8247">listen to FromServer messages</text><line style="stroke:#181818;stroke-width:1.0;" x1="800.5" x2="810.5" y1="834.0234" y2="830.0234"/><line style="stroke:#181818;stroke-width:1.0;" x1="800.5" x2="810.5" y1="834.0234" y2="838.0234"/><line style="stroke:#181818;stroke-width:1.0;stroke-dasharray:2.0,2.0;" x1="799.5" x2="1027.5" y1="834.0234" y2="834.0234"/><text fill="#000000" font-family="sans-serif" font-size="13" lengthAdjust="spacing" textLength="138" x="816.5" y="828.9575">FromServer message</text><line style="stroke:#181818;stroke-width:1.0;" x1="571.5" x2="581.5" y1="863.1563" y2="859.1563"/><line style="stroke:#181818;stroke-width:1.0;" x1="571.5" x2="581.5" y1="863.1563" y2="867.1563"/><line style="stroke:#181818;stroke-width:1.0;stroke-dasharray:2.0,2.0;" x1="570.5" x2="793.5" y1="863.1563" y2="863.1563"/><text fill="#000000" font-family="sans-serif" font-size="13" lengthAdjust="spacing" textLength="138" x="587.5" y="858.0903">FromServer message</text><path d="M20,878.1563 L84,878.1563 L84,885.2891 L74,895.2891 L20,895.2891 L20,878.1563 " fill="#EEEEEE" style="stroke:#000000;stroke-width:1.5;"/><rect fill="none" height="549.2734" style="stroke:#000000;stroke-width:1.5;" width="984.5" x="20" y="878.1563"/><text fill="#000000" font-family="sans-serif" font-size="13" font-weight="bold" lengthAdjust="spacing" textLength="19" x="35" y="891.2231">alt</text><text fill="#000000" font-family="sans-serif" font-size="11" font-weight="bold" lengthAdjust="spacing" textLength="216" x="99" y="890.3667">[message is LogEntriesResponse]</text><line style="stroke:#181818;stroke-width:1.0;" x1="575.5" x2="617.5" y1="920.4883" y2="920.4883"/><line style="stroke:#181818;stroke-width:1.0;" x1="617.5" x2="617.5" y1="920.4883" y2="933.4883"/><line style="stroke:#181818;stroke-width:1.0;" x1="576.5" x2="617.5" y1="933.4883" y2="933.4883"/><polygon fill="#181818" points="586.5,929.4883,576.5,933.4883,586.5,937.4883" style="stroke:#181818;stroke-width:1.0;"/><text fill="#000000" font-family="sans-serif" font-size="13" lengthAdjust="spacing" textLength="122" x="582.5" y="915.4224">print log messages</text><path d="M716,900.2891 L716,940.2891 L979,940.2891 L979,910.2891 L969,900.2891 L716,900.2891 " fill="#FFFFFF" style="stroke:#181818;stroke-width:0.5;"/><path d="M969,900.2891 L969,910.2891 L979,910.2891 L969,900.2891 " fill="#FFFFFF" style="stroke:#181818;stroke-width:0.5;"/><text fill="#000000" font-family="sans-serif" font-size="13" lengthAdjust="spacing" textLength="47" x="722" y="917.356">format:</text><text fill="#000000" font-family="sans-serif" font-size="13" lengthAdjust="spacing" textLength="242" x="722" y="932.4888">&lt;workload_name&gt; &lt;log message&gt;\n</text><line style="stroke:#000000;stroke-width:1.0;stroke-dasharray:2.0,2.0;" x1="20" x2="1004.5" y1="976.5547" y2="976.5547"/><text fill="#000000" font-family="sans-serif" font-size="11" font-weight="bold" lengthAdjust="spacing" textLength="202" x="25" y="986.7651">[message is LogsStopMessage]</text><line style="stroke:#181818;stroke-width:1.0;" x1="570.5" x2="617.5" y1="1021.625" y2="1021.625"/><line style="stroke:#181818;stroke-width:1.0;" x1="617.5" x2="617.5" y1="1021.625" y2="1034.625"/><line style="stroke:#181818;stroke-width:1.0;" x1="576.5" x2="617.5" y1="1034.625" y2="1034.625"/><polygon fill="#181818" points="586.5,1030.625,576.5,1034.625,586.5,1038.625" style="stroke:#181818;stroke-width:1.0;"/><text fill="#000000" font-family="sans-serif" font-size="13" lengthAdjust="spacing" textLength="165" x="582.5" y="1001.4263">remove workload from list</text><text fill="#000000" font-family="sans-serif" font-size="13" lengthAdjust="spacing" textLength="166" x="582.5" y="1016.5591">of log collection workloads</text><path d="M30,1054.625 L100,1054.625 L100,1061.7578 L90,1071.7578 L30,1071.7578 L30,1054.625 " fill="#EEEEEE" style="stroke:#000000;stroke-width:1.5;"/><rect fill="none" height="104.5313" style="stroke:#000000;stroke-width:1.5;" width="609.5" x="30" y="1054.625"/><text fill="#000000" font-family="sans-serif" font-size="13" font-weight="bold" lengthAdjust="spacing" textLength="25" x="45" y="1067.6919">opt</text><text fill="#000000" font-family="sans-serif" font-size="11" font-weight="bold" lengthAdjust="spacing" textLength="266" x="115" y="1066.8354">[list of log collection workloads is empty]</text><line style="stroke:#181818;stroke-width:1.0;" x1="286.5" x2="296.5" y1="1092.8906" y2="1088.8906"/><line style="stroke:#181818;stroke-width:1.0;" x1="286.5" x2="296.5" y1="1092.8906" y2="1096.8906"/><line style="stroke:#181818;stroke-width:1.0;stroke-dasharray:2.0,2.0;" x1="285.5" x2="559.5" y1="1092.8906" y2="1092.8906"/><text fill="#000000" font-family="sans-serif" font-size="13" lengthAdjust="spacing" textLength="136" x="302.5" y="1087.8247">stop listening for logs</text><line style="stroke:#181818;stroke-width:1.0;" x1="116.5" x2="126.5" y1="1122.0234" y2="1118.0234"/><line style="stroke:#181818;stroke-width:1.0;" x1="116.5" x2="126.5" y1="1122.0234" y2="1126.0234"/><line style="stroke:#181818;stroke-width:1.0;stroke-dasharray:2.0,2.0;" x1="115.5" x2="279.5" y1="1122.0234" y2="1122.0234"/><text fill="#000000" font-family="sans-serif" font-size="13" lengthAdjust="spacing" textLength="136" x="132.5" y="1116.9575">stop listening for logs</text><line style="stroke:#181818;stroke-width:1.0;" x1="59.5" x2="69.5" y1="1151.1563" y2="1147.1563"/><line style="stroke:#181818;stroke-width:1.0;" x1="59.5" x2="69.5" y1="1151.1563" y2="1155.1563"/><line style="stroke:#181818;stroke-width:1.0;stroke-dasharray:2.0,2.0;" x1="58.5" x2="109.5" y1="1151.1563" y2="1151.1563"/><text fill="#000000" font-family="sans-serif" font-size="13" lengthAdjust="spacing" textLength="23" x="75.5" y="1146.0903">exit</text><line style="stroke:#000000;stroke-width:1.0;stroke-dasharray:2.0,2.0;" x1="20" x2="1004.5" y1="1167.1563" y2="1167.1563"/><text fill="#000000" font-family="sans-serif" font-size="11" font-weight="bold" lengthAdjust="spacing" textLength="180" x="25" y="1177.3667">[message is response error]</text><line style="stroke:#181818;stroke-width:1.0;" x1="286.5" x2="296.5" y1="1202.0938" y2="1198.0938"/><line style="stroke:#181818;stroke-width:1.0;" x1="286.5" x2="296.5" y1="1202.0938" y2="1206.0938"/><line style="stroke:#181818;stroke-width:1.0;stroke-dasharray:2.0,2.0;" x1="285.5" x2="554.5" y1="1202.0938" y2="1202.0938"/><text fill="#000000" font-family="sans-serif" font-size="13" lengthAdjust="spacing" textLength="31" x="302.5" y="1197.0278">error</text><line style="stroke:#181818;stroke-width:1.0;" x1="116.5" x2="126.5" y1="1231.2266" y2="1227.2266"/><line style="stroke:#181818;stroke-width:1.0;" x1="116.5" x2="126.5" y1="1231.2266" y2="1235.2266"/><line style="stroke:#181818;stroke-width:1.0;stroke-dasharray:2.0,2.0;" x1="115.5" x2="279.5" y1="1231.2266" y2="1231.2266"/><text fill="#000000" font-family="sans-serif" font-size="13" lengthAdjust="spacing" textLength="31" x="132.5" y="1226.1606">error</text><line style="stroke:#181818;stroke-width:1.0;" x1="120.5" x2="162.5" y1="1260.3594" y2="1260.3594"/><line style="stroke:#181818;stroke-width:1.0;" x1="162.5" x2="162.5" y1="1260.3594" y2="1273.3594"/><line style="stroke:#181818;stroke-width:1.0;" x1="121.5" x2="162.5" y1="1273.3594" y2="1273.3594"/><polygon fill="#181818" points="131.5,1269.3594,121.5,1273.3594,131.5,1277.3594" style="stroke:#181818;stroke-width:1.0;"/><text fill="#000000" font-family="sans-serif" font-size="13" lengthAdjust="spacing" textLength="64" x="127.5" y="1255.2935">print error</text><line style="stroke:#181818;stroke-width:1.0;" x1="59.5" x2="69.5" y1="1332.4922" y2="1328.4922"/><line style="stroke:#181818;stroke-width:1.0;" x1="59.5" x2="69.5" y1="1332.4922" y2="1336.4922"/><line style="stroke:#181818;stroke-width:1.0;stroke-dasharray:2.0,2.0;" x1="58.5" x2="109.5" y1="1332.4922" y2="1332.4922"/><text fill="#000000" font-family="sans-serif" font-size="13" lengthAdjust="spacing" textLength="23" x="75.5" y="1327.4263">exit</text><line style="stroke:#000000;stroke-width:1.0;stroke-dasharray:2.0,2.0;" x1="20" x2="1004.5" y1="1341.4922" y2="1341.4922"/><text fill="#000000" font-family="sans-serif" font-size="11" font-weight="bold" lengthAdjust="spacing" textLength="169" x="25" y="1351.7026">[message is of other type]</text><line style="stroke:#181818;stroke-width:1.0;" x1="570.5" x2="612.5" y1="1376.4297" y2="1376.4297"/><line style="stroke:#181818;stroke-width:1.0;" x1="612.5" x2="612.5" y1="1376.4297" y2="1389.4297"/><line style="stroke:#181818;stroke-width:1.0;" x1="571.5" x2="612.5" y1="1389.4297" y2="1389.4297"/><polygon fill="#181818" points="581.5,1385.4297,571.5,1389.4297,581.5,1393.4297" style="stroke:#181818;stroke-width:1.0;"/><text fill="#000000" font-family="sans-serif" font-size="13" lengthAdjust="spacing" textLength="103" x="577.5" y="1371.3638">ignore message</text><line style="stroke:#181818;stroke-width:1.0;" x1="116.5" x2="126.5" y1="1447.4297" y2="1443.4297"/><line style="stroke:#181818;stroke-width:1.0;" x1="116.5" x2="126.5" y1="1447.4297" y2="1451.4297"/><line style="stroke:#181818;stroke-width:1.0;stroke-dasharray:2.0,2.0;" x1="115.5" x2="279.5" y1="1447.4297" y2="1447.4297"/><line style="stroke:#181818;stroke-width:1.0;" x1="59.5" x2="69.5" y1="1476.5625" y2="1472.5625"/><line style="stroke:#181818;stroke-width:1.0;" x1="59.5" x2="69.5" y1="1476.5625" y2="1480.5625"/><line style="stroke:#181818;stroke-width:1.0;stroke-dasharray:2.0,2.0;" x1="58.5" x2="109.5" y1="1476.5625" y2="1476.5625"/><text fill="#000000" font-family="sans-serif" font-size="13" lengthAdjust="spacing" textLength="23" x="75.5" y="1471.4966">exit</text><!--SRC=[dLR9Rjim4BthAwQ-1hBlXYsW29fJSsck0GA6dYY4AL8bgIpz-Ww7agtDWHp1XWnotkEysUWVoaZT713Mwytfuz3RnadqcuELcreB4vfARwH6OTR-g4oMFTiFMFqqHw6i1tglCg17o60Th1gFRWN2G_p16xLmGKbL4nFS2sNYPaNloURgLgjRMrN273nJIAsUPBimjNv0zuRkrXg3CYXh6E9vaL3TwXItsmNXZqNnQE9XZL5IH4DFfwC9wU31nfFadGpD0KZxA039ZTNqd971sRipKLvm9E3c1hOWp16qBNsMxVVW0r4rDUptMRPUhq4P5PJGwX-xH1bRiraR7JPZ9cBiHoqnbnYO6PwrbPJ2Cii6HWIQn8sGMt3ujq4VuDswexRY4DqAwBEfTLuKyr7xYcOMm5Jf0CXpzlyIVjQF2rBUXGhmGXKQNf48VKqduWKFThkyxy5sWVu8kI0dd-8FIDsYtkZtJC4EKaEy-OoYET99JaU54354GKozI1fHeOTW7yrfIHaYD1BJti9AyS6Xg5ALDIOeJIks1eetuI6WgvJXk5nJEuavTWlpjcMmk6ocoCNrGcYjV4339NCA3RUdjYGiQIGlFlhYmAlI2Cspu1gTgShQ4uE5EsUhD3Q0Kk15YMd-BLB-VQ9UiRLCKpp39_LxGJ4JVYLvXZzT9Zfq2w0y_BRbBnESGl-dwrnedyKfZULVEsLu50wZ4HzZIOnJvMiuBSM7qb-9i1sixRfwU8eTKi2kHqYtoiasbb-avGNK7aUI_0Ero7qlh5VfYMEniczuhiuN2YRd_j7O5rOfhTOjeBCwAxPrO6lumZXwYbKTFWS1c9j7nMZUn73p24Z5I9SEjn9tK9zh12hQ6t4fl3KcMFo_mJ3yKA6VWzdmTpS0e7FMPTSfYy4VuYwgc9fsrtHxyP_BSiviNjXO32NGqhL6Tzjd_StEeBbb7GwQF8OkVjcJrCdZC6Ji6- -r_aBhvdy0]--></g></svg>