<?xml version="1.0" encoding="us-ascii" standalone="no"?><svg xmlns="http://www.w3.org/2000/svg" xmlns:xlink="http://www.w3.org/1999/xlink" contentStyleType="text/css" height="1342px" preserveAspectRatio="none" style="width:928px;height:1342px;background:#FFFFFF;" version="1.1" viewBox="0 0 928 1342" width="928px" zoomAndPan="magnify"><defs/><g><rect fill="#EEEEEE" height="1323.5547" style="stroke:#D3D3D3;stroke-width:0.5;" width="731.5" x="11" y="6"/><text fill="#777777" font-family="sans-serif" font-size="13" font-weight="bold" lengthAdjust="spacing" textLength="91" x="331.25" y="18.0669">Ankaios Ank</text><rect fill="#EEEEEE" height="1323.5547" style="stroke:#D3D3D3;stroke-width:0.5;" width="124" x="771" y="6"/><text fill="#777777" font-family="sans-serif" font-size="13" font-weight="bold" lengthAdjust="spacing" textLength="110" x="778" y="18.0669">Ankaios Server</text><rect fill="#FFFFFF" height="51.1328" style="stroke:#FFFFFF;stroke-width:1.0;" width="10" x="109.5" y="132.5625"/><line style="stroke:#181818;stroke-width:1.0;" x1="109.5" x2="109.5" y1="132.5625" y2="183.6953"/><line style="stroke:#181818;stroke-width:1.0;" x1="119.5" x2="119.5" y1="132.5625" y2="183.6953"/><line style="stroke:#181818;stroke-width:1.0;" x1="109.5" x2="119.5" y1="132.5625" y2="132.5625"/><rect fill="#FFFFFF" height="1093.0547" style="stroke:#FFFFFF;stroke-width:1.0;" width="10" x="109.5" y="224.5"/><line style="stroke:#181818;stroke-width:1.0;" x1="109.5" x2="109.5" y1="224.5" y2="1317.5547"/><line style="stroke:#181818;stroke-width:1.0;" x1="119.5" x2="119.5" y1="224.5" y2="1317.5547"/><line style="stroke:#181818;stroke-width:1.0;" x1="109.5" x2="119.5" y1="1317.5547" y2="1317.5547"/><rect fill="#FFFFFF" height="999.6563" style="stroke:#181818;stroke-width:1.0;" width="10" x="197" y="288.7656"/><rect fill="#FFFFFF" height="187.7969" style="stroke:#181818;stroke-width:1.0;" width="10" x="433" y="317.8984"/><rect fill="#FFFFFF" height="63.2656" style="stroke:#181818;stroke-width:1.0;" width="10" x="438" y="413.2969"/><rect fill="#FFFFFF" height="187.7969" style="stroke:#181818;stroke-width:1.0;" width="10" x="433" y="659.0313"/><rect fill="#FFFFFF" height="63.2656" style="stroke:#181818;stroke-width:1.0;" width="10" x="438" y="754.4297"/><rect fill="#FFFFFF" height="129.5313" style="stroke:#181818;stroke-width:1.0;" width="10" x="433" y="984.3594"/><rect fill="#FFFFFF" height="63.2656" style="stroke:#181818;stroke-width:1.0;" width="10" x="438" y="1021.4922"/><rect fill="#FFFFFF" height="29.1328" style="stroke:#181818;stroke-width:1.0;" width="10" x="649" y="347.0313"/><rect fill="#FFFFFF" height="29.1328" style="stroke:#181818;stroke-width:1.0;" width="10" x="649" y="447.4297"/><rect fill="#FFFFFF" height="29.1328" style="stroke:#181818;stroke-width:1.0;" width="10" x="649" y="688.1641"/><rect fill="#FFFFFF" height="29.1328" style="stroke:#181818;stroke-width:1.0;" width="10" x="649" y="788.5625"/><rect fill="#FFFFFF" height="29.1328" style="stroke:#181818;stroke-width:1.0;" width="10" x="649" y="1055.625"/><rect fill="#FFFFFF" height="71.2656" style="stroke:#181818;stroke-width:1.0;" width="10" x="828" y="376.1641"/><rect fill="#FFFFFF" height="71.2656" style="stroke:#181818;stroke-width:1.0;" width="10" x="828" y="717.2969"/><rect fill="none" height="711.5938" style="stroke:#000000;stroke-width:1.5;" width="803.5" x="107.5" y="563.8281"/><rect fill="none" height="322.3281" style="stroke:#000000;stroke-width:1.5;" width="783.5" x="117.5" y="946.0938"/><rect fill="none" height="132.5313" style="stroke:#000000;stroke-width:1.5;" width="375" x="127.5" y="1128.8906"/><rect fill="none" height="59.2656" style="stroke:#000000;stroke-width:1.5;" width="355" x="137.5" y="1153.0234"/><line style="stroke:#181818;stroke-width:0.5;stroke-dasharray:5.0,5.0;" x1="33" x2="33" y1="101.4297" y2="183.6953"/><line style="stroke:#383838;stroke-width:1.0;stroke-dasharray:1.0,4.0;" x1="33" x2="33" y1="183.6953" y2="224.5"/><line style="stroke:#181818;stroke-width:0.5;stroke-dasharray:5.0,5.0;" x1="33" x2="33" y1="224.5" y2="1335.5547"/><line style="stroke:#181818;stroke-width:0.5;stroke-dasharray:5.0,5.0;" x1="114.5" x2="114.5" y1="101.4297" y2="183.6953"/><line style="stroke:#383838;stroke-width:1.0;stroke-dasharray:1.0,4.0;" x1="114.5" x2="114.5" y1="183.6953" y2="224.5"/><line style="stroke:#181818;stroke-width:0.5;stroke-dasharray:5.0,5.0;" x1="114.5" x2="114.5" y1="224.5" y2="1335.5547"/><line style="stroke:#181818;stroke-width:0.5;stroke-dasharray:5.0,5.0;" x1="201.5" x2="201.5" y1="101.4297" y2="183.6953"/><line style="stroke:#383838;stroke-width:1.0;stroke-dasharray:1.0,4.0;" x1="201.5" x2="201.5" y1="183.6953" y2="224.5"/><line style="stroke:#181818;stroke-width:0.5;stroke-dasharray:5.0,5.0;" x1="201.5" x2="201.5" y1="224.5" y2="1335.5547"/><line style="stroke:#181818;stroke-width:0.5;stroke-dasharray:5.0,5.0;" x1="438" x2="438" y1="101.4297" y2="183.6953"/><line style="stroke:#383838;stroke-width:1.0;stroke-dasharray:1.0,4.0;" x1="438" x2="438" y1="183.6953" y2="224.5"/><line style="stroke:#181818;stroke-width:0.5;stroke-dasharray:5.0,5.0;" x1="438" x2="438" y1="224.5" y2="1335.5547"/><line style="stroke:#181818;stroke-width:0.5;stroke-dasharray:5.0,5.0;" x1="653.5" x2="653.5" y1="101.4297" y2="183.6953"/><line style="stroke:#383838;stroke-width:1.0;stroke-dasharray:1.0,4.0;" x1="653.5" x2="653.5" y1="183.6953" y2="224.5"/><line style="stroke:#181818;stroke-width:0.5;stroke-dasharray:5.0,5.0;" x1="653.5" x2="653.5" y1="224.5" y2="1335.5547"/><line style="stroke:#181818;stroke-width:0.5;stroke-dasharray:5.0,5.0;" x1="833" x2="833" y1="101.4297" y2="183.6953"/><line style="stroke:#383838;stroke-width:1.0;stroke-dasharray:1.0,4.0;" x1="833" x2="833" y1="183.6953" y2="224.5"/><line style="stroke:#181818;stroke-width:0.5;stroke-dasharray:5.0,5.0;" x1="833" x2="833" y1="224.5" y2="1335.5547"/><text fill="#000000" font-family="sans-serif" font-size="14" lengthAdjust="spacing" textLength="31" x="15" y="98.1279">user</text><ellipse cx="33.5" cy="33.6328" fill="#E3E3E3" rx="8" ry="8" style="stroke:#181818;stroke-width:0.5;"/><path d="M33.5,41.6328 L33.5,68.6328 M20.5,49.6328 L46.5,49.6328 M33.5,68.6328 L20.5,83.6328 M33.5,68.6328 L46.5,83.6328 " fill="none" style="stroke:#181818;stroke-width:0.5;"/><rect fill="#E3E3E3" height="30.2969" rx="2.5" ry="2.5" style="stroke:#181818;stroke-width:0.5;" width="46" x="91.5" y="70.1328"/><text fill="#000000" font-family="sans-serif" font-size="14" lengthAdjust="spacing" textLength="32" x="98.5" y="90.1279">Main</text><rect fill="#E3E3E3" height="30.2969" rx="2.5" ry="2.5" style="stroke:#181818;stroke-width:0.5;" width="109" x="147.5" y="70.1328"/><text fill="#000000" font-family="sans-serif" font-size="14" lengthAdjust="spacing" textLength="95" x="154.5" y="90.1279">CliCommands</text><rect fill="#E3E3E3" height="30.2969" rx="2.5" ry="2.5" style="stroke:#181818;stroke-width:0.5;" width="138" x="369" y="70.1328"/><text fill="#000000" font-family="sans-serif" font-size="14" lengthAdjust="spacing" textLength="124" x="376" y="90.1279">ServerConnection</text><rect fill="#E3E3E3" height="46.5938" rx="2.5" ry="2.5" style="stroke:#181818;stroke-width:0.5;" width="169" x="569.5" y="53.8359"/><text fill="#000000" font-family="sans-serif" font-size="14" lengthAdjust="spacing" textLength="47" x="630.5" y="73.8311">&#171;task&#187;</text><text fill="#000000" font-family="sans-serif" font-size="14" lengthAdjust="spacing" textLength="155" x="576.5" y="90.1279">CommunicationsClient</text><rect fill="#E3E3E3" height="30.2969" rx="2.5" ry="2.5" style="stroke:#181818;stroke-width:0.5;" width="116" x="775" y="70.1328"/><text fill="#000000" font-family="sans-serif" font-size="14" lengthAdjust="spacing" textLength="102" x="782" y="90.1279">Ankaios Server</text><rect fill="#FFFFFF" height="51.1328" style="stroke:#FFFFFF;stroke-width:1.0;" width="10" x="109.5" y="132.5625"/><line style="stroke:#181818;stroke-width:1.0;" x1="109.5" x2="109.5" y1="132.5625" y2="183.6953"/><line style="stroke:#181818;stroke-width:1.0;" x1="119.5" x2="119.5" y1="132.5625" y2="183.6953"/><line style="stroke:#181818;stroke-width:1.0;" x1="109.5" x2="119.5" y1="132.5625" y2="132.5625"/><rect fill="#FFFFFF" height="1093.0547" style="stroke:#FFFFFF;stroke-width:1.0;" width="10" x="109.5" y="224.5"/><line style="stroke:#181818;stroke-width:1.0;" x1="109.5" x2="109.5" y1="224.5" y2="1317.5547"/><line style="stroke:#181818;stroke-width:1.0;" x1="119.5" x2="119.5" y1="224.5" y2="1317.5547"/><line style="stroke:#181818;stroke-width:1.0;" x1="109.5" x2="119.5" y1="1317.5547" y2="1317.5547"/><rect fill="#FFFFFF" height="999.6563" style="stroke:#181818;stroke-width:1.0;" width="10" x="197" y="288.7656"/><rect fill="#FFFFFF" height="187.7969" style="stroke:#181818;stroke-width:1.0;" width="10" x="433" y="317.8984"/><rect fill="#FFFFFF" height="63.2656" style="stroke:#181818;stroke-width:1.0;" width="10" x="438" y="413.2969"/><rect fill="#FFFFFF" height="187.7969" style="stroke:#181818;stroke-width:1.0;" width="10" x="433" y="659.0313"/><rect fill="#FFFFFF" height="63.2656" style="stroke:#181818;stroke-width:1.0;" width="10" x="438" y="754.4297"/><rect fill="#FFFFFF" height="129.5313" style="stroke:#181818;stroke-width:1.0;" width="10" x="433" y="984.3594"/><rect fill="#FFFFFF" height="63.2656" style="stroke:#181818;stroke-width:1.0;" width="10" x="438" y="1021.4922"/><rect fill="#FFFFFF" height="29.1328" style="stroke:#181818;stroke-width:1.0;" width="10" x="649" y="347.0313"/><rect fill="#FFFFFF" height="29.1328" style="stroke:#181818;stroke-width:1.0;" width="10" x="649" y="447.4297"/><rect fill="#FFFFFF" height="29.1328" style="stroke:#181818;stroke-width:1.0;" width="10" x="649" y="688.1641"/><rect fill="#FFFFFF" height="29.1328" style="stroke:#181818;stroke-width:1.0;" width="10" x="649" y="788.5625"/><rect fill="#FFFFFF" height="29.1328" style="stroke:#181818;stroke-width:1.0;" width="10" x="649" y="1055.625"/><rect fill="#FFFFFF" height="71.2656" style="stroke:#181818;stroke-width:1.0;" width="10" x="828" y="376.1641"/><rect fill="#FFFFFF" height="71.2656" style="stroke:#181818;stroke-width:1.0;" width="10" x="828" y="717.2969"/><polygon fill="#181818" points="97.5,128.5625,107.5,132.5625,97.5,136.5625" style="stroke:#181818;stroke-width:1.0;"/><line style="stroke:#181818;stroke-width:1.0;" x1="33.5" x2="103.5" y1="132.5625" y2="132.5625"/><text fill="#000000" font-family="sans-serif" font-size="13" lengthAdjust="spacing" textLength="57" x="40.5" y="127.4966">set state</text><rect fill="#EEEEEE" height="3" style="stroke:#EEEEEE;stroke-width:1.0;" width="921" x="0" y="161.1289"/><line style="stroke:#000000;stroke-width:1.0;" x1="0" x2="921" y1="161.1289" y2="161.1289"/><line style="stroke:#000000;stroke-width:1.0;" x1="0" x2="921" y1="164.1289" y2="164.1289"/><rect fill="#EEEEEE" height="23.1328" style="stroke:#000000;stroke-width:2.0;" width="73" x="424" y="150.5625"/><text fill="#000000" font-family="sans-serif" font-size="13" font-weight="bold" lengthAdjust="spacing" textLength="54" x="430" y="166.6294">startup</text><text fill="#000000" font-family="sans-serif" font-size="11" lengthAdjust="spacing" textLength="66" x="400.25" y="207.9058">initialization</text><rect fill="#EEEEEE" height="3" style="stroke:#EEEEEE;stroke-width:1.0;" width="921" x="0" y="245.0664"/><line style="stroke:#000000;stroke-width:1.0;" x1="0" x2="921" y1="245.0664" y2="245.0664"/><line style="stroke:#000000;stroke-width:1.0;" x1="0" x2="921" y1="248.0664" y2="248.0664"/><rect fill="#EEEEEE" height="23.1328" style="stroke:#000000;stroke-width:2.0;" width="92" x="414.5" y="234.5"/><text fill="#000000" font-family="sans-serif" font-size="13" font-weight="bold" lengthAdjust="spacing" textLength="73" x="420.5" y="250.5669">command</text><polygon fill="#181818" points="185,284.7656,195,288.7656,185,292.7656" style="stroke:#181818;stroke-width:1.0;"/><line style="stroke:#181818;stroke-width:1.0;" x1="119.5" x2="191" y1="288.7656" y2="288.7656"/><text fill="#000000" font-family="sans-serif" font-size="13" lengthAdjust="spacing" textLength="57" x="126.5" y="283.6997">set state</text><polygon fill="#181818" points="421,313.8984,431,317.8984,421,321.8984" style="stroke:#181818;stroke-width:1.0;"/><line style="stroke:#181818;stroke-width:1.0;" x1="207" x2="427" y1="317.8984" y2="317.8984"/><text fill="#000000" font-family="sans-serif" font-size="13" lengthAdjust="spacing" textLength="135" x="214" y="312.8325">request update state</text><line style="stroke:#181818;stroke-width:1.0;" x1="647" x2="637" y1="347.0313" y2="343.0313"/><line style="stroke:#181818;stroke-width:1.0;" x1="647" x2="637" y1="347.0313" y2="351.0313"/><line style="stroke:#181818;stroke-width:1.0;" x1="443" x2="648" y1="347.0313" y2="347.0313"/><text fill="#000000" font-family="sans-serif" font-size="13" lengthAdjust="spacing" textLength="135" x="450" y="341.9653">request update state</text><line style="stroke:#181818;stroke-width:1.0;" x1="826" x2="816" y1="376.1641" y2="372.1641"/><line style="stroke:#181818;stroke-width:1.0;" x1="826" x2="816" y1="376.1641" y2="380.1641"/><line style="stroke:#181818;stroke-width:1.0;" x1="654" x2="827" y1="376.1641" y2="376.1641"/><text fill="#000000" font-family="sans-serif" font-size="13" lengthAdjust="spacing" textLength="135" x="661" y="371.0981">request update state</text><line style="stroke:#181818;stroke-width:1.0;" x1="443" x2="490" y1="400.2969" y2="400.2969"/><line style="stroke:#181818;stroke-width:1.0;" x1="490" x2="490" y1="400.2969" y2="413.2969"/><line style="stroke:#181818;stroke-width:1.0;" x1="449" x2="490" y1="413.2969" y2="413.2969"/><polygon fill="#181818" points="459,409.2969,449,413.2969,459,417.2969" style="stroke:#181818;stroke-width:1.0;"/><text fill="#000000" font-family="sans-serif" font-size="13" lengthAdjust="spacing" textLength="134" x="455" y="395.231">wait for the response</text><line style="stroke:#181818;stroke-width:1.0;" x1="660" x2="670" y1="447.4297" y2="443.4297"/><line style="stroke:#181818;stroke-width:1.0;" x1="660" x2="670" y1="447.4297" y2="451.4297"/><line style="stroke:#181818;stroke-width:1.0;" x1="659" x2="832" y1="447.4297" y2="447.4297"/><text fill="#000000" font-family="sans-serif" font-size="13" lengthAdjust="spacing" textLength="122" x="676" y="442.3638">changed workloads</text><line style="stroke:#181818;stroke-width:1.0;" x1="444" x2="454" y1="476.5625" y2="472.5625"/><line style="stroke:#181818;stroke-width:1.0;" x1="444" x2="454" y1="476.5625" y2="480.5625"/><line style="stroke:#181818;stroke-width:1.0;" x1="443" x2="653" y1="476.5625" y2="476.5625"/><text fill="#000000" font-family="sans-serif" font-size="13" lengthAdjust="spacing" textLength="122" x="460" y="471.4966">changed workloads</text><line style="stroke:#181818;stroke-width:1.0;" x1="208" x2="218" y1="505.6953" y2="501.6953"/><line style="stroke:#181818;stroke-width:1.0;" x1="208" x2="218" y1="505.6953" y2="509.6953"/><line style="stroke:#181818;stroke-width:1.0;" x1="207" x2="437" y1="505.6953" y2="505.6953"/><text fill="#000000" font-family="sans-serif" font-size="13" lengthAdjust="spacing" textLength="122" x="224" y="500.6294">changed workloads</text><rect fill="#EEEEEE" height="3" style="stroke:#EEEEEE;stroke-width:1.0;" width="921" x="0" y="534.2617"/><line style="stroke:#000000;stroke-width:1.0;" x1="0" x2="921" y1="534.2617" y2="534.2617"/><line style="stroke:#000000;stroke-width:1.0;" x1="0" x2="921" y1="537.2617" y2="537.2617"/><rect fill="#EEEEEE" height="23.1328" style="stroke:#000000;stroke-width:2.0;" width="273" x="324" y="523.6953"/><text fill="#000000" font-family="sans-serif" font-size="13" font-weight="bold" lengthAdjust="spacing" textLength="254" x="330" y="539.7622">wait for workloads and print state</text><path d="M107.5,563.8281 L171.5,563.8281 L171.5,570.9609 L161.5,580.9609 L107.5,580.9609 L107.5,563.8281 " fill="#EEEEEE" style="stroke:#000000;stroke-width:1.5;"/><rect fill="none" height="711.5938" style="stroke:#000000;stroke-width:1.5;" width="803.5" x="107.5" y="563.8281"/><text fill="#000000" font-family="sans-serif" font-size="13" font-weight="bold" lengthAdjust="spacing" textLength="19" x="122.5" y="576.895">alt</text><text fill="#000000" font-family="sans-serif" font-size="11" font-weight="bold" lengthAdjust="spacing" textLength="155" x="186.5" y="576.0386">[no workloads changed]</text><line style="stroke:#181818;stroke-width:1.0;" x1="207" x2="249" y1="602.0938" y2="602.0938"/><line style="stroke:#181818;stroke-width:1.0;" x1="249" x2="249" y1="602.0938" y2="615.0938"/><line style="stroke:#181818;stroke-width:1.0;" x1="208" x2="249" y1="615.0938" y2="615.0938"/><polygon fill="#181818" points="218,611.0938,208,615.0938,218,619.0938" style="stroke:#181818;stroke-width:1.0;"/><text fill="#000000" font-family="sans-serif" font-size="13" lengthAdjust="spacing" textLength="207" x="214" y="597.0278">output "No workloads to update"</text><line style="stroke:#000000;stroke-width:1.0;stroke-dasharray:2.0,2.0;" x1="107.5" x2="911" y1="624.0938" y2="624.0938"/><text fill="#000000" font-family="sans-serif" font-size="11" font-weight="bold" lengthAdjust="spacing" textLength="135" x="112.5" y="634.3042">[workloads changed]</text><polygon fill="#181818" points="421,655.0313,431,659.0313,421,663.0313" style="stroke:#181818;stroke-width:1.0;"/><line style="stroke:#181818;stroke-width:1.0;" x1="207" x2="427" y1="659.0313" y2="659.0313"/><text fill="#000000" font-family="sans-serif" font-size="13" lengthAdjust="spacing" textLength="150" x="214" y="653.9653">request complete state</text><line style="stroke:#181818;stroke-width:1.0;" x1="647" x2="637" y1="688.1641" y2="684.1641"/><line style="stroke:#181818;stroke-width:1.0;" x1="647" x2="637" y1="688.1641" y2="692.1641"/><line style="stroke:#181818;stroke-width:1.0;" x1="443" x2="648" y1="688.1641" y2="688.1641"/><text fill="#000000" font-family="sans-serif" font-size="13" lengthAdjust="spacing" textLength="150" x="450" y="683.0981">request complete state</text><line style="stroke:#181818;stroke-width:1.0;" x1="826" x2="816" y1="717.2969" y2="713.2969"/><line style="stroke:#181818;stroke-width:1.0;" x1="826" x2="816" y1="717.2969" y2="721.2969"/><line style="stroke:#181818;stroke-width:1.0;" x1="654" x2="827" y1="717.2969" y2="717.2969"/><text fill="#000000" font-family="sans-serif" font-size="13" lengthAdjust="spacing" textLength="150" x="661" y="712.231">request complete state</text><line style="stroke:#181818;stroke-width:1.0;" x1="443" x2="490" y1="741.4297" y2="741.4297"/><line style="stroke:#181818;stroke-width:1.0;" x1="490" x2="490" y1="741.4297" y2="754.4297"/><line style="stroke:#181818;stroke-width:1.0;" x1="449" x2="490" y1="754.4297" y2="754.4297"/><polygon fill="#181818" points="459,750.4297,449,754.4297,459,758.4297" style="stroke:#181818;stroke-width:1.0;"/><text fill="#000000" font-family="sans-serif" font-size="13" lengthAdjust="spacing" textLength="134" x="455" y="736.3638">wait for the response</text><line style="stroke:#181818;stroke-width:1.0;" x1="660" x2="670" y1="788.5625" y2="784.5625"/><line style="stroke:#181818;stroke-width:1.0;" x1="660" x2="670" y1="788.5625" y2="792.5625"/><line style="stroke:#181818;stroke-width:1.0;" x1="659" x2="832" y1="788.5625" y2="788.5625"/><text fill="#000000" font-family="sans-serif" font-size="13" lengthAdjust="spacing" textLength="97" x="676" y="783.4966">complete state</text><line style="stroke:#181818;stroke-width:1.0;" x1="444" x2="454" y1="817.6953" y2="813.6953"/><line style="stroke:#181818;stroke-width:1.0;" x1="444" x2="454" y1="817.6953" y2="821.6953"/><line style="stroke:#181818;stroke-width:1.0;" x1="443" x2="653" y1="817.6953" y2="817.6953"/><text fill="#000000" font-family="sans-serif" font-size="13" lengthAdjust="spacing" textLength="97" x="460" y="812.6294">complete state</text><line style="stroke:#181818;stroke-width:1.0;" x1="208" x2="218" y1="846.8281" y2="842.8281"/><line style="stroke:#181818;stroke-width:1.0;" x1="208" x2="218" y1="846.8281" y2="850.8281"/><line style="stroke:#181818;stroke-width:1.0;" x1="207" x2="437" y1="846.8281" y2="846.8281"/><text fill="#000000" font-family="sans-serif" font-size="13" lengthAdjust="spacing" textLength="97" x="224" y="841.7622">complete state</text><line style="stroke:#181818;stroke-width:1.0;" x1="207" x2="249" y1="875.9609" y2="875.9609"/><line style="stroke:#181818;stroke-width:1.0;" x1="249" x2="249" y1="875.9609" y2="888.9609"/><line style="stroke:#181818;stroke-width:1.0;" x1="208" x2="249" y1="888.9609" y2="888.9609"/><polygon fill="#181818" points="218,884.9609,208,888.9609,218,892.9609" style="stroke:#181818;stroke-width:1.0;"/><text fill="#000000" font-family="sans-serif" font-size="13" lengthAdjust="spacing" textLength="175" x="214" y="870.895">filter for changed workloads</text><line style="stroke:#181818;stroke-width:1.0;" x1="207" x2="249" y1="918.0938" y2="918.0938"/><line style="stroke:#181818;stroke-width:1.0;" x1="249" x2="249" y1="918.0938" y2="931.0938"/><line style="stroke:#181818;stroke-width:1.0;" x1="208" x2="249" y1="931.0938" y2="931.0938"/><polygon fill="#181818" points="218,927.0938,208,931.0938,218,935.0938" style="stroke:#181818;stroke-width:1.0;"/><text fill="#000000" font-family="sans-serif" font-size="13" lengthAdjust="spacing" textLength="125" x="214" y="913.0278">print workload table</text><path d="M117.5,946.0938 L194.5,946.0938 L194.5,953.2266 L184.5,963.2266 L117.5,963.2266 L117.5,946.0938 " fill="#EEEEEE" style="stroke:#000000;stroke-width:1.5;"/><rect fill="none" height="322.3281" style="stroke:#000000;stroke-width:1.5;" width="783.5" x="117.5" y="946.0938"/><text fill="#000000" font-family="sans-serif" font-size="13" font-weight="bold" lengthAdjust="spacing" textLength="32" x="132.5" y="959.1606">loop</text><text fill="#000000" font-family="sans-serif" font-size="11" font-weight="bold" lengthAdjust="spacing" textLength="310" x="209.5" y="958.3042">[until all changed workloads have been marked]</text><polygon fill="#181818" points="421,980.3594,431,984.3594,421,988.3594" style="stroke:#181818;stroke-width:1.0;"/><line style="stroke:#181818;stroke-width:1.0;" x1="207" x2="427" y1="984.3594" y2="984.3594"/><text fill="#000000" font-family="sans-serif" font-size="13" lengthAdjust="spacing" textLength="207" x="214" y="979.2935">read next update workload state</text><line style="stroke:#181818;stroke-width:1.0;" x1="443" x2="490" y1="1008.4922" y2="1008.4922"/><line style="stroke:#181818;stroke-width:1.0;" x1="490" x2="490" y1="1008.4922" y2="1021.4922"/><line style="stroke:#181818;stroke-width:1.0;" x1="449" x2="490" y1="1021.4922" y2="1021.4922"/><polygon fill="#181818" points="459,1017.4922,449,1021.4922,459,1025.4922" style="stroke:#181818;stroke-width:1.0;"/><text fill="#000000" font-family="sans-serif" font-size="13" lengthAdjust="spacing" textLength="192" x="455" y="1003.4263">wait for update workload state</text><line style="stroke:#181818;stroke-width:1.0;" x1="660" x2="670" y1="1055.625" y2="1051.625"/><line style="stroke:#181818;stroke-width:1.0;" x1="660" x2="670" y1="1055.625" y2="1059.625"/><line style="stroke:#181818;stroke-width:1.0;" x1="659" x2="832" y1="1055.625" y2="1055.625"/><text fill="#000000" font-family="sans-serif" font-size="13" lengthAdjust="spacing" textLength="142" x="676" y="1050.5591">update workload state</text><line style="stroke:#181818;stroke-width:1.0;" x1="444" x2="454" y1="1084.7578" y2="1080.7578"/><line style="stroke:#181818;stroke-width:1.0;" x1="444" x2="454" y1="1084.7578" y2="1088.7578"/><line style="stroke:#181818;stroke-width:1.0;" x1="443" x2="653" y1="1084.7578" y2="1084.7578"/><text fill="#000000" font-family="sans-serif" font-size="13" lengthAdjust="spacing" textLength="142" x="460" y="1079.6919">update workload state</text><line style="stroke:#181818;stroke-width:1.0;" x1="208" x2="218" y1="1113.8906" y2="1109.8906"/><line style="stroke:#181818;stroke-width:1.0;" x1="208" x2="218" y1="1113.8906" y2="1117.8906"/><line style="stroke:#181818;stroke-width:1.0;" x1="207" x2="437" y1="1113.8906" y2="1113.8906"/><text fill="#000000" font-family="sans-serif" font-size="13" lengthAdjust="spacing" textLength="142" x="224" y="1108.8247">update workload state</text><path d="M127.5,1128.8906 L191.5,1128.8906 L191.5,1136.0234 L181.5,1146.0234 L127.5,1146.0234 L127.5,1128.8906 " fill="#EEEEEE" style="stroke:#000000;stroke-width:1.5;"/><rect fill="none" height="132.5313" style="stroke:#000000;stroke-width:1.5;" width="375" x="127.5" y="1128.8906"/><text fill="#000000" font-family="sans-serif" font-size="13" font-weight="bold" lengthAdjust="spacing" textLength="19" x="142.5" y="1141.9575">alt</text><text fill="#000000" font-family="sans-serif" font-size="11" font-weight="bold" lengthAdjust="spacing" textLength="271" x="206.5" y="1141.1011">[updated workload in changed workloads]</text><path d="M137.5,1153.0234 L201.5,1153.0234 L201.5,1160.1563 L191.5,1170.1563 L137.5,1170.1563 L137.5,1153.0234 " fill="#EEEEEE" style="stroke:#000000;stroke-width:1.5;"/><rect fill="none" height="59.2656" style="stroke:#000000;stroke-width:1.5;" width="355" x="137.5" y="1153.0234"/><text fill="#000000" font-family="sans-serif" font-size="13" font-weight="bold" lengthAdjust="spacing" textLength="19" x="152.5" y="1166.0903">alt</text><text fill="#000000" font-family="sans-serif" font-size="11" font-weight="bold" lengthAdjust="spacing" textLength="271" x="216.5" y="1165.2339">[updated workload reached desired state]</text><line style="stroke:#181818;stroke-width:1.0;" x1="207" x2="249" y1="1191.2891" y2="1191.2891"/><line style="stroke:#181818;stroke-width:1.0;" x1="249" x2="249" y1="1191.2891" y2="1204.2891"/><line style="stroke:#181818;stroke-width:1.0;" x1="208" x2="249" y1="1204.2891" y2="1204.2891"/><polygon fill="#181818" points="218,1200.2891,208,1204.2891,218,1208.2891" style="stroke:#181818;stroke-width:1.0;"/><text fill="#000000" font-family="sans-serif" font-size="13" lengthAdjust="spacing" textLength="169" x="214" y="1186.2231">mark workload as updated</text><line style="stroke:#181818;stroke-width:1.0;" x1="207" x2="249" y1="1240.4219" y2="1240.4219"/><line style="stroke:#181818;stroke-width:1.0;" x1="249" x2="249" y1="1240.4219" y2="1253.4219"/><line style="stroke:#181818;stroke-width:1.0;" x1="208" x2="249" y1="1253.4219" y2="1253.4219"/><polygon fill="#181818" points="218,1249.4219,208,1253.4219,218,1257.4219" style="stroke:#181818;stroke-width:1.0;"/><text fill="#000000" font-family="sans-serif" font-size="13" lengthAdjust="spacing" textLength="182" x="214" y="1235.356">print updated workload table</text><line style="stroke:#181818;stroke-width:1.0;" x1="120.5" x2="130.5" y1="1288.4219" y2="1284.4219"/><line style="stroke:#181818;stroke-width:1.0;" x1="120.5" x2="130.5" y1="1288.4219" y2="1292.4219"/><line style="stroke:#181818;stroke-width:1.0;stroke-dasharray:2.0,2.0;" x1="119.5" x2="201" y1="1288.4219" y2="1288.4219"/><polygon fill="#181818" points="44.5,1313.5547,34.5,1317.5547,44.5,1321.5547" style="stroke:#181818;stroke-width:1.0;"/><line style="stroke:#181818;stroke-width:1.0;" x1="38.5" x2="113.5" y1="1317.5547" y2="1317.5547"/><text fill="#000000" font-family="sans-serif" font-size="13" lengthAdjust="spacing" textLength="23" x="50.5" y="1312.4888">exit</text><!--SRC=[dPPDZzem48Rl_XNJN5S9TmH85UVsqckbbN5cYuMnKzjXKNzznqusWTW9oo9Gm9vvv-l1oJUfXMfhXAfQ3M-BphHMe5lLHgmQnRLlpseb579TkPFKZ1tC5Ohl-iIbSK3NWW6zkF36Gj4wj0Lm1-5Bt6YuzLB8XfJW1vSwR9xfccmMUoNtvdpckdPHGYZvAlg5rFeNsWlQlT4QXPT6HnSN5ydhOpNrssmyTwVTxhSEmLej1G-6ZgAZzbtWkurN4NSOwXgezaa3kZIADCx4OCnk50ezWd8Nsm4lBx0c2m_ESu-CRRVXc_Lj0zijOrLLWTJIIwxalvWOpQsAPdsFebcK8idRtasbx_R8DcaQEQp1ujyMdOUsgScfTqrDozqktwzPZQnrrEdKeInZmbddR0Op5RnpwU6DgFH793NNK3XIoCVVRChR-6iGHwx_O0tlnfwKuOHW6YKupPHJvXHgfB-9lCHo4bBlnZAcSsEI5mq83AKEon28QApK_TGZ7LnvqER6g5UBz4wnkFsz1jFwfYMiVzwwUzDFfs2e76Q4iyhBm95bet2OU13u8dOPfMVXcqZCPlCKWlE9f1H-fXaFC4mb5ZbC9fPbSKvwcQ8tgJpL5ZgIWlpOlUFvmmCyFwX-9igO1bhjfGAkL2eEHtv1E21gEctjgKV-6JWfdiRhS1mDIOobVvMDlEAOu2DIWjYpMIqZiwpsa9ud27fGUpYmEfDnbdGRd85dqOicA8wqKAEJ5gSrpT5mprz0PrGCJpbTb3iPkhsppqjsI2VPTcXF9SCrVBhRF7MrdAYNZFMF5TJnxbcWfDCChzAp_m00]--></g></svg>