<?xml version="1.0" encoding="us-ascii" standalone="no"?><svg xmlns="http://www.w3.org/2000/svg" xmlns:xlink="http://www.w3.org/1999/xlink" contentStyleType="text/css" height="515px" preserveAspectRatio="none" style="width:743px;height:515px;background:#FFFFFF;" version="1.1" viewBox="0 0 743 515" width="743px" zoomAndPan="magnify"><defs/><g><rect fill="#EEEEEE" height="496.5625" style="stroke:#D3D3D3;stroke-width:0.5;" width="553.5" x="11" y="6"/><text fill="#777777" font-family="sans-serif" font-size="13" font-weight="bold" lengthAdjust="spacing" textLength="91" x="242.25" y="18.0669">Ankaios Ank</text><rect fill="#EEEEEE" height="496.5625" style="stroke:#D3D3D3;stroke-width:0.5;" width="124" x="601.5" y="6"/><text fill="#777777" font-family="sans-serif" font-size="13" font-weight="bold" lengthAdjust="spacing" textLength="110" x="608.5" y="18.0669">Ankaios Server</text><rect fill="#FFFFFF" height="51.1328" style="stroke:#FFFFFF;stroke-width:1.0;" width="10" x="100" y="132.5625"/><line style="stroke:#181818;stroke-width:1.0;" x1="100" x2="100" y1="132.5625" y2="183.6953"/><line style="stroke:#181818;stroke-width:1.0;" x1="110" x2="110" y1="132.5625" y2="183.6953"/><line style="stroke:#181818;stroke-width:1.0;" x1="100" x2="110" y1="132.5625" y2="132.5625"/><rect fill="#FFFFFF" height="266.0625" style="stroke:#FFFFFF;stroke-width:1.0;" width="10" x="100" y="224.5"/><line style="stroke:#181818;stroke-width:1.0;" x1="100" x2="100" y1="224.5" y2="490.5625"/><line style="stroke:#181818;stroke-width:1.0;" x1="110" x2="110" y1="224.5" y2="490.5625"/><line style="stroke:#181818;stroke-width:1.0;" x1="100" x2="110" y1="490.5625" y2="490.5625"/><rect fill="#FFFFFF" height="29.1328" style="stroke:#181818;stroke-width:1.0;" width="10" x="210" y="288.7656"/><rect fill="#FFFFFF" height="77.2656" style="stroke:#181818;stroke-width:1.0;" width="10" x="210" y="384.1641"/><rect fill="#FFFFFF" height="29.1328" style="stroke:#181818;stroke-width:1.0;" width="10" x="358" y="418.2969"/><rect fill="#FFFFFF" height="29.1328" style="stroke:#181818;stroke-width:1.0;" width="10" x="494.5" y="317.8984"/><rect fill="#FFFFFF" height="71.2656" style="stroke:#181818;stroke-width:1.0;" width="10" x="658.5" y="347.0313"/><line style="stroke:#181818;stroke-width:0.5;stroke-dasharray:5.0,5.0;" x1="33" x2="33" y1="101.4297" y2="183.6953"/><line style="stroke:#383838;stroke-width:1.0;stroke-dasharray:1.0,4.0;" x1="33" x2="33" y1="183.6953" y2="224.5"/><line style="stroke:#181818;stroke-width:0.5;stroke-dasharray:5.0,5.0;" x1="33" x2="33" y1="224.5" y2="508.5625"/><line style="stroke:#181818;stroke-width:0.5;stroke-dasharray:5.0,5.0;" x1="105" x2="105" y1="101.4297" y2="183.6953"/><line style="stroke:#383838;stroke-width:1.0;stroke-dasharray:1.0,4.0;" x1="105" x2="105" y1="183.6953" y2="224.5"/><line style="stroke:#181818;stroke-width:0.5;stroke-dasharray:5.0,5.0;" x1="105" x2="105" y1="224.5" y2="508.5625"/><line style="stroke:#181818;stroke-width:0.5;stroke-dasharray:5.0,5.0;" x1="214.5" x2="214.5" y1="101.4297" y2="183.6953"/><line style="stroke:#383838;stroke-width:1.0;stroke-dasharray:1.0,4.0;" x1="214.5" x2="214.5" y1="183.6953" y2="224.5"/><line style="stroke:#181818;stroke-width:0.5;stroke-dasharray:5.0,5.0;" x1="214.5" x2="214.5" y1="224.5" y2="508.5625"/><line style="stroke:#181818;stroke-width:0.5;stroke-dasharray:5.0,5.0;" x1="362.5" x2="362.5" y1="101.4297" y2="183.6953"/><line style="stroke:#383838;stroke-width:1.0;stroke-dasharray:1.0,4.0;" x1="362.5" x2="362.5" y1="183.6953" y2="224.5"/><line style="stroke:#181818;stroke-width:0.5;stroke-dasharray:5.0,5.0;" x1="362.5" x2="362.5" y1="224.5" y2="508.5625"/><line style="stroke:#181818;stroke-width:0.5;stroke-dasharray:5.0,5.0;" x1="499.5" x2="499.5" y1="101.4297" y2="183.6953"/><line style="stroke:#383838;stroke-width:1.0;stroke-dasharray:1.0,4.0;" x1="499.5" x2="499.5" y1="183.6953" y2="224.5"/><line style="stroke:#181818;stroke-width:0.5;stroke-dasharray:5.0,5.0;" x1="499.5" x2="499.5" y1="224.5" y2="508.5625"/><line style="stroke:#181818;stroke-width:0.5;stroke-dasharray:5.0,5.0;" x1="663.5" x2="663.5" y1="101.4297" y2="183.6953"/><line style="stroke:#383838;stroke-width:1.0;stroke-dasharray:1.0,4.0;" x1="663.5" x2="663.5" y1="183.6953" y2="224.5"/><line style="stroke:#181818;stroke-width:0.5;stroke-dasharray:5.0,5.0;" x1="663.5" x2="663.5" y1="224.5" y2="508.5625"/><text fill="#000000" font-family="sans-serif" font-size="14" lengthAdjust="spacing" textLength="31" x="15" y="98.1279">user</text><ellipse cx="33.5" cy="33.6328" fill="#E3E3E3" rx="8" ry="8" style="stroke:#181818;stroke-width:0.5;"/><path d="M33.5,41.6328 L33.5,68.6328 M20.5,49.6328 L46.5,49.6328 M33.5,68.6328 L20.5,83.6328 M33.5,68.6328 L46.5,83.6328 " fill="none" style="stroke:#181818;stroke-width:0.5;"/><rect fill="#E3E3E3" height="30.2969" rx="2.5" ry="2.5" style="stroke:#181818;stroke-width:0.5;" width="46" x="82" y="70.1328"/><text fill="#000000" font-family="sans-serif" font-size="14" lengthAdjust="spacing" textLength="32" x="89" y="90.1279">Main</text><rect fill="#E3E3E3" height="30.2969" rx="2.5" ry="2.5" style="stroke:#181818;stroke-width:0.5;" width="109" x="160.5" y="70.1328"/><text fill="#000000" font-family="sans-serif" font-size="14" lengthAdjust="spacing" textLength="95" x="167.5" y="90.1279">CliCommands</text><rect fill="#E3E3E3" height="62.8906" rx="2.5" ry="2.5" style="stroke:#181818;stroke-width:0.5;" width="131" x="297.5" y="37.5391"/><text fill="#000000" font-family="sans-serif" font-size="14" lengthAdjust="spacing" textLength="47" x="339.5" y="57.5342">&#171;task&#187;</text><text fill="#000000" font-family="sans-serif" font-size="14" lengthAdjust="spacing" textLength="117" x="304.5" y="73.8311">Listen to Ankaios</text><text fill="#000000" font-family="sans-serif" font-size="14" lengthAdjust="spacing" textLength="44" x="341" y="90.1279">Server</text><rect fill="#E3E3E3" height="62.8906" rx="2.5" ry="2.5" style="stroke:#181818;stroke-width:0.5;" width="122" x="438.5" y="37.5391"/><text fill="#000000" font-family="sans-serif" font-size="14" lengthAdjust="spacing" textLength="47" x="476" y="57.5342">&#171;task&#187;</text><text fill="#000000" font-family="sans-serif" font-size="14" lengthAdjust="spacing" textLength="104" x="445.5" y="73.8311">Listen to Agent</text><text fill="#000000" font-family="sans-serif" font-size="14" lengthAdjust="spacing" textLength="60" x="469.5" y="90.1279">Manager</text><rect fill="#E3E3E3" height="30.2969" rx="2.5" ry="2.5" style="stroke:#181818;stroke-width:0.5;" width="116" x="605.5" y="70.1328"/><text fill="#000000" font-family="sans-serif" font-size="14" lengthAdjust="spacing" textLength="102" x="612.5" y="90.1279">Ankaios Server</text><rect fill="#FFFFFF" height="51.1328" style="stroke:#FFFFFF;stroke-width:1.0;" width="10" x="100" y="132.5625"/><line style="stroke:#181818;stroke-width:1.0;" x1="100" x2="100" y1="132.5625" y2="183.6953"/><line style="stroke:#181818;stroke-width:1.0;" x1="110" x2="110" y1="132.5625" y2="183.6953"/><line style="stroke:#181818;stroke-width:1.0;" x1="100" x2="110" y1="132.5625" y2="132.5625"/><rect fill="#FFFFFF" height="266.0625" style="stroke:#FFFFFF;stroke-width:1.0;" width="10" x="100" y="224.5"/><line style="stroke:#181818;stroke-width:1.0;" x1="100" x2="100" y1="224.5" y2="490.5625"/><line style="stroke:#181818;stroke-width:1.0;" x1="110" x2="110" y1="224.5" y2="490.5625"/><line style="stroke:#181818;stroke-width:1.0;" x1="100" x2="110" y1="490.5625" y2="490.5625"/><rect fill="#FFFFFF" height="29.1328" style="stroke:#181818;stroke-width:1.0;" width="10" x="210" y="288.7656"/><rect fill="#FFFFFF" height="77.2656" style="stroke:#181818;stroke-width:1.0;" width="10" x="210" y="384.1641"/><rect fill="#FFFFFF" height="29.1328" style="stroke:#181818;stroke-width:1.0;" width="10" x="358" y="418.2969"/><rect fill="#FFFFFF" height="29.1328" style="stroke:#181818;stroke-width:1.0;" width="10" x="494.5" y="317.8984"/><rect fill="#FFFFFF" height="71.2656" style="stroke:#181818;stroke-width:1.0;" width="10" x="658.5" y="347.0313"/><polygon fill="#181818" points="88,128.5625,98,132.5625,88,136.5625" style="stroke:#181818;stroke-width:1.0;"/><line style="stroke:#181818;stroke-width:1.0;" x1="0" x2="94" y1="132.5625" y2="132.5625"/><text fill="#000000" font-family="sans-serif" font-size="13" lengthAdjust="spacing" textLength="81" x="7" y="127.4966">run workload</text><rect fill="#EEEEEE" height="3" style="stroke:#EEEEEE;stroke-width:1.0;" width="736.5" x="0" y="161.1289"/><line style="stroke:#000000;stroke-width:1.0;" x1="0" x2="736.5" y1="161.1289" y2="161.1289"/><line style="stroke:#000000;stroke-width:1.0;" x1="0" x2="736.5" y1="164.1289" y2="164.1289"/><rect fill="#EEEEEE" height="23.1328" style="stroke:#000000;stroke-width:2.0;" width="73" x="331.75" y="150.5625"/><text fill="#000000" font-family="sans-serif" font-size="13" font-weight="bold" lengthAdjust="spacing" textLength="54" x="337.75" y="166.6294">startup</text><text fill="#000000" font-family="sans-serif" font-size="11" lengthAdjust="spacing" textLength="66" x="315.5" y="207.9058">initialization</text><rect fill="#EEEEEE" height="3" style="stroke:#EEEEEE;stroke-width:1.0;" width="736.5" x="0" y="245.0664"/><line style="stroke:#000000;stroke-width:1.0;" x1="0" x2="736.5" y1="245.0664" y2="245.0664"/><line style="stroke:#000000;stroke-width:1.0;" x1="0" x2="736.5" y1="248.0664" y2="248.0664"/><rect fill="#EEEEEE" height="23.1328" style="stroke:#000000;stroke-width:2.0;" width="92" x="322.25" y="234.5"/><text fill="#000000" font-family="sans-serif" font-size="13" font-weight="bold" lengthAdjust="spacing" textLength="73" x="328.25" y="250.5669">command</text><polygon fill="#181818" points="198,284.7656,208,288.7656,198,292.7656" style="stroke:#181818;stroke-width:1.0;"/><line style="stroke:#181818;stroke-width:1.0;" x1="110" x2="204" y1="288.7656" y2="288.7656"/><text fill="#000000" font-family="sans-serif" font-size="13" lengthAdjust="spacing" textLength="81" x="117" y="283.6997">run workload</text><line style="stroke:#181818;stroke-width:1.0;" x1="492.5" x2="482.5" y1="317.8984" y2="313.8984"/><line style="stroke:#181818;stroke-width:1.0;" x1="492.5" x2="482.5" y1="317.8984" y2="321.8984"/><line style="stroke:#181818;stroke-width:1.0;" x1="215" x2="493.5" y1="317.8984" y2="317.8984"/><text fill="#000000" font-family="sans-serif" font-size="13" lengthAdjust="spacing" textLength="135" x="222" y="312.8325">request update state</text><line style="stroke:#181818;stroke-width:1.0;" x1="656.5" x2="646.5" y1="347.0313" y2="343.0313"/><line style="stroke:#181818;stroke-width:1.0;" x1="656.5" x2="646.5" y1="347.0313" y2="351.0313"/><line style="stroke:#181818;stroke-width:1.0;" x1="499.5" x2="657.5" y1="347.0313" y2="347.0313"/><text fill="#000000" font-family="sans-serif" font-size="13" lengthAdjust="spacing" textLength="135" x="506.5" y="341.9653">request update state</text><line style="stroke:#181818;stroke-width:1.0;" x1="215" x2="262" y1="371.1641" y2="371.1641"/><line style="stroke:#181818;stroke-width:1.0;" x1="262" x2="262" y1="371.1641" y2="384.1641"/><line style="stroke:#181818;stroke-width:1.0;" x1="221" x2="262" y1="384.1641" y2="384.1641"/><polygon fill="#181818" points="231,380.1641,221,384.1641,231,388.1641" style="stroke:#181818;stroke-width:1.0;"/><text fill="#000000" font-family="sans-serif" font-size="13" lengthAdjust="spacing" textLength="134" x="227" y="366.0981">wait for the response</text><line style="stroke:#181818;stroke-width:1.0;" x1="369" x2="379" y1="418.2969" y2="414.2969"/><line style="stroke:#181818;stroke-width:1.0;" x1="369" x2="379" y1="418.2969" y2="422.2969"/><line style="stroke:#181818;stroke-width:1.0;" x1="368" x2="662.5" y1="418.2969" y2="418.2969"/><text fill="#000000" font-family="sans-serif" font-size="13" lengthAdjust="spacing" textLength="59" x="385" y="413.231">response</text><line style="stroke:#181818;stroke-width:1.0;" x1="221" x2="231" y1="447.4297" y2="443.4297"/><line style="stroke:#181818;stroke-width:1.0;" x1="221" x2="231" y1="447.4297" y2="451.4297"/><line style="stroke:#181818;stroke-width:1.0;" x1="220" x2="362" y1="447.4297" y2="447.4297"/><text fill="#000000" font-family="sans-serif" font-size="13" lengthAdjust="spacing" textLength="59" x="237" y="442.3638">response</text><line style="stroke:#181818;stroke-width:1.0;" x1="111" x2="121" y1="461.4297" y2="457.4297"/><line style="stroke:#181818;stroke-width:1.0;" x1="111" x2="121" y1="461.4297" y2="465.4297"/><line style="stroke:#181818;stroke-width:1.0;stroke-dasharray:2.0,2.0;" x1="110" x2="214" y1="461.4297" y2="461.4297"/><line style="stroke:#383838;stroke-width:2.0;" x1="206" x2="224" y1="452.4297" y2="470.4297"/><line style="stroke:#383838;stroke-width:2.0;" x1="206" x2="224" y1="470.4297" y2="452.4297"/><line style="stroke:#383838;stroke-width:2.0;" x1="490.5" x2="508.5" y1="452.4297" y2="470.4297"/><line style="stroke:#383838;stroke-width:2.0;" x1="490.5" x2="508.5" y1="470.4297" y2="452.4297"/><line style="stroke:#383838;stroke-width:2.0;" x1="354" x2="372" y1="452.4297" y2="470.4297"/><line style="stroke:#383838;stroke-width:2.0;" x1="354" x2="372" y1="470.4297" y2="452.4297"/><polygon fill="#181818" points="44.5,486.5625,34.5,490.5625,44.5,494.5625" style="stroke:#181818;stroke-width:1.0;"/><line style="stroke:#181818;stroke-width:1.0;" x1="38.5" x2="104" y1="490.5625" y2="490.5625"/><text fill="#000000" font-family="sans-serif" font-size="13" lengthAdjust="spacing" textLength="23" x="50.5" y="485.4966">exit</text><line style="stroke:#383838;stroke-width:2.0;" x1="96" x2="114" y1="481.5625" y2="499.5625"/><line style="stroke:#383838;stroke-width:2.0;" x1="96" x2="114" y1="499.5625" y2="481.5625"/><!--SRC=[bLF1ReCm3BtdApok27gl2jAqwthQjLALGTPP18SbfktszJC1TIrqqeQG4lazFxyupWDIPVlQG9wlBhytmVM-Cc5LkshLMKtSjtPLMQCf3msIKg_k3CaZDHfT05aJ1VBfYfs7f0_69w0339i8TDepLjY94cmrqW2siYx0vCdYasjRJNM84fN5VJK5bkpDXdLeod97pnZO4B23oTMENem_JaPiHFVizY46_wXqC0BjQAj97nPAxHXLXcgGTinwCXLV5feH1it9qqKeAsDp84rX3RudE3dVMAThfOe20ejStq5HA9NdEI0XexRufHaToKNcaJOrBTAYcgXUD_EU-WsUbUNoj91bQIffvgCtWQ7lQirciCH6tI6Bn7Yuc0U_9CxhpdskuQIHuKrcYz-DQ8JEKP2y-RN2PfDT5rp_S1VKmTjjtUoA7ZicQjcSeseZKux7mVtDRFutBa1Wxpxdx36u7BCbCesD6buPoC77Mywao-QCV4c8x-mR]--></g></svg>