<?xml version="1.0" encoding="us-ascii" standalone="no"?><svg xmlns="http://www.w3.org/2000/svg" xmlns:xlink="http://www.w3.org/1999/xlink" contentStyleType="text/css" height="657px" preserveAspectRatio="none" style="width:782px;height:657px;background:#FFFFFF;" version="1.1" viewBox="0 0 782 657" width="782px" zoomAndPan="magnify"><defs/><g><rect fill="#EEEEEE" height="638.0938" style="stroke:#D3D3D3;stroke-width:0.5;" width="577.5" x="11" y="6"/><text fill="#777777" font-family="sans-serif" font-size="13" font-weight="bold" lengthAdjust="spacing" textLength="91" x="254.25" y="18.0669">Ankaios Ank</text><rect fill="#EEEEEE" height="638.0938" style="stroke:#D3D3D3;stroke-width:0.5;" width="124" x="640.5" y="6"/><text fill="#777777" font-family="sans-serif" font-size="13" font-weight="bold" lengthAdjust="spacing" textLength="110" x="647.5" y="18.0669">Ankaios Server</text><rect fill="#FFFFFF" height="51.1328" style="stroke:#FFFFFF;stroke-width:1.0;" width="10" x="107" y="132.5625"/><line style="stroke:#181818;stroke-width:1.0;" x1="107" x2="107" y1="132.5625" y2="183.6953"/><line style="stroke:#181818;stroke-width:1.0;" x1="117" x2="117" y1="132.5625" y2="183.6953"/><line style="stroke:#181818;stroke-width:1.0;" x1="107" x2="117" y1="132.5625" y2="132.5625"/><rect fill="#FFFFFF" height="407.5938" style="stroke:#FFFFFF;stroke-width:1.0;" width="10" x="107" y="224.5"/><line style="stroke:#181818;stroke-width:1.0;" x1="107" x2="107" y1="224.5" y2="632.0938"/><line style="stroke:#181818;stroke-width:1.0;" x1="117" x2="117" y1="224.5" y2="632.0938"/><line style="stroke:#181818;stroke-width:1.0;" x1="107" x2="117" y1="632.0938" y2="632.0938"/><rect fill="#FFFFFF" height="34.1328" style="stroke:#181818;stroke-width:1.0;" width="10" x="112" y="597.9609"/><rect fill="#FFFFFF" height="272.0625" style="stroke:#181818;stroke-width:1.0;" width="10" x="224" y="288.7656"/><rect fill="#FFFFFF" height="176.6641" style="stroke:#181818;stroke-width:1.0;" width="10" x="229" y="384.1641"/><rect fill="#FFFFFF" height="113.3984" style="stroke:#181818;stroke-width:1.0;" width="10" x="234" y="447.4297"/><rect fill="#FFFFFF" height="76.2656" style="stroke:#181818;stroke-width:1.0;" width="10" x="239" y="484.5625"/><rect fill="#FFFFFF" height="34.1328" style="stroke:#181818;stroke-width:1.0;" width="10" x="244" y="526.6953"/><rect fill="#FFFFFF" height="29.1328" style="stroke:#181818;stroke-width:1.0;" width="10" x="382" y="418.2969"/><rect fill="#FFFFFF" height="29.1328" style="stroke:#181818;stroke-width:1.0;" width="10" x="518.5" y="317.8984"/><rect fill="#FFFFFF" height="71.2656" style="stroke:#181818;stroke-width:1.0;" width="10" x="697.5" y="347.0313"/><line style="stroke:#181818;stroke-width:0.5;stroke-dasharray:5.0,5.0;" x1="33" x2="33" y1="101.4297" y2="183.6953"/><line style="stroke:#383838;stroke-width:1.0;stroke-dasharray:1.0,4.0;" x1="33" x2="33" y1="183.6953" y2="224.5"/><line style="stroke:#181818;stroke-width:0.5;stroke-dasharray:5.0,5.0;" x1="33" x2="33" y1="224.5" y2="650.0938"/><line style="stroke:#181818;stroke-width:0.5;stroke-dasharray:5.0,5.0;" x1="112" x2="112" y1="101.4297" y2="183.6953"/><line style="stroke:#383838;stroke-width:1.0;stroke-dasharray:1.0,4.0;" x1="112" x2="112" y1="183.6953" y2="224.5"/><line style="stroke:#181818;stroke-width:0.5;stroke-dasharray:5.0,5.0;" x1="112" x2="112" y1="224.5" y2="650.0938"/><line style="stroke:#181818;stroke-width:0.5;stroke-dasharray:5.0,5.0;" x1="228.5" x2="228.5" y1="101.4297" y2="183.6953"/><line style="stroke:#383838;stroke-width:1.0;stroke-dasharray:1.0,4.0;" x1="228.5" x2="228.5" y1="183.6953" y2="224.5"/><line style="stroke:#181818;stroke-width:0.5;stroke-dasharray:5.0,5.0;" x1="228.5" x2="228.5" y1="224.5" y2="650.0938"/><line style="stroke:#181818;stroke-width:0.5;stroke-dasharray:5.0,5.0;" x1="386.5" x2="386.5" y1="101.4297" y2="183.6953"/><line style="stroke:#383838;stroke-width:1.0;stroke-dasharray:1.0,4.0;" x1="386.5" x2="386.5" y1="183.6953" y2="224.5"/><line style="stroke:#181818;stroke-width:0.5;stroke-dasharray:5.0,5.0;" x1="386.5" x2="386.5" y1="224.5" y2="650.0938"/><line style="stroke:#181818;stroke-width:0.5;stroke-dasharray:5.0,5.0;" x1="523.5" x2="523.5" y1="101.4297" y2="183.6953"/><line style="stroke:#383838;stroke-width:1.0;stroke-dasharray:1.0,4.0;" x1="523.5" x2="523.5" y1="183.6953" y2="224.5"/><line style="stroke:#181818;stroke-width:0.5;stroke-dasharray:5.0,5.0;" x1="523.5" x2="523.5" y1="224.5" y2="650.0938"/><line style="stroke:#181818;stroke-width:0.5;stroke-dasharray:5.0,5.0;" x1="702.5" x2="702.5" y1="101.4297" y2="183.6953"/><line style="stroke:#383838;stroke-width:1.0;stroke-dasharray:1.0,4.0;" x1="702.5" x2="702.5" y1="183.6953" y2="224.5"/><line style="stroke:#181818;stroke-width:0.5;stroke-dasharray:5.0,5.0;" x1="702.5" x2="702.5" y1="224.5" y2="650.0938"/><text fill="#000000" font-family="sans-serif" font-size="14" lengthAdjust="spacing" textLength="31" x="15" y="98.1279">user</text><ellipse cx="33.5" cy="33.6328" fill="#E3E3E3" rx="8" ry="8" style="stroke:#181818;stroke-width:0.5;"/><path d="M33.5,41.6328 L33.5,68.6328 M20.5,49.6328 L46.5,49.6328 M33.5,68.6328 L20.5,83.6328 M33.5,68.6328 L46.5,83.6328 " fill="none" style="stroke:#181818;stroke-width:0.5;"/><rect fill="#E3E3E3" height="30.2969" rx="2.5" ry="2.5" style="stroke:#181818;stroke-width:0.5;" width="46" x="89" y="70.1328"/><text fill="#000000" font-family="sans-serif" font-size="14" lengthAdjust="spacing" textLength="32" x="96" y="90.1279">Main</text><rect fill="#E3E3E3" height="30.2969" rx="2.5" ry="2.5" style="stroke:#181818;stroke-width:0.5;" width="109" x="174.5" y="70.1328"/><text fill="#000000" font-family="sans-serif" font-size="14" lengthAdjust="spacing" textLength="95" x="181.5" y="90.1279">CliCommands</text><rect fill="#E3E3E3" height="62.8906" rx="2.5" ry="2.5" style="stroke:#181818;stroke-width:0.5;" width="131" x="321.5" y="37.5391"/><text fill="#000000" font-family="sans-serif" font-size="14" lengthAdjust="spacing" textLength="47" x="363.5" y="57.5342">&#171;task&#187;</text><text fill="#000000" font-family="sans-serif" font-size="14" lengthAdjust="spacing" textLength="117" x="328.5" y="73.8311">Listen to Ankaios</text><text fill="#000000" font-family="sans-serif" font-size="14" lengthAdjust="spacing" textLength="44" x="365" y="90.1279">Server</text><rect fill="#E3E3E3" height="62.8906" rx="2.5" ry="2.5" style="stroke:#181818;stroke-width:0.5;" width="122" x="462.5" y="37.5391"/><text fill="#000000" font-family="sans-serif" font-size="14" lengthAdjust="spacing" textLength="47" x="500" y="57.5342">&#171;task&#187;</text><text fill="#000000" font-family="sans-serif" font-size="14" lengthAdjust="spacing" textLength="104" x="469.5" y="73.8311">Listen to Agent</text><text fill="#000000" font-family="sans-serif" font-size="14" lengthAdjust="spacing" textLength="60" x="493.5" y="90.1279">Manager</text><rect fill="#E3E3E3" height="30.2969" rx="2.5" ry="2.5" style="stroke:#181818;stroke-width:0.5;" width="116" x="644.5" y="70.1328"/><text fill="#000000" font-family="sans-serif" font-size="14" lengthAdjust="spacing" textLength="102" x="651.5" y="90.1279">Ankaios Server</text><rect fill="#FFFFFF" height="51.1328" style="stroke:#FFFFFF;stroke-width:1.0;" width="10" x="107" y="132.5625"/><line style="stroke:#181818;stroke-width:1.0;" x1="107" x2="107" y1="132.5625" y2="183.6953"/><line style="stroke:#181818;stroke-width:1.0;" x1="117" x2="117" y1="132.5625" y2="183.6953"/><line style="stroke:#181818;stroke-width:1.0;" x1="107" x2="117" y1="132.5625" y2="132.5625"/><rect fill="#FFFFFF" height="407.5938" style="stroke:#FFFFFF;stroke-width:1.0;" width="10" x="107" y="224.5"/><line style="stroke:#181818;stroke-width:1.0;" x1="107" x2="107" y1="224.5" y2="632.0938"/><line style="stroke:#181818;stroke-width:1.0;" x1="117" x2="117" y1="224.5" y2="632.0938"/><line style="stroke:#181818;stroke-width:1.0;" x1="107" x2="117" y1="632.0938" y2="632.0938"/><rect fill="#FFFFFF" height="34.1328" style="stroke:#181818;stroke-width:1.0;" width="10" x="112" y="597.9609"/><rect fill="#FFFFFF" height="272.0625" style="stroke:#181818;stroke-width:1.0;" width="10" x="224" y="288.7656"/><rect fill="#FFFFFF" height="176.6641" style="stroke:#181818;stroke-width:1.0;" width="10" x="229" y="384.1641"/><rect fill="#FFFFFF" height="113.3984" style="stroke:#181818;stroke-width:1.0;" width="10" x="234" y="447.4297"/><rect fill="#FFFFFF" height="76.2656" style="stroke:#181818;stroke-width:1.0;" width="10" x="239" y="484.5625"/><rect fill="#FFFFFF" height="34.1328" style="stroke:#181818;stroke-width:1.0;" width="10" x="244" y="526.6953"/><rect fill="#FFFFFF" height="29.1328" style="stroke:#181818;stroke-width:1.0;" width="10" x="382" y="418.2969"/><rect fill="#FFFFFF" height="29.1328" style="stroke:#181818;stroke-width:1.0;" width="10" x="518.5" y="317.8984"/><rect fill="#FFFFFF" height="71.2656" style="stroke:#181818;stroke-width:1.0;" width="10" x="697.5" y="347.0313"/><polygon fill="#181818" points="95,128.5625,105,132.5625,95,136.5625" style="stroke:#181818;stroke-width:1.0;"/><line style="stroke:#181818;stroke-width:1.0;" x1="0" x2="101" y1="132.5625" y2="132.5625"/><text fill="#000000" font-family="sans-serif" font-size="13" lengthAdjust="spacing" textLength="88" x="7" y="127.4966">get workloads</text><rect fill="#EEEEEE" height="3" style="stroke:#EEEEEE;stroke-width:1.0;" width="775.5" x="0" y="161.1289"/><line style="stroke:#000000;stroke-width:1.0;" x1="0" x2="775.5" y1="161.1289" y2="161.1289"/><line style="stroke:#000000;stroke-width:1.0;" x1="0" x2="775.5" y1="164.1289" y2="164.1289"/><rect fill="#EEEEEE" height="23.1328" style="stroke:#000000;stroke-width:2.0;" width="73" x="351.25" y="150.5625"/><text fill="#000000" font-family="sans-serif" font-size="13" font-weight="bold" lengthAdjust="spacing" textLength="54" x="357.25" y="166.6294">startup</text><text fill="#000000" font-family="sans-serif" font-size="11" lengthAdjust="spacing" textLength="66" x="335" y="207.9058">initialization</text><rect fill="#EEEEEE" height="3" style="stroke:#EEEEEE;stroke-width:1.0;" width="775.5" x="0" y="245.0664"/><line style="stroke:#000000;stroke-width:1.0;" x1="0" x2="775.5" y1="245.0664" y2="245.0664"/><line style="stroke:#000000;stroke-width:1.0;" x1="0" x2="775.5" y1="248.0664" y2="248.0664"/><rect fill="#EEEEEE" height="23.1328" style="stroke:#000000;stroke-width:2.0;" width="92" x="341.75" y="234.5"/><text fill="#000000" font-family="sans-serif" font-size="13" font-weight="bold" lengthAdjust="spacing" textLength="73" x="347.75" y="250.5669">command</text><polygon fill="#181818" points="212,284.7656,222,288.7656,212,292.7656" style="stroke:#181818;stroke-width:1.0;"/><line style="stroke:#181818;stroke-width:1.0;" x1="117" x2="218" y1="288.7656" y2="288.7656"/><text fill="#000000" font-family="sans-serif" font-size="13" lengthAdjust="spacing" textLength="88" x="124" y="283.6997">get workloads</text><line style="stroke:#181818;stroke-width:1.0;" x1="516.5" x2="506.5" y1="317.8984" y2="313.8984"/><line style="stroke:#181818;stroke-width:1.0;" x1="516.5" x2="506.5" y1="317.8984" y2="321.8984"/><line style="stroke:#181818;stroke-width:1.0;" x1="234" x2="517.5" y1="317.8984" y2="317.8984"/><text fill="#000000" font-family="sans-serif" font-size="13" lengthAdjust="spacing" textLength="150" x="241" y="312.8325">request complete state</text><line style="stroke:#181818;stroke-width:1.0;" x1="695.5" x2="685.5" y1="347.0313" y2="343.0313"/><line style="stroke:#181818;stroke-width:1.0;" x1="695.5" x2="685.5" y1="347.0313" y2="351.0313"/><line style="stroke:#181818;stroke-width:1.0;" x1="523.5" x2="696.5" y1="347.0313" y2="347.0313"/><text fill="#000000" font-family="sans-serif" font-size="13" lengthAdjust="spacing" textLength="150" x="530.5" y="341.9653">request complete state</text><line style="stroke:#181818;stroke-width:1.0;" x1="234" x2="281" y1="371.1641" y2="371.1641"/><line style="stroke:#181818;stroke-width:1.0;" x1="281" x2="281" y1="371.1641" y2="384.1641"/><line style="stroke:#181818;stroke-width:1.0;" x1="240" x2="281" y1="384.1641" y2="384.1641"/><polygon fill="#181818" points="250,380.1641,240,384.1641,250,388.1641" style="stroke:#181818;stroke-width:1.0;"/><text fill="#000000" font-family="sans-serif" font-size="13" lengthAdjust="spacing" textLength="134" x="246" y="366.0981">wait for the response</text><line style="stroke:#181818;stroke-width:1.0;" x1="393" x2="403" y1="418.2969" y2="414.2969"/><line style="stroke:#181818;stroke-width:1.0;" x1="393" x2="403" y1="418.2969" y2="422.2969"/><line style="stroke:#181818;stroke-width:1.0;" x1="392" x2="701.5" y1="418.2969" y2="418.2969"/><text fill="#000000" font-family="sans-serif" font-size="13" lengthAdjust="spacing" textLength="97" x="409" y="413.231">complete state</text><line style="stroke:#181818;stroke-width:1.0;" x1="245" x2="255" y1="447.4297" y2="443.4297"/><line style="stroke:#181818;stroke-width:1.0;" x1="245" x2="255" y1="447.4297" y2="451.4297"/><line style="stroke:#181818;stroke-width:1.0;" x1="244" x2="386" y1="447.4297" y2="447.4297"/><text fill="#000000" font-family="sans-serif" font-size="13" lengthAdjust="spacing" textLength="97" x="261" y="442.3638">complete state</text><line style="stroke:#181818;stroke-width:1.0;" x1="244" x2="291" y1="471.5625" y2="471.5625"/><line style="stroke:#181818;stroke-width:1.0;" x1="291" x2="291" y1="471.5625" y2="484.5625"/><line style="stroke:#181818;stroke-width:1.0;" x1="250" x2="291" y1="484.5625" y2="484.5625"/><polygon fill="#181818" points="260,480.5625,250,484.5625,260,488.5625" style="stroke:#181818;stroke-width:1.0;"/><text fill="#000000" font-family="sans-serif" font-size="13" lengthAdjust="spacing" textLength="95" x="256" y="466.4966">filter workloads</text><line style="stroke:#181818;stroke-width:1.0;" x1="249" x2="296" y1="513.6953" y2="513.6953"/><line style="stroke:#181818;stroke-width:1.0;" x1="296" x2="296" y1="513.6953" y2="526.6953"/><line style="stroke:#181818;stroke-width:1.0;" x1="255" x2="296" y1="526.6953" y2="526.6953"/><polygon fill="#181818" points="265,522.6953,255,526.6953,265,530.6953" style="stroke:#181818;stroke-width:1.0;"/><text fill="#000000" font-family="sans-serif" font-size="13" lengthAdjust="spacing" textLength="118" x="261" y="508.6294">format output text</text><line style="stroke:#181818;stroke-width:1.0;" x1="118" x2="128" y1="560.8281" y2="556.8281"/><line style="stroke:#181818;stroke-width:1.0;" x1="118" x2="128" y1="560.8281" y2="564.8281"/><line style="stroke:#181818;stroke-width:1.0;stroke-dasharray:2.0,2.0;" x1="117" x2="228" y1="560.8281" y2="560.8281"/><text fill="#000000" font-family="sans-serif" font-size="13" lengthAdjust="spacing" textLength="71" x="134" y="555.7622">output text</text><line style="stroke:#383838;stroke-width:2.0;" x1="220" x2="238" y1="551.8281" y2="569.8281"/><line style="stroke:#383838;stroke-width:2.0;" x1="220" x2="238" y1="569.8281" y2="551.8281"/><line style="stroke:#383838;stroke-width:2.0;" x1="514.5" x2="532.5" y1="551.8281" y2="569.8281"/><line style="stroke:#383838;stroke-width:2.0;" x1="514.5" x2="532.5" y1="569.8281" y2="551.8281"/><line style="stroke:#383838;stroke-width:2.0;" x1="378" x2="396" y1="551.8281" y2="569.8281"/><line style="stroke:#383838;stroke-width:2.0;" x1="378" x2="396" y1="569.8281" y2="551.8281"/><line style="stroke:#181818;stroke-width:1.0;" x1="117" x2="164" y1="584.9609" y2="584.9609"/><line style="stroke:#181818;stroke-width:1.0;" x1="164" x2="164" y1="584.9609" y2="597.9609"/><line style="stroke:#181818;stroke-width:1.0;" x1="123" x2="164" y1="597.9609" y2="597.9609"/><polygon fill="#181818" points="133,593.9609,123,597.9609,133,601.9609" style="stroke:#181818;stroke-width:1.0;"/><text fill="#000000" font-family="sans-serif" font-size="13" lengthAdjust="spacing" textLength="58" x="129" y="579.895">print text</text><polygon fill="#181818" points="44.5,628.0938,34.5,632.0938,44.5,636.0938" style="stroke:#181818;stroke-width:1.0;"/><line style="stroke:#181818;stroke-width:1.0;" x1="38.5" x2="111" y1="632.0938" y2="632.0938"/><text fill="#000000" font-family="sans-serif" font-size="13" lengthAdjust="spacing" textLength="23" x="50.5" y="627.0278">exit</text><line style="stroke:#383838;stroke-width:2.0;" x1="103" x2="121" y1="623.0938" y2="641.0938"/><line style="stroke:#383838;stroke-width:2.0;" x1="103" x2="121" y1="641.0938" y2="623.0938"/><!--SRC=[bLHDRwD03BtpArok5UIE4gIgr-RKQwHe5joibS53PqoRxQ-l6MQZ51ArHKWW-_dv-MFcZhYnGujGbglpwp6umJSOLgrhLhqrB4DdLur5msKu4cVP7tU2_86FXbm0_UOPw6CQSHxo8Q3FmGGOVwAZDrweeLwPO6k8HsUdtuKpVxJqwBhES1iYHMDftoJ34hrUYmd7kjxn4mL11d6GLEtu6VrR4cAZTozk7wBnXqm7LDUEjuRDOS7KJTOCkGLjnwmdAVaoqGmmSYPDPwAYZis1-tkeu802xyuVhJFQWMopWI3AD_ImsMHPMPP0J4B6qeSHSgoJB2CiTIt28ftINdRp6lqNVr7Not8rgWAFhmC66LFq5WL7IOBP4ZnIJDL1KSHyDqBdcUTAAtWt9F2YwoL_KLb2xpXet7ooi5uNbochsoB_e-fPjgjXt-fx8IlAThENLoASxuo06wGV10HFCir9AoZcYhHpbxWMzQZHcmhxUa1-QrT74E_-pT6JSRdhIq_QtVE6fSMjeFV4IUru3O2EPSACjU29v4mMBu9F]--></g></svg>