<?xml version="1.0" encoding="us-ascii" standalone="no"?><svg xmlns="http://www.w3.org/2000/svg" xmlns:xlink="http://www.w3.org/1999/xlink" contentStyleType="text/css" height="614px" preserveAspectRatio="none" style="width:744px;height:614px;background:#FFFFFF;" version="1.1" viewBox="0 0 744 614" width="744px" zoomAndPan="magnify"><defs/><g><rect fill="#EEEEEE" height="595.9609" style="stroke:#D3D3D3;stroke-width:0.5;" width="539" x="11" y="6"/><text fill="#777777" font-family="sans-serif" font-size="13" font-weight="bold" lengthAdjust="spacing" textLength="91" x="235" y="18.0669">Ankaios Ank</text><rect fill="#EEEEEE" height="595.9609" style="stroke:#D3D3D3;stroke-width:0.5;" width="124" x="602" y="6"/><text fill="#777777" font-family="sans-serif" font-size="13" font-weight="bold" lengthAdjust="spacing" textLength="110" x="609" y="18.0669">Ankaios Server</text><rect fill="#FFFFFF" height="51.1328" style="stroke:#FFFFFF;stroke-width:1.0;" width="10" x="80.5" y="132.5625"/><line style="stroke:#181818;stroke-width:1.0;" x1="80.5" x2="80.5" y1="132.5625" y2="183.6953"/><line style="stroke:#181818;stroke-width:1.0;" x1="90.5" x2="90.5" y1="132.5625" y2="183.6953"/><line style="stroke:#181818;stroke-width:1.0;" x1="80.5" x2="90.5" y1="132.5625" y2="132.5625"/><rect fill="#FFFFFF" height="365.4609" style="stroke:#FFFFFF;stroke-width:1.0;" width="10" x="80.5" y="224.5"/><line style="stroke:#181818;stroke-width:1.0;" x1="80.5" x2="80.5" y1="224.5" y2="589.9609"/><line style="stroke:#181818;stroke-width:1.0;" x1="90.5" x2="90.5" y1="224.5" y2="589.9609"/><line style="stroke:#181818;stroke-width:1.0;" x1="80.5" x2="90.5" y1="589.9609" y2="589.9609"/><rect fill="#FFFFFF" height="34.1328" style="stroke:#181818;stroke-width:1.0;" width="10" x="85.5" y="555.8281"/><rect fill="#FFFFFF" height="229.9297" style="stroke:#181818;stroke-width:1.0;" width="10" x="185.5" y="288.7656"/><rect fill="#FFFFFF" height="134.5313" style="stroke:#181818;stroke-width:1.0;" width="10" x="190.5" y="384.1641"/><rect fill="#FFFFFF" height="71.2656" style="stroke:#181818;stroke-width:1.0;" width="10" x="195.5" y="447.4297"/><rect fill="#FFFFFF" height="34.1328" style="stroke:#181818;stroke-width:1.0;" width="10" x="200.5" y="484.5625"/><rect fill="#FFFFFF" height="29.1328" style="stroke:#181818;stroke-width:1.0;" width="10" x="343.5" y="418.2969"/><rect fill="#FFFFFF" height="29.1328" style="stroke:#181818;stroke-width:1.0;" width="10" x="480" y="317.8984"/><rect fill="#FFFFFF" height="71.2656" style="stroke:#181818;stroke-width:1.0;" width="10" x="659" y="347.0313"/><line style="stroke:#181818;stroke-width:0.5;stroke-dasharray:5.0,5.0;" x1="33" x2="33" y1="101.4297" y2="183.6953"/><line style="stroke:#383838;stroke-width:1.0;stroke-dasharray:1.0,4.0;" x1="33" x2="33" y1="183.6953" y2="224.5"/><line style="stroke:#181818;stroke-width:0.5;stroke-dasharray:5.0,5.0;" x1="33" x2="33" y1="224.5" y2="607.9609"/><line style="stroke:#181818;stroke-width:0.5;stroke-dasharray:5.0,5.0;" x1="85.5" x2="85.5" y1="101.4297" y2="183.6953"/><line style="stroke:#383838;stroke-width:1.0;stroke-dasharray:1.0,4.0;" x1="85.5" x2="85.5" y1="183.6953" y2="224.5"/><line style="stroke:#181818;stroke-width:0.5;stroke-dasharray:5.0,5.0;" x1="85.5" x2="85.5" y1="224.5" y2="607.9609"/><line style="stroke:#181818;stroke-width:0.5;stroke-dasharray:5.0,5.0;" x1="190" x2="190" y1="101.4297" y2="183.6953"/><line style="stroke:#383838;stroke-width:1.0;stroke-dasharray:1.0,4.0;" x1="190" x2="190" y1="183.6953" y2="224.5"/><line style="stroke:#181818;stroke-width:0.5;stroke-dasharray:5.0,5.0;" x1="190" x2="190" y1="224.5" y2="607.9609"/><line style="stroke:#181818;stroke-width:0.5;stroke-dasharray:5.0,5.0;" x1="348" x2="348" y1="101.4297" y2="183.6953"/><line style="stroke:#383838;stroke-width:1.0;stroke-dasharray:1.0,4.0;" x1="348" x2="348" y1="183.6953" y2="224.5"/><line style="stroke:#181818;stroke-width:0.5;stroke-dasharray:5.0,5.0;" x1="348" x2="348" y1="224.5" y2="607.9609"/><line style="stroke:#181818;stroke-width:0.5;stroke-dasharray:5.0,5.0;" x1="485" x2="485" y1="101.4297" y2="183.6953"/><line style="stroke:#383838;stroke-width:1.0;stroke-dasharray:1.0,4.0;" x1="485" x2="485" y1="183.6953" y2="224.5"/><line style="stroke:#181818;stroke-width:0.5;stroke-dasharray:5.0,5.0;" x1="485" x2="485" y1="224.5" y2="607.9609"/><line style="stroke:#181818;stroke-width:0.5;stroke-dasharray:5.0,5.0;" x1="664" x2="664" y1="101.4297" y2="183.6953"/><line style="stroke:#383838;stroke-width:1.0;stroke-dasharray:1.0,4.0;" x1="664" x2="664" y1="183.6953" y2="224.5"/><line style="stroke:#181818;stroke-width:0.5;stroke-dasharray:5.0,5.0;" x1="664" x2="664" y1="224.5" y2="607.9609"/><text fill="#000000" font-family="sans-serif" font-size="14" lengthAdjust="spacing" textLength="31" x="15" y="98.1279">user</text><ellipse cx="33.5" cy="33.6328" fill="#E3E3E3" rx="8" ry="8" style="stroke:#181818;stroke-width:0.5;"/><path d="M33.5,41.6328 L33.5,68.6328 M20.5,49.6328 L46.5,49.6328 M33.5,68.6328 L20.5,83.6328 M33.5,68.6328 L46.5,83.6328 " fill="none" style="stroke:#181818;stroke-width:0.5;"/><rect fill="#E3E3E3" height="30.2969" rx="2.5" ry="2.5" style="stroke:#181818;stroke-width:0.5;" width="46" x="62.5" y="70.1328"/><text fill="#000000" font-family="sans-serif" font-size="14" lengthAdjust="spacing" textLength="32" x="69.5" y="90.1279">Main</text><rect fill="#E3E3E3" height="30.2969" rx="2.5" ry="2.5" style="stroke:#181818;stroke-width:0.5;" width="109" x="136" y="70.1328"/><text fill="#000000" font-family="sans-serif" font-size="14" lengthAdjust="spacing" textLength="95" x="143" y="90.1279">CliCommands</text><rect fill="#E3E3E3" height="62.8906" rx="2.5" ry="2.5" style="stroke:#181818;stroke-width:0.5;" width="131" x="283" y="37.5391"/><text fill="#000000" font-family="sans-serif" font-size="14" lengthAdjust="spacing" textLength="47" x="325" y="57.5342">&#171;task&#187;</text><text fill="#000000" font-family="sans-serif" font-size="14" lengthAdjust="spacing" textLength="117" x="290" y="73.8311">Listen to Ankaios</text><text fill="#000000" font-family="sans-serif" font-size="14" lengthAdjust="spacing" textLength="44" x="326.5" y="90.1279">Server</text><rect fill="#E3E3E3" height="62.8906" rx="2.5" ry="2.5" style="stroke:#181818;stroke-width:0.5;" width="122" x="424" y="37.5391"/><text fill="#000000" font-family="sans-serif" font-size="14" lengthAdjust="spacing" textLength="47" x="461.5" y="57.5342">&#171;task&#187;</text><text fill="#000000" font-family="sans-serif" font-size="14" lengthAdjust="spacing" textLength="104" x="431" y="73.8311">Listen to Agent</text><text fill="#000000" font-family="sans-serif" font-size="14" lengthAdjust="spacing" textLength="60" x="455" y="90.1279">Manager</text><rect fill="#E3E3E3" height="30.2969" rx="2.5" ry="2.5" style="stroke:#181818;stroke-width:0.5;" width="116" x="606" y="70.1328"/><text fill="#000000" font-family="sans-serif" font-size="14" lengthAdjust="spacing" textLength="102" x="613" y="90.1279">Ankaios Server</text><rect fill="#FFFFFF" height="51.1328" style="stroke:#FFFFFF;stroke-width:1.0;" width="10" x="80.5" y="132.5625"/><line style="stroke:#181818;stroke-width:1.0;" x1="80.5" x2="80.5" y1="132.5625" y2="183.6953"/><line style="stroke:#181818;stroke-width:1.0;" x1="90.5" x2="90.5" y1="132.5625" y2="183.6953"/><line style="stroke:#181818;stroke-width:1.0;" x1="80.5" x2="90.5" y1="132.5625" y2="132.5625"/><rect fill="#FFFFFF" height="365.4609" style="stroke:#FFFFFF;stroke-width:1.0;" width="10" x="80.5" y="224.5"/><line style="stroke:#181818;stroke-width:1.0;" x1="80.5" x2="80.5" y1="224.5" y2="589.9609"/><line style="stroke:#181818;stroke-width:1.0;" x1="90.5" x2="90.5" y1="224.5" y2="589.9609"/><line style="stroke:#181818;stroke-width:1.0;" x1="80.5" x2="90.5" y1="589.9609" y2="589.9609"/><rect fill="#FFFFFF" height="34.1328" style="stroke:#181818;stroke-width:1.0;" width="10" x="85.5" y="555.8281"/><rect fill="#FFFFFF" height="229.9297" style="stroke:#181818;stroke-width:1.0;" width="10" x="185.5" y="288.7656"/><rect fill="#FFFFFF" height="134.5313" style="stroke:#181818;stroke-width:1.0;" width="10" x="190.5" y="384.1641"/><rect fill="#FFFFFF" height="71.2656" style="stroke:#181818;stroke-width:1.0;" width="10" x="195.5" y="447.4297"/><rect fill="#FFFFFF" height="34.1328" style="stroke:#181818;stroke-width:1.0;" width="10" x="200.5" y="484.5625"/><rect fill="#FFFFFF" height="29.1328" style="stroke:#181818;stroke-width:1.0;" width="10" x="343.5" y="418.2969"/><rect fill="#FFFFFF" height="29.1328" style="stroke:#181818;stroke-width:1.0;" width="10" x="480" y="317.8984"/><rect fill="#FFFFFF" height="71.2656" style="stroke:#181818;stroke-width:1.0;" width="10" x="659" y="347.0313"/><polygon fill="#181818" points="68.5,128.5625,78.5,132.5625,68.5,136.5625" style="stroke:#181818;stroke-width:1.0;"/><line style="stroke:#181818;stroke-width:1.0;" x1="0" x2="74.5" y1="132.5625" y2="132.5625"/><text fill="#000000" font-family="sans-serif" font-size="13" lengthAdjust="spacing" textLength="58" x="7" y="127.4966">get state</text><rect fill="#EEEEEE" height="3" style="stroke:#EEEEEE;stroke-width:1.0;" width="737" x="0" y="161.1289"/><line style="stroke:#000000;stroke-width:1.0;" x1="0" x2="737" y1="161.1289" y2="161.1289"/><line style="stroke:#000000;stroke-width:1.0;" x1="0" x2="737" y1="164.1289" y2="164.1289"/><rect fill="#EEEEEE" height="23.1328" style="stroke:#000000;stroke-width:2.0;" width="73" x="332" y="150.5625"/><text fill="#000000" font-family="sans-serif" font-size="13" font-weight="bold" lengthAdjust="spacing" textLength="54" x="338" y="166.6294">startup</text><text fill="#000000" font-family="sans-serif" font-size="11" lengthAdjust="spacing" textLength="66" x="315.75" y="207.9058">initialization</text><rect fill="#EEEEEE" height="3" style="stroke:#EEEEEE;stroke-width:1.0;" width="737" x="0" y="245.0664"/><line style="stroke:#000000;stroke-width:1.0;" x1="0" x2="737" y1="245.0664" y2="245.0664"/><line style="stroke:#000000;stroke-width:1.0;" x1="0" x2="737" y1="248.0664" y2="248.0664"/><rect fill="#EEEEEE" height="23.1328" style="stroke:#000000;stroke-width:2.0;" width="92" x="322.5" y="234.5"/><text fill="#000000" font-family="sans-serif" font-size="13" font-weight="bold" lengthAdjust="spacing" textLength="73" x="328.5" y="250.5669">command</text><polygon fill="#181818" points="173.5,284.7656,183.5,288.7656,173.5,292.7656" style="stroke:#181818;stroke-width:1.0;"/><line style="stroke:#181818;stroke-width:1.0;" x1="90.5" x2="179.5" y1="288.7656" y2="288.7656"/><text fill="#000000" font-family="sans-serif" font-size="13" lengthAdjust="spacing" textLength="58" x="97.5" y="283.6997">get state</text><line style="stroke:#181818;stroke-width:1.0;" x1="478" x2="468" y1="317.8984" y2="313.8984"/><line style="stroke:#181818;stroke-width:1.0;" x1="478" x2="468" y1="317.8984" y2="321.8984"/><line style="stroke:#181818;stroke-width:1.0;" x1="195.5" x2="479" y1="317.8984" y2="317.8984"/><text fill="#000000" font-family="sans-serif" font-size="13" lengthAdjust="spacing" textLength="150" x="202.5" y="312.8325">request complete state</text><line style="stroke:#181818;stroke-width:1.0;" x1="657" x2="647" y1="347.0313" y2="343.0313"/><line style="stroke:#181818;stroke-width:1.0;" x1="657" x2="647" y1="347.0313" y2="351.0313"/><line style="stroke:#181818;stroke-width:1.0;" x1="485" x2="658" y1="347.0313" y2="347.0313"/><text fill="#000000" font-family="sans-serif" font-size="13" lengthAdjust="spacing" textLength="150" x="492" y="341.9653">request complete state</text><line style="stroke:#181818;stroke-width:1.0;" x1="195.5" x2="242.5" y1="371.1641" y2="371.1641"/><line style="stroke:#181818;stroke-width:1.0;" x1="242.5" x2="242.5" y1="371.1641" y2="384.1641"/><line style="stroke:#181818;stroke-width:1.0;" x1="201.5" x2="242.5" y1="384.1641" y2="384.1641"/><polygon fill="#181818" points="211.5,380.1641,201.5,384.1641,211.5,388.1641" style="stroke:#181818;stroke-width:1.0;"/><text fill="#000000" font-family="sans-serif" font-size="13" lengthAdjust="spacing" textLength="134" x="207.5" y="366.0981">wait for the response</text><line style="stroke:#181818;stroke-width:1.0;" x1="354.5" x2="364.5" y1="418.2969" y2="414.2969"/><line style="stroke:#181818;stroke-width:1.0;" x1="354.5" x2="364.5" y1="418.2969" y2="422.2969"/><line style="stroke:#181818;stroke-width:1.0;" x1="353.5" x2="663" y1="418.2969" y2="418.2969"/><text fill="#000000" font-family="sans-serif" font-size="13" lengthAdjust="spacing" textLength="97" x="370.5" y="413.231">complete state</text><line style="stroke:#181818;stroke-width:1.0;" x1="206.5" x2="216.5" y1="447.4297" y2="443.4297"/><line style="stroke:#181818;stroke-width:1.0;" x1="206.5" x2="216.5" y1="447.4297" y2="451.4297"/><line style="stroke:#181818;stroke-width:1.0;" x1="205.5" x2="347.5" y1="447.4297" y2="447.4297"/><text fill="#000000" font-family="sans-serif" font-size="13" lengthAdjust="spacing" textLength="97" x="222.5" y="442.3638">complete state</text><line style="stroke:#181818;stroke-width:1.0;" x1="205.5" x2="252.5" y1="471.5625" y2="471.5625"/><line style="stroke:#181818;stroke-width:1.0;" x1="252.5" x2="252.5" y1="471.5625" y2="484.5625"/><line style="stroke:#181818;stroke-width:1.0;" x1="211.5" x2="252.5" y1="484.5625" y2="484.5625"/><polygon fill="#181818" points="221.5,480.5625,211.5,484.5625,221.5,488.5625" style="stroke:#181818;stroke-width:1.0;"/><text fill="#000000" font-family="sans-serif" font-size="13" lengthAdjust="spacing" textLength="118" x="217.5" y="466.4966">format output text</text><polygon fill="#181818" points="101.5,514.6953,91.5,518.6953,101.5,522.6953" style="stroke:#181818;stroke-width:1.0;"/><line style="stroke:#181818;stroke-width:1.0;" x1="95.5" x2="189.5" y1="518.6953" y2="518.6953"/><text fill="#000000" font-family="sans-serif" font-size="13" lengthAdjust="spacing" textLength="71" x="107.5" y="513.6294">output text</text><line style="stroke:#383838;stroke-width:2.0;" x1="181.5" x2="199.5" y1="509.6953" y2="527.6953"/><line style="stroke:#383838;stroke-width:2.0;" x1="181.5" x2="199.5" y1="527.6953" y2="509.6953"/><line style="stroke:#383838;stroke-width:2.0;" x1="476" x2="494" y1="509.6953" y2="527.6953"/><line style="stroke:#383838;stroke-width:2.0;" x1="476" x2="494" y1="527.6953" y2="509.6953"/><line style="stroke:#383838;stroke-width:2.0;" x1="339.5" x2="357.5" y1="509.6953" y2="527.6953"/><line style="stroke:#383838;stroke-width:2.0;" x1="339.5" x2="357.5" y1="527.6953" y2="509.6953"/><line style="stroke:#181818;stroke-width:1.0;" x1="90.5" x2="137.5" y1="542.8281" y2="542.8281"/><line style="stroke:#181818;stroke-width:1.0;" x1="137.5" x2="137.5" y1="542.8281" y2="555.8281"/><line style="stroke:#181818;stroke-width:1.0;" x1="96.5" x2="137.5" y1="555.8281" y2="555.8281"/><polygon fill="#181818" points="106.5,551.8281,96.5,555.8281,106.5,559.8281" style="stroke:#181818;stroke-width:1.0;"/><text fill="#000000" font-family="sans-serif" font-size="13" lengthAdjust="spacing" textLength="58" x="102.5" y="537.7622">print text</text><polygon fill="#181818" points="44.5,585.9609,34.5,589.9609,44.5,593.9609" style="stroke:#181818;stroke-width:1.0;"/><line style="stroke:#181818;stroke-width:1.0;" x1="38.5" x2="84.5" y1="589.9609" y2="589.9609"/><text fill="#000000" font-family="sans-serif" font-size="13" lengthAdjust="spacing" textLength="23" x="50.5" y="584.895">exit</text><!--SRC=[ZLF1Ri8m3BttAxnUKTjx1PMcNSTfLoIKjHwpI9qkSHdRroy96O8Mj5MH4jdFxxsupWDngySEeIohyxBep6XRT5LdschGYcNiTTLgL5owFN6MlPeZv8-yLsGS-3tFm7-g5MCX7ntQ79I3S8Y9GLcXbWRF16j579AztsV9_4dJa-bxnPsB5AscRPi2S_HoAShjcsR3p-G46SH0ShNX5xI7P4J7x5RCriNWFvbsw5CRNYjMknbJVufco1tuTanwaiJdGXD0u4oUpaH54vi3YmNKi4C19qemorQhSB8o3h1QPLbPba1CGahJjn8oxFzY6M6fOn4MgJpbPIUdr5Uvecdcr_GLDLZy6D59e1yq2gRgEJXGd6u5HH6rxfHEbQSkQ_XK9F3cnqhUqREumR2xb4moosLngLZVz_YBQYPYDyl-jEUTzKh0Z3AC0e97EJNSsvcm-oPSeZhqhuKENkHwnk_7dLZpTJiudyfv9atPUHxIYDKmME9aAZpOOFs42PRnI5TUuwlz0G00]--></g></svg>